<svg xmlns="http://www.w3.org/2000/svg" width="266" height="33" viewBox="0 0 266 33" fill="none"><path d="M265.5 0.705826V5.40098H251.198V13.834H261.785V18.4836H251.198V27.099H265.5V31.7941H246.043V0.705826H265.5Z" fill="black"></path><path d="M230.572 32.25H230.293C223.792 32.25 219.334 29.1503 219.334 22.2215H224.442C224.442 26.5064 226.253 27.6916 230.293 27.6916H230.572C234.426 27.6916 236.191 26.552 236.191 23.4523C236.191 19.8056 231.779 18.985 228.389 17.8454C222.91 16.0221 219.845 13.6061 219.891 8.63746C219.984 3.1218 224.21 0.25 229.69 0.25H229.968C236.237 0.25 240.556 3.34972 240.556 10.3241H235.448C235.448 5.99359 233.776 4.80841 229.968 4.80841H229.69C226.671 4.80841 225.092 5.99359 225.092 8.63746C225.092 11.7828 227.879 12.74 231.036 13.6973C236.841 15.4751 241.299 17.6631 241.299 23.4523C241.299 29.3782 236.934 32.25 230.572 32.25Z" fill="black"></path><path d="M217.714 31.7941H212.374L210.238 22.9964H201.229L199.093 31.7941H193.566L201.879 0.705826H209.634L217.714 31.7941ZM205.501 5.40098L202.39 18.3013H209.123L206.012 5.40098H205.501Z" fill="black"></path><path d="M184.206 14.1075V0.705826H189.36V31.7941H184.206V18.8027H173.572V31.7941H168.417V0.705826H173.572V14.1075H184.206Z" fill="black"></path><path d="M152.009 32.25H151.731C145.415 32.25 140.957 28.4665 140.957 20.854V11.646C140.957 4.03348 145.415 0.25 151.731 0.25H152.009C158.325 0.25 162.783 4.03348 162.783 11.646H157.628C157.628 6.44943 155.864 4.80841 152.009 4.80841H151.731C147.876 4.80841 146.112 6.44943 146.112 11.646V20.854C146.112 26.0506 147.876 27.6916 151.731 27.6916H152.009C155.864 27.6916 157.628 26.0506 157.628 20.854H162.783C162.783 28.4665 158.325 32.25 152.009 32.25Z" fill="black"></path><path d="M116.312 32.25H116.034C109.532 32.25 105.074 29.1503 105.074 22.2215H110.182C110.182 26.5064 111.993 27.6916 116.034 27.6916H116.312C120.166 27.6916 121.931 26.552 121.931 23.4523C121.931 19.8056 117.52 18.985 114.13 17.8454C108.65 16.0221 105.585 13.6061 105.631 8.63746C105.724 3.1218 109.95 0.25 115.43 0.25H115.708C121.978 0.25 126.296 3.34972 126.296 10.3241H121.188C121.188 5.99359 119.516 4.80841 115.708 4.80841H115.43C112.411 4.80841 110.833 5.99359 110.833 8.63746C110.833 11.7828 113.619 12.74 116.777 13.6973C122.581 15.4751 127.039 17.6631 127.039 23.4523C127.039 29.3782 122.674 32.25 116.312 32.25Z" fill="black"></path><path d="M102.454 0.705826V5.40098H88.1507V13.834H98.7385V18.4836H88.1507V27.099H102.454V31.7941H82.9961V0.705826H102.454Z" fill="black"></path><path d="M57.0422 31.7941H51.9805V0.705826H57.9709L63.8221 14.062H64.3329L70.1841 0.705826H76.1745V31.7941H71.1128V9.59472H70.6485L65.401 21.0819H62.7076L57.553 9.59472H57.0422V31.7941Z" fill="black"></path><path d="M47.7736 31.7941H42.4333L40.2971 22.9964H31.2882L29.1521 31.7941H23.626L31.9383 0.705826H39.6934L47.7736 31.7941ZM35.5605 5.40098L32.4492 18.3013H39.1826L36.0713 5.40098H35.5605Z" fill="black"></path><path d="M10.7627 32.25H10.5306C4.77227 32.25 0.5 29.1047 0.5 21.5377V20.1246H5.65459V21.5377C5.65459 26.4152 7.23348 27.6004 10.5306 27.6004H10.7627C14.0134 27.6004 15.6387 26.4152 15.6387 21.5377V0.705841H20.7469V21.5377C20.7469 29.1047 16.521 32.25 10.7627 32.25Z" fill="black"></path></svg>
