<?xml version="1.0" standalone="no"?>
<!DOCTYPE svg PUBLIC "-//W3C//DTD SVG 1.1//EN" "http://www.w3.org/Graphics/SVG/1.1/DTD/svg11.dtd">
<svg xmlns:x="ns_extend;" xmlns:i="ns_ai;" xmlns:graph="ns_graphs;" xmlns="http://www.w3.org/2000/svg" xmlns:xlink="http://www.w3.org/1999/xlink" version="1.1" id="Layer_1" x="0px" y="0px" viewBox="0 0 185 130.7" style="enable-background:new 0 0 185 130.7;" xml:space="preserve" width="185" height="130.6999969482422">
 <style type="text/css">
  .st0{fill-rule:evenodd;clip-rule:evenodd;fill:#05294B;}
	.st1{fill-rule:evenodd;clip-rule:evenodd;fill:#007AFF;}
	.st2{fill:#007AFF;}
 </style>
 <metadata>
  <sfw xmlns="ns_sfw;">
   <slices>
   </slices>
   <sliceSourceBounds bottomLeftOrigin="true" height="130.7" width="185" x="16" y="18.3">
   </sliceSourceBounds>
  </sfw>
 </metadata>
 <desc>
  Created with Sketch.
 </desc>
 <g id="Otter-Blue-Vertical">
  <path id="Otter.ai" class="st0" d="M33.4,130.7c-8.9,0-15.1-6.5-15.1-15.2s6.1-15.2,15.1-15.2c8.6,0,15,6.1,15,15.2   C48.4,124.6,42,130.7,33.4,130.7z M33.4,126c5.5,0,9.7-4.4,9.7-10.5c0-6.1-4.2-10.5-9.7-10.5c-5.8,0-9.8,4.7-9.8,10.5   C23.5,121.3,27.5,126,33.4,126z M59.9,130.7c-3.5,0-5.7-2.2-5.7-6.8v-10h-2.5v-4h2.5v-6.8l4.7-0.5v7.3h6v4h-6v9.6   c0,2.1,0.6,2.9,2,2.9c0.8,0,1.9-0.3,3-0.9l1.2,4.1C63.9,130.2,62.6,130.7,59.9,130.7z M75.2,130.7c-3.5,0-5.7-2.2-5.7-6.8v-10H67   v-4h2.5v-6.8l4.7-0.5v7.3h6v4h-6v9.6c0,2.1,0.6,2.9,2,2.9c0.8,0,1.9-0.3,3-0.9l1.2,4.1C79.2,130.2,77.9,130.7,75.2,130.7z    M103.2,119.9c0,0.8-0.1,1.5-0.1,1.9h-15c0.6,2.9,2.8,4.7,5.8,4.7c2.4,0,4.1-1.1,5.1-2.4l3.3,2.8c-1.7,2.2-4.6,3.9-8.7,3.9   c-6,0-10.5-4.2-10.5-10.6c0-6.3,4.3-10.5,10-10.5C99.3,109.6,103.2,113.9,103.2,119.9z M93.5,113.9c-2.6,0-4.6,1.5-5.3,4.2h10.2   C97.8,115.5,96.2,113.9,93.5,113.9z M119.2,109.6h0.6v5.2c-0.5,0-1.1-0.1-1.4-0.1c-3.6,0-5.6,2.6-5.6,5.9v9.7H108v-20.5h4.7v3.1h0   C114.4,110.8,116.7,109.6,119.2,109.6z M126.3,130.7c-1.8,0-3.2-1.4-3.2-3.1s1.4-3.2,3.2-3.2c1.7,0,3.2,1.4,3.2,3.2   S128,130.7,126.3,130.7z M150,109.9h4.7v20.5h-4.5v-2.7h-0.1c-1.5,2-3.7,3.1-6.5,3.1c-5.7,0-9.9-4.2-9.9-10.5   c0-6.2,4.2-10.6,9.9-10.6c2.6,0,4.8,1,6.3,2.8h0.1V109.9z M144.4,126.5c3.2,0,5.8-2.5,5.8-6.2c0-3.7-2.5-6.4-5.8-6.4   c-3.3,0-5.9,2.5-5.9,6.4C138.5,123.9,140.9,126.5,144.4,126.5z M163.3,106.9c-1.8,0-3.2-1.4-3.2-3.1c0-1.7,1.4-3.1,3.2-3.1   c1.8,0,3.2,1.4,3.2,3.1C166.5,105.5,165.1,106.9,163.3,106.9z M161,130.4v-20.5h4.7v20.5H161z">
  </path>
  <g id="logo-otter" transform="translate(16.000000, 16.000000)">
   <path id="Rectangle-3-Copy-5" class="st1" d="M103-15L103-15c5.5,0,10,4.5,10,10v51c0,5.5-4.5,10-10,10l0,0c-5.5,0-10-4.5-10-10    V-5C93-10.5,97.5-15,103-15z">
   </path>
   <path id="Rectangle-3-Copy-4" class="st1" d="M75-15L75-15c5.5,0,10,4.5,10,10v51c0,5.5-4.5,10-10,10l0,0c-5.5,0-10-4.5-10-10V-5    C65-10.5,69.5-15,75-15z">
   </path>
   <path id="Rectangle-3-Copy-3" class="st1" d="M131,8L131,8c5.5,0,10,4.5,10,10v6c0,5.5-4.5,10-10,10l0,0c-5.5,0-10-4.5-10-10v-6    C121,12.5,125.5,8,131,8z">
   </path>
   <path id="Rectangle-3-Copy-2" class="st1" d="M159-2L159-2c5.5,0,10,4.5,10,10v25c0,5.5-4.5,10-10,10l0,0c-5.5,0-10-4.5-10-10V8    C149,2.5,153.5-2,159-2z">
   </path>
   <path id="Mask-Copy" class="st2" d="M20.5,37.8c9.7,0,17.6-7.9,17.6-17.6S30.2,2.7,20.5,2.7S3,10.6,3,20.3S10.8,37.8,20.5,37.8z     M20.5,57C0.3,57-16,40.7-16,20.5S0.3-16,20.5-16S57,0.3,57,20.5S40.7,57,20.5,57z">
   </path>
  </g>
 </g>
</svg>