<?xml version="1.0" standalone="no"?>
<!DOCTYPE svg PUBLIC "-//W3C//DTD SVG 1.1//EN" "http://www.w3.org/Graphics/SVG/1.1/DTD/svg11.dtd">
<svg xmlns="http://www.w3.org/2000/svg" width="163" height="32" viewBox="0 0 163 32" fill="none">
<path d="M12.1913 32C11.541 32 11.1919 31.6171 11.1344 31.2376C11.0729 30.8311 11.3172 30.2585 12.2082 29.9822C14.3467 29.3204 21.5315 26.4956 24.2033 17.933C24.9018 15.6955 24.7286 13.3316 23.7157 11.2766C22.7021 9.22022 20.9706 7.72154 18.84 7.05672C18.0671 6.81565 17.2686 6.69338 16.4667 6.69338C12.7751 6.69338 9.39348 9.2674 8.24327 12.9529C8.04864 13.5764 7.53647 14.0466 7.05195 14.0466C6.77129 14.0466 6.59283 13.8841 6.49247 13.7477C6.24067 13.4053 6.17427 12.8456 6.32735 12.355C7.73631 7.83968 11.9072 4.68599 16.4699 4.68599C17.4721 4.68599 18.4706 4.83907 19.4379 5.141C24.8943 6.84342 27.8916 12.8502 26.1194 18.5309C23.1565 28.0267 15.1779 31.164 12.8031 31.8994C12.5886 31.9661 12.3828 32 12.1913 32ZM22.5611 31.4169C22.1839 31.4169 21.8703 31.2139 21.743 30.8872C21.5733 30.4521 21.7655 29.9223 22.2573 29.4699C25.2407 26.7233 27.459 23.216 28.6725 19.3275C29.7393 15.9091 29.4543 12.2854 27.87 9.12387C26.279 5.94902 23.5674 3.62789 20.2346 2.5878C19.0288 2.21166 17.7725 2.02095 16.5006 2.02095C10.6703 2.02095 5.55598 5.85367 3.77448 11.5583C3.36254 12.8771 3.57258 14.2845 4.33634 15.3231C4.98999 16.2119 5.98018 16.7217 7.05314 16.7217C8.71075 16.7217 10.2501 15.4995 10.7966 13.7496C11.6014 11.1698 13.9307 9.36797 16.4615 9.36797C16.9965 9.36797 17.5289 9.44944 18.0435 9.61001C19.497 10.0633 20.6717 11.0992 21.3511 12.527C22.0279 13.9493 22.1342 15.5862 21.6504 17.1364C19.6378 23.5867 13.6289 28.0918 7.03785 28.0918C6.20725 28.0918 5.37036 28.0198 4.55029 27.8778C3.6483 27.722 3.28486 27.182 3.32489 26.7159C3.36113 26.2924 3.73922 25.8649 4.5019 25.8649C4.62569 25.8649 4.75674 25.8767 4.89149 25.8999C5.59873 26.0223 6.32127 26.0844 7.03893 26.0844C12.7605 26.0839 17.9808 22.1584 19.7347 16.5384C20.4083 14.3785 19.3814 12.1298 17.4455 11.5256C17.1233 11.4253 16.7896 11.3743 16.4536 11.3743C14.797 11.3743 13.2585 12.597 12.7122 14.3474C11.9077 16.9269 9.57846 18.7283 7.04794 18.7283C5.3363 18.7283 3.76092 17.9211 2.72571 16.5137C1.58256 14.9593 1.25839 12.8834 1.85844 10.9605C3.87223 4.50709 9.87854 0 16.4648 0C17.9346 0 19.404 0.226091 20.8325 0.671875C24.6491 1.86266 27.7698 4.51447 29.62 8.13878C31.4797 11.782 31.8237 15.9679 30.5885 19.9254C29.2713 24.1463 26.8669 27.9499 23.6356 30.9248C23.1938 31.3315 22.8075 31.4169 22.5611 31.4169ZM7.01441 23.4158C4.69241 23.4155 2.48638 22.6011 0.634679 21.0605C0.106768 20.6194 -0.110428 20.0859 0.0537171 19.6335C0.17631 19.2956 0.493644 19.0858 0.882037 19.0858C1.21651 19.0858 1.57496 19.2376 1.91877 19.5246C3.39054 20.7525 5.1523 21.4016 7.01355 21.4016C10.7224 21.4016 14.1158 18.8285 15.2657 15.1442C15.514 14.3476 16.0155 14.0638 16.4019 14.0638C16.4845 14.0638 16.5654 14.076 16.6424 14.1001C17.1035 14.2439 17.469 14.8191 17.1816 15.7419C15.7714 20.2601 11.5909 23.4158 7.0155 23.4158H7.01441Z" fill="#4133F5"/>
<path d="M152.363 26.9306V11.3743H156.433V15.4141C157.488 11.3743 159.961 10.5905 162.252 11.314V15.1729C158.966 14.0273 156.433 15.5347 156.433 18.2179V26.9306H152.363Z" fill="#4133F5"/>
<path d="M133.359 19.1526C133.359 14.5701 136.887 11.073 141.529 11.073C146.745 11.073 150.393 15.4143 149.549 20.5997H137.55C138.093 22.4387 139.66 23.7351 141.801 23.7351C143.489 23.7351 144.906 22.9211 145.66 21.5644L149.006 23.0718C147.649 25.5138 145.057 27.2322 141.68 27.2322C136.947 27.2322 133.359 23.7351 133.359 19.1526ZM137.61 17.4945H145.479C144.936 15.7459 143.459 14.5701 141.529 14.5701C139.69 14.5701 138.183 15.7459 137.61 17.4945Z" fill="#4133F5"/>
<path d="M115.621 26.9305V4.62109H119.691V15.3537C120.505 12.7309 122.495 11.0727 125.088 11.0727C128.555 11.0727 130.816 13.786 130.816 17.4942V26.9305H126.746V18.2178C126.746 16.1979 125.299 14.7809 123.369 14.7809C121.198 14.7809 119.691 16.1979 119.691 18.2178V26.9305H115.621Z" fill="#4133F5"/>
<path d="M97.4121 19.1526C97.4121 14.5701 101 11.073 105.733 11.073C109.049 11.073 111.883 12.8517 113.21 16.0172L109.471 17.3136C108.778 15.7158 107.391 14.8113 105.733 14.8113C103.412 14.8113 101.633 16.6805 101.633 19.1526C101.633 21.6549 103.412 23.4939 105.733 23.4939C107.391 23.4939 108.778 22.5895 109.471 20.9916L113.21 22.288C111.883 25.4535 109.049 27.2322 105.733 27.2322C101 27.2322 97.4121 23.7351 97.4121 19.1526Z" fill="#4133F5"/>
<path d="M84.7676 14.9619V11.3743H87.903V6.79184L91.9729 5.52563V11.3743H96.0127V14.9619H91.9729V21.1422C91.9729 22.6496 92.6663 23.343 94.1737 23.343H96.0127V26.9306H94.1737C89.8927 26.9306 87.903 24.9408 87.903 20.901V14.9619H84.7676Z" fill="#4133F5"/>
<path d="M78.6428 26.9305V11.3742H82.7127V26.9305H78.6428ZM78.2207 7.06307C78.2207 5.70641 79.3362 4.62109 80.6928 4.62109C82.0193 4.62109 83.1348 5.70641 83.1348 7.06307C83.1348 8.38957 82.0193 9.50504 80.6928 9.50504C79.3362 9.50504 78.2207 8.38957 78.2207 7.06307Z" fill="#4133F5"/>
<path d="M60.3008 26.9308V11.3745H64.3707V15.354C65.1847 12.7311 67.1745 11.073 69.7672 11.073C73.2342 11.073 75.4953 13.7863 75.4953 17.4945V26.9308H71.4253V18.218C71.4253 16.1981 69.9782 14.7812 68.0488 14.7812C65.8781 14.7812 64.3707 16.1981 64.3707 18.218V26.9308H60.3008Z" fill="#4133F5"/>
<path d="M45.3802 20.479C45.7119 22.3481 47.0685 23.4937 49.42 23.4937C51.5304 23.4937 52.9172 22.4084 52.9172 21.0518C52.9172 16.9818 41.4912 19.5745 41.4912 11.7662C41.4912 8.20879 44.8979 5.52563 49.2391 5.52563C53.701 5.52563 56.6857 7.96761 57.1982 11.4045L52.8267 12.2787C52.4951 10.4699 51.1686 9.23382 49.0884 9.23382C47.2192 9.23382 45.953 10.1985 45.953 11.5251C45.953 15.4141 57.3791 12.8214 57.3791 20.9312C57.3791 24.5489 53.8216 27.2321 49.2994 27.2321C44.717 27.2321 41.5515 24.9107 41.0088 21.3532L45.3802 20.479Z" fill="#4133F5"/>
</svg>