<svg version="1.1" xmlns="http://www.w3.org/2000/svg" style="display: block;" viewBox="0 0 2048 1619" width="659" height="521" preserveAspectRatio="none">
<defs>
	<linearGradient id="Gradient1" gradientUnits="userSpaceOnUse" x1="1270.97" y1="1065.63" x2="2138.01" y2="464.583">
		<stop class="stop0" offset="0" stop-opacity="1" stop-color="rgb(24,145,199)"/>
		<stop class="stop1" offset="1" stop-opacity="1" stop-color="rgb(3,213,211)"/>
	</linearGradient>
	<linearGradient id="Gradient2" gradientUnits="userSpaceOnUse" x1="-115.226" y1="1220.56" x2="1097.66" y2="443.306">
		<stop class="stop0" offset="0" stop-opacity="1" stop-color="rgb(61,20,137)"/>
		<stop class="stop1" offset="1" stop-opacity="1" stop-color="rgb(39,93,177)"/>
	</linearGradient>
</defs>
<path transform="translate(0,0)" fill="url(#Gradient2)" d="M 1549.12 11.357 C 1570.2 9.39979 1596.99 7.92274 1618.05 11.3647 C 1629.99 12.3336 1646.64 13.1291 1658.02 14.8636 C 1763.58 30.3851 1859.99 83.5044 1929.51 164.449 C 1982.85 226.528 2018.68 301.697 2033.33 382.22 C 2041.28 423.875 2040.03 450.906 2039.71 493.03 C 2039.46 519.257 2039.39 545.485 2039.49 571.713 L 2039.56 891.871 L 2040 1215.5 C 2039.95 1240.73 2039.95 1266.11 2039.74 1291.33 C 2039.55 1315.36 2040.92 1343.06 2038.97 1366.8 C 2033.16 1437.79 1998.93 1503.43 1944.03 1548.81 C 1891.73 1592.82 1818.24 1612.59 1750.87 1606.1 C 1686.44 1599.89 1624.06 1566.51 1582.62 1517 C 1553.69 1482.1 1533.96 1440.5 1525.23 1396.02 C 1517.52 1357.3 1519.17 1323.85 1519.5 1284.55 C 1519.71 1254.84 1519.78 1225.14 1519.69 1195.44 L 1519.3 829.853 L 1519.53 766.495 C 1519.62 744.149 1521.69 708.92 1514.91 688.242 C 1500.25 643.238 1460.31 611.199 1413.19 606.64 C 1330.17 598.808 1287.41 659.999 1259.12 727.532 L 1255.19 737.053 C 1253.6 747.141 1265.39 773.419 1269.35 783.929 C 1276.78 803.599 1283.75 823.437 1290.27 843.426 C 1312.34 912.603 1340.1 1011.44 1331.32 1083.14 C 1321.7 1164.45 1280.09 1238.58 1215.7 1289.15 C 1150.59 1339 1068.26 1360.77 987.024 1349.62 C 908.922 1339.62 837.865 1299.36 789.139 1237.51 C 693.784 1114.4 718.532 978.157 763.75 839.597 C 767.409 828.384 773.262 811.997 776.909 801.514 C 781.229 789.095 798.837 750.965 799.431 740.518 C 798.121 712.306 773.538 675.402 756.2 654.847 C 721.157 613.302 667.078 594.203 614.946 611.676 C 577.245 624.313 543.514 661.538 536.478 701.018 C 532.614 722.702 534.251 749.672 534.433 772.222 C 534.67 801.299 534.706 830.376 534.542 859.454 L 534.416 1214.48 L 534.053 1305.87 C 534.029 1328.57 534.51 1352.49 532.781 1375.05 C 527.737 1440.85 493.492 1504.2 443.525 1546.93 C 388.351 1594.12 320.429 1611.58 248.891 1605.85 C 181.89 1600.77 119.664 1569.23 75.9435 1518.21 C 47.1697 1484.3 25.7085 1438.88 18.4826 1394.94 C 13.07 1362.04 13.7515 1332.98 13.9194 1300.02 L 14.0794 1224.05 L 14.0807 936.997 L 13.7294 591.408 C 13.829 561.62 13.7743 531.832 13.5654 502.045 C 13.43 478.644 12.8859 451.24 14.8195 428.085 C 23.6931 308.208 80.4151 196.94 172.213 119.336 C 271.92 35.2472 396.192 1.15508 524.855 14.8872 C 724.786 36.2256 898.528 191.216 1022.6 338.86 C 1024.3 341.07 1025.6 342.982 1027.69 344.843 C 1029.77 347.424 1030.64 348.58 1033.09 350.757 C 1038.49 338.216 1048.75 326.385 1057.64 316.077 C 1186.13 166.982 1344.35 26.8461 1549.12 11.357 z M 1178.05 574.254 C 1181.6 581.282 1183.82 585.343 1188.18 591.866 C 1197.06 572.245 1215.83 555.484 1231.51 541.819 C 1268.25 509.815 1312.51 485.768 1361.05 478.56 C 1378.81 475.923 1393.94 472.771 1412.71 475.041 C 1494.61 484.942 1555.84 515.253 1602.44 582.776 C 1624.15 614.295 1638.51 650.28 1644.48 688.083 C 1647.47 707.951 1646.26 740.577 1646.3 761.666 L 1646.44 898.253 L 1646.15 1244.19 L 1646.64 1311.43 C 1647.1 1359.81 1646.2 1394 1680.19 1433.86 C 1728.06 1489.97 1813.87 1492.61 1868.98 1445.51 C 1918.78 1402.95 1912.89 1350.94 1912.6 1292.53 L 1912.51 1189.33 L 1912.28 781.689 L 1912.15 551.119 L 1912.22 483.911 C 1912.24 458.218 1912.85 441.322 1908.91 416.094 C 1899.23 354.112 1873.79 293.579 1832.2 246.351 C 1790.5 198.996 1736.65 166.098 1675.69 150.336 C 1656.69 145.422 1643.45 141.189 1623.29 140.002 C 1516.44 124.414 1413.08 168.486 1328.91 231.306 C 1263.7 279.358 1205.02 335.697 1154.36 398.903 C 1138.36 419.098 1125.67 440.587 1111.25 458.916 C 1113.52 465.472 1121.86 477.995 1125.92 484.619 C 1134.6 498.63 1143.15 512.719 1151.57 526.886 C 1159.98 541.243 1169.77 561.623 1178.05 574.254 z M 714.754 487.15 C 782.257 506.082 824.45 539.552 868.715 593.48 C 888.459 617.544 906.162 643.212 921.642 670.216 C 966.186 748.765 940.109 723.81 912.26 798.455 C 876.436 894.474 820.343 1037.52 873.003 1134.59 C 895.222 1176.45 933.555 1207.44 979.145 1220.4 C 1023.98 1233.43 1074.84 1225.5 1115.46 1202.98 C 1155.21 1180.71 1184.42 1143.5 1196.63 1099.61 C 1202.1 1080.41 1204.57 1060.47 1203.94 1040.52 C 1202.68 1007.21 1192.89 966.379 1184.33 934.253 C 1154.43 822.792 1110.88 715.452 1054.65 614.675 C 1026.26 564.348 996.43 516.297 961.963 469.708 C 889.962 372.383 776.105 255.151 670.787 194.787 C 637.414 175.364 601.629 160.418 564.355 150.335 C 527.379 140.041 497.796 137.843 459.627 138.455 C 446.166 138.872 431.211 139.049 417.943 141.205 C 347.137 152.71 278.652 186.064 229.362 238.333 C 186.022 283.449 156.597 340.097 144.607 401.498 C 136.116 444.205 138.869 506.475 138.947 551.709 L 139.052 748.846 L 140.007 1149.67 L 140.617 1262.35 C 140.552 1291.52 140.09 1321 140.59 1350 C 141.308 1391.69 157.594 1427.04 190.197 1452.67 C 271.679 1516.72 397.156 1468.77 408.273 1363.82 C 410.139 1346.2 409.453 1328.59 409.336 1311.04 L 408.874 1242.62 L 409.676 919.96 L 409.545 785.241 C 409.39 754.773 407.762 718.029 411.392 688.173 C 418.949 626.017 455.976 565.2 506.098 528.008 C 544.431 499.546 590.313 483.034 637.993 480.542 C 663.138 479.228 690.314 480.856 714.754 487.15 z"/>
<path transform="translate(0,0)" fill="url(#Gradient1)" d="M 1549.12 11.357 C 1570.2 9.39979 1596.99 7.92274 1618.05 11.3647 C 1629.99 12.3336 1646.64 13.1291 1658.02 14.8636 C 1763.58 30.3851 1859.99 83.5044 1929.51 164.449 C 1982.85 226.528 2018.68 301.697 2033.33 382.22 C 2041.28 423.875 2040.03 450.906 2039.71 493.03 C 2039.46 519.257 2039.39 545.485 2039.49 571.713 L 2039.56 891.871 L 2040 1215.5 C 2039.95 1240.73 2039.95 1266.11 2039.74 1291.33 C 2039.55 1315.36 2040.92 1343.06 2038.97 1366.8 C 2033.16 1437.79 1998.93 1503.43 1944.03 1548.81 C 1891.73 1592.82 1818.24 1612.59 1750.87 1606.1 C 1686.44 1599.89 1624.06 1566.51 1582.62 1517 C 1553.69 1482.1 1533.96 1440.5 1525.23 1396.02 C 1517.52 1357.3 1519.17 1323.85 1519.5 1284.55 C 1519.71 1254.84 1519.78 1225.14 1519.69 1195.44 L 1519.3 829.853 L 1519.53 766.495 C 1519.62 744.149 1521.69 708.92 1514.91 688.242 C 1500.25 643.238 1460.31 611.199 1413.19 606.64 C 1330.17 598.808 1287.41 659.999 1259.12 727.532 L 1255.19 737.053 C 1253.6 736.527 1251.93 735.528 1251.25 733.936 C 1231.35 687.075 1206.9 639.936 1187.51 593.063 L 1188.18 591.866 C 1197.06 572.245 1215.83 555.484 1231.51 541.819 C 1268.25 509.815 1312.51 485.768 1361.05 478.56 C 1378.81 475.923 1393.94 472.771 1412.71 475.041 C 1494.61 484.942 1555.84 515.253 1602.44 582.776 C 1624.15 614.295 1638.51 650.28 1644.48 688.083 C 1647.47 707.951 1646.26 740.577 1646.3 761.666 L 1646.44 898.253 L 1646.15 1244.19 L 1646.64 1311.43 C 1647.1 1359.81 1646.2 1394 1680.19 1433.86 C 1728.06 1489.97 1813.87 1492.61 1868.98 1445.51 C 1918.78 1402.95 1912.89 1350.94 1912.6 1292.53 L 1912.51 1189.33 L 1912.28 781.689 L 1912.15 551.119 L 1912.22 483.911 C 1912.24 458.218 1912.85 441.322 1908.91 416.094 C 1899.23 354.112 1873.79 293.579 1832.2 246.351 C 1790.5 198.996 1736.65 166.098 1675.69 150.336 C 1656.69 145.422 1643.45 141.189 1623.29 140.002 C 1516.44 124.414 1413.08 168.486 1328.91 231.306 C 1263.7 279.358 1205.02 335.697 1154.36 398.903 C 1138.36 419.098 1125.67 440.587 1111.25 458.916 C 1105.18 454.745 1040.74 364.524 1032.69 352.064 L 1033.09 350.757 C 1038.49 338.216 1048.75 326.385 1057.64 316.077 C 1186.13 166.982 1344.35 26.8461 1549.12 11.357 z"/>
<path transform="translate(0,0)" fill="rgb(45,207,216)" d="M 1549.12 11.357 C 1570.2 9.39979 1596.99 7.92274 1618.05 11.3647 C 1617.31 12.3007 1615.86 13.7046 1614.49 13.7583 C 1594.53 14.5405 1573.35 15.0143 1553.48 13.4029 C 1551.82 13.2684 1550.13 12.0585 1549.12 11.357 z"/>
</svg>