<svg version="1.1" xmlns="http://www.w3.org/2000/svg" style="display: block;" viewBox="0 0 1943 2048" width="721" height="760" preserveAspectRatio="none">
<defs>
	<linearGradient id="Gradient1" gradientUnits="userSpaceOnUse" x1="1178.9" y1="928.914" x2="1930.9" y2="397.272">
		<stop class="stop0" offset="0" stop-opacity="1" stop-color="rgb(24,145,198)"/>
		<stop class="stop1" offset="1" stop-opacity="1" stop-color="rgb(3,213,211)"/>
	</linearGradient>
	<linearGradient id="Gradient2" gradientUnits="userSpaceOnUse" x1="-21.5728" y1="1058.15" x2="1029.7" y2="384.483">
		<stop class="stop0" offset="0" stop-opacity="1" stop-color="rgb(61,20,137)"/>
		<stop class="stop1" offset="1" stop-opacity="1" stop-color="rgb(39,93,177)"/>
	</linearGradient>
</defs>
<path transform="translate(0,0)" fill="url(#Gradient2)" d="M 1479.87 9.50485 C 1492.44 11.1241 1506.39 11.3622 1518.27 13.3808 C 1619.3 30.544 1702.36 78.2394 1765.04 159.475 C 1804.17 210.304 1830.4 269.863 1841.47 333.048 C 1848.46 372.603 1847.21 393.37 1847.04 432.988 L 1846.95 509.134 L 1847.07 810.008 L 1847.14 1065.46 L 1847.05 1139.14 C 1847.05 1157.41 1847.54 1174.2 1845.52 1192.46 C 1826.16 1367.74 1621.38 1454.73 1482.26 1346.35 C 1467.92 1335.18 1456.36 1323.35 1445.24 1308.9 C 1416.8 1271.58 1399.83 1226.79 1396.41 1179.99 C 1395.01 1160.71 1395.65 1137.1 1395.73 1117.52 L 1395.91 1024.56 C 1395.9 1010.85 1396.74 980.679 1395.07 968.083 C 1397.27 955.132 1395.72 917.373 1395.17 903.325 C 1396.74 894.989 1395.87 867.448 1395.73 857.406 C 1395.57 841.159 1395.56 824.911 1395.7 808.664 L 1395.81 680.684 C 1395.78 655.112 1398.83 614.838 1390.09 591.994 C 1380.35 566.238 1360.62 545.505 1335.38 534.5 C 1310.02 523.177 1279.17 522.526 1253.3 532.656 C 1205.42 551.405 1185.89 594.475 1166.67 638.404 C 1165.62 645.695 1169.68 657.875 1173.12 664.053 L 1179.9 682.152 C 1191.45 714.893 1200.21 741.518 1209.85 774.894 C 1216.01 798.204 1221.41 819.161 1226.56 842.778 C 1229.87 861.694 1233.12 879.77 1233.98 898.999 C 1236.07 956.31 1219.62 1012.77 1187.07 1059.98 C 1133.67 1136.27 1049.49 1176.43 957.033 1172.23 C 831.307 1166.51 727.342 1074.31 708.987 949.5 C 696.573 863.783 722.838 780.165 749.806 699.78 C 753.493 686.623 772.677 651.712 771.241 640.037 C 767.167 606.922 736.374 565.207 710.155 546.074 C 661.898 510.86 594.797 520.161 560.031 569.52 C 539.612 598.509 541.134 621.498 541.451 655.554 C 541.692 673.277 541.803 691.002 541.782 708.726 L 541.701 1042.32 L 541.191 1135.08 C 541.099 1154.4 541.654 1175.59 539.96 1194.61 C 538.713 1210.24 535.506 1225.66 530.415 1240.49 C 463.732 1437.17 190.116 1446.71 108.461 1258.53 C 84.404 1207.84 89.9717 1129.51 90.0675 1073.5 L 90.1228 884.4 L 89.9172 541.315 C 89.9355 492.165 89.0415 440.728 89.8985 391.761 C 92.1377 288.403 135.515 190.209 210.414 118.949 C 288.473 43.729 388.462 8.75791 496.237 10.93 C 665.687 14.3452 800.635 118.768 913.322 236.007 C 926.347 249.792 940.465 264.413 952.407 279.039 C 956.272 283.695 965.643 295.568 969.578 299.226 C 971.305 301.55 971.603 302.053 973.795 304.071 C 983.915 284.447 1005.01 262.991 1019.92 246.167 C 1119.18 134.175 1266.87 14.7976 1422.67 9.98582 C 1429.03 13.637 1473.79 13.6707 1479.87 9.50485 z M 1077.59 459.022 C 1088.86 475.411 1097.47 497.609 1108.58 513.309 C 1110.52 508.88 1112.77 504.43 1115.82 500.722 C 1154.3 453.952 1207.84 420.984 1268.54 413.268 C 1319.88 406.74 1380.39 424.896 1421.4 455.743 C 1461.64 486.009 1489.84 532.958 1501.18 581.509 C 1507.2 607.593 1505.9 626.955 1505.9 653.209 L 1505.91 716.574 L 1505.72 1027.7 L 1505.92 1127.23 C 1506 1140.51 1505.9 1153.81 1506.25 1167.09 C 1508.15 1239.76 1569.1 1292.41 1641.52 1280.5 C 1671.81 1275.36 1698.87 1258.51 1716.86 1233.6 C 1740.44 1200.43 1736.94 1166.1 1736.77 1127.84 L 1736.66 1045.12 L 1736.42 773.007 L 1736.29 491.353 C 1736.19 469.123 1736.2 446.892 1736.33 424.662 C 1736.41 400.752 1737.16 384.393 1733.38 360.507 C 1721.15 283.046 1683.27 215.949 1618.57 170.26 C 1558.07 127.539 1470.61 110.052 1397.24 123.163 C 1279.35 144.227 1169.35 241.196 1092.81 329.23 C 1073.43 351.513 1058.47 374.385 1041.68 398.206 C 1049.8 416.123 1071.01 442.967 1077.59 459.022 z M 703.836 424.083 C 791.121 450.339 844.522 521.774 886.664 598.277 C 904.203 630.118 901.914 626.106 886.475 656.556 C 851.748 725.042 809.781 847.919 816.417 923.136 C 818.281 942.354 823.658 961.067 832.281 978.343 C 893.155 1102.24 1073.07 1086.48 1114.06 959.353 C 1120.06 940.826 1122.78 921.394 1122.1 901.931 C 1120.98 873.395 1112.76 838.939 1105.46 811.378 C 1082.8 726.934 1051.24 645.137 1011.3 567.366 C 982.105 510.693 948.457 456.43 910.669 405.087 C 835.965 304.323 709.869 176.859 587.321 136.146 C 545.349 122.202 509.022 118.598 464.935 120.414 C 394.212 123.646 321.696 157.908 273.841 210.104 C 237.474 249.235 212.95 297.877 203.112 350.384 C 196.26 386.493 198.602 443.675 198.695 482.675 C 198.4 544.085 198.451 605.497 198.849 666.906 L 199.812 1038.68 C 200.186 1083.86 199.594 1129.08 200.186 1174.2 C 201.027 1238.32 257.458 1287.43 320.334 1284.82 C 374.964 1282.56 421.961 1244.48 431.142 1190.03 C 434.099 1172.5 433.207 1154.06 433.085 1136.32 L 432.687 1069.56 L 433.308 780.114 L 433.202 686.438 C 433.061 647.839 430.258 603.662 441.095 566.949 C 466.055 482.315 541.281 422.327 629.348 416.83 C 656.312 415.25 677.843 417.102 703.836 424.083 z"/>
<path transform="translate(0,0)" fill="url(#Gradient1)" d="M 1479.87 9.50485 C 1492.44 11.1241 1506.39 11.3622 1518.27 13.3808 C 1619.3 30.544 1702.36 78.2394 1765.04 159.475 C 1804.17 210.304 1830.4 269.863 1841.47 333.048 C 1848.46 372.603 1847.21 393.37 1847.04 432.988 L 1846.95 509.134 L 1847.07 810.008 L 1847.14 1065.46 L 1847.05 1139.14 C 1847.05 1157.41 1847.54 1174.2 1845.52 1192.46 C 1826.16 1367.74 1621.38 1454.73 1482.26 1346.35 C 1467.92 1335.18 1456.36 1323.35 1445.24 1308.9 C 1416.8 1271.58 1399.83 1226.79 1396.41 1179.99 C 1395.01 1160.71 1395.65 1137.1 1395.73 1117.52 L 1395.91 1024.56 C 1395.9 1010.85 1396.74 980.679 1395.07 968.083 C 1397.27 955.132 1395.72 917.373 1395.17 903.325 C 1396.74 894.989 1395.87 867.448 1395.73 857.406 C 1395.57 841.159 1395.56 824.911 1395.7 808.664 L 1395.81 680.684 C 1395.78 655.112 1398.83 614.838 1390.09 591.994 C 1380.35 566.238 1360.62 545.505 1335.38 534.5 C 1310.02 523.177 1279.17 522.526 1253.3 532.656 C 1205.42 551.405 1185.89 594.475 1166.67 638.404 L 1163.59 637.857 C 1150.93 610.969 1139.76 583.369 1126.56 556.14 C 1124.25 550.603 1108.17 516.444 1108.58 513.309 C 1110.52 508.88 1112.77 504.43 1115.82 500.722 C 1154.3 453.952 1207.84 420.984 1268.54 413.268 C 1319.88 406.74 1380.39 424.896 1421.4 455.743 C 1461.64 486.009 1489.84 532.958 1501.18 581.509 C 1507.2 607.593 1505.9 626.955 1505.9 653.209 L 1505.91 716.574 L 1505.72 1027.7 L 1505.92 1127.23 C 1506 1140.51 1505.9 1153.81 1506.25 1167.09 C 1508.15 1239.76 1569.1 1292.41 1641.52 1280.5 C 1671.81 1275.36 1698.87 1258.51 1716.86 1233.6 C 1740.44 1200.43 1736.94 1166.1 1736.77 1127.84 L 1736.66 1045.12 L 1736.42 773.007 L 1736.29 491.353 C 1736.19 469.123 1736.2 446.892 1736.33 424.662 C 1736.41 400.752 1737.16 384.393 1733.38 360.507 C 1721.15 283.046 1683.27 215.949 1618.57 170.26 C 1558.07 127.539 1470.61 110.052 1397.24 123.163 C 1279.35 144.227 1169.35 241.196 1092.81 329.23 C 1073.43 351.513 1058.47 374.385 1041.68 398.206 C 1033.53 390.828 1028.53 381.787 1022.24 373.271 C 1010.92 357.96 997.34 335.458 984.942 321.748 C 982.304 317.49 974.251 307.796 973.795 304.071 C 983.915 284.447 1005.01 262.991 1019.92 246.167 C 1119.18 134.175 1266.87 14.7976 1422.67 9.98582 C 1429.03 13.637 1473.79 13.6707 1479.87 9.50485 z"/>
<path transform="translate(0,0)" fill="rgb(38,92,178)" d="M 984.942 321.748 L 984.332 322.727 C 982.053 323.901 966.194 329.171 963.037 329.303 C 955.974 325.787 945.802 325.397 940.876 319.277 C 931.046 307.062 918.554 297.357 908.531 285.311 C 905.209 281.318 906.442 275.041 906.595 269.896 C 908.139 270.438 907.291 270.327 909.156 270.051 C 909.358 265.887 904.873 262.614 905.237 261.226 C 906.593 256.645 910.041 250.069 909.645 245.373 C 909.169 239.734 909.674 239.244 913.322 236.007 C 926.347 249.792 940.465 264.413 952.407 279.039 C 956.272 283.695 965.643 295.568 969.578 299.226 C 971.305 301.55 971.603 302.053 973.795 304.071 C 974.251 307.796 982.304 317.49 984.942 321.748 z"/>
<path transform="translate(0,0)" fill="rgb(38,92,178)" d="M 1077.59 459.022 C 1088.86 475.411 1097.47 497.609 1108.58 513.309 C 1108.17 516.444 1124.25 550.603 1126.56 556.14 C 1120.02 552.677 1122.67 550.06 1117.96 548.123 L 1119.06 550.052 C 1118.32 553.101 1119.16 552 1116.6 553.567 L 1115.01 552.436 C 1112.24 535.632 1105.59 544.337 1096.06 543.196 C 1091.52 540.984 1087.67 532.5 1084.95 527.957 C 1083.04 524.776 1085.63 520.384 1087.38 517.238 L 1088.11 515.949 C 1086.28 503.384 1078.81 490.43 1079.19 477.046 C 1079.34 471.733 1077.49 462.927 1077.59 459.022 z"/>
<path transform="translate(0,0)" fill="rgb(38,92,178)" d="M 1209.85 774.894 C 1216.01 798.204 1221.41 819.161 1226.56 842.778 C 1226.18 845.438 1226.54 846.363 1225.07 847.998 C 1224.51 846.521 1224.2 845.798 1223.55 844.396 C 1221.73 846.13 1222.31 845.716 1220.09 847.021 C 1218.66 844.908 1218.69 840.144 1218.48 837.31 C 1215.71 834.246 1207.23 834.196 1206.87 826.739 C 1206.06 809.702 1205.31 791.387 1209.85 774.894 z"/>
<path transform="translate(0,0)" fill="rgb(38,92,178)" d="M 1163.59 637.857 L 1166.67 638.404 C 1165.62 645.695 1169.68 657.875 1173.12 664.053 L 1179.9 682.152 C 1178.83 683.944 1177.98 684.762 1176.09 685.233 C 1175.15 682.577 1174.94 681.114 1174.46 678.394 C 1172.26 680.416 1173.5 679.895 1170.75 680.268 C 1164.79 674.795 1157.08 660.993 1154.63 653.252 L 1155.45 651.73 L 1158.35 651.392 C 1160.16 646.803 1161.65 642.445 1163.59 637.857 z"/>
<path transform="translate(0,0)" fill="rgb(25,43,90)" d="M 375.014 1629.53 C 394.616 1627.77 433.035 1628.87 453.693 1629.15 C 453.279 1641 453.802 1655.14 453.7 1667.31 C 453.336 1701.46 453.17 1735.63 453.202 1769.79 L 453.366 2028.45 C 431.341 2030.03 388.318 2028.58 365.276 2027.97 C 364.176 2001.17 365.258 1965.32 365.271 1937.75 C 365.397 1924.07 366.624 1800.82 364.347 1798.62 C 359.705 1801.12 354.836 1813.58 352.004 1818.47 C 338.167 1842.49 324.516 1866.61 311.051 1890.84 L 280.284 1946.72 C 273.707 1958.79 265.875 1972.11 260.748 1984.69 C 252.08 1985.31 209.031 1986.84 205.919 1981.39 C 178.379 1932.97 150.962 1884.29 124.059 1835.48 C 117.497 1823.57 105.852 1806.93 102.953 1794.26 C 101.593 1811.42 101.779 1830.38 101.96 1847.65 C 102.591 1907.94 100.948 1968.56 101.655 2028.81 C 75.5462 2027.05 41.1999 2028.87 13.7144 2028.09 C 12.3694 2012.72 13.2425 1983.79 13.2768 1967.01 L 13.7913 1846.95 L 13.7692 1694.29 C 13.7945 1682.9 13.1796 1637.2 15.4797 1629.31 C 41.351 1630.06 67.3916 1628.22 92.743 1630 C 101.979 1639.79 126.816 1690.14 136.53 1706.32 C 153.908 1735.27 171.714 1768.28 188.929 1797.79 C 202.797 1821.57 221.227 1851.49 232.722 1876.06 C 244.629 1861.24 264.357 1824.1 275.024 1805.68 L 375.014 1629.53 z"/>
<path transform="translate(0,0)" fill="rgb(25,43,90)" d="M 670.429 1717.4 C 715.048 1713.01 763.666 1728.63 794.773 1761.22 C 828.399 1796.46 837.941 1840.88 836.937 1888.11 C 836.848 1892.26 836.858 1899.12 833.777 1902.09 C 822.352 1903.98 782.734 1903 768.133 1902.86 C 717.211 1902.4 663.147 1904.21 612.555 1901.84 C 616.654 1919.78 623.846 1933.37 639.012 1943.86 C 666.397 1963.08 716.521 1964.3 744.879 1947.3 C 778.636 1927.07 766.38 1927.3 793.64 1954.28 C 798.323 1959.23 815.773 1976.11 815.24 1979.69 C 810.219 2013.44 723.536 2034.08 703.494 2034.34 C 653.984 2034.96 604.869 2022.73 570.695 1992.6 C 506.532 1936.03 503.099 1833.18 557.909 1770.08 C 587.795 1735.98 625.352 1720.42 670.429 1717.4 z M 609.694 1847.81 C 636.878 1848.14 664.064 1848.32 691.25 1848.33 C 711.237 1847.96 731.228 1847.85 751.218 1848.01 C 749.418 1836.07 748.286 1826.99 740.992 1816.99 C 723.513 1793.02 701.25 1786.4 673.073 1788.29 C 634.894 1796.08 620.799 1811.39 609.694 1847.81 z"/>
<path transform="translate(0,0)" fill="rgb(25,43,90)" d="M 1060.78 1718.41 C 1140.33 1712.52 1198.5 1749 1203.39 1833.27 C 1206.08 1879.47 1203.73 1925.67 1204.12 1971.92 C 1204.28 1990.83 1204.05 2009.94 1203.18 2028.83 C 1174.52 2027.15 1142.58 2029.65 1114.64 2027.49 C 1113.81 2018.09 1114.75 2002.15 1114.64 1991.87 L 1114.29 1891.31 C 1114.2 1870.42 1116.08 1837.89 1105.05 1819.98 C 1097.39 1807.78 1085.19 1799.14 1071.14 1795.97 C 1052.22 1791.65 1029.93 1795.05 1013.34 1805.52 C 1010.69 1807.65 1008.14 1809.91 1005.69 1812.29 C 978.758 1838.22 984.158 1891.99 984.201 1926.84 C 984.546 1960.79 984.421 1994.74 983.824 2028.68 C 979.258 2028.24 974.631 2028.23 970.049 2028.21 C 944.58 2028.06 919.115 2028.69 893.652 2027.88 C 895.458 1981.65 894.193 1934.91 894.367 1888.57 L 894.326 1789 C 894.356 1767.03 894.926 1745.63 894.194 1723.63 C 913.524 1721.23 959.819 1721.93 979.705 1723.32 C 980.837 1735.41 981.733 1744.96 978.949 1756.79 C 1005.95 1733.46 1023.8 1721.4 1060.78 1718.41 z"/>
<path transform="translate(0,0)" fill="rgb(25,43,90)" d="M 1793.88 1718.55 C 1809.48 1717.93 1825.1 1718.32 1840.64 1719.73 C 1856.26 1721.18 1906.67 1729.69 1918.57 1741.73 C 1920.28 1743.47 1919.54 1749.47 1918.68 1751.85 C 1911.51 1771.54 1901.84 1786.83 1896.37 1807.51 C 1860.4 1792.91 1801.34 1774.02 1764.35 1799.41 C 1754.76 1807.38 1753.73 1823.11 1764.98 1829.88 C 1778.15 1837.8 1795.27 1840.69 1810.28 1843.06 C 1868.22 1852.2 1937.81 1863.8 1933.08 1938.92 C 1931.44 1965.01 1924.14 1983.53 1904.05 2001.1 C 1871.75 2029.37 1824.21 2036.24 1782.75 2034.03 C 1760.53 2032.86 1678.11 2018.56 1668.02 1998.84 C 1667.49 1991.71 1687.94 1950.21 1692.09 1937.73 L 1692.67 1935.97 C 1700.38 1938.82 1709.55 1943.96 1717.7 1947.14 C 1742.9 1957.15 1770.7 1964.89 1797.89 1964.07 C 1814.77 1963.81 1850.11 1960.94 1848.88 1937.22 C 1848.61 1923.08 1828.29 1917.72 1817.15 1915.1 C 1778.54 1906.02 1727.13 1905.58 1696.05 1878.64 C 1661.21 1848.43 1663.95 1788.41 1694.91 1756.36 C 1721.4 1728.93 1756.63 1719.69 1793.88 1718.55 z"/>
<path transform="translate(0,0)" fill="rgb(25,43,90)" d="M 1292.14 1648.82 C 1318.63 1650.2 1352.97 1649.08 1380.41 1649.23 C 1382.2 1671.81 1381.91 1701.4 1382.28 1724.36 C 1404.54 1723.51 1432.95 1723.61 1455.28 1724.38 C 1455.64 1734.74 1458.2 1787.96 1452.95 1792.8 C 1443.24 1794.4 1393.97 1792.99 1382.16 1791.77 C 1381.78 1819.69 1381.7 1847.62 1381.92 1875.54 C 1381.95 1890.84 1380.57 1910.68 1382.55 1925.52 C 1388.54 1970.44 1423.96 1963.31 1452.56 1950.82 C 1457.67 1966.27 1462.11 1983.4 1468.06 1998.37 C 1469.14 2000.94 1472.77 2009.4 1472.78 2011.75 C 1472.86 2022.36 1452.29 2026.13 1444.25 2028.36 C 1405.54 2039 1351.3 2034.89 1321.15 2005.89 C 1286.61 1972.67 1291.6 1921.75 1291.64 1878.18 C 1291.74 1849.72 1291.62 1821.26 1291.3 1792.81 C 1276.26 1793.64 1260.95 1792.72 1245.94 1791.82 C 1244.41 1774.4 1244.97 1741.94 1245.9 1724.28 C 1260.68 1723.75 1276.35 1724 1291.21 1724.01 C 1291.48 1699.89 1290.17 1672.5 1292.14 1648.82 z"/>
<path transform="translate(0,0)" fill="rgb(25,43,90)" d="M 1527.61 1723.5 L 1532.49 1723.35 C 1543.27 1723.07 1606.66 1721.01 1611.45 1725.54 C 1614.26 1738.31 1612.94 2023.4 1611.34 2027.66 L 1607.75 2028.57 C 1579.65 2028.1 1551.07 2028.26 1522.93 2028.17 C 1522.68 1992.96 1520.22 1730.55 1523.37 1725.22 C 1524.1 1724 1526.32 1723.86 1527.61 1723.5 z"/>
<path transform="translate(0,0)" fill="rgb(25,43,90)" d="M 1568.11 1573.4 C 1638.08 1574.12 1650.95 1676.51 1568.62 1682.86 C 1554.56 1682.48 1540.4 1679.18 1529.18 1670.29 C 1518.32 1661.85 1511.44 1649.29 1510.17 1635.58 C 1507.85 1612.11 1519.7 1588.96 1541.49 1579.2 C 1550.73 1575.06 1558.13 1574.28 1568.11 1573.4 z"/>
<path transform="translate(0,0)" fill="rgb(45,207,216)" fill-opacity="0.988235" d="M 1422.67 9.98582 C 1437.07 6.8781 1464.82 8.27591 1479.87 9.50485 C 1473.79 13.6707 1429.03 13.637 1422.67 9.98582 z"/>
</svg>