<svg xmlns="http://www.w3.org/2000/svg" width="1248" height="948" viewBox="0 0 1248 948">
  <!-- Background -->
  <rect width="1248" height="948" fill="#F2F6FB"/>
  
  <defs>
  <symbol id="icon-pipeline" viewBox="0 0 24 24" fill="none" stroke="#1A3A5C" stroke-width="2" stroke-linecap="round" stroke-linejoin="round">
<rect width="8" height="8" x="3" y="3" rx="2" />
  <path d="M7 11v4a2 2 0 0 0 2 2h4" />
  <rect width="8" height="8" x="13" y="13" rx="2" />

  </symbol>  <symbol id="icon-signal" viewBox="0 0 24 24" fill="none" stroke="#1A3A5C" stroke-width="2" stroke-linecap="round" stroke-linejoin="round">
<path d="M2 20h.01" />
  <path d="M7 20v-4" />
  <path d="M12 20v-8" />
  <path d="M17 20V8" />
  <path d="M22 4v16" />

  </symbol>  <symbol id="icon-meeting" viewBox="0 0 24 24" fill="none" stroke="#1A3A5C" stroke-width="2" stroke-linecap="round" stroke-linejoin="round">
<path d="M18 21a8 8 0 0 0-16 0" />
  <circle cx="10" cy="8" r="5" />
  <path d="M22 20c0-3.37-2-6.5-4-8a5 5 0 0 0-.45-8.3" />

  </symbol>  <symbol id="icon-contact" viewBox="0 0 24 24" fill="none" stroke="#1A3A5C" stroke-width="2" stroke-linecap="round" stroke-linejoin="round">
<path d="M16 2v2" />
  <path d="M17.915 22a6 6 0 0 0-12 0" />
  <path d="M8 2v2" />
  <circle cx="12" cy="12" r="4" />
  <rect x="3" y="4" width="18" height="18" rx="2" />

  </symbol>  <symbol id="icon-research" viewBox="0 0 24 24" fill="none" stroke="#1A3A5C" stroke-width="2" stroke-linecap="round" stroke-linejoin="round">
<path d="m8 11 2 2 4-4" />
  <circle cx="11" cy="11" r="8" />
  <path d="m21 21-4.3-4.3" />

  </symbol>  <symbol id="icon-campaign" viewBox="0 0 24 24" fill="none" stroke="#1A3A5C" stroke-width="2" stroke-linecap="round" stroke-linejoin="round">
<path d="M11 6a13 13 0 0 0 8.4-2.8A1 1 0 0 1 21 4v12a1 1 0 0 1-1.6.8A13 13 0 0 0 11 14H5a2 2 0 0 1-2-2V8a2 2 0 0 1 2-2z" />
  <path d="M6 14a12 12 0 0 0 2.4 7.2 2 2 0 0 0 3.2-2.4A8 8 0 0 1 10 14" />
  <path d="M8 6v8" />

  </symbol>  <symbol id="icon-report" viewBox="0 0 24 24" fill="none" stroke="#1A3A5C" stroke-width="2" stroke-linecap="round" stroke-linejoin="round">
<path d="M6 22a2 2 0 0 1-2-2V4a2 2 0 0 1 2-2h8a2.4 2.4 0 0 1 1.704.706l3.588 3.588A2.4 2.4 0 0 1 20 8v12a2 2 0 0 1-2 2z" />
  <path d="M14 2v5a1 1 0 0 0 1 1h5" />
  <path d="M10 9H8" />
  <path d="M16 13H8" />
  <path d="M16 17H8" />

  </symbol>  <symbol id="icon-dashboard" viewBox="0 0 24 24" fill="none" stroke="#1A3A5C" stroke-width="2" stroke-linecap="round" stroke-linejoin="round">
<rect width="7" height="9" x="3" y="3" rx="1" />
  <rect width="7" height="5" x="14" y="3" rx="1" />
  <rect width="7" height="9" x="14" y="12" rx="1" />
  <rect width="7" height="5" x="3" y="16" rx="1" />

  </symbol>  <symbol id="icon-message" viewBox="0 0 24 24" fill="none" stroke="#1A3A5C" stroke-width="2" stroke-linecap="round" stroke-linejoin="round">
<path d="M22 17a2 2 0 0 1-2 2H6.828a2 2 0 0 0-1.414.586l-2.202 2.202A.71.71 0 0 1 2 21.286V5a2 2 0 0 1 2-2h16a2 2 0 0 1 2 2z" />

  </symbol>  <symbol id="icon-call" viewBox="0 0 24 24" fill="none" stroke="#1A3A5C" stroke-width="2" stroke-linecap="round" stroke-linejoin="round">
<path d="M13.832 16.568a1 1 0 0 0 1.213-.303l.355-.465A2 2 0 0 1 17 15h3a2 2 0 0 1 2 2v3a2 2 0 0 1-2 2A18 18 0 0 1 2 4a2 2 0 0 1 2-2h3a2 2 0 0 1 2 2v3a2 2 0 0 1-.8 1.6l-.468.351a1 1 0 0 0-.292 1.233 14 14 0 0 0 6.392 6.384" />

  </symbol>  <symbol id="icon-email" viewBox="0 0 24 24" fill="none" stroke="#1A3A5C" stroke-width="2" stroke-linecap="round" stroke-linejoin="round">
<path d="m22 7-8.991 5.727a2 2 0 0 1-2.009 0L2 7" />
  <rect x="2" y="4" width="20" height="16" rx="2" />

  </symbol>  <symbol id="icon-calendar" viewBox="0 0 24 24" fill="none" stroke="#1A3A5C" stroke-width="2" stroke-linecap="round" stroke-linejoin="round">
<path d="M8 2v4" />
  <path d="M16 2v4" />
  <rect width="18" height="18" x="3" y="4" rx="2" />
  <path d="M3 10h18" />
  <path d="M8 14h.01" />
  <path d="M12 14h.01" />
  <path d="M16 14h.01" />
  <path d="M8 18h.01" />
  <path d="M12 18h.01" />
  <path d="M16 18h.01" />

  </symbol>  <symbol id="icon-search" viewBox="0 0 24 24" fill="none" stroke="#1A3A5C" stroke-width="2" stroke-linecap="round" stroke-linejoin="round">
<path d="m21 21-4.34-4.34" />
  <circle cx="11" cy="11" r="8" />

  </symbol>  <symbol id="icon-filter" viewBox="0 0 24 24" fill="none" stroke="#1A3A5C" stroke-width="2" stroke-linecap="round" stroke-linejoin="round">
<path d="M10 20a1 1 0 0 0 .553.895l2 1A1 1 0 0 0 14 21v-7a2 2 0 0 1 .517-1.341L21.74 4.67A1 1 0 0 0 21 3H3a1 1 0 0 0-.742 1.67l7.225 7.989A2 2 0 0 1 10 14z" />

  </symbol>  <symbol id="icon-chart-up" viewBox="0 0 24 24" fill="none" stroke="#1A3A5C" stroke-width="2" stroke-linecap="round" stroke-linejoin="round">
<path d="M16 7h6v6" />
  <path d="m22 7-8.5 8.5-5-5L2 17" />

  </symbol>  <symbol id="icon-chart-down" viewBox="0 0 24 24" fill="none" stroke="#1A3A5C" stroke-width="2" stroke-linecap="round" stroke-linejoin="round">
<path d="M16 17h6v-6" />
  <path d="m22 17-8.5-8.5-5 5L2 7" />

  </symbol>  <symbol id="icon-target" viewBox="0 0 24 24" fill="none" stroke="#1A3A5C" stroke-width="2" stroke-linecap="round" stroke-linejoin="round">
<circle cx="12" cy="12" r="10" />
  <circle cx="12" cy="12" r="6" />
  <circle cx="12" cy="12" r="2" />

  </symbol>  <symbol id="icon-handshake" viewBox="0 0 24 24" fill="none" stroke="#1A3A5C" stroke-width="2" stroke-linecap="round" stroke-linejoin="round">
<path d="m11 17 2 2a1 1 0 1 0 3-3" />
  <path d="m14 14 2.5 2.5a1 1 0 1 0 3-3l-3.88-3.88a3 3 0 0 0-4.24 0l-.88.88a1 1 0 1 1-3-3l2.81-2.81a5.79 5.79 0 0 1 7.06-.87l.47.28a2 2 0 0 0 1.42.25L21 4" />
  <path d="m21 3 1 11h-2" />
  <path d="M3 3 2 14l6.5 6.5a1 1 0 1 0 3-3" />
  <path d="M3 4h8" />

  </symbol>  <symbol id="icon-briefcase" viewBox="0 0 24 24" fill="none" stroke="#1A3A5C" stroke-width="2" stroke-linecap="round" stroke-linejoin="round">
<path d="M12 12h.01" />
  <path d="M16 6V4a2 2 0 0 0-2-2h-4a2 2 0 0 0-2 2v2" />
  <path d="M22 13a18.15 18.15 0 0 1-20 0" />
  <rect width="20" height="14" x="2" y="6" rx="2" />

  </symbol>  <symbol id="icon-document" viewBox="0 0 24 24" fill="none" stroke="#1A3A5C" stroke-width="2" stroke-linecap="round" stroke-linejoin="round">
<path d="M6 22a2 2 0 0 1-2-2V4a2 2 0 0 1 2-2h8a2.4 2.4 0 0 1 1.704.706l3.588 3.588A2.4 2.4 0 0 1 20 8v12a2 2 0 0 1-2 2z" />
  <path d="M14 2v5a1 1 0 0 0 1 1h5" />
  <path d="M10 9H8" />
  <path d="M16 13H8" />
  <path d="M16 17H8" />

  </symbol>  <symbol id="icon-checkmark" viewBox="0 0 24 24" fill="none" stroke="#1A3A5C" stroke-width="2" stroke-linecap="round" stroke-linejoin="round">
<circle cx="12" cy="12" r="10" />
  <path d="m9 12 2 2 4-4" />

  </symbol>  <symbol id="icon-warning" viewBox="0 0 24 24" fill="none" stroke="#1A3A5C" stroke-width="2" stroke-linecap="round" stroke-linejoin="round">
<path d="m21.73 18-8-14a2 2 0 0 0-3.48 0l-8 14A2 2 0 0 0 4 21h16a2 2 0 0 0 1.73-3" />
  <path d="M12 9v4" />
  <path d="M12 17h.01" />

  </symbol>  <symbol id="icon-insight" viewBox="0 0 24 24" fill="none" stroke="#1A3A5C" stroke-width="2" stroke-linecap="round" stroke-linejoin="round">
<path d="M15 14c.2-1 .7-1.7 1.5-2.5 1-.9 1.5-2.2 1.5-3.5A6 6 0 0 0 6 8c0 1 .2 2.2 1.5 3.5.7.7 1.3 1.5 1.5 2.5" />
  <path d="M9 18h6" />
  <path d="M10 22h4" />

  </symbol>  <symbol id="icon-team" viewBox="0 0 24 24" fill="none" stroke="#1A3A5C" stroke-width="2" stroke-linecap="round" stroke-linejoin="round">
<path d="M16 21v-2a4 4 0 0 0-4-4H6a4 4 0 0 0-4 4v2" />
  <path d="M16 3.128a4 4 0 0 1 0 7.744" />
  <path d="M22 21v-2a4 4 0 0 0-3-3.87" />
  <circle cx="9" cy="7" r="4" />

  </symbol>
  </defs>
  
  <!-- Grid cells background -->
  <rect x="32" y="32" width="184" height="209" rx="8" fill="rgba(255,255,255,0.5)" fill-opacity="0.5"/>
  <rect x="232" y="32" width="184" height="209" rx="8" fill="rgba(255,255,255,0.5)" fill-opacity="0.5"/>
  <rect x="432" y="32" width="184" height="209" rx="8" fill="rgba(255,255,255,0.5)" fill-opacity="0.5"/>
  <rect x="632" y="32" width="184" height="209" rx="8" fill="rgba(255,255,255,0.5)" fill-opacity="0.5"/>
  <rect x="832" y="32" width="184" height="209" rx="8" fill="rgba(255,255,255,0.5)" fill-opacity="0.5"/>
  <rect x="1032" y="32" width="184" height="209" rx="8" fill="rgba(255,255,255,0.5)" fill-opacity="0.5"/>
  <rect x="32" y="257" width="184" height="209" rx="8" fill="rgba(255,255,255,0.5)" fill-opacity="0.5"/>
  <rect x="232" y="257" width="184" height="209" rx="8" fill="rgba(255,255,255,0.5)" fill-opacity="0.5"/>
  <rect x="432" y="257" width="184" height="209" rx="8" fill="rgba(255,255,255,0.5)" fill-opacity="0.5"/>
  <rect x="632" y="257" width="184" height="209" rx="8" fill="rgba(255,255,255,0.5)" fill-opacity="0.5"/>
  <rect x="832" y="257" width="184" height="209" rx="8" fill="rgba(255,255,255,0.5)" fill-opacity="0.5"/>
  <rect x="1032" y="257" width="184" height="209" rx="8" fill="rgba(255,255,255,0.5)" fill-opacity="0.5"/>
  <rect x="32" y="482" width="184" height="209" rx="8" fill="rgba(255,255,255,0.5)" fill-opacity="0.5"/>
  <rect x="232" y="482" width="184" height="209" rx="8" fill="rgba(255,255,255,0.5)" fill-opacity="0.5"/>
  <rect x="432" y="482" width="184" height="209" rx="8" fill="rgba(255,255,255,0.5)" fill-opacity="0.5"/>
  <rect x="632" y="482" width="184" height="209" rx="8" fill="rgba(255,255,255,0.5)" fill-opacity="0.5"/>
  <rect x="832" y="482" width="184" height="209" rx="8" fill="rgba(255,255,255,0.5)" fill-opacity="0.5"/>
  <rect x="1032" y="482" width="184" height="209" rx="8" fill="rgba(255,255,255,0.5)" fill-opacity="0.5"/>
  <rect x="32" y="707" width="184" height="209" rx="8" fill="rgba(255,255,255,0.5)" fill-opacity="0.5"/>
  <rect x="232" y="707" width="184" height="209" rx="8" fill="rgba(255,255,255,0.5)" fill-opacity="0.5"/>
  <rect x="432" y="707" width="184" height="209" rx="8" fill="rgba(255,255,255,0.5)" fill-opacity="0.5"/>
  <rect x="632" y="707" width="184" height="209" rx="8" fill="rgba(255,255,255,0.5)" fill-opacity="0.5"/>
  <rect x="832" y="707" width="184" height="209" rx="8" fill="rgba(255,255,255,0.5)" fill-opacity="0.5"/>
  <rect x="1032" y="707" width="184" height="209" rx="8" fill="rgba(255,255,255,0.5)" fill-opacity="0.5"/>

  <!-- Icons + Labels -->
  <use href="#icon-pipeline" x="88" y="40" width="72" height="72"/>
  <text x="124" y="130" text-anchor="middle" font-family="Inter, system-ui, sans-serif" font-size="11" fill="#0F2237" opacity="0.85">pipeline</text>
  <use href="#icon-signal" x="288" y="40" width="72" height="72"/>
  <text x="324" y="130" text-anchor="middle" font-family="Inter, system-ui, sans-serif" font-size="11" fill="#0F2237" opacity="0.85">signal</text>
  <use href="#icon-meeting" x="488" y="40" width="72" height="72"/>
  <text x="524" y="130" text-anchor="middle" font-family="Inter, system-ui, sans-serif" font-size="11" fill="#0F2237" opacity="0.85">meeting</text>
  <use href="#icon-contact" x="688" y="40" width="72" height="72"/>
  <text x="724" y="130" text-anchor="middle" font-family="Inter, system-ui, sans-serif" font-size="11" fill="#0F2237" opacity="0.85">contact</text>
  <use href="#icon-research" x="888" y="40" width="72" height="72"/>
  <text x="924" y="130" text-anchor="middle" font-family="Inter, system-ui, sans-serif" font-size="11" fill="#0F2237" opacity="0.85">research</text>
  <use href="#icon-campaign" x="1088" y="40" width="72" height="72"/>
  <text x="1124" y="130" text-anchor="middle" font-family="Inter, system-ui, sans-serif" font-size="11" fill="#0F2237" opacity="0.85">campaign</text>
  <use href="#icon-report" x="88" y="265" width="72" height="72"/>
  <text x="124" y="355" text-anchor="middle" font-family="Inter, system-ui, sans-serif" font-size="11" fill="#0F2237" opacity="0.85">report</text>
  <use href="#icon-dashboard" x="288" y="265" width="72" height="72"/>
  <text x="324" y="355" text-anchor="middle" font-family="Inter, system-ui, sans-serif" font-size="11" fill="#0F2237" opacity="0.85">dashboard</text>
  <use href="#icon-message" x="488" y="265" width="72" height="72"/>
  <text x="524" y="355" text-anchor="middle" font-family="Inter, system-ui, sans-serif" font-size="11" fill="#0F2237" opacity="0.85">message</text>
  <use href="#icon-call" x="688" y="265" width="72" height="72"/>
  <text x="724" y="355" text-anchor="middle" font-family="Inter, system-ui, sans-serif" font-size="11" fill="#0F2237" opacity="0.85">call</text>
  <use href="#icon-email" x="888" y="265" width="72" height="72"/>
  <text x="924" y="355" text-anchor="middle" font-family="Inter, system-ui, sans-serif" font-size="11" fill="#0F2237" opacity="0.85">email</text>
  <use href="#icon-calendar" x="1088" y="265" width="72" height="72"/>
  <text x="1124" y="355" text-anchor="middle" font-family="Inter, system-ui, sans-serif" font-size="11" fill="#0F2237" opacity="0.85">calendar</text>
  <use href="#icon-search" x="88" y="490" width="72" height="72"/>
  <text x="124" y="580" text-anchor="middle" font-family="Inter, system-ui, sans-serif" font-size="11" fill="#0F2237" opacity="0.85">search</text>
  <use href="#icon-filter" x="288" y="490" width="72" height="72"/>
  <text x="324" y="580" text-anchor="middle" font-family="Inter, system-ui, sans-serif" font-size="11" fill="#0F2237" opacity="0.85">filter</text>
  <use href="#icon-chart-up" x="488" y="490" width="72" height="72"/>
  <text x="524" y="580" text-anchor="middle" font-family="Inter, system-ui, sans-serif" font-size="11" fill="#0F2237" opacity="0.85">chart-up</text>
  <use href="#icon-chart-down" x="688" y="490" width="72" height="72"/>
  <text x="724" y="580" text-anchor="middle" font-family="Inter, system-ui, sans-serif" font-size="11" fill="#0F2237" opacity="0.85">chart-down</text>
  <use href="#icon-target" x="888" y="490" width="72" height="72"/>
  <text x="924" y="580" text-anchor="middle" font-family="Inter, system-ui, sans-serif" font-size="11" fill="#0F2237" opacity="0.85">target</text>
  <use href="#icon-handshake" x="1088" y="490" width="72" height="72"/>
  <text x="1124" y="580" text-anchor="middle" font-family="Inter, system-ui, sans-serif" font-size="11" fill="#0F2237" opacity="0.85">handshake</text>
  <use href="#icon-briefcase" x="88" y="715" width="72" height="72"/>
  <text x="124" y="805" text-anchor="middle" font-family="Inter, system-ui, sans-serif" font-size="11" fill="#0F2237" opacity="0.85">briefcase</text>
  <use href="#icon-document" x="288" y="715" width="72" height="72"/>
  <text x="324" y="805" text-anchor="middle" font-family="Inter, system-ui, sans-serif" font-size="11" fill="#0F2237" opacity="0.85">document</text>
  <use href="#icon-checkmark" x="488" y="715" width="72" height="72"/>
  <text x="524" y="805" text-anchor="middle" font-family="Inter, system-ui, sans-serif" font-size="11" fill="#0F2237" opacity="0.85">checkmark</text>
  <use href="#icon-warning" x="688" y="715" width="72" height="72"/>
  <text x="724" y="805" text-anchor="middle" font-family="Inter, system-ui, sans-serif" font-size="11" fill="#0F2237" opacity="0.85">warning</text>
  <use href="#icon-insight" x="888" y="715" width="72" height="72"/>
  <text x="924" y="805" text-anchor="middle" font-family="Inter, system-ui, sans-serif" font-size="11" fill="#0F2237" opacity="0.85">insight</text>
  <use href="#icon-team" x="1088" y="715" width="72" height="72"/>
  <text x="1124" y="805" text-anchor="middle" font-family="Inter, system-ui, sans-serif" font-size="11" fill="#0F2237" opacity="0.85">team</text>
</svg>
