<?xml version="1.0" encoding="UTF-8"?>
<svg xmlns="http://www.w3.org/2000/svg" version="1.1" viewBox="0 0 236 126.7">
  <!-- Generator: Adobe Illustrator 29.5.1, SVG Export Plug-In . SVG Version: 2.1.0 Build 141)  -->
  <defs>
    <style>
      .st0 {
        fill: #b43736;
      }

      .st1 {
        fill: #b53632;
      }
    </style>
  </defs>
  <g id="logo">
    <path d="M59.7,64.5c-.2.2-.4.4-.6.6-.3.3-.7.7-1.1,1.1.7.3,1.3.6,1.9.7.8.2,1.4.8,1.8,1.5.4.7.7,1.4,1,2.1.1.3.1.6,0,1-.3,1.1-.4,2.3-1.7,2.8-.4.2-.6.6-.8,1-.1.5-.6.9-1.1.9-.3,0-.5.2-.7.4-.1.1-.2.2-.3.4-.9,1-1.5,1-2.4,0-1.1-1.3-1.5-1.3-2.6,0-.3.4-.5.9-.7,1.4,0,.4-.2.8-.2,1.2-.4,2.2-1.8,4.1-3.7,5.3-.3.2-.5.5-.7.8-.4.6-.7,1.3-1,1.9-.1.3-.3.5-.5.7-1.2,1.1-1.9,2.6-2.2,4.2,0,.4-.2.7-.3,1.1-.2.7,0,1.5.6,1.9.8.6,1.6,1.1,2.3,1.6,1.7,1.2,3.5,2.3,5.2,3.5.4.2.8.5,1.2.7.8.6,1.5,1.3,2.2,2,1,1,1,2.6,0,3.6,0,0-.1.1-.2.2-.5.5-.8,1-1.2,1.6-.5.8-1,1.5-1.6,2.1-2.4,2.7-4.5,5.6-6.2,8.8-.3.4-.3.9,0,1.3.9,1.5,2.3,2.6,3.9,3.2.4.2.9.3,1.3.6.5.3.7.9.4,1.4-.2.3-.5.5-.9.5-1.6,0-3.2-.2-4.8-.3,0,0-.1,0-.2,0-1.1-.7-2.4-.8-3.6-.4-.2,0-.5,0-.7,0-.8,0-1.7,0-2.1-.9-.5-.9-.3-2.1.4-2.9,2.1-2.5,3.6-5.3,4.3-8.5.1-.4.2-.9.2-1.4,0-2,.8-3.9,2.4-5.2.3-.2.5-.5.9-1-.4-.2-.7-.3-1.1-.5-2.3-.5-4.5-1-6.8-1.5-1.4-.3-2.7-.8-3.8-1.6-.7-.5-.8-.4-1.3.3-1.9,2.4-3.8,4.8-6.5,6.4-1,.8-2.2,1.3-3.5,1.5-.4,0-.7.3-.9.6-.5.6-1.1,1-1.9,1.2-.7.2-1.4.6-1.9,1.2-.8,1-2.1,1.3-3.2,1.9-2.1,1.1-4,2.5-5.8,4-.4.4-.8.8-1.1,1.3-.5.5-.6,1.4-.2,2,.2.5.4,1,.6,1.5.2.8,0,1-.8,1.2-1.8.5-3.7.2-5.5,0-.7,0-.9-.4-.7-1,0-.3.2-.6.3-.8.3-.5.5-1.1.5-1.7,0-.3.2-.6.4-.9.2-.3.5-.5.8-.7,1.6-1.1,3-2.6,3.9-4.3.7-1.2,1.4-2.3,2-3.5,1-1.9,2.9-3.1,5-3.2.3,0,.6,0,.9,0,1,0,1.9-.6,2.2-1.5.9-3.5,3.2-6,6-8.1.7-.5,1.3-1.3,1.5-2.1.4-1.5,1.3-2.8,2.6-3.7.5-.4,1-.8,1.5-1.1,1-.6,1.7-1.5,2.1-2.6,1.1-2.5,1.7-5.1,2-7.7.1-1.9,0-3.9,0-5.8,0-.4-.3-.7-.6-.8-.1,0-.3,0-.4,0-1.1,0-2.1-.4-2.9-1-.3-.2-.7-.2-1-.2-2,0-4-.6-5.8-1.6-.4-.2-.8-.5-1.1-.8-1.3-1.1-2.5-2.2-3.8-3.2-.7-.5-1.4-.8-2.2-1.1-1-.4-2.1-.8-2.5-1.9,0,0,0-.2-.2-.2l4.9-.2s3.7,6,18.6,5.2c14.6-.8,17.5-6.5,17.5-6.5h4.6ZM54,69.4c-1,.4-1.9.7-2.9,1.1,0,0-.1.2-.2.3,1.4.6,2.8,0,3.1-1.4Z"/>
    <path class="st0" d="M27.2,2.1c-.4,0-.8,0-.8-.3,0-.3.2-.6.4-.6,0,0,.2,0,.2,0C30,.4,32.9,0,35.9,0,55.8,0,71.9,16.5,71.9,36.9s-16.1,36.9-35.9,36.9S0,57.3,0,36.9c0-3.7.5-7.3,1.6-10.8,0-.2.1-.4.2-.6.1-.2.3-.3.6-.2.2,0,.2.2.2.4,0,.2,0,.3,0,.5,0,.1,0,.3-.1.4-.7,2.7-1,5.5-1,8.3,0,18.5,14.8,33.5,33,33.5s33-15,33-33.5S52.6,1.3,34.4,1.3c-2.2,0-4.3.2-6.4.6l-.7.2Z"/>
  </g>
  <g id="Layer_1">
    <g>
      <path d="M111.6,22h-.4c-.2-2.6-1-4.3-2.3-5.1-1.5-.8-3.2-1.2-4.9-1.2h-8v33.8c0,2.9,1.5,4.3,4.4,4.4v.4h-12.8v-.4c1.1,0,2.2-.4,3-1,.8-.7,1.3-1.8,1.3-3.4V15.7h-8c-1.7,0-3.4.3-4.9,1.2-1.3.8-2.1,2.5-2.3,5.1h-.4v-9.8h.4c.2.4.5.7.8,1,.2.2.5.4.8.6.4.2.8.3,1.2.3.5,0,1.1.1,1.7.1h26.1c1.6,0,3.1-.7,4.1-2h.4v9.8h0Z"/>
      <g>
        <path d="M127.2,18.1v.4c-1,0-2,.3-2.8.9-.8.8-1.3,1.9-1.1,3v27.5c-.1,1.1.3,2.3,1.2,3,.8.6,1.7.9,2.7.9v.4h-11.5v-.4c1,0,2-.3,2.7-.9.8-.8,1.3-1.9,1.1-3.1v-27.5c0-1.5-.4-2.5-1.1-3.1-.8-.6-1.8-.9-2.7-.8v-.4h11.5Z"/>
        <path d="M161.5,25.2h-.4c-.2-2.4-.9-3.9-2.1-4.6-1.4-.7-2.9-1.1-4.4-1h-7.2v30.4c0,2.6,1.3,3.9,3.9,4v.4h-11.5v-.4c1,0,2-.3,2.7-.9.7-.6,1.1-1.6,1.1-3v-30.4h-7.2c-1.5,0-3.1.3-4.4,1-1.2.7-1.9,2.2-2.1,4.6h-.4v-8.9h.4c.2.3.4.6.7.9.2.2.5.4.8.5.3.1.7.2,1.1.3.5,0,1,.1,1.5,0h23.5c1.4,0,2.8-.6,3.6-1.8h.4v8.9h0Z"/>
        <path d="M180.5,17.7l10.8,31.1c.4,1.2.9,2.4,1.6,3.5.3.6.9,1,1.5,1.4.6.2,1.2.3,1.8.4v.4h-11.8v-.4c.9,0,1.9,0,2.8-.3.7-.2,1-.8,1-1.9,0-.8-.2-1.5-.5-2.2,0,0,0-.2-.1-.3l-3.2-9.6h-12.6l-2.9,8.9c-.3.9-.5,1.9-.6,2.9-.1.8.2,1.5.8,2,.7.4,1.4.5,2.2.5v.4h-8.5v-.4c1.1,0,2.2-.6,2.9-1.4.9-1.1,1.5-2.4,1.9-3.7l10.2-31.2h2.7,0ZM172.3,38.3h11.5l-5.9-17.2h-.1l-5.5,17.2h0Z"/>
        <path d="M236,18.1v.4c-.7,0-1.5.2-2.2.5-.6.3-1,.8-1.3,1.4-.3,1-.5,2-.4,3v31.8h-.2l-27.8-31.1v22.3c0,1.4,0,2.8.2,4.1,0,.7.3,1.4.6,1.9.6.8,1.7,1.3,3.2,1.4v.4h-9.1v-.4c.8,0,1.7-.2,2.4-.6.6-.5,1.1-1.3,1.2-2.1.3-1.5.4-3.1.4-4.6v-23.7l-1.2-1.4c-.7-.9-1.6-1.7-2.6-2.3-.8-.4-1.6-.6-2.4-.7v-.4h6.8l27.4,30.7v-23.4c0-1.3,0-2.6-.2-3.9-.1-.8-.5-1.6-1.1-2.1-.8-.6-1.8-.9-2.8-.9v-.4h9.1,0Z"/>
      </g>
      <g>
        <path class="st1" d="M102.1,67.4h-.3v3.5c0,.3,0,.6.2.9.1.2.3.3.5.4.2,0,.5.1.7.1v.2h-5.2v-.2c.6,0,.9-.1,1.1-.4.2-.3.3-.7.2-1v-7.8c0-.4,0-.8-.3-1.1-.3-.2-.7-.4-1-.3v-.2h5.7c.7,0,1.4.1,2,.3.5.2,1,.5,1.3,1,.3.4.5.9.4,1.5,0,.8-.4,1.6-1,2.1-.3.2-.7.4-1.1.5.6.4,1.1,1,1.5,1.7l1.3,2.2c.2.3.4.6.6.9.1.2.3.3.5.4.1,0,.3.1.5.1v.2h-3.6c-.3-.6-.6-1.1-.8-1.5-.6-1.1-1-2-1.3-2.4-.2-.4-.5-.7-.8-1-.3-.2-.7-.3-1.1-.3h0ZM102.4,62.2h-.6v4.7h.5c.7,0,1.4-.2,2-.6.5-.5.7-1.1.6-1.8,0-.4,0-.8-.3-1.2-.2-.3-.5-.6-.8-.8-.4-.2-.9-.3-1.4-.3h0Z"/>
        <path class="st1" d="M118.1,61.5v2.5c0,0-.1,0-.1,0,0-.4-.2-.7-.3-1-.1-.3-.3-.5-.5-.6-.3-.2-.6-.2-.9-.2h-2.2v4.7h1.8c.4,0,.8,0,1.2-.3.3-.3.4-.7.4-1h.2v3.2h-.2c0-.4-.2-.8-.5-1-.3-.2-.7-.3-1-.2h-1.8v3.2c0,.7.4,1.3,1.1,1.4h1c.4,0,.8,0,1.1-.2.3-.1.5-.3.7-.6.2-.4.4-.8.5-1.3h.2l-.2,2.7h-8.3v-.2c.6,0,.9-.1,1.1-.4.2-.3.3-.7.3-1v-7.8c0-.4,0-.7-.2-1-.2-.3-.5-.4-1.1-.4h0v-.2h8Z"/>
        <path class="st1" d="M129.3,65.4h-.3c0-.5-.2-1-.5-1.4-.2-.4-.5-.7-.8-1-.3-.3-.7-.5-1.1-.6s-.8-.2-1.3-.2c-.5,0-1.1.1-1.6.4-.4.2-.8.5-1,.9-.3.5-.5,1-.6,1.6-.1.6-.2,1.3-.2,1.9,0,1,.2,2,.6,2.9.3.6.9,1.2,1.5,1.5.5.3,1.1.4,1.8.4,1.5,0,2.8-.8,3.6-2v1c-.3.4-.7.7-1.1,1-.4.3-.9.6-1.5.7-1.5.4-3,.4-4.5-.2-.7-.3-1.3-.7-1.8-1.3-.5-.5-.8-1.1-1.1-1.8s-.4-1.4-.4-2.1,0-1.1.2-1.7c.1-.5.4-1,.6-1.4s.6-.8.9-1.1c.6-.5,1.2-.9,2-1.2.7-.2,1.5-.3,2.2-.3.8,0,1.7.1,2.5.4.2,0,.5.1.7.1.3,0,.5-.2.6-.5h.2v4h0Z"/>
        <path class="st1" d="M134.2,67.4h-.3v3.5c0,.3,0,.6.2.9.1.2.3.3.5.4.2,0,.5.1.7.1v.2h-5.2v-.2c.6,0,.9-.1,1.1-.4.2-.3.3-.7.2-1v-7.8c0-.4,0-.8-.3-1.1-.3-.2-.7-.4-1-.3v-.2h5.7c.7,0,1.4.1,2,.3.5.2,1,.5,1.3,1,.3.4.5.9.4,1.5,0,.8-.4,1.6-1,2.1-.3.2-.7.4-1.1.5.6.4,1.1,1,1.5,1.7l1.3,2.2c.2.3.4.6.6.9.1.2.3.3.5.4.1,0,.3.1.5.1v.2h-3.6c-.3-.6-.6-1.1-.8-1.5-.6-1.1-1-2-1.3-2.4-.2-.4-.5-.7-.8-1-.3-.2-.7-.3-1.1-.3h0ZM134.5,62.2h-.6v4.7h.5c.7,0,1.4-.2,2-.6.5-.5.7-1.1.6-1.8,0-.4,0-.8-.3-1.2-.2-.3-.5-.6-.8-.8-.4-.2-.9-.3-1.4-.3h0Z"/>
        <path class="st1" d="M151,72.6v-2.1h0c-.7,1.4-2.1,2.3-3.6,2.2-.8,0-1.5-.2-2.2-.6-.6-.3-1.1-.8-1.4-1.4-.4-.9-.5-1.9-.5-2.9v-4.7c0-.4,0-.7-.3-1.1-.3-.3-.7-.4-1.1-.4v-.2h5.2v.2c-.6,0-.9.1-1.1.4-.2.3-.3.7-.3,1v4.9c0,.6,0,1.2.3,1.7.2.6.7,1.1,1.3,1.3.3.1.6.2.9.2.7,0,1.4-.3,1.8-.7.2-.2.4-.5.6-.8.2-.6.3-1.3.3-2v-4.6c0-.4,0-.8-.3-1.1-.3-.2-.7-.4-1-.3v-.2h5.2v.2c-.6,0-.9.1-1.1.4-.2.3-.3.7-.3,1v7.8c0,.4,0,.8.3,1.1.3.3.7.4,1.1.3v.2h-3.8,0Z"/>
        <path class="st1" d="M155.1,61.8v-.2h5.2v.2c-.6,0-.9.1-1.1.4-.2.3-.3.7-.2,1v7.8c0,.2,0,.4,0,.7,0,.2.2.4.4.5.3.2.6.3.9.2h0v.2h-5.2v-.2c.6,0,.9-.1,1.1-.4.2-.3.3-.7.3-1v-7.8c0-.4,0-.8-.3-1.1-.3-.2-.7-.4-1-.3h0Z"/>
        <path class="st1" d="M162,61.5h7.7c.3,0,.6,0,.9-.1h.2v2.6c0,0-.1,0-.1,0,0-.5-.2-1-.6-1.5-.3-.2-.6-.3-1-.3h-2.1v8.7c0,.2,0,.5.1.7,0,.2.2.4.4.5.3.1.6.2.9.2v.2h-5.2v-.2c.6,0,.9-.1,1.1-.4.2-.3.3-.7.3-1v-8.7h-2.1c-.3,0-.6.1-.8.3-.3.4-.5.9-.6,1.4h-.2v-2.6h.3c.3.1.6.1.9.1h0Z"/>
        <path class="st1" d="M185.3,61.5v.2c-.2,0-.5,0-.7.1-.2,0-.4.2-.5.4-.1.3-.2.5-.1.8l.6,7.4c0,.4.1.8.2,1.1,0,.2.2.4.4.5.2.1.5.2.7.2v.2h-5.1v-.2c.7,0,1.3-.4,1.4-1,0-.2,0-.4,0-.6l-.5-7.1h0l-3.6,8.9h-.3l-3.7-8.6h0l-.5,6.2c0,.5,0,.9.1,1.4,0,.3.3.5.5.6.2.1.5.2.8.2v.2h-3.8v-.2c.4,0,.8-.2,1.1-.6.3-.5.5-1.1.5-1.8l.7-7c-.4-.7-1.1-1.2-1.9-1.3v-.2h4l3.2,7.3,3-7.3h3.6,0Z"/>
        <path class="st1" d="M194.1,61.5v2.5c0,0-.1,0-.1,0,0-.4-.2-.7-.3-1-.1-.3-.3-.5-.5-.6-.3-.2-.6-.2-.9-.2h-2.2v4.7h1.8c.4,0,.8,0,1.2-.3.3-.3.4-.7.4-1h.2v3.2h-.2c0-.4-.2-.8-.5-1-.3-.2-.7-.3-1-.2h-1.8v3.2c0,.7.4,1.3,1.1,1.4h1c.4,0,.8,0,1.1-.2.3-.1.5-.3.7-.6.2-.4.4-.8.5-1.3h.2l-.2,2.7h-8.3v-.2c.6,0,.9-.1,1.1-.4.2-.3.3-.7.3-1v-7.8c0-.4,0-.7-.2-1-.2-.3-.5-.4-1.1-.4h0v-.2h8Z"/>
        <path class="st1" d="M199.1,61.5l6.8,7.1v-5.1c0-.5,0-1-.4-1.4-.4-.3-.8-.4-1.2-.5v-.2h3.8v.2c-.3,0-.7.1-.9.3-.2.2-.3.4-.4.6,0,.3-.1.6,0,.9v9.1h-.3l-8.1-8.5v6.2c0,.5.1.9.3,1.3.3.4.7.6,1.2.6v.2h-4v-.2c1.1,0,1.7-.6,1.7-1.6v-7.3s0,0-.1-.1-.1-.1-.2-.2l-.3-.3c-.5-.5-1.1-.9-1.8-1.1v-.2h4Z"/>
        <path class="st1" d="M209.5,61.5h7.7c.3,0,.6,0,.9-.1h.2v2.6c0,0-.1,0-.1,0,0-.5-.2-1-.6-1.5-.3-.2-.6-.3-1-.3h-2.1v8.7c0,.2,0,.5.1.7,0,.2.2.4.4.5.3.1.6.2.9.2v.2h-5.2v-.2c.6,0,.9-.1,1.1-.4.2-.3.3-.7.3-1v-8.7h-2.1c-.3,0-.6.1-.8.3-.3.4-.5.9-.6,1.4h-.2v-2.6h.3c.3.1.6.1.9.1h0Z"/>
      </g>
      <path d="M59.7,64.5c-.2.2-.4.4-.6.6-.3.3-.7.7-1.1,1.1.7.3,1.3.6,1.9.7.8.2,1.4.8,1.8,1.5.4.7.7,1.4,1,2.1.1.3.1.6,0,1-.3,1.1-.4,2.3-1.7,2.8-.4.2-.6.6-.8,1-.1.5-.6.9-1.1.9-.3,0-.5.2-.7.4-.1.1-.2.2-.3.4-.9,1-1.5,1-2.4,0-1.1-1.3-1.6-1.3-2.6,0-.3.4-.5.9-.7,1.4,0,.4-.2.8-.2,1.2-.4,2.2-1.8,4.1-3.7,5.3-.3.2-.5.5-.7.8-.4.6-.7,1.3-1,1.9-.1.3-.3.5-.5.7-1.2,1.1-1.9,2.6-2.2,4.2,0,.3-.2.7-.2,1.1-.2.7,0,1.5.6,1.9.7.6,1.6,1.1,2.3,1.6,1.7,1.2,3.4,2.3,5.2,3.5.4.2.8.5,1.2.7.8.6,1.5,1.3,2.2,2,1,1,1,2.6,0,3.6l-.2.2c-.4.5-.8,1-1.2,1.6-.5.8-1,1.5-1.6,2.1-2.4,2.7-4.5,5.6-6.2,8.8-.3.4-.3.9,0,1.3.9,1.5,2.3,2.6,3.9,3.2.4.2.9.3,1.3.6.5.3.7.9.4,1.4s-.5.5-.9.5c-1.6,0-3.2-.2-4.8-.3,0,0-.1,0-.2,0-1.1-.7-2.4-.8-3.6-.4-.2,0-.5,0-.7,0-.8,0-1.7,0-2-.9-.5-.9-.3-2.1.4-2.9,2.1-2.5,3.6-5.3,4.4-8.5.1-.4.2-.9.1-1.4,0-2,.8-3.9,2.4-5.2.3-.2.5-.5.9-1-.4-.2-.7-.3-1.1-.4-2.3-.5-4.5-1-6.8-1.5-1.4-.3-2.7-.8-3.8-1.6-.7-.5-.8-.3-1.3.3-1.9,2.4-3.8,4.8-6.5,6.4-1,.8-2.2,1.3-3.5,1.5-.4,0-.7.3-.9.6-.5.6-1.1,1-1.9,1.2-.7.2-1.4.6-1.9,1.2-.8,1-2.1,1.4-3.2,1.9-2.1,1.1-4,2.5-5.8,4-.4.4-.8.8-1.1,1.3-.5.5-.6,1.4-.2,2,.2.5.4,1,.6,1.5.2.8,0,1-.8,1.3-1.8.5-3.7.2-5.5,0-.7,0-.9-.4-.7-1,0-.3.2-.6.3-.8.3-.5.5-1.1.5-1.7,0-.3.2-.6.4-.9.2-.3.5-.5.8-.7,1.6-1.1,3-2.6,3.9-4.3.7-1.2,1.4-2.3,2-3.5,1-1.9,2.9-3.1,5-3.2.3,0,.6,0,.9,0,1,0,1.9-.6,2.1-1.6.9-3.5,3.2-6,6-8.1.7-.5,1.3-1.3,1.5-2.1.4-1.5,1.3-2.8,2.6-3.7.5-.4,1-.8,1.5-1.1,1-.6,1.7-1.5,2.1-2.6,1.1-2.5,1.7-5.1,2-7.7,0-1.9,0-3.9,0-5.8,0-.4-.3-.7-.6-.8-.1,0-.3,0-.4,0-1.1,0-2.1-.4-2.9-1-.3-.1-.7-.2-1-.2-2,0-4-.6-5.8-1.6-.4-.2-.8-.5-1.1-.8-1.3-1.1-2.5-2.2-3.8-3.2-.7-.5-1.4-.8-2.2-1.1-1-.4-2.1-.8-2.5-1.9,0,0,0-.2-.2-.2l4.9-.2s3.7,6,18.6,5.2c14.6-.8,17.5-6.5,17.5-6.5h4.6c0-.1,0-.2,0-.2ZM54,69.4c-1,.4-1.9.7-2.9,1.1,0,0-.1.2-.2.3,1.4.6,2.8,0,3.1-1.4h0Z"/>
      <path class="st1" d="M27.2,2.1c-.4,0-.8,0-.8-.3,0-.3.2-.6.4-.6,0,0,.2,0,.2,0,2.9-.7,5.9-1.1,8.9-1.1,19.8,0,35.9,16.5,35.9,36.9s-16.1,36.9-35.9,36.9S0,57.3,0,36.9s.5-7.3,1.6-10.8c0-.2.1-.4.2-.6,0-.2.3-.3.6-.2.2,0,.2.2.2.4,0,.2,0,.3,0,.5,0,0,0,.3-.1.4-.7,2.7-1,5.5-1,8.3,0,18.5,14.8,33.5,33,33.5s33-15,33-33.5S52.6,1.3,34.4,1.3s-4.3.2-6.4.6h-.7q0,.1,0,.1Z"/>
      <path class="st1" d="M15.6,52.2c-.2.6-.5,1.1-.9,1.4-.4.3-.8.6-1.3.7s-1,.2-1.5.2h-.8v.8h16.5c-.2-.2-.4-.3-.6-.5-1.1-1-2.1-2.1-2.9-3.3-.8-1.2-1.5-2.4-2.1-3.8-.5-1.3-1-2.6-1.4-3.9-.3-1.3-.6-2.6-.8-3.9-.2-1.3-.3-2.5-.4-3.7,0-1.4,0-2.8,0-4.2.1-1.4.4-2.9.7-4.3.3-1.4.8-2.8,1.4-4.2.6-1.4,1.3-2.7,2.1-4,.3-.4.6-.8.9-1.2v-3.9h-.9l-13.3,12.5.6.8c.2-.2.4-.4.7-.5.3-.2.5-.3.8-.4.3-.1.6-.2.9-.3.3,0,.6-.1.9-.1s.7,0,.9.3.4.4.5.7c0,.3.1.6.2.9s0,.6,0,.9v21c0,.9-.1,1.6-.3,2.2h0Z"/>
      <g>
        <path class="st1" d="M34.3,34.7h0c0,0,0,0,0,0h0s0,0,0,0c0,0,0,0,0,0h0c0,0,0,.1,0,.1s0,0,0,0l.7,1,.5-.7s0,0,0,0c0,0,0,0,0,0,0,0,0,0,0,0h0c0-.1,0-.1,0-.2,0,0,0,0,0,0,0,0,0,0,0,0h-.1c0,0,1.2,0,1.2,0h0c0,0-.1,0-.2,0,0,0-.1,0-.2,0s-.1,0-.2.1,0,0-.1.1l-.8,1.1v1.4s0,0,0,.1c0,0,0,0,0,.1s0,0,.1,0,0,0,.1,0h0c0,0-1.6,0-1.6,0h0c0,0,0,0,0,0,0,0,0,0,.1,0,0,0,0,0,0,0,0,0,0,0,0,0,0,0,0,0,0-.2v-1.2l-1-1.3s0,0,0,0h0c0-.1,0-.1-.1-.2,0,0,0,0-.2,0h0c0,0,1.6,0,1.6,0h0Z"/>
        <path class="st1" d="M36.5,34.7h2.4v.7s0,0,0,0c0,0,0-.1,0-.2,0,0,0-.1,0-.2s0,0-.1-.1-.1,0-.2,0h-.7v1.4h.7s0,0,.1,0c0,0,0,0,0,0s0,0,0-.1c0,0,0,0,0-.2h0v1h0s0,0,0-.1c0,0,0,0,0-.1s0,0-.1,0c0,0,0,0-.1,0h-.6v1s0,0,0,.1c0,0,0,0,0,.1s0,0,.1,0,0,0,.1,0h.4c0,0,.1,0,.2,0,0,0,.1,0,.2-.1,0,0,0-.1.1-.2s0-.1,0-.2h0v.8h-2.5c0,0,0,0,0,0,0,0,0,0,.1,0,0,0,0,0,.1,0s0,0,0-.1c0,0,0,0,0-.1v-2.4s0,0,0-.1c0,0,0,0,0-.1s0,0,0,0,0,0-.1,0h-.1c0,0,0,0,0,0Z"/>
        <path class="st1" d="M41.1,34.6l1,2.6s0,0,0,0,0,0,0,0c0,0,0,0,0,0,0,0,0,0,0,0,0,0,0,0,0,0s0,0,0,0c0,0,0,0,.1,0,0,0,0,0,.1,0h0c0,0-1.6,0-1.6,0h0c0,0,0,0,.1,0,0,0,0,0,0,0,0,0,0,0,0,0,0,0,0,0,0,0h0c0-.1,0-.2,0-.2,0,0,0,0,0,0l-.3-.7h-1l-.3.7s0,0,0,.1,0,0,0,.1c0,0,0,0,0,0,0,0,.1,0,.2,0h0c0,0-1,0-1,0h0c0,0,.1,0,.2-.1s0,0,.1-.1c0,0,0-.1.1-.2s0-.1,0-.2l1-2.7h.4,0ZM40.2,36.5h.8l-.4-1.1-.4,1.1Z"/>
        <path class="st1" d="M42.8,34.7h2c0,0,.1,0,.2,0,0,0,.1,0,.2,0s.1,0,.2,0c0,0,0,0,.1.1,0,0,0,0,0,.1s0,.1,0,.2c0,0,0,.1,0,.2s0,.2,0,.2c0,0,0,.1-.1.2,0,0-.1.1-.2.2,0,0-.2,0-.3.1,0,0,.1,0,.2.2,0,0,0,.1.1.2,0,0,0,.1.1.2,0,0,0,.1.1.2,0,0,0,0,0,.1,0,0,0,0,0,.1s0,0,0,.1,0,0,0,.1,0,0,0,.1,0,0,0,0,0,0,0,0,0,0,0,0h0c0,0-1.1,0-1.1,0,0,0,0-.1-.1-.2s0-.1-.1-.2,0-.2-.1-.2,0-.2-.1-.2,0-.1-.1-.2c0,0,0-.1-.1-.2s-.1,0-.2-.1c0,0-.1,0-.2,0h-.2v1.1s0,0,0,.1,0,0,0,0,0,0,0,0,0,0,.1,0h0c0,0-1.6,0-1.6,0h0c0,0,0,0,0,0h.1s0,0,.1,0c0,0,0,0,0,0,0,0,0,0,0-.2v-2.5s0,0,0-.1c0,0,0,0,0,0,0,0,0,0,0,0,0,0,0,0-.1,0h0c0,0,0,0,0,0ZM43.9,34.8v1.4h.2c0,0,.1,0,.2,0,0,0,.1,0,.1,0,0,0,0,0,.1,0,0,0,0,0,0,0s0,0,0,0c0,0,0,0,0-.1,0,0,0,0,0-.1h0v-.2s0,0,0-.1c0,0,0,0,0-.1,0,0,0,0,0,0s0,0,0,0c0,0,0,0-.1,0,0,0,0,0-.1,0s-.1,0-.2,0h-.2,0Z"/>
        <path class="st1" d="M47.6,34.6h.1s0,0,.1,0,0,0,.1,0c0,0,0,0,.1,0s0,0,0,0c0,0,0,0,0,0h0v.8h0c0-.1,0-.2-.1-.3s-.1-.1-.2-.2c0,0-.1,0-.2,0,0,0-.1,0-.2,0h0s0,0,0,0,0,0,0,0,0,0,0,0,0,0,0,0c0,0,0,0,0,0,0,0,0,0,0,0h0c0,.2,0,.2,0,.3,0,0,0,.1.1.2,0,0,0,0,.2.1,0,0,.1,0,.2.1,0,0,.1,0,.2.1,0,0,.1,0,.2.1,0,0,.1,0,.2.1,0,0,.1,0,.2.1,0,0,0,0,.1.1s0,0,0,.1c0,0,0,0,0,.2,0,0,0,.1,0,.2s0,.1,0,.2c0,0,0,.1,0,.2,0,0,0,0,0,.1s0,0-.1.1c0,0,0,0-.1.1s-.1,0-.2,0c0,0-.1,0-.2,0,0,0-.2,0-.2,0h-.2s0,0-.1,0,0,0-.1,0c0,0,0,0,0,0s0,0,0,0,0,0,0,0h0s0,0,0,0,0,0,0,0h0v-.9h.1s0,0,0,.1c0,0,0,0,0,.1,0,0,0,0,0,.1s0,0,.1.1c0,0,0,0,.1,0,0,0,0,0,.1,0,0,0,0,0,.2,0s.1,0,.2,0,.1,0,.2,0c0,0,.1,0,.2,0,0,0,0,0,.1-.1,0,0,0-.1,0-.2,0,0,0,0,0-.1,0,0,0,0,0-.1,0,0,0,0-.1-.1,0,0-.1,0-.2-.1s-.1,0-.2-.1c0,0-.1,0-.2-.1,0,0-.1,0-.2-.1s-.1,0-.2-.1c0,0-.1-.2-.2-.3,0,0,0-.2,0-.3h0c0-.2,0-.3,0-.3,0,0,0-.1,0-.2s0-.1.1-.2c0,0,0,0,.1-.1s.1,0,.2-.1.1,0,.2,0c0,0,.2,0,.2,0h0Z"/>
      </g>
      <path class="st1" d="M40.7,14.3c1.6,0,3.1.1,4.5.5s2.6.8,3.7,1.4c1.1.6,2.1,1.3,3.1,2.2s1.7,1.8,2.4,2.8c.7,1,1.3,2.1,1.8,3.2s.9,2.3,1.3,3.5.6,2.4.7,3.7c.1,1.2.2,2.5.2,3.6s0,2.4-.2,3.6-.4,2.4-.7,3.6c-.3,1.2-.7,2.3-1.2,3.4-.5,1.1-1.1,2.2-1.8,3.1-.7,1-1.5,1.9-2.4,2.7s-1.9,1.5-3,2.1c-1.1.6-2.3,1.1-3.7,1.4-1.4.3-2.8.5-4.4.5-1.7,0-3.2-.1-4.6-.4-1.4-.3-2.6-.8-3.8-1.4s-2.1-1.3-3-2.1c-.9-.8-1.6-1.7-2.3-2.7-.7-1-1.2-2-1.7-3.1-.5-1.1-.9-2.2-1.2-3.4-.3-1.2-.5-2.3-.7-3.5s-.3-2.3-.3-3.4c0-1.2,0-2.4,0-3.7.1-1.3.3-2.5.6-3.7s.7-2.4,1.2-3.6c.5-1.2,1.1-2.3,1.8-3.3s1.5-2,2.4-2.9c.9-.9,1.9-1.6,3-2.3,1.1-.6,2.4-1.2,3.7-1.5,1.4-.4,2.8-.6,4.5-.6h0ZM41.1,16.8c-1.1,0-2,.2-2.9.5s-1.6.8-2.3,1.4c-.7.6-1.3,1.3-1.7,2.1s-.9,1.7-1.3,2.6c-.4.9-.7,1.9-.9,2.9-.2,1-.4,2-.6,3.1-.1,1-.2,2-.3,3,0,1,0,1.9,0,2.7s0,1.7,0,2.7c0,1,.1,1.9.3,3,.1,1,.3,2,.5,3,.2,1,.5,2,.9,2.9.3.9.8,1.8,1.3,2.6.5.8,1.1,1.5,1.7,2.1.7.6,1.5,1.1,2.3,1.4s1.8.5,2.9.5c1.1,0,2.2-.1,3-.5.9-.3,1.6-.8,2.3-1.4.7-.6,1.2-1.3,1.7-2.1s.9-1.6,1.2-2.6c.3-.9.6-1.9.8-2.9.2-1,.3-2,.4-3s.2-2,.2-3c0-1,0-1.8,0-2.7s0-1.7,0-2.7,0-2-.2-3-.2-2-.4-3.1c-.2-1-.4-2-.8-3s-.7-1.8-1.2-2.6c-.5-.8-1-1.5-1.7-2.1s-1.5-1.1-2.3-1.4c-.9-.3-1.9-.5-3-.5h0Z"/>
    </g>
  </g>
</svg>