<svg xmlns="http://www.w3.org/2000/svg" height="1024" preserveAspectRatio="none" style="display: block;" version="1.1" viewBox="0 0 2048 1536" width="1365">
<path d="M 0 0 L 2048 0 L 2048 1536 L 0 1536 L 0 0 z" fill="rgb(242,246,251)" transform="translate(0,0)"></path>
<path d="M 94.3433 696.63 L 94.0509 695.087 L 92.1384 695.623 C 85.1617 689.223 76.1788 611.467 75.5375 598.789 C 60.5417 302.344 344.414 65.005 631.549 100.569 C 726.807 111.851 816.128 152.726 886.936 217.439 L 926.516 177.387 C 955.934 147.526 975.737 125.733 1022.49 124.838 C 1039.11 124.52 1067.18 130.698 1080.2 140.269 C 1105.97 159.217 1134.69 190.198 1157.7 213.128 L 1270.78 325.433 C 1297.66 352.508 1311.24 384.704 1310.66 422.936 C 1310 467.378 1296.57 487.716 1266.94 516.93 C 1282.67 534.172 1299.43 550.039 1315.81 566.58 C 1346.87 598.354 1378.22 629.846 1409.84 661.054 C 1423.88 675.001 1447.08 695.908 1459.11 709.481 C 1491.35 675.916 1525.19 643.395 1557.85 610.211 L 1606.7 560.648 C 1621.86 545.313 1636.77 528.262 1655.19 516.766 C 1671.46 506.617 1690.42 501.856 1709.51 501.499 C 1727.04 501.171 1747.68 504.765 1763.36 512.877 C 1787.67 525.451 1843.04 583.271 1866.49 606.112 C 1891.89 631.282 1916.97 656.769 1941.74 682.567 C 1974.48 716.464 2002.87 741.316 2002.82 794.079 C 2002.78 830.965 1992.06 856.844 1966.5 883.375 C 1968.33 884.41 1970.59 885.138 1970.85 886.731 C 1972.24 895.197 1967.09 911.63 1965.12 919.73 C 1950.16 981.508 1929.53 1041.09 1897.88 1096.46 C 1878.95 1129.58 1839.6 1187.75 1810.3 1212.69 C 1809.92 1281.46 1808.87 1350.21 1807.16 1418.96 C 1819.86 1424.55 1839.72 1429.57 1850.29 1437.2 C 1876.44 1437.92 1902.68 1437.13 1928.83 1437.31 C 1936.74 1437.37 1945.9 1436.75 1953.54 1438.73 C 1959.81 1443.25 1958.04 1451.89 1952.49 1452.45 C 1943.32 1453.38 1932.15 1452.93 1922.8 1452.91 L 1854.5 1452.74 L 1581.35 1452.86 L 482.759 1453.05 L 227.285 1452.98 L 140.942 1452.87 C 130.016 1452.86 106.596 1455.15 95.9256 1450.82 C 93.7267 1449.93 93.3571 1447.43 92.9355 1445.25 C 93.9766 1440.88 96.327 1437.57 101.087 1437.41 C 131.06 1436.38 161.264 1438.19 191.28 1437 C 200.498 1430.38 229.273 1421.87 242.258 1416.51 L 240.91 1205.99 C 240.946 1152.27 240.344 1098.55 239.104 1044.84 C 235.314 1040.68 232.996 1038.1 228.686 1034.53 C 214.992 1035.07 220.731 1073.59 191.972 1047.06 C 172.821 1029.4 180.397 1001.86 180.047 977.871 L 107.916 905.906 C 93.9838 891.868 72.9712 873.062 62.9765 856.646 C 38.6313 816.658 41.8315 759.008 70.4196 721.922 C 76.8554 713.573 86.712 705.577 93.791 697.287 L 94.3433 696.63 z" fill="rgb(15,34,55)" transform="translate(0,0)"></path>
<path d="M 94.3433 696.63 L 94.0509 695.087 L 92.1384 695.623 C 85.1617 689.223 76.1788 611.467 75.5375 598.789 C 60.5417 302.344 344.414 65.005 631.549 100.569 C 726.807 111.851 816.128 152.726 886.936 217.439 C 859.206 246.513 830.48 274.54 802.757 303.566 C 788.593 318.395 766.505 338.282 756.397 355.268 C 744.045 376.022 737.792 399.837 738.354 423.983 C 739.19 456.73 751.953 485.645 775.845 508.078 C 778.541 510.62 781.331 513.06 784.21 515.393 C 761.892 539.202 737.759 562.754 714.642 585.875 C 674.094 626.623 633.227 667.053 592.045 707.162 C 550.581 667.029 510.161 624.562 469.088 584.008 C 450.39 565.546 420.293 531.912 399.36 518.877 C 379.749 506.578 356.945 500.338 333.804 500.937 C 297.217 501.709 270.712 514.822 246.287 541.233 C 201.237 589.944 153.723 636.477 107.597 684.167 C 103.67 688.213 98.752 693.151 94.3433 696.63 z" fill="rgb(221,242,250)" transform="translate(0,0)"></path>
<path d="M 1966.5 883.375 C 1968.33 884.41 1970.59 885.138 1970.85 886.731 C 1972.24 895.197 1967.09 911.63 1965.12 919.73 C 1950.16 981.508 1929.53 1041.09 1897.88 1096.46 C 1878.95 1129.58 1839.6 1187.75 1810.3 1212.69 C 1811.18 1187.53 1810.74 1160.75 1811.02 1135.43 C 1811.45 1097 1812.3 1058.24 1812.3 1019.84 L 1813.92 1019.81 C 1816.93 1030.13 1820.1 1034.06 1830.88 1035.06 C 1829.62 1040.72 1826.91 1049.34 1830.14 1054.68 C 1834.75 1062.3 1843.8 1058.09 1849.6 1053.84 C 1879.8 1031.72 1867.45 1008.73 1872.26 978.079 C 1903.47 946.311 1934.89 914.742 1966.5 883.375 z" fill="rgb(221,242,250)" transform="translate(0,0)"></path>
<path d="M 1807.35 996.442 C 1810.43 993.528 1813.16 990.2 1817.08 989.234 L 1818.37 990.203 C 1818.62 998.258 1813.78 1007.66 1813.92 1019.81 L 1812.3 1019.84 C 1811.91 1009.68 1810.96 1005.96 1807.35 996.442 z" fill="rgb(242,246,251)" transform="translate(0,0)"></path>
<path d="M 1435.78 763.839 C 1435.83 763.895 1435.88 763.95 1435.94 764.005 C 1437.62 767.318 1435.21 775.585 1435.08 780.61 C 1434.38 808.478 1441.93 835.575 1457.09 858.923 C 1467.73 875.315 1483.03 887.218 1496.42 901.144 C 1522.5 928.258 1549.3 953.96 1574.75 981.678 C 1575 996.56 1581.55 991.983 1578.79 1010.05 C 1566.99 1021.25 1566.09 1020.52 1565.82 1037.29 C 1554.28 1036.69 1538.12 1037.11 1536.63 1052.04 C 1533.26 1085.81 1534.91 1122.93 1535.35 1156.85 C 1535.58 1174.26 1566.32 1170.45 1578.53 1170.35 C 1594.09 1170.2 1609.65 1170.17 1625.2 1170.25 C 1625.03 1252.88 1625.69 1335.52 1627.17 1418.14 C 1611.41 1423.25 1588.64 1429.02 1576.36 1438.86 C 1487.48 1439.87 1397.68 1438.47 1308.6 1439.02 C 1309.23 1438.37 1309.85 1437.71 1310.47 1437.05 C 1328.07 1418.19 1330.72 1408.57 1329.82 1384.13 C 1328.84 1378.44 1326.99 1372.94 1324.33 1367.82 C 1317.44 1354.39 1305.43 1344.32 1291.01 1339.87 C 1271.57 1333.94 1257.57 1339.76 1240.88 1348.58 C 1226.31 1308.18 1196.07 1283.54 1150.63 1289.82 C 1126.96 1293.09 1108.76 1307.52 1095.03 1326.67 C 1092.15 1325.09 1088.73 1323.5 1085.75 1322.03 C 1084.89 1255.68 1085.98 1185.98 1086.84 1119.56 C 1116.15 1090.3 1145.85 1061.43 1175.92 1032.95 C 1192.95 1033.54 1205.53 1033.14 1220.16 1022.26 C 1224.52 1019.01 1227.77 1015.54 1228.48 1010.07 C 1225.79 1000.01 1210.4 1000.95 1202.09 1001.09 C 1212.98 982.725 1251.48 948.833 1268.45 931.923 L 1382.86 816.653 C 1400.54 798.804 1418.5 782.125 1435.78 763.839 z" fill="rgb(213,239,249)" transform="translate(0,0)"></path>
<path d="M 613.658 767.185 C 618.322 771.356 623.03 776.271 627.476 780.73 C 640.63 791.756 658.913 811.083 671.251 823.449 L 733.99 886.11 C 772.771 925.574 813.499 964.412 852.298 1004.09 C 869.93 1022.23 887.674 1040.27 905.531 1058.19 C 913.473 1066.14 926.412 1079.91 935.009 1085.96 C 935.717 1111.81 930.997 1120.54 958.967 1131.52 L 959.089 1318.62 L 950.061 1322.05 C 907.433 1269.7 831.036 1280.78 808.941 1346.9 C 792.386 1338.29 779.232 1334.63 760.381 1340.44 C 745.357 1345.21 732.839 1355.74 725.574 1369.73 C 718.816 1382.95 717.578 1398.31 722.133 1412.45 C 725.595 1422.84 731.544 1431.09 739.37 1438.61 C 696.364 1438.99 653.356 1438.86 610.353 1438.22 C 565.567 1437.94 520.779 1438.04 475.994 1438.53 C 467.96 1428.99 436.185 1420.92 422.856 1416.19 C 425.691 1374.32 425.364 1327.12 426.978 1284.63 C 426.691 1273.68 427.675 1257.88 427.99 1246.49 L 429.902 1171.12 C 450.673 1170.97 472.018 1172.04 492.654 1170.88 C 516.31 1169.55 515.818 1151.03 515.415 1133.48 C 514.786 1106.13 516.068 1078.91 514.544 1051.63 C 513.705 1036.6 499.037 1036.96 487.606 1036.54 C 484.695 1024.84 483.233 1017.67 474.739 1009.1 C 478.301 995.216 479.119 988.132 480.286 974.17 C 487.456 965.462 500.751 952.697 508.983 944.372 L 558.606 894.234 C 597.528 854.936 609.783 843.272 614.845 785.607 L 613.658 767.185 z" fill="rgb(213,239,249)" transform="translate(0,0)"></path>
<path d="M 426.978 1284.63 C 441.996 1297.79 454.559 1312.2 469.028 1325.96 C 493.947 1349.46 519.708 1372.06 546.26 1393.7 C 558.981 1404.2 572.735 1413.29 586.159 1422.75 C 591.521 1426.53 607.408 1435 610.353 1438.22 C 565.567 1437.94 520.779 1438.04 475.994 1438.53 C 467.96 1428.99 436.185 1420.92 422.856 1416.19 C 425.691 1374.32 425.364 1327.12 426.978 1284.63 z" fill="rgb(242,246,251)" transform="translate(0,0)"></path>
<path d="M 613.658 767.185 C 618.322 771.356 623.03 776.271 627.476 780.73 C 623.124 782.541 619.256 780.226 616.283 782.278 C 616.074 785.548 615.92 788.821 615.819 792.096 C 615.469 789.924 615.114 787.794 614.845 785.607 L 613.658 767.185 z" fill="rgb(242,252,253)" transform="translate(0,0)"></path>
<path d="M 797.851 529.605 C 799.106 530.168 926.143 657.931 941.343 672.054 C 967.521 696.375 985.219 706.95 1028.06 708.313 C 1046.34 708.895 1069.54 701.668 1084.67 691.883 C 1106.79 677.575 1130.46 652.089 1149.33 633.202 L 1212.93 569.594 C 1226 556.35 1241.35 543.154 1253.39 530.682 L 1361.35 639.3 C 1388.67 666.4 1421.26 697.492 1446.92 725.803 C 1414.46 760.101 1376.9 795.944 1343.4 829.401 L 1179.22 993.583 C 1143.34 999.142 1115.84 998.084 1100.59 961.459 C 1094.8 944.805 1096.9 926.319 1090.48 910.434 C 1082.96 891.825 1060.34 882.318 1043.32 875.015 C 1044.5 874.035 1045.67 873.047 1046.84 872.051 C 1068.9 853.159 1069.12 832.481 1068.04 805.879 C 1067.35 788.838 1069.48 774.331 1055.94 760.729 C 1017.87 722.493 964.157 754.425 966.595 805.438 C 967.645 831.423 968.58 837.728 985.811 855.891 C 986.001 862.366 985.972 869.148 986.046 875.653 C 926.834 884.838 934.766 935.415 934.77 980.568 L 934.103 1059.35 C 929.166 1055.01 920.031 1044.93 915.001 1039.83 L 874.869 999.41 L 767.418 891.921 L 658.468 783.923 L 622.345 748.779 C 615.688 742.309 605.528 733.057 600.194 726.114 C 604.561 721.373 613.656 713.42 618.701 708.546 C 628.857 698.573 638.931 688.518 648.923 678.382 L 797.851 529.605 z" fill="rgb(221,242,250)" transform="translate(0,0)"></path>
<path d="M 1020.89 135.428 C 1022.51 135.371 1024.13 135.349 1025.76 135.363 C 1074.32 135.834 1105.69 176.482 1138.02 208.274 C 1181.7 251.171 1225.09 294.368 1268.18 337.861 C 1302.78 373.309 1311.29 434.155 1286.72 477.36 C 1279.31 490.394 1269.76 499.185 1259.15 509.454 C 1252.24 502.925 1227.36 473.345 1219.91 473.216 C 1217.03 473.166 1214.6 474.156 1212.61 476.22 C 1211.17 477.711 1210.42 479.655 1210.55 481.753 C 1211.22 492.624 1237.83 514.611 1246.4 522.868 C 1222.94 546.497 1197.76 570.457 1173.99 593.903 L 1091.25 675.903 L 1094.25 543.358 C 1094.69 522.077 1094.58 500.431 1095.09 479.143 C 1095.18 475.24 1100.27 465.431 1101.17 460.748 C 1104.05 445.84 1105.56 431.266 1107.06 416.214 C 1111.04 441.232 1111.65 480.973 1113.44 506.984 C 1113.96 514.415 1141.77 523.379 1145.7 504.668 C 1147.8 494.719 1146.33 483.412 1145.93 472.624 C 1145.35 424.74 1145.57 371.505 1128.26 326.462 C 1117.86 300.964 1085.78 298.384 1062.36 290.461 C 1073.3 277.153 1075.02 268.326 1076.51 251.805 C 1077.23 251.409 1081.41 248.615 1081.61 248.07 C 1085.54 236.884 1082.21 220.839 1083.01 208.744 C 1082.97 206.804 1084.56 204.94 1085.03 203.305 C 1086.75 197.33 1081.79 190.267 1076.15 188.834 C 1063.98 185.745 1052.73 191.646 1042.24 196.843 C 1028.54 191.339 1022.64 188.661 1008.11 189.387 C 985.099 194.994 985.362 207.808 984.414 227.887 C 983.83 240.264 979.137 245.215 992.118 253.191 C 994.41 271.029 996.338 278.963 1009.32 291.539 C 998.223 296.531 986.185 301.621 977.183 309.99 C 945.567 339.388 966.117 400.703 939.942 431.56 C 926.746 447.114 903.843 447.276 885.114 447.993 C 868.518 438.298 850.739 444.003 852.738 465.626 C 852.476 462.792 833.745 482.365 854.368 488.149 C 866.447 491.537 875.94 488.142 886.47 481.857 C 923.392 486.477 953.466 479.377 977.324 449.609 C 978.623 465.215 982.877 474.802 983.432 488.617 C 984.355 511.581 983.981 535.631 984.137 558.732 L 984.908 690.464 C 959.025 679.195 939.661 656.395 919.804 636.651 L 848.736 565.334 C 835.081 551.642 819.537 535.425 805.213 522.862 C 810.847 516.82 834.685 496.309 834.161 489.718 C 831.791 459.916 798.47 500.13 791.252 507.496 C 789.244 505.858 787.256 504.196 785.288 502.51 C 739.953 463.658 737.935 388.314 778.05 345.05 C 792.785 329.158 807.904 313.721 823.041 298.215 L 893.607 225.888 C 902.86 216.491 912.067 206.843 921.418 197.537 C 954.552 164.564 970.642 138.795 1020.89 135.428 z" fill="rgb(242,246,251)" transform="translate(0,0)"></path>
<path d="M 1702.53 512.373 C 1760.45 506.051 1789.43 547.22 1826.47 582.143 C 1860.32 614.059 1892.65 646.055 1924.71 679.834 C 1959.61 716.604 1992.37 739.04 1992.32 795.459 C 1992.26 852.965 1962.42 873.29 1925.61 910.039 L 1871.93 964.498 C 1872.04 930.223 1871.85 895.947 1871.38 861.675 C 1870 791.736 1869.86 739.507 1789.28 718.045 C 1784.3 716.718 1766.66 711.444 1762.9 708.849 C 1761.98 706.846 1760.95 700.005 1762.1 698.856 C 1777.26 683.711 1784.25 670.623 1789.67 649.648 C 1803.29 637.307 1817.23 613.233 1800.25 597.796 C 1799.07 570.803 1788.99 537.083 1754.33 543.391 C 1748.31 544.487 1745.26 549.908 1742.22 554.646 C 1723.87 539.45 1711.01 532.298 1686.38 537.15 C 1649.08 545.951 1635.1 571.375 1636.65 605.989 C 1636.9 611.755 1631.54 614.383 1634.8 624.829 C 1639.01 638.355 1642.58 646.083 1654.66 653.803 C 1659.51 674.314 1666.2 685.017 1680.97 699.37 L 1680.89 709.438 C 1665.48 712.429 1645.23 720.48 1630.27 725.969 C 1567.75 748.9 1574.19 825.632 1573.66 881.302 C 1573.28 909.675 1573.31 938.051 1573.76 966.423 C 1554.67 945.408 1534.21 925.851 1514.79 905.439 C 1497.1 886.833 1469.54 864.211 1458.5 841.862 C 1439.43 803.242 1443.84 772.375 1456.18 734.019 C 1460.67 738.805 1482.63 764.123 1489.49 762.609 C 1515.08 756.958 1474.53 724.777 1466.24 716.733 L 1590.63 591.838 C 1604.22 578.097 1618.25 563.895 1631.62 549.992 C 1653.41 527.336 1670.82 516.046 1702.53 512.373 z" fill="rgb(242,246,251)" transform="translate(0,0)"></path>
<path d="M 335.221 512.44 C 370.109 513.452 392.599 523.372 417.697 548.1 C 438.733 568.827 459.535 589.871 480.367 610.824 C 515.004 645.134 549.399 679.686 583.551 714.478 C 575.243 723.714 566.347 732.259 557.815 741.372 C 553.259 746.239 547.822 753.319 554.23 759.345 C 564.511 769.013 586.205 741.733 593.011 734.73 C 611.692 775.398 606.904 829.152 575.18 862.398 C 544.562 894.485 509.596 925.476 481.119 959.309 C 481.442 909.319 484.551 801.397 464.003 758.692 C 451.427 732.554 430.848 724.167 404.936 715.219 L 370.138 703.056 C 384.136 688.016 392.934 670.537 397.346 650.62 C 404.42 649.342 408.511 646.686 412.605 640.64 C 416.51 634.774 417.886 627.582 416.421 620.689 C 414.461 611.453 410.031 607.542 402.654 602.986 C 407.879 569.419 398.377 559.943 370.156 545.81 C 368.886 537.917 368.283 534.768 364.324 527.908 C 357.879 520.316 346.641 514.359 336.435 515.681 C 321.74 517.583 317.783 529.873 310.263 540.299 C 306.876 544.995 300.991 543.959 295.804 544.935 C 284.071 545.84 271.311 554.465 264.265 563.756 C 254.636 576.453 253.739 585.321 255.353 600.356 C 237.078 618.049 241.332 640.467 263.602 652.519 C 263.932 672.72 279.178 687.932 292.923 700.728 C 283.172 705.016 273.257 708.923 263.201 712.438 C 243.767 719.122 223.936 723.3 209.44 739.011 C 173.45 778.017 176.543 908.217 179.11 962.68 L 119.842 903.488 C 104.274 887.974 82.8855 868.901 71.625 850.816 C 62.1265 835.56 58.1498 817.598 57.3145 800.036 C 56.0586 773.632 63.8655 743.261 82.6516 723.864 C 93.7991 712.354 105.3 700.792 116.667 689.297 L 190.487 614.665 L 236.654 566.458 C 268.626 532.955 284.853 514.646 335.221 512.44 z" fill="rgb(242,246,251)" transform="translate(0,0)"></path>
<path d="M 420.705 985.955 L 421.782 986.245 C 423.433 988.813 413.32 1371.02 412.413 1412.07 C 394.455 1411.91 376.196 1412.12 358.214 1412.16 L 346.864 1188.45 C 345.273 1153.4 344.139 1118.37 342.79 1083.25 C 343.324 1074.77 335.706 1068.59 328.315 1074 C 323.495 1077.52 324.556 1095.17 324.281 1100.96 C 323.355 1119.18 322.531 1137.4 321.809 1155.63 C 319.148 1187.5 318.13 1221.86 316.584 1253.96 C 313.677 1306.84 311.442 1359.75 309.879 1412.69 C 291.11 1412.1 271.778 1412.25 252.954 1412.18 L 249.99 987.042 C 276.126 999.064 303.465 1000.82 331.714 1001.2 C 366.368 1001.66 388.66 1001.06 420.705 985.955 z" fill="rgb(40,120,232)" transform="translate(0,0)"></path>
<path d="M 1792.07 730.106 C 1808.88 733.979 1824.93 742.127 1836.73 754.877 C 1846.16 765.161 1852.88 777.63 1856.29 791.16 C 1862.34 815.138 1861.88 867.444 1861.99 893.565 C 1862.11 923.305 1862.36 956.796 1861.4 986.298 C 1853.22 987.905 1834.61 989.932 1827.4 985.202 C 1820.87 975.326 1823.28 947.149 1823.38 934.823 L 1823.47 866.866 C 1823.48 852.229 1824.74 817.912 1822.23 804.752 C 1819.98 801.854 1821.39 802.645 1818.05 801.998 C 1816.56 802.449 1815.18 802.887 1814.02 803.968 C 1812.23 805.609 1811.14 807.872 1810.97 810.293 C 1810.53 815.694 1811.28 839.852 1811.29 846.622 L 1811.29 928.005 C 1811.31 943.234 1811.93 961.539 1810.92 976.514 C 1805.51 985.02 1798.22 990.235 1788.91 993.949 C 1758.98 1005.9 1677.28 1005.42 1647.51 992.273 C 1643.41 990.461 1635.73 986.434 1633.71 982.223 C 1629.91 974.306 1631.87 855.084 1631.92 838.16 C 1631.94 828.964 1634.06 810.861 1630.87 802.842 C 1627.54 801.127 1626.48 800.957 1623.49 803.346 C 1620.44 809.15 1622.17 850.958 1622.18 860.21 C 1622.28 901.733 1622.16 943.257 1621.82 984.78 C 1612.83 984.883 1595.79 987.072 1587.78 982.992 C 1586.05 982.112 1585.6 981.462 1585.06 979.62 C 1580.75 964.86 1584.13 823.174 1586.77 803.571 C 1588.61 789.875 1591.79 776.429 1598.47 764.216 C 1609.39 744.262 1628.87 736.319 1649.59 730.273 C 1660.19 736.563 1684.26 757.388 1694.57 766.105 C 1700.77 759.337 1706.82 752.531 1713.49 746.234 C 1706.24 802.674 1701.19 862.855 1695.74 919.673 C 1701.79 930 1710.11 941.857 1717.41 951.344 C 1725.71 942.574 1734.52 930.05 1739.91 919.4 C 1736.66 863.361 1728.56 803.03 1724.47 745.965 L 1744.77 767.258 C 1749.9 761.232 1784.63 734.752 1792.07 730.106 z" fill="rgb(242,246,251)" transform="translate(0,0)"></path>
<path d="M 1635.46 1002.23 C 1684.32 1021.95 1749.12 1022.45 1798.54 1004.42 L 1800.2 1006.05 C 1803.51 1016.63 1800.21 1074.42 1800.12 1089.19 C 1799.85 1197.41 1798.69 1305.61 1796.65 1413.8 L 1742.3 1413.16 C 1739.46 1330.88 1733.33 1247.02 1731.94 1165.23 C 1731.31 1153.97 1731.24 1091.16 1727.51 1086.19 C 1725.92 1084.08 1723.96 1083.14 1721.32 1082.92 C 1718.19 1082.65 1714.57 1083.06 1712.22 1085.39 C 1709.43 1088.14 1709.03 1093.43 1708.7 1097.17 C 1707.13 1114.85 1707.46 1133 1706.68 1150.76 L 1702.05 1242.12 C 1699.43 1299.26 1695 1356.07 1691.84 1413.13 L 1637.66 1413.37 C 1634.88 1325.85 1635.78 1229.66 1635.69 1142.17 C 1635.74 1114.23 1635.6 1086.3 1635.26 1058.36 C 1635.08 1041.93 1634.21 1018.22 1635.46 1002.23 z" fill="rgb(0,190,242)" transform="translate(0,0)"></path>
<path d="M 274.164 719.049 C 280.185 723.887 316.412 854.856 325.168 874.403 C 326.653 877.719 326.659 880.795 329.585 884.865 C 332.841 886.405 331.21 886.256 334.638 885.427 C 336.5 883.281 338.011 880.773 338.779 878.013 C 353.505 825.069 372.544 773.653 387.781 720.798 C 420.983 731.723 451.384 739.976 459.581 779.545 C 473.255 845.548 470.825 919.796 467.943 986.93 L 433.706 987.184 C 435.392 927.753 439.129 867.701 434.968 808.082 C 434.766 805.195 432.046 802.517 429.756 801.01 C 426.373 800.693 427.75 800.201 425.371 802.154 C 422.551 809.276 425.641 836.502 425.906 846.953 C 426.307 881.301 426.193 937.23 423.197 971.228 C 385.811 979.273 282.879 980.567 246.951 970.286 C 245.601 960.471 245.608 947.037 245.226 936.774 C 243.81 898.725 240.329 860.822 238.674 822.809 C 238.397 816.435 239.283 806.414 234.678 801.778 C 228.71 800.112 226.953 804.13 226.649 809.284 C 223.156 868.539 225.008 928.762 220.282 987.873 C 209.874 987.884 199.485 986.968 189.24 985.135 C 188.998 931.836 185.333 811.942 205.336 765.724 C 219.872 732.137 243.935 731.179 274.164 719.049 z" fill="rgb(26,58,92)" transform="translate(0,0)"></path>
<path d="M 978.765 886.219 C 985.941 885.318 987.736 886.963 994.373 889.079 C 1012.65 894.904 1028.11 893.635 1045.79 886.732 C 1110.06 906.361 1070.71 953.632 1107.61 989.565 C 1123.08 1004.62 1147.29 1004.67 1167.44 1003.79 C 1167.98 1011.52 1168.8 1017.14 1170.01 1024.72 C 1157 1027.2 1143.72 1027.89 1130.52 1026.79 C 1101.28 1024.12 1077.84 1009.56 1069.61 979.757 C 1068.19 974.624 1067.21 962.8 1064.28 959.31 C 1061.01 958.192 1061.98 957.961 1059.53 959.052 C 1058.92 960.265 1058.13 961.904 1058.18 963.277 C 1058.88 984.724 1065.26 996.263 1077.7 1011.85 C 1078.12 1030.04 1078.22 1048.22 1078.02 1066.41 L 1078.06 1084.49 C 1069.14 1085.92 1060.73 1088 1051.75 1089.11 C 1021.63 1092.82 997.237 1089.3 968 1083.35 C 967.813 1045.44 968.414 1007.49 967.916 969.575 C 967.835 963.457 969.277 957.837 962.848 955.791 L 960.983 956.981 C 957.613 963.767 959.091 991.627 959.084 1001.2 L 958.9 1081.89 L 942.993 1081.78 L 943.042 984.41 C 943.038 973.059 943.078 961.265 943.045 949.954 C 942.954 918.137 946.136 897.216 978.765 886.219 z" fill="rgb(242,246,251)" transform="translate(0,0)"></path>
<path d="M 968.745 1094.06 C 1002.23 1102.55 1043.91 1101.6 1077.7 1094.36 C 1078.12 1122.85 1076.32 1155.62 1076.04 1184.86 L 1075.03 1408.44 C 1065.03 1408.14 1054.56 1408.19 1044.51 1408.09 C 1043.16 1371.62 1038.79 1332.32 1036.37 1295.7 C 1034.16 1262.26 1032.78 1228.21 1030.24 1194.93 C 1030.09 1181.69 1028.05 1161.14 1026.61 1147.54 C 1026.48 1146.27 1023.85 1143.5 1022.83 1142.49 C 1014.04 1141.9 1014.52 1183.01 1014.14 1190.39 C 1013.18 1207.67 1012.12 1224.94 1010.94 1242.2 L 1006.9 1313.6 C 1004.81 1346.35 1002.42 1376.11 1001.92 1409.08 L 968.846 1409.16 C 968.094 1359.86 968.832 1313.4 968.996 1264.47 L 968.745 1094.06 z" fill="rgb(26,58,92)" transform="translate(0,0)"></path>
<path d="M 875.421 1300.25 C 881.37 1299.67 887.364 1299.69 893.309 1300.31 C 920.162 1303.35 932.73 1316.46 948.28 1336.03 L 958.986 1330.55 L 959.182 1439.15 L 806.5 1439.01 C 789.138 1438.94 765.996 1441.85 751.201 1433.66 C 741.43 1428.23 734.299 1419.05 731.458 1408.24 C 724.479 1382.59 739.682 1355.54 765.884 1349.63 C 785.57 1345.19 799.079 1352.36 815.368 1362.09 C 824.339 1328.16 838.71 1306.79 875.421 1300.25 z" fill="rgb(40,120,232)" transform="translate(0,0)"></path>
<path d="M 1152.51 1299.21 C 1160.2 1298.31 1167.97 1298.5 1175.61 1299.76 C 1198.75 1303.55 1218.19 1318.48 1226.84 1340.36 C 1229.22 1346.4 1231.58 1356.56 1234.95 1361.2 C 1240.11 1363.58 1252.21 1353.75 1260.01 1350.62 C 1264.95 1348.67 1270.18 1347.58 1275.49 1347.39 C 1313.02 1346.2 1334.48 1398.39 1308.03 1424.96 C 1294.67 1438.37 1281.12 1439.16 1263.33 1439.13 C 1249.28 1439.11 1136.62 1440.38 1130.11 1437.97 L 1129.78 1437.18 C 1129.36 1436.15 1127.01 1431.04 1126.33 1430.69 C 1113.87 1424.2 1096.88 1417.76 1084.17 1412.47 C 1084.28 1385.9 1084.55 1359.33 1084.96 1332.76 L 1098.79 1339.18 C 1112.6 1315.39 1124.9 1304.47 1152.51 1299.21 z" fill="rgb(40,120,232)" transform="translate(0,0)"></path>
<path d="M 1071.65 302.492 C 1089.86 306.582 1107.87 308.481 1118.51 325.614 C 1135.79 353.448 1138.51 443.07 1137.22 476.905 C 1131.31 477.087 1125.98 477.121 1120.11 478.133 C 1118.89 439.676 1116.28 400.157 1103.3 363.541 C 1102.73 394.172 1099.69 447.443 1086.31 475.131 C 1069.5 481.161 1006.42 480.663 988.944 473.102 C 985.128 459.749 982.934 426.416 983.02 411.907 C 983.111 405.29 983.214 396.831 982.146 390.426 C 980.902 395.13 980.548 405.441 980.216 410.708 C 978.819 423.821 977.078 433.802 970.265 445.361 C 955.046 471.18 918.362 477.198 890.666 474.056 L 889.719 457.174 C 910.922 455.414 932.024 453.367 946.938 435.894 C 971.8 406.764 957.213 352.206 978.062 321.58 C 983.016 314.304 992.65 308.199 1000.08 303.454 C 1002.74 318.543 1005.28 337.025 1009.9 351.408 C 1018.66 378.711 1026.58 407.578 1036.17 434.521 C 1048.38 400.474 1056.17 364.232 1067.92 329.968 C 1068.35 328.687 1065.49 325.642 1064.65 324.732 C 1064.78 321.954 1070.1 311.622 1071.65 302.492 z" fill="rgb(26,58,92)" transform="translate(0,0)"></path>
<path d="M 992.318 483.725 C 1018.83 489.027 1059.46 487.067 1086.96 485.821 C 1087.17 505.955 1085.63 531.169 1085.24 551.848 L 1083.2 681.712 C 1074.68 687.349 1064.45 691.405 1054.96 695.149 C 1049.9 654.562 1048.82 612.04 1045.22 571.247 C 1044.99 563.497 1044.95 535.404 1036.02 534.75 C 1032.41 537.771 1033.18 543.442 1032.8 547.723 C 1028.28 597.692 1026.63 649.185 1021.99 699.009 C 1010.12 698.43 1003.43 697.172 992.18 694.163 C 994.466 629.36 993.529 549.011 992.318 483.725 z" fill="rgb(26,58,92)" transform="translate(0,0)"></path>
<path d="M 299.202 588.234 C 330.63 585.102 335.198 609.988 370.543 596.396 C 376.937 600.894 380.671 603.736 386.488 608.93 C 389.677 643.801 390.158 670.868 358.465 691.431 C 348.657 696.319 341.671 698.236 330.478 698.26 C 314.088 698.295 298.078 692.39 286.473 680.667 C 271.874 665.922 273.561 652.259 273.987 633.146 C 274.198 623.325 274.283 613.503 274.241 603.681 C 283.006 598.445 289.604 592.174 299.202 588.234 z" fill="rgb(240,203,164)" transform="translate(0,0)"></path>
<path d="M 1700.32 592.219 C 1708.73 591.868 1715.57 592.933 1723.61 595.572 C 1746.53 603.089 1754.66 602.225 1777.41 596.267 C 1778.14 635.485 1785.05 675.008 1744.68 696.399 C 1724.74 703.435 1706.57 703.64 1688.44 691.238 C 1657.1 669.803 1670.17 643.836 1664.89 614.631 L 1664.65 613.359 C 1675.16 600.479 1683.97 595.163 1700.32 592.219 z" fill="rgb(240,203,164)" transform="translate(0,0)"></path>
<path d="M 1563.26 1047.46 C 1583.36 1047.95 1604.76 1047.63 1624.96 1047.68 L 1625.12 1119.57 C 1625.14 1130.02 1625.68 1150.08 1624.67 1159.93 L 1562.7 1160.03 L 1562.41 1082.98 C 1562.41 1076.19 1562.05 1053.1 1563.26 1047.46 z" fill="rgb(164,127,102)" transform="translate(0,0)"></path>
<path d="M 432.323 1046.06 L 486.911 1046.13 C 487.253 1070.55 487.368 1094.97 487.257 1119.39 C 487.259 1131.06 487.789 1148.74 486.95 1160.04 L 485.084 1161.08 L 430.139 1161.68 C 431.089 1123.15 431.818 1084.61 432.323 1046.06 z" fill="rgb(164,127,102)" transform="translate(0,0)"></path>
<path d="M 334.256 521.252 C 358.713 522.956 358.751 526.708 366.659 548.802 C 402.627 569.492 396.369 574.423 396.683 613.549 C 387.83 599.983 384.684 598.416 370.026 591.778 C 355.534 595.117 344.285 595.627 330.581 590.068 L 329.462 589.491 C 298.063 573.385 290.414 592.046 261.724 601.363 L 261.264 598.908 C 257.485 578.892 269.314 559.916 288.144 551.839 C 292.936 549.784 302.129 549.308 307.634 547.967 C 325.688 543.567 315.869 524.873 334.256 521.252 z" fill="rgb(26,58,92)" transform="translate(0,0)"></path>
<path d="M 1015.03 752.343 C 1038.95 750.581 1055.09 763.582 1059.85 786.948 C 1052.44 783.731 1047.94 781.833 1040.09 779.498 C 1038.4 804.324 1039.92 823.88 1020.81 841.441 C 1013.72 845.799 1009.71 846.29 1002.13 849.03 C 987.332 855.47 978.404 836.349 977.024 824.141 C 973.104 789.444 976.956 758.836 1015.03 752.343 z" fill="rgb(26,58,92)" transform="translate(0,0)"></path>
<path d="M 1717.97 1143.15 L 1720.06 1146.28 C 1719.58 1155.32 1720.99 1175.14 1721.37 1184.79 C 1722.22 1210.16 1723.31 1235.52 1724.66 1260.87 C 1727.21 1319.94 1730.26 1378.98 1733.82 1437.99 L 1700.83 1438.04 C 1707.43 1339.8 1713.14 1241.5 1717.97 1143.15 z" fill="rgb(242,252,253)" transform="translate(0,0)"></path>
<path d="M 332.882 1159.22 L 335.065 1164.99 C 334.214 1186.15 338.173 1229.52 339.413 1252.89 C 342.799 1314.49 345.536 1376.12 347.622 1437.78 C 338.53 1437.77 329.437 1437.68 320.346 1437.49 C 323.436 1344.69 327.615 1251.93 332.882 1159.22 z" fill="rgb(242,246,251)" transform="translate(0,0)"></path>
<path d="M 1043.01 216.451 C 1049.1 219.555 1055.11 223.079 1061.06 226.469 C 1066.45 238.287 1069.39 246.097 1067.41 259.289 C 1063.57 284.956 1050.01 295.227 1024.89 291.527 C 998.473 277.874 1001.42 258.796 1001.18 232.532 C 1019.52 239.552 1034.42 234.711 1043.01 216.451 z" fill="rgb(240,203,164)" transform="translate(0,0)"></path>
<path d="M 1043.7 205.086 C 1064.29 190.089 1079.89 188.737 1076.25 218.565 C 1075.21 227.008 1075.28 236.418 1074.15 245.197 C 1073.03 239.991 1070.82 227.698 1067.21 224.445 C 1061.58 219.38 1049.11 209.692 1041.35 210.235 C 1032.8 215.699 1033.39 233.54 1010.91 228.565 C 1005.68 227.406 1003.98 226.44 999.032 223.731 C 996.95 224.871 997.902 224.143 996.612 226.584 C 995.917 231.402 994.975 242.433 991.872 245.487 L 991.02 243.768 L 992.964 244.206 L 993.187 243.718 L 990.98 242.145 C 991.305 235.449 992.296 232.513 995.472 226.854 C 993.032 224.388 991.988 224.056 991.959 220.117 C 991.724 187.847 1022.63 196.181 1043.7 205.086 z" fill="rgb(26,58,92)" transform="translate(0,0)"></path>
<path d="M 1047.07 791.148 L 1059.71 795.144 C 1060.65 834.719 1061.29 875.259 1009.29 872.696 C 1004.65 872.006 999.849 871.578 996.222 868.77 C 994.508 866.255 992.803 858.34 995.808 857.739 C 1008.21 855.256 1015.65 855.678 1026.31 847.73 C 1045.79 833.224 1043.87 812.304 1047.07 791.148 z" fill="rgb(240,203,164)" transform="translate(0,0)"></path>
<path d="M 1025.54 1317.42 C 1027.74 1317.28 1026.72 1317.08 1028.58 1318.36 C 1030.59 1353.06 1034.53 1392.95 1035.33 1426.95 L 1025.8 1423.02 C 1020.8 1421.37 1014.97 1418.91 1009.99 1416.94 L 1013.67 1353.53 C 1014.23 1343.92 1014.75 1327.62 1016.24 1318.81 C 1018.77 1317.24 1022.44 1317.53 1025.54 1317.42 z" fill="rgb(40,120,232)" transform="translate(0,0)"></path>
<path d="M 1087.15 1020.66 C 1106.53 1033.72 1122.82 1034.83 1145.36 1036.09 C 1136.82 1043.41 1125.52 1055.11 1117.21 1063.21 C 1107.32 1072.86 1096.49 1082.6 1087.39 1092.9 C 1086.16 1071.38 1087.03 1042.74 1087.15 1020.66 z" fill="rgb(221,242,250)" transform="translate(0,0)"></path>
<path d="M 1689.98 704.566 C 1714.84 714.45 1727.91 714.325 1752.6 704.652 C 1752.64 710.148 1753.71 713.169 1753.65 718.091 C 1751.26 722.598 1750.33 722.153 1745.48 725.353 C 1736.68 730.829 1728.68 735.917 1719.04 739.819 C 1712.97 736.533 1691.37 722.904 1686.62 718.752 C 1691.73 714.248 1689.98 711.415 1689.98 704.566 z" fill="rgb(240,203,164)" transform="translate(0,0)"></path>
<path d="M 1826.96 996.677 C 1838.21 997.303 1850 998.182 1861.21 997.727 C 1862.78 1021 1863.5 1026.91 1846.44 1044.07 C 1842.93 1046.35 1843.68 1046.65 1840.23 1046.59 C 1838.42 1041.67 1844.98 1032.69 1842.95 1024.46 C 1834.63 1014.66 1810.88 1032.98 1826.96 996.677 z" fill="rgb(226,176,129)" transform="translate(0,0)"></path>
<path d="M 191.076 1000.23 C 201.057 1000.24 211.038 1000.08 221.015 999.754 C 221.837 1007.09 225.707 1025.43 222.047 1030.45 C 218.06 1029.51 217.24 1014.41 206.081 1023.11 C 204.821 1026.21 204.841 1024.7 205.917 1027.79 C 209.02 1033.24 213.952 1039.29 209.399 1044.94 C 195.287 1046.44 178.52 1015.67 191.076 1000.23 z" fill="rgb(240,203,164)" transform="translate(0,0)"></path>
<path d="M 1038.28 579.731 C 1039.16 584.879 1039.72 593.004 1039.99 598.27 C 1041.6 630.387 1046.33 663.228 1047.7 695.22 C 1045.04 697.605 1043.24 697.188 1039.23 697.836 L 1029.64 698.201 C 1030.71 673.416 1033.34 647.398 1034.59 622.481 C 1035 614.453 1036.67 585.471 1038.28 579.731 z" fill="rgb(242,246,251)" transform="translate(0,0)"></path>
<path d="M 346.602 742.628 C 352.381 748.268 355.042 751.193 361.58 756.113 C 363.814 755.803 364.18 755.711 366.409 755.863 C 367.124 759.71 353.192 799.487 350.935 806.251 C 349.617 810.668 347.374 816.303 345.743 820.741 C 343.943 802.621 340.527 783.549 337.22 765.641 C 340.478 760.22 346.553 748.733 346.602 742.628 z" fill="rgb(242,246,251)" transform="translate(0,0)"></path>
<path d="M 496.98 1046.68 C 499.717 1046.83 505.304 1047.12 505.999 1050.74 C 506.665 1055.33 507.385 1064.75 506.886 1069.26 C 504.976 1086.53 510.608 1145.18 504.467 1157.71 C 502.251 1159.5 500.335 1160.89 497.573 1160.48 C 496.608 1154.53 497.132 1130.43 497.139 1123.34 L 496.98 1046.68 z" fill="rgb(164,127,102)" transform="translate(0,0)"></path>
<path d="M 329.431 764.693 L 330.869 766.472 C 333.836 787.381 339.917 814.247 340.657 835.072 C 340.755 837.824 334.182 856.398 332.842 860.29 C 332.197 860.366 331.959 860.007 331.145 859.53 C 329.407 854.662 324.084 841.716 323.763 837.493 C 322.078 815.364 327.828 787.68 329.431 764.693 z" fill="rgb(40,120,232)" transform="translate(0,0)"></path>
<path d="M 312.846 743.647 C 315.29 745.74 318.369 757.212 322.916 762.569 C 320.613 779.27 320.848 801.367 318.014 817.166 L 317.169 817.586 L 315.904 814.738 C 309.582 795.806 303.892 776.669 298.844 757.359 C 303.869 753.645 308.533 748.266 312.846 743.647 z" fill="rgb(242,246,251)" transform="translate(0,0)"></path>
<path d="M 1046.09 1418.09 C 1049.5 1418.05 1060.23 1418.45 1062.79 1418.18 C 1071.53 1417.28 1114.85 1433.99 1118.32 1437.86 C 1104.35 1438.34 1060 1436.52 1046.68 1434.7 C 1046.16 1429.5 1046.19 1423.39 1046.09 1418.09 z" fill="rgb(242,246,251)" transform="translate(0,0)"></path>
<path d="M 1551.6 1046.61 C 1551.72 1046.91 1551.83 1047.21 1551.94 1047.5 C 1552.39 1084.1 1551.41 1120.92 1552.54 1157.61 C 1552.58 1159.07 1552.29 1159.52 1551.77 1160.57 L 1548.31 1161.55 C 1546.4 1159.4 1545.24 1158.06 1545.1 1155.03 C 1544.4 1138.85 1544.75 1122.52 1544.7 1106.3 C 1544.66 1089.49 1544.32 1072.53 1544.91 1055.75 C 1545.07 1051.22 1548.32 1049.24 1551.6 1046.61 z" fill="rgb(226,176,129)" transform="translate(0,0)"></path>
<path d="M 971.351 1418.43 C 987.655 1418.16 995.356 1419.95 1010.16 1427.3 C 1015.58 1429.99 1029.57 1433.22 1033.37 1436.34 L 1032.63 1437.55 C 1017.58 1437.85 983.457 1438.03 969.974 1435.78 C 969.829 1431.43 968.902 1421.49 971.351 1418.43 z" fill="rgb(242,246,251)" transform="translate(0,0)"></path>
<path d="M 1593.5 995.55 C 1601.55 995.132 1624.1 991.283 1624.81 1002.16 C 1621.72 1010.02 1617.55 1011.68 1610.57 1016.38 C 1605.39 1020.09 1599.7 1023.97 1593.39 1019.66 C 1586.9 1015.21 1585.96 1003.28 1589.43 996.774 C 1590.04 995.635 1592.23 995.728 1593.5 995.55 z" fill="rgb(226,176,129)" transform="translate(0,0)"></path>
<path d="M 432.043 996.997 C 444.055 997.281 456.839 997.032 468.912 996.997 C 467.063 1005.75 465.879 1009.76 461.113 1017.29 C 450.199 1028.71 440.515 1022.91 433.216 1012 L 432.043 996.997 z" fill="rgb(240,203,164)" transform="translate(0,0)"></path>
<path d="M 1028.9 376.644 C 1028.84 367.247 1030.43 336.463 1035 329.125 L 1036.56 329.223 C 1040.86 336.696 1041 338.434 1041.16 346.654 L 1041.13 347.746 C 1040.87 357.058 1043.24 367.053 1042.83 375.442 C 1042.35 385.287 1037.72 398.096 1036.07 408.207 L 1028.9 376.644 z" fill="rgb(40,120,232)" transform="translate(0,0)"></path>
<path d="M 1193.23 993.757 C 1197.34 995.425 1191.95 1002.07 1194.75 1008.25 C 1198.24 1009.56 1214.27 1010.11 1219.8 1010.68 C 1213.23 1017.18 1210.2 1018.76 1201.66 1022.32 C 1184.92 1025.78 1176.96 1030.11 1176.87 1009.6 C 1181.59 1002.88 1186.77 998.67 1193.23 993.757 z" fill="rgb(240,203,164)" transform="translate(0,0)"></path>
<path d="M 363.357 712.002 C 368.623 713.328 373.77 715.199 378.91 716.965 C 376.924 723.781 368.808 740.473 363.914 745.622 L 362.117 745.217 C 355.493 738.902 349.246 733.214 341.755 727.915 C 353.143 722.509 354.648 721.235 363.357 712.002 z" fill="rgb(242,246,251)" transform="translate(0,0)"></path>
<path d="M 232.921 926.042 L 235.117 924.324 C 235.504 939.933 236.678 955.439 237.009 971.094 C 237.442 991.532 240.287 1011.21 239.503 1031.82 C 220.871 986.588 233.822 971.332 232.921 926.042 z" fill="rgb(242,246,251)" transform="translate(0,0)"></path>
<path d="M 293.826 711.927 C 300.345 717.973 311.237 724.35 318.986 729.648 C 313.244 733.218 310.389 735.418 305.132 739.733 C 302.388 742.299 300.977 743.999 297.491 745.442 C 294.13 742.23 285.603 722.144 283.332 717.034 L 293.826 711.927 z" fill="rgb(242,246,251)" transform="translate(0,0)"></path>
<path d="M 300.794 703.74 C 325.596 708.637 333.91 709.305 358.539 704.074 L 349.795 712.522 C 342.94 718.015 337.09 723.941 327.528 722.85 C 317.522 721.708 306.792 711.173 300.794 703.74 z" fill="rgb(240,203,164)" transform="translate(0,0)"></path>
<path d="M 1768.57 721.842 C 1771.65 721.917 1777.93 724.699 1781.16 725.961 C 1769.8 734.172 1758.24 744.532 1746.47 753.249 L 1744.55 753.543 C 1740.99 751.493 1737.57 746.524 1734.85 743.102 C 1745.95 735.802 1757.19 728.714 1768.57 721.842 z" fill="rgb(242,246,251)" transform="translate(0,0)"></path>
<path d="M 866.898 452.003 C 877.718 451.954 887.427 458.412 882.468 470.294 C 879.709 476.903 874.871 478.147 868.672 480.789 C 867.287 480.89 865.9 480.974 864.513 481.042 C 860.546 481.228 858.455 481.37 855.681 478.853 C 855.934 471.159 867.581 471.147 862.341 457.483 C 863.288 454.045 863.505 454.802 866.898 452.003 z" fill="rgb(226,176,129)" transform="translate(0,0)"></path>
<path d="M 1668.96 721.914 C 1674.55 721.606 1698.62 737.806 1705.15 741.772 C 1702.47 744.935 1699.25 748.298 1696.41 751.385 C 1695.23 751.898 1694.74 751.628 1693.23 751.542 C 1686.04 747.602 1667.17 732.105 1662 725.85 C 1663.61 723.498 1665.91 723.175 1668.96 721.914 z" fill="rgb(242,246,251)" transform="translate(0,0)"></path>
<path d="M 1021.45 1219.67 C 1022.95 1223.32 1027.58 1299.1 1027.39 1306.84 L 1025.95 1308.19 C 1022.38 1308.15 1020.82 1308.43 1017.65 1307.02 C 1016.85 1300.98 1018.09 1284.06 1018.45 1276.98 L 1021.45 1219.67 z" fill="rgb(242,252,253)" transform="translate(0,0)"></path>
<path d="M 1052.98 322.893 L 1057.2 329.417 C 1054.13 342.453 1050.76 358.175 1046.46 370.665 C 1045.38 362.268 1044.25 347.754 1042.63 340.19 L 1041.36 328.242 C 1046.03 326.387 1048.59 325.396 1052.98 322.893 z" fill="rgb(242,252,253)" transform="translate(0,0)"></path>
<path d="M 330.938 731.979 C 336.686 733.808 341.223 735.419 341.155 741.841 C 339.502 745.505 337.079 746.895 333.889 749.434 C 333.852 753.255 334.621 756.693 331.062 758.458 L 327.771 757.108 L 325.772 753.911 L 326.156 752.559 L 329.71 751.186 L 330.355 749.692 C 325.542 747.163 324.474 748.143 319.593 744.119 C 317.975 740.742 318.116 742.436 319.09 738.87 C 321.711 735.132 326.607 733.744 330.938 731.979 z" fill="rgb(40,120,232)" transform="translate(0,0)"></path>
<path d="M 1122.29 485.258 C 1125.28 485.184 1131.42 484.743 1134.02 486.044 C 1142.33 490.2 1139.96 499.58 1135.44 506.004 C 1119.33 509.562 1119.45 496.777 1122.29 485.258 z" fill="rgb(240,203,164)" transform="translate(0,0)"></path>
<path d="M 1026.75 357.65 C 1026.49 361.334 1026.3 363.914 1025.68 367.586 L 1024.73 367.006 C 1023.75 357.482 1010.67 329.699 1017.58 323.959 C 1024.78 325.075 1018.91 326.872 1029.67 328.603 C 1028.86 337.906 1026.87 348.673 1026.75 357.65 z" fill="rgb(242,252,253)" transform="translate(0,0)"></path>
<path d="M 1039.34 302.225 C 1046.74 300.236 1051.49 298.841 1058.25 295.124 C 1063.69 312.624 1056.99 312.639 1042.41 320.031 C 1041.76 312.406 1041.33 309.598 1039.34 302.225 z" fill="rgb(242,246,251)" transform="translate(0,0)"></path>
<path d="M 944.653 1098.44 L 959.144 1098.18 C 959.239 1104.86 959.713 1114.73 958.658 1121.06 C 947.439 1116.64 941.046 1111.63 944.653 1098.44 z" fill="rgb(240,203,164)" transform="translate(0,0)"></path>
<path d="M 1010.87 306.743 C 1011.98 303.306 1013.19 299.898 1014.49 296.524 C 1020.7 299.432 1026.95 300.664 1033.52 302.72 C 1031.66 307.537 1028.93 313.961 1027.87 318.823 C 1021.33 315.96 1016.13 311.442 1010.87 306.743 z" fill="rgb(242,246,251)" transform="translate(0,0)"></path>
<path d="M 263.357 607.72 C 265.75 611.101 266.581 636.36 262.633 639.431 L 259.607 637.677 C 251.128 626.713 252.374 616.003 263.357 607.72 z" fill="rgb(240,203,164)" transform="translate(0,0)"></path>
<path d="M 339.906 986.505 C 343.95 986.252 348.483 985.437 351.933 987.095 C 353.058 989.973 353.104 988.616 352.062 991.3 C 347.279 992.771 332.378 992.036 326.5 991.938 C 320.737 992.059 316.474 992.994 311.946 990.123 L 311.767 988.8 C 316.923 985.467 333.176 986.447 339.906 986.505 z" fill="rgb(242,246,251)" transform="translate(0,0)"></path>
<path d="M 397.093 612.325 C 408.877 616.436 408.918 626.363 403.559 635.951 C 401.714 637.79 401.141 638.744 398.587 639.206 C 395.623 635.381 397.033 618.624 397.093 612.325 z" fill="rgb(240,203,164)" transform="translate(0,0)"></path>
<path d="M 1644.15 614.565 C 1655.77 615.312 1654.56 620.203 1655.09 630.433 C 1655.25 633.416 1655.26 636.521 1655.33 639.513 C 1649.13 634.413 1646.48 622.372 1644.15 614.565 z" fill="rgb(242,246,251)" transform="translate(0,0)"></path>
<path d="M 994.576 879.038 C 1014.51 882.47 1016.48 880.354 1034.87 880.117 L 1036.73 882.074 C 1026.64 884.457 1002.53 887.446 994.576 879.038 z" fill="rgb(242,246,251)" transform="translate(0,0)"></path>
<path d="M 1792.02 607.245 C 1802.2 610.834 1797.32 621.943 1795.15 629.826 L 1793.68 631.236 L 1792.54 630.212 C 1791.5 624.33 1791.96 613.568 1792.02 607.245 z" fill="rgb(240,203,164)" transform="translate(0,0)"></path>
<path d="M 462.104 1029.37 C 463.63 1031.22 463.553 1032.79 462.818 1034.73 C 457.555 1036.81 442.929 1035.89 436.546 1035.73 C 436.411 1034.88 436.829 1033.99 437.107 1033.01 C 442.497 1029.4 448.494 1036.57 462.104 1029.37 z" fill="rgb(242,246,251)" transform="translate(0,0)"></path>
<path d="M 332.882 1159.22 C 333.083 1154.37 333.219 1149.47 333.645 1144.64 C 334.355 1151.55 335.148 1158.01 335.065 1164.99 L 332.882 1159.22 z" fill="rgb(128,148,167)" transform="translate(0,0)"></path>
<path d="M 232.921 926.042 C 232.975 921.692 232.736 918.681 234.1 914.53 C 235.475 916.926 235.099 921.349 235.117 924.324 L 232.921 926.042 z" fill="rgb(128,148,167)" transform="translate(0,0)"></path>
<path d="M 1717.97 1143.15 C 1718.03 1140.58 1717.69 1135.67 1718.84 1133.91 C 1719.91 1139.29 1720.07 1140.8 1720.06 1146.28 L 1717.97 1143.15 z" fill="rgb(128,148,167)" transform="translate(0,0)"></path>
<metadata><recraft-signature>{"signed_by": "recraft", "signature_b64": "6uOtCgpbNe0gArYbOtLVrLbmRZ1wb/IVkmXZ9bKbhysrHmjg+VhV7zr/2J3FuEsZ0jWeFZZ+n1D5MAgBf5VrBA==", "signing_algo": "Ed25519", "generation_timestamp": 1776431507, "identifier": "2484eeac-a5c0-4f45-b867-b181895f53b0"}</recraft-signature></metadata></svg>