<svg xmlns="http://www.w3.org/2000/svg" height="1024" preserveAspectRatio="none" style="display: block;" version="1.1" viewBox="0 0 2048 1536" width="1365">
<path d="M 0 0 L 2048 0 L 2048 1536 L 0 1536 L 0 0 z" fill="rgb(242,246,251)" transform="translate(0,0)"></path>
<path d="M 254.126 1343.74 C 213.382 1300.18 175.407 1240.75 150.83 1186.54 C 69.8938 1008.01 86.9945 840.735 156.265 661.739 C 195.53 560.922 249.699 466.567 316.966 381.827 C 336.84 356.575 357.233 331.725 380.128 309.097 C 528.076 162.876 728.677 81.405 932.813 160.532 C 1027 197.428 1109.09 259.773 1169.9 340.61 C 1180.17 354.219 1195.04 373.345 1201.91 388.868 C 1218.32 388.83 1236.92 388.371 1253.16 389.177 L 1256.08 389.139 C 1260.53 385.723 1278.09 375.079 1283.45 371.964 C 1346.22 335.464 1419.78 316.628 1492.36 318.068 C 1518.61 318.588 1530.63 318.324 1555.85 324.503 L 1567.73 312.395 L 1530.23 275.076 C 1521.53 266.426 1513.19 259.303 1506.02 249.228 C 1491.58 228.973 1506.25 199.907 1528.84 194.387 C 1542.49 191.027 1556.77 189.361 1570.84 187.338 L 1633.95 178.132 L 1691.75 169.463 C 1702.97 167.762 1717.43 165.118 1728.44 165.026 C 1735.31 164.968 1747.32 172.283 1751.56 177.933 C 1762.66 192.731 1760.7 202.282 1758.9 218.853 L 1747.33 328.194 C 1746.07 341.31 1743.21 381.756 1740.04 392.41 C 1737.58 400.766 1732.61 408.16 1725.79 413.58 C 1723.02 415.78 1719.24 418.065 1715.94 419.362 C 1749.02 440.921 1777.72 460.517 1804.94 490.392 C 1867.16 558.669 1922.59 665.243 1941.71 755.434 C 1944.62 769.612 1946.95 783.903 1948.7 798.272 C 1949.41 803.944 1950.7 821.363 1952.31 825.664 C 1954.89 822.772 1956.24 820.611 1959.86 819.454 C 1964.57 820.117 1991.15 846.491 1995.53 851.265 C 1986.99 864.073 1956.52 891.428 1944.23 904.522 C 1946.66 918.772 1940 950.526 1937.2 965.577 C 1917.4 1072.28 1882.39 1177.98 1841.46 1278.32 C 1832.51 1300.25 1820.3 1325.11 1810.33 1346.94 C 1813.7 1348.26 1836.16 1345.1 1841.69 1345.21 C 1882.27 1346.03 1922.89 1345.42 1963.46 1346.17 C 1982.04 1346.51 1986.59 1355.5 1990.52 1371.66 C 1990.09 1373.37 1989.6 1375.06 1989.04 1376.73 C 1983.87 1392.53 1972.54 1397.08 1957.09 1397.14 L 430.139 1396.45 L 286.989 1396.43 C 223.619 1396.73 160.244 1397.47 96.8663 1397.22 C 85.4812 1397.18 81.2809 1397.39 71.4407 1390.82 C 52.4871 1378.18 63.9227 1346.18 85.4554 1344.31 C 98.3405 1343.19 110.205 1343.66 123.083 1343.72 L 200.711 1344.09 C 216.28 1344.29 239.19 1345.76 254.126 1343.74 z" fill="rgb(15,34,55)" transform="translate(0,0)"></path>
<path d="M 254.126 1343.74 C 213.382 1300.18 175.407 1240.75 150.83 1186.54 C 69.8938 1008.01 86.9945 840.735 156.265 661.739 C 195.53 560.922 249.699 466.567 316.966 381.827 C 336.84 356.575 357.233 331.725 380.128 309.097 C 528.076 162.876 728.677 81.405 932.813 160.532 C 1027 197.428 1109.09 259.773 1169.9 340.61 C 1180.17 354.219 1195.04 373.345 1201.91 388.868 C 1218.32 388.83 1236.92 388.371 1253.16 389.177 L 1251.95 389.279 C 1238.57 390.345 1217.52 389.746 1203.74 389.718 L 1121.48 389.734 L 626.073 389.711 L 467.641 389.723 C 436.923 389.7 406.204 389.559 375.489 390.033 C 364.943 390.195 365.805 393.678 365.766 403.002 C 365.659 428.493 365.746 453.993 365.774 479.486 L 365.887 629.325 L 365.982 1101.36 C 351.92 1114.91 250.467 1214.92 247.095 1223.93 C 250.063 1229.57 299.031 1278.15 305.961 1283.19 C 319.228 1272.58 353.125 1236.52 365.117 1223.27 L 365.343 1351.09 C 331.221 1351.13 295.996 1350.74 261.964 1351.3 L 254.126 1343.74 z" fill="rgb(148,226,250)" transform="translate(0,0)"></path>
<path d="M 155.067 940.698 C 176.303 943.043 161.27 963.133 169.791 973.258 C 176.275 980.961 203.79 968.488 203.343 988.527 C 196.869 998.864 178.951 994.514 171.408 998.673 C 158.194 1005.96 177.803 1021.42 157.696 1030.38 C 134.62 1023.75 162.023 996.999 135.138 996.49 C 129.751 996.388 106.613 995.311 109.339 986.086 C 112.972 969.195 138.017 979.921 144.379 973.711 C 153.716 964.599 140.359 952.374 155.067 940.698 z" fill="rgb(26,58,92)" transform="translate(0,0)"></path>
<path d="M 1659.48 400.057 C 1681.87 416.675 1684.79 427.668 1715.94 419.362 C 1749.02 440.921 1777.72 460.517 1804.94 490.392 C 1867.16 558.669 1922.59 665.243 1941.71 755.434 C 1944.62 769.612 1946.95 783.903 1948.7 798.272 C 1949.41 803.944 1950.7 821.363 1952.31 825.664 C 1954.89 822.772 1956.24 820.611 1959.86 819.454 C 1964.57 820.117 1991.15 846.491 1995.53 851.265 C 1986.99 864.073 1956.52 891.428 1944.23 904.522 C 1946.66 918.772 1940 950.526 1937.2 965.577 C 1917.4 1072.28 1882.39 1177.98 1841.46 1278.32 C 1832.51 1300.25 1820.3 1325.11 1810.33 1346.94 C 1809.94 1347.73 1809.04 1349.42 1808.85 1350.18 L 1658.35 1350.35 C 1657.24 1315.39 1658.37 1274.69 1658.32 1239.22 L 1658.43 983.271 L 1658.76 655.5 C 1658.49 570.352 1658.73 485.203 1659.48 400.057 z" fill="rgb(221,242,250)" transform="translate(0,0)"></path>
<path d="M 1952.31 825.664 C 1954.89 822.772 1956.24 820.611 1959.86 819.454 C 1964.57 820.117 1991.15 846.491 1995.53 851.265 C 1986.99 864.073 1956.52 891.428 1944.23 904.522 C 1938.96 909.85 1919.74 931.751 1913.72 932.326 C 1904.66 928.112 1858.18 881.969 1851.85 873.397 L 1852.46 872.604 C 1855.39 868.866 1860.17 865.034 1862.97 861.488 C 1888.56 829.109 1889 843.603 1913.83 867.023 C 1926.5 852.963 1939.79 840.116 1952.31 825.664 z" fill="rgb(15,34,55)" transform="translate(0,0)"></path>
<path d="M 1959.9 833.694 C 1965.85 838.179 1973.77 846.784 1979.2 852.324 C 1964.95 868.8 1948.54 883.964 1933.77 900.011 C 1927.51 906.803 1921.2 913.567 1914.21 919.608 L 1886.5 892.835 L 1866.5 873.534 C 1872.73 867.981 1880.03 860.492 1886.19 854.581 C 1895.71 862.335 1904.8 873.387 1912.15 883.226 C 1925.82 870.726 1946.83 847.801 1959.9 833.694 z" fill="rgb(40,120,232)" transform="translate(0,0)"></path>
<path d="M 1833.09 615.004 C 1851.94 614.139 1847.21 635.568 1847.22 649.207 C 1853.63 649.542 1876.14 647.844 1879.05 652.063 C 1894.94 675.119 1855.04 670.331 1846.69 670.159 C 1846.74 682.622 1850.55 698.415 1840.5 706.801 C 1839.66 706.873 1838.83 706.93 1837.99 706.97 C 1820.3 707.744 1824.99 683.177 1825.17 671.006 C 1818.04 670.348 1797.26 671.642 1793.99 667.019 C 1778.18 644.637 1818.67 648.942 1825.23 649.061 C 1825.37 635.044 1821.08 624.59 1833.09 615.004 z" fill="rgb(26,58,92)" transform="translate(0,0)"></path>
<path d="M 254.126 1343.74 L 261.964 1351.3 C 208.616 1352.78 154.206 1349.84 100.75 1351.95 C 96.6238 1352.11 94.4513 1355.89 94.6122 1359.61 C 99.314 1365.67 123.149 1363.44 130.995 1363.41 L 177.71 1363.58 C 238.513 1363.87 299.318 1363.73 360.119 1363.17 L 1388.62 1362.26 L 1698.06 1362.18 L 1787.91 1362.24 C 1799.69 1362.27 1838.1 1365.36 1844.96 1356.71 L 1844.43 1355.19 C 1836.39 1348.21 1819.37 1350.03 1808.85 1350.18 C 1809.04 1349.42 1809.94 1347.73 1810.33 1346.94 C 1813.7 1348.26 1836.16 1345.1 1841.69 1345.21 C 1882.27 1346.03 1922.89 1345.42 1963.46 1346.17 C 1982.04 1346.51 1986.59 1355.5 1990.52 1371.66 C 1990.09 1373.37 1989.6 1375.06 1989.04 1376.73 C 1983.87 1392.53 1972.54 1397.08 1957.09 1397.14 L 430.139 1396.45 L 286.989 1396.43 C 223.619 1396.73 160.244 1397.47 96.8663 1397.22 C 85.4812 1397.18 81.2809 1397.39 71.4407 1390.82 C 52.4871 1378.18 63.9227 1346.18 85.4554 1344.31 C 98.3405 1343.19 110.205 1343.66 123.083 1343.72 L 200.711 1344.09 C 216.28 1344.29 239.19 1345.76 254.126 1343.74 z" fill="rgb(229,248,252)" transform="translate(0,0)"></path>
<path d="M 1256.08 389.139 C 1260.53 385.723 1278.09 375.079 1283.45 371.964 C 1346.22 335.464 1419.78 316.628 1492.36 318.068 C 1518.61 318.588 1530.63 318.324 1555.85 324.503 C 1534.12 346.18 1512.27 367.726 1490.28 389.139 L 1332.68 389.546 C 1308.81 389.495 1279.37 390.265 1256.08 389.139 z" fill="rgb(213,239,249)" transform="translate(0,0)"></path>
<path d="M 1586.97 452.748 L 1597.6 452.833 L 1597.83 1299.28 L 1467.04 1299.46 L 1467.14 1267.13 C 1466.73 1262.17 1466.72 1255.9 1466.87 1250.86 C 1467.78 1221.7 1465.38 1190.68 1467.37 1161.72 C 1464.34 1158.25 1462.32 1157.59 1457.71 1157.45 C 1437.73 1156.84 1417.64 1157.41 1397.64 1157.45 C 1389.01 1157.47 1379.5 1157.22 1371.01 1158.37 C 1366.17 1162.78 1367.82 1176.05 1367.91 1182.5 L 1367.87 1200.88 L 1367.83 1299.23 L 1255.08 1299.47 L 1255.06 1200.02 L 1255.13 1182.73 C 1255.24 1176.66 1256.28 1163.59 1253.21 1158.94 C 1248.79 1157.55 1244.04 1157.31 1239.44 1157.21 C 1229.56 1157 1162.19 1155.73 1158.59 1159.54 C 1155.03 1163.29 1156.86 1177.65 1156.98 1182.58 L 1157.04 1199.62 L 1157.15 1299.83 L 1054.36 1299.21 L 1054.6 1199.77 C 1055.22 1175.16 1052.65 1148.26 1054.19 1123.19 L 1054.2 1081.31 C 1055.53 1061.55 1053.68 1035.12 1054.51 1013.93 C 1053.56 1013.08 1051.91 1011.58 1050.56 1011.53 C 1021.91 1010.33 992.987 1010.93 964.286 1010.98 C 961.131 1010.99 957.572 1011.53 954.766 1012.83 C 951.645 1019.98 953.034 1054.49 953.118 1064.17 L 953.221 1081.03 C 953.262 1113.86 952.427 1150.27 953.285 1182.8 C 953.446 1191.45 953.871 1200.91 953.171 1209.48 L 953.101 1299.79 L 871.249 1299.87 L 867.687 1299.35 C 862.823 1300.07 846.732 1299.76 841.048 1299.75 L 841.165 1214.37 C 840.517 1206.48 841.113 1190.45 841.153 1181.99 C 840.911 1160.52 841.13 1138.72 841.165 1117.23 C 839.886 1100.59 841.998 1081.97 841.226 1064.79 C 840.542 1032.38 841.035 998.619 841.056 966.109 C 840.968 926.443 840.461 885.548 841.015 845.96 L 842.431 844.973 C 849.738 852.192 860.571 862.656 867.022 870.613 L 871.358 874.858 C 896.45 898.575 919.492 923.23 943.742 947.785 C 949.672 953.464 954.557 958.715 960.094 964.733 C 975.647 979.255 989.204 996.546 1004.21 1010.8 C 1015.38 1001.62 1037.35 976.891 1049.28 965.002 C 1054.54 959.859 1060.05 953.809 1065.17 948.435 C 1090.14 922.065 1116.31 896.79 1141.59 870.722 C 1149.18 862.893 1156.77 854.815 1164.85 847.5 L 1182.21 829.802 C 1190.64 819.941 1203.54 808.08 1212.99 798.573 L 1278.73 732.612 C 1318.16 692.77 1363.07 643.485 1404.1 605.816 C 1409.4 599.756 1416.15 593.418 1421.95 587.705 L 1512.4 496.919 C 1525.59 483.761 1543.7 464.59 1557.42 452.949 L 1586.97 452.748 z" fill="rgb(242,246,251)" transform="translate(0,0)"></path>
<path d="M 1054.6 1199.77 L 1157.04 1199.62 L 1157.15 1299.83 L 1054.36 1299.21 L 1054.6 1199.77 z" fill="rgb(242,246,251)" transform="translate(0,0)"></path>
<path d="M 1054.51 1013.93 C 1055.94 1023.46 1055.2 1052.32 1055.14 1063.96 L 1206.82 1064.11 C 1230.69 1064.11 1254.91 1064.02 1278.82 1064.1 C 1280.63 1064.11 1282.52 1064.65 1283.75 1066.01 C 1286.37 1068.9 1286.92 1069.82 1287.58 1073.48 C 1286.57 1076.06 1285.26 1078.39 1282.45 1079.03 C 1265.63 1082.9 1237.39 1081.02 1220.6 1081.03 L 1115.26 1081.03 C 1095.7 1081.02 1073.53 1080.55 1054.2 1081.31 C 1055.53 1061.55 1053.68 1035.12 1054.51 1013.93 z" fill="rgb(137,172,197)" transform="translate(0,0)"></path>
<path d="M 1065.17 948.435 C 1131.28 951.263 1199.97 947.332 1266.3 948.561 C 1273.46 948.694 1280.76 948.475 1286.52 953.407 C 1288.84 958.362 1284.64 964.692 1281.25 964.666 C 1204.68 964.091 1125.69 966.82 1049.28 965.002 C 1054.54 959.859 1060.05 953.809 1065.17 948.435 z" fill="rgb(137,172,197)" transform="translate(0,0)"></path>
<path d="M 1557.42 452.949 L 1586.97 452.748 C 1574.22 463.598 1560.69 476.914 1548.31 488.497 C 1524.61 510.677 1501.14 533.097 1477.89 555.755 C 1467.4 566.091 1456.01 578.432 1445.46 588.189 L 1496.85 588.122 C 1503.7 588.118 1518.99 587.782 1525.22 588.508 C 1497.51 589.261 1448.84 589.59 1421.95 587.705 L 1512.4 496.919 C 1525.59 483.761 1543.7 464.59 1557.42 452.949 z" fill="rgb(148,226,250)" transform="translate(0,0)"></path>
<path d="M 1404.1 605.816 C 1409.4 599.756 1416.15 593.418 1421.95 587.705 C 1448.84 589.59 1497.51 589.261 1525.22 588.508 C 1533.19 595.791 1528.65 604.442 1519.01 604.859 C 1481.11 606.499 1441.88 603.921 1404.1 605.816 z" fill="rgb(137,172,197)" transform="translate(0,0)"></path>
<path d="M 1182.21 829.802 C 1198.22 836.304 1276.35 822.799 1286.3 836.777 C 1287.25 840.345 1287.06 840.525 1285.7 844.133 C 1283.7 846.01 1282.56 847.19 1279.56 847.228 C 1241.4 847.711 1202.98 846.3 1164.85 847.5 L 1182.21 829.802 z" fill="rgb(137,172,197)" transform="translate(0,0)"></path>
<path d="M 1054.19 1123.19 C 1055.64 1129.83 1054.86 1172.86 1055.06 1182.48 C 1088.71 1182.49 1123.4 1182.08 1156.98 1182.58 L 1157.04 1199.62 L 1054.6 1199.77 C 1055.22 1175.16 1052.65 1148.26 1054.19 1123.19 z" fill="rgb(137,172,197)" transform="translate(0,0)"></path>
<path d="M 953.285 1182.8 C 953.446 1191.45 953.871 1200.91 953.171 1209.48 C 953.086 1207.43 953.022 1205.39 952.737 1203.36 C 952.522 1201.83 952.637 1200.12 950.91 1199.5 C 939.841 1195.53 889.063 1203.81 882.01 1197.8 C 880.451 1196.47 879.607 1194.31 879.572 1192.29 C 879.528 1189.69 880.409 1187.21 882.251 1185.35 C 883.47 1184.11 885.257 1183.02 886.98 1182.71 C 892.254 1181.74 899.343 1182.75 904.797 1182.76 L 953.285 1182.8 z" fill="rgb(137,172,197)" transform="translate(0,0)"></path>
<path d="M 943.742 947.785 C 949.672 953.464 954.557 958.715 960.094 964.733 C 949.744 964.798 886.794 966.417 881.388 963.762 C 877.846 959.018 878.402 954.326 882.02 950.01 C 890.144 946.694 931.297 948.541 943.742 947.785 z" fill="rgb(137,172,197)" transform="translate(0,0)"></path>
<path d="M 953.221 1081.03 C 941.92 1081 888.853 1082.7 882.282 1079.66 C 878.01 1075.24 878.884 1071.2 882.512 1066.54 C 888.371 1063.04 943.379 1064.2 953.118 1064.17 L 953.221 1081.03 z" fill="rgb(137,172,197)" transform="translate(0,0)"></path>
<path d="M 1467.37 1161.72 C 1468.23 1168.33 1467.73 1175.51 1467.49 1182.23 C 1477.05 1182.13 1521.78 1179.72 1526.71 1185.04 C 1528.12 1186.57 1529.02 1188.76 1528.89 1190.84 C 1528.73 1193.25 1527.72 1195.23 1525.75 1196.66 C 1517.19 1202.9 1479.27 1199.83 1467.84 1199.67 C 1467.88 1213.88 1468.73 1254.23 1467.14 1267.13 C 1466.73 1262.17 1466.72 1255.9 1466.87 1250.86 C 1467.78 1221.7 1465.38 1190.68 1467.37 1161.72 z" fill="rgb(137,172,197)" transform="translate(0,0)"></path>
<path d="M 1367.87 1200.88 C 1357.19 1197.08 1294.2 1208.98 1308.71 1185.05 C 1315.82 1180.42 1356.93 1182.46 1367.91 1182.5 L 1367.87 1200.88 z" fill="rgb(137,172,197)" transform="translate(0,0)"></path>
<path d="M 841.056 966.109 C 840.968 926.443 840.461 885.548 841.015 845.96 L 842.431 844.973 C 840.953 850.925 841.72 873.258 841.75 881.01 L 841.824 949.131 C 857.026 948.66 867.81 944.699 870.771 962.625 C 869.503 963.528 867.631 964.67 866.733 965.81 C 863.053 966.316 845.713 966.089 841.056 966.109 z" fill="rgb(137,172,197)" transform="translate(0,0)"></path>
<path d="M 1255.13 1182.73 C 1267.1 1183 1286.02 1178.11 1286.61 1193.04 C 1282.39 1203.41 1264.86 1198.94 1255.06 1200.02 L 1255.13 1182.73 z" fill="rgb(137,172,197)" transform="translate(0,0)"></path>
<path d="M 841.153 1181.99 C 847.698 1182.13 856.863 1181.68 862.432 1182.3 C 869.423 1183.07 873.094 1194.31 866.583 1198.16 C 861.288 1201.3 846.814 1200.14 841.611 1199.99 C 841.552 1203.8 841.622 1210.83 841.165 1214.37 C 840.517 1206.48 841.113 1190.45 841.153 1181.99 z" fill="rgb(137,172,197)" transform="translate(0,0)"></path>
<path d="M 841.226 1064.79 C 847.935 1065.04 854.84 1064.27 860.747 1064.16 C 869.746 1063.99 872.756 1075.07 865.893 1079.82 C 861.338 1082.98 846.897 1081.3 841.83 1081.27 C 841.76 1092.05 842.06 1106.8 841.165 1117.23 C 839.886 1100.59 841.998 1081.97 841.226 1064.79 z" fill="rgb(137,172,197)" transform="translate(0,0)"></path>
<path d="M 866.733 965.81 C 867.631 964.67 869.503 963.528 870.771 962.625 C 871.033 982.714 871.097 1002.81 870.963 1022.9 C 870.95 1029.13 871.317 1047.28 870.203 1052.55 L 869.077 1053.45 C 866.345 1050.7 866.895 1047.33 866.788 1043.77 C 866.025 1018.3 868.246 991.139 866.733 965.81 z" fill="rgb(26,58,92)" transform="translate(0,0)"></path>
<path d="M 867.687 1299.35 C 867.625 1287.81 866.026 1217.25 868.907 1212.1 C 869.734 1212.56 870.906 1213.13 870.94 1214.53 C 871.584 1240.55 871.277 1274.44 871.249 1299.87 L 867.687 1299.35 z" fill="rgb(26,58,92)" transform="translate(0,0)"></path>
<path d="M 867.022 870.613 L 871.358 874.858 C 870.768 884.083 873.305 930.112 869.246 934.775 L 867.744 934.55 C 865.755 927.731 867.011 880.825 867.022 870.613 z" fill="rgb(26,58,92)" transform="translate(0,0)"></path>
<path d="M 1310.93 1064.33 L 1449.11 1064.1 C 1472.52 1064.06 1495.96 1063.8 1519.35 1064.35 C 1530.19 1064.6 1531.14 1074.21 1524.62 1080.81 C 1509.04 1081.7 1313.89 1081.84 1310.59 1079.61 C 1308.52 1078.22 1307.2 1075.95 1307.04 1073.47 C 1306.75 1069.41 1308.37 1067.14 1310.93 1064.33 z" fill="rgb(137,172,197)" transform="translate(0,0)"></path>
<path d="M 1314.43 715.335 C 1328.9 714.469 1349.49 715.05 1364.21 715.115 L 1455.59 715.727 C 1469.59 715.819 1508.09 714.385 1524.03 716.565 C 1527.39 717.023 1534.48 729.15 1521.75 732.502 L 1370.92 731.912 C 1352.68 731.871 1330.51 732.69 1312.11 731.406 C 1309.49 731.223 1308.42 729.261 1307.23 727.466 C 1306.37 720.785 1308.41 717.694 1314.43 715.335 z" fill="rgb(137,172,197)" transform="translate(0,0)"></path>
<path d="M 1313.9 830.395 C 1348.55 830.748 1383.2 830.895 1417.86 830.836 C 1449.32 830.587 1480.87 830.161 1512.34 830.24 C 1518.3 830.255 1523.7 829.8 1527.66 833.892 C 1529.8 839.456 1528.31 843.646 1523.47 846.981 L 1378.78 846.995 C 1358.01 847.03 1336.48 847.348 1315.65 846.912 C 1311.28 846.821 1310 845.709 1307.6 842.458 C 1306.44 836.494 1308.39 832.81 1313.9 830.395 z" fill="rgb(137,172,197)" transform="translate(0,0)"></path>
<path d="M 1312.15 949.026 C 1322.89 948.339 1340.27 948.83 1351.41 948.84 L 1427.54 948.89 L 1488.68 948.691 C 1496.81 948.656 1521.14 947 1526.53 951.418 C 1529.66 956.39 1528.71 960.833 1524.28 964.647 L 1386.96 964.924 C 1376.09 964.95 1315.2 966.6 1309.12 962.622 C 1305.15 956.899 1307.4 953.446 1312.15 949.026 z" fill="rgb(137,172,197)" transform="translate(0,0)"></path>
<path d="M 866.54 1092.82 L 869.092 1093.79 C 872.11 1097.54 870.84 1153.08 870.822 1162.73 L 868.103 1161.63 C 865.837 1157.87 866.584 1101.32 866.54 1092.82 z" fill="rgb(26,58,92)" transform="translate(0,0)"></path>
<path d="M 428.043 452.985 L 1424.12 453.245 C 1410.15 469.687 1387.48 491.055 1371.74 506.793 L 1291.67 588.223 C 1286.24 594.019 1280.8 600.038 1274.97 605.408 L 1204.76 676.702 C 1194.29 687.365 1178.51 704.437 1167.66 713.934 L 1149.8 732.294 C 1128 754.24 1106.32 776.296 1084.75 798.461 C 1074.94 808.508 1061.19 821.771 1052.11 832.057 C 1047.3 837.122 1041.26 843.861 1036.16 848.401 C 1026.46 858.317 1014.61 871.017 1004.36 880.054 C 994.323 869.789 984.154 859.517 974.254 849.137 C 972.908 848.202 959.228 833.363 957.421 831.399 C 948.109 822.855 938.723 812.04 929.628 803.024 C 908.936 782.511 888.3 759.754 867.642 739.468 C 866.75 738.86 865.564 737.736 864.715 736.99 L 844.911 716.009 C 829.746 701.553 811.831 681.931 796.997 666.644 C 780.814 681.197 764.349 699.259 748.489 714.866 C 744.302 719.148 735.147 728.947 730.911 732.38 C 699.732 764.407 667.305 798.866 635.504 829.981 C 632.358 833.266 620.531 846.022 617.717 848.236 C 554.979 912.37 491.808 976.077 428.206 1039.35 C 426.978 971.754 428.072 901.097 428.083 833.226 L 428.043 452.985 z" fill="rgb(242,246,251)" transform="translate(0,0)"></path>
<path d="M 1274.97 605.408 C 1245.58 603.72 1199.53 605.121 1169.5 605.164 L 976.698 605.178 C 962.646 605.195 896.375 606.63 886.588 604.142 C 881.565 600.782 880.959 596.117 884.255 591.177 C 890.731 586.792 915.98 588.554 925.498 588.589 L 994.741 588.741 C 1038.82 588.39 1082.9 588.262 1126.98 588.355 C 1181.88 588.917 1236.78 588.873 1291.67 588.223 C 1286.24 594.019 1280.8 600.038 1274.97 605.408 z" fill="rgb(137,172,197)" transform="translate(0,0)"></path>
<path d="M 1149.8 732.294 C 1136.37 730.916 1096.57 731.931 1081.07 731.93 L 944.441 731.743 C 925.757 731.744 905.557 731.996 886.792 731.587 C 885.303 731.555 883.802 730.528 882.604 729.71 C 878.835 724.578 880.038 720.826 884.023 716.167 C 894.229 713.232 950.222 714.199 963.484 714.168 C 1031.54 714.603 1099.6 714.525 1167.66 713.934 L 1149.8 732.294 z" fill="rgb(137,172,197)" transform="translate(0,0)"></path>
<path d="M 730.911 732.38 C 719.878 731.153 691.058 731.927 678.521 731.945 L 571.624 732.138 C 560.604 732.15 549.088 732.341 538.06 731.859 C 531.75 731.583 528.33 725.094 531.546 719.355 C 540.091 711.936 587.621 715.07 600.801 714.984 L 748.489 714.866 C 744.302 719.148 735.147 728.947 730.911 732.38 z" fill="rgb(137,172,197)" transform="translate(0,0)"></path>
<path d="M 957.421 831.399 L 1052.11 832.057 C 1047.3 837.122 1041.26 843.861 1036.16 848.401 C 1026.46 858.317 1014.61 871.017 1004.36 880.054 C 994.323 869.789 984.154 859.517 974.254 849.137 C 972.908 848.202 959.228 833.363 957.421 831.399 z" fill="rgb(137,172,197)" transform="translate(0,0)"></path>
<path d="M 974.254 849.137 C 977.663 847.364 1028.14 848.338 1036.16 848.401 C 1026.46 858.317 1014.61 871.017 1004.36 880.054 C 994.323 869.789 984.154 859.517 974.254 849.137 z" fill="rgb(242,246,251)" transform="translate(0,0)"></path>
<path d="M 617.717 848.236 C 614.473 847.122 610.029 847.367 606.5 847.274 C 582.951 846.652 559.038 848.519 535.584 846.807 C 533.252 846.637 531.53 844.04 530.458 842.223 C 529.821 838.766 529.82 838.353 531.334 835.192 C 537.43 828.875 555.565 831.24 564.41 830.894 C 587.041 830.01 611.599 832.364 634.026 830.135 L 635.504 829.981 C 632.358 833.266 620.531 846.022 617.717 848.236 z" fill="rgb(137,172,197)" transform="translate(0,0)"></path>
<path d="M 844.911 716.009 C 850.858 715.985 863.644 715.554 868.944 716.688 C 864.339 725.371 868.285 732.054 864.715 736.99 L 844.911 716.009 z" fill="rgb(137,172,197)" transform="translate(0,0)"></path>
<path d="M 864.715 736.99 C 868.285 732.054 864.339 725.371 868.944 716.688 C 870.828 724.822 872.496 732.157 867.642 739.468 C 866.75 738.86 865.564 737.736 864.715 736.99 z" fill="rgb(26,58,92)" transform="translate(0,0)"></path>
<path d="M 533.697 589.071 C 542.083 588.106 561.224 588.646 570.265 588.67 L 637.481 588.784 C 707.849 588.791 778.283 588.715 848.652 588.814 C 851.779 589.119 858.212 588.412 860.829 590.081 C 866.374 593.618 865.117 600.059 862.644 604.923 C 785.211 605.43 707.775 605.511 630.34 605.166 C 614.656 605.182 541.89 606.851 533.639 604.258 C 529.159 599.282 530.059 594.496 533.697 589.071 z" fill="rgb(137,172,197)" transform="translate(0,0)"></path>
<path d="M 867.107 481.57 C 868.044 482.09 869.339 482.561 869.443 483.426 C 871.056 496.825 871.042 565.647 869.334 572.73 L 867.456 571.499 C 865.464 567.809 865.518 488.241 867.107 481.57 z" fill="rgb(26,58,92)" transform="translate(0,0)"></path>
<path d="M 866.536 601.292 C 867.798 602.008 868.265 602.499 869.388 603.422 C 871.058 610.207 870.583 678.998 869.5 687.784 L 867.27 686.924 C 865.249 683.628 865.692 609.868 866.536 601.292 z" fill="rgb(26,58,92)" transform="translate(0,0)"></path>
<path d="M 475.309 589.039 C 489.622 587.47 499.662 595.402 486.508 606.585 C 474.288 607.134 464.804 599.966 475.309 589.039 z" fill="rgb(137,172,197)" transform="translate(0,0)"></path>
<path d="M 476.543 715.047 C 489.237 714.309 499.97 720.883 487.257 731.893 C 485.772 731.997 484.286 732.074 482.799 732.125 C 471.235 732.486 465.748 722.961 476.543 715.047 z" fill="rgb(137,172,197)" transform="translate(0,0)"></path>
<path d="M 474.732 831.191 C 487.545 829.746 499.399 834.489 487.588 847.736 C 475.057 849.413 464.888 842.992 474.732 831.191 z" fill="rgb(137,172,197)" transform="translate(0,0)"></path>
<path d="M 475.742 949.084 C 489.598 948.1 498.249 955.915 485.778 966.488 C 472.148 967.955 465.096 959.549 475.742 949.084 z" fill="rgb(137,172,197)" transform="translate(0,0)"></path>
<path d="M 1719.81 178.411 C 1722.12 177.997 1728.3 178.131 1730.93 178.119 C 1740.2 185.081 1741.4 186.215 1746.97 196.633 C 1747.33 211.826 1741.57 256.085 1739.81 273.809 L 1733.21 339.945 C 1731.83 353.822 1729.86 390.728 1721.36 400.192 C 1693.53 430.692 1668.23 386.504 1648.68 369.671 C 1638.13 360.586 1633.19 359.683 1622.58 370.029 C 1560.8 430.289 1498.86 493.07 1437.71 553.706 C 1291.55 698.768 1146.93 845.372 1003.88 993.493 C 987.054 972.494 959.674 945.748 940.007 925.94 C 890.54 876.121 841.106 825.886 791.512 776.226 C 783.803 785.994 763.097 806.331 753.575 816.192 C 727.141 844.091 700.249 871.551 672.908 898.562 L 431.909 1140.3 L 427.276 1144.64 C 426.928 1115.74 427.099 1086.85 427.788 1057.96 C 435.29 1047.93 459.404 1025.16 469 1015.52 L 552.696 931.489 C 582.558 901.944 612.268 869.95 641.956 839.821 C 692.996 788.023 746.631 736.477 796.044 683.355 C 814.124 703.246 831.881 720.065 850.108 739.257 C 901.078 792.634 952.453 845.623 1004.23 898.22 C 1010.76 892.941 1026.55 876.05 1033.45 869.13 C 1055.71 847.15 1077.67 824.878 1099.33 802.319 L 1296.68 601.249 L 1487.82 409.453 L 1549.31 349.166 C 1558.97 339.65 1570.24 330.161 1578.54 319.451 C 1580.73 316.634 1582.22 314.311 1581.29 310.663 C 1577.14 294.272 1515.88 253.923 1513.61 231.654 C 1512.95 225.185 1515.8 219.346 1519.71 214.404 C 1523.71 209.364 1528.51 207.435 1534.59 205.794 C 1550.12 201.605 1574.6 199.686 1591.51 197.124 L 1667.52 186.283 C 1684.92 183.737 1702.39 180.532 1719.81 178.411 z" fill="rgb(26,58,92)" transform="translate(0,0)"></path>
<path d="M 1610.61 401.126 C 1617.63 401.001 1639.59 400.237 1645.5 401.624 L 1646.45 403.698 C 1647.91 531.49 1646.95 661.313 1646.98 789.239 L 1646.71 1350.73 L 377.224 1351.02 C 377.2 1318.92 376.292 1281.9 377.256 1250.19 L 377.843 1212 C 388.951 1199.95 402.759 1186.74 414.519 1175.01 C 414.57 1187.31 414.762 1199.61 415.097 1211.91 C 416.252 1243.6 415.366 1279.96 415.293 1311.93 L 1141.59 1312.03 L 1445.68 1311.96 C 1497.26 1311.92 1548.96 1311.75 1600.54 1311.73 C 1604.02 1311.73 1605.41 1311.55 1608.45 1309.99 C 1610.91 1306.77 1610.1 1197.36 1610.13 1186.03 L 1610.13 921.585 L 1609.57 585.505 C 1609.38 539.211 1610.1 492.808 1609.89 446.514 C 1609.88 443.426 1608.17 441.962 1606.1 439.714 C 1598.19 440.635 1578.93 440.238 1570.18 440.294 C 1583.47 427.141 1596.79 413.704 1610.61 401.126 z" fill="rgb(229,248,252)" transform="translate(0,0)"></path>
<path d="M 1610.61 401.126 C 1617.63 401.001 1639.59 400.237 1645.5 401.624 L 1646.45 403.698 C 1635.93 411.578 1614.47 429.595 1606.1 439.714 C 1598.19 440.635 1578.93 440.238 1570.18 440.294 C 1583.47 427.141 1596.79 413.704 1610.61 401.126 z" fill="rgb(148,226,250)" transform="translate(0,0)"></path>
<path d="M 377.843 1212 C 388.951 1199.95 402.759 1186.74 414.519 1175.01 C 414.57 1187.31 414.762 1199.61 415.097 1211.91 C 401.266 1224.73 390.095 1236.38 377.256 1250.19 L 377.843 1212 z" fill="rgb(148,226,250)" transform="translate(0,0)"></path>
<path d="M 740.175 848.463 L 740.149 892.612 L 740.158 918.917 C 742.297 949.735 740.368 988.804 741.049 1020.19 C 741.295 1031.51 741.358 1071.55 740.125 1080.84 L 740.145 1081.93 C 741.173 1090.8 740.677 1110.6 740.699 1120.13 L 740.849 1193.23 C 741.113 1217.59 741.206 1241.96 741.128 1266.32 C 741.125 1273.27 741.56 1293.15 740.767 1299.26 C 706.581 1299.47 672.394 1299.51 638.207 1299.38 L 638.148 1287.05 C 637.735 1281.19 637.701 1273.55 637.905 1267.66 C 639.112 1232.83 636.029 1195.23 638.679 1160.62 C 634.291 1155.88 631.057 1155.52 624.624 1155.61 C 597.852 1156.01 570.754 1154.6 544.068 1156.38 C 541.298 1156.56 539.162 1158.97 537.528 1160.95 C 538.312 1172.86 537.636 1187.69 537.378 1199.86 C 536.52 1232.05 537.253 1267.47 537.293 1299.93 L 427.929 1300.01 C 428.041 1266.13 426.98 1231.05 427.726 1197.4 L 427.873 1163.31 C 434.695 1154.83 448.561 1141.66 456.883 1133.26 L 512.285 1077.89 C 550.206 1040.54 586.698 1002.3 625.117 965.02 C 631.456 958.805 637.546 952.729 644.256 946.9 C 676.062 914.718 707.965 880.242 740.175 848.463 z" fill="rgb(242,246,251)" transform="translate(0,0)"></path>
<path d="M 740.175 848.463 L 740.149 892.612 L 740.158 918.917 C 742.297 949.735 740.368 988.804 741.049 1020.19 C 741.295 1031.51 741.358 1071.55 740.125 1080.84 C 739.325 1075.66 739.637 1070.24 739.731 1064.98 C 681.426 1065.13 620.017 1066.43 562.052 1065.71 C 560.024 1064.95 557.426 1065.37 555.174 1065.51 L 558.559 1065.84 C 559.398 1069.98 548.688 1078.18 545.67 1081.85 L 545.025 1082.09 C 503.695 1120.23 467.477 1158.76 427.726 1197.4 L 427.873 1163.31 C 434.695 1154.83 448.561 1141.66 456.883 1133.26 L 512.285 1077.89 C 550.206 1040.54 586.698 1002.3 625.117 965.02 C 631.456 958.805 637.546 952.729 644.256 946.9 C 676.062 914.718 707.965 880.242 740.175 848.463 z" fill="rgb(242,246,251)" transform="translate(0,0)"></path>
<path d="M 644.256 946.9 C 649.869 949.003 673.871 947.194 682.682 948.237 C 677.244 953.771 671.758 959.522 666.036 964.741 L 665.301 964.949 C 653.36 978.153 564.961 1057.42 562.052 1065.71 C 560.024 1064.95 557.426 1065.37 555.174 1065.51 L 558.559 1065.84 C 559.398 1069.98 548.688 1078.18 545.67 1081.85 L 545.025 1082.09 C 503.695 1120.23 467.477 1158.76 427.726 1197.4 L 427.873 1163.31 C 434.695 1154.83 448.561 1141.66 456.883 1133.26 L 512.285 1077.89 C 550.206 1040.54 586.698 1002.3 625.117 965.02 C 631.456 958.805 637.546 952.729 644.256 946.9 z" fill="rgb(148,226,250)" transform="translate(0,0)"></path>
<path d="M 644.256 946.9 C 649.869 949.003 673.871 947.194 682.682 948.237 C 677.244 953.771 671.758 959.522 666.036 964.741 L 665.301 964.949 C 653.985 964.244 636.849 964.919 625.117 965.02 C 631.456 958.805 637.546 952.729 644.256 946.9 z" fill="rgb(8,130,184)" transform="translate(0,0)"></path>
<path d="M 555.174 1065.51 L 558.559 1065.84 C 559.398 1069.98 548.688 1078.18 545.67 1081.85 L 545.025 1082.09 L 527.37 1082.08 L 527.606 1065.78 C 536.796 1065.76 545.985 1065.67 555.174 1065.51 z" fill="rgb(8,130,184)" transform="translate(0,0)"></path>
<path d="M 740.175 848.463 L 740.149 892.612 C 727.231 904.255 714.875 916.409 702.628 928.749 C 697.661 933.754 688.276 942.276 684.455 947.342 C 685.905 948.532 685.317 948.28 687.03 948.866 C 686.021 948.832 683.786 948.409 682.682 948.237 C 673.871 947.194 649.869 949.003 644.256 946.9 C 676.062 914.718 707.965 880.242 740.175 848.463 z" fill="rgb(148,226,250)" transform="translate(0,0)"></path>
<path d="M 687.03 948.866 C 685.317 948.28 685.905 948.532 684.455 947.342 C 688.276 942.276 697.661 933.754 702.628 928.749 C 714.875 916.409 727.231 904.255 740.149 892.612 L 740.158 918.917 C 739.668 928.944 739.816 938.684 739.897 948.715 C 723.552 948.74 703.029 948.191 687.03 948.866 z" fill="rgb(242,246,251)" transform="translate(0,0)"></path>
<path d="M 740.158 918.917 C 742.297 949.735 740.368 988.804 741.049 1020.19 C 741.295 1031.51 741.358 1071.55 740.125 1080.84 C 739.325 1075.66 739.637 1070.24 739.731 1064.98 C 741.364 1036.78 740.093 994.122 740.164 964.995 L 666.036 964.741 C 671.758 959.522 677.244 953.771 682.682 948.237 C 683.786 948.409 686.021 948.832 687.03 948.866 C 703.029 948.191 723.552 948.74 739.897 948.715 C 739.816 938.684 739.668 928.944 740.158 918.917 z" fill="rgb(137,172,197)" transform="translate(0,0)"></path>
<path d="M 740.145 1081.93 C 741.173 1090.8 740.677 1110.6 740.699 1120.13 L 740.849 1193.23 C 741.113 1217.59 741.206 1241.96 741.128 1266.32 C 741.125 1273.27 741.56 1293.15 740.767 1299.26 C 706.581 1299.47 672.394 1299.51 638.207 1299.38 L 638.148 1287.05 C 637.735 1281.19 637.701 1273.55 637.905 1267.66 C 639.112 1232.83 636.029 1195.23 638.679 1160.62 C 639.523 1165.96 639.064 1177.12 638.992 1182.97 L 739.89 1182.91 C 739.84 1153.08 738.507 1110.33 740.145 1081.93 z" fill="rgb(242,246,251)" transform="translate(0,0)"></path>
<path d="M 740.145 1081.93 C 741.173 1090.8 740.677 1110.6 740.699 1120.13 L 740.849 1193.23 C 741.113 1217.59 741.206 1241.96 741.128 1266.32 C 741.125 1273.27 741.56 1293.15 740.767 1299.26 C 739.949 1288.31 740.338 1272.98 740.344 1261.85 L 740.414 1199.74 C 706.515 1199.95 672.616 1199.88 638.719 1199.54 C 638.84 1222.56 640.186 1265.71 638.148 1287.05 C 637.735 1281.19 637.701 1273.55 637.905 1267.66 C 639.112 1232.83 636.029 1195.23 638.679 1160.62 C 639.523 1165.96 639.064 1177.12 638.992 1182.97 L 739.89 1182.91 C 739.84 1153.08 738.507 1110.33 740.145 1081.93 z" fill="rgb(137,172,197)" transform="translate(0,0)"></path>
<path d="M 562.052 1065.71 C 620.017 1066.43 681.426 1065.13 739.731 1064.98 C 739.637 1070.24 739.325 1075.66 740.125 1080.84 L 740.145 1081.93 L 545.67 1081.85 C 548.688 1078.18 559.398 1069.98 558.559 1065.84 L 555.174 1065.51 C 557.426 1065.37 560.024 1064.95 562.052 1065.71 z" fill="rgb(137,172,197)" transform="translate(0,0)"></path>
<path d="M 537.528 1160.95 C 538.312 1172.86 537.636 1187.69 537.378 1199.86 C 528.496 1199.98 518.186 1201.39 512.916 1192.41 C 513.151 1181.16 529.108 1182.74 536.868 1182.98 C 536.831 1176.08 536.499 1167.65 537.528 1160.95 z" fill="rgb(137,172,197)" transform="translate(0,0)"></path>
<path d="M 475.581 1183.02 C 489.059 1182.17 499.819 1188.14 486.658 1200.18 C 484.918 1200.39 483.141 1200.59 481.387 1200.61 C 477.948 1200.66 474.645 1199.26 472.285 1196.76 C 467.604 1191.71 471.396 1186.61 475.581 1183.02 z" fill="rgb(137,172,197)" transform="translate(0,0)"></path>
<path d="M 378.549 402.045 L 1476.16 401.977 C 1463.98 414.745 1450.69 427.725 1438.19 440.28 L 826.75 440.545 L 536.606 440.626 L 457.879 440.585 C 449.633 440.584 425.194 440.134 418.187 441.516 C 415.764 443.993 414.945 447.187 414.97 450.582 C 415.113 469.943 415.216 489.575 415.219 508.919 L 414.996 631.539 L 415.707 1051.77 C 405.32 1063.04 389.21 1077.92 377.893 1088.97 L 378.549 402.045 z" fill="rgb(229,248,252)" transform="translate(0,0)"></path>
<path d="M 792.002 795.767 C 798.331 799.95 822.453 824.71 828.869 831.148 L 829.083 1299.35 L 789.5 1299.39 C 777.364 1299.48 765.228 1299.48 753.092 1299.4 L 752.378 833.775 C 765.184 823.079 779.792 807.759 792.002 795.767 z" fill="rgb(40,120,232)" transform="translate(0,0)"></path>
<path d="M 966.081 1023.19 C 991.075 1022.76 1016.85 1023.27 1041.85 1023.56 L 1042.01 1201.95 C 1042.01 1233.76 1042.55 1267.67 1041.7 1299.34 L 965.116 1299.34 C 965.942 1220.21 964.379 1140.85 965.241 1061.69 C 965.379 1049.03 964.971 1035.75 966.081 1023.19 z" fill="rgb(40,120,232)" transform="translate(0,0)"></path>
<path d="M 550.33 1168.88 L 625.094 1168.85 L 625.283 1299.43 L 549.896 1299.41 L 550.33 1168.88 z" fill="rgb(40,120,232)" transform="translate(0,0)"></path>
<path d="M 1379.99 1169.82 L 1454.88 1169.87 L 1454.45 1299.02 C 1432.58 1300.23 1402.44 1299.28 1379.96 1299.25 L 1379.99 1169.82 z" fill="rgb(40,120,232)" transform="translate(0,0)"></path>
<path d="M 1169.83 1170.22 L 1241.98 1170.45 L 1242.25 1299.12 L 1169.56 1299.05 L 1169.83 1170.22 z" fill="rgb(40,120,232)" transform="translate(0,0)"></path>
<path d="M 364.722 1118.96 C 366.36 1121.16 366.159 1196.2 366.213 1205.39 L 305.393 1267.1 C 299.365 1259.44 291.645 1252.23 284.678 1245.33 L 261.025 1223.64 C 294.716 1187.89 329.292 1152.99 364.722 1118.96 z" fill="rgb(26,58,92)" transform="translate(0,0)"></path>
<path d="M 413.646 1070.76 C 416.2 1074.48 415.025 1146.04 414.995 1156.34 C 406.297 1167.06 389.291 1182.75 378.989 1192.8 C 377.026 1190.08 377.975 1116.25 377.998 1106.65 L 413.646 1070.76 z" fill="rgb(26,58,92)" transform="translate(0,0)"></path>
<path d="M 1635.73 375.739 C 1638.54 378.536 1643.97 383.237 1644.96 386.624 L 1643.77 387.968 L 1638.25 388.121 L 1624.32 388.139 C 1628.09 384.419 1632.13 379.729 1635.73 375.739 z" fill="rgb(242,246,251)" transform="translate(0,0)"></path>
<path d="M 181.913 342.039 C 201.842 339.446 196.387 362.107 196.147 376.104 C 203.324 376.066 225.495 374.514 228.798 378.251 C 245.922 397.619 200.024 393.426 195.672 393.547 C 195.651 403.854 197.919 417.958 192.114 425.8 C 172.778 431.856 177.788 406.127 177.948 393.828 C 171.505 393.672 149.277 395.437 146.151 391.512 C 130.138 371.407 171.734 375.992 177.845 376.123 C 177.614 364.926 175.723 350.968 181.913 342.039 z" fill="rgb(15,34,55)" transform="translate(0,0)"></path>
<metadata><recraft-signature>{"signed_by": "recraft", "signature_b64": "fSjZKnZjwAK/16qVn/YD+GFdLdtMAC3X/GnqLDvHqa7Wc1nUQ1Pvtz31eGGQvQszRZrju/5aJKdRZqV2pl3xBQ==", "signing_algo": "Ed25519", "generation_timestamp": 1776431403, "identifier": "3dde139f-01a0-4e3b-812b-21a6df9285b4"}</recraft-signature></metadata></svg>