<svg xmlns="http://www.w3.org/2000/svg" height="1024" preserveAspectRatio="none" style="display: block;" version="1.1" viewBox="0 0 2048 1536" width="1365">
<path d="M 0 0 L 2048 0 L 2048 1536 L 0 1536 L 0 0 z" fill="rgb(242,252,253)" transform="translate(0,0)"></path>
<path d="M 1142.99 1085.01 L 1142.74 1016.9 C 1142.73 1011.61 1142.6 1006.24 1142.71 1000.96 C 1142.98 987.819 1139.77 964.792 1159.11 964.348 C 1180.04 963.867 1200.9 964.02 1221.78 963.997 L 1345.24 963.957 L 1483.8 963.928 C 1508.8 963.922 1533.84 963.658 1558.82 964.289 C 1568.54 964.535 1577.6 971.064 1577.78 981.257 C 1578.28 1010.34 1577.95 1039.44 1577.97 1068.53 L 1577.96 1244.96 L 1578 1374.64 C 1578.02 1394.8 1578.27 1415.04 1578.03 1435.19 C 1577.97 1439.43 1575.3 1443.11 1572.83 1446.34 C 1580.78 1447.31 1599.06 1446.86 1607.74 1446.88 L 1675.87 1446.88 L 1900.98 1446.3 L 1955.77 1446.43 C 1962.97 1446.43 1970.2 1445.97 1977.4 1446.21 C 1986.91 1446.54 1999.2 1459.19 1987 1465.8 C 1980.52 1469.31 1971.72 1468.09 1964.56 1468.03 C 1952.99 1467.94 1941.41 1467.98 1929.83 1468.01 L 1811.2 1468.23 L 1444.24 1468.16 L 424.05 1468.45 L 175.229 1468.09 L 98.7609 1468.28 C 87.9484 1468.33 65.8106 1471.28 57.9605 1464.09 C 48.2672 1455.2 55.4124 1446.94 67.251 1446.48 C 82.3943 1445.89 97.5253 1446.08 112.757 1446.1 L 196.218 1446.16 L 484.126 1446.17 C 485.593 1425 494.995 1413.38 516.94 1412.72 L 517.005 1296.29 C 517.006 1282.91 517.798 1249.38 516.179 1237.41 C 492.209 1232.58 490.749 1222.37 498.674 1200.92 C 495.147 1186.85 484.836 1129.86 488.405 1116.88 C 498.406 1082.61 511.989 1048.29 525.987 1015.42 C 536.375 991.029 586.66 992.165 607.287 996.046 C 635.975 1001.44 653.312 1036.71 668.152 1058.32 C 674.495 1067.55 682.688 1077.78 688.553 1087.58 C 705.763 1091.32 727.234 1091.24 745.085 1094.61 C 765.087 1098.39 764.431 1058.44 786.636 1088.34 C 807.226 1085.5 827.85 1082.91 848.504 1080.57 C 869.855 1049.22 890.658 1021.72 917.987 994.949 C 930.052 983.129 935.048 982.751 950.66 983.018 L 958.102 981.083 C 966.241 981.093 971.952 980.964 980.145 980.272 L 979.938 982.123 C 1007.74 981.573 1007.06 983.425 1027.79 1002.68 C 1054.22 1027.22 1070.85 1049.96 1091.42 1079.31 C 1107.67 1081.02 1127.09 1082.62 1142.99 1085.01 z" fill="rgb(15,34,55)" transform="translate(0,0)"></path>
<path d="M 898.891 1089.32 C 898.775 1122.09 898.668 1155.33 900.183 1188.12 C 900.633 1197.86 905.612 1207.01 905.774 1218.54 C 906.249 1252.46 905.903 1286.53 905.491 1320.45 L 905.243 1410.16 C 882.78 1415.23 873.321 1423.48 869.297 1446.53 C 825.18 1445.12 779.175 1446.68 734.906 1446.13 C 716.145 1445.89 695.394 1446.93 676.837 1445.91 C 675.462 1424.29 660.506 1415.33 640.707 1413.15 C 640.929 1348.03 640.973 1282.87 641.11 1217.75 C 641.141 1202.76 645.869 1201.49 646.581 1191.2 C 648.359 1165.51 645.291 1140.03 644.333 1115.06 C 651.598 1123.87 655.323 1129.15 667.423 1129.88 C 687.052 1131.08 707.014 1130.28 726.424 1134.15 C 737.147 1136.29 753.335 1150.13 764.497 1149.56 C 778.235 1148.85 799.522 1138.4 813.608 1135.37 C 830.536 1131.72 856.383 1131.71 872.135 1127.35 C 879.762 1119.93 890.284 1100.07 898.891 1089.32 z" fill="rgb(221,242,250)" transform="translate(0,0)"></path>
<path d="M 1153.19 1313.99 L 1568.08 1313.98 C 1567.84 1339.74 1567.76 1365.51 1567.84 1391.27 C 1567.9 1405.19 1568.31 1419.24 1567.51 1433.12 C 1567.17 1439.2 1563.17 1442.12 1558.09 1444.64 C 1540.76 1445.23 1522.28 1445.02 1504.92 1444.83 C 1390.75 1443.58 1276.02 1446.38 1161.91 1444.7 C 1157.77 1441.61 1153.62 1439.09 1153.3 1433.63 C 1152.56 1420.67 1152.89 1406.8 1152.92 1393.8 L 1153.19 1313.99 z" fill="rgb(40,120,232)" transform="translate(0,0)"></path>
<path d="M 484.126 1446.17 C 484.814 1449.86 484.853 1451.75 487.008 1454.84 C 490.316 1455.97 555.102 1455.01 562.816 1454.77 C 565.16 1452.82 566.459 1444.37 567.153 1441.03 L 568.096 1444.73 C 573.553 1447.48 581.644 1446.47 587.499 1445.79 C 589.265 1444.39 588.748 1445.3 589.449 1443.31 C 590.959 1447.57 588.755 1450.25 591.422 1453.99 C 596.293 1455.58 669.57 1455.12 674.135 1453.24 C 675.647 1450.12 675.907 1449.27 676.837 1445.91 C 695.394 1446.93 716.145 1445.89 734.906 1446.13 C 779.175 1446.68 825.18 1445.12 869.297 1446.53 C 870.039 1450.11 869.342 1449.35 871.569 1451.53 C 882.194 1451.25 946.684 1451.68 951.055 1448.37 C 950.824 1446.56 950.719 1445.96 951.356 1444.24 C 955.613 1448.48 969.942 1444.9 978.032 1447.15 L 978.917 1449.26 C 985.072 1451.66 1055.95 1450.68 1063.96 1448.72 L 1065.83 1447.05 C 1071.82 1444.82 1135.5 1446.89 1148.62 1445.92 C 1154.35 1446.75 1156.73 1447.18 1161.91 1444.7 C 1276.02 1446.38 1390.75 1443.58 1504.92 1444.83 C 1522.28 1445.02 1540.76 1445.23 1558.09 1444.64 C 1563.13 1446.65 1567.56 1445.75 1572.83 1446.34 C 1580.78 1447.31 1599.06 1446.86 1607.74 1446.88 L 1675.87 1446.88 L 1900.98 1446.3 L 1955.77 1446.43 C 1962.97 1446.43 1970.2 1445.97 1977.4 1446.21 C 1986.91 1446.54 1999.2 1459.19 1987 1465.8 C 1980.52 1469.31 1971.72 1468.09 1964.56 1468.03 C 1952.99 1467.94 1941.41 1467.98 1929.83 1468.01 L 1811.2 1468.23 L 1444.24 1468.16 L 424.05 1468.45 L 175.229 1468.09 L 98.7609 1468.28 C 87.9484 1468.33 65.8106 1471.28 57.9605 1464.09 C 48.2672 1455.2 55.4124 1446.94 67.251 1446.48 C 82.3943 1445.89 97.5253 1446.08 112.757 1446.1 L 196.218 1446.16 L 484.126 1446.17 z" fill="rgb(26,58,92)" transform="translate(0,0)"></path>
<path d="M 1036.87 1088.85 C 1044.46 1098.07 1050.62 1108.2 1057.79 1117.7 C 1060.11 1120.78 1062.97 1124.63 1066.51 1126.38 C 1073.53 1129.86 1129.87 1135.1 1142.63 1136.86 L 1142.97 1340.76 L 1142.88 1401.89 C 1142.86 1417.05 1140.11 1433.27 1148.62 1445.92 C 1135.5 1446.89 1071.82 1444.82 1065.83 1447.05 C 1057.05 1426.92 1046.22 1417.27 1025.08 1411.48 L 1026.83 1212.14 C 1036.99 1200.51 1035.01 1178.38 1035.45 1163.35 L 1036.87 1088.85 z" fill="rgb(221,242,250)" transform="translate(0,0)"></path>
<path d="M 966.5 1256.18 C 968.338 1265.01 968.569 1278.42 969.078 1287.91 C 969.933 1304.36 970.872 1320.8 971.896 1337.24 L 976.41 1408.11 C 976.973 1416.98 978.787 1438.88 978.032 1447.15 C 969.942 1444.9 955.613 1448.48 951.356 1444.24 C 955.919 1401.83 957.958 1358.24 961.647 1315.72 C 963.315 1296.49 964.095 1275.24 966.5 1256.18 z" fill="rgb(242,246,251)" transform="translate(0,0)"></path>
<path d="M 578.001 1299.75 C 582.628 1344.57 583.446 1400.35 589.449 1443.31 C 588.748 1445.3 589.265 1444.39 587.499 1445.79 C 581.644 1446.47 573.553 1447.48 568.096 1444.73 L 567.153 1441.03 C 572.321 1396.69 571.802 1344.73 578.001 1299.75 z" fill="rgb(242,246,251)" transform="translate(0,0)"></path>
<path d="M 958.102 981.083 C 966.241 981.093 971.952 980.964 980.145 980.272 L 979.938 982.123 C 973.155 983.55 958.265 983.009 950.66 983.018 L 958.102 981.083 z" fill="rgb(116,148,168)" transform="translate(0,0)"></path>
<path d="M 1181.13 1000.8 C 1300.2 998.544 1421.46 1000.39 1540.74 1000.06 L 1541.05 1278.1 L 1181.56 1278.15 C 1180.57 1234.07 1180.93 1185.14 1181.28 1140.9 C 1195.12 1142.48 1205.54 1143.67 1210.5 1127.86 C 1210.28 1118.89 1208.46 1114.96 1204.91 1106.67 C 1196.25 1097.39 1193.6 1095.55 1181.51 1091.63 C 1181.33 1062.19 1180.46 1030.01 1181.13 1000.8 z" fill="rgb(242,246,251)" transform="translate(0,0)"></path>
<path d="M 1204.91 1106.67 C 1207.05 1102.35 1209.1 1097.42 1212.93 1094.47 C 1244.17 1070.42 1268.48 1122.17 1231.05 1131.97 C 1225.99 1133.29 1215.87 1127.48 1211.49 1125.01 C 1210.67 1126.64 1210.73 1126.13 1210.5 1127.86 C 1210.28 1118.89 1208.46 1114.96 1204.91 1106.67 z" fill="rgb(0,190,242)" transform="translate(0,0)"></path>
<path d="M 1330.28 1169.01 L 1400.95 1168.94 C 1401.02 1176.37 1401.51 1191.12 1400.65 1197.87 L 1330.39 1197.87 C 1330.72 1188.77 1330.39 1178.22 1330.28 1169.01 z" fill="rgb(213,239,249)" transform="translate(0,0)"></path>
<path d="M 1528.71 1162.47 C 1532.31 1162.34 1531.44 1161.81 1533.51 1163.63 C 1534.79 1168.04 1533.76 1173.49 1533.26 1178.24 L 1418.75 1178.83 C 1416.54 1178.83 1416.62 1178.75 1414.42 1178.32 C 1412.04 1174.55 1413.12 1168.65 1413.35 1163.76 C 1451.77 1162.88 1490.44 1163.62 1528.71 1162.47 z" fill="rgb(213,239,249)" transform="translate(0,0)"></path>
<path d="M 1331.64 1023.61 C 1354.12 1024.21 1378.43 1023.69 1401.04 1023.61 C 1401.08 1032.47 1401 1041.33 1400.81 1050.19 C 1377.7 1050.08 1354.59 1050.14 1331.49 1050.39 L 1331.64 1023.61 z" fill="rgb(213,239,249)" transform="translate(0,0)"></path>
<path d="M 1413.76 1250.14 C 1452.25 1250.41 1490.75 1250.34 1529.24 1249.95 L 1529.07 1265.99 L 1413.79 1266.24 L 1413.76 1250.14 z" fill="rgb(213,239,249)" transform="translate(0,0)"></path>
<path d="M 1407.21 1101.51 C 1407.83 1101.47 1408.46 1101.44 1409.09 1101.41 C 1413.25 1101.29 1413.07 1101.04 1415.38 1103.27 C 1417.07 1107.62 1416.09 1116.69 1416.04 1122.07 C 1391.54 1122.11 1363.99 1121.59 1339.74 1122.78 C 1335.33 1122.81 1335.85 1123.51 1332.86 1121.48 C 1330.72 1116.22 1331.83 1107.85 1331.99 1101.7 C 1357.07 1101.91 1382.14 1101.84 1407.21 1101.51 z" fill="rgb(213,239,249)" transform="translate(0,0)"></path>
<path d="M 1224.32 1017.92 C 1236.34 1016.31 1247.4 1024.7 1249.1 1036.7 C 1250.8 1048.7 1242.5 1059.82 1230.52 1061.62 C 1218.4 1063.43 1207.12 1055.02 1205.4 1042.89 C 1203.69 1030.76 1212.18 1019.55 1224.32 1017.92 z" fill="rgb(0,190,242)" transform="translate(0,0)"></path>
<path d="M 1525.08 1021.48 C 1526.94 1021.18 1526.35 1021.29 1528.31 1021.72 C 1530 1025.55 1529.26 1030.82 1529.09 1035.23 C 1491.31 1034.96 1453.53 1034.9 1415.75 1035.04 L 1413.4 1034.53 C 1411.73 1030.85 1412.34 1026.24 1412.46 1022.02 C 1447.69 1022.22 1490.35 1023.03 1525.08 1021.48 z" fill="rgb(213,239,249)" transform="translate(0,0)"></path>
<path d="M 1221.65 1160.67 C 1233.23 1157.18 1245.44 1163.74 1248.92 1175.32 C 1252.4 1186.9 1245.84 1199.1 1234.26 1202.59 C 1222.69 1206.07 1210.49 1199.51 1207 1187.93 C 1203.52 1176.36 1210.08 1164.15 1221.65 1160.67 z" fill="rgb(0,190,242)" transform="translate(0,0)"></path>
<path d="M 1224.23 1230.07 C 1236.02 1228 1247.25 1235.91 1249.27 1247.71 C 1251.3 1259.51 1243.35 1270.71 1231.55 1272.7 C 1219.8 1274.67 1208.66 1266.77 1206.65 1255.03 C 1204.63 1243.29 1212.49 1232.13 1224.23 1230.07 z" fill="rgb(0,190,242)" transform="translate(0,0)"></path>
<path d="M 1285.07 1019.17 C 1292.37 1017.47 1300.01 1019.85 1305.05 1025.39 C 1310.09 1030.93 1311.74 1038.76 1309.36 1045.87 C 1306.99 1052.97 1300.95 1058.23 1293.59 1059.62 C 1282.54 1061.7 1271.85 1054.57 1269.53 1043.56 C 1267.21 1032.56 1274.12 1021.72 1285.07 1019.17 z" fill="rgb(40,120,232)" transform="translate(0,0)"></path>
<path d="M 1283.61 1161.64 C 1294.52 1158.47 1305.94 1164.71 1309.17 1175.6 C 1312.4 1186.5 1306.23 1197.95 1295.36 1201.24 C 1284.39 1204.56 1272.83 1198.33 1269.57 1187.35 C 1266.31 1176.37 1272.61 1164.84 1283.61 1161.64 z" fill="rgb(40,120,232)" transform="translate(0,0)"></path>
<path d="M 1287.11 1233.41 C 1293 1232.82 1298.85 1234.8 1303.17 1238.84 C 1307.49 1242.88 1309.86 1248.58 1309.68 1254.49 C 1309.37 1264.29 1302.19 1272.51 1292.53 1274.12 C 1285.12 1275.36 1277.64 1272.46 1272.99 1266.57 C 1268.35 1260.67 1267.29 1252.71 1270.23 1245.8 C 1273.17 1238.9 1279.64 1234.15 1287.11 1233.41 z" fill="rgb(40,120,232)" transform="translate(0,0)"></path>
<path d="M 1283.87 1091.44 C 1294.62 1088.5 1305.73 1094.78 1308.74 1105.51 C 1311.75 1116.24 1305.55 1127.39 1294.84 1130.47 C 1284.03 1133.59 1272.75 1127.31 1269.7 1116.48 C 1266.66 1105.64 1273.02 1094.41 1283.87 1091.44 z" fill="rgb(40,120,232)" transform="translate(0,0)"></path>
<path d="M 1331.39 1251.04 L 1401.09 1250.53 C 1401.09 1255.79 1401.01 1261.04 1400.86 1266.3 C 1380.89 1267.6 1351.59 1266.81 1330.92 1266.89 C 1330.93 1261.65 1331.19 1256.29 1331.39 1251.04 z" fill="rgb(213,239,249)" transform="translate(0,0)"></path>
<path d="M 940.286 992.188 C 956.133 991.306 980.431 989.823 995.669 992.782 C 1020.98 997.696 1070.39 1066.56 1085.74 1088.86 C 1104.44 1091.04 1123.17 1092.97 1141.92 1094.63 C 1141.62 1105.23 1141.51 1115.84 1141.58 1126.44 C 1116.42 1123.39 1095.56 1119.58 1069.68 1117.88 C 1057.07 1096.69 1042.56 1077.12 1028.22 1057.08 C 1027.65 1101.3 1025.63 1146.03 1024.95 1190.3 C 1024.7 1206.55 1011.55 1203.35 999.037 1203.07 C 988.767 1202.89 919.885 1204.49 915.6 1199.79 C 912.471 1196.36 911.187 1190.99 910.512 1186.49 C 908.342 1172 909.033 1155.86 908.89 1141.21 C 908.647 1112.98 908.662 1084.75 908.935 1056.52 C 894.394 1076.49 880.897 1099.69 865.826 1119.17 C 846.787 1121 824.952 1123.18 806.13 1126.14 C 803.299 1112.14 802.669 1109.64 795.346 1097.13 C 814.816 1094.56 835.472 1092.48 855.051 1090.51 C 870.478 1069.9 917.017 998.789 940.286 992.188 z" fill="rgb(0,190,242)" transform="translate(0,0)"></path>
<path d="M 578.733 1003.45 C 616.648 1002.68 627.937 1016.17 647.95 1046.98 C 657.016 1060.94 673.435 1088.37 685.313 1098.53 C 701.541 1100.91 723.613 1102.57 740.34 1104.37 C 739.56 1113.66 740.345 1117.55 742.679 1126.59 C 731.125 1125.5 713.335 1121.29 702.682 1121.05 C 657.204 1120.01 656.625 1121.16 632.617 1083 C 632.83 1092.03 633.652 1102.15 634.213 1111.24 C 635.459 1124.26 638.814 1191.47 632.471 1197.72 C 620.969 1201.12 532.353 1200.07 523.704 1195.81 C 519.814 1188.39 521.561 1177.85 520.471 1170.21 C 513.546 1121.71 516.726 1083.13 529.646 1035.72 C 537.532 1006.78 551.658 1005 578.733 1003.45 z" fill="rgb(26,58,92)" transform="translate(0,0)"></path>
<path d="M 1156.07 974.167 C 1175.6 973.446 1199.28 974.073 1219.25 974.083 L 1338.13 974.054 C 1365.14 974.036 1551.35 971.316 1566.56 976.811 C 1570.03 985.703 1568.37 1109.13 1568.32 1126.88 L 1568.3 1303.79 L 1152.83 1303.86 C 1152.22 1248.55 1152.18 1193.23 1152.73 1137.93 C 1157.96 1138.34 1165.91 1138.52 1170.47 1140.5 C 1173.1 1144.38 1172.14 1175.84 1172.11 1182.5 C 1172.07 1199.13 1170.71 1273.26 1174.01 1284.29 C 1179.74 1290.53 1225.41 1287.9 1237.24 1287.86 L 1334.93 1287.88 L 1470.82 1287.82 C 1494.12 1287.82 1517.65 1288.03 1540.95 1287.72 C 1544.59 1287.67 1547.26 1287.38 1549.9 1285.08 C 1550.8 1276.87 1550.26 1259.11 1550.24 1250.23 L 1550.22 1187.84 L 1550.1 991.329 C 1536.74 990.386 1517.35 990.993 1503.49 990.985 L 1416.81 990.934 L 1264.03 990.796 C 1249.65 990.782 1184.44 989.535 1174.4 992.749 C 1169.82 1001.16 1171.82 1073.61 1171.87 1087.95 C 1166.87 1086.96 1158.1 1086.39 1152.77 1085.88 L 1152.63 1014.12 C 1152.64 1005.32 1150.91 979.721 1156.07 974.167 z" fill="rgb(242,246,251)" transform="translate(0,0)"></path>
<path d="M 527.962 1210 L 630.112 1210.08 C 630.529 1232.22 627.358 1410.24 631.601 1422.47 C 651.847 1426.16 658.862 1422.88 667.453 1445.97 L 600.069 1446.02 L 586.179 1274.24 C 585.355 1264.44 586.015 1228.96 576.904 1226.79 C 573.579 1228.61 572.031 1232.86 571.665 1236.48 C 569.505 1257.83 567.981 1279.29 566.3 1300.69 C 562.514 1349.02 559.033 1397.37 555.858 1445.75 C 546.858 1445.72 499.381 1446.88 495.471 1443.42 C 495.279 1442.81 494.879 1441.6 495.001 1440.92 C 498.475 1421.65 512.888 1423.82 527.708 1424.58 C 528.898 1407.3 527.965 1375.89 527.968 1357.26 L 527.962 1210 z" fill="rgb(40,120,232)" transform="translate(0,0)"></path>
<path d="M 918.24 1213.48 L 958.171 1213.91 C 957.575 1230.64 945.372 1418.84 941.91 1423.19 C 934.627 1423.31 906.319 1424.34 901.409 1421.59 L 903.585 1420.44 L 903.182 1422.12 L 902.818 1422.02 C 906.501 1418.39 909.936 1419.1 915.696 1418.5 C 916.324 1398.02 915.874 1375.86 916.063 1355.2 L 918.24 1213.48 z" fill="rgb(26,58,92)" transform="translate(0,0)"></path>
<path d="M 975.607 1214.05 C 989.023 1213.35 1002.7 1213.7 1016.15 1213.87 L 1015.35 1340.05 C 1015.16 1362.86 1014.11 1396.8 1015.93 1418.96 C 1020.84 1419.86 1026.24 1420.56 1030.75 1422.6 C 1024.64 1423.84 995.477 1423.57 987.726 1423.59 C 987.132 1417.72 986.371 1411.45 986.089 1405.58 C 983.018 1341.71 977.973 1277.95 975.607 1214.05 z" fill="rgb(26,58,92)" transform="translate(0,0)"></path>
<path d="M 1153 1096.51 C 1155.56 1096.75 1158.11 1097.04 1160.66 1097.38 C 1177.91 1099.69 1204.16 1105.98 1199.47 1129.46 C 1188.29 1132.63 1165.35 1128.96 1153.06 1127.73 L 1153 1096.51 z" fill="rgb(243,188,147)" transform="translate(0,0)"></path>
<path d="M 507.469 1088.74 C 507.697 1090.35 507.373 1106.3 507.027 1108.14 C 504.224 1123.04 513.315 1185.68 509.583 1196.08 L 507.871 1196.36 L 506.658 1193.84 C 506.379 1188.17 503.923 1176.05 502.744 1170.28 C 495.544 1135 493.796 1122.33 507.469 1088.74 z" fill="rgb(26,58,92)" transform="translate(0,0)"></path>
<path d="M 750.462 1107.27 C 763.642 1109.84 788.345 1122.02 774.281 1138.07 C 768.442 1140.18 762.502 1141.89 758.084 1136.75 C 756.872 1132.64 758.338 1129.93 759.738 1125.74 C 749.646 1119.34 749.429 1119.17 750.462 1107.27 z" fill="rgb(243,188,147)" transform="translate(0,0)"></path>
<path d="M 772.948 1087.89 C 780.891 1094.97 802.803 1120.77 794.541 1131.99 C 791.422 1133.75 790.908 1133.7 787.303 1133.57 C 787.02 1111.06 779.524 1108.21 760.613 1100.71 C 764.931 1096.47 768.827 1092.32 772.948 1087.89 z" fill="rgb(243,188,147)" transform="translate(0,0)"></path>
<path d="M 509.127 1206.71 L 513.613 1206.97 C 518.816 1211.5 516.532 1222.52 512.331 1227.36 C 500.49 1225.81 504.183 1213.62 509.127 1206.71 z" fill="rgb(243,188,147)" transform="translate(0,0)"></path>
<path d="M 1252.97 111.513 C 1255.7 102.045 1259.11 94.8434 1268.27 89.7372 C 1275.27 85.8377 1283.56 85.0118 1291.18 87.4563 C 1298.46 89.7837 1304.48 94.9787 1307.84 101.841 C 1308.96 104.161 1310.24 109.168 1310.93 111.793 C 1421.7 111.215 1532.48 111.277 1643.26 111.981 L 1642.82 121.927 L 1311 121.869 C 1304.91 135.742 1300.92 140.633 1286.01 145.121 C 1285.94 173.342 1286.66 203.64 1286.06 231.574 C 1301.02 236.528 1304.43 241.445 1310.43 255.545 C 1352.87 254.394 1398.68 255.42 1441.5 255.37 C 1445.23 245.577 1448.95 238.448 1459.16 233.886 C 1466.19 230.695 1474.21 230.468 1481.41 233.257 C 1489.63 236.412 1495.78 242.963 1499.24 250.962 C 1499.87 252.433 1500.44 253.927 1500.96 255.44 C 1544.78 255.384 1597.6 256.616 1640.57 254.797 L 1641.21 265.026 C 1596.31 265.021 1544.92 263.886 1500.55 265.69 C 1496.05 280.054 1490.86 283.923 1476.91 288.431 C 1476.77 325.95 1476.61 363.469 1476.57 400.989 C 1476.56 406.024 1477.44 415.991 1474.88 419.683 C 1471.78 420.333 1471.95 420.296 1468.92 419.286 C 1464.95 414.484 1467.11 402.277 1467.11 395.291 L 1467.01 336.116 C 1456.18 339.07 1444.54 342.955 1434.3 347.196 C 1401.43 360.798 1329.32 402.712 1311.72 433.447 L 1311.02 434.685 L 1309.74 434.81 C 1309.4 433.15 1309.1 431.633 1308.69 429.985 C 1307.65 437.894 1307.39 441.686 1303.56 448.865 L 1355.28 448.719 C 1369.7 448.675 1400.08 444.318 1399.24 465.201 C 1397.77 501.832 1401.32 541.064 1399.09 577.405 C 1399.04 578.212 1398.97 579.018 1398.89 579.823 C 1395.66 584.882 1392.75 589.164 1386.21 589.869 C 1365.39 592.112 1340.32 590.4 1319.25 590.658 C 1319.26 602.401 1319.09 614.697 1319.36 626.391 L 1406.41 625.975 L 1406.27 659.318 L 1286.04 659.225 L 1285.93 771.252 C 1298.39 774.723 1305.14 781.338 1308.71 793.995 C 1308.83 796.9 1308.73 801.874 1309.62 804.372 C 1301.09 813.124 1300.82 823.103 1283.78 824.071 C 1271.46 824.77 1257.83 817.432 1254.64 805.033 C 1207.29 802.742 1144.89 804.482 1096.51 804.67 C 1069.3 805.738 1033.67 804.748 1006.06 804.745 L 813.011 804.785 C 809.623 812.253 806.533 817.223 798.961 821.198 C 792.655 824.493 785.276 825.068 778.536 822.792 C 768.801 819.541 764.392 813.345 759.971 804.74 C 649.82 803.916 539.665 803.971 429.515 804.904 L 430.139 793.704 L 506.517 793.661 C 532.216 792.234 570.555 793.26 596.692 793.293 L 758.496 793.239 C 762.139 782.915 769.255 772.142 781.446 771.975 C 782.767 767.378 782.212 741.285 782.197 734.446 L 782.037 659.186 C 747.297 659.21 699.787 660.641 666.062 658.795 C 665.362 651.337 663.405 636.636 666.954 630.591 C 672.454 625.744 688.652 627.661 696.866 627.834 C 696.946 595.253 695.581 562.041 697.164 529.586 C 688.503 525.685 667.554 497.977 659.343 489.742 C 648.058 478.424 636.731 466.002 624.939 454.95 C 620.159 450.469 606.069 441.936 604.223 436.477 C 604.06 468.381 604.06 500.285 604.223 532.189 C 605.176 532.524 606.125 532.87 607.07 533.227 C 614.826 536.094 623.566 542.044 626.22 549.987 C 639.19 588.796 587.551 607.776 572.421 569.806 C 565.089 551.406 577.504 538.399 594.655 532.62 C 593.224 452.803 596.736 369.452 593.763 290.589 C 592.755 290.153 591.752 289.707 590.754 289.251 C 578.098 283.452 575.17 278.451 570.468 265.712 C 528.433 265.031 470.871 263.867 429.609 265.937 L 430.338 255.264 L 571.234 255.404 C 583.111 224.111 615.939 225.528 627.926 255.117 C 668.661 256.486 716.567 255.289 757.675 255.278 C 761.704 241.266 768.56 236.607 782.06 233.172 L 781.965 145.21 C 767.549 139.745 762.647 136.287 758.241 121.071 L 429.794 121.711 C 430.209 118.527 430.05 115.294 429.324 112.166 L 645.971 111.932 L 722.156 111.847 C 730.287 111.831 749.82 112.368 757.303 111.677 C 761.523 101.433 765.438 93.2321 776.543 88.7478 C 783.563 85.9431 791.416 86.0762 798.336 89.1173 C 808.692 93.6826 813.343 101.587 817.159 111.62 L 1252.97 111.513 z" fill="rgb(242,246,251)" transform="translate(0,0)"></path>
<path d="M 942.901 584.033 L 943.211 582.735 C 946.936 566.596 937.414 524.409 939.738 510.931 C 943.499 489.12 967.373 439.912 977.213 418.217 C 979.517 414.329 983.548 410.739 987.238 408.386 C 994.704 403.624 1002.92 401.312 1011.49 399.622 C 1014.9 398.952 1018.64 399.433 1020.67 396.991 C 1020.62 392.29 1020.27 392.955 1016.66 390.008 C 1008.64 383.69 1003.93 370.877 1001.71 361.194 C 999.997 353.755 992.512 335.525 998.723 329.889 C 1016.08 314.138 1021.01 299.517 1045.45 314.24 C 1062.74 307.153 1068.68 313.812 1072.24 330.867 C 1070.32 338.06 1068.68 341.776 1064.98 348.32 C 1065.76 362.283 1066.65 375.865 1056.89 387.46 C 1053.87 391.053 1051.63 391.758 1050.24 396.235 L 1050.86 397.951 C 1072.85 405.157 1083.05 400.5 1094.45 424.391 C 1106.12 448.825 1116.95 473.215 1127.48 498.24 C 1133.97 513.657 1132.68 520.869 1130.32 537.27 C 1128.97 546.604 1127.85 556.38 1126.64 565.769 C 1124.61 580.628 1132.78 596.588 1115.14 604.967 C 1108.14 608.018 1109.03 600.361 1098.61 606.111 C 1092.88 605.007 1090.35 598.987 1087.81 594.086 L 1090.05 626.359 C 1119.54 626.266 1160.72 627.42 1189.22 625.916 C 1190.92 625.332 1201.5 625.208 1204.02 625.131 C 1204.09 624.919 1204.16 624.706 1204.23 624.494 L 1204.59 623.439 C 1208.96 610.397 1216.48 601.947 1224.26 590.624 C 1199.4 591.096 1190.3 591.508 1190.09 563.351 L 1189.92 493.162 C 1189.92 446.437 1188.01 448.132 1235.79 448.948 C 1243.55 449.08 1252.28 448.933 1260.08 448.919 C 1274.35 448.811 1289.35 448.467 1303.56 448.865 L 1355.28 448.719 C 1369.7 448.675 1400.08 444.318 1399.24 465.201 C 1397.77 501.832 1401.32 541.064 1399.09 577.405 C 1399.04 578.212 1398.97 579.018 1398.89 579.823 C 1395.66 584.882 1392.75 589.164 1386.21 589.869 C 1365.39 592.112 1340.32 590.4 1319.25 590.658 C 1319.26 602.401 1319.09 614.697 1319.36 626.391 L 1406.41 625.975 L 1406.27 659.318 L 1286.04 659.225 L 1285.93 771.252 C 1298.39 774.723 1305.14 781.338 1308.71 793.995 C 1308.83 796.9 1308.73 801.874 1309.62 804.372 C 1301.09 813.124 1300.82 823.103 1283.78 824.071 C 1271.46 824.77 1257.83 817.432 1254.64 805.033 C 1207.29 802.742 1144.89 804.482 1096.51 804.67 C 1069.3 805.738 1033.67 804.748 1006.06 804.745 L 813.011 804.785 C 809.623 812.253 806.533 817.223 798.961 821.198 C 792.655 824.493 785.276 825.068 778.536 822.792 C 768.801 819.541 764.392 813.345 759.971 804.74 C 649.82 803.916 539.665 803.971 429.515 804.904 L 430.139 793.704 L 506.517 793.661 C 532.216 792.234 570.555 793.26 596.692 793.293 L 758.496 793.239 C 762.139 782.915 769.255 772.142 781.446 771.975 C 782.767 767.378 782.212 741.285 782.197 734.446 L 782.037 659.186 C 747.297 659.21 699.787 660.641 666.062 658.795 C 665.362 651.337 663.405 636.636 666.954 630.591 C 672.454 625.744 688.652 627.661 696.866 627.834 C 696.946 595.253 695.581 562.041 697.164 529.586 C 697.006 523.397 695.631 508.813 699.268 504.407 C 704.895 502.821 738.696 502.463 744.4 503.88 L 748.548 507.581 C 749.153 507.108 753.7 503.643 754.183 503.609 C 768.55 502.617 783.092 503.227 797.489 503.356 C 802.004 503.396 802.414 508.082 803.067 511.4 C 807.312 510.795 810.117 510.337 814.219 509.109 C 821.319 506.983 840.427 495.22 846.553 496.598 C 854.976 505.516 898.634 600.26 904.339 616.189 C 917.823 609.631 930.391 590.59 942.901 584.033 z" fill="rgb(26,58,92)" transform="translate(0,0)"></path>
<path d="M 792.213 659.202 L 880.257 659.216 C 879.827 704.066 879.695 748.918 879.863 793.769 C 857.748 793.925 835.633 793.956 813.518 793.862 C 812.653 781.119 803.154 775.944 792.315 773.04 C 792.017 735.095 791.983 697.148 792.213 659.202 z" fill="rgb(221,242,250)" transform="translate(0,0)"></path>
<path d="M 1201.87 659.176 L 1276.08 659.199 L 1275.98 771.814 C 1264.15 775.844 1256.86 780.476 1254.18 793.904 L 1201.74 793.984 L 1201.87 659.176 z" fill="rgb(221,242,250)" transform="translate(0,0)"></path>
<path d="M 430.139 793.704 L 506.517 793.661 C 589.707 794.718 675.445 793.863 758.755 793.667 L 759.971 804.74 C 649.82 803.916 539.665 803.971 429.515 804.904 L 430.139 793.704 z" fill="rgb(26,58,92)" transform="translate(0,0)"></path>
<path d="M 758.496 793.239 C 762.139 782.915 769.255 772.142 781.446 771.975 C 782.884 775.607 786.231 780.034 790.176 780.987 L 791.968 780.075 C 792.679 776.847 792.56 776.398 792.315 773.04 C 803.154 775.944 812.653 781.119 813.518 793.862 C 813.319 796.906 812.662 801.056 813.84 803.677 C 818.932 804.859 864.4 804.161 872.279 804.154 L 1024.3 804.275 C 1040.93 804.288 1082.24 803.088 1096.51 804.67 C 1069.3 805.738 1033.67 804.748 1006.06 804.745 L 813.011 804.785 C 809.623 812.253 806.533 817.223 798.961 821.198 C 792.655 824.493 785.276 825.068 778.536 822.792 C 768.801 819.541 764.392 813.345 759.971 804.74 L 758.755 793.667 C 675.445 793.863 589.707 794.718 506.517 793.661 C 532.216 792.234 570.555 793.26 596.692 793.293 L 758.496 793.239 z" fill="rgb(0,190,242)" transform="translate(0,0)"></path>
<path d="M 1275.98 771.814 L 1285.93 771.252 C 1298.39 774.723 1305.14 781.338 1308.71 793.995 C 1308.83 796.9 1308.73 801.874 1309.62 804.372 C 1301.09 813.124 1300.82 823.103 1283.78 824.071 C 1271.46 824.77 1257.83 817.432 1254.64 805.033 C 1255 802.186 1254.41 796.954 1254.18 793.904 C 1256.86 780.476 1264.15 775.844 1275.98 771.814 z" fill="rgb(0,190,242)" transform="translate(0,0)"></path>
<path d="M 1224.26 590.624 L 1270.01 590.839 L 1269.81 626.252 L 1217.99 626.162 C 1209.84 626.163 1197.06 626.552 1189.22 625.916 C 1190.92 625.332 1201.5 625.208 1204.02 625.131 C 1204.09 624.919 1204.16 624.706 1204.23 624.494 L 1204.59 623.439 C 1208.96 610.397 1216.48 601.947 1224.26 590.624 z" fill="rgb(221,242,250)" transform="translate(0,0)"></path>
<path d="M 942.901 584.033 C 943.236 600.014 948.675 607.608 966.146 606.982 C 975.728 606.639 977.582 604.101 984.124 597.721 L 983.781 626.239 C 975.062 626.262 906.238 627.058 903.106 625.634 C 903.079 622.82 903.692 622.249 905.134 619.861 L 904.339 616.189 C 917.823 609.631 930.391 590.59 942.901 584.033 z" fill="rgb(221,242,250)" transform="translate(0,0)"></path>
<path d="M 1203.81 458.325 C 1261.14 459.415 1318.76 457.567 1376.11 458.755 C 1379.76 458.831 1385 459.675 1388.26 461.334 C 1389.47 464.211 1390.06 467.737 1390.02 470.879 C 1389.57 503.246 1389.8 535.581 1389.93 567.943 C 1389.95 573.257 1389.43 576.546 1385.4 580.147 C 1372.75 581.732 1325.44 580.398 1310.21 580.343 L 1249.79 580.266 C 1237.68 580.326 1213.56 581.843 1202.73 578.22 C 1196.56 572.018 1201.87 489.167 1199.61 476.404 C 1198.66 471.042 1199.54 462.676 1203.81 458.325 z" fill="rgb(242,246,251)" transform="translate(0,0)"></path>
<path d="M 1018.36 408.245 C 1019.47 408.109 1020.13 408.022 1021.28 408.191 C 1038.75 410.768 1056.25 406.696 1073.34 413.303 C 1076 414.291 1078.83 416.007 1080.41 418.445 C 1086.63 427.99 1091.27 439.775 1095.92 450.111 L 1123.28 511.598 C 1120.87 529.478 1120.56 548.494 1116.79 566.357 L 1098 566.291 C 1097.99 550.133 1098.97 532.042 1099.53 515.738 C 1091.39 502.735 1085.24 480.322 1076.14 464.257 C 1075.55 498.297 1076.89 535.63 1076.99 570.247 L 1053.01 570.225 L 993.954 570.285 L 993.963 464.351 C 988.821 474.962 972.799 509.175 972.467 519.111 C 972.088 530.448 972.926 553.951 973.156 566.561 C 966.625 566.323 958.913 566.638 952.291 566.741 C 952.183 559.387 948.291 516.396 949.347 511.933 C 955.023 487.954 974.783 444.257 986.659 421.387 C 990.781 413.449 1010.44 409.834 1018.36 408.245 z" fill="rgb(0,190,242)" transform="translate(0,0)"></path>
<path d="M 1089.8 659.123 L 1187.5 659.391 C 1186.25 702.541 1187.17 750.556 1187.08 793.998 C 1165.51 793.847 1143.94 793.916 1122.37 794.205 L 1122.42 793.6 L 1122.49 792.589 C 1124.17 769.323 1108.74 768.845 1091.98 759.587 L 1089.8 659.123 z" fill="rgb(221,242,250)" transform="translate(0,0)"></path>
<path d="M 895.09 659.099 L 983.619 659.195 L 983.424 719.545 C 983.38 728.799 983.814 746.944 982.282 755.284 C 978.653 761.402 966.793 764.042 959.358 769.236 L 958.421 769.901 C 951.499 779.502 951.44 782.473 952.714 794.012 L 895.059 794.001 L 895.09 659.099 z" fill="rgb(221,242,250)" transform="translate(0,0)"></path>
<path d="M 676.956 636.484 L 1217.55 636.706 C 1256.23 636.892 1294.9 636.697 1333.57 636.124 C 1348.34 636.02 1381.9 635.173 1395.63 637.091 C 1395.68 638.228 1395.72 639.365 1395.75 640.503 C 1395.86 644.573 1396.4 647.394 1393.94 649.978 L 674.312 649.629 C 674.183 645.172 673.001 638.878 676.956 636.484 z" fill="rgb(40,120,232)" transform="translate(0,0)"></path>
<path d="M 1031.82 659.783 C 1035.61 659.613 1037.13 659.275 1040.66 660.574 C 1041.64 663.563 1043.87 689.229 1044.33 694.848 C 1046.98 727.182 1051.74 761.385 1053.4 793.58 L 1042.56 793.848 L 1020.93 793.877 C 1020.94 779.56 1023.63 754.866 1024.81 740.114 C 1026.91 713.89 1028.68 685.789 1031.82 659.783 z" fill="rgb(221,242,250)" transform="translate(0,0)"></path>
<path d="M 822.764 557.565 C 827.724 564.213 851.436 617.191 854.823 626.237 L 822.125 626.271 C 822.073 603.482 822.702 580.442 822.764 557.565 z" fill="rgb(242,246,251)" transform="translate(0,0)"></path>
<path d="M 841.289 506.927 C 845.669 509.573 856.744 535.86 859.48 542.115 C 850.285 545.455 844.723 548.812 836.38 553.65 L 835.784 553.723 C 831.887 552.027 821.227 526.256 817.862 519.597 C 826.009 515.644 833.872 512.147 841.289 506.927 z" fill="rgb(242,246,251)" transform="translate(0,0)"></path>
<path d="M 1050.09 349.067 C 1061.19 351.387 1060.82 396.797 1025.82 386.146 C 1008.19 372.41 1019.75 368.078 1032.4 357.46 C 1037.97 352.776 1043.22 350.808 1050.09 349.067 z" fill="rgb(243,188,147)" transform="translate(0,0)"></path>
<path d="M 762.561 512.778 L 790.86 512.89 L 790.934 548.454 L 762.766 548.502 L 762.561 512.778 z" fill="rgb(242,246,251)" transform="translate(0,0)"></path>
<path d="M 860.621 549.908 L 862.794 550.205 C 865.635 553.699 874.396 573.2 877.254 578.924 L 854.288 590.502 L 851.627 590.781 C 846.846 586.085 840.537 567.564 837.92 560.684 C 845.317 556.305 852.749 553.309 860.621 549.908 z" fill="rgb(242,246,251)" transform="translate(0,0)"></path>
<path d="M 707.112 512.974 L 734.247 513.004 L 734.346 547.929 L 707.015 547.911 L 707.112 512.974 z" fill="rgb(242,246,251)" transform="translate(0,0)"></path>
<path d="M 762.809 557.131 L 791.051 557.149 L 791.024 590.381 L 762.892 590.633 L 762.809 557.131 z" fill="rgb(242,246,251)" transform="translate(0,0)"></path>
<path d="M 706.97 557.069 L 734.546 557.064 L 734.618 590 L 706.93 589.976 L 706.97 557.069 z" fill="rgb(242,246,251)" transform="translate(0,0)"></path>
<path d="M 880.484 587.041 C 884.163 591.798 890.844 609.308 893.281 615.433 C 884.013 618.875 876.394 622.213 867.373 626.291 C 864.333 622.956 856.455 604.086 854.255 599.077 C 862.895 595.694 872.053 591.062 880.484 587.041 z" fill="rgb(40,120,232)" transform="translate(0,0)"></path>
<path d="M 706.66 597.956 L 734.332 598.125 C 735.049 606.29 734.821 618.606 734.877 627.12 L 706.716 627.092 L 706.66 597.956 z" fill="rgb(40,120,232)" transform="translate(0,0)"></path>
<path d="M 785.509 598.482 L 789.301 598.673 C 792.396 602.102 791.057 621.036 790.995 626.968 L 767.75 626.896 L 764.056 626.572 C 760.963 623.047 762.193 604.927 762.207 598.867 L 785.509 598.482 z" fill="rgb(40,120,232)" transform="translate(0,0)"></path>
<path d="M 953.362 575.228 L 975.157 574.942 C 976.767 583.789 977.286 586.387 974.696 594.914 C 965.015 594.988 963.357 594.389 952.818 595.348 C 952.428 587.484 952.732 582.969 953.362 575.228 z" fill="rgb(243,188,147)" transform="translate(0,0)"></path>
<path d="M 1100.5 575.481 L 1116.92 575.488 C 1117.33 582.459 1119.18 590.577 1112.74 594.826 C 1106.23 592.131 1101.79 594.834 1097.49 590.965 C 1096.19 587.443 1096.19 579.905 1097.57 576.553 L 1100.5 575.481 z" fill="rgb(243,188,147)" transform="translate(0,0)"></path>
<path d="M 1086.27 511.757 C 1092.8 518.368 1089.88 561.026 1089.66 571.989 L 1087.13 571.548 C 1084.78 567.603 1086.15 519.45 1086.27 511.757 z" fill="rgb(242,246,251)" transform="translate(0,0)"></path>
<path d="M 983.461 512.663 C 985.077 517.284 984.887 566.663 982.579 570.548 C 981.158 559.694 979.053 521.387 983.461 512.663 z" fill="rgb(242,246,251)" transform="translate(0,0)"></path>
<path d="M 1252.97 111.513 C 1255.7 102.045 1259.11 94.8434 1268.27 89.7372 C 1275.27 85.8377 1283.56 85.0118 1291.18 87.4563 C 1298.46 89.7837 1304.48 94.9787 1307.84 101.841 C 1308.96 104.161 1310.24 109.168 1310.93 111.793 C 1421.7 111.215 1532.48 111.277 1643.26 111.981 L 1642.82 121.927 L 1311 121.869 C 1304.91 135.742 1300.92 140.633 1286.01 145.121 C 1285.94 173.342 1286.66 203.64 1286.06 231.574 C 1301.02 236.528 1304.43 241.445 1310.43 255.545 C 1352.87 254.394 1398.68 255.42 1441.5 255.37 C 1445.23 245.577 1448.95 238.448 1459.16 233.886 C 1466.19 230.695 1474.21 230.468 1481.41 233.257 C 1489.63 236.412 1495.78 242.963 1499.24 250.962 C 1499.87 252.433 1500.44 253.927 1500.96 255.44 C 1544.78 255.384 1597.6 256.616 1640.57 254.797 L 1641.21 265.026 C 1596.31 265.021 1544.92 263.886 1500.55 265.69 C 1496.05 280.054 1490.86 283.923 1476.91 288.431 C 1476.77 325.95 1476.61 363.469 1476.57 400.989 C 1476.56 406.024 1477.44 415.991 1474.88 419.683 C 1471.78 420.333 1471.95 420.296 1468.92 419.286 C 1464.95 414.484 1467.11 402.277 1467.11 395.291 L 1467.01 336.116 C 1456.18 339.07 1444.54 342.955 1434.3 347.196 C 1401.43 360.798 1329.32 402.712 1311.72 433.447 L 1311.02 434.685 L 1309.74 434.81 C 1309.4 433.15 1309.1 431.633 1308.69 429.985 C 1305.33 417.35 1300.96 413.858 1290.02 406.893 C 1286.45 404.625 1287.25 405.071 1286.46 401.29 L 1285.84 404.897 C 1282.65 406.602 1280.15 406.091 1276.13 405.785 L 1275.99 289.365 C 1261.11 283.188 1257.67 280.096 1251.01 265.746 C 1232.66 264.679 1210.26 265.134 1191.71 265.125 L 1093.98 265.107 L 816.453 265.633 L 816.203 266.312 C 810.656 281.017 806.809 285.59 791.919 291.368 C 791.822 323.9 791.917 356.432 792.203 388.963 C 788.168 389.229 786.154 389.041 782.175 388.713 L 782.165 291.103 C 766.367 287.003 760.602 280.95 756.796 265.108 L 628.434 265.253 C 623.744 279.235 619.745 286.398 604.16 290.005 L 604.223 436.477 C 604.06 468.381 604.06 500.285 604.223 532.189 C 605.176 532.524 606.125 532.87 607.07 533.227 C 614.826 536.094 623.566 542.044 626.22 549.987 C 639.19 588.796 587.551 607.776 572.421 569.806 C 565.089 551.406 577.504 538.399 594.655 532.62 C 593.224 452.803 596.736 369.452 593.763 290.589 C 592.755 290.153 591.752 289.707 590.754 289.251 C 578.098 283.452 575.17 278.451 570.468 265.712 C 528.433 265.031 470.871 263.867 429.609 265.937 L 430.338 255.264 L 571.234 255.404 C 583.111 224.111 615.939 225.528 627.926 255.117 C 668.661 256.486 716.567 255.289 757.675 255.278 C 761.704 241.266 768.56 236.607 782.06 233.172 L 781.965 145.21 C 767.549 139.745 762.647 136.287 758.241 121.071 L 429.794 121.711 C 430.209 118.527 430.05 115.294 429.324 112.166 L 645.971 111.932 L 722.156 111.847 C 730.287 111.831 749.82 112.368 757.303 111.677 C 761.523 101.433 765.438 93.2321 776.543 88.7478 C 783.563 85.9431 791.416 86.0762 798.336 89.1173 C 808.692 93.6826 813.343 101.587 817.159 111.62 L 1252.97 111.513 z" fill="rgb(26,58,92)" transform="translate(0,0)"></path>
<path d="M 1309.91 265.146 L 1441.14 265.102 C 1446.53 278.821 1452.53 285.412 1467.01 288.727 L 1467.01 336.116 C 1456.18 339.07 1444.54 342.955 1434.3 347.196 C 1401.43 360.798 1329.32 402.712 1311.72 433.447 L 1311.02 434.685 L 1309.74 434.81 C 1309.4 433.15 1309.1 431.633 1308.69 429.985 C 1305.33 417.35 1300.96 413.858 1290.02 406.893 C 1286.45 404.625 1287.25 405.071 1286.46 401.29 C 1284.63 368.667 1285.82 321.301 1286.11 287.995 C 1286.36 287.917 1286.62 287.84 1286.88 287.762 L 1288.17 287.35 C 1301.2 283.279 1305.41 277.83 1309.91 265.146 z" fill="rgb(242,246,251)" transform="translate(0,0)"></path>
<path d="M 816.066 122.002 L 1253.12 121.991 C 1258.73 134.907 1263 140.524 1276.66 144.958 L 1276.9 231.285 C 1262.12 235.445 1257.13 240.407 1251.71 254.735 C 1248.16 255.481 1222.58 255.185 1217.43 255.177 L 1138.87 255.069 L 816.021 255.246 C 809.519 242.655 805.318 237.621 792.097 232.837 L 792.094 144.204 C 806.231 140.063 811.331 135.922 816.066 122.002 z" fill="rgb(242,246,251)" transform="translate(0,0)"></path>
<path d="M 1468.21 239.966 C 1478.91 238.255 1489.02 245.381 1491.01 256.031 C 1493 266.682 1486.14 276.978 1475.54 279.242 C 1468.44 280.76 1461.07 278.305 1456.3 272.829 C 1451.53 267.353 1450.1 259.72 1452.58 252.891 C 1455.05 246.062 1461.04 241.114 1468.21 239.966 z" fill="rgb(40,120,232)" transform="translate(0,0)"></path>
<path d="M 1276.19 96.4779 C 1286.6 93.2562 1297.65 99.1275 1300.8 109.561 C 1303.96 119.995 1298.01 131.002 1287.56 134.089 C 1277.2 137.148 1266.32 131.271 1263.19 120.932 C 1260.06 110.594 1265.87 99.6704 1276.19 96.4779 z" fill="rgb(0,190,242)" transform="translate(0,0)"></path>
<path d="M 780.433 243.508 C 790.562 240.332 801.364 245.881 804.68 255.965 C 807.997 266.049 802.598 276.926 792.561 280.382 C 785.943 282.661 778.612 281.2 773.372 276.56 C 768.133 271.92 765.797 264.818 767.26 257.974 C 768.722 251.13 773.755 245.602 780.433 243.508 z" fill="rgb(40,120,232)" transform="translate(0,0)"></path>
<path d="M 784.093 97.1462 C 794.505 95.3713 804.389 102.356 806.192 112.763 C 807.995 123.17 801.037 133.073 790.635 134.904 C 780.194 136.743 770.244 129.752 768.434 119.305 C 766.624 108.859 773.642 98.9279 784.093 97.1462 z" fill="rgb(40,120,232)" transform="translate(0,0)"></path>
<path d="M 595.441 243.521 C 605.614 241.389 615.604 247.852 617.831 258.004 C 620.058 268.156 613.689 278.206 603.559 280.528 C 593.293 282.881 583.078 276.409 580.822 266.121 C 578.565 255.834 585.133 245.68 595.441 243.521 z" fill="rgb(0,190,242)" transform="translate(0,0)"></path>
<path d="M 782.175 388.713 C 786.154 389.041 788.168 389.229 792.203 388.963 C 802.899 389.823 811.989 398.698 814.07 409.142 C 815.663 416.992 813.907 425.151 809.225 431.65 C 805.02 437.578 798.565 441.521 791.371 442.556 C 753 447.711 748.469 391.375 782.175 388.713 z" fill="rgb(0,190,242)" transform="translate(0,0)"></path>
<path d="M 1286.46 401.29 C 1287.25 405.071 1286.45 404.625 1290.02 406.893 C 1300.96 413.858 1305.33 417.35 1308.69 429.985 C 1307.65 437.894 1307.39 441.686 1303.56 448.865 C 1289.35 448.467 1274.35 448.811 1260.08 448.919 C 1248.36 430.318 1256.63 413.264 1276.13 405.785 C 1280.15 406.091 1282.65 406.602 1285.84 404.897 L 1286.46 401.29 z" fill="rgb(0,190,242)" transform="translate(0,0)"></path>
<path d="M 569.263 885.217 C 583.322 884.507 588.547 888.255 601.634 889.701 C 610.098 890.636 620.037 880.69 625.734 897.119 C 631.107 912.935 623.932 927.42 620.579 942.065 C 615.915 962.437 618.726 980.656 595.456 989.704 C 554.019 999.151 543.262 971.579 539.295 938.521 C 537.381 922.574 526.873 916.3 548.136 904.761 L 548.442 904.141 C 554.101 892.844 557.225 889.203 569.263 885.217 z" fill="rgb(15,34,55)" transform="translate(0,0)"></path>
<path d="M 607.934 938.672 C 609.473 940.276 610.009 940.967 609.747 943.86 C 608.476 957.878 607.267 968.484 597.061 978.357 C 587.137 978.453 573.089 979.076 563.853 976.567 C 561.485 974.161 561.741 975.383 561.654 972.953 C 564.639 972.576 567.19 972.679 570.178 972.688 C 591.728 972.751 595.588 950.51 607.934 938.672 z" fill="rgb(243,188,147)" transform="translate(0,0)"></path>
<path d="M 932.04 923.499 C 922.337 914.748 918.835 895.304 928.506 885.466 C 934.37 883.318 944.126 883.966 947.706 883.224 C 969.902 878.62 1006.93 869.781 1007.1 904.303 C 1007.11 906.14 1019.33 917.435 1014.75 930.778 C 1010.76 942.384 1007.77 951.163 1002.03 962.051 C 997.704 971.193 989.868 977.255 980.145 980.272 C 971.952 980.964 966.241 981.093 958.102 981.083 C 930.431 974.98 931.258 945.899 932.04 923.499 z" fill="rgb(26,58,92)" transform="translate(0,0)"></path>
<path d="M 942.997 928.02 C 950.406 929.513 957.106 929.81 964.584 930.153 C 965.236 933.013 966.115 935.817 967.214 938.537 C 971.739 949.571 982.026 953.548 992.104 957.778 C 989.712 961.448 988.008 963.162 985.075 966.299 C 978.39 970.684 969.166 973.08 961.285 971.326 C 955.124 970.014 949.774 966.224 946.494 960.847 C 940.613 951.374 940.828 938.556 942.997 928.02 z" fill="rgb(243,188,147)" transform="translate(0,0)"></path>
<path d="M 396.594 627.864 C 399.571 625.81 399.739 625.859 403.463 625.675 C 404.682 626.18 406.459 626.58 406.543 628.145 C 408.821 670.686 406.229 729.888 407.323 770.918 C 419.09 774.125 428.161 780.875 430.139 793.704 L 429.515 804.904 C 427.356 813.012 420.664 821.119 412.685 823.975 C 405.218 826.578 397.022 826.108 389.901 822.669 C 382.799 819.312 376.834 813.141 374.309 805.641 C 372.073 799.132 372.59 791.992 375.739 785.873 C 380.036 777.508 387.855 773.212 396.379 770.491 L 396.245 679.875 C 396.229 663.42 395.673 643.902 396.594 627.864 z" fill="rgb(0,190,242)" transform="translate(0,0)"></path>
<path d="M 396.594 627.864 C 399.571 625.81 399.739 625.859 403.463 625.675 C 404.682 626.18 406.459 626.58 406.543 628.145 C 408.821 670.686 406.229 729.888 407.323 770.918 C 404.005 770.977 399.865 771.343 397.308 769.75 C 396.051 759.708 396.774 734.548 396.784 723.363 C 396.947 691.53 396.884 659.696 396.594 627.864 z" fill="rgb(26,58,92)" transform="translate(0,0)"></path>
<path d="M 1308.71 793.995 L 1643 793.965 C 1642.5 797.282 1642.61 800.664 1643.36 803.936 L 1474.32 803.871 C 1419.81 803.9 1364.07 803.504 1309.62 804.372 C 1308.73 801.874 1308.83 796.9 1308.71 793.995 z" fill="rgb(26,58,92)" transform="translate(0,0)"></path>
<path d="M 429.609 265.937 C 425.275 281.583 412.906 290.996 396.244 286.654 C 388.139 284.481 381.23 279.173 377.042 271.902 C 360.35 242.543 410.233 207.452 430.338 255.264 L 429.609 265.937 z" fill="rgb(40,120,232)" transform="translate(0,0)"></path>
<path d="M 1643.26 111.981 C 1649.67 95.9922 1662.59 85.2317 1680.61 92.9341 C 1687.59 95.9475 1693.1 101.602 1695.93 108.664 C 1709.05 141.98 1656.43 165.282 1642.82 121.927 L 1643.26 111.981 z" fill="rgb(0,190,242)" transform="translate(0,0)"></path>
<path d="M 429.794 121.711 C 427.997 135.51 415.965 145.656 402.061 145.098 C 388.157 144.539 376.977 133.461 376.293 119.562 C 375.608 105.664 385.645 93.5403 399.427 91.6181 C 413.209 89.6959 426.179 98.6103 429.324 112.166 C 430.05 115.294 430.209 118.527 429.794 121.711 z" fill="rgb(0,190,242)" transform="translate(0,0)"></path>
<path d="M 1643 793.965 C 1645.1 780.329 1657.23 770.525 1671 771.332 C 1684.77 772.14 1695.67 783.295 1696.16 797.083 C 1696.64 810.871 1686.56 822.765 1672.87 824.541 C 1659.19 826.317 1646.41 817.391 1643.36 803.936 C 1642.61 800.664 1642.5 797.282 1643 793.965 z" fill="rgb(0,190,242)" transform="translate(0,0)"></path>
<path d="M 1640.57 254.797 C 1651.62 201.914 1725.03 250.773 1681 280.501 C 1667.04 289.928 1650.37 281.971 1642.63 267.721 C 1642.14 266.829 1641.67 265.931 1641.21 265.026 L 1640.57 254.797 z" fill="rgb(40,120,232)" transform="translate(0,0)"></path>
<metadata><recraft-signature>{"signed_by": "recraft", "signature_b64": "Zs6ufm6lfy+EHX1bRx0uqcUtvpAe1YQFe++/1+Hk4DUvaBSMmF4JTdsm62UXtXbWVfRQstpWz2qi/ZNKzdSNDw==", "signing_algo": "Ed25519", "generation_timestamp": 1776431323, "identifier": "03de985f-ed98-41ef-a8d0-9f8cca348404"}</recraft-signature></metadata></svg>