<svg xmlns="http://www.w3.org/2000/svg" height="1024" preserveAspectRatio="none" style="display: block;" version="1.1" viewBox="0 0 2048 1536" width="1365">
<path d="M 0 0 L 2048 0 L 2048 1536 L 0 1536 L 0 0 z" fill="rgb(242,246,251)" transform="translate(0,0)"></path>
<path d="M 1259.42 220.998 C 1277.85 215.508 1283.73 210.107 1299.64 202.863 C 1312.49 197.013 1332.48 189.366 1345.81 184.679 C 1443.71 150.263 1548.34 172.598 1637.33 221.41 C 1763.16 290.428 1858.93 401.129 1920.73 529.698 C 1940.39 570.59 1955.02 603.248 1968.2 647.439 C 2024.32 837.649 2003.57 1042.28 1910.4 1217.35 C 1883.93 1266.18 1853.54 1311.45 1817.3 1353.47 C 1802.92 1370.15 1787.47 1388.54 1770.51 1402.55 C 1775.38 1402.6 1783.6 1402.45 1788.11 1403.16 C 1798.97 1404.16 1831.64 1403.07 1843.61 1403.01 L 1948.11 1403.05 C 1963.77 1403.01 1980.12 1402.45 1995.73 1403.54 C 2003.78 1403.29 2004.83 1417.73 1998.31 1417.85 C 1966.63 1418.43 1922.79 1418.19 1892.15 1418.22 L 1466.89 1418.27 L 498.571 1418.45 L 193.885 1418.5 L 92.3881 1418.31 C 80.0681 1418.28 67.9186 1418.32 55.6037 1418.84 C 49.5137 1419.1 43.2635 1415.67 41.7444 1409.49 C 43.0104 1404.61 46.2299 1403.61 51.112 1403.41 C 65.9971 1402.82 81.0382 1403.15 95.9583 1403.16 L 186.442 1403.12 C 176.993 1390.96 163.984 1381.35 153.784 1367.26 C 105.518 1300.6 77.0935 1219.03 61.2851 1138.88 C 21.4441 936.891 74.3678 724.045 185.782 553.172 C 253.924 449.376 366.733 342.904 491.537 317.37 C 561.494 303.057 638.793 315.615 698.606 355.653 C 698.541 348.612 698.53 343.608 699.159 336.578 C 700.144 327.275 699.352 294.036 699.327 283.115 C 687.02 283.004 667.293 284.066 655.765 283.034 C 647.215 282.269 649.61 227.966 652.433 222.74 C 655.612 220.554 658.34 220.858 662.686 220.833 C 683.564 220.715 704.546 220.796 725.415 220.822 L 847.13 220.964 L 1259.42 220.998 z" fill="rgb(15,34,55)" transform="translate(0,0)"></path>
<path d="M 186.442 1403.12 C 176.993 1390.96 163.984 1381.35 153.784 1367.26 C 105.518 1300.6 77.0935 1219.03 61.2851 1138.88 C 21.4441 936.891 74.3678 724.045 185.782 553.172 C 253.924 449.376 366.733 342.904 491.537 317.37 C 561.494 303.057 638.793 315.615 698.606 355.653 C 698.541 348.612 698.53 343.608 699.159 336.578 C 700.37 354.571 699.602 379.31 699.678 397.769 L 699.708 525.566 L 699.107 901.609 L 585.951 901.62 C 562.771 859.94 554.756 867.317 512.731 861.141 C 525.812 839.848 547.206 797.252 541.436 772.198 C 535.571 746.728 509.903 739.184 486.542 738.908 C 468.003 724.901 457.525 737.646 451.167 755.085 C 441.377 758.081 426.495 761.229 422.103 770.954 C 411.437 794.568 434.548 840.686 446.678 859.88 C 417.94 864.501 386.519 862.419 369.217 886.867 C 366.247 891.082 363.967 895.743 362.462 900.675 C 357.197 917.512 338.093 1009.08 340.239 1022.38 C 341.446 1029.86 345.51 1037.26 349.415 1043.65 C 332.972 1043.72 242.926 1042.43 234.456 1045.85 C 231.155 1051.18 232.84 1076.3 233.136 1083.9 C 256.518 1085.18 287.501 1084.22 311.435 1084.16 L 255.783 1403.83 C 234.151 1403.62 207.629 1404.13 186.442 1403.12 z" fill="rgb(221,242,250)" transform="translate(0,0)"></path>
<path d="M 413.837 578.27 C 432.967 576.503 449.921 590.545 451.749 609.669 C 453.578 628.793 439.591 645.793 420.473 647.683 C 401.267 649.582 384.172 635.518 382.335 616.305 C 380.499 597.093 394.619 580.044 413.837 578.27 z" fill="rgb(0,190,242)" transform="translate(0,0)"></path>
<path d="M 221.815 784.534 C 231.218 782.746 240.284 788.939 242.037 798.348 C 243.791 807.758 237.565 816.801 228.15 818.521 C 218.782 820.231 209.795 814.044 208.05 804.683 C 206.306 795.322 212.46 786.312 221.815 784.534 z" fill="rgb(0,190,242)" transform="translate(0,0)"></path>
<path d="M 1259.42 220.998 C 1277.85 215.508 1283.73 210.107 1299.64 202.863 C 1312.49 197.013 1332.48 189.366 1345.81 184.679 C 1443.71 150.263 1548.34 172.598 1637.33 221.41 C 1763.16 290.428 1858.93 401.129 1920.73 529.698 C 1940.39 570.59 1955.02 603.248 1968.2 647.439 C 2024.32 837.649 2003.57 1042.28 1910.4 1217.35 C 1883.93 1266.18 1853.54 1311.45 1817.3 1353.47 C 1802.92 1370.15 1787.47 1388.54 1770.51 1402.55 C 1775.38 1402.6 1783.6 1402.45 1788.11 1403.16 C 1778.36 1403.97 1765.4 1403.69 1755.35 1403.73 C 1743.04 1383.93 1719.61 1379.1 1699 1365.98 L 1697.81 1365.21 L 1698.02 999.913 C 1718.2 1003.66 1733.81 989.563 1735 969.61 C 1736.79 939.648 1737.41 909.588 1738.51 879.582 C 1740.12 836.099 1740.97 792.591 1741.07 749.079 C 1741.15 728.795 1741.11 708.097 1740.89 687.864 C 1740.23 624.34 1695.86 619.379 1649.72 593.792 C 1649.26 588.614 1649.16 582.225 1648.95 576.937 C 1662.93 552.518 1676.71 510.069 1666.89 482.926 C 1658.3 459.193 1632.97 449.671 1609.39 453.556 C 1588.94 456.926 1579.58 464.982 1559.22 455.736 C 1542.03 470.182 1539.25 486.268 1550.41 505.77 C 1549.23 533.463 1555.21 553.141 1569.13 576.497 L 1568.5 592.942 C 1542.44 607.13 1499.45 620.929 1480.02 639.057 C 1479.98 521.996 1478.22 399.74 1480.38 283.06 L 1525.28 282.887 C 1525.88 273.694 1526.47 229.86 1523.78 222.939 C 1516.51 219.095 1290.42 221.046 1259.42 220.998 z" fill="rgb(221,242,250)" transform="translate(0,0)"></path>
<path d="M 1834.95 552.66 C 1841.68 550.821 1848.89 552.181 1854.49 556.348 C 1860.09 560.516 1863.46 567.027 1863.63 574.006 C 1863.89 584.594 1856.8 593.958 1846.54 596.573 C 1834.46 599.652 1822.15 592.417 1818.97 580.363 C 1815.79 568.31 1822.92 555.945 1834.95 552.66 z" fill="rgb(0,190,242)" transform="translate(0,0)"></path>
<path d="M 1817.04 1043.5 C 1827.02 1041.73 1836.56 1048.38 1838.35 1058.36 C 1840.15 1068.34 1833.52 1077.89 1823.55 1079.71 C 1813.53 1081.54 1803.94 1074.88 1802.14 1064.87 C 1800.34 1054.85 1807.02 1045.27 1817.04 1043.5 z" fill="rgb(0,190,242)" transform="translate(0,0)"></path>
<path d="M 717.891 282.938 L 1461.06 282.946 L 1461.18 552.508 L 1461.59 638.067 C 1461.67 653.862 1461.88 671.971 1460.95 687.683 C 1460.52 694.946 1453.78 712.778 1451.04 720.585 C 1432.76 708.077 1414.42 695.665 1396.01 683.351 C 1386.65 677.098 1370.07 665.459 1360.09 661.51 L 1359.34 356.84 C 1316.71 357.752 1271.14 356.953 1228.2 356.949 L 967.407 356.96 L 863.888 357.101 C 849.701 357.116 835.461 357.012 821.278 356.909 C 819.233 356.895 817.527 358.429 816.11 359.713 C 814.929 362.887 814.763 361.502 815.82 364.042 C 817.922 365.369 823.323 365.602 825.878 365.589 C 882.279 365.287 938.785 365.279 995.18 365.256 L 1350.97 365.679 L 1351.14 636.917 C 1345.06 628.678 1343.81 627.636 1334.61 623.192 C 1333.35 544.79 1334.59 463.906 1334.17 385.092 L 1270.5 385.094 L 1086.87 385.111 L 1086.8 672.753 L 1295.2 672.395 C 1306.75 689.031 1309.01 686.966 1323.99 699.864 C 1327.42 702.818 1329.08 707.768 1336.78 714.046 C 1317.82 714.576 1213.41 711.826 1204.68 716.172 C 1200.61 718.201 1197.27 722.134 1196.24 726.577 C 1193.69 737.491 1194.69 843.224 1196 857.596 C 1196.53 863.417 1197.71 869.387 1200.6 874.518 C 1205.81 877.996 1220.18 877.948 1226.46 877.971 L 1307.42 877.981 C 1321.24 877.984 1335.33 878.316 1349.09 877.427 C 1355 877.045 1361.18 873.127 1361.71 866.815 C 1362.93 852.083 1362.49 836.931 1362.43 822.143 L 1362.03 737.946 C 1382.1 752.457 1400.45 770.584 1419.7 786.234 C 1431.81 796.075 1445.38 810.857 1461.03 813.648 L 1461.74 1038.02 L 750.584 1037.74 C 759.238 1009.88 766.187 981.4 773.98 953.289 C 777.488 940.636 784.335 922.73 785.64 910.016 C 785.882 907.662 785.521 905.714 783.846 903.927 C 779.856 899.67 726.363 901.851 717.981 901.874 L 717.891 282.938 z" fill="rgb(242,246,251)" transform="translate(0,0)"></path>
<path d="M 1018.94 714.214 C 1037.1 713.611 1154.3 712.115 1163.16 715.769 C 1166.69 717.227 1170.18 721.524 1171.43 725.074 C 1174.06 732.557 1173.14 847.136 1172.26 861.022 C 1172.06 864.134 1171.75 867.092 1170.3 869.914 C 1167.93 874.516 1163.68 876.336 1159.09 877.971 L 1067.12 877.999 C 1052.52 878 1028.25 880.22 1014.84 876.61 C 1011.45 875.697 1008.61 872.552 1007.13 869.472 C 1005.44 865.985 1005.49 861.518 1005.31 857.705 C 1004.65 843.752 1003.65 729.899 1006.19 724.093 C 1008.72 718.302 1013.39 716.266 1018.94 714.214 z" fill="rgb(15,34,55)" transform="translate(0,0)"></path>
<path d="M 1019.46 721.107 L 1106.55 720.976 C 1119.43 720.958 1155.01 719.105 1164.19 724.77 C 1165.37 727.175 1165.89 730.782 1165.84 733.616 C 1164.98 776.991 1166.15 820.61 1165.27 863.856 C 1165.21 867.183 1162.23 869.263 1159.64 870.853 C 1133.6 871.759 1103.76 870.381 1077.42 870.939 C 1066.92 871.162 1022.69 871.484 1015.36 869.658 C 1013.22 866.725 1012.01 859.415 1011.99 855.723 C 1011.76 813.906 1011.48 771.973 1012.33 730.171 C 1012.41 726.17 1016.54 723.142 1019.46 721.107 z" fill="rgb(0,190,242)" transform="translate(0,0)"></path>
<path d="M 830.948 714.311 C 857.087 713.124 883.703 714.077 909.887 714.145 C 926.898 714.189 945.117 712.922 961.977 714.577 C 966.98 715.069 972.887 716.203 977.232 718.811 C 979.138 719.955 979.452 720.855 980.016 722.94 C 982.946 733.773 982.781 844.616 981.644 861.346 C 981.44 864.355 981.202 867.461 979.588 870.086 C 976.446 875.196 972.297 876.545 966.807 877.811 C 945.347 877.803 834.566 880.652 823.297 875.676 C 820.03 874.234 817.481 870.629 816.387 867.312 C 813.853 859.629 814.884 746.693 815.564 731.766 C 815.694 728.907 815.818 725.448 817.305 722.931 C 820.405 717.685 825.2 715.513 830.948 714.311 z" fill="rgb(15,34,55)" transform="translate(0,0)"></path>
<path d="M 830.495 721.271 C 869.987 719.917 910.512 721.714 950.095 720.997 C 956.561 720.88 967.887 720.985 973.028 725.192 C 974.344 728.788 974.979 732.647 975.017 736.489 C 975.326 769.664 974.256 802.833 974.961 836.007 C 975.156 845.191 976.056 855.359 973.948 864.328 C 973.122 867.843 970.885 869.392 967.859 870.964 L 876.903 871.102 C 867.277 871.115 836.115 871.825 827.757 869.868 C 825.829 868.367 823.966 866.803 822.907 864.542 C 821.156 860.803 821.211 730.261 823.096 726.493 C 824.617 723.452 827.508 722.436 830.495 721.271 z" fill="rgb(40,120,232)" transform="translate(0,0)"></path>
<path d="M 815.455 505.945 L 963.802 505.876 C 973.812 505.875 1019.15 505.357 1024.95 506.412 C 1026.93 509.356 1026.19 509.14 1026.04 513.575 C 967.979 512.732 909.407 514.838 851.303 514.051 C 839.907 513.896 828.071 514.527 816.744 513.551 C 815.034 511.115 815.571 509.358 815.455 505.945 z" fill="rgb(26,58,92)" transform="translate(0,0)"></path>
<path d="M 815.455 479.112 L 971.777 479.294 C 979.87 479.291 1019.39 478.113 1024.85 479.641 C 1027.26 482.747 1026.45 482.15 1026.55 487.05 L 883.472 487.097 C 865.503 487.129 832.777 488.511 816.597 487.229 C 814.865 484.511 815.478 482.771 815.455 479.112 z" fill="rgb(26,58,92)" transform="translate(0,0)"></path>
<path d="M 815.472 399.045 L 951.513 399.069 C 971.486 399.039 1005.67 397.885 1024.83 399.35 C 1026.59 401.894 1025.96 403.342 1025.97 406.921 L 894.413 406.984 C 870.155 406.988 840.668 407.752 816.703 406.622 C 814.802 404.098 815.479 402.778 815.472 399.045 z" fill="rgb(26,58,92)" transform="translate(0,0)"></path>
<path d="M 815.394 559.09 C 875.407 559.876 935.661 558.696 995.702 559.653 C 1005.55 559.81 1015.47 559.319 1025.29 560.188 C 1027.29 562.363 1026.77 563.873 1027.07 567.39 L 879.552 567.084 C 869.841 567.077 822.894 567.786 816.248 566.703 C 814.801 564.073 815.357 562.419 815.394 559.09 z" fill="rgb(26,58,92)" transform="translate(0,0)"></path>
<path d="M 816.696 666.445 L 967.34 666.355 C 975.39 666.354 1020.4 665.907 1025.44 667.046 C 1027.44 669.853 1026.68 669.787 1026.55 674.165 C 971.29 673.227 876.069 674.782 817.974 673.819 C 817.364 673.38 816.754 672.94 816.144 672.5 C 815.522 669.717 815.896 669.136 816.696 666.445 z" fill="rgb(26,58,92)" transform="translate(0,0)"></path>
<path d="M 815.895 452.344 C 875.401 453.188 935.238 451.746 994.78 452.454 C 1004.71 452.572 1014.95 452.104 1024.82 452.916 C 1026.43 455.344 1025.94 456.792 1026.06 460.072 L 889.985 460.096 C 870.026 460.128 836.325 461.241 817.175 459.736 C 815.242 457.101 815.91 456.151 815.895 452.344 z" fill="rgb(26,58,92)" transform="translate(0,0)"></path>
<path d="M 815.355 612.905 C 835.949 612.886 1020.86 611.655 1025.97 613.77 C 1027.21 616.974 1026.7 616.325 1025.86 620.351 L 887.568 620.536 C 870.579 620.558 833.006 621.586 817.236 620.106 C 815.401 617.643 815.775 616.267 815.355 612.905 z" fill="rgb(26,58,92)" transform="translate(0,0)"></path>
<path d="M 815.426 585.99 L 975.617 586.078 C 983.911 586.085 1020.7 585.093 1025.34 586.466 C 1027.55 589.348 1026.81 588.888 1026.98 593.358 C 975.157 594.779 922.223 592.537 870.272 593.479 C 854.308 593.769 832.742 594.45 817.244 593.155 C 815.426 590.625 815.821 589.379 815.426 585.99 z" fill="rgb(26,58,92)" transform="translate(0,0)"></path>
<path d="M 1017.81 639.499 C 1022.38 639.331 1023.59 639.005 1026.73 642.466 L 1026.53 645.193 C 1023.29 647.824 1015.28 647.285 1010.88 647.241 C 993.095 647.061 975.327 646.953 957.543 646.956 L 823.75 647.022 C 821.271 647.097 820.004 647.015 817.529 646.787 C 815.71 644.273 816.296 644.996 816.367 641.154 C 820.099 638.602 875.368 639.724 883.515 639.712 L 1017.81 639.499 z" fill="rgb(26,58,92)" transform="translate(0,0)"></path>
<path d="M 815.429 425.808 L 962.144 425.815 C 971.911 425.815 1017.64 425.07 1024.48 426.066 C 1026.67 428.83 1025.93 428.585 1026.11 432.985 L 884.229 432.963 C 869.483 432.975 828.332 433.984 816.924 432.63 C 814.811 430.201 815.562 430.015 815.429 425.808 z" fill="rgb(26,58,92)" transform="translate(0,0)"></path>
<path d="M 815.181 533.049 L 950.927 532.955 C 972.658 532.921 1004 531.985 1024.89 533.276 C 1027.08 534.996 1026.65 536.456 1027.25 539.879 C 980.545 541.749 931.646 539.136 884.694 540.175 C 863.225 540.65 838.884 540.838 817.671 539.788 C 815.311 537.744 815.834 536.745 815.181 533.049 z" fill="rgb(26,58,92)" transform="translate(0,0)"></path>
<path d="M 1515.84 766.783 C 1519.53 771.662 1516.58 856.497 1517.98 869.027 C 1518.3 871.926 1521.1 873.287 1521.08 877.485 L 1514.11 1362.79 C 1496.62 1373.15 1470.8 1385.23 1461.04 1403.11 L 1118.75 1403.07 L 1116.21 1402.59 C 1114.02 1398.91 1115.42 1303.63 1115.45 1294.03 L 1115.83 1099.18 C 1172.49 1098.52 1228.87 1099.49 1285.98 1098.97 C 1296.73 1098.87 1359.8 1100.41 1369.71 1097.04 C 1374.21 1095.52 1372.99 1065.05 1372.93 1056.19 C 1389.05 1055.81 1467.77 1057.52 1477.23 1054.58 C 1479.65 1052.01 1480.59 1043.82 1480.69 1040.29 C 1482.81 963.943 1477.11 885.107 1481.88 809.022 C 1499.52 796.627 1505.31 785.092 1515.84 766.783 z" fill="rgb(221,242,250)" transform="translate(0,0)"></path>
<path d="M 756.596 1085.89 L 809.668 1085.72 C 810.007 1093.21 809.934 1099.42 819.281 1099.41 C 844.321 1099.4 869.349 1099.11 894.397 1099.08 L 1060.25 1098.99 L 1060.16 1402.9 C 1055.91 1403.62 1038.79 1403.43 1034.06 1403.43 L 982.998 1403.33 L 810.252 1403.25 L 756.596 1085.89 z" fill="rgb(221,242,250)" transform="translate(0,0)"></path>
<path d="M 1569.67 604.936 C 1572.12 605.565 1598.43 633.172 1602.98 637.334 C 1602.67 643.62 1601.1 653.757 1608.16 656.953 L 1610.35 656 C 1615.5 649.274 1614.2 645.238 1613.97 636.559 C 1624.22 628.482 1637 614.272 1645.9 604.643 C 1663.48 615.509 1705.68 631.241 1716.66 644.267 C 1736.82 668.162 1730.36 745.354 1729.74 775.53 C 1729.1 830.013 1727.61 884.482 1725.28 938.918 L 1690.1 938.617 C 1689.37 887.006 1690.56 834.599 1689.95 782.928 C 1689.85 774.663 1690.6 736.85 1689.3 732.36 C 1687.25 729.671 1686.92 729.449 1683.79 728.155 C 1679.04 728.941 1678.11 734.383 1678.06 738.64 C 1677.89 751.873 1678.21 765.138 1678.22 778.395 C 1678.13 809.616 1678.27 840.837 1678.62 872.056 C 1659.22 873.188 1631.06 872.354 1611.03 872.202 L 1611.01 699.5 C 1611.2 692.383 1612.64 687.393 1606.1 682.964 C 1601.57 682.929 1600.18 686.454 1600.11 690.614 C 1599.78 709.992 1599.92 729.418 1599.92 748.806 L 1599.8 872.03 C 1581.97 872.928 1547.26 872.766 1529.54 871.964 C 1528.51 861.068 1529.12 842.869 1529.06 831.411 C 1529.1 800.803 1528.69 770.07 1529.07 739.473 C 1529.82 735.069 1524.49 727.769 1519.7 728.949 C 1508.85 731.619 1505.55 756.174 1501.62 765.902 C 1498.71 773.294 1494.73 780.221 1489.82 786.468 C 1483.12 794.896 1467.35 808.082 1456.23 800.109 C 1440.22 788.625 1424.63 774.402 1409.61 761.559 C 1385.9 741.493 1361.99 721.668 1337.88 702.087 C 1343.88 695.823 1356.39 680.888 1361.36 674.028 C 1371.94 681.437 1448.04 734.861 1455.94 733.99 C 1468.73 723.105 1472.13 686.889 1477.91 670.304 C 1481.27 660.677 1486.64 650.003 1494.21 642.978 C 1503.19 634.651 1554.6 612.208 1569.67 604.936 z" fill="rgb(0,190,242)" transform="translate(0,0)"></path>
<path d="M 1095 393.147 C 1170.92 392.475 1250.09 392.753 1325.92 393.451 L 1325.97 542.841 C 1325.99 577.67 1325.49 612.598 1327.22 647.361 C 1316.91 640.724 1308.03 635.251 1297.35 629.261 C 1294.06 627.792 1288.32 626.327 1285.13 627.85 C 1274.02 633.147 1286.89 657.501 1289.84 664.016 L 1094.91 664.141 L 1095 393.147 z" fill="rgb(242,246,251)" transform="translate(0,0)"></path>
<path d="M 1217.2 412.846 L 1308.74 412.943 C 1308.94 471.289 1310.43 537.515 1308.7 595.224 L 1217.66 595.564 L 1217.2 412.846 z" fill="rgb(40,120,232)" transform="translate(0,0)"></path>
<path d="M 1109.92 477.597 L 1200.8 477.774 L 1200.87 595.403 C 1170.77 595.04 1140.19 595.771 1109.95 595.692 L 1109.92 477.597 z" fill="rgb(15,34,55)" transform="translate(0,0)"></path>
<path d="M 346.147 1085.06 L 385.001 1085.06 L 385.029 1101.17 C 373.769 1103.74 358.773 1110.3 356.447 1122.59 C 354.122 1134.87 351.395 1177.52 357.011 1187.13 C 360.757 1190.4 386.224 1189.03 392.833 1188.98 L 458.952 1188.41 L 458.89 1297.95 C 458.854 1318.88 459.263 1341.38 458.387 1362.14 C 443.041 1362.07 396.336 1361.04 384.218 1362.94 C 363.948 1370.3 356.847 1386.57 372.662 1403.65 C 345.19 1403.81 317.716 1403.78 290.244 1403.54 L 328.311 1185.58 C 333.795 1154.59 342.733 1115.32 346.147 1085.06 z" fill="rgb(221,242,250)" transform="translate(0,0)"></path>
<path d="M 530.488 1085.65 L 719.551 1085.55 C 725.358 1110.38 730.925 1150.19 735.242 1175.98 L 755.394 1293.11 C 761.561 1330.1 766.779 1365.54 774.458 1402.33 L 773.057 1403.3 C 765.62 1403.29 699.665 1404.05 699.042 1403.05 C 697.92 1401.26 698.442 1397.81 697.418 1396.09 C 694.18 1390.63 662.179 1371.45 654.88 1366.59 L 656.919 1195.09 C 657.046 1178.19 657.062 1161.33 656.965 1144.42 C 656.894 1132.09 653.59 1120.61 644.57 1111.77 C 629.645 1097.15 604.047 1100.03 584.602 1100.03 L 528.566 1100.09 L 530.488 1085.65 z" fill="rgb(221,242,250)" transform="translate(0,0)"></path>
<path d="M 450.855 871.344 C 465.027 867.829 468.258 889.326 501.344 872.35 C 519.138 875.368 541.168 871.728 556.322 882.072 C 561.702 885.745 572.731 895.833 571.857 902.958 C 565.381 908.487 563.899 922.007 561.572 930.631 L 543.971 995.694 C 526.949 990.88 499.651 992.567 481.237 992.763 C 458.788 993.13 436.335 993.274 413.883 993.196 C 415.79 987.845 419.669 978.593 419.571 973.305 C 417.673 969.258 418.754 970.201 415.428 967.847 L 412.67 968.427 C 405.821 973.927 398.157 996.27 401.253 1004.37 C 405.708 1007.68 453.605 1005.95 462.5 1005.89 C 474.887 1005.92 537.159 1000.14 538.256 1018.39 C 530.518 1030.15 476.478 1021.57 462.898 1025.71 C 460.139 1026.56 460.402 1040.41 460.337 1044.73 C 443.024 1044.72 377.428 1048.13 366.15 1041.37 C 359.226 1037.23 353.36 1029.42 351.837 1021.44 C 351.015 1017.13 351.536 1012.91 352.19 1008.62 C 354.741 991.876 359.405 975.188 362.862 958.593 C 366.603 940.633 369.139 921.783 374.397 904.235 C 375.512 900.515 376.928 897.463 379.19 894.278 C 393.219 874.523 428.528 875.056 450.855 871.344 z" fill="rgb(40,120,232)" transform="translate(0,0)"></path>
<path d="M 579.599 915.005 L 771.872 914.885 C 758.653 955.962 747.352 1002.51 735.243 1044.63 L 665.5 1044.6 C 646.268 1044.53 477.054 1045.62 474.569 1043.89 C 473.996 1040.8 473.876 1040.62 474.783 1037.7 C 493.162 1033.41 524.598 1043.18 541.122 1034.09 C 551.243 1028.52 574.779 930.657 579.599 915.005 z" fill="rgb(0,190,242)" transform="translate(0,0)"></path>
<path d="M 1263.51 721.489 C 1290.1 721.181 1316.69 721.143 1343.28 721.373 C 1347.13 724.054 1351.12 727.574 1354.77 730.628 C 1354.82 750.762 1357.02 858.819 1352.21 868.652 C 1345.04 872.648 1306.29 871.011 1295.5 870.958 C 1282.91 870.997 1213.11 872.141 1205.58 869.633 C 1203.23 866.095 1201.86 853.44 1202.2 849.529 C 1203.73 831.977 1198.79 733.088 1205.06 724.303 C 1213.1 720.146 1252.15 721.519 1263.51 721.489 z" fill="rgb(213,239,249)" transform="translate(0,0)"></path>
<path d="M 667.439 238.914 L 1508.97 238.908 C 1509.01 247.178 1509.28 256.593 1508.6 264.742 L 667.36 265.246 C 667.662 256.481 667.507 247.685 667.439 238.914 z" fill="rgb(0,190,242)" transform="translate(0,0)"></path>
<path d="M 464.523 1114.47 C 475.234 1114.21 485.945 1114.02 496.657 1113.88 C 509.812 1113.82 518.958 1114.93 528.904 1124.08 C 543.188 1137.22 539.845 1153.79 539.785 1171.18 C 539.747 1182.31 539.443 1193.3 539.311 1204.34 C 538.235 1256.93 537.482 1309.53 537.053 1362.13 C 515.71 1362.42 493.656 1362.09 472.26 1362.04 C 471.142 1356.39 471.379 1327.69 471.344 1319.7 L 471.688 1212.39 C 471.762 1204.49 473.264 1184.88 470.813 1178.19 C 465.291 1173.99 448.427 1175.74 440.857 1175.59 C 393.606 1174.67 397.113 1151.69 397.912 1114.84 C 420.116 1114.97 442.322 1114.85 464.523 1114.47 z" fill="rgb(40,120,232)" transform="translate(0,0)"></path>
<path d="M 575.766 1113.5 C 593.994 1113.3 641.904 1107.39 643.534 1135.76 C 645.055 1162.24 644.09 1191.47 643.741 1218.17 L 642.732 1363.08 L 606.061 1363.03 L 578.016 1362.98 C 578.186 1326.89 576.629 1289.83 576.898 1253.35 C 577.037 1234.49 577.744 1193.5 575.795 1177.12 C 571.796 1173.83 558.78 1174.95 552.982 1175.02 C 553.46 1144 556.202 1137.89 538.096 1113.65 L 575.766 1113.5 z" fill="rgb(40,120,232)" transform="translate(0,0)"></path>
<path d="M 1603.07 960.262 C 1605.02 960.612 1605.23 960.802 1607.05 961.647 C 1609.62 968.34 1612.44 1039.09 1613.15 1052.49 L 1625.89 1267.62 L 1629.75 1326.01 C 1630.6 1339.32 1631.04 1353 1632.99 1366.16 C 1633.59 1370.2 1636.29 1367 1640.51 1370.09 C 1641.33 1378.95 1638.69 1390.7 1639.45 1403.1 L 1610.5 1403.04 L 1572.73 1403.01 C 1572.98 1396.18 1571.67 1371.52 1573.2 1368.89 C 1575.91 1368.35 1577.36 1368.27 1579.69 1366.74 C 1581.16 1361.62 1582.01 1337.43 1582.39 1330.53 L 1586.76 1253.72 C 1591.4 1185.3 1595.56 1116.84 1599.24 1048.36 C 1600.73 1019.5 1602.75 988.992 1603.07 960.262 z" fill="rgb(221,242,250)" transform="translate(0,0)"></path>
<path d="M 827.226 1056.85 L 1354.08 1056.73 C 1354.16 1064.65 1354.45 1073.33 1353.88 1081.17 L 1022.35 1081.09 C 958.894 1081.08 890.239 1079.76 827.138 1081.73 L 827.226 1056.85 z" fill="rgb(0,190,242)" transform="translate(0,0)"></path>
<path d="M 245.306 1056.58 C 323.838 1058.46 409.453 1057.45 488.205 1057.19 L 804.938 1057.03 L 804.821 1072.82 L 245.363 1072.33 L 245.306 1056.58 z" fill="rgb(40,120,232)" transform="translate(0,0)"></path>
<path d="M 1077.83 1099.9 L 1097.88 1099.9 L 1097.87 1402.3 C 1091.27 1402.3 1084.42 1402.51 1077.8 1402.62 L 1077.83 1099.9 z" fill="rgb(0,190,242)" transform="translate(0,0)"></path>
<path d="M 1565.02 514.232 C 1591.51 525.177 1623.65 523.134 1651.47 519.374 C 1649.27 538.991 1646.65 552.04 1637.07 569.563 C 1624.01 587.728 1603.11 592.548 1585.87 576.352 C 1571.28 562.646 1565.51 533.571 1565.02 514.232 z" fill="rgb(228,170,145)" transform="translate(0,0)"></path>
<path d="M 467.145 782.408 C 484.07 795.348 492.604 800.374 513.502 804.432 C 515.233 810.207 516.613 817.436 517.92 823.418 C 511.802 840.102 505.469 854.297 490.485 864.575 C 464.344 874.91 447.215 841.317 442.042 820.858 C 453.943 807.939 462.52 799.619 467.145 782.408 z" fill="rgb(228,170,145)" transform="translate(0,0)"></path>
<path d="M 323.883 1084.97 C 327.317 1084.89 331.476 1084.25 334.056 1086.16 C 335.294 1089.1 324.718 1137.14 323.459 1143.98 L 278.804 1399.68 C 275.437 1399.76 273.618 1400.12 270.618 1398.82 C 268.431 1395.01 275.598 1358.87 276.81 1351.88 L 288.322 1284.35 L 323.883 1084.97 z" fill="rgb(0,190,242)" transform="translate(0,0)"></path>
<path d="M 733.863 1086.16 C 737.248 1086.03 738.244 1085.81 741.432 1086.72 C 746.204 1091.12 745.824 1102.81 746.919 1109.76 C 749.252 1123.74 751.802 1137.69 754.569 1151.6 C 770.33 1234.69 782.25 1319.93 797.422 1403.14 C 793.722 1403.27 790.939 1403.71 787.519 1402.4 C 785.138 1394.22 782.316 1375.02 780.742 1366.03 C 776.545 1342.43 772.466 1318.82 768.506 1295.18 C 756.261 1225.62 744.713 1155.95 733.863 1086.16 z" fill="rgb(0,190,242)" transform="translate(0,0)"></path>
<path d="M 552.318 1187.33 L 563.625 1187.44 C 563.595 1238.07 563.949 1288.71 564.687 1339.35 C 564.834 1345.58 567.423 1382.54 566.652 1384.03 L 549.901 1362.91 L 552.318 1187.33 z" fill="rgb(229,248,252)" transform="translate(0,0)"></path>
<path d="M 398.084 1085.23 L 517.836 1085.35 C 517.027 1090.36 515.903 1095.73 514.954 1100.75 C 512.913 1101.95 410.094 1101.25 398.015 1101.23 L 398.084 1085.23 z" fill="rgb(40,120,232)" transform="translate(0,0)"></path>
<path d="M 398.553 1375.03 C 418.631 1375.29 439.055 1375.09 459.161 1375.07 C 459.253 1381.47 460.748 1399.71 457.417 1403.63 L 453.25 1403.9 L 391.679 1403.75 C 402.85 1394.01 402.456 1388.33 398.553 1375.03 z" fill="rgb(229,248,252)" transform="translate(0,0)"></path>
<path d="M 1336.79 637.596 C 1344.8 644.829 1348.44 659.475 1351.46 669.684 C 1345.02 677.106 1337.21 685.072 1332.44 693.448 C 1322.95 686.083 1313.21 679.745 1306.57 669.845 C 1299.93 659.577 1295.42 649.765 1291.22 638.332 C 1302.81 642.952 1324.96 663.782 1335.29 660.128 C 1339.23 655.028 1336.18 644.956 1336.79 637.596 z" fill="rgb(228,170,145)" transform="translate(0,0)"></path>
<path d="M 1691.05 949.04 C 1702.18 948.918 1713.49 949.024 1724.64 949.024 C 1724.58 962.545 1725.84 972.378 1718.79 984.054 C 1712.82 988.942 1703.56 993.856 1697.36 986.455 C 1688.91 976.381 1690.67 961.259 1691.05 949.04 z" fill="rgb(228,170,145)" transform="translate(0,0)"></path>
<path d="M 381.201 1114.7 C 385.368 1115.14 384.811 1115.04 384.884 1119.59 C 385.317 1146.54 381.12 1155.62 399.623 1176.54 L 388.25 1176.62 L 366.97 1176.64 C 367.008 1165.37 366.503 1153.97 366.64 1142.7 C 366.812 1128.57 367.551 1121 381.201 1114.7 z" fill="rgb(0,190,242)" transform="translate(0,0)"></path>
<path d="M 1637.4 587.453 L 1638 597.486 L 1626.87 608.84 C 1621.22 614.911 1614.31 621.248 1608.27 627.041 C 1597.88 616.589 1588.79 609.857 1579.58 597.731 L 1581.32 588.06 C 1601.39 599.968 1617.9 599.314 1637.4 587.453 z" fill="rgb(228,170,145)" transform="translate(0,0)"></path>
<path d="M 546.064 1393.35 C 549.224 1395.34 556.912 1400.11 557.33 1403.64 C 553.396 1403.8 548.716 1404.48 545.331 1402.92 C 544.002 1399.26 545.124 1397.73 546.064 1393.35 z" fill="rgb(229,248,252)" transform="translate(0,0)"></path>
<metadata><recraft-signature>{"signed_by": "recraft", "signature_b64": "G2IMgIud4onbnZwNIW1qr2ZUL9OyIdg+6kV6FuVUYaOgA5Mv8+LuXSCRIEFp/zxFKVwIntZsjz4NqM5yGyHfDA==", "signing_algo": "Ed25519", "generation_timestamp": 1776431458, "identifier": "8c0c5df9-8266-4d7f-8e5a-856907f84cc0"}</recraft-signature></metadata></svg>