<svg xmlns="http://www.w3.org/2000/svg" height="1024" preserveAspectRatio="none" style="display: block;" version="1.1" viewBox="0 0 2048 1536" width="1365">
<path d="M 0 0 L 2048 0 L 2048 1536 L 0 1536 L 0 0 z" fill="rgb(242,246,251)" transform="translate(0,0)"></path>
<path d="M 1597.71 177.232 C 1621.15 157.745 1673.33 134.887 1703.1 129.243 C 1720.11 126.174 1737.45 125.453 1754.66 127.099 C 1815.19 132.795 1866.39 168.611 1904.61 214.375 C 1943.75 261.246 1963.86 315.875 1981.12 373.473 C 2063.78 649.313 1997.06 960.838 1821.53 1186.83 C 1806.85 1205.73 1787.1 1222.49 1772.85 1241.29 C 1771.92 1292.78 1772.79 1347.1 1772.79 1398.84 C 1841.75 1399.77 1911.08 1398.25 1980.06 1399.37 C 1983.42 1399.43 1985.86 1400.15 1988.6 1402.08 C 1990.45 1405.47 1990.21 1403.76 1989.66 1407.34 C 1987.41 1410.3 1985.43 1411.31 1981.59 1411.26 C 1951.6 1410.92 1921.6 1411.02 1891.6 1411.04 L 1669.35 1411.12 L 338.997 1411.17 L 112.235 1411.43 C 95.4775 1411.36 74.298 1412.11 57.4182 1410.74 C 53.4285 1410.42 53.0104 1405.19 54.8346 1401.59 C 60.4801 1397.41 78.1359 1398.89 85.7121 1398.89 C 101.325 1399.04 116.939 1398.79 132.54 1398.15 C 131 1296.91 132.592 1191.28 132.859 1089.74 C 118.912 1089.39 103.59 1090.9 89.9341 1089.11 C 78.8385 1087.64 76.8465 1074 79.4611 1065.17 C 80.9104 1060.28 85.2465 1058.39 89.5093 1056.28 C 94.353 1055.32 117.645 1056.04 124.545 1056.11 C 144.382 1056.31 164.22 1056.28 184.056 1056.01 C 174.932 1040.71 166.017 1016.31 158.432 999.578 C 98.3126 866.944 26.2783 655.701 95.3431 516.628 C 159.292 401.083 313.838 315.34 432.802 273.478 C 574.238 223.709 704.654 240.241 831.901 313.401 C 870.307 335.482 914.852 357.062 954.749 377.134 C 954.698 364.784 953.815 305.24 955.76 297.421 C 957.22 263.983 953.606 226.732 956.643 193.202 C 957.245 186.554 965.119 181.428 970.524 178.091 C 991.219 176.86 1018.29 177.426 1039.39 177.368 L 1163.83 177.304 L 1462.73 177.202 C 1507.72 177.464 1552.72 177.474 1597.71 177.232 z" fill="rgb(15,34,55)" transform="translate(0,0)"></path>
<path d="M 979.185 660.628 L 979.043 364.522 L 979.09 261.994 C 979.079 245.209 978.181 220.448 979.498 204.661 C 983.026 201.774 986.869 202.081 991.886 202.051 C 1044.99 201.739 1098.28 201.729 1151.37 201.742 L 1452.34 201.744 L 1694.99 201.608 C 1740.02 201.507 1793.23 199.934 1837.5 201.876 L 1837.75 607.103 C 1837.61 663.411 1838.82 723.303 1837.38 779.162 L 1686.57 779.046 C 1663.97 779.072 1641.35 779.009 1618.75 779.467 C 1610.3 779.638 1607.16 780.552 1603.91 788.691 C 1586.15 786.932 1544.47 788.117 1524.9 788.385 L 1523.43 784.019 C 1518.93 763.317 1508.97 776.653 1498.47 772.14 C 1471.31 760.461 1436.17 748.361 1425.37 788.262 C 1409.27 786.316 1372.19 787.063 1356.25 787.326 L 1355.32 786.645 C 1353.93 783.186 1352.58 780.767 1348.94 779.364 C 1342 776.689 1265.93 778.658 1250.24 778.669 L 979.58 778.959 C 979.43 759.305 979.518 739.651 979.844 720 C 992.273 710.695 989.143 696.56 986.446 683.526 C 993.861 677.374 1003.09 672.19 1004.52 661.71 C 1001.25 652.767 985.964 658.665 979.185 660.628 z" fill="rgb(242,246,251)" transform="translate(0,0)"></path>
<path d="M 1368.34 320.311 C 1382.37 319.585 1439.28 316.971 1448.51 323.859 C 1451.58 333.592 1450.29 418.674 1450.32 433.184 L 1450.81 661.598 L 1490.18 661.35 L 1490.36 525.526 C 1490.35 503.487 1489.92 481.365 1490.28 459.336 C 1490.32 456.807 1491.05 449.146 1492.91 447.487 C 1498.93 442.105 1508.94 443.119 1516.43 443.311 C 1530.79 444.172 1544.66 443.427 1558.98 443.302 C 1565.14 443.248 1571.78 443.39 1576.35 447.941 C 1580.34 458.399 1578.83 511.891 1578.85 525.351 L 1579.08 661.486 L 1617.94 661.167 C 1617.97 645.465 1617.91 629.763 1617.75 614.062 C 1617.64 604.736 1617.15 594.079 1617.99 584.872 C 1619.07 572.907 1635.06 576.028 1643.11 576.087 C 1653.62 576.165 1664.91 575.841 1675.49 575.85 C 1681.2 576.026 1691.6 575.366 1696.77 577.749 C 1705.7 581.858 1704.37 601.579 1704.32 609.275 C 1704.23 626.519 1704.16 643.463 1704.06 660.556 C 1713.43 660.51 1733.69 657.469 1739.38 664.905 C 1739.65 671.58 1734.2 672.427 1728.67 672.452 C 1712.91 672.52 1697.13 672.344 1681.36 672.295 L 1583.96 672.103 L 1268.5 672.257 L 1131.55 672.294 C 1115.95 672.33 1076.09 673.486 1063.19 671.828 C 1060.18 669.528 1061.31 670.93 1059.76 667.395 C 1061.28 662.174 1064.59 660.963 1069.78 661.054 C 1080.97 661.249 1092.17 661.203 1103.37 661.225 L 1103.47 486.693 C 1103.47 452.435 1103.14 418.135 1103.82 383.884 C 1103.54 375.469 1106.76 369.766 1116.31 369.151 C 1133.65 368.035 1152.34 370.14 1169.88 368.701 C 1176.41 368.165 1185.79 369.185 1190.37 373.862 C 1193.14 376.677 1192.24 381.211 1192.73 384.892 C 1193.24 422.517 1192.75 460.478 1192.56 498.082 L 1193.06 661.069 L 1232.96 661.241 C 1233.31 635.471 1230.62 503.779 1235.86 490.041 C 1242.07 484.824 1311.85 485.625 1319.22 489.505 C 1324.64 495.713 1322.46 547.711 1322.4 558.423 L 1322.18 661.493 L 1361.73 661.283 L 1361.95 434.22 L 1361.88 365.426 C 1361.87 353.75 1361.65 341.397 1362.31 329.722 C 1362.58 325.076 1364.93 323.113 1368.34 320.311 z" fill="rgb(15,34,55)" transform="translate(0,0)"></path>
<path d="M 1375.4 331.477 C 1395.58 330.865 1417.84 331.295 1438.06 331.645 L 1438.15 576.347 C 1438.17 590.546 1439.95 652.027 1437.6 660.865 L 1435.92 661.515 C 1414.97 661.184 1394.01 661.12 1373.05 661.322 L 1372.82 422.454 L 1372.88 365.056 C 1372.86 357.547 1372.29 338.916 1373.44 332.661 L 1375.4 331.477 z" fill="rgb(40,120,232)" transform="translate(0,0)"></path>
<path d="M 1114.98 380.901 C 1136.66 380.507 1159.42 380.877 1181.18 380.894 L 1181.78 661.829 C 1159.54 661.532 1137.3 661.371 1115.06 661.345 C 1114.72 568.53 1113.83 473.641 1114.98 380.901 z" fill="rgb(40,120,232)" transform="translate(0,0)"></path>
<path d="M 1503.87 454.452 C 1524.81 454.429 1546.09 454.892 1567.05 455.166 L 1567.27 604.981 C 1567.27 612.024 1567.78 656.089 1566.73 660.968 L 1565.03 661.871 L 1501.81 661.891 C 1501.37 615.582 1501.26 569.271 1501.5 522.961 C 1501.56 502.13 1501.5 480.314 1502 459.442 C 1502.08 456.333 1502.21 456.257 1503.87 454.452 z" fill="rgb(40,120,232)" transform="translate(0,0)"></path>
<path d="M 1244.94 498.688 C 1264.68 497.827 1290.94 498.701 1311.18 498.763 L 1310.79 661.723 C 1288.63 661.4 1266.46 661.309 1244.3 661.448 C 1244.17 607.194 1244.39 552.94 1244.94 498.688 z" fill="rgb(40,120,232)" transform="translate(0,0)"></path>
<path d="M 1629.13 587.845 C 1649.56 587.08 1673.55 587.46 1694 587.991 L 1694.19 661.035 L 1629.17 661.262 L 1629.13 587.845 z" fill="rgb(0,190,242)" transform="translate(0,0)"></path>
<path d="M 184.056 1056.01 C 174.932 1040.71 166.017 1016.31 158.432 999.578 C 98.3126 866.944 26.2783 655.701 95.3431 516.628 C 159.292 401.083 313.838 315.34 432.802 273.478 C 574.238 223.709 704.654 240.241 831.901 313.401 C 870.307 335.482 914.852 357.062 954.749 377.134 C 954.698 364.784 953.815 305.24 955.76 297.421 C 957.283 420.693 957.037 543.98 955.021 667.244 C 946.102 671.721 939.035 676.989 931.175 683.221 C 931.246 683.166 924.061 682.946 924.021 682.98 C 903.948 700.127 887.353 727.641 869.968 747.056 C 859.539 678.072 838.802 618.999 761.156 604.098 L 761.285 589.453 C 775.186 577.729 776.015 565.827 776.299 548.476 C 788.778 535.447 796.654 514.402 777.198 503.022 C 776.539 483.275 774.813 460.736 759.284 446.428 C 738.054 426.868 697.923 428.581 678.746 449.847 C 663.554 466.694 666.864 480.933 664.118 501.048 C 663.621 504.693 651.358 514.473 654.132 522.901 C 654.471 531.82 659.793 541.091 666.401 547.169 C 666.949 563.314 666.882 577.293 679.929 588.514 C 680.316 588.848 679.596 601.715 679.372 604.665 C 648.45 612.092 617.242 624.912 601.216 653.997 C 565.892 718.104 572.07 838.005 577.238 908.081 C 566.487 908.019 515.432 906.015 507.372 910.65 C 504.262 912.439 495.195 948.089 492.968 956.121 C 478.703 920.996 470.117 902.15 428.915 896.339 C 424.98 895.784 406.202 894.289 404.543 892.351 C 406.329 889.109 415.363 881.231 418.402 877.714 C 429.7 864.638 429.26 842.431 429.952 826.328 C 432.419 824.513 435.821 822.166 438.069 820.219 C 449.225 784.006 424.404 796.413 419.452 791.897 C 395.58 770.128 379.311 747.087 351.502 783.548 C 324.932 792.983 316.992 814.693 335.543 837.039 C 333.856 853.148 338.66 866.854 348.821 879.435 C 349.523 880.303 350.234 881.163 350.955 882.014 L 297.949 881.894 C 269.654 881.853 238.363 878.326 216.201 899.718 C 193.735 921.405 202.961 953.11 206.251 980.118 C 209.367 1005.69 213.45 1031.1 216.257 1056.62 C 188.432 1057.02 160.606 1057.18 132.779 1057.11 C 123.115 1057.12 97.9721 1057.58 89.5093 1056.28 C 94.353 1055.32 117.645 1056.04 124.545 1056.11 C 144.382 1056.31 164.22 1056.28 184.056 1056.01 z" fill="rgb(213,239,249)" transform="translate(0,0)"></path>
<path d="M 954.078 735.865 C 956.122 809.34 939.852 802.138 1017.19 801.926 L 1105.62 801.847 L 1311.32 801.859 C 1321.84 801.777 1342.97 805.024 1352.02 799.178 C 1355.68 796.814 1355.3 790.774 1355.32 786.645 L 1356.25 787.326 C 1372.19 787.063 1409.27 786.316 1425.37 788.262 L 1424.9 797.233 C 1428.2 809.704 1407.55 811.597 1426.04 832.278 C 1425.47 858.574 1436.95 862.1 1444.71 884.015 C 1445.04 884.953 1444.83 884.795 1444.17 885.843 C 1436.57 888.07 1429.21 887.176 1421.59 888.472 C 1413.82 889.876 1405.81 893.968 1397.99 894.801 C 1368.65 897.929 1330.45 888.716 1308.26 913.722 C 1290.32 933.948 1294.9 962.963 1296.86 987.565 C 1298.72 1010.83 1301.08 1034.04 1302.81 1057.35 C 1282.43 1057.25 1260.78 1056.12 1240.83 1057.53 C 1224.28 1058.71 1215.79 1074.28 1229.1 1086.47 C 1236.02 1092.8 1251.46 1091.07 1260.23 1090.92 L 1260.67 1304.66 C 1260.71 1322.62 1258.97 1383.57 1262.31 1397.39 C 1255.39 1398.37 1230.58 1397.91 1222.17 1397.91 L 1141.42 1397.91 L 857.362 1398.01 C 853.421 1367.14 828.788 1366.29 803.177 1366.42 L 803.79 842.666 C 804.735 843.587 805.691 844.499 806.655 845.4 C 816.657 854.722 828.691 859.719 842.481 859.271 C 868.048 858.589 879.522 834.738 893.373 817.571 C 913.944 792.075 932.303 759.915 954.078 735.865 z" fill="rgb(213,239,249)" transform="translate(0,0)"></path>
<path d="M 1356.25 787.326 C 1372.19 787.063 1409.27 786.316 1425.37 788.262 L 1424.9 797.233 C 1404.98 794.358 1377.6 796.018 1357.12 795.951 C 1355.87 793.721 1356.28 790.198 1356.25 787.326 z" fill="rgb(229,248,252)" transform="translate(0,0)"></path>
<path d="M 1597.71 177.232 C 1621.15 157.745 1673.33 134.887 1703.1 129.243 C 1720.11 126.174 1737.45 125.453 1754.66 127.099 C 1815.19 132.795 1866.39 168.611 1904.61 214.375 C 1943.75 261.246 1963.86 315.875 1981.12 373.473 C 2063.78 649.313 1997.06 960.838 1821.53 1186.83 C 1806.85 1205.73 1787.1 1222.49 1772.85 1241.29 L 1772.87 1090.93 C 1783.31 1091.14 1791.83 1091.84 1800.51 1085.1 C 1807.91 1079.35 1810.84 1068.73 1803.29 1062.23 C 1792.15 1052.65 1764.61 1055.99 1750.94 1056.11 C 1753.55 1046.2 1760.45 1028.01 1763.95 1017.96 L 1788.41 947.015 C 1790.99 939.398 1798.4 919.279 1799.31 912.208 C 1798.86 911.512 1797.48 908.792 1795.76 908.759 C 1746.22 907.814 1657.52 906.093 1612.06 909.675 C 1606.85 910.085 1593.1 956.128 1588.57 970.045 C 1567.12 914.09 1557.25 893.038 1496.99 887.546 C 1494.68 887.335 1495.68 880.493 1499.21 877.473 C 1512.92 865.749 1515.87 846.446 1518.47 829.556 C 1529.43 820.991 1527.6 814.982 1520.51 804.63 C 1523.14 797.911 1523.2 791.132 1523.43 784.019 L 1524.9 788.385 C 1544.47 788.117 1586.15 786.932 1603.91 788.691 C 1604.28 798.143 1607.33 803.914 1618.29 803.735 C 1631.22 803.524 1644.05 803.35 1656.98 803.332 L 1757.19 803.374 L 1811.9 803.58 C 1822.58 803.628 1834.95 804.291 1845.43 802.948 C 1857.88 801.352 1861.48 788.345 1861.53 777.979 C 1862.08 651.055 1861.88 524.133 1861.97 397.211 L 1861.87 263.292 C 1861.81 242.846 1862.16 221.657 1861.5 201.655 C 1861.04 187.781 1849.73 178.639 1836.95 178.213 C 1813 177.416 1787.2 177.478 1763.43 177.382 L 1597.71 177.232 z" fill="rgb(213,239,249)" transform="translate(0,0)"></path>
<path d="M 687.858 612.214 C 700.532 611.35 715.527 612.304 727.524 611.537 C 813.487 605.976 850.554 671.691 859.216 746.845 C 860.041 754.001 857.966 779.109 867.699 778.576 C 871.983 773.746 870.958 767.099 870.533 761.158 C 878.005 753.525 887.372 741.368 894.244 732.939 C 905.245 719.396 916.447 706.016 927.844 692.803 C 935.476 702.486 943.539 711.822 952.008 720.783 C 944.68 732.307 930.971 748.002 922.184 759.884 C 903.699 784.46 886.558 810.389 867.109 834.173 C 853.517 850.794 839.281 853.661 820.628 843.366 C 794.446 828.916 792.259 790.732 789.982 764.075 C 789.277 755.831 790.116 743.351 787.134 735.936 C 784.053 733.169 785.183 733.356 781.753 732.982 C 774.011 739.035 781.204 786.435 782.834 796.413 C 788.603 821.503 794.447 823.694 793.992 849.754 L 642.518 849.908 C 642.462 812.821 641.775 775.335 641.238 738.219 C 641.158 732.671 641.376 729.91 637.562 726.379 C 626.779 727.357 630.46 748.087 630.598 756.044 C 630.782 769.088 630.882 782.133 630.9 795.178 C 631.051 841.977 630.799 883.52 628.827 930.283 C 617.229 931.806 600.957 931.836 589.292 931.874 C 581.11 862.757 576.646 719.334 611.104 657.732 C 625.543 631.917 660.055 619.096 687.858 612.214 z" fill="rgb(26,58,92)" transform="translate(0,0)"></path>
<path d="M 162.153 1089.92 L 191.067 1090.01 L 219.347 1090.01 C 225.276 1122.48 233.889 1143.47 268.002 1153.3 C 255.8 1160.89 254.153 1166.2 256.487 1180.33 C 263.882 1190.65 265.83 1191.11 278.252 1191.47 L 323.533 1191.13 C 323.476 1209.67 323.057 1229.77 323.524 1248.19 C 324.561 1280.01 323.892 1315.01 323.986 1347.21 C 305.707 1354.15 282.86 1362.91 263.873 1366.38 C 253.619 1368.25 248.037 1364.76 241.411 1379.19 C 238.205 1386.17 240.152 1390.77 242.806 1397.31 L 242.106 1398.4 C 235.372 1399.39 221.351 1399.03 213.834 1399.03 C 196.979 1399.07 180.124 1399.01 163.27 1398.84 C 161.563 1388.58 162.194 1369.52 162.273 1358.54 L 162.662 1297.89 C 162.863 1228.57 162.693 1159.24 162.153 1089.92 z" fill="rgb(242,246,251)" transform="translate(0,0)"></path>
<path d="M 191.067 1090.01 L 219.347 1090.01 C 225.276 1122.48 233.889 1143.47 268.002 1153.3 C 255.8 1160.89 254.153 1166.2 256.487 1180.33 C 230.425 1162.07 206.98 1116.21 191.067 1090.01 z" fill="rgb(213,239,249)" transform="translate(0,0)"></path>
<path d="M 278.252 1191.47 L 323.533 1191.13 C 323.476 1209.67 323.057 1229.77 323.524 1248.19 C 311.427 1236.45 293.253 1207.26 283.311 1192.85 C 281.396 1192.54 280.067 1192.24 278.252 1191.47 z" fill="rgb(221,242,250)" transform="translate(0,0)"></path>
<path d="M 1292.81 1090.93 C 1295.78 1090.82 1297.54 1090.81 1300.5 1091.01 C 1304.02 1095.46 1302.58 1116.13 1311.49 1128.56 C 1325.01 1147.42 1341.55 1152.65 1362.88 1157.31 C 1341.45 1207.29 1418.85 1196.09 1446.01 1196.01 L 1446 1340.76 C 1432.36 1347.03 1418.63 1353.11 1404.82 1358.99 C 1392.19 1364.8 1385.53 1363.55 1373.39 1367.5 C 1359.77 1371.93 1358.11 1385.75 1364.21 1397.98 L 1288.97 1398 C 1290.54 1394.85 1291.8 1391.61 1291.87 1388.05 C 1293.81 1289.1 1291.5 1189.87 1292.81 1090.93 z" fill="rgb(213,239,249)" transform="translate(0,0)"></path>
<path d="M 1404.87 1114.07 C 1466.87 1114.23 1528.74 1112.7 1590.78 1116.24 C 1615.89 1117.67 1650.82 1118.6 1653.46 1152.28 C 1654.71 1168.19 1653.36 1187.03 1652.99 1203.2 C 1651.76 1255.97 1652.1 1309.82 1648.49 1362.44 C 1634.86 1363.84 1625.87 1363.4 1612.24 1362.28 C 1610.44 1352.29 1609.93 1324.86 1609.44 1313.74 L 1605.45 1227.56 C 1604.88 1213.66 1604.88 1197.44 1602.42 1183.81 C 1601.54 1178.88 1599.22 1176.28 1595.95 1172.77 C 1580.52 1162.04 1574.96 1173.75 1569.55 1153.27 C 1566.53 1141.83 1554.24 1135.3 1543.49 1131.03 C 1557.8 1143.97 1562.32 1151.34 1562.17 1170.9 C 1561.81 1217.15 1560.14 1263.4 1558.44 1309.62 C 1557.78 1327.84 1557.63 1346.81 1556.03 1364.92 C 1543.94 1365.71 1531.81 1365.75 1519.72 1365.05 C 1513.35 1304.21 1510.89 1242.88 1508.71 1181.78 C 1508.65 1179.97 1508.81 1175.34 1508.08 1173.81 C 1501.91 1160.97 1432.28 1179.52 1412.42 1159.79 C 1401.23 1148.66 1404.53 1128.56 1404.87 1114.07 z" fill="rgb(40,120,232)" transform="translate(0,0)"></path>
<path d="M 439.296 1089.08 L 597.526 1088.96 C 596.292 1190.96 597.511 1295.82 597.522 1398.08 L 560.704 1398.01 C 553.886 1373.53 531.878 1377.06 511.856 1376.28 C 515.517 1370.02 516.34 1365.37 516.606 1358.14 C 517.946 1321.73 516.46 1130.43 497.284 1111.01 C 484.801 1098.37 455.542 1102.61 439.2 1102.79 L 439.296 1089.08 z" fill="rgb(213,239,249)" transform="translate(0,0)"></path>
<path d="M 1436.95 897.395 L 1442.03 897.053 C 1452.02 900.927 1465.47 960.31 1487.26 923.613 C 1492.89 914.132 1494.23 908.76 1495.64 897.668 C 1509.99 899.099 1525.83 901.884 1538.44 909.043 C 1562.13 922.484 1574.88 964.242 1581.21 989.857 C 1575.13 1008.73 1568.65 1027.29 1562.58 1046.46 C 1557.18 1038.3 1541.17 1009.41 1536.17 1006.46 C 1522.3 1008.95 1539.95 1027.67 1540.4 1031.45 C 1533.63 1031.68 1527.49 1031.9 1520.71 1032.51 C 1515.19 1029.55 1509.69 1026.55 1504.22 1023.49 C 1491.38 1024.73 1465.89 1021.34 1451.78 1019.93 C 1446.05 1019.18 1440.31 1018.73 1434.56 1018.23 C 1433.93 1006.09 1435.96 993.231 1435.05 980.997 C 1434.65 975.654 1430.33 972.461 1425.09 973.294 C 1416.88 979.29 1413.83 1016.73 1419.02 1025.11 C 1426.65 1029.56 1473.85 1033.56 1485.21 1034.43 C 1485.03 1043.33 1484.48 1048.87 1483.4 1057.63 C 1445.08 1057.27 1406.76 1057.12 1368.44 1057.18 C 1363.67 1053.03 1360.12 1048.27 1360.13 1041.17 C 1360.22 1005.35 1365.17 946.742 1387.08 917.401 C 1397.32 903.692 1422.27 898.816 1436.95 897.395 z" fill="rgb(40,120,232)" transform="translate(0,0)"></path>
<path d="M 1546.02 1090.92 L 1740.04 1091.28 L 1739.98 1278.92 C 1740.63 1318.67 1739.16 1359.74 1740.23 1398.98 L 1697.52 1398.99 C 1690.05 1370 1669.18 1381.99 1653.32 1375.46 C 1654.04 1369.99 1654.64 1371.88 1657.03 1368.38 C 1661.13 1362.37 1660.5 1340.24 1660.94 1331.9 C 1661.83 1311.09 1662.58 1290.27 1663.19 1269.44 C 1663.84 1243.9 1664.3 1218.35 1664.56 1192.8 C 1664.73 1180.27 1665.95 1156.52 1663.6 1145.42 C 1661.93 1137.18 1657.96 1129.58 1652.15 1123.49 C 1631.14 1101.68 1576.4 1104.56 1546.05 1104.16 L 1546.02 1090.92 z" fill="rgb(213,239,249)" transform="translate(0,0)"></path>
<path d="M 1660.94 1331.9 C 1674.12 1326.75 1695.33 1311.78 1707.09 1303.33 C 1715.76 1297.09 1730.84 1281.88 1739.98 1278.92 C 1740.63 1318.67 1739.16 1359.74 1740.23 1398.98 L 1697.52 1398.99 C 1690.05 1370 1669.18 1381.99 1653.32 1375.46 C 1654.04 1369.99 1654.64 1371.88 1657.03 1368.38 C 1661.13 1362.37 1660.5 1340.24 1660.94 1331.9 z" fill="rgb(242,246,251)" transform="translate(0,0)"></path>
<path d="M 1644.35 918.506 C 1686.76 918.323 1746.2 916.436 1787.25 918.84 C 1773.3 963.347 1754.78 1011.16 1739.81 1056.03 L 1711.5 1056.07 L 1569.75 1056.27 L 1598.58 971.123 C 1604.47 954.004 1610.45 935.301 1617.15 918.693 L 1644.35 918.506 z" fill="rgb(242,246,251)" transform="translate(0,0)"></path>
<path d="M 1673.34 979.59 C 1678.2 977.119 1684.13 979.013 1686.66 983.836 C 1689.18 988.659 1687.36 994.617 1682.56 997.197 C 1679.41 998.893 1675.59 998.764 1672.57 996.861 C 1669.54 994.957 1667.76 991.573 1667.93 987.999 C 1668.09 984.425 1670.16 981.214 1673.34 979.59 z" fill="rgb(26,58,92)" transform="translate(0,0)"></path>
<path d="M 402.702 904.359 C 461.35 907.889 468.68 917.87 487.526 971.161 C 484.301 983.234 480.682 995.197 476.676 1007.03 L 450.746 1007.39 C 450.9 999.552 452.734 984.765 446.844 979.45 C 443.091 978.797 444.524 978.522 441.301 980.111 C 437.961 984.42 441.035 1022.97 441.318 1032.71 C 425.975 1027.98 421.404 1031.23 406.535 1029.23 C 405.251 1027.07 403.895 1024.96 402.471 1022.9 C 399.329 1018.44 379.2 1016.61 373.223 1015.69 C 360.096 1013.72 347.001 1011.54 333.941 1009.17 C 335.65 998.656 342.727 963.975 338.68 956.682 C 336.209 955.667 336.164 955.881 333.631 956.471 C 329.758 961.144 324.494 1003.86 323.103 1012.76 C 323.119 1014.53 323.002 1015.85 324.052 1017.35 C 326.318 1020.6 384.747 1028.85 393.653 1030.51 C 392.995 1039.23 393.012 1047.94 392.914 1056.69 L 335.17 1056.22 C 306.149 1055.97 263.98 1059.17 273.88 1014.34 C 278.654 992.711 280.339 967.198 286.924 946.048 C 288.771 939.976 291.49 934.205 294.995 928.914 C 306.039 912.479 334.749 908.074 352.523 904.641 C 358.757 911.682 373.981 935.95 382.259 935.524 C 388.647 931.491 397.231 912.622 402.702 904.359 z" fill="rgb(0,190,242)" transform="translate(0,0)"></path>
<path d="M 707.14 980.859 L 721.308 980.882 C 723.375 1000.47 723.796 1037.3 724.784 1058.48 C 727.237 1110.47 730.064 1162.45 733.267 1214.4 L 742.083 1353.06 C 742.562 1360.67 745.88 1366.4 747.022 1372.74 C 748.048 1378.43 747.487 1391.05 747.469 1397.5 L 719.85 1397.7 L 676.938 1397.8 C 676.727 1344.53 683.662 1290.01 687.777 1236.57 L 707.14 980.859 z" fill="rgb(213,239,249)" transform="translate(0,0)"></path>
<path d="M 286.638 1113.74 C 311.02 1114.05 403.341 1112.96 421.194 1122.73 C 425.808 1125.25 429.011 1129.74 430.299 1134.8 C 434.403 1150.93 418.479 1360.53 414.524 1367.21 L 411.75 1367.49 C 400.104 1367.55 388.459 1367.42 376.817 1367.11 C 375.682 1356.86 376.7 1325.51 376.769 1313.31 L 377.177 1203.27 C 377.199 1189.08 378.387 1163 374.557 1150.41 C 372.391 1148.06 372.559 1148.11 369.46 1147.45 C 362.359 1149.5 366.094 1158.91 367.263 1164.69 C 318.446 1165.73 287.917 1177.34 286.638 1113.74 z" fill="rgb(40,120,232)" transform="translate(0,0)"></path>
<path d="M 514.897 919.196 L 578.565 919.306 C 579.243 928.644 580.517 937.478 581.316 946.581 C 582.387 960.284 580.369 974.096 587.547 986.59 C 596.536 1002.23 608.173 1003.83 623.163 995.313 C 621.548 1015.22 620.489 1035.18 619.987 1055.14 L 586.5 1055.05 L 473.789 1054.99 C 485.642 1013.6 501.257 959.921 514.897 919.196 z" fill="rgb(242,246,251)" transform="translate(0,0)"></path>
<path d="M 571.31 976.306 C 576.588 976.339 580.938 980.456 581.261 985.725 C 581.584 990.993 577.769 995.611 572.534 996.288 C 568.819 996.769 565.146 995.14 563.008 992.063 C 560.87 988.987 560.625 984.976 562.371 981.662 C 564.117 978.348 567.564 976.282 571.31 976.306 z" fill="rgb(15,34,55)" transform="translate(0,0)"></path>
<path d="M 965.989 193.915 C 967.659 187.71 970.978 185.875 977.482 185.91 C 1002.41 186.046 1027.34 185.797 1052.27 185.641 C 1110.54 185.229 1168.81 185.119 1227.08 185.312 L 1678.12 185.653 C 1699.61 185.643 1833.69 183.222 1843.16 186.418 C 1846.44 187.525 1850.81 190.976 1852.34 194.098 C 1854.21 197.906 1854.12 205.021 1854.21 209.181 C 1854.71 232.379 1854.18 255.647 1854.3 278.855 L 1854.28 514.851 C 1854.29 550.336 1857.91 776.685 1852.19 790.869 C 1851.22 793.281 1848.05 794.559 1845.74 795.305 C 1842.11 796.473 1838.21 796.78 1834.42 796.899 C 1819.05 797.384 1803.52 796.668 1788.14 796.562 L 1706.71 796.415 L 1644.84 796.436 C 1636.57 796.455 1614.43 799.183 1610.33 792.009 C 1612.69 786.001 1647.93 788.709 1655.66 788.767 L 1774.4 789.271 C 1794.58 789.367 1816.17 789.903 1836.3 788.927 C 1838.96 788.798 1843.94 787.962 1844.97 785.31 C 1846.5 781.355 1847.48 775.742 1847.48 771.531 C 1847.48 748.472 1847.46 725.321 1847.52 702.269 L 1847.26 533.925 C 1847.19 498.675 1849.91 206.154 1846.41 198.784 C 1845.54 196.95 1844.6 195.719 1842.89 194.589 C 1825.86 191.82 1771.8 192.957 1750.64 192.938 L 1564.8 192.856 L 1203.88 192.868 C 1132.57 192.769 1061.25 192.721 989.938 193.018 C 978.105 193.067 973.698 196.612 966.987 205.678 C 966.328 201.644 966.21 197.98 965.989 193.915 z" fill="rgb(94,122,137)" transform="translate(0,0)"></path>
<path d="M 427.339 1114 C 442.459 1113.36 458.507 1113.04 473.61 1113.89 C 479.029 1114.19 486.888 1115.34 490.502 1119.77 C 506.132 1138.94 508.45 1335.51 505.657 1367.03 L 470.03 1366.94 C 466.634 1311.99 461.722 1257.15 455.299 1202.47 C 454.307 1193.73 452.23 1167.12 449.342 1160.91 C 445.897 1158.28 447.606 1159.51 442.444 1159.49 C 437.897 1140.98 446.818 1127.61 427.339 1114 z" fill="rgb(40,120,232)" transform="translate(0,0)"></path>
<path d="M 257.659 892.156 C 268.61 891.174 287.397 891.643 299.018 891.673 C 317.906 891.721 340.716 891.129 359.093 893.214 C 338.513 898.171 317.42 897.904 298.539 911.295 C 290.839 916.662 284.691 923.964 280.714 932.465 C 274.049 946.603 265.332 1002.95 261.944 1022.07 C 262.15 1038.98 265.341 1044.96 277.034 1057 L 226.52 1056.85 C 223.25 1030.22 219.762 1003.61 216.056 977.032 C 209.725 930.228 202.556 905.077 257.659 892.156 z" fill="rgb(213,239,249)" transform="translate(0,0)"></path>
<path d="M 1242.85 1067.51 C 1319.28 1066.33 1396.52 1068.59 1473.11 1067.76 C 1546.37 1067 1619.63 1066.74 1692.88 1066.99 L 1758.76 1066.8 C 1768.34 1066.73 1792.28 1062.94 1796.2 1072.27 C 1795.5 1078.86 1791.73 1079.89 1785.75 1080.47 C 1738.03 1081.82 1685.55 1080.79 1637.48 1080.82 L 1386.83 1080.6 C 1353.07 1080.34 1319.32 1080.3 1285.56 1080.49 C 1272.02 1080.53 1257.24 1080.82 1243.64 1080.83 C 1240.01 1080.83 1236.33 1078.5 1233.94 1075.58 C 1233.23 1071.77 1232.94 1073.52 1234.84 1070.13 C 1238.03 1067.87 1238.91 1067.93 1242.85 1067.51 z" fill="rgb(0,190,242)" transform="translate(0,0)"></path>
<path d="M 1372.74 905.5 L 1384.54 905.083 C 1374.63 914.648 1368.86 924.508 1364.53 937.605 C 1355.62 964.585 1342.67 1032.31 1354.91 1057.32 L 1319.75 1057.25 C 1315.9 1057.2 1316.42 1057.78 1313.6 1056.06 C 1307.99 1026.94 1308.61 991.554 1305.83 961.757 C 1304.44 946.922 1305.92 931.657 1316.65 920.366 C 1331.61 904.617 1352.6 906 1372.74 905.5 z" fill="rgb(213,239,249)" transform="translate(0,0)"></path>
<path d="M 240.405 1066.49 C 291.74 1065.75 342.877 1067.06 394.278 1067.04 L 619.956 1066.11 L 620.006 1078.97 L 469.5 1078.9 C 367.837 1079.15 197.992 1080.1 91.3796 1079.33 C 89.7064 1079.31 88.3126 1076.58 87.6377 1075.08 C 88.4905 1069.28 92.8716 1066.27 98.7107 1066.48 C 112.451 1066.97 126.106 1066.95 139.855 1066.97 C 173.373 1067.09 206.89 1066.93 240.405 1066.49 z" fill="rgb(0,190,242)" transform="translate(0,0)"></path>
<path d="M 1567.81 1356.81 C 1569.56 1332.67 1570 1306.63 1570.73 1282.32 C 1571.87 1246.48 1572.73 1210.64 1573.31 1174.79 C 1583.21 1177.61 1585.02 1177.91 1592.14 1185.3 C 1593.99 1198.15 1594.4 1225.13 1595.01 1239.38 C 1596.64 1275.57 1598.03 1311.78 1599.18 1347.99 C 1589.13 1351 1577.96 1354.6 1567.81 1356.81 z" fill="rgb(221,242,250)" transform="translate(0,0)"></path>
<path d="M 358.027 809.768 C 372.685 809.836 376.703 832.244 419.714 829.083 C 419.432 850.72 419.542 866.246 401.097 880.031 C 371.464 893.871 342.54 871.823 344.406 841.535 C 362.74 833.423 345.305 822.72 358.027 809.768 z" fill="rgb(252,180,112)" transform="translate(0,0)"></path>
<path d="M 440.788 1191.41 C 441.832 1191.85 444.099 1192.72 444.318 1194.06 C 445.749 1202.78 446.756 1213.87 447.611 1222.52 L 456.384 1319.36 C 457.203 1328.93 457.798 1363.22 463.448 1373.39 C 466.133 1378.22 466.4 1379.27 461.968 1383.01 C 458.552 1383.14 455.87 1380.86 452.796 1378.93 C 445.561 1374.32 433.093 1375.66 424.226 1375.75 C 433.431 1320.02 433.94 1254.46 438.807 1198.02 C 439.09 1194.74 439.051 1194.08 440.788 1191.41 z" fill="rgb(221,242,250)" transform="translate(0,0)"></path>
<path d="M 1476.94 1196.97 L 1497.92 1196.99 C 1497.93 1202.08 1497.81 1207.63 1498.12 1212.67 C 1501.02 1260.25 1502.9 1308.44 1508.31 1355.79 C 1497.47 1351 1487.01 1345.41 1477 1339.06 C 1476.66 1291.7 1476.64 1244.34 1476.94 1196.97 z" fill="rgb(221,242,250)" transform="translate(0,0)"></path>
<path d="M 1314.06 1090.86 L 1393.64 1090.58 C 1392.96 1107.09 1394.97 1128.69 1394.86 1146.91 C 1352.84 1147.15 1320.14 1137.63 1314.06 1090.86 z" fill="rgb(229,248,252)" transform="translate(0,0)"></path>
<path d="M 1442.88 806.19 C 1446.87 806.979 1454.19 809.78 1458.35 811.323 C 1477.27 818.334 1487.46 819.13 1507.02 815.483 C 1508.3 835.79 1506.85 850.678 1494.37 867.36 C 1487.27 874.694 1479.54 878.508 1469.02 876.758 C 1459.3 875.089 1450.65 869.579 1445.04 861.467 C 1439.84 854.125 1434.5 839.896 1436.06 830.959 C 1438.65 829.705 1439.17 829.469 1441.4 827.707 C 1442.61 823.756 1442.61 811.154 1442.88 806.19 z" fill="rgb(252,180,112)" transform="translate(0,0)"></path>
<path d="M 1750.73 1091.05 L 1762.14 1091.03 L 1762.96 1393.4 L 1750.32 1393.21 C 1749.74 1348.43 1750.68 1302.01 1750.91 1257.11 L 1750.73 1091.05 z" fill="rgb(242,246,251)" transform="translate(0,0)"></path>
<path d="M 963.134 725.449 C 965.915 725.56 966.768 725.414 969.326 726.635 C 972.92 737.917 967.005 769.681 970.645 782.413 C 972.342 788.348 980.804 788.071 986.223 788.163 C 1050.91 788.626 1115.59 788.651 1180.27 788.237 L 1292.01 788.846 C 1305.51 788.862 1332.16 788.086 1346.51 789.55 C 1347.3 789.63 1347.82 792.852 1348.15 794.11 C 1343.33 797.264 1298.48 795.957 1290.39 795.938 L 1188.37 795.739 L 1054.77 795.878 C 1038.24 795.905 981.575 797.465 966.141 793.214 C 961.491 791.934 963.106 734.788 963.134 725.449 z" fill="rgb(94,122,137)" transform="translate(0,0)"></path>
<path d="M 1271.16 1091.11 C 1274.94 1091.02 1278.05 1090.55 1281.44 1092.03 C 1282.49 1097.72 1282.03 1113.41 1282.03 1120.19 L 1282.01 1176.1 L 1281.87 1390.96 C 1278.02 1390.87 1274.88 1391.25 1271.6 1389.44 C 1270.73 1379.56 1271.21 1364.85 1271.23 1354.44 L 1271.24 1293.88 L 1271.16 1091.11 z" fill="rgb(242,246,251)" transform="translate(0,0)"></path>
<path d="M 142.964 1089.9 C 146.095 1089.77 148.914 1089.22 151.478 1090.86 C 154.516 1099.26 153.699 1367.38 152.429 1395.37 C 148.386 1396.33 146.433 1397.51 143.393 1395.9 C 141.153 1387.95 142.929 1329.21 142.947 1316.34 L 142.964 1089.9 z" fill="rgb(242,246,251)" transform="translate(0,0)"></path>
<path d="M 608.094 1089.11 C 611.801 1089.05 612.98 1089 616.589 1089.61 C 621.316 1094.2 618.458 1104.32 618.102 1111.27 C 617.525 1123.88 617.125 1136.5 616.903 1149.12 C 615.899 1200.81 614.608 1252.49 613.03 1304.17 L 611.95 1344.66 C 611.679 1353.96 609.677 1362.22 614.611 1370.09 L 615.302 1371.18 C 615.489 1374.5 611.852 1381.11 610.22 1384.83 L 608.272 1399.52 C 606.427 1368.1 607.894 1324.21 607.961 1291.92 L 608.094 1089.11 z" fill="rgb(242,246,251)" transform="translate(0,0)"></path>
<path d="M 965.989 193.915 C 966.21 197.98 966.328 201.644 966.987 205.678 C 968.59 210.503 968.751 217.269 968.769 222.445 C 969.056 307.426 968.949 392.525 968.934 477.503 L 969.004 591.292 C 969.03 600.73 970.277 657.421 967.749 663.644 L 966.231 663.891 C 965.984 663.55 965.723 663.219 965.49 662.868 C 962.065 657.69 964.006 595.977 964.015 585.43 L 964.879 310.72 L 964.929 234.187 C 964.936 225.55 964.473 201.125 965.989 193.915 z" fill="rgb(94,122,137)" transform="translate(0,0)"></path>
<path d="M 229.817 1090.07 L 275.854 1090.04 C 275.496 1103.56 276.545 1131.83 280.054 1144.35 C 246.516 1142.01 236.109 1119.19 229.817 1090.07 z" fill="rgb(213,239,249)" transform="translate(0,0)"></path>
<path d="M 349.806 1191.72 L 366.882 1191.67 C 366.832 1229.95 366.034 1268.93 366.285 1307.04 C 361.284 1302.71 354.553 1293.22 349.938 1287.65 L 349.806 1191.72 z" fill="rgb(221,242,250)" transform="translate(0,0)"></path>
<path d="M 642.003 860.724 C 672.179 859.798 705.167 861.506 735.629 860.675 C 742.913 860.477 789.467 860.201 793.998 861.363 C 795.367 864.468 794.869 868.187 794.774 871.715 C 760.395 872.376 724.952 871.383 690.496 871.82 C 683.575 871.908 647.976 872.225 643.179 871.118 C 641.343 868.069 641.923 864.474 642.003 860.724 z" fill="rgb(40,120,232)" transform="translate(0,0)"></path>
<path d="M 758.219 1370.01 C 765.31 1370.02 781.986 1369.08 787.804 1370.72 C 788.395 1371.42 792.014 1375.5 792.707 1375.62 C 811.597 1378.93 839.346 1369.32 846.873 1393.95 L 756.966 1393.99 C 756.992 1385.02 756.868 1378.91 758.219 1370.01 z" fill="rgb(40,120,232)" transform="translate(0,0)"></path>
<path d="M 1392.59 1156.44 C 1393.46 1156.3 1396.11 1156.2 1396.46 1156.69 C 1400.92 1162.85 1413.94 1175.24 1421.41 1177.73 C 1437.1 1182.96 1465.07 1179.77 1481.86 1180.31 C 1487.11 1180.48 1492.51 1179.56 1497.15 1180.85 C 1498.14 1182.68 1497.76 1183.47 1497.48 1185.58 C 1494.87 1187.37 1481.44 1186.6 1477.1 1186.6 C 1458.11 1186.19 1439.12 1185.98 1420.13 1185.96 C 1410.1 1185.94 1354.02 1191.51 1373.23 1162.03 C 1376.33 1157.26 1386.82 1156.96 1392.59 1156.44 z" fill="rgb(0,190,242)" transform="translate(0,0)"></path>
<path d="M 332.993 1190.84 C 336.318 1190.72 338.192 1190.24 340.909 1191.83 C 341.927 1198.94 341.545 1216.52 341.575 1224.27 L 341.797 1285.96 L 341.978 1339.32 C 342 1346.36 342.487 1361.28 341.402 1367.56 L 331.997 1367 C 334.614 1310.84 333.051 1247.64 332.993 1190.84 z" fill="rgb(26,58,92)" transform="translate(0,0)"></path>
<path d="M 1444.82 1356.02 C 1446.38 1359.14 1445.83 1379.93 1446.64 1385.04 C 1447.51 1390.43 1448.19 1392.61 1450.03 1398.05 L 1404.88 1397.96 L 1403.5 1397.53 C 1403.86 1385.56 1406.09 1387.24 1401.36 1374.49 C 1415.43 1368.11 1430.11 1362.76 1444.82 1356.02 z" fill="rgb(221,242,250)" transform="translate(0,0)"></path>
<path d="M 1478.2 1355.39 C 1492.75 1361.65 1504.74 1366.2 1517.36 1375.98 C 1517.39 1380.7 1518.71 1395.24 1516.79 1398.18 L 1473.9 1398.24 C 1479.86 1384.54 1478.49 1370.14 1478.2 1355.39 z" fill="rgb(221,242,250)" transform="translate(0,0)"></path>
<path d="M 591.396 943.101 L 623.357 942.797 C 624.601 958.612 625.076 970.025 617.328 983.937 C 612.972 989.077 605.995 993.792 600.372 987.12 C 590.431 975.324 591.126 957.652 591.396 943.101 z" fill="rgb(252,180,112)" transform="translate(0,0)"></path>
<path d="M 1567.81 1356.81 C 1577.96 1354.6 1589.13 1351 1599.18 1347.99 C 1599.8 1353.93 1600.27 1360.48 1602.87 1366.15 C 1605.16 1371.15 1608.14 1370.89 1611.63 1374.56 C 1611.66 1379.06 1609.78 1387.78 1609.57 1392.4 C 1600.26 1394.7 1598.21 1386.22 1591.95 1383.23 C 1582.51 1378.72 1568.17 1378.83 1557.68 1378.62 L 1566.87 1368.53 C 1567.11 1365.42 1567.39 1359.7 1567.81 1356.81 z" fill="rgb(242,246,251)" transform="translate(0,0)"></path>
<path d="M 321.405 1360.09 L 321.949 1360.2 C 323.686 1362.3 323.261 1368.78 323.385 1372.2 C 316.676 1382.46 314.512 1386.67 320.034 1398.31 L 279.921 1398.46 L 278.628 1397.49 C 279.286 1395.93 279.903 1394.36 280.48 1392.77 C 283.087 1385.46 280.476 1380.57 277.373 1374.05 C 292.101 1369.56 306.779 1364.91 321.405 1360.09 z" fill="rgb(242,246,251)" transform="translate(0,0)"></path>
<path d="M 420.499 1089.46 C 423.856 1089.15 424.309 1088.96 427.445 1089.91 C 430.094 1094.05 429.086 1098.71 428.891 1104.03 C 404.4 1104.21 379.908 1103.9 355.429 1103.1 C 351.654 1103.19 347.174 1103.84 344.169 1102.03 C 342.101 1098.83 342.906 1094.15 343.06 1090.04 C 368.403 1090.02 395.296 1090.42 420.499 1089.46 z" fill="rgb(26,58,92)" transform="translate(0,0)"></path>
<path d="M 989.989 667.204 C 990.769 667.334 990.314 667.182 991.223 667.945 C 970.96 684.002 971.134 672.872 978.538 699.304 C 982.279 712.656 966.36 719.751 955.23 710.312 C 949.381 703.548 944.065 697.298 938.538 690.26 C 954.659 675.862 969.544 672.902 989.989 667.204 z" fill="rgb(252,180,112)" transform="translate(0,0)"></path>
<path d="M 766.518 547.681 C 766.907 549.155 767.305 551.552 767.261 553.039 C 767.119 561.506 766.956 569.397 760.605 575.809 C 753.601 583.231 743.501 583.325 733.979 583.173 C 719.731 582.944 705.394 583.015 691.109 583.09 C 678.806 575.255 677.999 567.534 674.511 554.295 L 674.511 551.025 L 675.895 550.111 C 679.475 551.739 688.244 567.227 697.604 571.743 C 727.992 586.405 750.691 573.965 766.518 547.681 z" fill="rgb(252,180,112)" transform="translate(0,0)"></path>
<path d="M 626.535 1369.95 C 639.647 1369.9 652.759 1369.76 665.868 1369.53 C 665.826 1375.22 667.584 1387.86 664.436 1391.76 L 661.25 1392.03 L 618.959 1391.91 C 621.672 1384.09 625.139 1378.34 626.535 1369.95 z" fill="rgb(40,120,232)" transform="translate(0,0)"></path>
<path d="M 274.437 1162.4 C 279.606 1162.13 285.335 1162.13 290.557 1162.02 C 313.245 1189.69 354.73 1169.25 367.329 1176.62 L 367.145 1178.48 C 364.309 1181.6 365.843 1180.8 361.25 1181.22 C 346.997 1181.31 276.575 1182.2 268.687 1179.06 C 261.91 1172.43 265.299 1164.44 274.437 1162.4 z" fill="rgb(0,190,242)" transform="translate(0,0)"></path>
<path d="M 349.938 1287.65 C 354.553 1293.22 361.284 1302.71 366.285 1307.04 C 366.356 1323.89 365.719 1338.99 364.855 1355.74 C 358.983 1351.64 356.559 1349.83 350.055 1347.07 L 349.938 1287.65 z" fill="rgb(242,246,251)" transform="translate(0,0)"></path>
<path d="M 1402.78 1090.96 C 1429.95 1091.22 1457.11 1091.27 1484.28 1091.12 C 1498.83 1091.04 1520.19 1090.27 1534.27 1091.29 C 1535.97 1093.32 1535.42 1094.31 1535.65 1097.63 C 1522.48 1097.46 1407.1 1098.21 1403.36 1096.01 L 1402.78 1090.96 z" fill="rgb(40,120,232)" transform="translate(0,0)"></path>
<path d="M 1454.37 882.335 C 1470.69 888.87 1473.15 884.707 1484.04 887.81 C 1491.2 894.186 1482.64 907.919 1478.93 915.223 L 1474.81 922.719 L 1474.1 922.081 C 1461.39 910.408 1455.2 899.338 1454.37 882.335 z" fill="rgb(252,180,112)" transform="translate(0,0)"></path>
<path d="M 364.236 891.516 C 377.324 895.602 380.621 894.927 394.061 893.805 C 392.171 900.692 389.147 906.614 386.126 913.057 L 380.121 923.883 C 372.333 913.508 363.181 904.892 364.236 891.516 z" fill="rgb(249,218,179)" transform="translate(0,0)"></path>
<path d="M 1494.95 1054.34 C 1494.64 1027.65 1498.4 1031.45 1520.29 1041.06 C 1523.58 1042.78 1531.04 1046.41 1533.49 1048.61 L 1532.84 1049.6 C 1529.25 1049.81 1522.94 1049.02 1520.98 1050.11 C 1520.84 1052.66 1521.29 1051.62 1519.85 1053.46 C 1514.74 1054.49 1501.23 1054.19 1494.95 1054.34 z" fill="rgb(252,180,112)" transform="translate(0,0)"></path>
<path d="M 1520.29 1041.06 C 1523.58 1042.78 1531.04 1046.41 1533.49 1048.61 L 1532.84 1049.6 C 1529.25 1049.81 1522.94 1049.02 1520.98 1050.11 C 1518.03 1045.53 1517.1 1045.11 1520.29 1041.06 z" fill="rgb(252,180,112)" transform="translate(0,0)"></path>
<path d="M 715.963 592.476 C 724.129 592.285 742.761 591.374 750.161 593.26 L 750.724 594.743 C 750.132 598.596 750.866 597.263 748.248 599.931 C 743.478 601.699 733.21 600.86 727.433 600.833 C 721.312 600.923 693.432 602.778 690.514 598.814 L 691.064 595.595 C 696.303 590.658 707.525 592.505 715.963 592.476 z" fill="rgb(242,246,251)" transform="translate(0,0)"></path>
<path d="M 403.382 1040.68 C 412.446 1040.79 435.041 1040.62 440.016 1049.34 C 438.281 1051.82 438.222 1051.09 434.244 1052.01 L 431.557 1053.16 C 431.001 1054.99 431.122 1054.96 429.838 1056.35 C 423.08 1057.34 410.752 1056.77 403.527 1056.65 L 403.382 1040.68 z" fill="rgb(252,180,112)" transform="translate(0,0)"></path>
<path d="M 286.769 1089.94 C 294.827 1089.88 325.907 1089.15 331.841 1090.58 C 333.158 1093.36 332.715 1097.02 332.659 1100.21 C 322.969 1100.27 296.082 1100.93 287.87 1099.71 C 286.33 1097.21 286.768 1093.06 286.769 1089.94 z" fill="rgb(0,190,242)" transform="translate(0,0)"></path>
<path d="M 458.405 1017.57 C 463.143 1017.15 469.105 1017.09 473.956 1016.92 C 471.487 1026.75 468.186 1036.79 465.158 1046.5 C 460.614 1044.61 456.574 1041.68 452.458 1038.95 C 452.296 1030.94 449.239 1023.44 453.455 1018.02 L 458.405 1017.57 z" fill="rgb(252,180,112)" transform="translate(0,0)"></path>
<path d="M 351.074 1359.48 C 354.282 1360.8 360.971 1364.81 364.287 1366.68 C 366.381 1372.04 366.465 1372.25 370.732 1376.28 C 370.122 1383.33 369.161 1389.82 368.141 1396.8 C 364.627 1397.23 363.42 1397.54 359.976 1397.04 C 358.257 1391.94 362.464 1389.06 361.042 1384.39 C 356.955 1370.98 350.515 1374.72 351.074 1359.48 z" fill="rgb(229,248,252)" transform="translate(0,0)"></path>
<path d="M 475.585 1376.97 L 503.459 1377.52 L 494.774 1388.23 C 493.953 1390.4 494.505 1389.38 492.515 1391.01 C 485.197 1392.35 480.011 1390.25 473.035 1388.07 L 475.585 1376.97 z" fill="rgb(40,120,232)" transform="translate(0,0)"></path>
<path d="M 382.183 1377.36 L 410.826 1377.29 C 407.025 1380.85 405.003 1383.49 401.776 1387.55 C 398.567 1392.98 383.072 1393.42 379.038 1384.61 C 379.287 1380.83 379.801 1380.55 382.183 1377.36 z" fill="rgb(40,120,232)" transform="translate(0,0)"></path>
<path d="M 1622.07 1374.76 C 1627.53 1374.71 1640.4 1372.89 1642.97 1377.75 C 1642.47 1380.99 1640.88 1382.48 1638.87 1385.1 C 1634.11 1389.04 1626.56 1392.78 1622.5 1386.78 C 1620.47 1383.79 1621.67 1378.08 1622.07 1374.76 z" fill="rgb(249,218,179)" transform="translate(0,0)"></path>
<path d="M 1528.08 1376.17 L 1550.86 1376.11 C 1548.9 1380.94 1548.03 1382.22 1545.19 1386.51 C 1532.93 1397.21 1527.68 1389.34 1528.08 1376.17 z" fill="rgb(252,180,112)" transform="translate(0,0)"></path>
<path d="M 1540.52 1043.08 C 1543.77 1042.92 1544.2 1042.78 1547.26 1043.65 C 1551.14 1047.1 1555.08 1051.23 1556.41 1056.4 L 1554.77 1057.48 C 1545.42 1058.14 1541.08 1054.01 1539.11 1044.63 L 1540.52 1043.08 z" fill="rgb(242,246,251)" transform="translate(0,0)"></path>
<path d="M 774.766 513.175 L 777.659 514.396 C 783.939 521.514 777.455 532.98 773.029 539.506 C 771.118 539.309 771.8 539.429 770.014 538.494 C 770.094 535.067 773.797 518.412 774.766 513.175 z" fill="rgb(252,180,112)" transform="translate(0,0)"></path>
<path d="M 665.178 512.178 C 667.039 512.884 666.39 512.612 667.929 514.106 C 669.233 519.377 673.182 535.408 672.156 539.811 C 663.944 532.543 660.734 522.556 665.178 512.178 z" fill="rgb(252,180,112)" transform="translate(0,0)"></path>
<metadata><recraft-signature>{"signed_by": "recraft", "signature_b64": "wbJpJhXOil7uKYumdAC5TyTFw46+ivMaNgY8jWJpwPYwGtArj39rS50Y8HKqYk6M9sd+TpKDaqvFe20cPYBICQ==", "signing_algo": "Ed25519", "generation_timestamp": 1776431257, "identifier": "8da3032d-37f6-4575-b6d0-feabcbb55406"}</recraft-signature></metadata></svg>