<svg xmlns="http://www.w3.org/2000/svg" height="1024" preserveAspectRatio="none" style="display: block;" version="1.1" viewBox="0 0 2048 1536" width="1365">
<path d="M 0 0 L 2048 0 L 2048 1536 L 0 1536 L 0 0 z" fill="rgb(242,246,251)" transform="translate(0,0)"></path>
<path d="M 1522.06 295.291 C 1541.8 273.603 1571.98 253.899 1598.61 242.198 C 1672.33 209.806 1752.64 229.577 1810.55 283.275 C 1897.94 364.302 1935.94 484.104 1942.67 600.435 C 1952.37 793.355 1876.53 980.692 1751.2 1125.07 C 1747.21 1129.66 1743.27 1135.04 1739.86 1140.13 C 1758.98 1153.1 1777.06 1167.58 1795.39 1180.16 C 1806 1180.17 1833.63 1177.92 1843.72 1183.62 C 1845.93 1184.86 1847.55 1194.84 1847.62 1197.39 C 1848.43 1238.05 1847.94 1278.82 1848 1319.5 C 1848.01 1326.85 1847.96 1329.37 1845.14 1336.16 L 1916.11 1336.01 C 1927.11 1335.99 1938.45 1335.71 1949.43 1336.42 C 1953.32 1336.68 1954.82 1339.29 1955.68 1342.79 C 1955.13 1345.15 1954.99 1346.34 1952.72 1347.55 C 1944.02 1352.2 1531.06 1346.21 1473.54 1349.08 C 1462.45 1353.1 1449.08 1359.77 1438.07 1364.74 C 1421.65 1372.14 1405 1379 1388.13 1385.31 C 1291.18 1421.11 1189.91 1443.94 1086.98 1453.19 C 876.629 1473.64 627.952 1463.37 427.533 1391.87 C 404.36 1383.6 355.851 1363.95 337.592 1348.92 L 182.166 1348.86 L 138.824 1348.81 C 132.196 1348.8 112.061 1351.48 114.809 1340.55 C 122.157 1333.88 144.254 1336.09 154.497 1336.19 L 210.11 1336.73 L 210.224 1212.5 L 209.445 1211.82 C 204.474 1207.59 196.785 1190.7 193.372 1183.92 C 162.869 1123.99 140.078 1060.43 125.542 994.776 C 101.114 885.137 80.8627 697.652 142.816 598.859 C 163.209 566.34 194.173 541.214 231.941 533.362 C 297.73 519.684 330.656 567.078 377.764 598.937 C 404.708 617.16 444.145 629.511 476.608 626.193 C 484.275 625.409 496.745 621.269 505.237 619.416 C 505.248 608.03 505.2 596.287 505.115 585.143 C 505.535 578.511 502.014 562.004 507.624 557.345 C 514.82 551.368 528.245 553.766 537.225 553.361 C 542.238 553.135 548.808 553.371 553.948 553.38 C 581.572 531.15 615.943 492.911 639.996 466.318 C 612.932 466.177 566.593 467.892 541.568 465.823 C 570.136 464.267 607.796 465.183 636.757 465.371 L 775.505 465.798 L 931.495 465.98 C 954.108 465.997 987.091 464.983 1008.99 466.097 L 1022.41 466.061 C 1060.99 464.978 1104.88 465.969 1143.77 465.961 L 1393.35 466.057 C 1412.27 466.05 1506.76 467.503 1519.66 463.569 C 1523.35 459.011 1522.06 409.022 1522.06 400.332 L 1522.06 295.291 z" fill="rgb(26,58,92)" transform="translate(0,0)"></path>
<path d="M 1522.06 295.291 C 1541.8 273.603 1571.98 253.899 1598.61 242.198 C 1672.33 209.806 1752.64 229.577 1810.55 283.275 C 1897.94 364.302 1935.94 484.104 1942.67 600.435 C 1952.37 793.355 1876.53 980.692 1751.2 1125.07 C 1747.21 1129.66 1743.27 1135.04 1739.86 1140.13 C 1735.2 1138.73 1731.9 1137.98 1727.57 1140.8 C 1708.47 1153.23 1689.83 1168.37 1670.94 1181.18 C 1616.85 1180.61 1617.44 1171.91 1617.68 1225.59 L 1617.91 1295.36 C 1617.91 1305.23 1618.35 1321.39 1617.48 1330.88 L 1619.98 1335.04 C 1618.01 1336.65 1511 1336.3 1499.54 1336.03 L 1475.9 1336.13 L 1475.89 1323.27 C 1486.64 1323.12 1512.08 1325.85 1519.61 1320.82 C 1520.65 1314.26 1520.14 1303.82 1520.14 1296.81 L 1520.2 1252.32 C 1520.22 1238.07 1521.76 1114.62 1518.24 1109.94 C 1506.02 1106.48 1471.24 1107.69 1456.62 1107.7 L 1371 1107.78 L 1022.84 1107.82 C 1022.68 1086.2 1022.7 1064.58 1022.89 1042.96 L 1373.88 1042.99 L 1462.41 1043.07 C 1475.75 1043.07 1505.47 1044.02 1517.29 1041.23 C 1525.56 1032.77 1518.71 878.658 1521.11 858.939 C 1521.75 853.623 1521.03 836.657 1518.36 831.488 C 1510.11 828.214 1379.72 829.882 1363.39 829.892 L 1023 829.983 L 1022.86 764.93 L 1374.56 765.176 L 1459.54 765.185 C 1473.91 765.185 1506.68 766.379 1519.05 763.024 C 1521.94 759.841 1521.21 735.316 1521.21 729.882 L 1521.23 678.5 L 1521.07 603.983 C 1521.07 594.099 1523.18 562.434 1518.35 556.14 C 1505.8 551.591 1367.93 554.017 1342.64 554.019 C 1306.13 521.1 1264.76 524.228 1227.39 553.255 C 1173.71 553.523 1119.74 553.255 1066.04 553.135 C 1062.58 553.128 1062.92 553.349 1061.2 551.498 C 1052.5 538.329 1036.75 541.728 1022.69 541.987 L 1022.41 466.061 C 1060.99 464.978 1104.88 465.969 1143.77 465.961 L 1393.35 466.057 C 1412.27 466.05 1506.76 467.503 1519.66 463.569 C 1523.35 459.011 1522.06 409.022 1522.06 400.332 L 1522.06 295.291 z" fill="rgb(213,239,249)" transform="translate(0,0)"></path>
<path d="M 1519.26 1323.21 C 1546.06 1310.24 1593.08 1279.74 1617.04 1261.61 C 1616.98 1271.78 1616.15 1324.26 1617.48 1330.88 L 1619.98 1335.04 C 1618.01 1336.65 1511 1336.3 1499.54 1336.03 C 1503.52 1332.47 1514.4 1326.05 1519.26 1323.21 z" fill="rgb(242,246,251)" transform="translate(0,0)"></path>
<path d="M 210.224 1212.5 L 209.445 1211.82 C 204.474 1207.59 196.785 1190.7 193.372 1183.92 C 162.869 1123.99 140.078 1060.43 125.542 994.776 C 101.114 885.137 80.8627 697.652 142.816 598.859 C 163.209 566.34 194.173 541.214 231.941 533.362 C 297.73 519.684 330.656 567.078 377.764 598.937 C 404.708 617.16 444.145 629.511 476.608 626.193 C 484.275 625.409 496.745 621.269 505.237 619.416 C 505.327 637.908 504.005 756.748 507.427 762.879 C 521.863 767.777 646.015 765.058 668.77 765.034 L 1009.6 765.157 L 1009.64 830.031 L 651.577 830.018 L 564.356 830.032 C 549.709 830.042 521.335 829.06 508.773 832.071 C 503.791 837.184 505.888 900.441 505.926 911.883 L 505.796 1025.12 C 505.835 1030.61 506.133 1035.12 507.648 1040.39 C 512.96 1044.46 571.721 1043.04 581.419 1043.04 L 690.79 1042.99 L 1009.03 1043 L 1009.08 1107.84 L 684.203 1107.84 L 576.156 1107.75 C 566.161 1107.74 512.82 1106.35 507.668 1110.19 C 506.203 1113.43 505.238 1117.36 505.234 1120.95 C 505.167 1183.51 505.194 1246.09 505.673 1308.64 C 505.699 1312.11 506.403 1316.23 507.403 1319.53 C 508.328 1322.72 512.926 1323.09 515.811 1323.18 C 529.257 1323.61 543.019 1323.2 556.452 1323.32 L 556.401 1336.2 L 421.943 1336.28 L 422.013 1190.83 C 422.018 1178.27 423.574 1113.76 419.602 1104.84 C 410.994 1099.26 385.917 1103.09 374.86 1102.37 C 366.71 1101.84 370.07 1103.04 364.144 1097.77 C 362.667 1096.46 344.337 1097.39 341.169 1097.39 C 337.493 1088.75 333.743 1082.31 324.368 1078.33 C 317.863 1075.59 310.521 1075.63 304.046 1078.43 C 297.073 1081.47 292.148 1087.1 289.533 1094.21 C 289.197 1095.13 288.892 1096.06 288.617 1097.01 C 278.563 1096.87 263.792 1093.86 257.569 1102.08 C 248.075 1101.99 221.311 1100.49 213.752 1104.12 C 206.866 1113.49 210.715 1194.87 210.224 1212.5 z" fill="rgb(213,239,249)" transform="translate(0,0)"></path>
<path d="M 337.592 1348.92 L 1473.54 1349.08 C 1462.45 1353.1 1449.08 1359.77 1438.07 1364.74 C 1421.65 1372.14 1405 1379 1388.13 1385.31 C 1291.18 1421.11 1189.91 1443.94 1086.98 1453.19 C 876.629 1473.64 627.952 1463.37 427.533 1391.87 C 404.36 1383.6 355.851 1363.95 337.592 1348.92 z" fill="rgb(213,239,249)" transform="translate(0,0)"></path>
<path d="M 541.568 465.823 C 570.136 464.267 607.796 465.183 636.757 465.371 L 775.505 465.798 L 931.495 465.98 C 954.108 465.997 987.091 464.983 1008.99 466.097 L 1022.41 466.061 L 1022.69 541.987 C 1036.75 541.728 1052.5 538.329 1061.2 551.498 C 1057.2 553.069 977.88 553.382 969.851 552.488 C 963.816 554.576 838.181 553.083 823.349 553.071 L 641.472 553.146 C 612.826 553.19 582.402 553.924 553.948 553.38 C 581.572 531.15 615.943 492.911 639.996 466.318 C 612.932 466.177 566.593 467.892 541.568 465.823 z" fill="rgb(213,239,249)" transform="translate(0,0)"></path>
<path d="M 1008.99 466.097 L 1022.41 466.061 L 1022.69 541.987 C 1036.75 541.728 1052.5 538.329 1061.2 551.498 C 1057.2 553.069 977.88 553.382 969.851 552.488 C 977.965 537.471 993.838 541.751 1009.02 541.946 L 1008.99 466.097 z" fill="rgb(15,34,55)" transform="translate(0,0)"></path>
<path d="M 1009.6 765.157 C 1013.72 764.907 1017.44 764.277 1021.24 765.638 C 1022.56 773.023 1021.96 819.541 1022.04 830.919 C 1018.17 830.863 1013.23 831.085 1009.64 830.031 L 1009.6 765.157 z" fill="rgb(15,34,55)" transform="translate(0,0)"></path>
<path d="M 518.143 1120.66 L 1506.21 1120.24 C 1507.78 1132.54 1506.59 1167.09 1506.62 1181.52 C 1506.88 1224.25 1506.92 1266.98 1506.75 1309.71 L 518.471 1309.71 C 518.303 1296.18 517.359 1269.99 518.318 1257.25 L 518.143 1120.66 z" fill="rgb(242,252,253)" transform="translate(0,0)"></path>
<path d="M 1506.21 1120.24 C 1507.78 1132.54 1506.59 1167.09 1506.62 1181.52 C 1506.88 1224.25 1506.92 1266.98 1506.75 1309.71 L 518.471 1309.71 C 518.303 1296.18 517.359 1269.99 518.318 1257.25 C 520.029 1259.63 519.339 1285.44 519.322 1290.25 L 1505.81 1291.74 L 1505.66 1179.41 C 1505.64 1163.41 1504.78 1134.99 1506.21 1120.24 z" fill="rgb(213,239,249)" transform="translate(0,0)"></path>
<path d="M 873.13 1228.66 C 874.888 1222.41 883.944 1189.94 886.551 1187.38 C 890.963 1186.72 894.098 1186.41 897.614 1188.92 C 898.749 1196.24 902.049 1240.75 898.852 1244.28 C 895.513 1245.32 895.089 1245.3 891.644 1244.66 C 888.849 1238.89 889.121 1219.87 888.961 1212.75 C 888.958 1211.56 888.67 1209.67 888.526 1208.43 C 883.519 1214.29 881.542 1244.38 872.124 1244.93 C 863.955 1239.74 861.902 1216.19 858.547 1205.57 L 858.242 1204.63 C 857.103 1215.71 857.531 1227.73 856.449 1238.83 C 856.265 1240.72 853.862 1244.75 851.992 1245.59 C 849.911 1246.53 851.477 1246.41 848.805 1245.65 C 845.721 1240.52 848.792 1191.35 851.666 1187.33 C 855.646 1187.09 856.907 1186.89 860.759 1187.76 C 865.992 1193.26 871.305 1220.1 873.13 1228.66 z" fill="rgb(15,34,55)" transform="translate(0,0)"></path>
<path d="M 1058.74 1187.12 L 1065.08 1186.98 C 1073.51 1190.58 1084.3 1216.85 1088.96 1226.09 C 1088.02 1218.14 1087.39 1199.75 1088.03 1191.18 C 1088.21 1188.75 1091.31 1187.18 1093.48 1186.32 C 1101.73 1189.57 1096.69 1233.28 1097.23 1242.68 C 1097.35 1244.65 1095.21 1245.35 1093.73 1246.19 C 1091.92 1245.95 1090.35 1245.49 1088.58 1245.02 C 1081.9 1239.28 1070.68 1212.84 1066.39 1203.71 C 1066.47 1210.24 1066.98 1239.38 1065.63 1244.19 C 1063.02 1246.32 1064.48 1245.8 1061.1 1245.82 C 1054.7 1241.01 1055.68 1191.63 1058.74 1187.12 z" fill="rgb(15,34,55)" transform="translate(0,0)"></path>
<path d="M 1129.39 1187.12 C 1135.86 1186.56 1147.33 1185.26 1148.25 1193.37 C 1147.82 1194.44 1147.3 1195.72 1146.7 1197.2 C 1140.91 1199.38 1133.48 1194.61 1127.26 1197.78 C 1117.39 1202.82 1115.53 1219.46 1120.55 1228.67 C 1122.48 1232.22 1125.77 1234.83 1129.66 1235.9 C 1132.69 1236.76 1136.86 1237.06 1139.72 1235.43 C 1142.13 1227.11 1136.61 1222.46 1131.81 1216.66 L 1132.1 1214.58 C 1134.56 1212.69 1134.94 1212.79 1138.15 1212.26 L 1139.05 1212.12 C 1143.65 1212.28 1146.03 1211.76 1149.42 1214.14 C 1151.1 1218.68 1150.64 1235.19 1149.65 1240.19 C 1144.17 1248.92 1131 1246.73 1122.63 1243.65 C 1105.32 1237.27 1103.23 1217.49 1109.65 1202.58 C 1113.35 1194.01 1121.1 1189.96 1129.39 1187.12 z" fill="rgb(15,34,55)" transform="translate(0,0)"></path>
<path d="M 910.956 1187.31 C 916.747 1187.23 936.834 1186.06 940.894 1188.2 C 945.67 1199.49 927.749 1197.04 921.164 1197 L 921.089 1210.24 C 927.654 1210.07 935.631 1208.49 939.68 1214.56 L 939.192 1216.3 C 933.816 1221.25 928.267 1219.97 920.856 1219.74 L 920.756 1232.25 C 921.023 1239.31 935.166 1232.29 943.373 1237.76 C 944.531 1240.55 944.531 1239.19 943.388 1241.98 C 937.272 1247.43 919.747 1245.17 910.324 1244.92 C 909.686 1237.28 909.237 1192.63 910.956 1187.31 z" fill="rgb(15,34,55)" transform="translate(0,0)"></path>
<path d="M 953.152 1187.13 C 961.179 1187.19 973.102 1186.11 980.916 1187.81 C 982.425 1188.14 982.27 1188.84 983.148 1190.66 C 982.984 1192.33 983.186 1194.27 982.122 1195.11 C 978.6 1197.89 966.824 1196.83 962.056 1196.73 L 962.018 1210.11 C 967.598 1209.93 975.242 1208.81 979.688 1211.46 C 981.502 1214.82 981.061 1213.39 980.938 1217.33 C 975.848 1222.85 970.343 1217.91 962.257 1220.42 C 961.14 1223.01 961.543 1229.12 961.563 1232.25 C 961.838 1241.59 982.558 1229.55 985.933 1239.96 C 983.513 1248.29 959.428 1245.06 951.561 1244.87 C 950.736 1235.57 950.045 1193.82 953.152 1187.13 z" fill="rgb(15,34,55)" transform="translate(0,0)"></path>
<path d="M 988.017 1187.26 C 997.124 1187.37 1024.17 1184.32 1029.07 1191.43 C 1029.36 1194.75 1029.83 1193.4 1028.32 1195.78 C 1023.9 1197.56 1018.35 1196.96 1013.4 1196.85 L 1013.45 1231.37 C 1013.77 1237.64 1015.16 1243.66 1008.12 1246.16 C 1004.85 1245.26 1006.35 1246.01 1003.68 1243.44 C 1002.14 1233.98 1002.74 1208.17 1002.69 1196.99 C 996.831 1197.21 991.803 1198.34 987.737 1194.69 C 986.854 1191.23 987.131 1190.87 988.017 1187.26 z" fill="rgb(15,34,55)" transform="translate(0,0)"></path>
<path d="M 1036.18 1187.04 C 1040.35 1186.83 1042.59 1186.2 1045.33 1189.52 C 1046.24 1196.85 1046.58 1240.44 1044.71 1245.62 C 1040.59 1245.92 1038.64 1246.35 1035.56 1244.12 C 1034.53 1237.14 1034.52 1191.84 1036.18 1187.04 z" fill="rgb(15,34,55)" transform="translate(0,0)"></path>
<path d="M 518.755 842.619 L 1506.89 842.354 L 1506.99 1008.69 L 1507.02 1029.41 L 672.747 1030.04 C 678.735 1023.57 683.328 1016.11 688.212 1008.76 C 701.541 988.119 716.946 964.012 727.367 941.793 C 734.739 926.073 731.261 902.465 722.789 887.426 C 714.145 872.022 699.619 860.786 682.538 856.289 C 664.889 851.645 645.298 853.826 629.58 863.302 C 614.486 872.497 603.744 887.396 599.788 904.621 C 593.112 933.507 604.153 949.901 618.278 973.35 L 639.88 1008.59 C 644.849 1016.72 648.154 1022.63 654.443 1029.93 L 518.408 1029.84 L 518.142 902.461 C 518.129 890.438 517.321 852.354 518.755 842.619 z" fill="rgb(242,252,253)" transform="translate(0,0)"></path>
<path d="M 688.212 1008.76 C 748.109 1009.12 808.008 1009.18 867.906 1008.93 L 1185.78 1008.87 L 1401.07 1009.01 C 1432.99 1008.99 1475.63 1010.15 1506.99 1008.69 L 1507.02 1029.41 L 672.747 1030.04 C 678.735 1023.57 683.328 1016.11 688.212 1008.76 z" fill="rgb(213,239,249)" transform="translate(0,0)"></path>
<path d="M 518.755 842.619 C 520.198 855.253 519.358 885.205 519.358 899.213 L 519.35 1008.98 C 555.778 1008.96 604.196 1010.4 639.88 1008.59 C 644.849 1016.72 648.154 1022.63 654.443 1029.93 L 518.408 1029.84 L 518.142 902.461 C 518.129 890.438 517.321 852.354 518.755 842.619 z" fill="rgb(213,239,249)" transform="translate(0,0)"></path>
<path d="M 845.737 903.167 C 880.649 902.393 883.173 953.462 852.196 964.31 C 823.359 965.308 816.075 937.045 827.388 914.94 C 830.977 907.927 838.319 904.834 845.737 903.167 z" fill="rgb(26,58,92)" transform="translate(0,0)"></path>
<path d="M 844.028 912.962 C 866.243 912.102 866.683 943.739 852.059 954.093 C 828.047 955.311 829.395 923.705 844.028 912.962 z" fill="rgb(242,252,253)" transform="translate(0,0)"></path>
<path d="M 984.412 904.244 C 1009.34 902.119 1028.59 908.75 1010.17 936.271 C 1013.3 942.914 1021.49 956.885 1017.37 963.462 C 1014.17 964.487 1013.92 964.317 1010.49 963.706 C 1007.27 960.922 1008.19 961.397 1006.57 956.753 C 1005.2 950.04 1003 939.275 994.697 938.762 C 987.273 943.41 991.325 955.596 988.923 962.443 C 985.611 964.324 987.314 963.989 983.68 963.692 C 978.392 959.649 979.053 950.535 979.134 944.419 C 979.286 932.988 979.109 921.419 980.03 910.032 C 980.297 906.728 982.108 905.967 984.412 904.244 z" fill="rgb(15,34,55)" transform="translate(0,0)"></path>
<path d="M 990.306 912.807 C 1002.38 912.646 1010.6 914.877 1003.92 929.053 C 999.229 930.977 995.289 932.636 991.225 929.164 C 989.486 924.594 990.16 917.918 990.306 912.807 z" fill="rgb(242,252,253)" transform="translate(0,0)"></path>
<path d="M 1199.14 927.187 C 1199.18 920.344 1196.93 909.565 1201.89 904.761 C 1205.21 903.727 1207.22 903.402 1209.33 906.473 C 1210.39 914.654 1210.33 954.567 1208.89 962.063 C 1206.08 964.41 1205.37 963.883 1201.41 964.526 C 1197.17 959.706 1198.78 944.247 1198.9 937.026 L 1177.68 937.02 L 1177.85 950.77 C 1177.91 955.314 1178.22 959.761 1174.94 963.137 C 1171.95 963.91 1171.77 963.741 1168.72 962.773 C 1164.53 957.809 1165.07 909.064 1169.02 903.834 C 1171.57 903.876 1172.51 903.973 1175.05 904.338 C 1179.84 909.65 1177.76 919.138 1177.55 927.258 L 1199.14 927.187 z" fill="rgb(15,34,55)" transform="translate(0,0)"></path>
<path d="M 1083.94 904.048 C 1088.07 903.946 1092.61 904.214 1096.77 904.36 C 1101.81 920.634 1106.89 936.908 1111.81 953.219 C 1112.72 956.24 1114.41 960.507 1112.28 962.915 C 1108.55 963.775 1108.14 964.098 1104.73 962.803 C 1100.95 959.245 1099.27 952.327 1097.38 947.075 L 1081.72 947.045 C 1080.72 951.038 1079.57 956.899 1077.65 960.481 C 1075.59 964.338 1069.92 964.805 1066.96 961.419 C 1067.61 954.158 1080.94 913.002 1083.94 904.048 z" fill="rgb(15,34,55)" transform="translate(0,0)"></path>
<path d="M 1089.17 916.626 C 1091.18 919.942 1095.39 933.142 1095.3 937.263 L 1093.23 938.273 C 1089.65 938.269 1087.21 938.95 1085.06 936.068 C 1084.22 931.076 1087.65 922.222 1089.17 916.626 z" fill="rgb(242,246,251)" transform="translate(0,0)"></path>
<path d="M 916.968 902.946 L 922.135 903.958 C 923.642 905.222 925.505 906.869 925.236 909.179 C 923.455 924.496 928.872 946.576 917.9 958.891 C 911.257 966.347 894.773 965.897 888.372 959.028 C 879.736 949.761 881.274 933.887 881.457 922.107 C 881.443 916.892 880.122 906.501 884.622 903.691 C 888.566 903.728 887.237 903.217 890.423 905.13 C 895.976 914.459 888.031 948.41 896.553 952.213 C 925.005 964.907 907.655 913.417 916.968 902.946 z" fill="rgb(15,34,55)" transform="translate(0,0)"></path>
<path d="M 1029.09 904.169 C 1037.83 903.988 1048.68 903.337 1057.28 904.339 C 1059.74 904.625 1059.25 904.839 1060.66 906.844 C 1060.7 910.73 1061.24 909.365 1059 912.146 C 1053.85 914.376 1044.31 913.455 1038.14 913.345 L 1038.12 927.744 C 1045.18 927.678 1053.72 926.313 1058.81 931.939 L 1058.35 933.737 C 1052.18 938.317 1046.34 937.112 1038.65 936.852 L 1038.58 950.25 L 1038.71 952.481 C 1044.9 958.302 1056.84 948.42 1063.61 957.567 C 1062.69 967.219 1035.95 963.622 1027.39 963.514 C 1026.98 953.795 1025.96 909.159 1029.09 904.169 z" fill="rgb(15,34,55)" transform="translate(0,0)"></path>
<path d="M 1142.87 903.198 C 1147.69 902.954 1152.88 903.642 1157.23 905.785 C 1159.45 908.77 1159 907.129 1158.53 910.901 C 1152.21 919.2 1147.79 909.024 1137.51 914.87 C 1133.55 916.97 1131.21 920.359 1130.21 924.531 C 1123.95 950.534 1134.68 954.553 1158.21 953.437 C 1158.65 953.563 1159.09 953.688 1159.53 953.813 C 1159.61 958.47 1159.15 961.717 1153.92 963.138 C 1122.9 971.554 1108.51 939.241 1122.63 915.414 C 1127.26 907.611 1134.27 904.954 1142.87 903.198 z" fill="rgb(15,34,55)" transform="translate(0,0)"></path>
<path d="M 930.46 904.112 C 943.192 904.024 957.96 903.322 970.576 904.483 C 972.061 904.62 971.601 904.686 972.729 906.266 C 972.872 910.301 973.494 910.034 971.824 913.012 C 968.001 914.845 961.516 914.114 956.952 913.969 L 957.003 949.752 C 957.077 951.462 957.138 953.171 957.187 954.882 C 957.308 959.296 957.684 960.302 954.864 963.271 C 951.498 964.051 951.375 964.012 947.938 963.276 C 944.484 958.273 946.002 923.139 946.045 914.054 L 938.449 914.172 C 934.601 914.263 934.064 914.71 930.934 912.671 C 929.338 908.947 930.045 908.445 930.46 904.112 z" fill="rgb(15,34,55)" transform="translate(0,0)"></path>
<path d="M 518.631 565.964 L 1217.28 565.94 C 1212.81 573.507 1209.95 578.646 1207.2 587.043 C 1200.41 607.972 1202.34 630.758 1212.56 650.247 C 1222.54 669.364 1239.87 683.604 1260.55 689.702 C 1282.96 696.44 1304.53 692.664 1324.84 681.833 C 1332.15 691.94 1362.93 720.322 1374.07 731.692 C 1395 753.175 1395.58 752.203 1416.31 730.865 C 1420.82 733.476 1496.42 732.79 1507.06 732.483 L 1507.05 752.106 L 518.738 752.308 L 518.768 733.104 L 518.631 565.964 z" fill="rgb(242,252,253)" transform="translate(0,0)"></path>
<path d="M 1416.31 730.865 C 1420.82 733.476 1496.42 732.79 1507.06 732.483 L 1507.05 752.106 L 518.738 752.308 L 518.768 733.104 C 598.552 731.569 682.141 732.875 762.352 732.832 L 1146.78 732.269 L 1301.25 732.445 C 1317.18 732.502 1361.36 734.23 1374.07 731.692 C 1395 753.175 1395.58 752.203 1416.31 730.865 z" fill="rgb(213,239,249)" transform="translate(0,0)"></path>
<path d="M 746.219 639.428 C 771.68 636.993 796.857 642.718 774.271 672.602 C 778.47 679.653 788.202 694.081 782.372 701.864 C 776.435 703.642 773.779 700.221 771.643 695.379 C 769.119 686.321 768.169 673.491 755.693 677.278 C 749.66 684.251 761.208 707.404 744.013 700.998 C 740.343 694.598 742.927 656.522 742.636 646.927 C 742.527 643.371 743.863 641.717 746.219 639.428 z" fill="rgb(15,34,55)" transform="translate(0,0)"></path>
<path d="M 754.114 648.034 C 767.163 647.366 776.417 651.857 768.069 665.71 C 763.563 667.862 758.701 669.413 754.959 665.643 C 753.236 660.996 753.961 653.307 754.114 648.034 z" fill="rgb(242,252,253)" transform="translate(0,0)"></path>
<path d="M 989.226 639.482 C 1014.21 637.127 1035.92 642.559 1017.48 671.106 C 1014.32 675.989 1030.12 690.23 1024.25 700.735 C 1018.77 702.889 1015.43 700.721 1013.23 695.77 C 1011.77 690.064 1010.24 680.879 1005.73 677.45 C 1002.26 676.588 1002.12 676.662 998.545 677.443 C 992.016 683.161 998.964 691.275 995.77 698.441 C 994.271 701.804 988.351 702.057 985.586 700.5 C 983.488 695.658 984.991 650.854 985.185 642.006 C 985.22 640.409 987.658 640.006 989.226 639.482 z" fill="rgb(26,58,92)" transform="translate(0,0)"></path>
<path d="M 995.972 648.812 C 1007.88 648.492 1017.08 649.716 1011.03 664.346 C 993.587 673.97 995.684 660.668 995.972 648.812 z" fill="rgb(242,252,253)" transform="translate(0,0)"></path>
<path d="M 1115.9 662.422 C 1115.98 655.74 1113.69 644.622 1118.26 639.885 C 1121.39 638.543 1124.66 638.269 1127.03 640.961 C 1127.88 649.754 1127.71 690.834 1126.72 699.5 C 1124.14 701.74 1122.84 701.424 1119.19 702.207 C 1113.96 697.393 1115.85 680.628 1116.03 673.174 L 1093.99 673.126 C 1094.12 679.845 1095.81 696.29 1090.98 700.594 C 1088.72 700.915 1083.24 701.431 1083.07 698.091 C 1082.62 688.911 1080.54 644.651 1084.07 639.106 L 1085.56 639.085 C 1090.32 639.053 1090.46 639.176 1093.16 641.83 C 1095.04 646.88 1094.03 656.499 1093.98 662.543 L 1115.9 662.422 z" fill="rgb(26,58,92)" transform="translate(0,0)"></path>
<path d="M 944.763 639.428 L 958.776 639.476 C 961.582 649.367 976.105 692.88 975.413 699.185 C 972.888 701.268 968.915 701.455 966.057 700.035 C 963.058 695.934 960.995 688.212 959.345 683.115 L 942.702 683.171 C 941.312 689.07 940.307 697.658 935.435 700.811 C 932.03 701.119 930.58 701.628 927.707 700.123 C 926.473 694.704 941.787 647.477 944.763 639.428 z" fill="rgb(26,58,92)" transform="translate(0,0)"></path>
<path d="M 950.081 651.62 C 952.38 654.654 957.094 668.979 957.256 673.228 L 955.25 674.053 C 946.582 674.487 943.166 674.216 946.551 663.691 C 947.784 659.858 948.981 655.532 950.081 651.62 z" fill="rgb(242,252,253)" transform="translate(0,0)"></path>
<path d="M 794.94 639.133 C 802.327 639.119 822.231 637.911 828.12 640.038 C 833.004 652.608 813.192 649.31 806.017 649.115 L 805.955 663.791 C 810.198 663.778 822.907 663.124 825.904 665.072 C 828.184 668.617 827.728 667.027 827.816 671.072 C 823.414 676.849 816.109 672.18 806.972 674.319 C 805.478 676.915 805.973 682.922 805.985 686.25 C 805.974 687.621 806.172 689.016 806.313 690.39 C 810.693 694.39 821.173 690.499 829.019 691.805 C 832.297 693.757 833.653 694.785 832.415 698.604 C 825.88 703.742 804.262 701.491 795.001 700.888 C 794.043 692.129 793.737 646.499 794.94 639.133 z" fill="rgb(15,34,55)" transform="translate(0,0)"></path>
<path d="M 887.71 639.248 C 894.793 639.125 913.889 637.813 919.396 640.114 C 925.918 652.42 903.84 649.225 897.064 649.141 L 896.997 663.882 C 903.899 663.785 925.609 660.308 918.081 673.32 C 913.579 674.945 904.783 672.874 898.092 674.462 C 896.635 676.844 897.143 682.159 897.171 685.25 C 897.261 688.566 896.749 688.315 898.249 690.724 C 906.696 694.121 919.392 688.938 923.568 695.325 C 923.342 698.376 923.433 698.242 921.862 700.831 C 917.133 701.88 892.005 701.248 886.053 701.176 C 885.971 691.996 884.307 643.795 887.71 639.248 z" fill="rgb(15,34,55)" transform="translate(0,0)"></path>
<path d="M 856.765 638.2 C 863.295 638.038 871.626 638.603 873.806 646.018 L 872.424 648.349 C 863.251 652.097 855.156 642.09 850.066 653.675 C 851.652 663.212 876.033 667.963 876.364 682.078 C 876.716 697.119 865.949 701.282 853.283 702.25 C 848.15 701.388 840.561 701.019 837.594 696.477 C 837.967 692.95 837.855 692.642 839.908 689.918 C 846.981 688.017 857.739 696.986 863.297 687.674 C 867.396 681.089 857.918 675.649 852.901 673.399 C 832.111 664.076 832.257 643.281 856.765 638.2 z" fill="rgb(15,34,55)" transform="translate(0,0)"></path>
<path d="M 1052.03 639.239 C 1058.56 638.477 1081.78 637.098 1072.86 650.051 C 1068.9 651.693 1062.29 647.845 1056.98 648.819 C 1039.85 651.883 1037.78 682.177 1052.36 689.476 C 1058.93 692.763 1066.02 691.074 1072.38 688.6 C 1073.59 692.146 1074.34 693.581 1074.25 697.317 C 1070.05 703.696 1055.38 702.35 1048.87 699.922 C 1041.92 697.261 1036.36 691.882 1033.47 685.028 C 1025.48 666.532 1033.1 646.839 1052.03 639.239 z" fill="rgb(26,58,92)" transform="translate(0,0)"></path>
<path d="M 243.604 1139.07 C 265.132 1138.85 253.194 1143.45 260.099 1152.89 C 262.529 1154.2 264.582 1154.53 267.292 1154.69 C 277.999 1155.33 360.818 1156.39 364.698 1152.68 C 368.258 1149.28 367.786 1144.46 367.981 1139.88 L 386.203 1139.85 L 386.649 1296.84 L 386.633 1311.19 L 243.594 1311.3 L 243.604 1139.07 z" fill="rgb(242,246,251)" transform="translate(0,0)"></path>
<path d="M 257.095 1162.23 C 267.899 1162.15 302.236 1160.34 309.81 1165.02 C 312.725 1169.97 312.513 1178 311.823 1183.59 C 310.648 1193.1 316.186 1212.56 307.029 1218.07 C 295.429 1217.99 260.05 1220.42 252.405 1214.86 C 249.174 1209.21 251.085 1192.73 250.924 1185.48 C 250.712 1175.91 247.865 1167.53 257.095 1162.23 z" fill="rgb(15,34,55)" transform="translate(0,0)"></path>
<path d="M 262.933 1174.98 L 299.178 1174.58 L 299.092 1205.94 L 262.818 1205.99 L 262.933 1174.98 z" fill="rgb(40,120,232)" transform="translate(0,0)"></path>
<path d="M 256.967 1231.22 C 272.559 1231.19 366.558 1230.1 375.02 1232.44 C 378.1 1235.11 377.294 1233.73 378.162 1237.58 C 377.337 1241.32 377.066 1241.41 374.271 1244.23 C 358.761 1243.87 261.174 1245.51 255.24 1242.86 C 251.227 1238.24 252.755 1234.95 256.967 1231.22 z" fill="rgb(15,34,55)" transform="translate(0,0)"></path>
<path d="M 255.205 1257.93 C 284.132 1257.33 313.461 1258.29 342.428 1257.86 C 352.128 1257.71 364.323 1257.41 373.791 1258.47 C 377.129 1260.73 376.229 1259.48 377.69 1263.04 C 377.445 1266.88 377.153 1267.06 374.954 1270.4 C 362.164 1271.84 262.367 1271.86 256.639 1269.89 C 254.295 1269.09 253.752 1267.57 252.747 1265.49 C 252.949 1261.65 253.266 1261.4 255.205 1257.93 z" fill="rgb(26,58,92)" transform="translate(0,0)"></path>
<path d="M 257.479 1284.11 C 281.244 1283.67 305.945 1284.33 329.828 1284.12 C 339.841 1284.03 365.372 1283.61 374.359 1285.08 C 377.578 1287.36 376.566 1285.89 377.627 1289.57 C 376.908 1293.57 376.734 1294.01 373.815 1296.83 C 360.228 1297.28 260.801 1298.94 255.957 1295.39 C 254.352 1294.22 253.731 1292.88 253.662 1290.91 C 253.56 1288.01 255.598 1286.02 257.479 1284.11 z" fill="rgb(26,58,92)" transform="translate(0,0)"></path>
<path d="M 1353.21 566.916 L 1506.95 566.873 L 1507.06 732.483 C 1496.42 732.79 1420.82 733.476 1416.31 730.865 C 1419.75 726.709 1424.33 722.198 1423.63 716.339 C 1422.9 710.313 1372.12 661.491 1364.08 655.588 C 1362.43 654.379 1360.67 653.434 1358.87 652.487 C 1357.91 651.984 1356.96 651.474 1355.99 650.989 C 1370.53 621.519 1369.48 595.603 1353.21 566.916 z" fill="rgb(242,252,253)" transform="translate(0,0)"></path>
<path d="M 1275.26 541.104 C 1314.35 535.892 1350.23 563.437 1355.29 602.544 C 1360.36 641.651 1332.68 677.428 1293.55 682.347 C 1254.64 687.239 1219.09 659.738 1214.05 620.838 C 1209.01 581.938 1236.38 546.288 1275.26 541.104 z" fill="rgb(242,252,253)" transform="translate(0,0)"></path>
<path d="M 1273.81 544.358 C 1311.01 538.324 1346.04 563.603 1352.05 600.804 C 1358.05 638.004 1332.74 673.019 1295.53 678.988 C 1258.37 684.949 1223.41 659.677 1217.42 622.523 C 1211.42 585.369 1236.66 550.384 1273.81 544.358 z" fill="rgb(26,58,92)" transform="translate(0,0)"></path>
<path d="M 1276.73 555.24 C 1308.19 550.857 1337.19 572.96 1341.3 604.455 C 1345.41 635.95 1323.06 664.759 1291.53 668.601 C 1260.38 672.398 1232 650.375 1227.94 619.26 C 1223.87 588.145 1245.65 559.571 1276.73 555.24 z" fill="rgb(40,120,232)" transform="translate(0,0)"></path>
<path d="M 660.983 865.378 C 689.927 865.204 715.247 881.825 718.853 911.922 C 719.859 919.954 719.059 928.11 716.512 935.794 C 711.081 952.324 679.024 1001.96 666.943 1017.38 L 663.504 1018.83 L 661.484 1018 C 647.847 1001.55 613.135 946.881 609.957 925.377 C 605.618 896.023 630.296 868.441 660.983 865.378 z" fill="rgb(40,120,232)" transform="translate(0,0)"></path>
<path d="M 656.171 885.447 C 675.434 880.771 694.856 892.538 699.629 911.778 C 704.402 931.017 692.733 950.497 673.518 955.368 C 654.165 960.273 634.515 948.502 629.708 929.125 C 624.9 909.748 636.77 890.157 656.171 885.447 z" fill="rgb(26,58,92)" transform="translate(0,0)"></path>
<path d="M 658.79 897.169 C 667.171 894.966 676.09 897.439 682.141 903.644 C 688.191 909.849 690.438 918.828 688.023 927.152 C 685.609 935.475 678.906 941.858 670.475 943.862 C 657.651 946.911 644.76 939.077 641.559 926.29 C 638.359 913.502 646.041 900.52 658.79 897.169 z" fill="rgb(242,246,251)" transform="translate(0,0)"></path>
<path d="M 381.745 1115.48 C 390.877 1115.33 400.144 1115.35 409.289 1115.3 L 409.17 1335.54 L 222.252 1335.51 C 221.371 1281.55 222.609 1227.23 222.235 1173.24 C 222.104 1154.25 222.282 1134.88 222.896 1115.91 L 234.75 1115.8 L 256.941 1115.74 L 256.962 1127.06 C 229.416 1126.19 230.831 1126.92 230.946 1154.07 C 231.171 1206.92 230.782 1259.81 231.192 1312.67 C 231.226 1317.17 231.873 1322.86 237.481 1323.57 C 286.504 1324.22 335.649 1323.79 384.699 1323.76 C 386.628 1323.75 396.061 1323.29 396.685 1322.3 C 400.84 1315.77 399.088 1305.13 399.389 1297.6 C 398.519 1244.65 399.677 1191.69 398.928 1138.74 C 398.764 1127.13 393.123 1127.26 382.907 1126.94 C 378.006 1126.78 372.939 1127.03 368.026 1127.13 C 367.917 1123.44 367.355 1120.18 369.004 1117.05 C 372.152 1114.73 377.456 1115.46 381.745 1115.48 z" fill="rgb(20,136,188)" transform="translate(0,0)"></path>
<path d="M 1638.4 1192.17 C 1658.13 1191.99 1678.42 1192.75 1698.28 1192.85 L 1827.73 1192.88 C 1809.12 1205.64 1790.12 1219.56 1771.75 1232.75 C 1759.79 1242.47 1744.24 1253.63 1731.63 1262.63 C 1727.83 1260.05 1722.88 1256.88 1719.48 1254.01 C 1692.79 1234.91 1664.41 1212.44 1638.4 1192.17 z" fill="rgb(40,120,232)" transform="translate(0,0)"></path>
<path d="M 1727.53 1247.39 C 1712.32 1233.4 1707.66 1211.77 1730.39 1203.07 C 1736.92 1200.54 1744.19 1200.71 1750.6 1203.53 C 1763.7 1209.39 1766.97 1220.33 1771.75 1232.75 C 1759.79 1242.47 1744.24 1253.63 1731.63 1262.63 C 1727.83 1260.05 1722.88 1256.88 1719.48 1254.01 C 1721.49 1251.95 1725.17 1249.25 1727.53 1247.39 z" fill="rgb(40,120,232)" transform="translate(0,0)"></path>
<path d="M 1649.31 1328.64 C 1669.74 1311.82 1695.08 1296.92 1716.03 1280.36 C 1729.86 1269.41 1726.71 1281.7 1739.56 1272.62 C 1745.19 1276.52 1751.51 1281.55 1757.05 1285.73 C 1778.1 1299.71 1803.63 1316.95 1822.53 1333.24 C 1762.6 1333.24 1701.45 1332.53 1641.65 1333.23 L 1649.31 1328.64 z" fill="rgb(40,120,232)" transform="translate(0,0)"></path>
<path d="M 1649.31 1328.64 C 1669.74 1311.82 1695.08 1296.92 1716.03 1280.36 C 1729.86 1269.41 1726.71 1281.7 1739.56 1272.62 C 1745.19 1276.52 1751.51 1281.55 1757.05 1285.73 C 1753.42 1288.5 1657.42 1328.22 1651.18 1329.35 L 1649.31 1328.64 z" fill="rgb(40,120,232)" transform="translate(0,0)"></path>
<path d="M 1628 1198.72 C 1638.38 1207.82 1649.01 1216.64 1659.88 1225.16 C 1672.82 1235.04 1685.82 1244.84 1698.9 1254.55 C 1704.29 1258.38 1709.95 1262.27 1715.26 1266.17 C 1687.01 1285.97 1654.86 1307.93 1627.82 1328.99 L 1627.8 1310.09 C 1627.78 1286.67 1627.89 1263.26 1628.13 1239.85 C 1627.73 1226.29 1627.95 1212.31 1628 1198.72 z" fill="rgb(40,120,232)" transform="translate(0,0)"></path>
<path d="M 1698.9 1254.55 C 1704.29 1258.38 1709.95 1262.27 1715.26 1266.17 C 1687.01 1285.97 1654.86 1307.93 1627.82 1328.99 L 1627.8 1310.09 C 1637.33 1304.58 1649.24 1292.84 1658.48 1285.86 C 1672.21 1275.49 1685.69 1265.63 1698.9 1254.55 z" fill="rgb(40,120,232)" transform="translate(0,0)"></path>
<path d="M 1628 1198.72 C 1638.38 1207.82 1649.01 1216.64 1659.88 1225.16 C 1655.49 1229.23 1634.5 1249.53 1629.57 1249.39 C 1628.43 1245.52 1628.39 1243.81 1628.13 1239.85 C 1627.73 1226.29 1627.95 1212.31 1628 1198.72 z" fill="rgb(40,120,232)" transform="translate(0,0)"></path>
<path d="M 1751.08 1263.46 C 1775.69 1242.22 1809.66 1222.51 1835.81 1201.53 L 1835.83 1216.92 C 1835.2 1253.37 1836.57 1290.77 1835.84 1326.6 C 1808.02 1305.16 1778.63 1286.14 1750.58 1264.39 L 1751.08 1263.46 z" fill="rgb(40,120,232)" transform="translate(0,0)"></path>
<path d="M 1751.08 1263.46 C 1775.69 1242.22 1809.66 1222.51 1835.81 1201.53 L 1835.83 1216.92 C 1834.65 1221.11 1834.59 1223 1830.04 1224.7 C 1819.56 1228.62 1757.35 1264.66 1751.08 1263.46 z" fill="rgb(40,120,232)" transform="translate(0,0)"></path>
<path d="M 310.818 1088.19 C 312.109 1088.14 313.401 1088.14 314.692 1088.2 C 336.989 1089.1 322.894 1112.87 329.931 1120.28 C 337.035 1121.57 338.81 1115.33 341.232 1109.94 L 355.276 1109.96 L 355.647 1141.87 L 329.25 1141.86 L 269.756 1141.76 L 269.689 1110.35 C 279.338 1110.8 288.995 1111.06 298.655 1111.13 C 301.073 1099.08 299.075 1094.69 310.818 1088.19 z" fill="rgb(20,136,188)" transform="translate(0,0)"></path>
<path d="M 1360.72 665.567 C 1366.43 669.357 1406.61 711.237 1413.17 718.291 C 1407.28 724.296 1401.15 731.182 1395.41 737.416 C 1379 722.904 1358.62 701.784 1341.8 686.026 C 1349.9 679.108 1354.43 674.096 1360.72 665.567 z" fill="rgb(40,120,232)" transform="translate(0,0)"></path>
<path d="M 1715.71 1164.92 C 1721.46 1160.06 1727.27 1155.26 1733.11 1150.5 L 1740.66 1156.12 L 1740 1158.44 L 1739.94 1162.06 L 1739.19 1181.04 C 1727.49 1181.04 1716.37 1181.01 1704.7 1180.5 C 1701.51 1180.55 1700.43 1180.57 1697.31 1180.08 L 1696.78 1178.84 C 1698.93 1175.37 1711.38 1167.83 1715.71 1164.92 z" fill="rgb(40,120,232)" transform="translate(0,0)"></path>
<path d="M 1715.71 1164.92 C 1721.46 1160.06 1727.27 1155.26 1733.11 1150.5 L 1740.66 1156.12 L 1740 1158.44 C 1733.01 1159.85 1723.17 1166.83 1717.03 1171.03 L 1718.21 1167.43 L 1715.71 1164.92 z" fill="rgb(216,229,250)" transform="translate(0,0)"></path>
<path d="M 1704.7 1180.5 C 1701.51 1180.55 1700.43 1180.57 1697.31 1180.08 L 1696.78 1178.84 C 1698.93 1175.37 1711.38 1167.83 1715.71 1164.92 L 1718.21 1167.43 L 1717.03 1171.03 L 1704.7 1180.5 z" fill="rgb(229,239,251)" transform="translate(0,0)"></path>
<path d="M 1010.66 1042.23 C 1014.6 1042.07 1017.56 1041.58 1021.21 1042.94 C 1022.19 1047.84 1021.57 1099.01 1021.53 1107.71 C 1017.27 1107.88 1014.9 1108.28 1010.81 1107.02 C 1010 1101.29 1009.88 1048.01 1010.66 1042.23 z" fill="rgb(15,34,55)" transform="translate(0,0)"></path>
<path d="M 1740.66 1156.12 L 1759.02 1168.61 C 1764.43 1171.35 1772.36 1177.07 1777.13 1180.97 L 1739.19 1181.04 L 1739.94 1162.06 L 1740 1158.44 L 1740.66 1156.12 z" fill="rgb(40,120,232)" transform="translate(0,0)"></path>
<path d="M 1740.66 1156.12 L 1759.02 1168.61 C 1753.39 1172.49 1744.7 1165.19 1739.94 1162.06 L 1740 1158.44 L 1740.66 1156.12 z" fill="rgb(40,120,232)" transform="translate(0,0)"></path>
<path d="M 998.303 69.9378 C 1016.5 55.7317 1034.36 48.8157 1057.93 51.6036 C 1077.88 53.9611 1096.05 64.2161 1108.38 80.0745 C 1127.27 104.294 1127.03 134.926 1114.05 161.794 L 1121.35 168.02 C 1130.39 129.81 1174.6 107.59 1211.35 116.151 C 1230.63 120.597 1247.34 132.557 1257.76 149.375 C 1267.32 165.035 1270.13 183.902 1265.53 201.666 C 1260.48 220.706 1248.08 236.963 1231.05 246.866 C 1227.38 248.956 1222.87 251.075 1219.04 252.907 C 1224.16 253.186 1230.51 253.351 1235.5 253.834 L 1425.14 253.914 C 1438.91 253.91 1513.16 252.572 1519.57 255.57 C 1523.75 262.513 1521.9 285.709 1522.06 295.291 L 1522.06 400.332 C 1522.06 409.022 1523.35 459.011 1519.66 463.569 C 1506.76 467.503 1412.27 466.05 1393.35 466.057 L 1143.77 465.961 C 1104.88 465.969 1060.99 464.978 1022.41 466.061 L 1008.99 466.097 C 987.091 464.983 954.108 465.997 931.495 465.98 L 775.505 465.798 L 636.757 465.371 C 607.796 465.183 570.136 464.267 541.568 465.823 C 532.586 465.196 512.988 468.427 507.214 462.373 C 502.552 447.378 505.41 351.395 505.388 329.202 L 505.112 286.08 C 505.025 275.938 502.262 259.34 510.707 253.269 C 516.398 252.314 534.391 252.687 540.614 252.718 L 594.742 252.938 L 815.703 253.106 C 864.996 202.645 919.211 67.4122 998.303 69.9378 z" fill="rgb(26,58,92)" transform="translate(0,0)"></path>
<path d="M 815.703 253.106 C 864.996 202.645 919.211 67.4122 998.303 69.9378 C 982.627 84.71 973.807 102.449 973.291 124.279 C 972.892 143.964 980.446 162.978 994.245 177.023 C 1008.17 191.44 1027.39 199.54 1047.44 199.448 C 1062.14 199.512 1072.61 196.248 1085.26 189.19 C 1089.52 193.619 1093.77 198.07 1097.99 202.542 L 1097.26 205.874 C 1110.1 220.828 1130.9 239.243 1145.22 253.637 L 702.278 253.94 L 576.091 253.901 C 559.238 253.885 526.578 254.689 510.707 253.269 C 516.398 252.314 534.391 252.687 540.614 252.718 L 594.742 252.938 L 815.703 253.106 z" fill="rgb(213,239,249)" transform="translate(0,0)"></path>
<path d="M 1121.35 168.02 C 1130.39 129.81 1174.6 107.59 1211.35 116.151 C 1230.63 120.597 1247.34 132.557 1257.76 149.375 C 1267.32 165.035 1270.13 183.902 1265.53 201.666 C 1260.48 220.706 1248.08 236.963 1231.05 246.866 C 1227.38 248.956 1222.87 251.075 1219.04 252.907 C 1224.16 253.186 1230.51 253.351 1235.5 253.834 C 1217.2 254.765 1190.89 253.844 1172.2 253.712 C 1177.09 248.81 1183.61 243.352 1185.33 236.345 C 1186.46 231.737 1185.57 228.589 1182.97 224.725 C 1178.29 217.775 1134.64 172.841 1128.91 171.902 C 1125 171.26 1124.26 170.72 1121.35 168.02 z" fill="rgb(213,239,249)" transform="translate(0,0)"></path>
<path d="M 518.61 265.986 L 1508.02 266.226 L 1508.07 432.754 L 1508.06 452.964 L 673.466 452.997 C 677.632 447.452 682.559 438.88 686.292 432.798 C 706.777 393.575 750.434 356.147 724.484 310.04 C 715.431 294.059 700.342 282.381 682.602 277.625 C 664.777 272.606 645.677 275.047 629.687 284.389 C 614.293 293.362 601.833 308.596 597.453 326.009 C 594.9 336.204 595.022 346.886 597.808 357.02 C 601.99 371.742 630.511 415.545 639.977 431.633 C 643.015 435.179 650.201 448.045 653.156 452.68 L 518.368 452.989 L 518.037 327.954 C 518.019 314.109 517.078 277.798 518.61 265.986 z" fill="rgb(242,252,253)" transform="translate(0,0)"></path>
<path d="M 686.292 432.798 L 1189.51 432.974 L 1398.5 433.052 C 1433.88 433.042 1473.09 433.874 1508.07 432.754 L 1508.06 452.964 L 673.466 452.997 C 677.632 447.452 682.559 438.88 686.292 432.798 z" fill="rgb(213,239,249)" transform="translate(0,0)"></path>
<path d="M 518.368 452.989 L 518.037 327.954 C 518.019 314.109 517.078 277.798 518.61 265.986 C 520.037 280.164 519.215 307.521 519.224 322.719 L 519.278 432.454 C 546.077 432.519 572.875 432.425 599.673 432.171 C 608.947 432.116 631.46 432.606 639.977 431.633 C 643.015 435.179 650.201 448.045 653.156 452.68 L 518.368 452.989 z" fill="rgb(213,239,249)" transform="translate(0,0)"></path>
<path d="M 1003.12 328.128 C 1010.64 327.627 1013.01 326.281 1016.9 333.612 C 1023.93 346.887 1030.9 360.2 1037.9 373.498 C 1037.77 362.985 1034.64 335.942 1040.26 329.15 C 1043.76 327.843 1042.06 327.891 1045.53 328.827 C 1048.54 333.32 1047.81 385.514 1047.46 393.804 C 1043.38 394.203 1041.94 394.575 1037.89 393.621 C 1031.56 387.771 1018.59 359.306 1012.88 349.459 C 1012.51 359.75 1014.97 387.8 1009.18 394.166 C 1005.89 394.663 1007.21 394.792 1003.95 393.03 C 1001.34 386.211 1002.85 338.732 1003.12 328.128 z" fill="rgb(26,58,92)" transform="translate(0,0)"></path>
<path d="M 1080.73 328.315 C 1083.93 328.484 1084.08 328.504 1087.15 329.393 C 1090.99 334.366 1103.42 382.967 1104.86 391.513 C 1103.28 394.638 1100.44 395.544 1097.27 395.673 C 1092.77 393.254 1091.33 382.774 1089.59 377.12 C 1086.35 375.281 1084.66 375.929 1080.5 375.866 L 1072.36 375.952 C 1067.62 379.311 1070.4 391.659 1061.73 396.154 C 1059.04 395.893 1058.39 394.947 1056.34 393.172 C 1056.35 383.363 1069.34 342.071 1073.64 330.635 C 1074.36 328.728 1078.21 328.713 1080.73 328.315 z" fill="rgb(15,34,55)" transform="translate(0,0)"></path>
<path d="M 1079.51 339.682 C 1082.43 342.24 1086.76 361.553 1086.07 365.425 L 1083.24 366.203 C 1079.36 366.153 1077.68 366.8 1074.84 364.914 C 1072.84 359.275 1077.81 347.318 1079.51 339.682 z" fill="rgb(242,252,253)" transform="translate(0,0)"></path>
<path d="M 972.777 327.381 C 978.67 327.718 986.714 328.244 989.227 334.446 C 987.017 340.734 976.976 338.617 971.637 338.644 C 945.024 338.779 948.786 378.098 969.247 384.794 C 974.466 386.502 975.328 386.455 979.136 382.973 C 980.601 379.282 980.089 371.737 980.044 367.394 L 976.496 367.244 C 972.252 367.071 969.008 366.699 966.647 362.76 L 967.341 361.247 C 973.257 356.387 977.536 357.475 985.25 357.735 C 987.574 357.868 987.334 357.938 989.565 358.557 C 992.54 364.249 991.432 382.77 990.559 389.484 C 987.171 393.753 983.138 393.478 977.914 394.353 C 944.362 399.973 930.876 362.013 949.172 338.195 C 954.849 330.806 963.641 328.176 972.777 327.381 z" fill="rgb(15,34,55)" transform="translate(0,0)"></path>
<path d="M 889.156 327.281 C 895.207 327.175 906.237 327.113 909.05 333.516 C 908.595 337.423 909.282 336.216 906.91 338.84 C 898.61 341.018 891.654 332.775 883.712 341.757 C 882.438 354.933 922.665 362.405 908.426 384.618 C 903.278 392.648 899.591 393.067 890.943 395.068 C 884.157 395.005 873.459 395.322 870.401 388.559 C 872.779 372.441 884.167 388.982 892.447 384.26 C 914.423 371.73 874.57 364.206 872.533 350.971 C 870.389 337.042 875.8 330.948 889.156 327.281 z" fill="rgb(15,34,55)" transform="translate(0,0)"></path>
<path d="M 1115.95 328.046 C 1120.12 328.333 1120.98 327.724 1124.1 329.883 C 1125.82 336.553 1124.86 374.862 1124.77 383.814 C 1131.82 383.593 1145.83 381.408 1149.08 388.208 C 1148.53 391.043 1148.57 391.806 1146.82 394.175 L 1113.14 394.133 C 1113.01 377.729 1112.08 348.461 1113.71 330.902 C 1114.59 329.781 1115.34 328.829 1115.95 328.046 z" fill="rgb(15,34,55)" transform="translate(0,0)"></path>
<path d="M 920.258 328.103 C 924.212 327.773 928.54 326.757 931.433 329.792 C 932.94 341.927 931.929 380.083 931.537 394.053 C 927.636 394.281 925.291 394.835 921.856 393.083 C 918.747 388.435 920.199 337.428 920.258 328.103 z" fill="rgb(15,34,55)" transform="translate(0,0)"></path>
<path d="M 1037.43 60.7282 C 1060.59 56.821 1084.06 65.6684 1098.89 83.8918 C 1113.71 102.115 1117.59 126.9 1109.04 148.781 C 1100.5 170.662 1080.85 186.261 1057.6 189.619 C 1022.24 194.727 989.353 170.441 983.828 135.144 C 978.302 99.8464 1002.2 66.6709 1037.43 60.7282 z" fill="rgb(242,252,253)" transform="translate(0,0)"></path>
<path d="M 1043.1 62.7511 C 1077.42 59.9472 1107.54 85.454 1110.42 119.769 C 1113.3 154.084 1087.86 184.258 1053.55 187.219 C 1019.13 190.19 988.842 164.651 985.95 130.225 C 983.058 95.7982 1008.67 65.5642 1043.1 62.7511 z" fill="rgb(26,58,92)" transform="translate(0,0)"></path>
<path d="M 1037.19 73.1749 C 1065.84 67.0157 1094.03 85.3817 1099.98 114.085 C 1105.92 142.788 1087.34 170.836 1058.59 176.562 C 1030.15 182.228 1002.46 163.889 996.585 135.491 C 990.705 107.093 1008.83 79.2687 1037.19 73.1749 z" fill="rgb(0,190,242)" transform="translate(0,0)"></path>
<path d="M 656.782 285.275 C 695.077 282.265 734.699 316.832 719.565 355.878 C 709.826 381.007 682.745 419.405 667.688 443.239 C 665.202 446.189 666.093 446.091 663.116 446.673 C 657.057 442.161 638.84 408.224 633.481 399.988 C 627.042 388.961 619.38 378.605 613.329 367.357 C 593.811 331.072 617.741 291.897 656.782 285.275 z" fill="rgb(0,190,242)" transform="translate(0,0)"></path>
<path d="M 657.831 303.585 C 679.222 300.377 699.166 315.111 702.387 336.5 C 705.607 357.889 690.886 377.842 669.499 381.076 C 648.093 384.312 628.119 369.575 624.896 348.168 C 621.673 326.76 636.421 306.795 657.831 303.585 z" fill="rgb(26,58,92)" transform="translate(0,0)"></path>
<path d="M 661.544 313.549 C 677.477 312.394 691.315 324.405 692.413 340.342 C 693.51 356.278 681.45 370.073 665.51 371.114 C 649.65 372.15 635.939 360.163 634.847 344.307 C 633.754 328.451 645.692 314.697 661.544 313.549 z" fill="rgb(0,190,242)" transform="translate(0,0)"></path>
<path d="M 1126.13 186.598 C 1130.89 188.837 1168.84 228.03 1173.92 234.091 C 1169.56 240.085 1166.56 243.367 1160.62 247.633 C 1151.85 243.953 1121.09 210.878 1112.37 201.825 L 1126.13 186.598 z" fill="rgb(20,136,188)" transform="translate(0,0)"></path>
<path d="M 1108.04 169.763 C 1111.86 172.347 1116.15 177.467 1119.37 181.013 C 1115.26 185.435 1110.64 189.982 1106.4 194.322 C 1103.16 192.933 1097.26 185.574 1094.58 182.538 C 1100.63 177.946 1103.04 175.46 1108.04 169.763 z" fill="rgb(242,246,251)" transform="translate(0,0)"></path>
<metadata><recraft-signature>{"signed_by": "recraft", "signature_b64": "lleLGDgrYvANjcW8PHueV19Z8V8xeGQhhPYIQ/36+yBt/uXfkaisGSuNM9dKLmkyDMMPeHpgk4qd5Ujc7JV9Dw==", "signing_algo": "Ed25519", "generation_timestamp": 1776431291, "identifier": "ce2de417-25c3-447a-9896-94ab86a16346"}</recraft-signature></metadata></svg>