<svg xmlns="http://www.w3.org/2000/svg" height="1024" preserveAspectRatio="none" style="display: block;" version="1.1" viewBox="0 0 2048 1536" width="1365">
<path d="M 0 0 L 2048 0 L 2048 1536 L 0 1536 L 0 0 z" fill="rgb(242,246,251)" transform="translate(0,0)"></path>
<path d="M 1079.89 199.104 C 1108.51 198.233 1130.24 190.805 1158.16 184.822 C 1179.66 180.272 1201.44 177.183 1223.36 175.576 C 1531.45 150.405 1795.29 335.207 1888.1 629.016 C 1940.22 794.011 1927.41 953.688 1854.58 1110.88 C 1825.23 1174.85 1785.81 1233.69 1737.82 1285.16 C 1732.67 1290.58 1725.38 1298 1719.44 1302.36 C 1725.93 1317.7 1741.57 1357.61 1748.85 1370.38 C 1779.21 1370.52 1809.58 1370.45 1839.95 1370.17 C 1855.09 1370.1 1870.36 1369.74 1885.47 1370.51 C 1889.79 1370.73 1893.05 1372.14 1894.8 1376.37 C 1898.04 1384.17 1893.14 1390.38 1884.83 1390.51 C 1872.67 1390.7 1860.39 1390.57 1848.18 1390.53 L 1771.87 1390.15 L 1551.65 1389.97 L 559.903 1389.75 L 290.734 1390.12 L 220.187 1390.4 C 210.434 1390.48 199.306 1392.36 189.788 1390.53 C 186.617 1389.92 183.284 1388.62 181.385 1385.85 C 179.971 1383.79 179.821 1381.01 180.324 1378.63 C 180.896 1375.92 182.426 1373.11 184.929 1371.76 C 191.814 1368.02 270.347 1370.12 284.799 1369.77 C 292.575 1351.96 300.607 1332.47 308.828 1315.03 C 302.996 1311.6 281.083 1289.85 274.683 1283.74 C 168.647 1182.38 109.499 1037.99 108.908 892.174 C 107.898 756.116 160.799 625.192 256.044 528.026 C 332.003 451.156 432.856 403.852 540.527 394.591 C 562.489 392.73 580.261 394.153 602.015 394.083 L 601.95 301.951 C 601.943 286.224 601.776 270.637 602.366 254.908 C 603.34 228.92 629.532 234.628 648.627 234.861 C 648.942 223.392 647.763 190.921 654.565 183.361 C 663.346 180.693 733.978 184.332 747.629 184.87 L 928.135 192.857 C 975.669 195.298 1032.7 198.839 1079.89 199.104 z" fill="rgb(26,58,92)" transform="translate(0,0)"></path>
<path d="M 1079.89 199.104 C 1108.51 198.233 1130.24 190.805 1158.16 184.822 C 1179.66 180.272 1201.44 177.183 1223.36 175.576 C 1531.45 150.405 1795.29 335.207 1888.1 629.016 C 1940.22 794.011 1927.41 953.688 1854.58 1110.88 C 1825.23 1174.85 1785.81 1233.69 1737.82 1285.16 C 1732.67 1290.58 1725.38 1298 1719.44 1302.36 C 1713.19 1286.61 1661.37 1159.55 1657.4 1157.54 C 1653.14 1155.38 1641.33 1160.01 1636.74 1161.34 C 1625.22 1135.78 1630.8 1120.8 1600.65 1130.97 C 1595.13 1102.95 1592.18 1081.81 1590.32 1053.39 C 1588.84 1030.64 1590.47 982.974 1586.47 962.843 C 1579.05 925.503 1548.81 853.818 1516.28 831.748 C 1496.24 818.153 1471.35 825.752 1449.02 830.221 C 1451.84 804.47 1452.65 767.882 1454.1 741.121 L 1464.04 557.648 L 1477.51 328.772 C 1478.48 311.264 1479.59 293.764 1480.83 276.273 C 1481.8 263.729 1482.93 251.387 1483.62 238.774 C 1484.13 229.366 1478.9 220.557 1469.15 218.68 C 1458.25 216.581 1445.98 216.501 1434.75 215.931 L 1375.99 213.099 L 1177.74 203.535 L 1115.71 200.891 C 1106.14 200.52 1089.88 200.431 1080.95 199.248 L 1079.89 199.104 z" fill="rgb(213,239,249)" transform="translate(0,0)"></path>
<path d="M 602.015 394.083 L 602.047 847.504 C 554.943 816.382 522.304 812.015 489.788 864.918 C 466.932 902.105 448.721 942.964 444.024 986.942 C 441.963 1009.94 442.733 1036.93 441.625 1060.35 C 440.265 1089.09 441.372 1103.85 431.042 1131.74 C 416.929 1127.11 409.723 1125.27 405.116 1142.81 C 403.276 1149.81 401.433 1156.98 399.332 1163.92 C 392.695 1161.65 384.392 1157.69 377.963 1159.68 C 370.375 1166.97 316.329 1296.33 308.828 1315.03 C 302.996 1311.6 281.083 1289.85 274.683 1283.74 C 168.647 1182.38 109.499 1037.99 108.908 892.174 C 107.898 756.116 160.799 625.192 256.044 528.026 C 332.003 451.156 432.856 403.852 540.527 394.591 C 562.489 392.73 580.261 394.153 602.015 394.083 z" fill="rgb(213,239,249)" transform="translate(0,0)"></path>
<path d="M 628.722 249.375 C 634.597 248.83 649.501 249.151 655.858 249.167 L 708.799 249.46 L 867.875 249.96 L 1398.05 250.145 L 1398.41 850.991 C 1391.43 851.138 1385.12 851.744 1379.98 857.468 C 1361.11 878.464 1374.24 913.127 1382.08 935.947 C 1386.27 948.123 1394.29 963.756 1397.1 974.474 C 1398.4 979.479 1397.98 1002.71 1397.97 1008.98 L 1397.82 1065.63 L 1397.66 1277.7 L 1362.25 1277.59 L 615.787 1278.16 L 615.985 1086.55 C 615.963 1059.83 613.879 1030.64 617.039 1004.16 C 617.549 999.879 626.605 985.043 628.883 979.959 C 640.096 954.938 653.667 930.095 659.946 903.237 C 663.609 887.72 667.443 857.331 646.832 850.922 C 635.866 847.513 626.216 853.369 617.048 858.721 C 616.368 810.799 617.084 761.115 617.095 713.056 L 617.329 409.8 C 617.346 393.688 615.758 257.156 617.913 251.853 C 620.787 249.33 624.642 249.666 628.722 249.375 z" fill="rgb(229,248,252)" transform="translate(0,0)"></path>
<path d="M 1192.58 972.756 C 1255.63 968.361 1310.25 1016.04 1314.4 1079.11 C 1318.55 1142.18 1270.66 1196.61 1207.58 1200.52 C 1144.84 1204.41 1090.77 1156.83 1086.64 1094.11 C 1082.51 1031.38 1129.88 977.128 1192.58 972.756 z" fill="rgb(26,58,92)" transform="translate(0,0)"></path>
<path d="M 1166.05 985.115 C 1169.17 988.086 1194.53 1073.23 1198.03 1084.35 C 1181.15 1117.5 1168.24 1148.26 1149.81 1181.61 C 1144.66 1178.95 1139.64 1175.39 1134.81 1172.13 C 1119.54 1160.06 1106.68 1143.9 1099.58 1125.68 C 1089.21 1098.6 1090.07 1068.51 1101.94 1042.06 C 1115.48 1011.53 1136.21 996.71 1166.05 985.115 z" fill="rgb(40,120,232)" transform="translate(0,0)"></path>
<path d="M 1300.86 1049.06 C 1301.33 1049.42 1301.98 1049.87 1302.2 1050.43 C 1317.19 1089.42 1306.07 1136.68 1274.95 1164.65 C 1265.32 1173.31 1255.22 1178.75 1244.11 1184.88 C 1241.46 1179.18 1238.71 1170.83 1236.51 1164.75 C 1227.8 1139.42 1215.95 1110.66 1206.12 1085.51 C 1237.47 1072.77 1269.06 1060.62 1300.86 1049.06 z" fill="rgb(40,120,232)" transform="translate(0,0)"></path>
<path d="M 1201.22 1095.66 C 1203.73 1099.4 1212.14 1122.59 1213.95 1127.44 L 1236.42 1187.43 C 1220.27 1192.07 1208.95 1193.16 1192.48 1192.94 C 1178.54 1191.34 1171.39 1189.72 1158.15 1185.01 C 1163.46 1173.25 1170.91 1160.05 1176.76 1148.26 C 1185.25 1130.89 1193.41 1113.35 1201.22 1095.66 z" fill="rgb(0,190,242)" transform="translate(0,0)"></path>
<path d="M 1248.14 991.095 C 1271.72 1001.51 1286 1019.27 1298.18 1041.07 C 1286.42 1047.02 1259.03 1056.44 1245.27 1061.63 C 1233.8 1066.26 1222.28 1070.76 1210.7 1075.13 C 1222.44 1051.93 1236.66 1016.4 1248.14 991.095 z" fill="rgb(11,121,210)" transform="translate(0,0)"></path>
<path d="M 1193.65 980.42 C 1207.23 978.597 1226.96 983.494 1240.09 987.371 C 1231.48 1009.68 1220.4 1033.74 1210.25 1055.35 L 1202.4 1072.21 C 1193.52 1044.71 1183.43 1010.83 1175.28 982.826 C 1181.68 981.514 1187.18 981.044 1193.65 980.42 z" fill="rgb(0,190,242)" transform="translate(0,0)"></path>
<path d="M 768 385.28 C 819.404 379.858 865.52 417.011 871.163 468.391 C 876.805 519.772 839.851 566.047 788.496 571.91 C 736.827 577.808 690.209 540.58 684.532 488.887 C 678.855 437.194 716.283 390.735 768 385.28 z" fill="rgb(26,58,92)" transform="translate(0,0)"></path>
<path d="M 770.07 391.351 C 774.37 390.942 778.693 390.844 783.007 391.056 C 807.979 392.093 828.527 403.7 845.097 421.815 C 831.179 438.316 794.595 469.809 777.673 486.19 C 776.094 487.719 771.811 486.155 769.362 485.555 C 743.678 477.605 717.28 470.156 691.829 461.705 C 695.846 448.465 700.261 437.443 708.755 426.252 C 723.695 406.877 745.783 394.305 770.07 391.351 z" fill="rgb(40,120,232)" transform="translate(0,0)"></path>
<path d="M 691.487 469.216 C 713.07 474.339 748.011 486.341 770.773 492.85 C 770.517 516.997 770.398 541.145 770.417 565.294 C 722.371 562.507 685.167 516.998 691.487 469.216 z" fill="rgb(0,190,242)" transform="translate(0,0)"></path>
<path d="M 972.785 665.251 C 983.43 664.942 1032.72 663.785 1039.99 667.463 C 1041 671.041 1041.17 676.102 1041.17 679.898 C 1041.14 735.54 1041.12 791.283 1041.19 846.916 L 1041.29 889.995 C 1041.4 899.174 1041.74 909.727 1040.84 918.931 C 1040.58 921.504 1039.99 921.297 1038.18 922.383 C 1018.09 922.648 990.287 923.471 970.758 922.262 C 969.848 912.96 970.37 895.863 970.387 886.098 L 970.379 822.23 L 970.198 727.829 C 970.169 710.034 970.026 692.047 970.465 674.255 C 970.586 669.382 970.424 668.849 972.785 665.251 z" fill="rgb(26,58,92)" transform="translate(0,0)"></path>
<path d="M 994.655 672.515 C 1007.78 672.276 1020.9 672.224 1034.03 672.359 C 1035.45 750.879 1034.31 835.526 1033.78 914.165 L 1014.32 914.284 L 977.605 914.969 C 976.948 891.691 977.7 865.329 977.613 841.756 L 977.056 672.87 L 994.655 672.515 z" fill="rgb(0,190,242)" transform="translate(0,0)"></path>
<path d="M 830.872 284.993 L 1170.05 284.892 L 1169.95 332.584 C 1130.58 333.842 1087.05 332.981 1047.44 332.967 L 830.943 332.976 L 830.872 284.993 z" fill="rgb(26,58,92)" transform="translate(0,0)"></path>
<path d="M 837.87 291.144 L 1162.18 291.906 L 1162.48 325.877 C 1054.71 327.071 946.145 324.914 838.157 326.057 L 837.87 291.144 z" fill="rgb(0,190,242)" transform="translate(0,0)"></path>
<path d="M 884.066 741.465 C 905.01 741.445 925.953 741.606 946.893 741.948 C 948.355 783.694 946.444 826.573 947.157 868.416 C 947.441 885.11 947.518 903.403 946.856 920.048 C 944.908 922.648 945.874 921.83 942.03 922.704 C 922.263 922.811 897.383 923.434 878 922.449 L 878.003 805.326 C 878.002 789.04 877.007 759.515 878.518 744.53 C 880.583 741.642 879.732 742.569 884.066 741.465 z" fill="rgb(26,58,92)" transform="translate(0,0)"></path>
<path d="M 885.677 749.049 L 939.124 748.976 L 939.007 915.029 L 885.233 915.097 C 884.842 859.748 884.99 804.396 885.677 749.049 z" fill="rgb(40,120,232)" transform="translate(0,0)"></path>
<path d="M 686.836 750.982 L 756.235 751.013 C 757.849 765.735 757.922 916.557 755.604 922.365 C 733.864 922.503 708.214 923.274 686.788 922.348 C 685.896 883.126 687.418 842.146 686.811 802.749 C 686.68 794.221 685.865 756.225 686.836 750.982 z" fill="rgb(26,58,92)" transform="translate(0,0)"></path>
<path d="M 694.585 758.36 C 712.366 757.864 731.336 758.123 749.221 758.108 C 750.086 809.188 749.249 862.85 749.114 914.147 L 693.959 914.267 C 693.991 862.885 693.405 809.567 694.585 758.36 z" fill="rgb(0,190,242)" transform="translate(0,0)"></path>
<path d="M 784.172 797.057 C 806.116 796.978 830.077 796.446 851.858 797.197 C 852.87 813.403 852.107 839.75 852.111 856.569 C 852.115 875.638 852.964 903.885 851.496 922.003 C 831.007 922.724 804.743 922.43 784.301 922.082 C 782.946 895.39 784.642 867.215 783.936 840.37 C 783.569 826.411 783.655 810.939 784.172 797.057 z" fill="rgb(26,58,92)" transform="translate(0,0)"></path>
<path d="M 791.906 804.619 C 809.113 804.409 826.997 804.787 844.259 804.941 L 844.731 915.049 L 791.746 915.291 C 791.508 878.4 791.561 841.509 791.906 804.619 z" fill="rgb(40,120,232)" transform="translate(0,0)"></path>
<path d="M 688.997 982.109 C 701.749 982.079 759.95 980.524 767.327 984.452 C 771.74 994.609 767.275 1048.86 768.841 1063.54 C 769.118 1066.13 767.535 1067.85 766.052 1069.79 C 753.104 1069.57 696.309 1071.4 687.789 1067.77 C 684.263 1059.63 686.76 1035.08 686.459 1024.95 C 686.228 1017.18 684.267 987.363 688.997 982.109 z" fill="rgb(26,58,92)" transform="translate(0,0)"></path>
<path d="M 694.178 990.137 C 716.393 990.341 738.972 990.058 761.215 989.979 L 760.906 1062.07 L 694.153 1062.19 L 694.178 990.137 z" fill="rgb(40,120,232)" transform="translate(0,0)"></path>
<path d="M 689.088 1107.26 C 700.95 1106.64 760.492 1105.79 767.536 1109.02 C 771.313 1116.29 767.825 1173.64 768.941 1185.59 C 769.17 1188.04 767.124 1189.48 765.353 1190.72 C 741.177 1189.56 711.204 1190.11 686.788 1190.61 C 685.143 1175.49 685.841 1127.23 686.905 1109.99 C 687.752 1108.93 688.48 1108.02 689.088 1107.26 z" fill="rgb(26,58,92)" transform="translate(0,0)"></path>
<path d="M 693.993 1114.88 L 760.943 1115.06 C 761.275 1137.5 761.069 1160.42 761.096 1182.9 C 738.949 1182.64 716.301 1182.91 694.114 1182.93 L 693.993 1114.88 z" fill="rgb(0,190,242)" transform="translate(0,0)"></path>
<path d="M 679.748 618.108 C 718.117 616.532 766.039 617.854 804.738 617.904 L 1011.94 617.861 L 1221.08 617.988 C 1252.48 617.984 1283.97 618.206 1315.4 617.803 C 1319.34 617.753 1322.62 617.814 1325.16 620.51 L 1324.74 623.977 L 883.984 623.78 L 751.277 623.723 C 730.25 623.748 701.06 624.747 680.607 623.594 L 679.297 622 L 679.748 618.108 z" fill="rgb(26,58,92)" transform="translate(0,0)"></path>
<path d="M 804.235 1125.46 L 968.893 1125.75 C 976.7 1125.77 1025.27 1125.34 1029.65 1126.75 C 1032.8 1130.71 1032.59 1133.6 1028.13 1136.3 C 977.286 1136.66 926.438 1136.7 875.592 1136.41 C 863.23 1136.39 810.567 1137.89 802.601 1134.94 C 800.086 1132.4 800.528 1133.56 800.032 1130.42 C 801.777 1127.53 801.66 1127.57 804.235 1125.46 z" fill="rgb(26,58,92)" transform="translate(0,0)"></path>
<path d="M 802.295 1158.99 L 953.133 1159.03 C 976.889 1159.02 1000.85 1158.97 1024.62 1159.02 C 1028.69 1159.02 1029.23 1159.1 1031.35 1161.45 C 1031.94 1165.34 1031.85 1165.79 1030.29 1169.41 C 1028.55 1169.55 1026.81 1169.67 1025.06 1169.76 C 1012.12 1170.41 994.642 1169.96 981.416 1169.97 L 894.232 1169.74 L 835.537 1169.83 C 828.16 1169.85 806.084 1171.52 801.534 1167.39 C 800.538 1163.57 801.048 1162.95 802.295 1158.99 z" fill="rgb(26,58,92)" transform="translate(0,0)"></path>
<path d="M 803.825 1001.33 C 874.794 1000.07 946.426 1002.42 1017.48 1001.03 C 1022.83 1000.93 1029.02 1000.3 1031.59 1005.43 C 1031.23 1008.99 1030.96 1009.35 1028.6 1012.07 L 804.778 1012.38 C 801.75 1010.62 802.85 1011.84 801.485 1008.48 C 801.737 1004.64 801.547 1004.18 803.825 1001.33 z" fill="rgb(26,58,92)" transform="translate(0,0)"></path>
<path d="M 802.494 1034.22 C 877.256 1035.24 952.294 1034.13 1027.07 1034.35 C 1028.54 1034.35 1029.49 1034.94 1030.64 1035.72 C 1032.5 1039.59 1031.82 1039.6 1031.54 1044.17 C 1030.1 1044.43 1027.96 1044.78 1026.51 1044.79 C 982.967 1045.1 939.175 1045.04 895.646 1045.03 L 838.345 1045.04 C 828.168 1045.05 817.723 1045.19 807.551 1044.92 C 803.647 1044.81 804.046 1044.84 801.618 1042.65 C 800.683 1039.01 801.359 1038 802.494 1034.22 z" fill="rgb(26,58,92)" transform="translate(0,0)"></path>
<path d="M 959.956 693.52 L 962.343 695.18 L 962.731 697.405 C 960.433 703.214 942.676 719.52 936.903 725.492 C 924.819 721.679 900.182 716.818 886.742 713.716 C 875.456 724.811 838.989 767.1 830.31 779.808 C 815.913 781.06 797.615 781.745 783.221 782.086 C 766.651 759.741 746.397 735.995 728.455 714.749 C 714.964 726.217 700.967 739.393 687.633 750.224 C 687.065 749.246 686.348 747.535 685.848 746.451 C 686.648 742.762 723.708 710.891 729.14 705.871 C 747.56 729.405 767.96 753.147 787.104 776.292 C 799.644 775.962 812.701 775.153 825.272 774.552 C 844.541 754.54 865.364 727.712 885.048 706.347 C 901.493 711.282 918.18 715.37 935.043 718.595 C 943.451 710.479 951.303 701.754 959.956 693.52 z" fill="rgb(26,58,92)" transform="translate(0,0)"></path>
<path d="M 1095.15 682.352 C 1137.77 681.481 1224.28 681.753 1269.75 683.683 C 1271.19 683.744 1271.86 686.31 1272.32 687.569 C 1271.67 691.582 1272.39 690.172 1269.92 693.327 C 1225.19 692.953 1140.28 694.293 1093.82 692.013 C 1092.5 691.948 1091.87 689.593 1091.48 688.448 C 1092.26 684.984 1092.49 684.908 1095.15 682.352 z" fill="rgb(26,58,92)" transform="translate(0,0)"></path>
<path d="M 1094.21 781.307 C 1145.48 778.002 1202.56 783.718 1254.3 781.122 C 1259.85 780.843 1269.34 779.83 1272.09 785.014 C 1272.01 788.357 1271.62 788.609 1269.74 791.555 C 1257.74 792.177 1097.34 791.699 1094.6 790.843 C 1092.41 790.161 1092.43 789.403 1091.63 787.443 C 1092.24 783.153 1091.57 784.771 1094.21 781.307 z" fill="rgb(26,58,92)" transform="translate(0,0)"></path>
<path d="M 1093.37 877.918 C 1149.7 876.359 1207.35 878.853 1263.79 877.995 C 1267.84 877.934 1269.14 878.159 1271.86 881.034 C 1272.43 884.323 1272.11 884.66 1270.94 887.934 C 1225.23 889.188 1143.96 887.715 1095.15 887.163 C 1094.37 886.639 1093.6 886.116 1092.82 885.592 C 1091.57 882.629 1092.42 881.24 1093.37 877.918 z" fill="rgb(26,58,92)" transform="translate(0,0)"></path>
<path d="M 938.053 473.112 L 1054.73 472.904 C 1062.89 472.895 1097.35 472.359 1102.86 473.534 C 1104.17 476.438 1103.62 479.929 1103.48 483.255 L 988.12 483.683 C 979.255 483.694 945.72 484.358 939.054 483.236 C 937.377 480.08 937.943 476.827 938.053 473.112 z" fill="rgb(26,58,92)" transform="translate(0,0)"></path>
<path d="M 938.036 373.862 L 1046.4 373.867 C 1059.77 373.845 1090.35 372.979 1102.62 374.297 C 1104.17 376.832 1103.53 380.666 1103.37 383.814 C 1096.79 384.381 1083.86 384.055 1076.67 384.113 L 1019.6 384.352 C 998.74 384.374 957.067 385.568 938.855 383.88 C 937.565 381.117 937.991 377.057 938.036 373.862 z" fill="rgb(26,58,92)" transform="translate(0,0)"></path>
<path d="M 937.98 512.031 L 1050.35 511.892 L 1050.46 522.967 C 1027.65 523.546 1003.37 522.779 980.426 523.11 C 971.889 523.233 946.171 523.639 939.114 522.443 C 937.428 519.601 937.951 515.557 937.98 512.031 z" fill="rgb(26,58,92)" transform="translate(0,0)"></path>
<path d="M 937.919 413.89 C 965.706 413.108 994 414.258 1021.84 413.882 C 1030.66 413.763 1040.45 413.638 1049.2 414.409 C 1050.51 416.815 1050.13 421.91 1050.14 424.912 C 1033.76 424.919 948.563 426.579 938.797 423.617 C 937.356 420.573 937.839 417.373 937.919 413.89 z" fill="rgb(26,58,92)" transform="translate(0,0)"></path>
<path d="M 1093.99 711.227 L 1156.77 711.319 C 1163.7 711.337 1184.85 709.355 1188.1 715.001 C 1187.97 718.412 1187.47 718.712 1185.41 721.651 C 1166.33 723.143 1115.76 721.738 1094.17 721.398 C 1092.96 721.379 1092.08 719.043 1091.58 717.979 C 1091.88 714.387 1091.94 714.286 1093.99 711.227 z" fill="rgb(26,58,92)" transform="translate(0,0)"></path>
<path d="M 1093.79 810.264 L 1153.36 810.358 C 1162.87 810.382 1173.58 810.165 1183.08 811.015 C 1185.81 811.26 1185.59 811.897 1187.1 813.993 C 1187.22 817.483 1186.99 817.875 1185.13 820.855 L 1129.98 820.994 C 1119.69 821.037 1108.89 821.307 1098.66 820.668 C 1094.8 820.426 1094.29 819.638 1092.34 817.202 C 1092.15 812.573 1091.76 814.399 1093.79 810.264 z" fill="rgb(26,58,92)" transform="translate(0,0)"></path>
<path d="M 1093.91 907.019 C 1105.9 907.012 1182.42 905.739 1186.89 908.503 C 1188.31 911.868 1187.51 913.597 1186.73 917.219 C 1165.61 918.511 1118.48 916.759 1095.11 916.8 C 1094.51 916.342 1093.91 915.884 1093.32 915.426 C 1092.08 912.124 1092.93 910.558 1093.91 907.019 z" fill="rgb(26,58,92)" transform="translate(0,0)"></path>
<path d="M 938.131 569.275 C 949.277 569.385 1005.36 567.976 1012.08 570.138 C 1013.45 572.829 1013.05 576.202 1013.02 579.322 L 966.567 579.452 C 959.301 579.479 945.317 579.906 938.878 578.846 C 937.613 576.14 938.065 572.385 938.131 569.275 z" fill="rgb(26,58,92)" transform="translate(0,0)"></path>
<path d="M 1294.53 810.482 C 1302.51 810.308 1317.59 808.53 1323.22 813.13 C 1324.25 816.605 1324.26 815.118 1322.86 818.695 C 1318.68 822.574 1288.62 820.963 1281.41 820.915 C 1273.72 821.034 1255.45 822.67 1250.24 817.91 C 1249.49 814.791 1249.39 816.324 1250.92 813.198 C 1255.65 809.19 1286.77 810.536 1294.53 810.482 z" fill="rgb(26,58,92)" transform="translate(0,0)"></path>
<path d="M 1251.94 711.249 C 1273.05 711.419 1299.92 710.863 1321.37 711.923 C 1323.2 712.014 1323.62 713.57 1324.42 715.003 C 1324.13 718.407 1323.65 718.65 1321.41 721.464 C 1302.18 721.134 1282.86 721.731 1263.63 721.637 C 1258.59 721.612 1252.13 722.358 1249.35 717.776 C 1249.83 713.39 1249.25 715.104 1251.94 711.249 z" fill="rgb(26,58,92)" transform="translate(0,0)"></path>
<path d="M 1250.3 908.074 C 1251.46 908.003 1252.63 907.965 1253.8 907.961 C 1264.5 907.874 1318.96 905.976 1323.43 910.369 C 1324.24 914.243 1323.94 913.124 1322.42 917.434 C 1319.94 917.538 1317.66 917.634 1313.92 917.55 C 1293.53 917.094 1271.36 918.973 1251.29 916.742 C 1250.68 916.14 1250.07 915.538 1249.46 914.936 C 1248.57 912.15 1249.36 910.877 1250.3 908.074 z" fill="rgb(26,58,92)" transform="translate(0,0)"></path>
<path d="M 1261.22 474.351 C 1277.56 473.338 1297.75 474.239 1314.42 474.042 C 1319.14 473.986 1321.25 474.326 1324.13 477.461 C 1324.82 480.938 1324.29 481.457 1322.82 484.906 C 1304.77 485.014 1285.94 485.491 1267.86 484.766 C 1263.54 484.592 1260.72 483.87 1258.75 479.879 C 1259.33 475.909 1258.67 477.361 1261.22 474.351 z" fill="rgb(26,58,92)" transform="translate(0,0)"></path>
<path d="M 1260.03 370.912 C 1275.94 370.805 1304.17 369.903 1321.01 371.429 C 1321.96 372.245 1322.78 372.941 1323.46 373.517 C 1324.7 376.827 1324.24 377.408 1323.26 381.032 C 1310.42 381.574 1276.64 382.041 1261.94 380.641 C 1261.18 379.98 1260.42 379.319 1259.65 378.658 C 1258.57 375.142 1258.98 374.638 1260.03 370.912 z" fill="rgb(26,58,92)" transform="translate(0,0)"></path>
<path d="M 1428.3 1262.82 C 1435.6 1271.62 1469.91 1354.23 1475.17 1369.1 L 999.157 1368.98 L 731.568 1369.18 C 711.411 1369.21 561.553 1370.08 557.574 1367.59 L 558.023 1365.52 C 573.601 1333.99 588.422 1297.84 600.917 1265.14 C 601.579 1286.51 595.572 1294.39 622.908 1292.8 C 628.534 1292.47 636.227 1292.72 641.998 1292.7 L 713.926 1292.27 C 724.83 1292.16 747.387 1291.48 757.639 1292.66 C 759.365 1296.01 759.823 1297.02 762.295 1299.83 C 766.212 1302.07 795.428 1301.08 801.833 1301.09 C 826.768 1301.24 851.701 1301.66 876.628 1302.35 L 1399.7 1319.39 C 1413.96 1319.77 1425.63 1323.05 1426.86 1304.4 C 1427.77 1290.51 1427.99 1276.73 1428.3 1262.82 z" fill="rgb(213,239,249)" transform="translate(0,0)"></path>
<path d="M 537.441 836.279 C 561.028 834.353 591.572 848.258 605.751 866.556 C 598.472 875.874 591.457 885.395 584.713 895.107 C 541.28 908.13 511.012 951.304 515.73 998.374 C 515.971 1000.78 517.578 1002.59 519.573 1003.83 C 528.316 1003.85 537.349 982.793 543.198 975.721 C 573.467 939.113 593.446 884.891 635.848 860.717 C 641.25 857.636 651.722 863.072 651.643 870.079 C 651.689 923.259 612.017 994.129 584.536 1038.27 C 579.994 1045.11 565.278 1063.35 565.301 1069.59 C 567.545 1072.56 566.417 1071.95 569.544 1072.76 C 579.505 1069.67 592.875 1042.78 600.899 1033.83 C 602.87 1058.87 602.001 1091.86 601.94 1117.64 C 598.637 1121.21 593.17 1125.37 589.306 1129.14 C 576.779 1141.36 572.154 1153.84 566.659 1169.85 C 528.576 1160.53 478.725 1146.05 441.472 1134.59 C 448.577 1113.97 450.949 1092.67 451.791 1071.43 C 454.598 1000.69 449.834 956.871 486.835 891.929 C 499.286 870.076 511.202 844.382 537.441 836.279 z" fill="rgb(241,187,173)" transform="translate(0,0)"></path>
<path d="M 1484.21 836.39 C 1494.77 835.337 1502.68 836.27 1511.55 843.069 C 1540.97 865.615 1569.32 934.285 1575.5 969.126 C 1579.32 990.632 1577.11 1036.91 1578.93 1061.25 C 1580.93 1088.05 1584.54 1107.14 1589.03 1133.39 C 1570.39 1137.29 1547.5 1144.68 1529.2 1150.06 C 1509 1155.84 1488.74 1161.4 1468.41 1166.73 C 1457.76 1146.45 1448.59 1133.79 1435.19 1115.04 C 1437.63 1097.36 1438.7 1070.98 1440.24 1052.27 C 1444.31 1055.86 1448.48 1059.34 1452.74 1062.7 C 1458.33 1067.16 1467.99 1075.86 1475.17 1075.06 C 1483.24 1067.85 1463.62 1056.18 1457.94 1051.08 C 1456.6 1049.67 1455.28 1048.24 1453.97 1046.79 C 1426.78 1016.93 1382.88 925.823 1382.44 882.44 C 1382.63 876.945 1384.69 869.4 1389.14 866.002 C 1396.67 860.243 1406.46 866.51 1412.03 872.325 C 1422.32 883.087 1432.01 895.248 1441.17 907.084 C 1465.76 938.87 1489.51 971.364 1513.71 1003.47 C 1531.73 971.6 1506.37 923.654 1478.23 905.828 C 1473.01 901.618 1448.51 899.713 1446.48 894.066 C 1443.89 886.862 1447.9 850.531 1448.28 842.843 C 1460.33 840.48 1471.99 837.589 1484.21 836.39 z" fill="rgb(241,187,173)" transform="translate(0,0)"></path>
<path d="M 843.792 204.746 C 916.038 204.893 991.227 211.094 1063.73 213.536 C 1146.66 216.05 1229.55 219.549 1312.39 224.03 C 1326.55 224.688 1463.49 229.851 1468.42 233.89 C 1468.89 253.43 1466.18 285.214 1464.86 305.672 C 1462.23 345.051 1459.83 384.444 1457.67 423.851 L 1433.22 872.839 C 1433.21 874.833 1433.33 874.079 1432.46 875.946 C 1429.52 874.142 1416.85 861.269 1412.95 857.58 L 1434.53 457.494 L 1440.69 348.538 C 1441.73 329.074 1443.42 306.54 1442.88 287.335 C 1433.47 272.89 1426.45 274.753 1410.96 275.048 C 1410.67 269.295 1410.87 263.042 1410.73 257.289 C 1410.3 238.792 1409.45 237.261 1391.76 237.05 C 1337.94 236.408 1284.16 236.82 1230.36 236.704 L 842.754 235.385 C 842.845 224.985 842.804 215.113 843.792 204.746 z" fill="rgb(213,239,249)" transform="translate(0,0)"></path>
<path d="M 1647.3 1170.18 C 1648.64 1169.9 1648.87 1170.08 1650.29 1170.22 C 1659.17 1185.47 1674.21 1222.56 1681.27 1239.39 C 1699.64 1282.61 1717.37 1326.1 1734.43 1369.85 C 1693.95 1370.49 1652.09 1369.98 1611.5 1370.01 L 1590.12 1369.92 C 1581.1 1345.73 1569.33 1319.98 1559.26 1296.07 C 1546.65 1265.55 1534.23 1234.95 1521.99 1204.28 C 1544.15 1197.7 1566.5 1192.56 1588.78 1186.48 C 1608.51 1181.09 1627.29 1174.66 1647.3 1170.18 z" fill="rgb(0,190,242)" transform="translate(0,0)"></path>
<path d="M 384.087 1170.47 C 425.377 1183.21 467.343 1193.08 508.954 1206.13 C 487.666 1259.52 469.319 1315.68 448.431 1368.88 L 424.25 1368.87 L 297.171 1368.74 C 326.306 1303.71 353.945 1234.38 384.087 1170.47 z" fill="rgb(0,190,242)" transform="translate(0,0)"></path>
<path d="M 418.618 1139.21 C 458.403 1150.78 498.285 1162.02 538.259 1172.92 C 556.198 1177.91 575.81 1184.54 593.613 1188.66 C 590.967 1197.37 588.156 1206.03 585.181 1214.64 C 563.298 1209.75 535.125 1201.27 513.318 1195.08 L 409.531 1165.98 C 412.68 1157.23 415.643 1148.06 418.618 1139.21 z" fill="rgb(221,242,250)" transform="translate(0,0)"></path>
<path d="M 1401.78 1290.93 C 1415.34 1283.24 1412.5 1272.52 1412.73 1258.22 C 1414.04 1174.2 1410.89 1089.83 1412.51 1005.87 C 1416.96 1013.86 1423.38 1024.66 1427.19 1032.68 C 1422.43 1100.39 1419.96 1167.92 1416.44 1235.69 C 1415.64 1251.23 1415.01 1266.77 1414.56 1282.32 C 1414.39 1287.41 1414.2 1301.8 1413.35 1306.43 C 1391.37 1306.25 1366.6 1304.66 1344.46 1303.77 L 1228.72 1299.72 C 1193.8 1298.28 1154.92 1295.95 1120.19 1295.89 C 1115.68 1295.37 1111.17 1294.73 1106.69 1293.99 C 1131.07 1291.24 1171.8 1292.28 1197.06 1291.94 C 1265.3 1291.03 1333.54 1290.69 1401.78 1290.93 z" fill="rgb(213,239,249)" transform="translate(0,0)"></path>
<path d="M 1613.06 1139.12 C 1617.2 1139.6 1623.01 1159.73 1624.46 1163.93 C 1567.16 1179.08 1510.08 1195.05 1453.24 1211.83 L 1450.99 1212.02 C 1447.9 1209.81 1442.58 1192.84 1440.89 1188 C 1453.79 1183.01 1480.61 1176.23 1494.76 1172.24 C 1534.28 1161.49 1573.71 1150.45 1613.06 1139.12 z" fill="rgb(242,252,253)" transform="translate(0,0)"></path>
<path d="M 666.159 196.997 C 704.143 196.66 742.569 199.787 780.546 201 C 795.474 201.477 810.772 201.888 825.627 203.329 C 826.288 211.938 825.983 226.411 825.414 234.984 L 811.629 235.012 C 798.944 235.187 793.832 234.949 782.165 229.379 C 769.905 223.527 757.908 221.016 744.434 220.566 C 725.802 219.943 712.842 228.314 695.967 233.986 C 690.522 235.737 671.655 234.821 664.612 234.633 C 664.892 222.079 665.407 209.532 666.159 196.997 z" fill="rgb(40,120,232)" transform="translate(0,0)"></path>
<path d="M 1410.91 288.92 C 1417.02 289.02 1423.67 288.99 1429.73 289.279 C 1424.89 371.956 1420.69 454.67 1417.15 537.412 C 1416.26 555.919 1415.11 574.412 1413.69 592.886 C 1413.04 602.086 1411.62 618.021 1412.06 626.998 L 1409.93 627.283 C 1413.02 516.358 1410.3 400.579 1410.91 288.92 z" fill="rgb(213,239,249)" transform="translate(0,0)"></path>
<path d="M 600.804 1131.97 C 603.121 1136.1 602.056 1174.29 601.973 1181.37 C 594.722 1178.29 590.995 1177.25 583.359 1175.23 C 580.169 1174.2 579.909 1174.08 577.123 1172.25 C 574.575 1163.58 594.449 1137.95 600.804 1131.97 z" fill="rgb(213,239,249)" transform="translate(0,0)"></path>
<path d="M 1434.9 1133.54 C 1438.18 1136.83 1456.52 1166.24 1456.03 1169.41 L 1452.73 1170.44 L 1432.94 1175.97 C 1433.44 1161.87 1433.82 1147.59 1434.9 1133.54 z" fill="rgb(213,239,249)" transform="translate(0,0)"></path>
<path d="M 1432.3 1200.78 C 1435.11 1204.17 1437.37 1213.37 1438.5 1217.65 C 1435.86 1217.85 1435.67 1218.04 1433.14 1217.07 C 1430.66 1212.6 1431.92 1206.2 1432.3 1200.78 z" fill="rgb(229,248,252)" transform="translate(0,0)"></path>
<path d="M 1412.06 626.998 C 1412.2 630.816 1412.25 639.11 1410.73 642.374 C 1409.43 637.953 1409.86 632.045 1409.93 627.283 L 1412.06 626.998 z" fill="rgb(11,121,210)" transform="translate(0,0)"></path>
<path d="M 56.4366 1370.42 C 77.6194 1369.91 100.278 1370.99 121.227 1370.1 C 142.386 1369.19 144.694 1385.92 129.797 1390.76 C 113.523 1390.25 97.2103 1390.74 80.9484 1390.69 C 70.8373 1390.66 53.1351 1393.1 47.3794 1383.1 C 46.2957 1375.47 50.1391 1372.86 56.4366 1370.42 z" fill="rgb(26,58,92)" transform="translate(0,0)"></path>
<path d="M 1945.52 1370.18 C 1957.77 1370.12 1973.86 1368.55 1985.48 1370.85 C 1995.74 1372.88 1997.36 1385.08 1986.65 1390.79 C 1979.89 1390.81 1973.5 1390.97 1966.34 1390.95 C 1956.6 1390.93 1932.48 1393.46 1938.28 1376.36 C 1939.48 1372.79 1942.23 1371.73 1945.52 1370.18 z" fill="rgb(26,58,92)" transform="translate(0,0)"></path>
<metadata><recraft-signature>{"signed_by": "recraft", "signature_b64": "5vIElvI9Mo+guSoeBTUgTc0q9EtXfLFbXCq4Wy9lhUblZJiVzGk1YHg7jXXjoYJEGkzEyqk4NTiRuL70F61pDg==", "signing_algo": "Ed25519", "generation_timestamp": 1776431481, "identifier": "18c39256-0b6e-47df-9031-49abc03fb87c"}</recraft-signature></metadata></svg>