<svg xmlns="http://www.w3.org/2000/svg" height="1024" preserveAspectRatio="none" style="display: block;" version="1.1" viewBox="0 0 2048 1536" width="1365">
<path d="M 0 0 L 2048 0 L 2048 1536 L 0 1536 L 0 0 z" fill="rgb(242,246,251)" transform="translate(0,0)"></path>
<path d="M 816.602 321.032 C 827.353 309.825 883.097 276.078 897.889 267.226 C 935.244 244.386 973.789 223.552 1013.36 204.815 C 1140.49 144.881 1311.71 91.6129 1451.91 88.6037 C 1580.17 85.8507 1688.93 116.067 1783.14 206.573 C 1859.4 279.838 1915.82 371.244 1956.3 468.508 C 1964.34 487.838 1974.18 508.154 1978.27 528.706 C 2021.77 554.98 2008.65 599.738 1990.2 637.933 C 1991.78 638.725 1993.38 639.434 1995.03 640.073 C 2001.64 655.965 2008.59 692.308 2012.01 710.729 C 2039.83 860.484 2027.45 1024.14 1956.38 1160.76 C 1944.27 1184.05 1898.68 1256.49 1878.93 1269.73 L 1878.93 1338.94 L 1951.53 1338.83 C 1960.92 1338.8 1998.86 1334.5 1997.37 1348.38 C 1994.77 1351.54 1991.31 1353.5 1987.25 1353.57 C 1971.78 1353.86 1955.41 1353.64 1939.96 1353.63 L 1840.6 1353.83 L 1504.73 1354.01 L 391.34 1353.91 L 146.371 1353.53 C 114.483 1353.37 82.4213 1353.82 50.5261 1353.67 C 46.9475 1353.66 38.1103 1352.8 35.4749 1350.3 C 33.6635 1348.58 34.2614 1347.82 34.511 1345.75 C 39.8954 1337.71 49.0631 1338.43 57.5707 1338.58 C 96.0413 1339.28 134.559 1338.68 173.041 1339.14 C 180.071 1339.22 187.472 1339.42 194.467 1339.25 C 184.418 1327.39 173.259 1316.44 163.43 1304.06 C 113.952 1241.96 77.7561 1170.35 57.0874 1093.68 C -12.5777 838.534 67.1809 565.895 226.758 359.785 C 306.832 256.362 415.615 163.02 542.414 125.114 C 636.669 96.937 762.414 113.689 794.689 222.541 C 803.826 252.798 798.297 293.912 782.488 321.17 L 816.602 321.032 z" fill="rgb(26,58,92)" transform="translate(0,0)"></path>
<path d="M 194.467 1339.25 C 184.418 1327.39 173.259 1316.44 163.43 1304.06 C 113.952 1241.96 77.7561 1170.35 57.0874 1093.68 C -12.5777 838.534 67.1809 565.895 226.758 359.785 C 306.832 256.362 415.615 163.02 542.414 125.114 C 636.669 96.937 762.414 113.689 794.689 222.541 C 803.826 252.798 798.297 293.912 782.488 321.17 L 609.336 321.075 L 556.675 321.083 C 546.943 321.093 521.871 319.214 517.06 326.309 C 505.432 343.455 517.455 352.182 531.526 355.149 C 534.152 480.879 531.767 611.324 531.892 737.359 C 517.885 745.35 491.723 754.974 476.371 761.698 C 463.742 767.229 447.277 775.182 434.881 779.939 C 420.802 758.152 404.516 737.827 389.856 716.85 C 372.029 691.342 345.909 704.499 326.654 694.03 C 326.042 687.019 335.49 681.591 338.229 675.987 C 345.27 661.574 345.914 645.067 345.906 629.33 C 357.828 620.112 363.877 611.661 352.294 598.302 C 336.634 580.241 332.358 567.376 306.782 581.362 C 294.428 571.871 278.479 571.075 268.575 584.844 C 267.256 586.717 265.993 588.63 264.788 590.579 C 236.298 599.056 238.193 631.013 260.746 646.057 C 261.046 658.219 260.154 667.152 267.244 677.496 C 266.941 682.049 266.718 687.049 266.298 691.55 C 249.061 698.02 230.465 700.766 213.63 707.298 C 212.157 707.869 210.359 709.806 209.833 711.676 C 197.802 754.436 187.605 801.745 178.698 845.249 C 178.098 862.476 179.256 880.014 180.053 897.26 C 180.984 917.418 181.425 937.685 182.9 957.803 C 184.615 981.183 196.007 994.647 220.608 986.368 C 222.704 1011.46 224.563 1036.57 226.185 1061.69 C 227.527 1081.46 229.703 1101.23 228.127 1120.97 C 227.552 1128.18 227.127 1135.44 226.624 1142.66 L 221.998 1208.38 L 215.834 1292.25 C 214.707 1309.61 215.157 1320.31 213.293 1339.12 L 194.467 1339.25 z" fill="rgb(229,248,252)" transform="translate(0,0)"></path>
<path d="M 816.602 321.032 C 827.353 309.825 883.097 276.078 897.889 267.226 C 935.244 244.386 973.789 223.552 1013.36 204.815 C 1140.49 144.881 1311.71 91.6129 1451.91 88.6037 C 1580.17 85.8507 1688.93 116.067 1783.14 206.573 C 1859.4 279.838 1915.82 371.244 1956.3 468.508 C 1964.34 487.838 1974.18 508.154 1978.27 528.706 C 1951.59 517.851 1931.23 525.922 1905.95 535.384 C 1906.04 529.595 1906.04 523.805 1905.97 518.016 C 1905 473.156 1887.77 425.486 1854.88 393.975 C 1819.99 360.547 1779.14 364.26 1746.71 399.096 C 1708.18 440.48 1700.92 487.908 1702.69 542.19 C 1660.32 519.112 1608.47 531.896 1602.78 586.032 C 1599.4 618.209 1621.5 655.429 1642.86 679.226 C 1681.59 722.943 1736.27 749.26 1794.6 752.262 C 1795.63 840.865 1793.92 931.799 1794.07 1020.69 L 1782.28 1020.81 C 1778.22 981.266 1765.43 908.346 1742.45 876.416 C 1755.74 838.135 1732.79 828.244 1719.56 797.119 C 1715.89 787.238 1718.15 775.989 1716.41 765.699 C 1706.59 707.841 1622.77 705.762 1625.59 770.327 C 1625.93 782.346 1631.37 793.616 1633.36 805.259 C 1638.66 836.332 1588.34 839.135 1594.37 872.059 L 1594.63 873.448 C 1591.19 876.888 1572.63 875.268 1566.68 875.229 L 1518.29 875.311 L 1518.92 351.936 C 1528.32 352.599 1537.2 352.782 1542.79 343.753 C 1549.15 333.49 1539.87 325.726 1532.13 321.256 C 1494 322.016 1454.34 321.403 1416.12 321.326 L 1228.74 321.087 L 816.602 321.032 z" fill="rgb(229,248,252)" transform="translate(0,0)"></path>
<path d="M 1808.13 752.311 C 1821.09 751.782 1838.77 748.073 1851.44 744.821 C 1898.86 732.652 1943.53 703.683 1973.58 664.997 C 1978.59 658.557 1985.96 645.238 1990.2 637.933 C 1991.78 638.725 1993.38 639.434 1995.03 640.073 C 2001.64 655.965 2008.59 692.308 2012.01 710.729 C 2039.83 860.484 2027.45 1024.14 1956.38 1160.76 C 1944.27 1184.05 1898.68 1256.49 1878.93 1269.73 L 1878.82 1140.26 C 1878.75 1111.5 1878.15 1082.74 1878.57 1054 C 1895.69 1053.98 1934.95 1060.79 1932.89 1034.54 C 1931.35 1015.04 1896.62 1020.19 1882.27 1020.26 L 1808.56 1020.66 L 1808.13 752.311 z" fill="rgb(229,248,252)" transform="translate(0,0)"></path>
<path d="M 564.984 372.105 L 1169.51 372.158 L 1366.91 372.008 C 1405.67 372.003 1447.4 371.327 1485.94 372.702 L 1486.06 874.949 C 1470.12 874.908 1454.09 874.746 1438.15 874.899 C 1418.42 875.088 1418.47 877.054 1423.65 894.536 L 1201.51 894.484 C 1157.48 894.873 1113.45 894.951 1069.42 894.719 C 1071.21 885.48 1080.54 864.245 1070.17 859.37 C 1060.22 859.552 1060.76 865.704 1058.84 874.229 L 917.725 873.964 C 917.256 873.156 916.777 872.355 916.289 871.559 C 906.243 855.25 881.283 852.515 862.768 848.118 L 863.231 832.256 C 884.626 829.149 885.404 809.308 884.666 792.051 C 899.141 776.548 895.652 774.577 888.618 755.795 C 887.635 750.68 881.36 739.623 875.173 738.375 C 852.849 733.872 833.051 718.741 812.762 738.981 C 802.637 749.083 794.332 752.999 794.377 767.487 C 794.458 793.742 789.65 803.405 808.03 823.578 L 807.944 845.291 C 796.002 848.921 784.003 852.458 772.127 856.29 C 761.219 859.81 754.511 862.203 748.312 872.207 C 702.878 872.618 657.371 871.595 611.938 872.035 C 593.986 872.209 601.965 886.224 605.037 898.01 L 564.52 898.217 C 564.241 857.086 564.262 815.953 564.583 774.822 C 579.99 768.015 593.13 762.852 580.933 743.993 C 587.467 738.704 593.712 734.955 595.553 726.715 C 592.344 714.787 571.79 724.799 564.979 727.898 C 563.994 685.51 564.768 645.613 564.721 603.501 C 564.4 526.369 564.488 449.236 564.984 372.105 z" fill="rgb(242,246,251)" transform="translate(0,0)"></path>
<path d="M 1030.99 429.926 L 1042.27 430.119 C 1050.72 430.054 1096.85 428.302 1101.43 431.942 C 1106.23 442.832 1103.89 527.298 1103.89 544.867 L 1103.86 555.9 C 1103.94 560.458 1104.44 564 1102.63 568.109 C 1101.91 568.761 1101.2 569.414 1100.49 570.066 C 1086.11 571.906 1056.19 570.967 1043.16 570.9 L 1029.97 570.892 C 1019.18 571.014 975.938 572.355 964.805 568.156 C 962.252 567.193 962.895 559.191 963.035 555.9 L 963.326 544.629 C 963.39 528.505 962.258 439.507 965.426 431.727 C 973.572 428.4 1019.42 429.879 1030.99 429.926 z" fill="rgb(15,34,55)" transform="translate(0,0)"></path>
<path d="M 973.072 439.102 L 1094.29 439.593 L 1094.87 561.114 C 1054.17 561.139 1013.21 562.034 972.567 561.427 C 972.411 522.161 971.72 478.028 973.072 439.102 z" fill="rgb(40,120,232)" transform="translate(0,0)"></path>
<path d="M 1043.3 699.902 C 1051.77 699.777 1076.07 698.501 1082.52 701.449 C 1084.96 709.058 1084.58 779.388 1083.74 788.876 C 1079.11 795.098 1000.57 794.274 993.679 791.167 C 991.106 783.013 991.583 711.506 993.356 701.568 C 997.859 698.024 1022.59 699.736 1029.93 699.868 L 1043.3 699.902 z" fill="rgb(15,34,55)" transform="translate(0,0)"></path>
<path d="M 1005.27 708.504 C 1028.79 708.216 1052.31 708.306 1075.83 708.773 L 1075.58 755.958 C 1075.57 762.752 1075.97 777.244 1074.94 783.1 L 1073.14 784.028 C 1048.95 784.194 1024.76 784.209 1000.57 784.074 C 1000.72 774.865 999.697 711.945 1001.99 708.828 L 1005.27 708.504 z" fill="rgb(40,120,232)" transform="translate(0,0)"></path>
<path d="M 1355.95 615.232 C 1365.14 616.199 1386.31 614.223 1392.08 617.979 C 1394.76 626.232 1395.2 697.225 1391.3 706.224 C 1384.84 708.955 1312.57 709.042 1304.55 705.883 C 1300.45 697.15 1304.47 663.617 1303.18 651.483 C 1302.36 643.792 1303.12 632.379 1302.3 624.376 C 1302.1 622.474 1303.79 619.711 1304.98 618.219 C 1311.79 613.597 1334.79 615.298 1343.94 615.373 L 1355.95 615.232 z" fill="rgb(15,34,55)" transform="translate(0,0)"></path>
<path d="M 1311.54 624.76 L 1385.08 625.019 C 1385.21 649.614 1385.13 674.209 1384.86 698.803 L 1311.59 698.824 L 1311.54 624.76 z" fill="rgb(40,120,232)" transform="translate(0,0)"></path>
<path d="M 730.996 617.112 L 741.758 617.081 C 750.316 616.991 774.871 615.725 781.305 618.871 C 783.999 626.752 783.126 690.922 782.245 703.025 C 782.073 705.388 781.532 705.155 779.802 706.356 C 755.31 708.466 721.415 706.962 696.925 705.664 C 689.888 705.291 692.045 626.379 694.84 618.8 C 701.323 615.744 722.514 616.987 730.996 617.112 z" fill="rgb(15,34,55)" transform="translate(0,0)"></path>
<path d="M 701.202 626.223 C 725.058 625.773 749.897 626.085 773.831 626.045 L 773.623 697.869 L 701.065 697.841 L 701.202 626.223 z" fill="rgb(40,120,232)" transform="translate(0,0)"></path>
<path d="M 1103.89 544.867 C 1128.25 544.902 1348.98 543.423 1354.51 546.055 C 1356.7 553.524 1355.75 603.685 1355.95 615.232 L 1343.94 615.373 L 1343.98 555.949 L 1103.86 555.9 L 1103.89 544.867 z" fill="rgb(0,190,242)" transform="translate(0,0)"></path>
<path d="M 963.326 544.629 L 963.035 555.9 L 741.93 555.863 L 741.758 617.081 L 730.996 617.112 L 731.187 545.219 C 756.082 543.899 789.062 544.695 814.414 544.761 C 864.051 544.991 913.689 544.948 963.326 544.629 z" fill="rgb(0,190,242)" transform="translate(0,0)"></path>
<path d="M 1029.97 570.892 L 1043.16 570.9 L 1043.3 699.902 L 1029.93 699.868 C 1030.46 657.511 1028.64 612.943 1029.97 570.892 z" fill="rgb(0,190,242)" transform="translate(0,0)"></path>
<path d="M 1030.99 429.926 C 1030.96 423.418 1030.25 407.782 1031.51 402.566 C 1034 400.689 1034.43 400.871 1037.71 400.718 C 1045.65 404.562 1041.99 421.638 1042.27 430.119 L 1030.99 429.926 z" fill="rgb(0,190,242)" transform="translate(0,0)"></path>
<path d="M 1064.68 923.014 L 1428.45 922.995 C 1429.57 927.337 1431.6 934.326 1432.37 938.52 C 1439.67 963.333 1446.15 995.199 1451.98 1020.81 C 1434.51 1020.79 1334.18 1018.58 1326.8 1023.83 C 1323.44 1026.22 1321.09 1030.03 1320.66 1034.16 C 1320.21 1038.56 1321.07 1042.92 1324.16 1046.23 C 1333.34 1056.08 1374.2 1052.26 1388.98 1052.26 L 1389.01 1338.69 C 1301.6 1338.26 1214.18 1338.29 1126.77 1338.79 L 1126.95 1051.93 C 1138.48 1052.01 1176.18 1054.38 1180.62 1048.27 C 1206.15 1013.1 1138.41 1021.29 1130.12 1021.28 L 1044.24 1021.23 C 1050.21 993.908 1054.86 965.761 1060.99 938.907 C 1062.21 933.703 1063.6 928.22 1064.68 923.014 z" fill="rgb(229,248,252)" transform="translate(0,0)"></path>
<path d="M 1064.68 923.014 L 1428.45 922.995 C 1429.57 927.337 1431.6 934.326 1432.37 938.52 C 1309.64 939.961 1183.83 939.439 1060.99 938.907 C 1062.21 933.703 1063.6 928.22 1064.68 923.014 z" fill="rgb(0,190,242)" transform="translate(0,0)"></path>
<path d="M 368.491 784.095 C 378.137 793.36 411.709 831.816 420.466 834.733 C 424.979 836.237 430.789 836.091 435.28 834.606 C 446.976 830.738 458.818 822.386 469.646 816.427 C 490.041 805.204 510.629 793.973 531.568 783.814 C 532.088 822.517 531.463 879.657 532.296 919.993 C 532.809 920.735 533.323 921.476 533.837 922.218 L 610.546 922.884 C 612.036 929.235 613.581 936.687 615.279 942.888 C 621.089 969.147 627.274 995.321 633.83 1021.4 C 602.989 1023.57 570.868 1020.41 539.89 1022.31 C 527.996 1021.72 520.976 1039.07 529.387 1046.09 C 540.73 1055.56 579.379 1052.08 593.884 1052.17 L 594.18 1338.99 L 448.966 1338.89 C 448.777 1312.3 431.466 1314.98 411.176 1314.68 L 401.52 1193.77 C 399.742 1170.67 398.724 1144.25 395.189 1121.55 C 387.606 1072.85 378.884 1024.17 370.858 975.538 C 367.134 952.973 362.79 930.423 359.859 907.747 C 359.379 903.999 361.905 873.846 362.271 868.853 C 364.525 840.614 366.598 812.361 368.491 784.095 z" fill="rgb(229,248,252)" transform="translate(0,0)"></path>
<path d="M 533.837 922.218 L 610.546 922.884 C 612.036 929.235 613.581 936.687 615.279 942.888 C 588.854 942.866 562.431 942.542 536.013 941.917 C 535.818 936.442 536.478 925.742 533.837 922.218 z" fill="rgb(213,239,249)" transform="translate(0,0)"></path>
<path d="M 1803.78 379.373 C 1867.69 383.589 1903.62 480.361 1896.54 534.574 C 1896.22 536.979 1895.92 543.719 1897.15 545.659 C 1902.16 546.862 1923.56 537.366 1931.03 535.198 C 1936.85 533.466 1942.84 532.357 1948.9 531.888 C 1976.96 529.991 1998.42 548.613 1997.67 576.211 C 1995.07 671.235 1890.34 739.241 1806.02 743.2 L 1806.05 605.363 C 1815 598.538 1859.25 559.33 1857.21 550.537 L 1854.93 549.552 C 1848.95 550.525 1813.14 586.566 1805.98 593.372 L 1805.9 577.25 L 1806.01 516.19 C 1806.05 505.972 1806.27 495.251 1805.65 485.054 C 1805.44 481.623 1805.08 481.713 1803.07 480.142 C 1799.59 480.404 1800.91 479.999 1797.96 482.303 C 1797.21 483.634 1796.52 484.808 1796.5 486.408 C 1795.79 571.801 1798.45 657.858 1796.69 743.185 C 1719.62 742.897 1620.99 676.666 1612.29 594.341 C 1609.6 551.679 1651.03 530.023 1688.12 544.915 C 1704.55 551.509 1715.79 570.565 1711.67 537.58 C 1704.34 478.846 1736.53 385.952 1803.78 379.373 z" fill="rgb(40,120,232)" transform="translate(0,0)"></path>
<path d="M 236.276 911.015 L 351.016 911.141 C 359.769 961.272 368.121 1011.47 376.069 1061.74 C 376.917 1067 377.71 1072.34 378.649 1077.58 C 392.612 1155.56 394.893 1235.05 402.142 1313.93 C 386.11 1313.75 369.448 1314.01 353.373 1314.08 C 350.765 1289.41 347.542 1264.37 344.897 1239.52 C 341.502 1207.62 339.187 1165.26 333.321 1134.35 C 328.662 1109.81 318.987 1075.61 312.819 1050.22 C 310.381 1039.84 300.505 992.179 295.336 985.921 L 293.034 986.266 C 288.335 990.221 288.659 997.378 288.794 1003.09 C 290.121 1032 288.141 1061.52 289.175 1090.37 C 290.315 1122.16 286.409 1149.47 283.04 1181.01 L 268.784 1311.31 L 223.882 1310.29 C 223.982 1295.06 226.654 1271.93 227.808 1256.16 C 231.216 1209.6 235.677 1162.68 238.087 1116.05 C 239.044 1097.54 236.668 1074.39 235.244 1055.6 L 229.614 981.302 C 240.078 967.301 236.799 961.479 229.573 947.252 C 231.115 935.821 234.576 923.37 236.276 911.015 z" fill="rgb(0,190,242)" transform="translate(0,0)"></path>
<path d="M 621.985 1052.11 L 734.318 1052.01 C 733.465 1067.12 730.244 1084.29 730.427 1099.32 C 730.567 1110.83 735.4 1117.47 743.6 1124.83 C 739.496 1125.92 729.921 1128.78 727.776 1131.8 C 694.591 1178.62 780.906 1168.14 792.827 1168.03 L 792.55 1302.6 C 785.074 1295.95 779.856 1293.18 770.25 1291.11 C 762.361 1290.88 754.294 1293.01 748.23 1298.23 C 742.915 1302.83 739.749 1309.42 739.489 1316.44 C 739.159 1327.07 742.738 1332.17 749.331 1339.25 C 706.872 1338.89 664.411 1338.82 621.951 1339.03 L 621.985 1052.11 z" fill="rgb(229,248,252)" transform="translate(0,0)"></path>
<path d="M 967.689 1052.5 C 1010.78 1052.28 1053.87 1052.3 1096.95 1052.55 L 1097.15 1339 L 1031.14 1338.64 L 998.05 1338.62 C 1002.95 1316.08 991.653 1310.68 971.567 1310.36 L 971.634 1197.57 C 971.699 1183.57 972.775 1148.21 970.789 1136.53 C 969.114 1126.26 964.695 1116.63 957.998 1108.66 C 944.562 1092.57 926.629 1085.33 906.243 1083.34 C 904.831 1073.81 903.899 1062.46 902.759 1052.69 L 967.689 1052.5 z" fill="rgb(229,248,252)" transform="translate(0,0)"></path>
<path d="M 261.588 703.139 C 262.625 702.978 265.626 702.544 266.323 702.995 C 276.001 709.27 285.698 732.571 295.676 737.023 C 301.897 736.394 318.659 711.87 325.049 705.122 C 326.189 705.075 327.33 705.053 328.472 705.056 C 338.681 705.094 363.804 707.187 372.227 711.73 C 386.27 719.305 417.946 776.204 432.681 790.725 C 432.896 790.936 433.118 791.139 433.336 791.347 C 461.75 777.573 492.934 764.48 521.97 751.605 C 524.076 760.146 525.817 764.883 530.039 772.542 C 505.596 788.641 457.181 812.193 430.785 826.413 C 416.43 834.147 378.709 768.475 363.38 773.039 C 358.512 778.352 358.399 805.024 357.767 814.244 C 355.198 843.488 352.879 872.754 350.811 902.038 L 237.465 901.888 C 236.314 873.349 237.811 843.475 237.169 814.826 C 237.064 810.143 236.411 805.479 232.938 802.318 L 230.718 803.126 C 221.794 814.127 214.732 854.826 215.076 869.214 C 215.614 891.79 214.746 915.002 215.771 937.576 C 207.155 939.114 200.191 940.532 191.688 942.64 C 190.523 923.018 189.505 903.388 188.633 883.751 C 188.192 874.457 186.975 857.517 187.65 848.68 C 188.603 836.202 193.799 817.311 196.692 804.454 C 203.202 774.592 210.24 744.847 217.803 715.234 C 229.503 710.878 249.048 706.377 261.588 703.139 z" fill="rgb(242,246,251)" transform="translate(0,0)"></path>
<path d="M 1419.09 1052.23 C 1481.82 1052.03 1544.55 1052.26 1607.27 1052.92 C 1606.41 1061.81 1605.74 1070.72 1605.27 1079.65 C 1584.38 1082.27 1540.81 1086.22 1526.67 1100.52 C 1522.24 1104.91 1519.25 1110.53 1518.07 1116.65 C 1516.4 1125.38 1517.34 1149.57 1517.32 1160.14 L 1517.07 1252.5 L 1516.81 1305.24 C 1499.92 1305.69 1474.98 1301.56 1470.3 1323.7 C 1469.07 1329.49 1468.7 1331.62 1471.21 1337.22 L 1470.15 1338.35 C 1462.97 1339.78 1428.27 1338.9 1418.82 1338.85 L 1419.09 1052.23 z" fill="rgb(229,248,252)" transform="translate(0,0)"></path>
<path d="M 766.592 915.096 C 771.124 914.631 776.233 914.815 780.832 914.882 C 808.221 915.284 835.882 914.24 863.228 915.14 C 869.84 915.358 877.206 918.254 878.645 925.177 C 890.045 980.003 891.62 1035.85 898.406 1091.27 C 900.73 1110.16 894.757 1123.02 874.25 1124.78 L 802.632 1124.74 C 790.849 1124.73 777.408 1125.1 765.858 1124.09 C 757.18 1122.94 749.92 1120.3 744.392 1113.4 C 736.677 1104.45 739.588 1093.98 740.615 1083.02 C 745.356 1032.48 750.843 981.914 756.48 931.455 C 757.484 922.461 759.663 920.324 766.592 915.096 z" fill="rgb(0,190,242)" transform="translate(0,0)"></path>
<path d="M 1660.07 928.45 C 1676.11 928.24 1729.21 924.761 1736.46 934.748 C 1749.26 952.397 1753.01 1018.15 1756.89 1042.72 C 1759.88 1061.7 1762.94 1077.52 1762.71 1095.42 C 1762.58 1105.61 1753.99 1115.44 1746.88 1121 C 1738.05 1121.37 1727.08 1121.06 1718.08 1121.04 C 1686.28 1120.91 1648.81 1126.26 1623.73 1105.55 C 1619.7 1102.62 1613.91 1095.07 1614.18 1089.91 C 1616.59 1044.66 1622.28 998.388 1630.04 953.715 C 1633.45 934.108 1641.62 929.739 1660.07 928.45 z" fill="rgb(0,190,242)" transform="translate(0,0)"></path>
<path d="M 1767.66 1054.08 L 1793.98 1053.93 L 1793.96 1339.88 L 1747.49 1339.72 C 1758.68 1328.69 1761.96 1321.47 1754.25 1306.49 C 1752.79 1304.6 1751.21 1302.8 1749.52 1301.12 C 1739.32 1291.06 1721.36 1293.12 1707.7 1293.15 C 1705.31 1255.71 1707.08 1202.37 1707.22 1164.13 C 1722.43 1163.9 1753.01 1166.51 1766.04 1161.96 C 1787.63 1154.42 1784.65 1129.78 1762.52 1120.98 C 1779.52 1094.64 1770.71 1082.81 1767.66 1054.08 z" fill="rgb(229,248,252)" transform="translate(0,0)"></path>
<path d="M 759.628 870.109 C 770.743 865.699 813.544 851.264 822.971 851.399 C 840.056 851.644 888.241 862.565 904.493 868.764 C 911.013 879.816 915.963 901.998 919.784 915.363 L 937.949 978.543 C 939.643 984.432 943.569 999.98 946.253 1004.13 C 946.537 1006.64 947.324 1017.09 947.77 1018.47 C 940.366 1019.7 927.428 1019.86 920.409 1017.42 C 914.863 1015.5 896.394 957.579 893.831 948.73 C 891.01 938.992 889.791 926.489 884.946 917.638 C 882.147 912.524 874.514 907.327 868.816 905.899 C 862.047 904.203 779.419 904.345 770.152 905.347 C 766.114 905.783 762.468 906.906 759.074 909.215 C 754.77 912.142 751.768 916.508 749.983 921.347 C 742.573 941.439 743.042 987.069 738.715 1010.99 C 738.111 1014.32 737.921 1016.5 735.052 1018.5 C 727.623 1019.51 714.605 1013.91 718.209 1003.93 C 732.122 965.409 739.762 924.591 752.298 885.585 C 754.195 879.682 756.434 875.336 759.628 870.109 z" fill="rgb(40,120,232)" transform="translate(0,0)"></path>
<path d="M 1441.32 893.907 L 1595.19 894.125 C 1586.18 913.777 1575.11 953.011 1569.01 974.509 L 1565.67 983.332 C 1534.7 1004.1 1496.64 992.813 1465.44 998.583 C 1456.51 965.931 1450.29 928.496 1441.32 893.907 z" fill="rgb(242,246,251)" transform="translate(0,0)"></path>
<path d="M 1582.34 1155.61 C 1587.61 1159.85 1588.98 1160.87 1594.99 1163.88 C 1614.28 1162.78 1637.68 1163.47 1657.1 1163.81 L 1656.96 1293.17 C 1635.7 1295 1620.97 1288.44 1607.85 1309.82 C 1603.27 1322.48 1606.37 1331.01 1616.02 1339.81 C 1601.32 1339.07 1585.79 1339.31 1571.01 1339.31 C 1574.08 1278.04 1577.85 1216.8 1582.34 1155.61 z" fill="rgb(229,248,252)" transform="translate(0,0)"></path>
<path d="M 1096.31 331.491 L 1415.11 331.773 L 1489.45 331.852 C 1499.83 331.82 1529.22 328.09 1534.17 336.866 C 1533.64 340.817 1534.23 339.321 1531.61 342.418 C 1524.21 344.283 1491.16 343.729 1481.6 343.722 L 1377.49 343.509 L 962.87 343.398 L 682.934 343.382 C 637.697 343.486 572.856 344.659 526.571 342.563 C 524.601 342.474 523.558 339.864 522.91 338.294 C 523.841 332.537 528.75 331.217 534.118 331.414 C 548.91 331.958 563.521 331.946 578.32 331.869 L 701.661 331.531 L 1096.31 331.491 z" fill="rgb(242,246,251)" transform="translate(0,0)"></path>
<path d="M 1808.25 1053.93 L 1848.06 1054 L 1848.04 1260.5 C 1848.06 1271.32 1848.87 1334.42 1847.64 1339.59 L 1808.3 1339.85 C 1809.83 1311.71 1808.66 1271.15 1808.7 1242.34 C 1808.98 1179.54 1808.83 1116.73 1808.25 1053.93 z" fill="rgb(229,248,252)" transform="translate(0,0)"></path>
<path d="M 922.216 892.058 L 1053.04 892.233 C 1046.98 921.482 1040.05 950.962 1033.78 980.272 L 1029.18 1002.27 C 1014.97 993.984 969.242 994.888 951.571 994.992 C 947.733 984.439 943.577 967.942 940.423 956.852 C 934.176 935.304 928.107 913.706 922.216 892.058 z" fill="rgb(242,246,251)" transform="translate(0,0)"></path>
<path d="M 298.325 1032.78 C 300.07 1034.78 323.43 1131.28 324.71 1140.84 C 332.049 1195.66 336.293 1252.09 343.784 1307 C 345.524 1319.75 348.455 1326.55 347.907 1339.33 L 326.055 1339.44 L 312.692 1339.59 C 316.815 1314.14 297.035 1312.25 277.828 1311.85 C 278.25 1292.61 282.142 1271.9 283.92 1252.63 C 288.717 1200.66 298.24 1148.31 298.147 1096.14 C 297.909 1075.02 297.968 1053.9 298.325 1032.78 z" fill="rgb(229,248,252)" transform="translate(0,0)"></path>
<path d="M 622.118 890.414 C 662.212 890.212 702.306 890.231 742.4 890.471 C 733.925 915.508 725.047 949.548 718.268 975.446 L 711.864 997.097 C 690.431 997.64 668.169 997.525 646.668 997.707 C 641.011 974.88 635.722 951.817 630.504 928.89 C 628.898 921.835 622.107 896.286 622.118 890.414 z" fill="rgb(242,246,251)" transform="translate(0,0)"></path>
<path d="M 862.382 1168.2 C 876.551 1168.34 890.994 1168.16 905.187 1168.13 L 905.264 1339.72 L 890.825 1339.31 L 887.964 1339.03 C 887.908 1336.71 888.368 1337.34 889.799 1335.57 C 909.12 1311.62 889.514 1288.54 862.443 1292.28 L 862.382 1168.2 z" fill="rgb(229,248,252)" transform="translate(0,0)"></path>
<path d="M 842.468 1134.5 C 859.172 1134.43 875.875 1134.25 892.576 1133.97 C 902.625 1133.84 926.628 1132.22 931.706 1139.33 C 949.493 1164.25 893.496 1159.29 887.747 1159.28 L 823.5 1159.11 C 810.268 1159 741.198 1160.9 734.495 1156.2 C 731.929 1154.43 730.269 1151.63 729.957 1148.52 C 728.016 1130 763.424 1134.71 775.491 1134.68 L 842.468 1134.5 z" fill="rgb(0,190,242)" transform="translate(0,0)"></path>
<path d="M 1666.34 1178.81 L 1697.93 1178.71 C 1697.83 1206.19 1697.87 1233.66 1698.04 1261.14 C 1698.11 1271.72 1699.48 1302.65 1697.19 1310.8 C 1689.85 1311.01 1674.15 1312.02 1667.77 1309.76 C 1665.16 1305.97 1666.45 1192.65 1666.34 1178.81 z" fill="rgb(229,248,252)" transform="translate(0,0)"></path>
<path d="M 1644.51 1131.5 L 1716.45 1131.55 C 1730.66 1131.47 1744.41 1131.19 1758.92 1131.69 C 1769.85 1130.59 1775.4 1143.93 1767.58 1150.27 C 1759.51 1156.82 1727.39 1154.38 1718.25 1154.35 C 1703.31 1154.51 1599.46 1157.12 1593.41 1151.88 C 1591.51 1150.23 1589.96 1147.8 1589.8 1145.25 C 1589.61 1142.15 1590.58 1139.1 1592.75 1136.84 C 1601.57 1127.63 1631.92 1131.38 1644.51 1131.5 z" fill="rgb(0,190,242)" transform="translate(0,0)"></path>
<path d="M 1609.01 887.649 C 1614.48 892.513 1616.26 894.824 1620.8 900.693 C 1614.33 914.013 1606.23 929.329 1603.88 943.985 C 1602.82 950.651 1603.55 963.97 1601.88 969.727 C 1596.16 989.504 1587.4 1008.45 1569.92 1019.78 C 1554.88 1020.51 1534.94 1019.94 1519.5 1019.89 C 1515.72 1020.02 1512.13 1020.68 1509.15 1018.74 C 1507.1 1015.3 1507.82 1010.36 1507.92 1006.07 C 1532.93 1006.2 1568.62 1004.93 1578.31 976.606 C 1588.26 947.508 1594.63 914.924 1609.01 887.649 z" fill="rgb(0,190,242)" transform="translate(0,0)"></path>
<path d="M 901.088 1030.86 C 957.999 1030.41 1014.91 1030.46 1071.82 1031.01 L 1135.81 1031.14 C 1143.47 1031.16 1169.93 1029.9 1174.91 1033.64 C 1176.07 1036.84 1175.41 1038.13 1174.65 1041.63 C 1169.13 1042.74 1151.22 1042.46 1144.9 1042.46 L 1088.47 1042.34 C 1026.39 1042.08 964.308 1042.26 902.231 1042.87 L 901.088 1030.86 z" fill="rgb(242,246,251)" transform="translate(0,0)"></path>
<path d="M 802.022 1182.43 C 810.733 1182.28 819.915 1182.45 828.658 1182.49 C 827.737 1216.45 828.301 1253.66 828.297 1287.81 C 824.424 1290.5 820.526 1293.73 816.811 1296.69 C 811.472 1301.76 807.086 1305.99 801.242 1310.54 C 801.565 1282.93 801.684 1255.32 801.601 1227.71 C 801.609 1214.91 801.01 1194.76 802.022 1182.43 z" fill="rgb(242,246,251)" transform="translate(0,0)"></path>
<path d="M 1607.2 1030.51 C 1607.96 1030.64 1608.07 1031.1 1608.82 1031.94 C 1609.11 1035.79 1609.6 1037.36 1607.81 1040.66 C 1604.18 1043 1598.36 1042.14 1593.84 1042.13 C 1577.4 1042.13 1560.97 1042.08 1544.53 1042.06 L 1333.52 1042.02 C 1331.03 1038.96 1330.15 1037.42 1331.09 1033.6 C 1333.85 1031.38 1333.64 1031.17 1337.52 1031.1 C 1427.15 1029.57 1517.66 1032.86 1607.2 1030.51 z" fill="rgb(242,246,251)" transform="translate(0,0)"></path>
<path d="M 1107.5 1052.47 L 1117.03 1052.47 L 1117.01 1239.87 C 1117.01 1267.29 1118.4 1308.02 1116.6 1334.07 C 1113.34 1334.13 1109.43 1334.66 1106.81 1333.03 C 1106.62 1332.11 1106.46 1331.19 1106.33 1330.26 C 1105.84 1326.63 1106.15 1312.97 1106.15 1308.76 L 1106.18 1262.48 L 1106.05 1109.04 C 1106.04 1101.95 1105.04 1055.61 1107.5 1052.47 z" fill="rgb(242,246,251)" transform="translate(0,0)"></path>
<path d="M 1398.65 1052.25 C 1402.77 1052.09 1404.09 1051.87 1408.18 1052.84 C 1409.94 1055.26 1409.11 1308.22 1409.05 1338.09 C 1405.85 1338.14 1401.88 1338.59 1399.15 1337.22 C 1398.36 1328.54 1398.84 1312.95 1398.85 1303.86 L 1398.91 1243.46 L 1398.65 1052.25 z" fill="rgb(242,246,251)" transform="translate(0,0)"></path>
<path d="M 1859.13 1053.94 C 1862.38 1053.8 1864.89 1053.29 1867.64 1054.8 C 1868.61 1056.1 1868.98 1056.59 1868.97 1058.3 C 1868.78 1086.98 1868.98 1115.8 1869.02 1144.46 L 1868.86 1339.03 C 1865.27 1339.14 1862.41 1339.64 1859.26 1338.14 C 1858.35 1332.9 1858.82 1317.3 1858.84 1310.96 L 1858.91 1255.39 L 1859.13 1053.94 z" fill="rgb(242,246,251)" transform="translate(0,0)"></path>
<path d="M 603.253 1052.22 C 606.047 1052.14 608.88 1051.7 611.196 1053.07 C 611.862 1054.59 612.143 1055.1 612.15 1056.83 C 612.452 1125.85 612.59 1195.08 612.245 1264.09 C 612.187 1275.73 613.329 1332.06 611.721 1339.32 C 608.941 1339.21 607.112 1339.37 604.602 1338.16 C 601.825 1333.55 603.666 1089.11 603.253 1052.22 z" fill="rgb(242,246,251)" transform="translate(0,0)"></path>
<path d="M 837.028 1168.18 L 853.214 1168.18 L 853.864 1297.21 L 848.017 1302.02 L 838.543 1309.47 C 835.319 1266.54 836.847 1212.05 837.028 1168.18 z" fill="rgb(0,190,242)" transform="translate(0,0)"></path>
<path d="M 538.797 1031.47 L 683.644 1031.27 C 698.058 1031.28 712.811 1030.72 727.222 1031.13 C 731.356 1031.25 734.347 1031.42 736.56 1034.94 C 736.785 1038.74 736.501 1038.77 733.816 1041.92 L 607.606 1042.05 C 589.692 1042.07 556.915 1043.81 538.219 1040.72 C 536.46 1040.43 535.583 1038.25 535.082 1036.62 C 536.581 1032.62 535.526 1033.84 538.797 1031.47 z" fill="rgb(242,246,251)" transform="translate(0,0)"></path>
<path d="M 1764.98 1031.36 L 1862.81 1031.06 C 1880.06 1030.99 1898.4 1030.62 1915.66 1031.38 C 1919.23 1031.54 1920.13 1032.23 1922.38 1034.35 C 1923.17 1037.86 1922.75 1038.28 1921.37 1041.82 C 1910.84 1045.13 1787.3 1042.92 1766.71 1042.9 C 1765.86 1038.85 1765.47 1035.44 1764.98 1031.36 z" fill="rgb(242,246,251)" transform="translate(0,0)"></path>
<path d="M 1645.06 1303.14 C 1649.07 1302.94 1650.47 1302.79 1654.37 1303.56 C 1656.66 1307.39 1658.08 1311.79 1660.28 1315.43 C 1665.28 1322.89 1678.28 1321.51 1686.08 1321.49 C 1694.91 1321.48 1706.99 1317.12 1708.16 1307.11 C 1708.39 1305.15 1708.41 1304.46 1709.87 1303.12 C 1712.94 1302.54 1713.26 1302.33 1716.18 1303.11 C 1716.73 1305.42 1712.93 1310.21 1711.14 1313.28 C 1711.07 1320.25 1710.69 1322.34 1712.74 1329.02 C 1715.68 1334.11 1717.1 1335.56 1721.08 1339.95 L 1643.57 1339.83 C 1655.72 1326.47 1655.75 1316.8 1645.06 1303.14 z" fill="rgb(242,246,251)" transform="translate(0,0)"></path>
<path d="M 316.303 623.086 C 340.33 628.114 337.485 636.713 334.3 656.991 C 322.415 651.112 312.399 650.665 299.611 653.378 C 296.08 654.302 291.664 656.473 288.237 657.994 L 280.836 648.94 C 280.508 636.881 280.143 635.398 286.178 625.294 C 298.668 627.237 304.449 627.087 316.303 623.086 z" fill="rgb(250,198,156)" transform="translate(0,0)"></path>
<path d="M 1736.65 887.378 C 1752.54 893.174 1770.49 993.662 1771.94 1012.8 C 1772.33 1018.06 1772.73 1018.7 1768.92 1021.73 C 1759.82 1017.55 1763.4 1006.53 1761.19 997.959 C 1757.23 982.654 1756.04 951.737 1748.7 938.097 C 1738.87 919.824 1736.76 921.705 1731.67 900.447 C 1733.37 896.402 1735.07 891.542 1736.65 887.378 z" fill="rgb(0,190,242)" transform="translate(0,0)"></path>
<path d="M 767.503 1299.18 C 780.338 1300.25 785.865 1307.59 794.545 1316.33 C 795.748 1333 804.645 1338.38 820.402 1333.78 C 828.795 1331.33 845.162 1312.42 850.495 1316.63 L 850.356 1317.85 C 849.209 1328.2 851.922 1331.06 858.285 1338.97 L 830.678 1338.98 L 781.156 1338.99 C 788.1 1330.41 791.965 1321.91 784.566 1312.02 C 781.049 1307.23 775.665 1304.14 769.748 1303.54 C 754.96 1302.09 751.112 1312.1 750.578 1324.11 L 749.669 1324.25 C 741.832 1311.84 756.293 1301.76 767.503 1299.18 z" fill="rgb(242,246,251)" transform="translate(0,0)"></path>
<path d="M 584.223 728.874 L 585.548 729.592 C 578.914 738.973 557.992 744.795 551.707 749.494 C 551.525 753.5 550.974 752.486 552.845 755.227 C 557.924 757.011 566.8 750.737 572.918 748.407 C 576.698 750.604 577.605 751.589 577.687 755.883 C 574.374 762.041 569.008 763.423 562.594 766.074 C 560.084 767.121 557.544 768.092 554.976 768.986 C 539.671 774.149 533.567 764.622 529.446 752.102 C 542.733 736.707 545.578 741.737 564.472 736.948 C 570.894 735.32 578.218 731.865 584.223 728.874 z" fill="rgb(250,198,156)" transform="translate(0,0)"></path>
<path d="M 277.134 680.011 C 292.842 690.554 294.926 692.259 312.611 694.17 C 319.553 699.774 308.051 711.114 304.231 715.438 L 295.871 725.076 C 289.175 717.83 282.514 708.486 276.544 700.514 C 276.8 693.681 276.997 686.847 277.134 680.011 z" fill="rgb(250,198,156)" transform="translate(0,0)"></path>
<path d="M 210.617 948.333 C 218.161 946.983 222.823 951.284 225.3 958.03 C 230.295 971.633 219.664 976.961 210.607 980.456 C 193.485 979.027 192.455 965.735 191.744 951.836 C 198.189 950.369 204.119 949.395 210.617 948.333 z" fill="rgb(237,181,136)" transform="translate(0,0)"></path>
<path d="M 946.253 1004.13 C 956.459 1003.86 966.743 1003.46 976.944 1003.38 C 985.492 1003.31 999.006 1001.25 1000.67 1012.26 C 999.883 1014.06 998.964 1016.43 996.941 1016.76 C 982.02 1019.24 962.927 1017.49 947.77 1018.47 C 947.324 1017.09 946.537 1006.64 946.253 1004.13 z" fill="rgb(250,198,156)" transform="translate(0,0)"></path>
<path d="M 663.379 1010.52 C 672.931 1010.43 699.345 1008.82 706.77 1010.91 L 708.313 1014.08 C 707.46 1021.34 694.343 1019.05 688.162 1018.91 C 681.482 1018.85 646.208 1020.55 643.473 1017.52 C 643.6 1013 642.876 1014.1 645.307 1011.48 C 649.687 1009.81 658.31 1010.43 663.379 1010.52 z" fill="rgb(93,109,133)" transform="translate(0,0)"></path>
<path d="M 816.988 830.465 C 827.671 831.816 844.732 831.825 855.544 831.845 L 855.002 846.623 C 841.917 844.215 831.019 842.613 817.756 841.72 C 816.238 838.084 816.814 834.503 816.988 830.465 z" fill="rgb(250,198,156)" transform="translate(0,0)"></path>
<path d="M 1606.66 982.844 C 1608.39 985.199 1608.15 998.548 1609.55 1002.81 C 1611.6 1009.07 1612.24 1013.66 1611.41 1020.22 L 1591.75 1020.27 C 1588.68 1020.09 1589.12 1020.61 1587.29 1019.01 C 1596.94 1006.28 1601.52 997.475 1606.66 982.844 z" fill="rgb(242,246,251)" transform="translate(0,0)"></path>
<path d="M 1474.15 1006.76 C 1480.43 1006.36 1490.85 1006.82 1497.44 1006.9 C 1497.71 1010.66 1498.64 1017.76 1496.67 1020.63 C 1487.38 1020.73 1467.61 1022.2 1474.15 1006.76 z" fill="rgb(237,181,136)" transform="translate(0,0)"></path>
<path d="M 227.418 839.71 C 229.342 847.506 227.93 900.548 227.61 911.792 C 227.522 914.865 225.615 921.162 224.595 924.261 C 222.891 907.854 222.905 853.393 227.418 839.71 z" fill="rgb(242,246,251)" transform="translate(0,0)"></path>
<path d="M 301.248 662.398 C 306.853 661.959 320.03 659.317 320.611 666.627 C 318.871 670.393 317.191 671.426 314.078 674.146 C 307.144 675.676 298.178 674.502 296.414 666.393 C 298.038 663.16 297.257 664.241 301.248 662.398 z" fill="rgb(250,198,156)" transform="translate(0,0)"></path>
<path d="M 870.956 792.341 C 873.506 792.53 873.437 792.42 875.728 793.483 C 879.201 799.261 876.346 813.714 872.382 819.087 L 868.423 817.479 C 863.628 811.713 866.914 798.114 870.956 792.341 z" fill="rgb(250,198,156)" transform="translate(0,0)"></path>
<path d="M 869.737 1299.99 C 880.116 1299.98 891.46 1311.11 888.463 1320.49 C 886.021 1316.27 883.446 1312.12 880.744 1308.06 C 871.834 1301.7 865.023 1305.26 855.247 1307.68 C 859.164 1304.26 864.891 1302.12 869.737 1299.99 z" fill="rgb(242,246,251)" transform="translate(0,0)"></path>
<path d="M 899.901 995.564 C 903.555 1000.97 904.996 1010.78 905.259 1017.23 L 901.726 1016.37 C 898.836 1011.84 899.765 1001.34 899.901 995.564 z" fill="rgb(100,83,110)" transform="translate(0,0)"></path>
<path d="M 1007.53 1005.8 C 1008.75 1005.78 1009.97 1005.76 1011.19 1005.76 C 1015.39 1005.79 1015.49 1005.61 1017.78 1007.98 L 1017.71 1011.4 C 1014.06 1012.06 1013.57 1012.18 1009.92 1011.95 C 1007.42 1009.7 1008.21 1010.08 1007.53 1005.8 z" fill="rgb(242,246,251)" transform="translate(0,0)"></path>
<path d="M 899.807 96.3111 C 946.464 89.748 1003.29 130.963 969.506 179.367 C 956.011 198.7 929.824 210.328 907.01 213.675 C 886.215 215.054 866.541 211.523 849.023 199.588 C 826.339 184.133 819.961 152.661 837.109 130.569 C 852.825 110.321 874.795 100.131 899.807 96.3111 z" fill="rgb(229,248,252)" transform="translate(0,0)"></path>
<metadata><recraft-signature>{"signed_by": "recraft", "signature_b64": "Xx1ZmJG93Q6UWUHZNcQMryRzwxtn6F4D3ME5xMMxlxWSpEhSoWBjGsyUflYJRnWoR2wyEgl48j0VIsLva/KTCg==", "signing_algo": "Ed25519", "generation_timestamp": 1776431375, "identifier": "b3482031-3a6e-4e74-9b85-12d183928ac7"}</recraft-signature></metadata></svg>