<svg xmlns="http://www.w3.org/2000/svg" height="1024" preserveAspectRatio="none" style="display: block;" version="1.1" viewBox="0 0 2048 1536" width="1365">
<path d="M 0 0 L 2048 0 L 2048 1536 L 0 1536 L 0 0 z" fill="rgb(242,246,251)" transform="translate(0,0)"></path>
<path d="M 1150.67 245.164 C 1187.02 218.586 1230.56 200.59 1271.69 180.981 C 1459.79 91.2897 1738.96 50.0214 1879.14 242.463 C 1947.93 336.893 1948.76 476.392 1929.05 586.723 C 1924.51 613.073 1892.11 766.578 1877.83 780.492 L 1877.3 1002.16 C 1877.34 1021.88 1877.48 1041.6 1877.73 1061.32 C 1877.85 1071.69 1878.51 1091.44 1877.04 1100.97 C 1875.46 1111.52 1870.5 1121.28 1862.9 1128.76 C 1850.06 1141.63 1837.16 1142.38 1819.76 1142.37 C 1807.33 1142.36 1794.77 1142.39 1782.33 1142.4 L 1674.34 1142.56 C 1665.65 1157.13 1650.46 1176.21 1640.08 1189.56 C 1606.3 1233.03 1569.86 1272.09 1530.64 1310.64 C 1522.53 1318.6 1473.63 1365.01 1472.19 1370.05 C 1487.1 1370.25 1501.48 1370.22 1516.4 1369.31 C 1534.53 1368.22 1531.06 1393.03 1530.77 1404.57 L 1533.51 1404.53 C 1624.94 1403.13 1719.19 1404.56 1810.93 1404.52 L 1919.98 1404.36 C 1930.21 1404.33 1984.14 1402.13 1989.86 1407.68 C 1991.31 1411.29 1991.17 1409.73 1990.7 1413.63 C 1987.05 1418.34 1980.22 1417.9 1974.53 1417.85 C 1944.12 1417.58 1913.71 1417.41 1883.31 1417.25 L 1701.95 1417.66 L 478.114 1417.65 L 202.188 1417.86 L 103.083 1417.79 C 92.436 1417.78 68.9933 1419.57 58.3018 1416.7 C 54.3017 1415.63 54.3023 1409.48 57.4176 1405.63 C 60.5255 1404.27 64.3726 1404.01 67.7662 1404.03 C 123.88 1404.44 179.988 1404.77 236.098 1404.58 L 341.161 1404.39 C 374.403 1404.16 408.513 1403.5 441.689 1404.58 C 428.556 1396.2 424.87 1391.86 420.552 1376.96 C 403.179 1376.85 385.806 1376.99 368.437 1377.38 C 347.683 1429.34 286.411 1378.88 327.098 1347.84 C 342.699 1335.94 359.124 1347.11 368.566 1361.32 L 419.594 1361.99 C 422.586 1348.12 426.681 1342.57 437.674 1334.1 L 437.462 1323.76 C 357.906 1248.23 289.109 1162.13 233.002 1067.87 C 221.309 1048.09 209.007 1028.22 200.485 1006.9 C 171.771 1006.06 164.907 1011.2 171.236 969.289 C 171.712 966.138 176.482 964.268 179.33 963.064 C 169.745 935.249 157.687 908.355 148.236 879.83 C 80.5487 675.527 25.9859 366.574 293.093 284.548 C 409.899 248.678 505.6 292.72 608.4 347.531 C 608.718 303.97 598.411 248.802 660.861 245.29 C 675.042 244.493 690.01 245.206 704.296 245.241 L 803.355 245.478 L 1150.67 245.164 z" fill="rgb(15,34,55)" transform="translate(0,0)"></path>
<path d="M 179.33 963.064 C 169.745 935.249 157.687 908.355 148.236 879.83 C 80.5487 675.527 25.9859 366.574 293.093 284.548 C 409.899 248.678 505.6 292.72 608.4 347.531 L 608.308 730.46 C 588.208 713.555 568.799 699.958 542.338 694.106 C 542.572 690.611 542.744 686.791 543.1 683.337 C 566.101 666.28 568.778 633.512 569.285 606.757 C 579.457 596.783 593.393 575.737 587.596 561.026 C 575.037 550.529 519.037 546.904 503.34 548.425 C 489.481 549.752 476.723 556.551 467.893 567.316 C 448.709 591.173 448.416 644.292 480.959 657.641 C 479.729 664.879 478.301 674.875 476.694 681.841 C 471.826 681.782 466.84 681.722 461.98 681.861 C 418.063 683.114 375.937 712.051 349.861 746.193 C 327.018 746.389 304.992 753.926 300.647 780.245 C 297.59 798.764 299.074 822.892 299.066 842.013 L 299.219 963.739 L 217.95 963.826 C 211.13 963.827 184.864 964.145 179.33 963.064 z" fill="rgb(221,242,250)" transform="translate(0,0)"></path>
<path d="M 1150.67 245.164 C 1187.02 218.586 1230.56 200.59 1271.69 180.981 C 1459.79 91.2897 1738.96 50.0214 1879.14 242.463 C 1947.93 336.893 1948.76 476.392 1929.05 586.723 C 1924.51 613.073 1892.11 766.578 1877.83 780.492 C 1875.14 667.068 1877.29 547.061 1877.14 433.149 L 1876.97 341.957 C 1876.92 322.308 1878.48 295.39 1872.83 276.7 C 1868.71 263.068 1848.39 247.258 1833.93 246.249 C 1814.43 244.891 1792.97 245.5 1772.95 245.488 L 1645.37 245.676 L 1342.91 245.472 C 1280.09 245.545 1213.04 246.766 1150.67 245.164 z" fill="rgb(221,242,250)" transform="translate(0,0)"></path>
<path d="M 1332.03 1142.99 L 1674.34 1142.56 C 1665.65 1157.13 1650.46 1176.21 1640.08 1189.56 C 1606.3 1233.03 1569.86 1272.09 1530.64 1310.64 C 1522.53 1318.6 1473.63 1365.01 1472.19 1370.05 C 1459.21 1370.79 1438.73 1370.11 1425.29 1370.09 L 1331.26 1369.95 C 1332.28 1338.64 1331.8 1306.41 1331.78 1275.02 L 1332.03 1142.99 z" fill="rgb(221,242,250)" transform="translate(0,0)"></path>
<path d="M 200.485 1006.9 L 299.025 1006.75 L 299.09 1090.82 C 299.103 1104.05 298.674 1117.46 299.279 1130.66 C 301.417 1177.32 340.169 1172.86 372.764 1172.74 C 394.175 1172.54 415.588 1172.53 436.999 1172.72 L 437.462 1323.76 C 357.906 1248.23 289.109 1162.13 233.002 1067.87 C 221.309 1048.09 209.007 1028.22 200.485 1006.9 z" fill="rgb(221,242,250)" transform="translate(0,0)"></path>
<path d="M 683.513 870.794 C 675.271 850.588 666.168 829.009 658.221 808.844 C 653.083 795.805 655.015 757.951 655.03 742.222 L 655.139 635.422 L 655.118 304.82 C 655.166 298.55 654.199 295.216 659.284 291.114 C 672.3 289.606 689.136 290.172 702.588 290.215 L 766.779 290.38 L 982.536 290.268 L 1752.48 290.551 C 1758.72 290.57 1762.86 290.592 1762.91 297.682 C 1763.1 325.529 1762.88 353.387 1762.79 381.238 L 1762.59 539.227 L 1763.15 1025.12 L 1029.45 1025.43 L 781.685 1025.41 C 744.178 1025.4 706.324 1026.11 668.846 1025.77 C 658.735 1025.68 593.419 1013.52 589.29 1007.38 C 589.956 1005.95 589.854 1005.35 591.42 1005.28 C 618.188 1004.11 657.308 1004.79 683.46 1004.87 L 1002.02 1005.18 L 1087.01 1005.21 C 1101.78 1005.3 1117.48 1005.66 1132.26 1005.18 C 1135.37 1005.08 1136.88 1002.67 1138.55 1000.2 C 1139.41 991.594 1140.99 973.206 1135.45 966.027 C 1133.82 963.918 1125.74 963.482 1122.98 963.438 C 1098.53 963.046 1074.04 963.141 1049.58 963.091 C 998.342 963.159 947.108 962.955 895.876 962.479 C 913.54 936.85 874.004 926.897 856.129 930.433 C 839.941 933.636 836.047 926.595 821.82 924.133 C 778.842 916.694 735.874 905.14 692.877 898.555 C 690.363 889.404 686.706 879.786 683.513 870.794 z" fill="rgb(229,248,252)" transform="translate(0,0)"></path>
<path d="M 683.513 870.794 C 675.271 850.588 666.168 829.009 658.221 808.844 C 653.083 795.805 655.015 757.951 655.03 742.222 L 655.139 635.422 L 655.118 304.82 C 655.166 298.55 654.199 295.216 659.284 291.114 C 672.3 289.606 689.136 290.172 702.588 290.215 L 766.779 290.38 L 982.536 290.268 L 1752.48 290.551 C 1758.72 290.57 1762.86 290.592 1762.91 297.682 C 1763.1 325.529 1762.88 353.387 1762.79 381.238 L 1762.59 539.227 L 1763.15 1025.12 L 1029.45 1025.43 L 781.685 1025.41 C 744.178 1025.4 706.324 1026.11 668.846 1025.77 C 658.735 1025.68 593.419 1013.52 589.29 1007.38 C 589.956 1005.95 589.854 1005.35 591.42 1005.28 C 618.188 1004.11 657.308 1004.79 683.46 1004.87 L 1002.02 1005.18 L 1087.01 1005.21 C 1101.78 1005.3 1117.48 1005.66 1132.26 1005.18 C 1135.37 1005.08 1136.88 1002.67 1138.55 1000.2 C 1143.35 1001.77 1218.99 1001.21 1229.5 1001.29 L 1727.16 1001.69 C 1727.15 984.974 1727.24 968.26 1727.45 951.547 L 1727.53 587.926 C 1727.2 535.665 1728.2 483.382 1727 431.132 C 1726.76 420.604 1726.02 418.11 1715.2 417.908 C 1667.33 417.014 1619.42 417.165 1571.54 417.101 L 1308.8 417.142 L 684.007 417.563 C 683.971 567.684 685.728 720.969 683.513 870.794 z" fill="rgb(213,239,249)" transform="translate(0,0)"></path>
<path d="M 792.129 316.493 L 1502.5 317.096 L 1652.03 317.333 C 1665.03 317.39 1714.84 316.873 1723.36 319.522 C 1731.34 328.547 1729.25 377.668 1726.54 390.248 C 1725.4 395.55 1689.09 394.147 1683.38 394.135 L 1620.5 393.973 L 683.02 393.507 C 683.014 383.242 681.591 325.427 684.97 319.068 C 693.972 315.387 777.253 316.575 792.129 316.493 z" fill="rgb(242,246,251)" transform="translate(0,0)"></path>
<path d="M 1652.48 346.099 C 1664.97 345.856 1692.95 343.132 1701.95 350.934 C 1704.8 357.164 1701.65 360.007 1696.43 363.978 C 1687.64 363.945 1624.64 369.365 1652.48 346.099 z" fill="rgb(40,120,232)" transform="translate(0,0)"></path>
<path d="M 1496.26 345.744 C 1508.56 345.64 1522.19 345.042 1534.41 346.14 C 1546.12 347.191 1551.71 354.651 1540.88 363.682 C 1530.29 364.742 1472.96 369.699 1496.26 345.744 z" fill="rgb(40,120,232)" transform="translate(0,0)"></path>
<path d="M 1575.62 346.099 C 1587.69 345.9 1616.92 342.742 1624.28 351.308 C 1626.86 357.785 1624.79 360.95 1618.98 363.813 C 1606.49 363.954 1591.59 364.827 1579.32 363.085 C 1567.62 361.423 1564.51 353.539 1575.62 346.099 z" fill="rgb(40,120,232)" transform="translate(0,0)"></path>
<path d="M 851.502 346.129 C 859.825 345.784 868.13 345.275 876.456 345.566 C 890.91 346.072 896.286 358.806 882.354 366.637 C 871.8 367.39 841.831 371.338 844.438 354.197 C 845.056 350.136 848.359 348.111 851.502 346.129 z" fill="rgb(0,190,242)" transform="translate(0,0)"></path>
<path d="M 716.69 346.122 C 726.404 345.724 747.13 343.683 754.171 350.731 C 755.554 352.138 756.255 354.079 756.091 356.046 C 755.757 360.497 752.535 364.086 749.451 366.934 C 744.488 367 738.861 366.826 733.979 367.052 C 721.111 367.647 697.698 361.522 716.69 346.122 z" fill="rgb(40,120,232)" transform="translate(0,0)"></path>
<path d="M 801.061 345.516 C 809.808 345.167 820.679 345.024 824.238 355.044 C 822.456 367.351 808.503 366.615 799.047 366.745 C 790.688 367.081 779.811 367.415 778.147 356.723 C 780.385 345.006 791.935 345.478 801.061 345.516 z" fill="rgb(40,120,232)" transform="translate(0,0)"></path>
<path d="M 1284.9 455.818 C 1288.18 457.685 1287.55 456.691 1288.78 459.611 C 1287.44 464.088 1279.6 477.145 1277.01 481.919 C 1267.02 500.409 1256.94 518.847 1246.76 537.233 C 1281.56 538.296 1322.13 537.191 1357.46 537.18 L 1584.72 536.952 C 1584.65 525.503 1582.39 491.023 1586.42 481.809 C 1587.15 480.136 1587.92 478.949 1589.67 478.292 C 1594.86 476.348 1654.08 476.617 1658.41 478.683 C 1660.05 479.464 1660.25 479.87 1660.72 481.527 C 1663.47 491.27 1663.66 554.197 1659.51 561.75 C 1651.36 564.818 1591.51 565.637 1586.02 560.569 C 1584.25 555.932 1584.83 549.173 1584.92 544.029 C 1545.73 543.522 1505.52 543.989 1466.24 543.997 L 1466.14 652.01 C 1505.48 652.353 1506.67 641.987 1505.98 684.85 L 1583.58 684.652 C 1583.53 646.545 1581.63 651.959 1619.01 652.324 C 1618.92 641.956 1617.32 611.274 1622.19 603.899 L 1623.34 604.881 C 1627.15 615.462 1626.01 640.154 1626.02 652.377 C 1633.13 652.263 1656.07 650.677 1660.48 654.425 C 1663.75 663.597 1664.26 713.136 1660.63 721.398 C 1653.55 724.03 1592.87 723.825 1584.93 721.555 C 1582.03 716.493 1583.15 698.089 1583.24 691.459 C 1557.53 691.087 1531.8 691.125 1506.09 691.571 C 1506.18 698.635 1507.24 715.916 1504.37 721.563 C 1496.61 724.27 1436.5 723.807 1427.97 721.111 C 1424.95 717.155 1426.08 697.692 1426.15 691.86 L 1348.83 691.855 C 1348.92 695.7 1350.13 721.358 1346.98 721.749 C 1331.34 723.689 1284.84 725.828 1271.6 721.778 C 1268.75 715.862 1268.69 657.669 1272.64 653.116 C 1279.02 650.921 1298.39 651.814 1305.91 651.923 L 1305.99 543.905 C 1285.43 543.712 1264.54 543.949 1243.95 544.003 C 1234.41 557.414 1216.68 592.417 1208.07 608.531 C 1186.36 647.032 1165.25 685.872 1144.76 725.037 C 1149.94 730.071 1153.31 734.744 1155.04 741.859 C 1156.86 749.235 1155.65 757.033 1151.68 763.507 C 1146.06 772.683 1138.94 775.936 1129.03 778.443 L 1129.01 841.715 C 1129 849.722 1129.58 872.285 1127.75 878.923 C 1119.78 881.912 995.845 880.388 977.184 880.388 C 977.239 885.716 978.047 902.244 975.947 906.051 C 967.527 908.989 917.738 908.916 909.242 906.636 C 905.937 902.936 907.12 885.862 907.198 880.161 C 870.823 880.82 834.442 881.023 798.061 880.769 C 796.323 866.512 797.339 823.166 797.345 806.87 L 797.351 657.108 C 787.728 657.18 778.641 657.218 769.019 656.877 C 768.965 648.271 767.287 600.79 770.868 596.815 C 779.688 593.135 820.454 594.745 832.344 595.064 C 833.093 602.162 832.693 616.732 832.681 624.393 L 1003.36 624.932 C 1018.87 641.521 1036.02 658.228 1051.99 674.466 C 1069.12 691.885 1086.95 710.311 1104.79 726.903 C 1117.41 717.67 1124.39 717.035 1139.12 721.46 C 1169.62 661.906 1204.54 603.771 1235.2 544.035 L 1195.72 544.03 C 1194.83 548.751 1193.12 553.276 1190.64 557.392 C 1173.52 585.925 1132.02 579.153 1124.95 547.571 C 1122.98 539.116 1124.48 530.223 1129.12 522.885 C 1134.66 514.333 1143.44 508.397 1153.44 506.435 C 1162.79 504.539 1172.51 506.551 1180.34 512.002 C 1189.18 518.243 1193.73 526.785 1195.63 537.222 L 1239.04 537.353 C 1249.88 520.211 1259.5 499.677 1269.52 481.94 C 1273.85 474.284 1279.61 462.318 1284.9 455.818 z" fill="rgb(15,34,55)" transform="translate(0,0)"></path>
<path d="M 832.334 630.788 L 1000.41 630.967 C 1009.54 641.391 1020.21 650.54 1029.67 660.654 C 1052.24 684.796 1077.85 707.404 1099.53 732.248 C 1098.77 734.018 1098.07 735.814 1097.44 737.633 C 1090.31 758.661 1102.95 772.531 1122.04 778.552 L 1121.94 873.323 L 1062.5 873.241 L 977.315 873.279 C 977.337 862.154 977.378 851.303 976.967 840.185 C 960.029 839.139 924.402 839.705 907.223 840.367 C 906.681 850.079 907.067 863.424 907.056 873.41 L 804.185 873.442 L 804.581 657.107 C 812.072 657.31 823.677 658.748 829.597 654.86 C 834.155 648.981 832.542 638.617 832.334 630.788 z" fill="rgb(229,248,252)" transform="translate(0,0)"></path>
<path d="M 1312.34 544.028 L 1459.67 543.992 C 1460.06 579.311 1459.27 616.532 1459.17 652.029 C 1451.29 651.957 1434.14 651.317 1427.22 652.992 C 1426.06 661.42 1426.38 675.955 1426.35 684.966 C 1401.09 685.467 1374.15 684.945 1348.75 684.899 C 1348.63 676.474 1350.41 661.094 1346.24 654.625 C 1340.57 650.067 1321.51 651.951 1313.02 652.007 L 1312.34 544.028 z" fill="rgb(229,248,252)" transform="translate(0,0)"></path>
<path d="M 1592.14 484.572 C 1613.15 484.769 1634.16 484.771 1655.16 484.578 C 1655.55 508.41 1655.24 532.913 1655.2 556.794 L 1592.17 556.649 L 1592.14 484.572 z" fill="rgb(0,190,242)" transform="translate(0,0)"></path>
<path d="M 1433.15 659.162 L 1498.66 659.15 C 1498.75 676.748 1499.35 698.656 1498.41 715.848 C 1477.76 715.859 1453.49 716.423 1433.14 715.421 L 1433.15 659.162 z" fill="rgb(40,120,232)" transform="translate(0,0)"></path>
<path d="M 1277.01 659.228 C 1298.24 658.939 1320.18 659.245 1341.47 659.265 C 1341.59 678.317 1341.54 697.37 1341.32 716.421 L 1277.12 716.258 L 1277.01 659.228 z" fill="rgb(0,190,242)" transform="translate(0,0)"></path>
<path d="M 1624.02 659.5 C 1634.38 659.406 1644.75 659.405 1655.11 659.497 C 1655.33 678.283 1655.38 697.07 1655.26 715.857 L 1623.97 715.905 L 1590.74 715.947 L 1590.86 659.593 L 1624.02 659.5 z" fill="rgb(0,190,242)" transform="translate(0,0)"></path>
<path d="M 915.052 847.747 L 969.686 847.627 L 969.42 899.61 C 954.202 900.526 930.807 899.847 914.987 899.883 L 915.052 847.747 z" fill="rgb(40,120,232)" transform="translate(0,0)"></path>
<path d="M 1157.3 512.233 C 1172.76 510.843 1186.48 522.079 1188.17 537.504 C 1189.86 552.929 1178.9 566.87 1163.51 568.861 C 1153.28 570.183 1143.14 565.878 1136.99 557.603 C 1130.84 549.329 1129.64 538.376 1133.85 528.966 C 1138.06 519.555 1147.03 513.156 1157.3 512.233 z" fill="rgb(40,120,232)" transform="translate(0,0)"></path>
<path d="M 776.052 602.212 C 792.402 602.128 808.753 602.24 825.1 602.547 L 825.058 650.019 L 775.995 649.956 L 776.052 602.212 z" fill="rgb(0,190,242)" transform="translate(0,0)"></path>
<path d="M 1119.8 726.512 C 1128.6 724.083 1138 727.156 1143.66 734.314 C 1148.43 740.335 1149.83 748.356 1147.4 755.638 C 1144.96 762.921 1139.01 768.479 1131.57 770.416 C 1119.49 773.565 1107.13 766.373 1103.89 754.31 C 1100.65 742.247 1107.76 729.834 1119.8 726.512 z" fill="rgb(0,190,242)" transform="translate(0,0)"></path>
<path d="M 1306.57 759.22 C 1309.19 759.448 1309.02 759.37 1311.22 760.801 C 1314.54 766.869 1312.97 796.66 1312.87 805.058 C 1349.35 805.286 1350.02 796.914 1349.53 836.821 L 1426.3 836.663 C 1426.19 830.211 1425.15 812.131 1427.68 806.976 C 1435.74 804.342 1495.96 804.128 1504.08 806.541 C 1507.38 811.613 1506.15 829.7 1506.06 836.498 C 1531.63 836.651 1557.21 836.673 1582.78 836.562 C 1582.79 828.204 1581.03 813.039 1585.48 807.118 C 1591.2 803.237 1610.49 804.952 1618.8 804.989 C 1618.32 796.571 1616.16 764.699 1621.56 759.754 L 1623.62 760.486 C 1627.4 766.001 1625.8 796.854 1625.77 804.925 C 1633.17 804.844 1656.45 803.21 1661.02 806.967 C 1664.43 815.47 1663.03 859.141 1662.96 871.25 L 1662.71 872.749 C 1661.7 873.856 1661.01 875.033 1659.67 875.23 C 1647.34 877.044 1593.13 878.06 1584.74 874.519 C 1581.7 869.432 1582.85 850.82 1582.94 843.631 C 1560.36 842.363 1528.95 843.341 1505.95 843.477 C 1505.94 848.487 1508.05 875.708 1501.63 875.702 C 1489.29 875.69 1436.37 878.75 1427.63 874.044 C 1425.48 868.301 1426.31 850.398 1426.39 843.498 C 1400.8 843.288 1375.21 843.308 1349.62 843.558 C 1349.71 849.467 1350.49 871.726 1348.62 873.437 C 1343.74 877.913 1276.12 877.075 1272.25 874.446 C 1269.57 866.495 1268.33 810.78 1273.15 806.04 C 1280 804.12 1298.17 804.937 1306 805.043 C 1305.89 793.802 1305.13 769.596 1306.57 759.22 z" fill="rgb(15,34,55)" transform="translate(0,0)"></path>
<path d="M 1589.99 812.16 L 1655.91 812.193 L 1655.9 869.074 L 1589.82 869.022 L 1589.99 812.16 z" fill="rgb(229,248,252)" transform="translate(0,0)"></path>
<path d="M 1432.96 812.986 C 1454.94 812.833 1476.92 812.833 1498.9 812.988 L 1498.93 868.977 L 1432.92 868.89 L 1432.96 812.986 z" fill="rgb(40,120,232)" transform="translate(0,0)"></path>
<path d="M 1277.21 812.174 C 1298.86 812.231 1320.51 812.478 1342.16 812.916 L 1342.27 869.009 L 1277.53 868.996 L 1277.21 812.174 z" fill="rgb(0,190,242)" transform="translate(0,0)"></path>
<path d="M 769.386 470.059 C 824.339 468.465 880.37 470.805 935.449 469.92 C 954.257 469.617 978.291 468.88 996.815 470.367 C 999.159 472.694 998.436 471.762 998.837 475.862 C 980.919 477.38 939.267 476.135 918.957 476.108 C 870.234 476.042 820.619 476.468 771.963 475.896 C 769.234 473.809 770.106 474.592 769.386 470.059 z" fill="rgb(15,34,55)" transform="translate(0,0)"></path>
<path d="M 653.677 262.124 C 655.595 262.014 657.515 261.931 659.436 261.874 C 680.455 261.275 703.772 261.76 724.955 261.698 L 883.551 261.741 L 1341.05 261.795 L 1619.49 261.758 L 1710.75 261.703 C 1727.63 261.702 1744.84 261.467 1761.68 262.232 C 1769.4 262.582 1776.45 266.889 1781.93 272.153 C 1794.21 283.928 1792.57 295.013 1792.7 310.724 L 1792.17 836.95 L 1791.9 1005.6 C 1791.91 1034.63 1792.31 1064.03 1791.4 1093.03 C 1790.95 1107.49 1775.35 1122.98 1760.91 1123.85 C 1746.65 1124.71 1731.76 1124.34 1717.31 1124.32 L 1651 1124.73 L 1421.7 1124.9 L 745.562 1125 C 736.7 1078.96 734.011 1058.96 689.486 1033.85 C 738.169 1032.55 790.557 1033.33 839.391 1033.32 L 1106.5 1033.34 L 1508.28 1033.14 C 1595.28 1033.12 1683.42 1033.95 1770.3 1032.96 C 1770.32 1032.34 1770.34 1031.71 1770.36 1031.09 C 1771.18 993.036 1770.63 952.557 1770.6 914.389 L 1770 655.045 L 1770.06 424.355 C 1770.06 384.58 1770.13 344.795 1769.9 305.023 C 1769.83 293.302 1769.73 283.742 1755.32 283.764 C 1681.67 283.877 1608.03 283.82 1534.39 283.663 L 1031.43 283.721 L 775.227 283.666 L 702.558 283.522 C 689.236 283.397 675.814 282.949 662.535 283.171 C 655.562 283.653 647.948 290.453 647.784 297.577 C 647.38 315.171 647.494 332.721 647.468 350.281 L 647.622 459.76 C 648.27 568.514 648.061 677.272 646.994 786.023 C 640.216 772.943 633.915 763.454 625.736 751.201 L 625.975 444.219 L 625.932 344.386 C 625.908 327.662 625.603 310.729 626.06 294.011 C 626.544 276.269 637.835 266.954 653.677 262.124 z" fill="rgb(242,246,251)" transform="translate(0,0)"></path>
<path d="M 334.89 755.364 C 336.069 755.31 337.249 755.266 338.429 755.231 C 395.831 753.476 454.558 755.82 512.098 754.893 C 527.438 754.645 539.234 753.081 550.878 764.29 C 568.43 781.188 565.537 800.794 565.51 823.06 L 565.368 880.19 L 565.804 978.859 C 565.639 1027.88 563.099 1078.99 567.731 1127.92 C 569.231 1143.76 574.081 1152.87 585.407 1163.97 L 558.75 1163.89 L 413.231 1163.74 C 389.427 1163.74 365.909 1163.89 341.826 1163.71 C 329.444 1165.42 311.72 1154.25 309.877 1140.62 C 306.545 1115.99 308.184 1080.34 308.21 1055.1 L 308.283 921.844 L 308.186 836.516 C 308.163 820.276 307.958 804.014 308.424 787.783 C 308.884 771.714 320.08 759.996 334.89 755.364 z" fill="rgb(0,190,242)" transform="translate(0,0)"></path>
<path d="M 829.307 1142.51 L 1117.18 1142.12 L 1117.53 1370.2 L 1002.5 1370.29 L 945.373 1369.91 C 917.701 1370 921.763 1381.94 922.204 1403.89 C 910.977 1403.92 856.805 1404.69 849.484 1403.2 C 848.658 1401.21 846.014 1394.84 844.584 1393.98 C 826.943 1383.4 802.374 1371.45 784.401 1362.76 C 780.614 1333.94 775.599 1308.23 771.042 1280.01 C 763.862 1234.19 756.349 1188.42 748.502 1142.7 L 829.307 1142.51 z" fill="rgb(221,242,250)" transform="translate(0,0)"></path>
<path d="M 1801.53 262.9 C 1810.42 262.748 1820.5 262.363 1829.28 263.524 C 1843.3 265.378 1857.68 276.923 1858.25 291.87 C 1861 364.775 1859.93 438.201 1859.93 511.235 L 1859.91 870.529 L 1859.87 1029.63 C 1859.86 1052.6 1860.63 1079.87 1858.57 1102.73 C 1857.93 1109.83 1849.44 1117.36 1843.55 1121.35 C 1832.23 1126.28 1808.63 1124.52 1795.21 1124.38 C 1811.33 1105.67 1810.42 1095.29 1810.16 1071.74 C 1810.03 1059.72 1810.15 1046.98 1810.14 1034.91 L 1810.54 923.054 L 1810.44 514.486 L 1810.39 364.671 C 1810.36 338.329 1810.52 311.666 1810.02 285.322 C 1809.88 277.451 1805.37 269.627 1801.53 262.9 z" fill="rgb(0,190,242)" transform="translate(0,0)"></path>
<path d="M 463.594 690.426 C 479.918 689.208 503.327 696.629 519.821 699.615 C 529.735 701.923 540.738 702.367 550.428 705.362 C 613.825 724.955 642.765 790.45 664.087 847.311 C 671.802 867.885 679.13 885.558 685.829 905.57 C 733.924 914.796 781.663 927.378 830.179 934.442 C 829.724 945.515 829.067 951.51 825.635 962.001 C 791.872 962.491 680.846 961.623 651.698 949.199 C 645.749 942.522 630.277 909.799 625.031 899.39 C 618.661 886.534 612.299 873.435 605.621 860.725 C 603.274 856.26 599.841 850.022 594.259 850.587 L 592.993 852.214 C 592.57 858.249 603.376 877.615 606.746 884.308 C 604.091 899.367 586.844 995.018 581.124 1002.69 C 577.995 1004.34 579.453 1004.14 575.74 1003.18 C 572.806 997.423 574.206 948.601 574.195 939.285 L 573.979 800.911 C 573.624 769.296 556.3 745.69 522.875 745.881 C 508.706 745.962 494.298 746.097 480.109 746.148 C 440.078 746.174 400.046 746.434 360.018 746.929 C 389.591 713.899 418.394 694.227 463.594 690.426 z" fill="rgb(0,190,242)" transform="translate(0,0)"></path>
<path d="M 1139.11 1196.95 C 1196.22 1195.96 1255.15 1196.77 1312.38 1196.86 L 1312.84 1370.17 L 1138.91 1370.1 C 1138.63 1312.38 1138.7 1254.66 1139.11 1196.95 z" fill="rgb(242,246,251)" transform="translate(0,0)"></path>
<path d="M 598.487 971.17 L 1130.2 971.418 C 1130.36 977.205 1131.34 991.997 1129.04 996.324 L 1126.25 996.734 L 593.057 996.018 C 595.303 987.13 596.964 980.244 598.487 971.17 z" fill="rgb(40,120,232)" transform="translate(0,0)"></path>
<path d="M 483.183 1172.28 L 510.864 1172.47 C 527.377 1229.43 547.848 1286.76 565.749 1343.27 C 560.145 1346.69 558.877 1347.55 554.194 1352.11 C 552.076 1355.18 550.593 1358.33 548.897 1361.65 L 500.592 1361.8 C 497.378 1348.02 493.402 1341.11 482.163 1332.6 C 482.053 1280.37 481.173 1224.13 483.183 1172.28 z" fill="rgb(221,242,250)" transform="translate(0,0)"></path>
<path d="M 615.447 1172.27 L 657.411 1172.48 C 673.866 1237.07 686.595 1302.99 703.974 1367.38 C 706.575 1377.01 710.429 1381.98 711.163 1392.38 C 707.036 1392.65 662.975 1368.87 655.937 1365.32 C 647.16 1326.66 638.804 1287.91 630.87 1249.07 C 626.596 1229.06 617.758 1191.56 615.447 1172.27 z" fill="rgb(221,242,250)" transform="translate(0,0)"></path>
<path d="M 941.177 1388.24 L 1512.38 1388.57 C 1512.46 1394.22 1512.59 1398.67 1511.97 1404.28 L 939.779 1403.84 C 940.469 1398.77 940.787 1393.37 941.177 1388.24 z" fill="rgb(242,246,251)" transform="translate(0,0)"></path>
<path d="M 446.24 1195.31 L 473.106 1195.23 C 473.116 1209.28 474.024 1325.26 471.912 1328.55 C 460.031 1326.74 457.883 1326.55 445.923 1329.43 L 446.24 1195.31 z" fill="rgb(242,246,251)" transform="translate(0,0)"></path>
<path d="M 576.563 1125.47 C 596.668 1124.83 640.689 1124.77 660.303 1126.12 C 661.823 1127.05 663.317 1128.02 664.782 1129.03 C 676.42 1137.17 676.487 1148.61 668.684 1159.38 C 659.154 1166.66 648.096 1163.79 637.015 1164.19 C 604.033 1165.38 579.978 1164.44 576.563 1125.47 z" fill="rgb(0,190,242)" transform="translate(0,0)"></path>
<path d="M 178.121 972.106 L 299.329 972.154 L 299.267 998.092 L 178.095 998.151 L 178.121 972.106 z" fill="rgb(40,120,232)" transform="translate(0,0)"></path>
<path d="M 774.989 1367.99 C 778.808 1367.94 836.692 1398.46 843.285 1402.98 C 828.067 1404.17 800.323 1403.29 784.214 1403.25 L 720.204 1403.45 C 720.074 1396.37 719.24 1388.07 718.697 1380.91 C 739.075 1378.25 755.827 1375.66 774.989 1367.99 z" fill="rgb(40,120,232)" transform="translate(0,0)"></path>
<path d="M 559.591 611.042 C 560.361 611.563 560.445 612.03 560.995 612.961 C 561.25 634.012 551.633 693.259 518.377 674.28 C 516.709 673.328 516.238 667.938 511.714 666.343 L 510.641 667.618 C 509.116 689.432 529.585 681.751 535.028 689.602 L 534.361 691.158 C 531.335 693.278 530.323 692.256 525.752 691.65 C 512.989 689.283 497.015 685.528 484.545 684.548 C 485.341 677.169 487.701 665.76 489.058 658.216 C 518.837 653.219 534.488 643.131 546.955 615.712 C 551.251 614.574 555.452 612.714 559.591 611.042 z" fill="rgb(242,246,251)" transform="translate(0,0)"></path>
<path d="M 648.824 1372 C 655.094 1373.61 706.507 1399.5 706.806 1402.25 C 702.429 1404.66 637.732 1403.61 628.75 1403.61 L 590.367 1403.7 C 584.378 1403.75 576.044 1405.83 571.646 1402.13 L 571.42 1399.07 C 579.72 1390.42 589.537 1404.96 603.391 1381.15 C 619.752 1380.23 634.033 1379.31 648.824 1372 z" fill="rgb(40,120,232)" transform="translate(0,0)"></path>
<path d="M 500.789 1377.46 C 516.477 1377.17 533.234 1377.44 548.998 1377.45 C 552.56 1384.19 564.161 1395.9 562.617 1401.44 C 557.555 1405.54 548.704 1404.1 541.836 1403.85 C 521.036 1403.64 499.292 1403.46 478.577 1404.4 C 491.463 1394.72 494.345 1392.52 500.789 1377.46 z" fill="rgb(242,246,251)" transform="translate(0,0)"></path>
<path d="M 599.731 963.215 C 604.822 943.837 609.591 917.125 613.7 897.195 C 621.564 910.937 628.077 925.378 635.128 939.547 C 642.333 954.028 649.25 958.579 664.795 961.917 L 664.959 963.022 C 643.217 963.196 621.474 963.26 599.731 963.215 z" fill="rgb(242,246,251)" transform="translate(0,0)"></path>
<path d="M 570.859 1351.69 C 580.999 1348.62 591.714 1354.32 594.833 1364.44 C 597.951 1374.57 592.299 1385.31 582.188 1388.47 C 572.012 1391.66 561.186 1385.96 558.047 1375.77 C 554.909 1365.58 560.654 1354.78 570.859 1351.69 z" fill="rgb(0,190,242)" transform="translate(0,0)"></path>
<path d="M 339.733 1352.69 C 350.202 1351.8 359.444 1359.49 360.47 1369.95 C 361.496 1380.4 353.924 1389.74 343.481 1390.9 C 336.607 1391.66 329.854 1388.67 325.804 1383.06 C 321.753 1377.45 321.032 1370.1 323.916 1363.82 C 326.799 1357.53 332.842 1353.28 339.733 1352.69 z" fill="rgb(0,190,242)" transform="translate(0,0)"></path>
<path d="M 861.299 937.426 C 871.456 937.396 888.653 938.57 892.561 950.003 C 891.045 960.981 875.028 959.725 866.269 960.143 C 855.474 961.089 844.657 961.774 833.829 962.197 C 836.673 955.047 837.466 949.262 838.258 941.694 C 846.883 938.739 852.275 938.05 861.299 937.426 z" fill="rgb(242,246,251)" transform="translate(0,0)"></path>
<path d="M 456.827 1349.56 C 463.376 1348.27 470.106 1350.66 474.369 1355.8 C 478.632 1360.93 479.746 1367.99 477.273 1374.19 C 474.8 1380.39 469.136 1384.74 462.508 1385.53 C 452.781 1386.69 443.875 1379.96 442.347 1370.28 C 440.819 1360.6 447.215 1351.45 456.827 1349.56 z" fill="rgb(40,120,232)" transform="translate(0,0)"></path>
<path d="M 664.795 961.917 C 670.866 961.53 678.04 961.719 683.942 963.238 C 677.556 964.033 671.374 963.42 664.959 963.022 L 664.795 961.917 z" fill="rgb(26,58,92)" transform="translate(0,0)"></path>
<metadata><recraft-signature>{"signed_by": "recraft", "signature_b64": "CWJjVOSZc0R7A2rbStx2KS/m27ASV7DdjkyoNi62ni49pRB3urRC/zNsvuSySnmEmUu+QRMSMmDQfxHLEZXIAQ==", "signing_algo": "Ed25519", "generation_timestamp": 1776431350, "identifier": "c96b38bc-111f-4932-82e3-9791bdcacbf3"}</recraft-signature></metadata></svg>