<svg xmlns="http://www.w3.org/2000/svg" height="1024" preserveAspectRatio="none" style="display: block;" version="1.1" viewBox="0 0 2048 1536" width="1365">
<path d="M 0 0 L 2048 0 L 2048 733.284 L 2048 945.569 L 2048 1536 L 0 1536 L 0 0 z" fill="rgb(213,239,249)" transform="translate(0,0)"></path>
<path d="M 0 0 L 2048 0 L 2048 733.284 C 2042.28 703.076 2037.39 675.21 2030.27 644.965 C 2001.24 521.499 1943.12 399.727 1850.02 311.656 C 1750.47 217.487 1602.35 162.576 1466.33 194.715 C 1466.34 189.334 1466.62 184.627 1465.24 179.418 C 1465.12 168.544 1465.84 107.649 1463.72 104.145 C 1460.18 102.131 1461.79 102.53 1457.57 102.785 C 1455.79 103.95 1453.89 104.812 1453.66 107.328 C 1452.83 116.061 1453.1 126.512 1453.1 135.202 L 1453.24 197.518 C 1444.51 199.284 1434.41 203.575 1425.66 206.27 C 1371.48 222.97 1323.12 254.039 1277.46 286.92 C 1267.42 294.155 1258.5 301.962 1246.46 305.731 C 1231.12 310.56 1214.39 307.798 1201.42 298.293 C 1189.66 289.531 1175.4 265.854 1166.38 253.626 C 1131.29 206.001 1089.8 163.782 1034.88 139.609 C 1029.34 137.171 1029.78 137.044 1028.11 131.421 L 1028.23 117.839 C 1028.3 112.95 1028.44 109.212 1024.93 105.586 C 1021.17 104.465 1022.73 104.589 1018.93 105.435 C 1016.31 107.62 1016.32 108.934 1015.31 112.403 C 1014.35 118.213 1014.63 124.754 1014.68 130.702 C 994.765 125.13 975.487 119.69 955.023 117.044 C 818.118 99.3387 692.246 185.92 629.117 303.224 C 622.323 315.849 616.136 328.409 609.928 341.358 L 661.72 341.895 C 668.548 348.769 701.244 397.151 703.315 406.734 L 702.771 408.818 C 693.522 411.577 599.455 410.925 583.26 410.812 C 574.141 440.232 566.929 469.932 561.85 500.34 C 558.611 519.735 556.528 527.545 536.462 533.349 C 510.06 527.906 485.081 523.322 457.924 523.118 C 358.326 522.37 263.824 557.366 189.594 624.517 C 84.0253 720.017 31.0961 864.054 31.9771 1004.82 C 32.0782 1020.97 34.6172 1036.72 36.5961 1052.68 C 45.2402 1121.12 67.2134 1187.8 108.33 1243.8 C 107.84 1268.72 107.597 1293.65 107.602 1318.57 C 107.593 1325.45 107.228 1345.62 108.258 1351.91 L 58.3404 1351.79 C 49.7745 1351.78 12.6941 1347.88 28.0298 1366.4 C 45.0848 1367.81 77.6966 1366.58 96.4645 1366.5 L 227.974 1366.31 L 702.5 1366.1 L 2020.74 1366.74 C 2024.26 1363.05 2025.79 1361.23 2024.19 1356.2 C 2019.16 1351.32 2015.41 1351.88 2008.56 1351.82 C 1995.55 1348.51 1913 1350.94 1894.22 1351.03 C 1896.07 1347.49 1898.51 1343.81 1900.69 1340.38 C 1950.29 1262.39 1991.05 1176.1 2016.6 1087.14 C 2029.86 1040.96 2038.19 992.535 2048 945.569 L 2048 1536 L 0 1536 L 0 0 z" fill="rgb(242,246,251)" transform="translate(0,0)"></path>
<path d="M 28.0298 1366.4 C 45.0848 1367.81 77.6966 1366.58 96.4645 1366.5 L 227.974 1366.31 L 702.5 1366.1 L 2020.74 1366.74 L 2021.04 1367.47 C 2037.13 1406.98 1991.52 1398.1 1968.06 1397.98 C 1941.33 1397.88 1914.59 1397.97 1887.86 1398.25 L 1525.27 1398 L 410.15 1397.97 L 165.283 1398 C 124.491 1398.05 83.7008 1398.37 42.9132 1398.27 C 21.0039 1398.22 23.4757 1382.13 28.0298 1366.4 z" fill="rgb(213,239,249)" transform="translate(0,0)"></path>
<path d="M 564.467 341.069 C 564.13 283.594 564.161 226.118 564.563 168.644 C 564.686 150.491 564.376 132.567 564.271 114.44 C 564.241 109.331 564.417 106.705 567.74 103.568 C 571.443 102.729 570.143 102.521 573.485 103.605 C 577.832 108.705 575.889 122.854 575.877 130.004 L 575.868 181.581 C 575.808 234.909 576.028 288.238 576.528 341.564 L 609.928 341.358 L 661.72 341.895 C 668.548 348.769 701.244 397.151 703.315 406.734 L 702.771 408.818 C 693.522 411.577 599.455 410.925 583.26 410.812 L 488.153 410.938 C 480.103 410.949 436.376 412.729 432.289 407.686 C 432.887 398.433 466.194 348.573 472.958 341.143 C 502.618 340.561 534.65 341.082 564.467 341.069 z" fill="rgb(15,34,55)" transform="translate(0,0)"></path>
<path d="M 479.686 352.077 L 654.802 352.107 C 664.605 364.907 677.1 385.189 686.316 399.274 L 653.25 399.498 C 585.044 399.962 516.836 400.031 448.63 399.706 C 459.614 384.196 468.411 367.423 479.686 352.077 z" fill="rgb(242,246,251)" transform="translate(0,0)"></path>
<path d="M 664.995 503.162 L 1188.05 503.141 L 1310.2 503.144 C 1326.18 503.129 1366.01 502.009 1380.13 505.007 C 1382.92 508.432 1381.62 667.962 1381.72 688.054 C 1407.89 688.128 1460.09 682.175 1479.52 699.969 C 1497.28 716.242 1493.97 744.046 1494.09 765.377 C 1494.29 800.397 1489.49 808.681 1462.09 827.207 C 1538.45 840.509 1554.89 993.901 1546.64 1054.98 C 1543.22 1080.37 1524.72 1107.05 1506.26 1124.03 L 1554.25 1124.01 C 1553.87 1067.2 1554 1010.39 1554.64 953.581 L 1554.82 905.973 C 1554.83 883.265 1553.44 855.927 1585.6 855.665 C 1593.13 855.564 1600.38 858.471 1605.75 863.741 C 1618.09 875.747 1615.03 897.09 1615.03 913.224 L 1614.99 971.701 C 1614.93 1035.27 1614.93 1098.88 1614.68 1162.45 C 1614.66 1166.98 1614.39 1177.53 1611.12 1180.76 C 1601.34 1184.14 1511.62 1182.33 1494.8 1182.62 C 1503.96 1209 1492.43 1206.99 1471.16 1206.89 L 1471.26 1308.12 C 1483.28 1308.09 1540.78 1305.58 1546.61 1311.3 C 1549.1 1313.73 1547.82 1318.49 1550.63 1321.52 C 1554.27 1325.42 1562.21 1329.22 1562.07 1335.27 C 1561.92 1341.36 1558.43 1347.26 1554.94 1352.02 L 1774.02 1351.75 L 1774.03 1297.29 C 1721.6 1309.27 1672.83 1283.57 1660.56 1229.75 C 1655.06 1206.32 1659.18 1181.65 1672.02 1161.29 C 1678.48 1151.13 1685.78 1143.93 1694.43 1135.86 C 1693.06 1104.09 1698.12 1081.65 1720.62 1057.31 C 1738.53 1038.14 1763.3 1026.83 1789.52 1025.84 C 1847.06 1023.75 1891.48 1065.79 1892.55 1122.98 C 1892.92 1143.09 1887.34 1157.63 1880.22 1175.81 C 1926.31 1237.98 1866.27 1310.14 1804.05 1277.78 L 1803.98 1351.93 L 1939.16 1351.95 C 1960.6 1351.95 1987.42 1352.68 2008.56 1351.82 C 2015.41 1351.88 2019.16 1351.32 2024.19 1356.2 C 2025.79 1361.23 2024.26 1363.05 2020.74 1366.74 L 702.5 1366.1 L 227.974 1366.31 L 96.4645 1366.5 C 77.6966 1366.58 45.0848 1367.81 28.0298 1366.4 C 12.6941 1347.88 49.7745 1351.78 58.3404 1351.79 L 108.258 1351.91 C 110.075 1338.58 108.83 1316.55 108.815 1302.39 L 109.003 1186.62 C 108.99 1175.93 107.445 1124.84 110.719 1120.02 L 111.51 1119.65 C 114.262 1118.34 114.682 1118.3 116.578 1116.08 C 117.174 1107.94 113.407 1106.13 118.756 1101.37 C 121.82 1100.98 129.676 1100.52 132.403 1100.84 C 144.932 1102.3 199.223 1098.43 205.727 1103.1 C 207.927 1107.9 201.397 1124.11 198.256 1128.4 L 198.319 1352.3 L 216.171 1352.35 C 216.19 1322.98 213.162 1115.86 218.183 1103.15 C 224.654 1099.47 311.465 1099.34 315.285 1103.81 C 314.686 1106.82 312.052 1121.51 310.301 1124.31 C 309.962 1124.85 307.452 1125.36 306.596 1125.55 C 304.967 1129.85 306.489 1329.21 306.517 1352.18 L 325.357 1352.2 C 325.794 1275.58 325.412 1198.67 326.192 1122.04 C 326.197 1121.58 329.584 1118.01 329.062 1116.92 C 329.217 1111.66 325.365 1109.25 326.665 1103.99 C 328.505 1102.26 330.271 1101 332.962 1101.14 C 348.42 1101.97 414.732 1098.07 424.933 1103.36 C 426.594 1105.8 426.036 1105.41 426.129 1108.93 C 424.523 1111.52 424.29 1111.61 421.837 1113.5 C 420.257 1119.16 422.432 1121.02 420.123 1125.17 C 417.861 1125.73 416.102 1126.11 413.809 1126.53 C 411.999 1130.49 413.016 1334.39 413.014 1353.02 L 531.928 1352.96 C 510.674 1328.67 537.142 1308.15 561.163 1307.85 C 578.867 1307.64 596.658 1307.91 614.368 1308.02 L 614.139 1205.95 C 592.727 1206.47 586.693 1210.32 587.038 1186.2 L 587.12 1181.52 C 572.589 1181.58 474.898 1183.48 470.142 1179.32 C 464.971 1169.95 466.902 1125.16 466.939 1111.79 L 466.902 1017.21 L 466.958 927.617 C 466.972 917.95 467.101 908.041 467.018 898.349 C 466.884 882.902 467.033 868.651 482.797 860.719 C 504.521 849.787 527.323 864.993 527.735 888.923 C 528.224 915.109 527.886 941.121 527.763 967.207 C 527.286 1019.87 527.239 1072.54 527.622 1125.21 C 541.693 1125.27 557.661 1124.97 571.579 1125.62 C 545.664 1095.8 543.827 1077.94 546.918 1039.66 C 549.543 1007.15 552.934 974.767 556.324 942.307 C 561.201 895.616 562.498 840.161 619.719 828.26 C 595.82 817.295 579.613 806.003 570.083 779.798 C 563.422 761.921 564.253 742.114 572.386 724.858 C 589.549 688.564 626.899 673.775 664.644 686.073 C 665.074 625.104 665.191 564.133 664.995 503.162 z" fill="rgb(15,34,55)" transform="translate(0,0)"></path>
<path d="M 1314.7 525.751 C 1332.19 525.655 1350.69 525.284 1368.09 525.675 L 1368.11 560.368 L 1368.09 573.991 L 1367.99 574.868 L 1368 687.569 C 1360.85 689.656 1354.9 692.131 1351.84 699.316 C 1344.31 716.977 1348.49 731.208 1363.72 741.312 C 1363.43 752.065 1362.9 763.293 1363.91 773.982 C 1365.02 785.655 1368.3 797.679 1368.31 809.368 C 1368.35 862.144 1368.03 914.901 1368.27 967.684 L 1299.2 967.8 C 1295.37 967.779 1296.08 966.826 1294.47 966.176 C 1280.45 961.199 1262.73 966.528 1248.42 969.136 C 1244.08 969.926 1237.56 968.883 1233.78 969.953 C 1201.7 979.036 1217.47 1003.15 1231.16 1018.57 C 1215.06 1007.73 1212.57 1008.58 1193.43 1008.22 C 1194.74 996.578 1196.73 988.953 1200.93 978.123 C 1201.57 976.485 1200.2 974.998 1199.29 973.761 C 1192.8 970.859 1185.06 971.732 1177.82 971.876 C 1181.32 963.215 1199.02 923.327 1197.14 917.079 C 1194.31 914.677 1195.88 915.155 1192.33 915.429 C 1184.33 920.778 1170.48 961.093 1166.93 971.654 C 1155.66 971.401 1126.79 969.475 1117.66 972.998 C 1115.02 975.765 1115.68 974.16 1115.57 977.966 C 1117.09 981.306 1118.22 981.576 1121.53 983.619 C 1122.45 989.98 1123.3 996.827 1124.42 1003.12 C 1116.97 1002.89 1109.98 1001.56 1104.28 1006.11 C 1103.1 1008.92 1103.2 1008.8 1103.29 1011.9 C 1099.15 1014.67 1049.03 1013.61 1039.96 1013.65 L 1039.9 961.329 L 1039.68 691.996 C 1039.11 677.229 1039.36 661.601 1039.38 646.761 L 1039.16 569.268 C 1039.13 557.365 1038.62 537.228 1039.75 525.865 C 1059.52 525.642 1079.61 525.814 1099.4 525.807 L 1114.08 525.91 L 1299.69 525.908 L 1314.7 525.751 z" fill="rgb(221,242,250)" transform="translate(0,0)"></path>
<path d="M 1314.7 525.751 C 1332.19 525.655 1350.69 525.284 1368.09 525.675 L 1368.11 560.368 L 1368.09 573.991 L 1367.99 574.868 C 1343.38 574.162 1317.87 575.983 1293.14 574.912 C 1285.79 574.594 1279.17 573.877 1271.78 574.207 C 1276.44 574.682 1279.33 574.846 1284.04 574.852 L 1121.68 835.134 C 1098.28 872.535 1069.69 922.751 1044.81 957.282 L 1044.03 956.925 C 1047.43 947.7 1057.53 936.344 1062.78 927.506 C 1089.16 883.142 1117.32 839.843 1144.6 796.061 L 1202 702.583 C 1210.31 689.327 1280.66 581.397 1279.78 576.535 C 1276.64 575.33 1273.51 575.934 1270.05 576.178 C 1258.85 597.016 1243.93 619.88 1231.26 640.174 L 1157.36 757.671 L 1090.88 864.022 C 1080.59 880.747 1054.63 927.693 1042 939.503 C 1042.07 944.817 1042.66 957.631 1041.48 962.152 L 1039.9 961.329 L 1039.68 691.996 C 1039.11 677.229 1039.36 661.601 1039.38 646.761 L 1039.16 569.268 C 1039.13 557.365 1038.62 537.228 1039.75 525.865 C 1059.52 525.642 1079.61 525.814 1099.4 525.807 L 1114.08 525.91 L 1299.69 525.908 L 1314.7 525.751 z" fill="rgb(242,252,253)" transform="translate(0,0)"></path>
<path d="M 1314.7 525.751 C 1332.19 525.655 1350.69 525.284 1368.09 525.675 L 1368.11 560.368 L 1368.09 573.991 L 1367.99 574.868 C 1343.38 574.162 1317.87 575.983 1293.14 574.912 C 1285.79 574.594 1279.17 573.877 1271.78 574.207 L 1270.85 574.167 L 1232.93 574.142 C 1195.44 573.973 1157.95 574.004 1120.46 574.233 L 1118.58 574.935 C 1111.5 587.579 1048.83 690.499 1042.46 692.172 C 1041.14 692.518 1040.89 692.316 1039.68 691.996 C 1039.11 677.229 1039.36 661.601 1039.38 646.761 L 1039.16 569.268 C 1039.13 557.365 1038.62 537.228 1039.75 525.865 C 1059.52 525.642 1079.61 525.814 1099.4 525.807 L 1114.08 525.91 L 1299.69 525.908 L 1314.7 525.751 z" fill="rgb(213,239,249)" transform="translate(0,0)"></path>
<path d="M 1099.4 525.807 L 1114.08 525.91 L 1299.69 525.908 C 1293.61 529.905 1284.58 552.214 1279.77 559.84 L 1278.26 560.036 C 1266.06 560.308 1253.87 560.261 1241.67 559.893 L 1240.89 560.107 C 1205.2 559.395 1167.04 560.023 1131.19 560.002 L 1130.25 560.095 L 1093.85 559.935 L 1093.32 560.115 L 1081 560.035 C 1085.86 552.006 1096.91 534.445 1099.4 525.807 z" fill="rgb(242,246,251)" transform="translate(0,0)"></path>
<path d="M 1099.4 525.807 L 1114.08 525.91 L 1299.69 525.908 C 1293.61 529.905 1284.58 552.214 1279.77 559.84 L 1278.26 560.036 C 1266.06 560.308 1253.87 560.261 1241.67 559.893 C 1245.45 552.285 1256.36 536.189 1261.47 526.991 L 1152.84 526.948 C 1147.34 533.486 1133.25 552.119 1131.19 560.002 L 1130.25 560.095 L 1093.85 559.935 L 1093.32 560.115 L 1081 560.035 C 1085.86 552.006 1096.91 534.445 1099.4 525.807 z" fill="rgb(221,242,250)" transform="translate(0,0)"></path>
<path d="M 1099.4 525.807 L 1114.08 525.91 C 1111.45 532.762 1098.29 552.989 1093.85 559.935 L 1093.32 560.115 L 1081 560.035 C 1085.86 552.006 1096.91 534.445 1099.4 525.807 z" fill="rgb(242,246,251)" transform="translate(0,0)"></path>
<path d="M 1040.15 574.607 C 1050.4 574.949 1061.28 574.803 1071.59 574.819 L 1083.53 574.868 C 1095.21 574.822 1106.9 574.844 1118.58 574.935 C 1111.5 587.579 1048.83 690.499 1042.46 692.172 C 1041.14 692.518 1040.89 692.316 1039.68 691.996 C 1039.11 677.229 1039.36 661.601 1039.38 646.761 C 1040.98 644.262 1040.18 583.216 1040.15 574.607 z" fill="rgb(229,248,252)" transform="translate(0,0)"></path>
<path d="M 1314.7 525.751 C 1332.19 525.655 1350.69 525.284 1368.09 525.675 L 1368.11 560.368 C 1343.79 560.712 1318.4 559.968 1293.78 560.1 C 1289.36 560.189 1284.26 559.953 1279.77 559.84 C 1284.58 552.214 1293.61 529.905 1299.69 525.908 L 1314.7 525.751 z" fill="rgb(221,242,250)" transform="translate(0,0)"></path>
<path d="M 1299.69 525.908 L 1314.7 525.751 C 1308.97 536.628 1300.44 549.497 1293.78 560.1 C 1289.36 560.189 1284.26 559.953 1279.77 559.84 C 1284.58 552.214 1293.61 529.905 1299.69 525.908 z" fill="rgb(242,246,251)" transform="translate(0,0)"></path>
<path d="M 1039.75 525.865 C 1059.52 525.642 1079.61 525.814 1099.4 525.807 C 1096.91 534.445 1085.86 552.006 1081 560.035 C 1072.62 559.41 1048.25 560.099 1040.16 560.861 C 1040.23 549.936 1040.64 536.544 1039.75 525.865 z" fill="rgb(229,248,252)" transform="translate(0,0)"></path>
<path d="M 677.694 525.228 L 805.985 525.974 C 831.134 525.977 859.625 525.297 884.529 526.072 C 918.382 525.7 952.238 525.559 986.093 525.65 L 1008.17 525.879 C 1009.55 535.491 1008.91 563.179 1008.9 574.729 L 1008.21 1013.14 C 977.535 1013.05 946.279 1013.27 915.654 1012.87 L 952.335 922.504 C 955.054 915.678 964.653 892.669 965.572 886.847 C 962.658 880.971 952.305 880.509 946.14 879.356 C 946.237 872.481 947.045 854.179 945.435 848.459 C 937.64 841.946 924.485 855.172 917.334 859.264 C 913.851 861.257 909.31 865.153 907.156 868.58 L 906.719 869.299 C 906.423 869.832 906.128 870.365 905.832 870.898 C 897.541 869.253 889.203 867.685 880.987 865.695 C 873.376 863.852 864.495 860.322 856.756 860.052 C 854.221 859.963 851.605 860.55 849.487 861.981 C 838.055 869.699 826.915 926.373 819.132 927.222 C 816.22 925.747 814.096 923.919 810.717 925.177 C 804.304 927.565 775.31 959.547 768.64 967.142 C 751.03 970.353 724.144 972.198 705.884 973.569 L 703.764 972.54 C 702.184 965.835 703.242 953.049 703.049 945.77 C 701.878 901.741 705.308 855.982 661.324 831.358 C 704.201 808.124 725.676 764.037 702.535 718.377 C 694.938 706.035 689.128 700.804 677.426 692.465 C 677.235 690.85 677.314 685.481 677.29 683.57 C 676.208 653.827 677.664 619.48 677.223 589.278 C 677.02 575.363 676.318 537.784 677.694 525.228 z" fill="rgb(242,246,251)" transform="translate(0,0)"></path>
<path d="M 993.217 573.977 C 997.358 573.998 1005.26 573.754 1008.9 574.729 L 1008.21 1013.14 C 977.535 1013.05 946.279 1013.27 915.654 1012.87 L 952.335 922.504 C 955.054 915.678 964.653 892.669 965.572 886.847 C 962.658 880.971 952.305 880.509 946.14 879.356 C 946.237 872.481 947.045 854.179 945.435 848.459 C 937.64 841.946 924.485 855.172 917.334 859.264 C 913.851 861.257 909.31 865.153 907.156 868.58 L 906.719 869.299 C 906.423 869.832 906.128 870.365 905.832 870.898 C 897.541 869.253 889.203 867.685 880.987 865.695 C 873.376 863.852 864.495 860.322 856.756 860.052 C 854.221 859.963 851.605 860.55 849.487 861.981 C 838.055 869.699 826.915 926.373 819.132 927.222 C 816.22 925.747 814.096 923.919 810.717 925.177 C 804.304 927.565 775.31 959.547 768.64 967.142 C 751.03 970.353 724.144 972.198 705.884 973.569 C 709.651 967.03 713.607 960.444 717.251 953.853 C 743.018 907.255 774.906 864.1 802.658 818.736 C 835.314 765.316 868.378 712.147 901.848 659.234 C 918.605 632.44 937.128 600.586 954.694 574.968 C 962.037 575.09 985.204 575.708 991.3 574.347 L 993.217 573.977 z" fill="rgb(229,248,252)" transform="translate(0,0)"></path>
<path d="M 677.694 525.228 L 805.985 525.974 C 831.134 525.977 859.625 525.297 884.529 526.072 C 918.382 525.7 952.238 525.559 986.093 525.65 L 1008.17 525.879 C 1009.55 535.491 1008.91 563.179 1008.9 574.729 C 1005.26 573.754 997.358 573.998 993.217 573.977 L 991.3 574.347 C 985.204 575.708 962.037 575.09 954.694 574.968 L 829.04 575.33 C 817.093 575.42 805.467 574.29 793.906 574.664 L 793.306 574.93 C 783.924 591.633 713.451 708.603 703.419 717.575 L 702.535 718.377 C 694.938 706.035 689.128 700.804 677.426 692.465 C 677.235 690.85 677.314 685.481 677.29 683.57 C 676.208 653.827 677.664 619.48 677.223 589.278 C 677.02 575.363 676.318 537.784 677.694 525.228 z" fill="rgb(213,239,249)" transform="translate(0,0)"></path>
<path d="M 678.236 573.976 L 743.293 574.707 C 759.457 574.732 777.427 574.161 793.306 574.93 C 783.924 591.633 713.451 708.603 703.419 717.575 L 702.535 718.377 C 694.938 706.035 689.128 700.804 677.426 692.465 C 677.235 690.85 677.314 685.481 677.29 683.57 C 680.281 672.144 678.26 590.964 678.236 573.976 z" fill="rgb(221,242,250)" transform="translate(0,0)"></path>
<path d="M 677.694 525.228 L 805.985 525.974 C 831.134 525.977 859.625 525.297 884.529 526.072 C 882.141 526.376 876.66 526.736 875.634 528.525 C 872.673 533.683 858.009 555.744 856.956 559.79 L 855.79 560.008 C 843.071 560.265 829.782 560.065 817.017 560.058 C 812.645 560.147 808.033 560.06 803.638 560.047 L 802.746 560.118 C 762.011 559.667 718.895 559.054 678.293 560.009 C 678.313 549.378 678.697 535.545 677.694 525.228 z" fill="rgb(221,242,250)" transform="translate(0,0)"></path>
<path d="M 822.537 527.062 L 837.34 526.787 C 831.632 536.365 823.231 551.345 817.017 560.058 C 812.645 560.147 808.033 560.06 803.638 560.047 L 822.537 527.062 z" fill="rgb(242,246,251)" transform="translate(0,0)"></path>
<path d="M 884.529 526.072 C 918.382 525.7 952.238 525.559 986.093 525.65 C 978.862 536.93 971.487 548.83 964.041 559.91 L 963.326 560.049 C 929.791 558.957 890.864 559.819 856.956 559.79 C 858.009 555.744 872.673 533.683 875.634 528.525 C 876.66 526.736 882.141 526.376 884.529 526.072 z" fill="rgb(242,246,251)" transform="translate(0,0)"></path>
<path d="M 986.093 525.65 L 1008.17 525.879 C 1007.24 533.899 1009.03 556.386 1006.22 559.884 L 1004.4 560.141 C 990.949 559.995 977.495 559.918 964.041 559.91 C 971.487 548.83 978.862 536.93 986.093 525.65 z" fill="rgb(221,242,250)" transform="translate(0,0)"></path>
<path d="M 766.713 1058.98 L 1311.97 1059 L 1312 1077.53 C 1254.9 1093.71 1255.59 1122.61 1244.21 1174.98 C 1238.05 1204.45 1231.61 1233.86 1224.89 1263.21 C 1221.69 1278.13 1218.1 1304.95 1213.46 1318.35 C 1212.58 1320.89 1166.13 1331.41 1162.14 1337.55 C 1159.44 1341.72 1160.37 1346.23 1160.65 1351.02 L 932.963 1350.91 C 932.793 1346.23 933.154 1342.35 930.225 1338.61 C 922.756 1329.05 900.827 1327.77 888.805 1326.03 C 879.7 1283.28 867.758 1239.45 857.279 1196.94 C 850.63 1171.55 844.829 1145.96 837.319 1120.81 C 826.847 1085.74 797.11 1083.52 766.745 1078.2 L 766.713 1058.98 z" fill="rgb(213,239,249)" transform="translate(0,0)"></path>
<path d="M 1707.36 1143.64 C 1703.03 1121.27 1705.33 1099.32 1717.69 1079.73 C 1730.72 1059.06 1751.42 1044.4 1775.26 1038.99 C 1823.08 1028.26 1871.49 1059.51 1879.81 1107.59 C 1884.57 1135.08 1879.84 1154.68 1864.68 1177.57 C 1878.36 1189.53 1886.34 1205.69 1885.68 1224.09 C 1885.24 1238.28 1879.05 1251.68 1868.52 1261.2 C 1845.72 1281.9 1813.93 1277.02 1793.96 1255.07 C 1794.06 1250.22 1794.92 1249.94 1792.43 1246.65 C 1789.86 1245.36 1789.78 1245.04 1786.91 1245.53 C 1781.99 1249.57 1783.91 1271.98 1784.02 1278.97 C 1783.46 1279.32 1782.9 1279.67 1782.34 1280 C 1747 1301 1700.52 1285.03 1680.65 1250.33 C 1659.09 1212.68 1668.51 1165.46 1707.36 1143.64 z" fill="rgb(40,120,232)" transform="translate(0,0)"></path>
<path d="M 1443.7 837.836 C 1458.15 837.688 1471.39 838.474 1483.3 848.101 C 1514.82 873.562 1528.99 933.356 1533.94 971.873 C 1536.99 1000.23 1543.94 1053.13 1526.01 1077.31 C 1507.73 1101.99 1446.88 1094.56 1425.03 1077.09 C 1408.25 1063.68 1404.49 1044.12 1401.99 1024.08 C 1420.36 1024.2 1442.41 1025.43 1450.89 1004.47 C 1461.22 978.926 1467.25 949.653 1473.96 922.728 C 1476.48 913.416 1484.3 889.36 1482.15 880.894 C 1479.69 878.012 1481.22 878.813 1477.39 878.473 C 1467.84 883.89 1450.36 979.593 1441.97 998.459 C 1440.5 1001.81 1438.3 1004.8 1435.55 1007.22 C 1432.34 1009.96 1428.44 1011.76 1424.28 1012.42 C 1414.76 1014.02 1387.51 1013.35 1376.78 1013.22 C 1349.82 1012.89 1321.7 1013.28 1294.84 1012.09 C 1307.2 998.788 1304.78 987.13 1288.67 979.259 C 1328.8 978.412 1373.77 978.506 1413.85 978.937 C 1415.11 974.225 1415.76 969.222 1416.84 964.459 C 1426.4 922.42 1434.42 879.909 1443.7 837.836 z" fill="rgb(40,120,232)" transform="translate(0,0)"></path>
<path d="M 631.061 836.272 C 656.473 834.821 674.544 849.26 683.88 872.336 C 686.063 877.763 687.676 883.402 688.694 889.163 C 690.848 901.731 695.157 962.521 691.021 972.336 C 668.5 973.013 655.946 861.584 638.802 863.191 C 633.38 869.391 644.444 900.636 648.151 908.228 C 660.666 933.86 659.519 983.467 696.376 984.108 C 721.831 984.55 748.53 981.025 773.986 978.533 C 775.905 990.733 776.898 1000.34 776.957 1012.6 C 758.865 1013.43 729.821 1011.2 713.625 1014.09 C 671.442 1021.6 651.08 1022.1 634.479 978.746 C 629.899 965.186 606.663 890.339 600.527 883.528 C 597.465 883.571 592.322 886.058 593.418 889.509 C 605.139 925.049 615.763 961.891 629.446 996.786 C 639.529 1022.5 659.323 1028.43 684.074 1028.29 C 684.929 1040.4 685.868 1052.51 686.889 1064.61 C 648.807 1073.35 596.071 1072.28 556.844 1071.24 C 556.816 1040.69 561.488 1005.31 564.193 974.619 C 567.439 945.587 569.772 916.045 575.594 887.391 C 581.701 857.335 602.087 841.518 631.061 836.272 z" fill="rgb(0,190,242)" transform="translate(0,0)"></path>
<path d="M 1581.06 867.011 C 1609.23 866.032 1603.47 895.035 1603.53 914.901 L 1603.54 976.843 L 1603.09 1171.68 C 1531.94 1170.1 1455.9 1170.93 1384.5 1170.82 L 1360.14 1170.78 L 1360.06 1135.9 C 1426.6 1134.62 1493.48 1136.52 1559.82 1134.36 C 1567.99 1134.09 1565.39 1067.86 1565.42 1060.38 L 1565.72 929.19 C 1565.74 917.29 1565.68 905.31 1565.81 893.41 C 1565.97 879.443 1567.88 873.104 1581.06 867.011 z" fill="rgb(40,120,232)" transform="translate(0,0)"></path>
<path d="M 494.496 869.125 C 498.314 869.168 501.346 869.29 504.853 870.808 C 509.766 872.933 513.177 878.064 514.121 883.365 C 516.152 894.765 514.391 918.23 514.936 928.633 C 516.27 954.051 512.81 1123.08 516.845 1134.38 C 528.371 1138.6 694.042 1136.61 719.471 1136.66 C 719.252 1147.93 719.297 1159.47 719.215 1170.76 L 703.844 1170.73 L 478.582 1170.47 L 478.892 978.779 C 478.937 949.125 478.42 919.47 478.694 889.829 C 478.811 877.188 482.681 872.37 494.496 869.125 z" fill="rgb(40,120,232)" transform="translate(0,0)"></path>
<path d="M 1243.48 1023.5 C 1284.6 1024.35 1327.63 1023.83 1368.91 1023.95 L 1368.91 1048.06 L 847.5 1048.05 L 720.545 1048.3 C 720.106 1040.97 720.063 1032.3 719.861 1024.87 L 1062.45 1024.07 L 1178.73 1024.09 C 1197.65 1024.1 1225.37 1024.97 1243.48 1023.5 z" fill="rgb(242,246,251)" transform="translate(0,0)"></path>
<path d="M 227.045 1127.39 L 294.845 1127.39 L 295.22 1351.93 L 227.616 1351.95 L 227.045 1127.39 z" fill="rgb(0,190,242)" transform="translate(0,0)"></path>
<path d="M 252.781 1230.49 C 260.605 1230.3 268.433 1230.34 276.255 1230.63 C 278.48 1250.95 276.537 1295.57 276.661 1317.92 C 276.673 1320.14 275.08 1320.76 273.406 1321.96 C 266.789 1322.12 255.79 1323.31 250.568 1319.84 C 247.429 1312.6 248.943 1247.87 249.255 1235.63 C 249.329 1232.73 250.886 1231.84 252.781 1230.49 z" fill="rgb(15,34,55)" transform="translate(0,0)"></path>
<path d="M 259.719 1239.76 C 262.648 1240.34 262.771 1240.39 265.499 1241.63 C 266.873 1249.36 266.057 1301.16 266.017 1312.38 C 263.382 1312.26 262.705 1312.39 260.303 1311.16 C 258.843 1304.89 259.67 1250.08 259.719 1239.76 z" fill="rgb(242,246,251)" transform="translate(0,0)"></path>
<path d="M 120.74 1128.02 C 142.571 1127.69 165.062 1127.96 186.944 1127.95 L 186.792 1351.81 L 120.331 1352 L 120.74 1128.02 z" fill="rgb(0,190,242)" transform="translate(0,0)"></path>
<path d="M 142.039 1230.21 C 149.53 1229.98 163.33 1228.39 168.779 1232.98 C 170.906 1240.71 171.306 1316.57 168.451 1322 C 163.697 1322.12 141.793 1323.76 141.646 1318.52 C 141.226 1303.47 137.836 1240.7 142.039 1230.21 z" fill="rgb(15,34,55)" transform="translate(0,0)"></path>
<path d="M 152.222 1239.75 C 156.272 1240.22 156.107 1239.54 158.715 1241.7 C 160.142 1256.44 159.344 1297.37 159.04 1313.01 L 154.015 1311.66 C 151.108 1307.03 152.208 1249.64 152.222 1239.75 z" fill="rgb(242,252,253)" transform="translate(0,0)"></path>
<path d="M 337.028 1126.37 L 401.474 1126.2 C 402.771 1181.94 401.353 1238.18 401.957 1293.97 C 402.165 1313.14 401.928 1332.84 401.317 1352 L 336.692 1352.13 C 336.93 1277.35 335.995 1200.92 337.028 1126.37 z" fill="rgb(40,120,232)" transform="translate(0,0)"></path>
<path d="M 359.221 1230.22 C 363.357 1230.08 383.03 1228.29 383.114 1233.53 C 383.33 1247.01 386.154 1314.17 381.761 1320.5 C 375.837 1320.96 358.38 1323.6 357.944 1315.83 C 357.246 1303.4 354.729 1237.22 359.221 1230.22 z" fill="rgb(15,34,55)" transform="translate(0,0)"></path>
<path d="M 367.254 1240.29 L 371.526 1241.2 C 375.134 1245.29 373.05 1302.73 372.934 1311.83 L 368.497 1310.76 C 364.979 1306.75 367.132 1248.89 367.254 1240.29 z" fill="rgb(242,246,251)" transform="translate(0,0)"></path>
<path d="M 854.159 871.973 C 864.176 874.531 879.784 876.976 890.435 879.141 C 911.017 883.403 931.555 887.875 952.046 892.559 C 950.563 897.732 948.672 902.612 946.591 907.57 C 932.493 941.164 919.377 975.511 904.977 1008.95 L 903.593 1011.75 C 899.338 1014.61 854.565 1013.57 846.533 1013.56 C 859.993 991.037 835.101 976.956 816.662 970.831 C 829.177 942.949 843.14 901.609 854.159 871.973 z" fill="rgb(242,246,251)" transform="translate(0,0)"></path>
<path d="M 1360.93 1182.11 C 1381.37 1181.86 1402.34 1182.11 1422.82 1182.12 C 1414.3 1207.07 1421.74 1207.38 1443.66 1206.97 L 1443.76 1307.89 C 1416.3 1308.33 1388.04 1308.05 1360.51 1308.1 L 1360.93 1182.11 z" fill="rgb(213,239,249)" transform="translate(0,0)"></path>
<path d="M 670.364 1181.95 L 706.175 1182.03 C 716.124 1198.01 723.325 1207.49 722.931 1226.93 C 722.372 1254.45 722.317 1282.22 722.184 1309.76 C 713.247 1307.6 705.744 1307.98 696.643 1307.99 L 642.889 1308.03 L 642.95 1206.19 C 668.794 1205.91 671.354 1211.11 670.364 1181.95 z" fill="rgb(213,239,249)" transform="translate(0,0)"></path>
<path d="M 1322.11 1058.8 C 1331.06 1058.56 1340.88 1058.89 1349.91 1059.03 C 1352.4 1154.43 1350.25 1258.58 1349.99 1354.52 C 1340.84 1353.99 1331.48 1354.06 1322.3 1354 C 1321.51 1255.6 1321.45 1157.2 1322.11 1058.8 z" fill="rgb(242,252,253)" transform="translate(0,0)"></path>
<path d="M 1309.33 1091.05 L 1309.79 1091.27 C 1312.04 1094.94 1310.95 1130.49 1310.9 1137.19 C 1291.06 1165.95 1285.34 1197.79 1275.99 1230.85 C 1267.65 1260.37 1257.16 1290.17 1251.88 1320.34 L 1227.8 1320.4 C 1228.56 1320.67 1226.11 1320.3 1226.3 1319.27 C 1237.79 1257.54 1251.7 1195.68 1266.17 1134.39 C 1272.43 1107.85 1284.88 1099.28 1309.33 1091.05 z" fill="rgb(0,190,242)" transform="translate(0,0)"></path>
<path d="M 735.76 1059.47 L 757.023 1059.46 L 757.57 1246.07 C 757.785 1280.16 759.272 1322.98 757.798 1356.12 L 734.161 1356.04 C 732.533 1331.11 733.834 1290.31 733.809 1263.96 L 733.887 1069.99 C 733.88 1065.91 733.295 1061.97 735.76 1059.47 z" fill="rgb(242,246,251)" transform="translate(0,0)"></path>
<path d="M 765.302 1125.33 C 779.162 1131.01 784.242 1142.8 788.763 1156.1 C 794.87 1174.07 800.248 1192.26 805.79 1210.41 C 818.709 1251.76 831.01 1293.31 842.69 1335.03 C 831.185 1332.53 817.993 1330.62 806.268 1328.67 C 792.708 1285.14 765.438 1168.64 765.302 1125.33 z" fill="rgb(213,239,249)" transform="translate(0,0)"></path>
<path d="M 1411.89 741.5 L 1446.44 741.512 C 1446.78 770.273 1446.96 799.035 1446.98 827.797 C 1433.31 828.216 1427.33 829.169 1414.16 825.266 C 1374.35 809.48 1374.63 777.887 1374.9 741.71 L 1411.89 741.5 z" fill="rgb(233,175,71)" transform="translate(0,0)"></path>
<path d="M 1360.87 1083.79 L 1414.34 1084.03 C 1418.6 1086.92 1422.4 1089.43 1427.01 1091.75 C 1455.26 1105.64 1487.85 1107.8 1517.68 1097.76 C 1513.85 1101.89 1509.62 1105.97 1505.61 1109.95 C 1482.92 1128.45 1457.01 1124.52 1429.5 1124.49 C 1406.64 1124.43 1383.79 1124.53 1360.93 1124.79 L 1360.87 1083.79 z" fill="rgb(0,190,242)" transform="translate(0,0)"></path>
<path d="M 1293.58 1213.85 C 1298.78 1223.31 1310.48 1269.79 1311.38 1281.19 C 1312.7 1298.02 1311.93 1323.2 1311.86 1340.74 C 1299.94 1342.04 1288.42 1343.24 1276.9 1346.71 C 1274.84 1350.25 1273.49 1351.42 1269.4 1352.04 C 1261.58 1348.07 1266.81 1330.85 1262.43 1320.62 C 1273.32 1286.21 1283.23 1248.76 1293.58 1213.85 z" fill="rgb(213,239,249)" transform="translate(0,0)"></path>
<path d="M 666.52 757.517 L 680.934 757.556 C 681.103 768.173 681.903 780.164 681.021 790.634 C 678.705 818.147 655.881 824.622 632.784 822.417 C 629.089 821.22 624.503 819.98 621.647 817.265 C 616.712 812.574 619.436 766.896 619.549 758.077 L 666.52 757.517 z" fill="rgb(233,175,71)" transform="translate(0,0)"></path>
<path d="M 1428.93 840.015 C 1430.3 840.696 1429.83 840.498 1430.83 841.946 C 1425.58 868.68 1420.01 895.35 1414.12 921.95 C 1411.46 934.203 1407.9 953.526 1404.18 964.715 L 1402.97 965.225 L 1401.78 962.783 C 1394.38 925.467 1379.74 854.438 1428.93 840.015 z" fill="rgb(40,120,232)" transform="translate(0,0)"></path>
<path d="M 647.482 1322.22 C 665.468 1322.01 683.889 1322.23 701.909 1322.24 C 693.74 1331.08 691.383 1340.35 700.671 1349.63 L 702.62 1351.57 L 703.399 1352.32 L 701.25 1352.98 L 637.63 1352.88 C 649.058 1343.4 651.473 1336.31 647.482 1322.22 z" fill="rgb(213,239,249)" transform="translate(0,0)"></path>
<path d="M 1130.7 982.894 L 1188.49 982.835 L 1184.08 1008.78 L 1183.54 1010.61 C 1180.06 1012.8 1140.1 1011.99 1133.33 1011.99 C 1133.2 1001.9 1132.12 992.816 1130.7 982.894 z" fill="rgb(0,190,242)" transform="translate(0,0)"></path>
<path d="M 557.696 1322.35 C 573.904 1321.69 592.761 1322.08 609.183 1322.07 C 608.635 1325.09 608.336 1328.14 608.288 1331.21 C 608.033 1342.34 610.738 1344.5 617.979 1352.09 L 617.52 1352.73 L 613.25 1352.98 L 556.363 1353.05 C 565.608 1341.74 566.187 1334.57 557.696 1322.35 z" fill="rgb(213,239,249)" transform="translate(0,0)"></path>
<path d="M 1480.26 1322.99 L 1527.67 1322.75 C 1522.2 1328.15 1519.15 1332.89 1520.59 1340.67 C 1521.5 1345.58 1524.7 1347.57 1525.84 1351.56 L 1522.25 1351.95 C 1503.69 1352.09 1485.14 1351.91 1466.58 1351.41 C 1476.81 1342.87 1478.84 1335.62 1480.26 1322.99 z" fill="rgb(221,242,250)" transform="translate(0,0)"></path>
<path d="M 1220.15 1332.51 C 1230.94 1332.26 1242.03 1332.32 1252.85 1332.25 L 1252.87 1351.05 L 1202.61 1351.19 C 1195.63 1351.21 1173.83 1353.13 1170.4 1347.08 C 1174.7 1339.58 1211.13 1332.68 1220.15 1332.51 z" fill="rgb(40,120,232)" transform="translate(0,0)"></path>
<path d="M 1252.45 980.56 C 1258.63 980.174 1265.76 979.501 1271.84 980.014 L 1272.78 981.15 C 1264.34 993.196 1262.59 999.674 1272.04 1011.97 L 1252.75 1011.92 C 1239.49 1012.29 1233.04 1006.46 1226.8 995.34 C 1224.95 992.049 1225.54 990.409 1226.64 987.272 C 1235.04 978.39 1244.96 983.261 1252.45 980.56 z" fill="rgb(233,175,71)" transform="translate(0,0)"></path>
<path d="M 1381.87 817.414 C 1392.06 827.424 1397.3 831.09 1411.33 835.819 C 1395.34 848.348 1386.11 862.602 1383.83 883.266 C 1383.77 883.814 1383.72 884.364 1383.68 884.914 C 1383.18 893.917 1383.38 904.63 1383.97 913.666 C 1384.2 921.45 1388.03 963.731 1385.56 966.952 L 1381.79 968.062 C 1379.75 961.284 1380.74 848.031 1381.86 835.163 L 1381.87 817.414 z" fill="rgb(242,252,253)" transform="translate(0,0)"></path>
<path d="M 1381.86 835.163 C 1382.51 844.353 1381.36 881.243 1382.73 885.376 L 1383.68 884.914 C 1383.18 893.917 1383.38 904.63 1383.97 913.666 C 1384.2 921.45 1388.03 963.731 1385.56 966.952 L 1381.79 968.062 C 1379.75 961.284 1380.74 848.031 1381.86 835.163 z" fill="rgb(242,252,253)" transform="translate(0,0)"></path>
<path d="M 1381.86 835.163 C 1382.51 844.353 1381.36 881.243 1382.73 885.376 L 1383.68 884.914 C 1383.18 893.917 1383.38 904.63 1383.97 913.666 L 1382.61 912.831 C 1381.57 917.363 1381.84 960.774 1381.79 968.062 C 1379.75 961.284 1380.74 848.031 1381.86 835.163 z" fill="rgb(132,171,191)" transform="translate(0,0)"></path>
<path d="M 1784.02 1278.97 C 1783.91 1271.98 1781.99 1249.57 1786.91 1245.53 C 1789.78 1245.04 1789.86 1245.36 1792.43 1246.65 C 1794.92 1249.94 1794.06 1250.22 1793.96 1255.07 C 1793.71 1283.41 1795.03 1323.57 1793.34 1350.68 C 1790.95 1352.52 1787.2 1352.38 1784.53 1351.25 C 1782.32 1341.16 1784.03 1292.82 1784.02 1278.97 z" fill="rgb(242,246,251)" transform="translate(0,0)"></path>
<path d="M 1397.6 1323.13 C 1408.87 1322.97 1420.14 1323.04 1431.41 1323.33 C 1435.17 1337.97 1436.31 1341.25 1447.22 1351.6 C 1432.87 1352.17 1416.64 1351.69 1402.14 1351.58 C 1402.77 1337.44 1401.93 1336.45 1397.6 1323.13 z" fill="rgb(213,239,249)" transform="translate(0,0)"></path>
<path d="M 811.087 979.205 C 818.644 982.231 832.133 988.302 837.321 994.839 C 843.721 1002.9 837.25 1007.4 830.948 1011.91 C 825.33 1012.05 819.711 1012.13 814.091 1012.17 C 808.517 1012.15 806.044 1012.3 802.332 1008.55 C 800.646 1002.49 808.34 986.151 811.087 979.205 z" fill="rgb(233,175,71)" transform="translate(0,0)"></path>
<path d="M 855.779 1335.31 C 876.035 1334.45 900.259 1338.09 919.574 1345.43 C 921.327 1346.1 920.776 1349.33 920.731 1350.95 L 854.919 1351.02 C 854.96 1345.91 854.784 1340.26 855.779 1335.31 z" fill="rgb(0,190,242)" transform="translate(0,0)"></path>
<path d="M 1453.82 1206.81 C 1457 1206.82 1457.41 1206.8 1460.44 1207.61 C 1462.55 1214.99 1461.01 1304.2 1461 1317.66 C 1458.21 1317.75 1456.69 1318.12 1454.36 1316.64 C 1453.37 1310.85 1453.89 1289 1453.89 1281.71 L 1453.82 1206.81 z" fill="rgb(0,190,242)" transform="translate(0,0)"></path>
<path d="M 624.281 1205.69 C 626.349 1205.8 628.45 1206.09 630.51 1206.32 C 633.477 1210.01 631.57 1296.65 631.454 1309.11 C 628.657 1308.97 628.29 1308.91 625.565 1308.26 C 623.921 1304.84 624.372 1218.74 624.281 1205.69 z" fill="rgb(0,190,242)" transform="translate(0,0)"></path>
<path d="M 599.114 1182.32 L 659.068 1182.12 L 658.952 1194.75 C 649.603 1194.67 605.495 1195.69 599.86 1193.77 C 598.349 1190.04 598.93 1186.43 599.114 1182.32 z" fill="rgb(0,190,242)" transform="translate(0,0)"></path>
<path d="M 774.616 1336.02 L 801.843 1336.06 C 810.738 1345.02 826.942 1341.55 838.383 1346.1 C 839.961 1346.73 839.97 1348.32 840.672 1350.43 C 823.545 1351.83 792.705 1350.98 774.563 1350.99 L 774.616 1336.02 z" fill="rgb(0,190,242)" transform="translate(0,0)"></path>
<path d="M 1361.06 1326.3 C 1369.56 1326.08 1378.07 1326.13 1386.57 1326.47 C 1390.54 1336.86 1390.98 1340.32 1390.77 1351.48 L 1360.99 1351.13 L 1361.06 1326.3 z" fill="rgb(40,120,232)" transform="translate(0,0)"></path>
<path d="M 704.542 1027.39 L 707.997 1027.25 C 712.81 1032.87 707.348 1050.61 712.716 1059.1 C 716.864 1061.29 717.285 1059.42 722.887 1060.45 C 725.884 1064.02 725.41 1068.14 722.633 1071.89 C 721.91 1072.87 719.112 1072.09 717.781 1071.93 C 714.427 1071.23 704.537 1069.64 702.494 1067.8 L 704.069 1064.5 L 703.187 1062.67 C 701.749 1062.33 697.913 1061.56 697.562 1060.62 C 695.41 1054.82 695.787 1034.28 696.253 1029.04 C 698.089 1027.69 701.894 1027.7 704.542 1027.39 z" fill="rgb(242,252,253)" transform="translate(0,0)"></path>
<path d="M 1435.59 1182.86 C 1447.12 1182.71 1479.67 1179.72 1486.2 1188.53 C 1487.01 1191.79 1486.84 1191.94 1485.49 1195.19 L 1483.17 1195.89 C 1472.83 1195.93 1438.97 1196.63 1431.19 1195.27 L 1430.64 1193.13 C 1431.69 1188.65 1433.19 1186.69 1435.59 1182.86 z" fill="rgb(0,190,242)" transform="translate(0,0)"></path>
<path d="M 125.97 1111.13 C 145.457 1111.13 172.921 1110.35 191.828 1111.5 C 193.724 1113.82 193.091 1113.99 193.347 1117.72 C 176.762 1117.8 143.003 1119 127.73 1117.61 C 125.47 1115.16 126.225 1115.45 125.97 1111.13 z" fill="rgb(2,137,203)" transform="translate(0,0)"></path>
<path d="M 227.099 1111.96 C 244.67 1110.37 280.666 1110.61 298.361 1111.91 C 300.609 1113.6 299.948 1113.73 300.727 1117.4 C 280.716 1117.92 249.682 1118.5 230.105 1117.5 C 227.507 1115.79 228.262 1115.87 227.099 1111.96 z" fill="rgb(2,137,203)" transform="translate(0,0)"></path>
<path d="M 800.271 949.639 C 803.301 953.257 806.323 958.404 808.894 962.492 C 807.197 967.406 804.582 979.098 798.283 978.113 L 786.454 966.273 C 790.461 960.919 795.886 954.829 800.271 949.639 z" fill="rgb(233,175,71)" transform="translate(0,0)"></path>
<path d="M 625.532 1323.65 C 630.788 1321.54 636.768 1324.05 638.935 1329.28 C 641.103 1334.52 638.649 1340.52 633.436 1342.74 C 628.15 1344.99 622.044 1342.5 619.847 1337.19 C 617.649 1331.88 620.203 1325.8 625.532 1323.65 z" fill="rgb(0,190,242)" transform="translate(0,0)"></path>
<path d="M 337.815 1112.34 C 352.54 1110.22 391.786 1111.93 408.049 1112.01 C 410.778 1112.02 411.174 1113.57 412.691 1115.71 C 398.853 1117.59 356.381 1116.2 340.964 1115.71 C 339.141 1115.65 338.936 1114.29 337.815 1112.34 z" fill="rgb(40,120,232)" transform="translate(0,0)"></path>
<path d="M 539.607 1327.85 C 544.221 1325.43 549.919 1327.14 552.443 1331.7 C 554.967 1336.25 553.395 1341.99 548.903 1344.62 C 545.899 1346.38 542.178 1346.38 539.18 1344.61 C 536.182 1342.84 534.378 1339.58 534.467 1336.1 C 534.555 1332.62 536.523 1329.46 539.607 1327.85 z" fill="rgb(0,190,242)" transform="translate(0,0)"></path>
<path d="M 713.01 1324.95 C 725.61 1327.63 726.249 1339.12 715.237 1346.15 C 700.643 1342.68 703.563 1332.73 713.01 1324.95 z" fill="rgb(0,190,242)" transform="translate(0,0)"></path>
<path d="M 1462.34 1327.46 C 1463.47 1327.42 1465.37 1327.63 1466.57 1327.72 C 1467.62 1328.84 1468.63 1329.29 1468.41 1330.67 C 1467.02 1339.63 1459.54 1341.17 1452.88 1341.1 C 1449.3 1338.72 1447.24 1336.8 1445.31 1333.03 C 1445.7 1325.91 1456.8 1327.48 1462.34 1327.46 z" fill="rgb(0,190,242)" transform="translate(0,0)"></path>
<path d="M 1537.72 1329.88 C 1549.83 1329.59 1555.81 1337.14 1545.06 1346.26 C 1532.85 1346.54 1527.03 1339 1537.72 1329.88 z" fill="rgb(0,190,242)" transform="translate(0,0)"></path>
<path d="M 1381.31 1023.97 C 1382.36 1023.93 1383.41 1023.9 1384.45 1023.88 C 1394.72 1023.84 1391.25 1039.98 1391.11 1048.05 C 1384.37 1048.33 1380.5 1048.05 1380.77 1039.73 C 1380.95 1034.4 1381.25 1029.34 1381.31 1023.97 z" fill="rgb(242,252,253)" transform="translate(0,0)"></path>
<path d="M 1282.03 990.837 C 1284.57 989.69 1287.55 990.05 1289.75 991.772 C 1291.95 993.494 1293.02 996.294 1292.52 999.045 C 1292.02 1001.8 1290.04 1004.04 1287.38 1004.88 C 1283.57 1006.08 1279.5 1004.11 1278.08 1000.38 C 1276.66 996.658 1278.39 992.473 1282.03 990.837 z" fill="rgb(106,98,92)" transform="translate(0,0)"></path>
<path d="M 933.632 862.85 L 934.246 863.338 C 935.681 865.95 934.97 873.154 934.85 876.59 L 921.67 874.362 C 919.767 873.769 920.458 874.386 919.426 872.646 C 921.25 869.424 930.041 864.938 933.632 862.85 z" fill="rgb(242,252,253)" transform="translate(0,0)"></path>
<path d="M 1453.24 197.518 L 1453.1 135.202 C 1453.1 126.512 1452.83 116.061 1453.66 107.328 C 1453.89 104.812 1455.79 103.95 1457.57 102.785 C 1461.79 102.53 1460.18 102.131 1463.72 104.145 C 1465.84 107.649 1465.12 168.544 1465.24 179.418 L 1465.24 341.556 C 1495 341.39 1527.76 340.67 1557.31 341.748 C 1563.16 350.645 1595.51 400.14 1596.6 407.427 C 1590.81 413.755 1565.09 411.028 1555.83 411.032 L 1480.92 411.154 C 1461.82 411.171 1326.92 412.607 1321.23 409.963 L 1319.22 407.104 C 1320.42 400.254 1355.58 346.887 1360.93 341.961 L 1453.17 341.51 L 1453.24 197.518 z" fill="rgb(15,34,55)" transform="translate(0,0)"></path>
<path d="M 1367.17 352.904 C 1428.1 352.516 1489.02 352.499 1549.95 352.853 C 1557.75 362.789 1572.96 388.576 1579.67 400.088 L 1549.5 400.114 L 1336.39 400.03 C 1346.46 384.199 1356.72 368.49 1367.17 352.904 z" fill="rgb(242,246,251)" transform="translate(0,0)"></path>
<path d="M 1015.31 112.403 C 1016.32 108.934 1016.31 107.62 1018.93 105.435 C 1022.73 104.589 1021.17 104.465 1024.93 105.586 C 1028.44 109.212 1028.3 112.95 1028.23 117.839 L 1028.11 131.421 L 1028.11 341.207 C 1056.88 341.141 1085.65 341.336 1114.42 341.792 C 1120.98 350.047 1158.27 402.275 1154.72 409.338 C 1147.95 412.481 1102.36 411.066 1092.06 411.076 L 969.592 411.2 C 945.533 411.218 914.552 411.609 889.93 410.761 C 887.594 410.68 886.236 408.257 885.23 406.609 C 885.971 399.219 919.174 350.385 925.645 341.962 L 1015.92 341.607 L 1015.6 181.814 C 1015.54 165.534 1016.88 126.606 1015.31 112.403 z" fill="rgb(15,34,55)" transform="translate(0,0)"></path>
<path d="M 932.806 352.996 C 991.378 352.557 1049.95 352.522 1108.52 352.891 C 1115.86 366.449 1130.52 386.612 1139.6 399.788 L 1109.83 399.864 L 901.913 399.862 C 910.013 385.632 923.194 366.215 932.806 352.996 z" fill="rgb(242,246,251)" transform="translate(0,0)"></path>
<metadata><recraft-signature>{"signed_by": "recraft", "signature_b64": "uwuhGhiMzUZt3/l1rIE3JuF+C1jQ46sspQc029b4Fv023pXsatxwrlPdZhdKfJA+JlgzfpiLJQkujaMztp3uBA==", "signing_algo": "Ed25519", "generation_timestamp": 1776431433, "identifier": "457f39a8-59ca-4d75-b848-ebb70fdefb9a"}</recraft-signature></metadata></svg>