<svg xmlns="http://www.w3.org/2000/svg" height="1024" preserveAspectRatio="none" style="display: block;" version="1.1" viewBox="0 0 2048 1536" width="1365">
<path d="M 0 0 L 2048 0 L 2048 1536 L 0 1536 L 0 0 z" fill="rgb(251,246,244)" transform="translate(0,0)"></path>
<path d="M 547.63 294.432 L 1084.14 294.537 L 1252.35 294.48 C 1261.89 294.474 1271.62 294.134 1281.14 294.415 C 1314.22 295.392 1343 287.717 1369.09 313.41 C 1378.9 323.121 1385.28 335.772 1387.24 349.44 C 1388.79 359.855 1388.25 390.478 1388.29 402.235 L 1388.23 512.568 L 1388.44 900.44 C 1398.97 884.365 1407.79 864.274 1418.74 846.765 C 1428.05 841.585 1440.11 836.853 1450.37 831.241 C 1427.49 816.035 1434.51 801.88 1443.99 781.594 C 1442.26 772.287 1445.12 765.393 1444.33 760.077 C 1443.34 753.452 1432.31 748.437 1443.07 736.839 C 1445.32 734.414 1449.94 732.727 1453.45 733.234 C 1464.82 735.802 1475.13 736.35 1486.48 737.392 C 1503.88 738.988 1516.73 757.763 1515.12 774.338 C 1513.69 789.085 1509.01 796.031 1498.98 805.205 C 1499.07 809.299 1499.36 813.664 1499.56 817.778 C 1539.07 824.964 1542.94 845.802 1561.12 877.834 C 1568.28 890.471 1587.96 919.785 1585.5 932.007 C 1584.38 937.578 1555.72 968.166 1549.77 974.914 C 1550.17 988.986 1553.31 1012.36 1554.87 1027.21 L 1554.38 1028.12 C 1549.66 1036.8 1547.72 1038.12 1538.66 1040.75 C 1545.36 1107.59 1549.23 1175.04 1556.75 1241.87 C 1558.28 1255.54 1564.49 1247.72 1565.18 1259.94 C 1565.58 1267.02 1566.24 1272.13 1561.36 1277.88 C 1563.68 1290.75 1563.88 1306.03 1564.27 1319.13 C 1558 1320.46 1547.28 1323.18 1540.92 1322.65 C 1539.31 1322.52 1538.28 1320.14 1537.03 1318.34 C 1532.05 1318.08 1523.89 1324.4 1515.84 1325.28 C 1496.78 1327.35 1478.37 1327.21 1459.28 1326.65 C 1448.98 1310.27 1441.87 1323.99 1431.44 1323.73 C 1411.28 1323.21 1385.99 1326.61 1367.24 1319.68 C 1365.32 1318.98 1365.55 1316.67 1365.4 1315.02 C 1370.76 1300.78 1420.66 1296.14 1421.59 1281.81 C 1418.91 1278.87 1417.65 1278.07 1417.14 1274.25 C 1415.5 1261.35 1417.33 1261.11 1418.35 1249.53 C 1418.73 1245.28 1417.91 1231.83 1417.71 1226.99 L 1410.69 1036.81 C 1401.74 1031.42 1404.69 1029.02 1399.95 1023.03 C 1397.53 1019.99 1386.06 1024.81 1383.59 1013.62 C 1381.25 1002.99 1380.26 992.797 1378.89 982.031 C 1376.98 967.395 1374.91 952.778 1372.7 938.184 C 1367.27 934.188 1363.5 931.757 1357.69 928.304 C 1333.05 949.928 1307.22 945.927 1276.79 945.864 L 1201.33 945.785 L 936.262 945.97 C 920.386 965.224 895.771 954.727 883.754 962.024 C 855.874 978.951 838.312 990.35 805.849 999.556 C 804.518 1010.17 804.553 1026.05 804.328 1037.03 C 803.894 1063.13 803.759 1089.24 803.924 1115.34 C 803.934 1123.92 804.506 1148.43 803.048 1155.4 C 800.994 1158.04 798.286 1158.24 794.885 1159.14 C 794.796 1193.51 791.797 1229.09 794.873 1263.13 C 796.766 1284.09 842.658 1286.54 840.487 1301.98 C 831.817 1314.56 793.242 1310.27 778.946 1311.16 C 771.552 1311.62 762.966 1316.18 755.63 1316.69 C 735.733 1318.05 715.692 1316.63 695.963 1313.9 C 685.643 1312.34 664.274 1312.53 658.966 1302.74 C 658.611 1291.79 670.784 1290 679.27 1287.62 C 685.281 1256.81 679.094 1196.42 676.646 1162.64 C 659.937 1153.74 673.472 1120.19 665.182 1110.1 C 661.616 1109.45 657.959 1108.96 655.384 1106.15 C 639.713 1089.1 649.351 973.477 651.181 947.104 L 577.005 947.184 C 546.626 947.199 515.743 951.339 495.469 922.85 C 480.089 901.237 483.904 878.224 484.018 852.837 L 483.957 789.977 L 483.894 569.912 L 483.9 423.093 C 483.865 399.378 483.428 373.348 484.364 349.696 C 484.751 339.91 492.812 323.397 499.825 316.06 C 514.593 300.609 526.935 295.587 547.63 294.432 z" fill="rgb(11,19,49)" transform="translate(0,0)"></path>
<path d="M 541.874 308.276 C 566.089 307.187 600.146 308.592 625.5 308.589 L 819.341 308.697 L 1317.61 308.423 C 1343.67 308.636 1370.14 322.678 1373.24 351.592 C 1375.42 371.859 1374.09 396.252 1374.06 416.914 L 1374.32 530.08 C 1374.28 649.188 1375.69 772.842 1373.87 891.687 C 1362.37 885.331 1345.69 874.948 1335.19 867.017 C 1331.95 864.566 1328.08 854.098 1321.69 850.253 C 1315.81 846.716 1295.19 832.746 1289.26 833.651 C 1287.68 836.736 1287.66 837.051 1285.01 839.128 C 1278.71 837.401 1280 838.222 1274 838.276 C 1271.43 828.794 1278.03 802.341 1270.42 793.48 C 1265.74 788.614 1257.13 786.899 1250.72 786.874 C 1221.32 786.761 1192 787.452 1162.61 787.109 C 1159.92 787.078 1159 787.806 1157.25 789.474 L 1157.66 792.231 C 1164.99 797.771 1249.89 789.501 1263.02 795.806 C 1273.29 806.242 1263.5 843.128 1265.52 853.513 C 1268.12 866.942 1309.65 883.243 1320.3 890.543 L 1321.53 891.399 C 1321.93 892.863 1320.91 896.712 1321.22 899.56 C 1324.51 905.872 1339.06 914.889 1345.38 919.293 C 1343.35 920.783 1341.29 922.221 1339.19 923.606 C 1331.58 928.541 1324.42 930.869 1315.42 931.322 C 1292.23 932.489 1268.04 931.991 1244.79 931.959 L 1117.23 931.897 L 990.914 931.949 C 970.33 931.955 929.037 933.042 910.67 929.261 C 912.989 926.042 913.696 926.126 913.048 922.261 C 903.894 911.956 877.789 926.444 868.979 932.152 C 849.201 932.437 828.465 932.044 808.612 931.969 C 799.631 906.081 791.512 889.733 770.183 871.141 C 826.276 829.874 758.667 751.961 706.265 779.637 C 699.025 783.46 694.04 796.252 688.57 802.52 C 680.67 811.57 666.985 817.295 664.782 830.373 C 661.55 853.852 673.699 868.655 695.844 873.298 C 668.294 888.9 661.446 902.683 652.788 931.985 L 576.251 932.313 C 563.488 932.371 546.991 933.103 534.743 931.519 C 518.679 929.53 500.572 911.87 499.001 895.625 C 497.185 876.858 497.9 855.11 497.918 836.064 L 497.96 715.11 L 497.879 478.548 L 497.828 400.192 C 497.823 385.534 497.815 371.096 498.202 356.432 C 498.874 330.94 516.835 312.138 541.874 308.276 z" fill="rgb(254,254,254)" transform="translate(0,0)"></path>
<path d="M 1014.56 751.448 C 1030.75 751.12 1100.08 749.046 1111.2 753.724 C 1113.48 754.681 1115.33 758.013 1116.12 760.221 C 1117.59 764.309 1118.12 797.626 1117.66 803.055 C 1117.42 805.962 1116.78 808.964 1115.38 811.544 C 1112.89 816.116 1108.94 817.637 1104.25 819.002 C 1087.4 818.781 1014.55 820.955 1005.45 815.197 C 1002.46 813.306 1001.3 809.6 1000.6 806.321 C 998.92 798.427 998.555 763.083 1002.81 757.182 C 1005.66 753.24 1010.09 752.289 1014.56 751.448 z" fill="rgb(11,19,49)" transform="translate(0,0)"></path>
<path d="M 1010.2 758.11 C 1023.43 757.692 1101.36 756.658 1109.16 760.427 C 1112.8 766.723 1110.62 777.649 1110.91 785.197 C 1111.22 793.355 1112.72 805.301 1107.39 811.88 C 1093.08 812.337 1016.12 814.903 1008.83 809.181 C 1005.3 802.5 1006.77 792.517 1006.71 784.968 C 1006.64 776.774 1004.53 764.488 1010.2 758.11 z" fill="rgb(252,209,136)" transform="translate(0,0)"></path>
<path d="M 1030.2 367.237 C 1060.07 366.443 1092 366.195 1122.17 368.426 C 1140.87 369.809 1131.67 413.575 1131.77 426.021 C 1131.8 429.795 1124.2 433.592 1120.87 434.994 C 1101.19 434.811 1081.51 434.813 1061.84 435 C 1050.99 435.066 1039.08 435.518 1028.32 434.461 C 1022.86 433.925 1020.34 429.45 1017.13 425.113 C 1016.56 413.896 1014.43 382.408 1019.81 372.755 C 1021.88 369.044 1026.32 368.026 1030.2 367.237 z" fill="rgb(11,19,49)" transform="translate(0,0)"></path>
<path d="M 1026.69 374.076 C 1040.41 373.354 1117.87 371.32 1125.06 376.904 C 1128.03 383.037 1126.6 392.968 1126.33 399.748 C 1125.99 408.187 1128.52 421.157 1122.78 427.818 C 1114.42 429.734 1034.26 429.633 1026.76 427 C 1024.16 424.619 1022.1 419.746 1022.61 416.498 C 1024.37 405.225 1019.19 382.601 1026.69 374.076 z" fill="rgb(254,254,254)" transform="translate(0,0)"></path>
<path d="M 860.9 518.051 L 917.358 517.9 C 949.925 517.885 969.53 511.062 964.195 553.687 C 962.609 566.351 969.283 576.958 954.431 584.904 C 926.743 585.706 897.761 584.512 870.021 584.391 C 850.623 584.013 849.686 571.398 851.027 555.593 C 852.352 539.97 845.52 527.806 860.9 518.051 z" fill="rgb(11,19,49)" transform="translate(0,0)"></path>
<path d="M 864.107 524.461 C 893.529 523.994 924.076 524.582 953.466 525.045 C 959.277 525.137 961.395 572.537 953.192 578.742 C 924.609 579.264 892.585 578.916 863.929 577.466 C 855.216 577.025 858.287 554.816 857.606 547.973 C 856.835 540.24 855.976 528.534 864.107 524.461 z" fill="rgb(252,209,136)" transform="translate(0,0)"></path>
<path d="M 1225.88 492.108 C 1230.07 491.908 1234.26 491.781 1238.45 491.726 L 1290.92 491.588 C 1307.47 491.576 1329.66 486.781 1329.15 509.11 C 1328.85 521.97 1329.08 535.151 1328.95 548.058 C 1325.16 552.734 1324.51 553.467 1319.54 556.81 C 1292.17 558.049 1262.39 556.167 1234.79 556.776 C 1216.52 557.179 1216.1 542.892 1217.26 528.444 C 1218.39 514.296 1212.19 501.709 1225.88 492.108 z" fill="rgb(11,19,49)" transform="translate(0,0)"></path>
<path d="M 1226.46 498.085 C 1240 498.011 1311.11 497.331 1320.28 500.109 C 1324.16 505.699 1323.57 542.807 1319.19 549.851 C 1308.68 550.922 1231.77 551.889 1226.75 548.361 C 1224.86 547.028 1224.15 543.032 1223.92 540.928 C 1223.3 535.499 1222.94 507.061 1223.91 502.639 C 1224.3 500.887 1225.35 499.45 1226.46 498.085 z" fill="rgb(233,207,198)" transform="translate(0,0)"></path>
<path d="M 584.43 637.321 C 614.253 637.383 645.377 635.565 674.874 638.011 C 688.035 639.103 684.875 670.04 684.966 678.531 C 685.086 689.58 685.964 697.653 673.654 701.945 L 619.23 702.656 C 563.484 703.339 572.12 700.157 573.404 646.935 C 576.804 641.413 578.45 639.695 584.43 637.321 z" fill="rgb(11,19,49)" transform="translate(0,0)"></path>
<path d="M 583.672 644.187 C 606.444 643.367 630.747 644.295 653.665 643.499 C 659.204 643.306 672.55 642.9 676.476 646.758 C 679.845 654.381 678.496 665.709 678.553 674.094 C 678.607 681.925 680.915 690.449 674.103 695.44 C 660.433 695.507 588.489 698.16 581.888 693.011 C 578.144 686.648 579.581 677.943 579.717 670.721 C 579.899 661.044 576.119 651.339 583.672 644.187 z" fill="rgb(242,164,147)" transform="translate(0,0)"></path>
<path d="M 1272.69 585.399 C 1274.51 586.311 1274.51 586.509 1276.1 587.863 C 1279.12 594.918 1277.8 653.839 1277.32 664.846 C 1260.15 666.383 1221.92 665.623 1203.85 665.647 L 1061.93 665.793 C 1062.04 675.417 1064.1 715.871 1059.5 721.133 C 1058.54 720.476 1057.35 719.415 1056.43 718.649 C 1053.63 711.3 1055.27 668.908 1055.84 659.042 L 1270.85 659.042 C 1271.02 646.679 1268.55 591.901 1272.69 585.399 z" fill="rgb(11,19,49)" transform="translate(0,0)"></path>
<path d="M 626.905 401.08 L 873.273 401.056 C 900.368 401.069 927.477 401.272 954.562 400.692 C 958.165 400.615 961.977 401.649 963.296 405.188 C 961.563 407.388 962.697 406.491 959.25 407.184 L 728.963 407.6 L 654.381 407.441 C 648.828 407.422 629.889 408.811 626.177 406.645 C 625.069 403.755 625.306 404.854 626.905 401.08 z" fill="rgb(11,19,49)" transform="translate(0,0)"></path>
<path d="M 626.57 548.302 C 682.257 547.366 738.297 549.019 794.014 548.368 C 796.456 548.339 797.714 549.208 799.098 550.927 L 798.739 553.234 C 794.432 556.605 747.413 555.148 738.5 555.124 L 630.749 555.241 C 630.793 566.688 632.817 605.402 628.254 612.132 L 626.663 612.047 C 625.596 610.574 624.456 608.917 624.406 606.205 C 624.072 588.163 623.384 568.665 624.669 550.731 C 625.459 549.722 626.092 548.913 626.57 548.302 z" fill="rgb(11,19,49)" transform="translate(0,0)"></path>
<path d="M 1122.35 491.477 C 1125.11 491.97 1125.36 491.769 1127.38 493.785 C 1128.77 497.526 1128.25 548.65 1126.58 553.149 C 1120.09 557.576 1025.86 555.591 1009.75 555.845 C 1005.95 556.081 1005.66 555.361 1004.28 552.284 L 1005.47 550.39 C 1013.29 547.003 1106.75 548.519 1121.28 548.418 C 1121.46 537.501 1119.61 498.707 1122.35 491.477 z" fill="rgb(11,19,49)" transform="translate(0,0)"></path>
<path d="M 753.739 871.168 C 789.208 882.818 810.686 935.88 806.204 970.557 C 805.376 981.402 799.867 993.81 799.405 1004.43 C 798.506 1025.08 798.531 1046.41 798.121 1067.06 C 759.847 1067.04 730.098 1070.04 690.18 1067.99 C 690.183 1068.01 689.895 1065.95 689.892 1065.98 C 690.801 1061.51 683.776 1054.65 684.107 1051.45 C 686.64 1026.96 688.393 1002.31 690.162 977.754 C 690.715 970.456 692.092 955.384 691.908 947.654 C 691.315 946.885 690.722 946.117 690.129 945.348 L 688.829 945.334 C 684.33 950.719 680.793 1032.39 678.766 1045.64 C 671.419 1046.16 660.564 1046 652.977 1046.09 C 652.217 1014.32 653.813 935.155 667.864 908.342 C 677.702 889.569 694.963 878.688 714.692 872.356 C 724.57 886.584 746.218 891.494 753.739 871.168 z" fill="rgb(254,254,254)" transform="translate(0,0)"></path>
<path d="M 1416.96 1036.1 C 1455.69 1038.07 1494.42 1039.81 1533.17 1041.33 C 1538.09 1094.51 1540.75 1148.08 1546.88 1201.22 C 1548.76 1217.49 1550.45 1234.96 1551.3 1251.26 C 1538.35 1252.36 1524.39 1253.3 1511.6 1255.15 C 1502.02 1208.54 1491.12 1161.78 1480.99 1115.22 C 1478.71 1104.84 1469.31 1063.01 1463.94 1056.42 L 1462.55 1056.53 C 1461.47 1062.14 1464.71 1084.41 1465.19 1092.49 C 1468.44 1146.31 1469.66 1200.25 1471.87 1254.13 L 1425.25 1254.26 C 1423.41 1182.37 1418.12 1108.14 1416.96 1036.1 z" fill="rgb(176,215,234)" transform="translate(0,0)"></path>
<path d="M 1505.35 824.739 C 1513.1 827.879 1521.69 830.673 1528.29 835.925 C 1534.39 840.78 1579.21 919.761 1579.64 927.599 C 1580.16 937.071 1524.23 991.162 1514.66 1000.98 C 1508.3 996.238 1501.34 989.462 1495.41 984.003 C 1510.1 966.855 1526.18 949.49 1541.23 932.467 C 1542.87 930.802 1544.4 928.431 1545.77 926.49 C 1539.97 917.494 1529.58 893.769 1523.62 887.82 L 1522.11 887.963 L 1520.45 890.334 C 1520.51 893.159 1535.48 921.138 1537.87 927.325 C 1521.86 942.87 1501.93 969.347 1487.36 982.02 C 1485.7 968.377 1484.16 954.718 1482.75 941.045 C 1479.09 935.531 1476.96 934.097 1471.48 931.021 C 1472.47 908.038 1471.62 882.903 1470.85 859.96 C 1474.82 856.915 1475.21 856.788 1479.5 854.697 C 1490.28 849.438 1498.65 834.612 1505.35 824.739 z" fill="rgb(254,254,254)" transform="translate(0,0)"></path>
<path d="M 675.396 1073.09 C 705.124 1077.04 766.627 1074.11 797.83 1073.22 C 798.035 1098.61 798.544 1127.06 797.394 1152.24 L 789.738 1154.1 C 749.222 1161.85 716.403 1166.72 675.954 1155.48 C 673.876 1138.34 673.217 1120.13 671.943 1102.85 C 671.178 1092.48 673.902 1083.19 675.396 1073.09 z" fill="rgb(242,164,147)" transform="translate(0,0)"></path>
<path d="M 1381.04 936.172 C 1395.21 935.724 1465.05 933.571 1473.04 939.873 C 1479.58 945.032 1480.71 988.507 1481.45 997.883 C 1474.16 997.922 1469.08 997.913 1461.8 998.822 C 1454.04 1002.07 1451.77 1008.32 1447.52 1015.68 L 1390.04 1015.69 C 1387.88 1005.77 1378.38 943.204 1381.04 936.172 z" fill="rgb(254,254,254)" transform="translate(0,0)"></path>
<path d="M 1420.48 967.235 C 1425.94 967.005 1439.9 965.755 1445.01 967.941 C 1446.22 968.46 1446.04 970.055 1446.3 971.782 C 1440.48 972.016 1427.05 973.265 1421.72 971.009 C 1420.67 970.566 1420.72 968.685 1420.48 967.235 z" fill="rgb(11,19,49)" transform="translate(0,0)"></path>
<path d="M 1445.02 841.146 L 1445.79 842.097 C 1445.87 846.542 1445.78 847.853 1447.13 852.179 L 1449.01 853.131 C 1453.45 852.192 1456.22 849.636 1459.95 846.931 C 1449.41 872.916 1447.82 902.49 1441.65 930.032 L 1422.34 929.981 C 1431.45 901.57 1443.49 877.191 1441.92 847.66 C 1437.34 860.645 1420.71 920.547 1414.66 929.618 L 1412.25 930.077 C 1401.84 929.834 1389.56 930.681 1380.51 931.411 C 1369.19 932.325 1335.24 905.389 1327.43 897.543 C 1332.89 891.325 1335.79 885.495 1339.6 878.314 C 1355.22 886.79 1375.15 899.763 1390.57 909.215 C 1402.23 890.012 1412.1 869.439 1423.6 851.129 C 1430.94 847.968 1437.84 844.618 1445.02 841.146 z" fill="rgb(254,254,254)" transform="translate(0,0)"></path>
<path d="M 682.756 1163.39 C 698.44 1166.61 708.734 1167.3 724.798 1167.93 C 721.676 1188.07 714.419 1250.04 719.16 1267.98 C 722.578 1280.91 731.508 1286.42 742.369 1292.86 C 737.157 1302.82 696.213 1295.62 685.758 1294.2 C 686.526 1283.46 688.272 1273.16 688.188 1262.1 C 687.942 1229.48 685.005 1195.98 682.756 1163.39 z" fill="rgb(200,133,96)" transform="translate(0,0)"></path>
<path d="M 785.601 1161.24 C 787.056 1160.93 786.512 1161.1 788.25 1161.64 C 789.979 1168.84 786.998 1182.86 787.725 1190.88 C 790.299 1219.24 776.819 1262.2 801.613 1282.6 C 805.085 1285.46 808.049 1286.64 811.424 1289.9 L 810.666 1291.17 C 802.564 1296.32 788.324 1295.31 778.779 1294.9 C 770.678 1293.73 763.338 1292.08 755.358 1290.34 C 762.138 1260.9 755.977 1198.33 752.68 1166.21 C 764.489 1164.8 773.954 1163.51 785.601 1161.24 z" fill="rgb(200,133,96)" transform="translate(0,0)"></path>
<path d="M 1472.8 1111.53 C 1478.31 1123.05 1503.95 1242.44 1504.74 1254.89 L 1502.14 1257.47 C 1501.45 1261.04 1503.07 1273.43 1503.45 1277.83 L 1510.38 1284.6 C 1505.5 1287.6 1498.56 1290.85 1493.31 1293.49 L 1472.19 1304.22 C 1472.18 1297.33 1471.71 1287.18 1473.66 1280.86 C 1477.15 1278.02 1480.57 1275.67 1480.19 1270.48 C 1476.29 1218.19 1473.58 1163.88 1472.8 1111.53 z" fill="rgb(254,254,254)" transform="translate(0,0)"></path>
<path d="M 716.005 864.767 C 708.07 870.888 694.299 869.006 685.917 864.472 C 678.629 860.474 673.233 853.739 670.921 845.755 C 664.703 823.986 680.373 819.814 691.623 808.875 C 701.191 799.571 700.919 784.912 718.29 780.934 C 733.485 777.455 744.358 780.705 757.414 787.959 C 752.973 794.253 742.543 792.824 734.921 793.168 C 724.616 800.249 719.02 813.442 708.916 824.512 C 700.667 829.068 701.8 831.522 703.044 840.241 C 708.349 844.452 708.633 844.906 714.925 847.322 L 714.823 850.918 L 715.847 858.495 L 716.005 864.767 z" fill="rgb(233,207,198)" transform="translate(0,0)"></path>
<path d="M 714.823 850.918 C 708.288 850.99 701.239 847.849 703.044 840.241 C 708.349 844.452 708.633 844.906 714.925 847.322 L 714.823 850.918 z" fill="rgb(254,254,254)" transform="translate(0,0)"></path>
<path d="M 733.303 1167.58 L 746.709 1166.87 C 748.013 1182.51 757.039 1282.58 748.037 1287.75 L 744.537 1286.28 C 713.537 1269.44 725.628 1245.12 726.419 1214.95 C 726.577 1208.91 729.731 1171.09 731.058 1168.19 L 733.303 1167.58 z" fill="rgb(254,254,254)" transform="translate(0,0)"></path>
<path d="M 714.925 847.322 C 719.471 845.102 718.24 846.372 720.687 842.69 C 720.832 837.257 718.328 836.399 718.806 832.446 C 725.312 832.56 728.11 830.296 730.519 823.775 C 735.496 810.3 740.898 795.571 757.498 809.039 C 767.345 817.028 770.243 859.279 750.13 858.081 C 745.568 857.998 739.18 850.933 733.936 852.409 C 732.477 860.229 745.262 859.288 748.314 870 C 744.924 884.656 721.071 876.831 720.395 868.431 C 721.946 862.131 721.727 853.969 718.819 848.001 L 717.385 847.972 C 715.127 851.814 715.678 853.986 715.847 858.495 L 714.823 850.918 L 714.925 847.322 z" fill="rgb(200,133,96)" transform="translate(0,0)"></path>
<path d="M 861.555 940.985 C 863.698 941.384 866.465 949.321 869.505 952.431 C 872.93 955.934 872.652 955.901 876.963 958.914 C 857.739 970.646 840.417 981.377 819.476 989.649 L 808.464 993.07 C 811.69 974.1 813.385 966.373 812.093 946.889 C 831.248 946.979 843.765 948.717 861.555 940.985 z" fill="rgb(254,254,254)" transform="translate(0,0)"></path>
<path d="M 1471.47 1030.72 C 1499.77 1027.34 1524.67 1000.66 1543.5 980.827 C 1544.88 993.574 1546.63 1006.05 1547.93 1019.12 C 1549.21 1032.14 1542.43 1034.09 1530.81 1035.2 C 1511.08 1035.25 1490.82 1033.27 1470.9 1032.5 L 1471.47 1030.72 z" fill="rgb(254,254,254)" transform="translate(0,0)"></path>
<path d="M 734.921 793.168 C 742.543 792.824 752.973 794.253 757.414 787.959 C 768.371 795.613 777.292 804.455 782.476 817.02 C 791.208 838.25 775.458 878.656 752.821 863.622 C 762.082 860.227 764.487 860.969 768.822 851.359 C 769.261 850.377 769.675 849.383 770.063 848.379 C 773.702 828.356 770.329 795.491 741.479 799.468 C 730.795 800.941 727.679 817.118 722.656 825.43 L 722.014 826.479 L 708.916 824.512 C 719.02 813.442 724.616 800.249 734.921 793.168 z" fill="rgb(251,246,244)" transform="translate(0,0)"></path>
<path d="M 770.063 848.379 C 778.003 840.689 777.743 821.335 782.476 817.02 C 791.208 838.25 775.458 878.656 752.821 863.622 C 762.082 860.227 764.487 860.969 768.822 851.359 C 769.261 850.377 769.675 849.383 770.063 848.379 z" fill="rgb(254,254,254)" transform="translate(0,0)"></path>
<path d="M 901.881 924.123 L 903.705 924.477 C 903.692 927.847 899.035 926.345 896.836 931.644 C 903.966 938.202 926.959 932.331 932.374 941.564 C 928.915 948.297 912.372 950.56 905.227 951.955 C 895.931 953.174 889.925 954.005 880.513 953.984 C 868.156 943.072 865.458 937.365 883.631 930.085 C 889.675 927.664 895.527 925.73 901.881 924.123 z" fill="rgb(200,133,96)" transform="translate(0,0)"></path>
<path d="M 1277.54 847.134 L 1302.7 855.977 C 1306.43 857.29 1307.71 858.154 1311.02 856.572 L 1311.84 852.904 C 1318.27 848.954 1330.11 870.437 1333.14 875.466 L 1326.7 887.709 C 1317.33 881.293 1270.64 861.237 1271.6 849.314 C 1274.14 850.652 1277.32 852.775 1280.03 852.648 C 1280.05 849.584 1279.75 850.236 1277.54 847.134 z" fill="rgb(208,129,114)" transform="translate(0,0)"></path>
<path d="M 1486.48 987.62 C 1494.82 990.013 1501.57 997.847 1507.85 1003.97 C 1496.9 1015.85 1486.29 1023.28 1470.1 1024.47 C 1465.69 1024.79 1457.44 1025.05 1453.9 1022.24 L 1454.13 1020.66 L 1455.8 1020.58 C 1460.29 1020.99 1464.07 1022.08 1467.44 1018.58 C 1465.46 1016.39 1459.94 1015.85 1456.48 1014.86 C 1459.35 1011.9 1466.5 1014.21 1470.82 1010.85 C 1469.74 1008.93 1463.65 1007.67 1460.23 1005.96 C 1465.53 1002.43 1484.91 1007.94 1488.45 998.902 C 1485.83 994.033 1485.72 993.098 1486.48 987.62 z" fill="rgb(208,129,114)" transform="translate(0,0)"></path>
<path d="M 1461.48 854.639 C 1461.95 855.02 1463.97 856.725 1464.02 856.978 C 1466.43 869.67 1465.71 918.303 1464.72 929.326 C 1462.73 930.486 1455.52 930.012 1452.75 929.987 C 1449.54 929.899 1450.65 930.549 1448.86 928.837 C 1449.26 920.254 1458.92 863.134 1461.48 854.639 z" fill="rgb(252,209,136)" transform="translate(0,0)"></path>
<path d="M 1547.08 1257.5 C 1551.07 1257 1554.02 1256.25 1557.86 1257.31 C 1564.58 1264.46 1557.13 1272.69 1548.62 1273.55 C 1539.1 1274.5 1529.79 1275.04 1520.25 1275.6 L 1509.34 1275.73 L 1507.65 1261.16 C 1520.07 1260.42 1534.53 1258.69 1547.08 1257.5 z" fill="rgb(176,215,234)" transform="translate(0,0)"></path>
<path d="M 1422.9 1260 C 1439.7 1260.56 1457.16 1260.13 1474.01 1259.96 C 1474.12 1264.83 1474.37 1268.91 1473.59 1273.74 C 1461.63 1276.46 1436.11 1275.87 1423.61 1275.03 C 1423.08 1270.5 1423.05 1264.65 1422.9 1260 z" fill="rgb(176,215,234)" transform="translate(0,0)"></path>
<path d="M 655.349 1052.5 C 669.334 1052.28 681.512 1047.73 684.432 1066.12 C 683 1067.99 683.96 1067.3 681.132 1067.7 C 669.54 1059.21 669.837 1072.12 668.435 1081.32 C 663.171 1087.54 664.808 1082.35 658.882 1080.98 C 657.578 1084.54 657.781 1093.72 657.699 1098.01 C 655.687 1090.7 648.435 1057.11 655.349 1052.5 z" fill="rgb(200,133,96)" transform="translate(0,0)"></path>
<path d="M 1485.31 786.672 C 1489.42 786.677 1492.1 786.374 1494.3 790.153 C 1494.18 794.578 1490.13 798.482 1487.14 802.19 L 1487.56 803.685 L 1492.71 806.386 C 1493.96 809.525 1493.17 815.261 1492.96 818.915 C 1486.56 824.999 1482.15 828.014 1474.98 832.832 C 1472.19 834.741 1470.22 836.522 1466.94 836.997 L 1464.83 834.847 C 1462.22 823.239 1477.42 823.395 1483.92 806.828 L 1484.39 805.611 C 1481.94 797.425 1479.54 793.81 1485.31 786.672 z" fill="rgb(208,129,114)" transform="translate(0,0)"></path>
<path d="M 1453.28 762.851 C 1468.76 763.261 1479.5 780.012 1466.49 793.726 C 1460.98 792.093 1449.86 791.463 1448.55 790.269 C 1449.13 783.351 1449.63 777.006 1449.67 770.036 C 1449.69 765.537 1450.66 765.249 1453.28 762.851 z" fill="rgb(208,129,114)" transform="translate(0,0)"></path>
<path d="M 1444.85 1021.22 C 1452.57 1031.92 1459.35 1030.24 1471.47 1030.72 L 1470.9 1032.5 C 1459.97 1031.62 1407.65 1034.73 1407.47 1023.31 C 1411.35 1020.53 1438.21 1021.26 1444.85 1021.22 z" fill="rgb(251,246,244)" transform="translate(0,0)"></path>
<path d="M 1551.73 1279.4 C 1554.09 1278.79 1552.96 1278.77 1555.28 1279.42 L 1555 1281.4 C 1547.66 1293.09 1534.64 1293.2 1522.79 1289.97 C 1519.34 1287.86 1516.38 1285.08 1513.31 1282.42 C 1527.95 1282.13 1537.28 1281.47 1551.73 1279.4 z" fill="rgb(208,129,114)" transform="translate(0,0)"></path>
<path d="M 1428.5 1281.13 C 1440.74 1282.07 1452.79 1281.38 1465.07 1281.15 L 1465.25 1282.11 L 1462.23 1285.03 C 1453.27 1289.98 1431.18 1294.05 1428.5 1281.13 z" fill="rgb(208,129,114)" transform="translate(0,0)"></path>
<path d="M 1496.76 824.068 L 1497 824.238 C 1497.16 827.671 1482.79 847.044 1478.63 847.477 C 1476.82 845.435 1476.27 845.016 1475.19 842.422 C 1476.67 837.686 1490.65 829.589 1496.76 824.068 z" fill="rgb(254,254,254)" transform="translate(0,0)"></path>
<path d="M 1465.71 844.264 C 1469.19 845.269 1470.17 846.121 1472.04 849.027 C 1472.26 853.161 1472.65 851.484 1469.93 855.43 C 1466.53 853.813 1465.98 853.611 1463.96 850.48 C 1463.55 846.443 1463.27 848.066 1465.71 844.264 z" fill="rgb(233,207,198)" transform="translate(0,0)"></path>
<path d="M 1290.63 839.765 C 1296.68 841.463 1302.49 845.499 1306.67 850.166 C 1301.63 849.931 1293.93 843.505 1290.63 839.765 z" fill="rgb(233,207,198)" transform="translate(0,0)"></path>
<path d="M 663.338 1086.51 L 665.022 1087.65 C 666.12 1091.03 665.205 1095.73 664.817 1099.46 L 663.591 1099.48 C 662.516 1095.33 663.103 1090.87 663.338 1086.51 z" fill="rgb(148,113,98)" transform="translate(0,0)"></path>
<path d="M 562.455 149.525 C 579.67 148.345 605.84 149.024 623.832 149.009 C 667.035 148.708 710.24 149.214 753.425 150.529 L 822.012 152.015 C 832.895 152.244 860.253 151.297 870.215 155.834 C 876.934 158.894 878.675 175.283 871.649 180.253 C 866.586 183.835 860.913 185.492 854.299 185.287 C 835.449 185.18 816.534 184.357 797.708 183.751 C 756.957 182.201 716.192 181.031 675.419 180.24 C 578.798 179.892 482.179 181.225 385.605 184.239 C 370.655 185.314 351.081 185.202 335.534 185.759 C 290.837 187.45 246.124 188.683 201.402 189.458 C 180.092 189.883 158.786 190.453 137.484 191.167 C 125.734 191.581 88.6221 195.058 80.1354 188.17 C 76.7212 185.431 74.6399 181.364 74.4156 176.992 C 73.7401 164.854 83.0695 159.676 93.7826 159.367 C 107.927 158.958 122.031 159.346 136.178 159.012 C 170.2 157.902 204.229 157.018 238.263 156.359 C 346.3 152.953 454.37 150.675 562.455 149.525 z" fill="rgb(254,254,254)" transform="translate(0,0)"></path>
<path d="M 464.764 1006.26 C 470.14 1007.87 475.022 1019.18 477.559 1024.31 C 491.376 1052.24 508.501 1083.45 511.189 1114.92 C 512.865 1134.55 495.215 1152.2 483.125 1165.67 C 482.771 1182.83 481.142 1200.41 479.794 1217.56 C 485.997 1208.01 491.007 1200.65 497.91 1191.62 C 496.464 1189.54 493.982 1185.75 493.38 1183.41 C 490.268 1171.33 535.441 1110.06 544.215 1115.34 C 548.843 1124.67 542.005 1160.97 539.432 1171.97 C 534.035 1195.05 522.151 1197.85 501.26 1195.79 L 485.846 1220.11 C 493.163 1220.03 512.103 1218.58 517.152 1222.43 C 518.219 1230.88 503.157 1305.32 500.234 1319.81 C 482.832 1321.04 451.74 1320.1 433.542 1319.67 C 430.376 1309.7 427.995 1294.49 426.064 1283.77 C 423.557 1272.86 413.407 1230.6 414.577 1222.17 C 419.255 1218.51 449.536 1219.78 456.892 1219.79 L 440.413 1178.42 C 418.636 1176.23 399.34 1175.56 391.519 1151.46 C 382.244 1122.89 374.478 1093.88 364.485 1065.55 C 364.777 1064.91 365.068 1064.26 365.36 1063.62 C 369.61 1063.09 376.532 1067.37 380.376 1069.76 C 399.898 1081.87 429.628 1089.15 440.019 1111.19 C 446.168 1120.55 435.619 1139.19 438.774 1146.99 C 448.356 1170.67 460.167 1193.02 466.336 1218.26 C 467.285 1215.19 461.045 1161.68 459.804 1155.56 C 448.458 1144.53 443.365 1136.91 444.775 1120.49 C 446.673 1098.39 451.382 1075.87 455.424 1054.04 C 457.779 1041.32 460.571 1017.92 464.764 1006.26 z" fill="rgb(11,19,49)" transform="translate(0,0)"></path>
<path d="M 419.834 1225.91 L 511.418 1225.85 C 507.848 1250.34 502.49 1276.58 498.254 1301.25 L 495.622 1314.2 L 438.138 1314.5 C 437.284 1310.89 436.724 1307.2 436.032 1303.55 C 431.11 1277.57 425.028 1251.84 419.834 1225.91 z" fill="rgb(254,254,254)" transform="translate(0,0)"></path>
<path d="M 467.448 1019.74 C 469.26 1021.6 474.621 1031.61 475.957 1034.43 C 487.324 1058.44 503.677 1087.96 505.018 1114.86 C 505.981 1134.17 496.162 1143.04 483.987 1155.85 C 481.051 1133.42 479.831 1106.32 477.64 1083.31 C 474.881 1082.05 476.204 1082.08 473.57 1082.84 C 470.665 1087.97 477.329 1148.78 478.3 1159.46 C 464.329 1152.09 449.88 1143.52 450.976 1125.17 C 453.067 1090.18 461.206 1054.39 467.448 1019.74 z" fill="rgb(233,207,198)" transform="translate(0,0)"></path>
<path d="M 373.168 1072.53 C 384.246 1077.2 423.35 1097.01 430.062 1106.78 C 437.562 1117.7 435.835 1125.61 434.07 1137.34 C 429.944 1130.92 411.532 1102.73 404.663 1103.26 L 403.944 1105.39 C 405.001 1109.02 415.01 1121.06 418.153 1125.1 C 430.634 1142.26 436.293 1151.45 437.226 1172.44 C 394.713 1166.42 399.058 1157.37 387.952 1119.01 C 383.562 1103.35 378.631 1087.85 373.168 1072.53 z" fill="rgb(233,207,198)" transform="translate(0,0)"></path>
<path d="M 539.627 1122.76 C 541.467 1137.21 535.842 1175.51 525.732 1186.7 C 521.495 1191.39 511.002 1190.24 505.26 1189.9 C 510.561 1178.96 530.775 1149.79 532.294 1144.68 L 528.972 1144.21 C 523.837 1146.53 505.311 1179.5 501.19 1183.49 C 493.496 1172.55 530.938 1131.1 539.627 1122.76 z" fill="rgb(233,207,198)" transform="translate(0,0)"></path>
<path d="M 466.559 1159.94 C 470.482 1161.94 474.003 1163.09 478.12 1164.57 C 477.903 1178.6 475.474 1199.22 474.355 1213.75 L 474.026 1215.55 L 473.455 1215.76 C 471.08 1207.03 467.395 1170.12 466.559 1159.94 z" fill="rgb(254,254,254)" transform="translate(0,0)"></path>
<path d="M 446.175 1177.49 C 450.001 1180.48 454.41 1196.01 456.205 1201.33 C 452.131 1198.1 447.959 1183.07 446.175 1177.49 z" fill="rgb(93,138,165)" transform="translate(0,0)"></path>
<path d="M 848.779 1088.38 C 861.494 1087.53 880.905 1088.1 894.194 1088.13 L 980.337 1088.32 L 1141.97 1088.49 C 1164.28 1088.48 1186.58 1087.87 1208.89 1088.14 C 1224.03 1098 1223.9 1111.89 1207.92 1120.63 C 1195.53 1121.65 1174.93 1121.08 1161.72 1121.08 L 1072.5 1120.91 L 915.182 1120.84 C 895.641 1120.78 876.494 1120.83 856.523 1120.99 C 842.893 1121.1 832.465 1113.57 837.251 1098.04 C 838.812 1092.98 843.997 1090.21 848.779 1088.38 z" fill="rgb(254,254,254)" transform="translate(0,0)"></path>
<path d="M 1651.16 406.5 C 1678.81 406.145 1706.47 405.946 1734.13 405.903 C 1748.44 405.88 1762.46 405.829 1776.75 406.476 C 1796.78 407.383 1796.55 434.771 1779.81 435.956 C 1759.54 437.391 1738.27 436.871 1717.84 436.946 L 1613.25 437.984 C 1583.21 438.685 1553.16 439.066 1523.11 439.127 C 1510.23 439.155 1497.11 439.447 1484.3 438.776 C 1476.77 438.093 1470.91 433.354 1471.04 425.729 C 1471.27 413.024 1475.74 408.952 1487.75 408.49 C 1505.14 407.823 1523.19 408.113 1540.51 407.915 L 1651.16 406.5 z" fill="rgb(254,254,254)" transform="translate(0,0)"></path>
<path d="M 1551.39 200.42 C 1569.56 199.217 1589.79 200.3 1608.24 200.131 C 1678.13 199.61 1747.91 202.995 1817.8 201.54 C 1827.17 201.344 1853.42 198.566 1857.96 209.12 C 1862.26 219.107 1856.37 226.618 1847.52 231.243 C 1836.07 232.378 1820.74 232.062 1809.01 232.099 L 1739.37 231.971 L 1644.61 230.993 C 1629.48 230.952 1556.36 232.36 1547.23 228.312 C 1544.11 226.9 1541.67 224.312 1540.46 221.112 C 1536.77 211.493 1542.11 203.489 1551.39 200.42 z" fill="rgb(254,254,254)" transform="translate(0,0)"></path>
<path d="M 404.164 498.403 C 435.492 498.219 429.25 527.086 414.326 528.709 C 397.782 530.508 371.582 531.146 354.439 531.712 C 287.39 533.875 220.287 533.715 153.249 531.234 C 142.793 531.161 129.376 531.595 127.536 517.752 C 126.993 513.433 128.27 509.083 131.061 505.743 C 133.463 502.865 136.955 500.946 140.671 500.861 C 165.697 500.288 191.537 501.375 216.54 501.398 C 244.71 501.423 272.681 501.321 300.776 501.255 C 334.727 501.176 370.372 501.143 404.164 498.403 z" fill="rgb(254,254,254)" transform="translate(0,0)"></path>
<path d="M 135.079 852.407 C 158.414 852.57 336.813 856.904 343.185 859.988 C 346.654 861.668 349.157 864.533 350.372 868.189 C 351.781 872.431 351.853 878.528 349.519 882.484 C 346.993 886.764 341.814 887.765 337.354 888.774 C 272.333 889.928 204.888 881.957 139.659 881.947 C 116.375 881.944 114.292 856.312 135.079 852.407 z" fill="rgb(254,254,254)" transform="translate(0,0)"></path>
<path d="M 1689.67 823.209 C 1700.63 822.57 1714.26 823.861 1725.49 824.547 C 1747.22 825.874 1768.93 827.427 1790.63 829.204 C 1818.46 831.388 1846.28 833.347 1874.13 835.178 C 1893.08 836.425 1897.7 856.018 1881.51 865.839 C 1873.43 866.738 1851.86 864.781 1842.95 864.209 C 1812.3 862.239 1781.67 859.998 1751.06 857.485 C 1732.23 856.098 1712.44 856.065 1693.92 853.42 C 1689.48 852.786 1684.49 849.069 1682.21 845.099 C 1680.2 841.556 1679.71 837.352 1680.84 833.441 C 1682.36 828.041 1685.13 825.948 1689.67 823.209 z" fill="rgb(254,254,254)" transform="translate(0,0)"></path>
<path d="M 1848.18 617.582 C 1861.67 616.879 1894.84 610.978 1893.87 632.205 C 1893.05 650.011 1871.59 647.562 1858.08 647.825 C 1815.51 648.653 1773.04 651.128 1730.5 652.916 C 1719.89 653.035 1697.92 656.212 1690.61 649.34 C 1681.3 640.593 1685.23 623.854 1700.41 622.76 C 1717.51 621.528 1733.91 621.11 1750.79 620.601 L 1848.18 617.582 z" fill="rgb(254,254,254)" transform="translate(0,0)"></path>
<path d="M 107.083 579.435 C 126.698 578.554 278.779 580.629 287.156 586.031 C 290.583 588.241 292.632 591.409 293.341 595.412 C 294.075 599.557 293.303 604.722 290.721 608.148 C 287.614 612.27 282.815 612.843 278.09 613.589 C 230.571 614.869 180.581 609.611 132.852 610.806 C 125.677 610.985 105.449 610.93 99.9171 607.793 C 96.1443 605.657 93.4406 602.037 92.4639 597.813 C 89.863 586.549 97.0654 581.023 107.083 579.435 z" fill="rgb(254,254,254)" transform="translate(0,0)"></path>
<path d="M 1636.39 285.516 C 1670.49 284.904 1704.69 285.118 1738.8 284.766 C 1748.49 284.666 1770.22 282.762 1777.08 288.465 C 1780.46 291.3 1782.49 295.43 1782.66 299.838 C 1783.26 318.575 1754.03 314.506 1741.75 314.341 C 1699.66 314.829 1656.64 317.034 1614.52 315.136 C 1602.96 314.369 1596.89 298.939 1605.07 290.822 C 1611.93 284.022 1627.09 285.607 1636.39 285.516 z" fill="rgb(254,254,254)" transform="translate(0,0)"></path>
<path d="M 226.604 247.207 C 240.553 245.746 366.928 248.894 373.175 251.151 C 376.749 252.442 379.678 255.775 381.222 259.166 C 382.919 262.893 383.041 266.587 381.63 270.419 C 379.776 275.452 376.444 278.437 371.718 280.742 C 350.454 282.332 319.839 280.367 297.601 280.327 C 275.13 279.277 250.377 281.15 228.267 277.556 C 211.137 274.772 210.652 255.631 226.604 247.207 z" fill="rgb(254,254,254)" transform="translate(0,0)"></path>
<metadata><recraft-signature>{"signed_by": "recraft", "signature_b64": "ebQPMK371ULmCJpVU7PXVgOOLQXG6dcYOa94HFMXnYxTO4EBjDWLbIcrTE96mQEZwlh8u8kSne5iw9ZtQCltCw==", "signing_algo": "Ed25519", "generation_timestamp": 1776428636, "identifier": "479704d3-2d88-4a3f-9f9b-e35d49bfd7db"}</recraft-signature></metadata></svg>