<svg xmlns="http://www.w3.org/2000/svg" height="1024" preserveAspectRatio="none" style="display: block;" version="1.1" viewBox="0 0 2048 1536" width="1365">
<path d="M 0 0 L 2048 0 L 2048 1536 L 0 1536 L 0 0 z" fill="rgb(133,191,169)" transform="translate(0,0)"></path>
<path d="M 657.85 297.585 C 653.747 297.03 648.932 296.936 646.662 293.03 C 649.673 290.325 658.526 289.862 662.545 289.922 C 700.911 290.496 739.405 290.42 777.77 290.308 L 1126.19 290.381 L 1312.21 290.244 L 1370.95 290.129 C 1378.57 290.104 1397.17 288.444 1402.78 292.069 L 1402.95 293.968 C 1398.81 297.825 1396.87 297.1 1390.92 297.094 L 1391.06 745.973 C 1395.53 745.985 1398.36 745.207 1401.69 747.227 L 1402.14 749.36 C 1399.22 752.173 1352.94 750.784 1345.33 750.798 C 1345.05 781.463 1344.54 812.125 1343.8 842.782 C 1343.36 861.387 1343.04 878.23 1340.97 896.736 C 1338.44 919.274 1336.1 945.471 1309.76 953.196 L 1302.96 1184.41 C 1302.4 1202.7 1302.34 1218.8 1298.12 1236.7 C 1297.33 1240.04 1297.85 1249.81 1297.93 1253.68 L 1207.17 1253.78 C 1187.75 1253.77 1165.89 1254.27 1146.8 1252.95 C 1146.6 1245.51 1145.88 1240.33 1149.64 1233.75 C 1151.91 1229.82 1155.68 1227.52 1160.06 1226.74 C 1160.15 1203.76 1153.87 1153.99 1151.55 1129.43 C 1146.11 1067.21 1140.29 1005.03 1134.09 942.876 C 1132.02 921.102 1129.38 899.607 1128.75 877.721 C 1128.73 876.814 1127.78 875.509 1127.3 874.795 C 1125.08 873.585 1120.91 872.26 1120.94 871.04 C 1121.65 840.843 1128.13 796.758 1130.42 767.444 C 1120.2 761.607 1116.66 758.432 1108.53 749.839 C 1058.5 750.272 1007.72 749.445 957.853 750.249 C 947.309 766.174 940.582 779.465 922.785 787.203 C 923.997 804.861 928.597 862.939 926.638 879.048 C 922.735 881.543 920.658 883.203 920.108 888.011 C 919.019 897.526 919.806 907.919 919.824 917.5 L 919.709 976.634 C 919.512 1058.95 918.524 1144.27 919.787 1226.33 C 931.735 1229.94 950.279 1234.31 950.609 1249.92 C 950.054 1251.08 949.233 1253.42 947.916 1253.46 C 922.974 1254.19 873.716 1255.16 850.955 1253.47 C 847.818 1199.37 843.732 1145.71 838.105 1091.79 C 834.768 1059.81 831.637 1017.52 825.719 986.098 C 820.63 1049.42 816.112 1112.78 812.164 1176.17 C 810.668 1199.56 806.566 1231.91 806.963 1254 C 787.558 1254 767.21 1254.32 747.884 1253.95 L 741.532 1074.34 C 739.526 1015.34 737.871 950.437 733.897 891.743 C 724.131 888.655 718.243 886.162 709.399 880.856 C 715.925 842.735 730.562 787.444 743.12 749.872 C 718.873 749.61 694.654 749.522 670.407 749.613 C 665.144 749.633 651.678 750.415 647.774 747.537 L 647.658 745.691 C 654.059 744.168 658.606 743.444 658.439 735.305 C 658.085 717.922 658.164 700.549 658.189 683.162 L 658.203 553.339 C 658.127 469.236 659.464 381.22 657.85 297.585 z" fill="rgb(2,0,0)" transform="translate(0,0)"></path>
<path d="M 791.92 308.512 C 804.168 307.112 837.188 308.018 850.966 308.049 L 968.474 308.316 L 1076.49 308.33 C 1087.58 308.337 1118.3 307.657 1128.51 308.845 L 1133.37 309.081 L 1134.99 309.327 C 1135.59 330.756 1135.24 353.337 1135.21 374.859 L 1246.13 374.848 L 1245.21 376.837 C 1239.34 384.718 1185.95 444.774 1179.85 448.935 L 1177.72 451.107 C 1169.06 463.105 1147.22 485.48 1136.25 497.239 L 1133.9 499.259 C 1129.17 501.838 1033.92 478.522 1022.06 475.695 L 1019.91 476.165 C 994.987 480.005 969.98 483.305 944.912 486.064 C 936.015 487.114 916.635 489.859 908.092 490.117 L 905.837 490.032 C 904.326 489.982 902.392 490.266 901.308 491.323 C 887.866 504.439 878.116 518.359 863.917 531.139 C 862.068 528.23 859.773 525.193 857.739 522.374 C 857.614 517.368 857.465 512.234 856.455 507.318 C 854.132 495.854 847.264 485.821 837.417 479.509 C 824.262 471.104 810.367 471.224 795.727 474.613 L 792.007 475.664 C 767.419 488.677 760.673 499.016 764.1 527.751 L 763.944 528.982 L 764.337 529.878 C 770.464 543.806 773.325 547.198 785.355 556.527 C 785.32 560.19 785.718 565.49 784.645 568.977 C 783.269 573.45 773.139 575.845 770.27 583.506 C 767.559 590.746 721.651 603.214 713.927 619.582 C 701.468 645.983 728.05 706.489 738.083 732.838 L 676.044 732.814 L 675.8 308.976 C 692.22 307.951 710.721 308.32 727.26 308.315 C 748.813 308.2 770.368 308.266 791.92 308.512 z" fill="rgb(133,191,169)" transform="translate(0,0)"></path>
<path d="M 675.8 308.976 C 692.22 307.951 710.721 308.32 727.26 308.315 C 748.813 308.2 770.368 308.266 791.92 308.512 L 791.921 374.836 C 782.287 374.824 710.192 374.001 707.023 376.044 C 732.535 377.471 765.832 376.522 791.913 376.51 L 791.953 448.49 L 738.62 448.364 C 731.899 448.354 714.929 447.991 709.09 449.146 C 719.204 450.927 736.065 450.291 746.979 450.219 C 761.962 450.151 776.945 450.159 791.928 450.243 L 792.007 475.664 C 767.419 488.677 760.673 499.016 764.1 527.751 L 763.944 528.982 L 764.337 529.878 C 770.464 543.806 773.325 547.198 785.355 556.527 C 785.32 560.19 785.718 565.49 784.645 568.977 C 783.269 573.45 773.139 575.845 770.27 583.506 C 767.559 590.746 721.651 603.214 713.927 619.582 C 701.468 645.983 728.05 706.489 738.083 732.838 L 676.044 732.814 L 675.8 308.976 z" fill="rgb(254,250,252)" transform="translate(0,0)"></path>
<path d="M 764.1 527.751 L 763.944 528.982 L 709.421 529.089 C 712.701 526.991 755.952 528.166 764.1 527.751 z" fill="rgb(133,131,132)" transform="translate(0,0)"></path>
<path d="M 709.421 529.089 L 763.944 528.982 L 764.337 529.878 C 754.879 529.994 715.989 531.048 709.421 529.089 z" fill="rgb(202,201,203)" transform="translate(0,0)"></path>
<path d="M 1128.51 308.845 L 1133.37 309.081 C 1134.14 329.815 1132.78 353.02 1133.33 374.805 C 1096.22 375.006 1059.11 374.953 1022 374.645 L 1022.08 309.202 C 1053.55 309.219 1097.88 310.549 1128.51 308.845 z" fill="rgb(254,250,252)" transform="translate(0,0)"></path>
<path d="M 1135.51 376.844 C 1171.32 376.039 1209.37 376.508 1245.21 376.837 C 1239.34 384.718 1185.95 444.774 1179.85 448.935 C 1165.91 448.401 1149.75 448.776 1135.64 448.761 C 1135.91 425.413 1136.24 400.037 1135.51 376.844 z" fill="rgb(254,250,252)" transform="translate(0,0)"></path>
<path d="M 794.048 450.187 L 905.925 450.146 C 905.907 463.007 906.213 477.297 905.837 490.032 C 904.326 489.982 902.392 490.266 901.308 491.323 C 887.866 504.439 878.116 518.359 863.917 531.139 C 862.068 528.23 859.773 525.193 857.739 522.374 C 857.614 517.368 857.465 512.234 856.455 507.318 C 854.132 495.854 847.264 485.821 837.417 479.509 C 824.262 471.104 810.367 471.224 795.727 474.613 C 792.888 471.502 793.96 455.569 794.048 450.187 z" fill="rgb(254,250,252)" transform="translate(0,0)"></path>
<path d="M 1022.08 450.19 L 1061.98 450.186 C 1075.92 451.408 1119.58 451.811 1133.85 450.912 C 1133.86 466.821 1133.63 483.405 1133.9 499.259 C 1129.17 501.838 1033.92 478.522 1022.06 475.695 L 1022.08 450.19 z" fill="rgb(254,250,252)" transform="translate(0,0)"></path>
<path d="M 908.099 450.14 L 1019.95 450.224 L 1019.91 476.165 C 994.987 480.005 969.98 483.305 944.912 486.064 C 936.015 487.114 916.635 489.859 908.092 490.117 C 907.491 477.584 907.977 462.838 908.099 450.14 z" fill="rgb(254,250,252)" transform="translate(0,0)"></path>
<path d="M 1135.62 450.593 C 1144.12 449.634 1154.52 450.095 1163.02 450.952 C 1167.63 451.007 1173.19 451.228 1177.72 451.107 C 1169.06 463.105 1147.22 485.48 1136.25 497.239 C 1135.21 492.132 1135.71 458.465 1135.62 450.593 z" fill="rgb(254,250,252)" transform="translate(0,0)"></path>
<path d="M 1061.98 450.186 C 1072.01 450.043 1126.54 449.519 1133.85 450.912 C 1119.58 451.811 1075.92 451.408 1061.98 450.186 z" fill="rgb(202,201,203)" transform="translate(0,0)"></path>
<path d="M 794.113 376.762 C 809.747 375.23 837.354 376.298 854.043 376.141 C 866.182 376.028 895.389 375.42 906.492 376.583 L 906.49 448.49 L 793.963 448.49 L 794.113 376.762 z" fill="rgb(254,250,252)" transform="translate(0,0)"></path>
<path d="M 1022.05 376.51 L 1133.76 376.51 L 1133.8 448.739 C 1096.72 449.027 1059.18 448.508 1022.02 448.49 L 1022.05 376.51 z" fill="rgb(254,250,252)" transform="translate(0,0)"></path>
<path d="M 908.114 376.51 L 1019.97 376.51 C 1020.1 400.503 1020.09 424.497 1019.95 448.49 L 908.067 448.494 L 908.114 376.51 z" fill="rgb(254,250,252)" transform="translate(0,0)"></path>
<path d="M 794.099 309.074 L 905.832 309.127 C 905.854 330.951 906.063 352.775 906.457 374.595 C 868.993 374.87 831.527 374.947 794.061 374.824 L 794.099 309.074 z" fill="rgb(254,250,252)" transform="translate(0,0)"></path>
<path d="M 907.509 309.155 L 1020.06 309.182 C 1020.63 329.909 1020.05 353.178 1020 374.097 C 987.443 376.003 941.608 374.745 908.093 374.704 C 908.237 352.853 908.043 331 907.509 309.155 z" fill="rgb(254,250,252)" transform="translate(0,0)"></path>
<path d="M 775.727 587.392 C 813.276 585.531 848.526 586.987 884.562 598.113 C 892.796 600.654 902.019 603.249 908.944 608.538 C 927.149 622.442 952.46 723.731 955.305 747.704 C 947.359 760.43 934.987 783.927 917.476 782.17 C 895.011 779.916 887.322 746.774 881.561 729.301 C 877.198 716.263 873.007 703.168 868.988 690.019 C 866.884 683.122 864.018 671.423 859.747 666.178 L 858.28 666.253 C 858.019 668.021 874.149 717.575 876.262 723.496 C 885.988 750.747 887.633 777.744 918.839 786.272 C 920.995 799.465 922.028 826.555 922.886 840.75 C 923.484 853.284 923.891 865.827 924.107 878.373 C 880.013 888.228 798.555 895.263 754.122 890.654 C 753.94 877.385 753.893 864.115 753.982 850.845 C 754.149 839.416 755.974 836.995 753.837 825.16 L 752.977 824.575 C 748.133 845.954 746.28 866.398 740.436 889.729 C 728.734 887.183 723.302 885.387 713.07 879.362 C 717.092 858.679 738.544 762.6 748.004 750.016 C 737.51 725.529 704.586 646.506 718.249 618.978 C 722.071 611.279 765.169 589.146 775.727 587.392 z" fill="rgb(133,191,169)" transform="translate(0,0)"></path>
<path d="M 1201.17 584.265 C 1221.54 583.072 1255.32 584.755 1275.34 589.674 C 1285.98 593.782 1297.45 599.519 1307.63 604.284 C 1336.21 617.655 1342.69 619.832 1344.35 651.085 C 1337.53 662.462 1329.38 681.917 1324.1 694.367 C 1315.71 714.186 1307.44 734.056 1299.29 753.975 C 1301.1 766.913 1305.32 784.417 1307.76 797.976 C 1312.53 823.873 1316.04 849.987 1318.28 876.224 C 1265.06 895.776 1196.53 888.35 1142.42 875.138 C 1136.32 873.652 1129.91 871.539 1123.87 869.678 C 1124.75 834.577 1132.63 791.15 1134.76 755.375 C 1135.95 735.459 1136.94 715.319 1138.14 695.514 C 1138.47 690.073 1144.85 673.67 1146.32 664.48 L 1145.71 664.687 C 1143.19 670.774 1135.72 687.354 1135.22 693.263 C 1133.24 716.787 1133.87 740.065 1130.99 763.731 C 1114.15 754.026 1104.98 742.337 1097.74 724.379 C 1086.94 699.976 1097.75 676.272 1106.58 653.09 C 1110.73 642.174 1121.48 607.136 1131.3 601.266 C 1150.28 589.932 1178.07 593.089 1199.88 584.761 L 1201.17 584.265 z" fill="rgb(91,74,80)" transform="translate(0,0)"></path>
<path d="M 1131.72 874.897 C 1183.44 890.873 1256.68 896.705 1309.35 883.166 C 1307.28 897.684 1307.37 920.218 1306.97 935.496 C 1306.1 965.178 1305.38 994.863 1304.83 1024.55 C 1303.5 1091.05 1300.22 1158.28 1298.81 1225.03 C 1278.4 1224.7 1257.99 1224.66 1237.58 1224.9 C 1236.88 1193.45 1237.8 1161.01 1237.89 1129.45 L 1238.02 963.25 C 1237.93 952.278 1238 941.305 1238.23 930.334 C 1243.31 922.829 1252.44 910.04 1255.54 902.062 L 1254.72 903.286 L 1253.77 903.387 C 1246.5 912.128 1241.41 919.789 1235.04 929.272 L 1233.85 1224.97 L 1163.82 1224.75 C 1153.92 1137.79 1148.7 1049.6 1139.3 962.494 C 1136.14 933.207 1132.91 904.366 1131.72 874.897 z" fill="rgb(91,74,80)" transform="translate(0,0)"></path>
<path d="M 750.156 862.694 C 751.837 871.045 748.283 887.316 752.882 892.318 C 766.485 899.225 849.184 892.503 867.815 890.296 C 884.036 888.257 900.192 885.731 916.26 882.72 C 916.228 920.838 916.984 1224.42 914.854 1226.47 C 909.711 1231.42 863.533 1229.22 853.485 1229.71 C 851.118 1192.26 846.626 1147.69 843.059 1110.21 C 839.107 1068.68 835.492 1001.34 822.476 963.759 C 817.424 949.16 812.527 934.508 807.785 919.806 C 801.636 915.239 794.36 905.678 788.614 902.687 C 788.369 903.09 787.959 903.43 787.88 903.895 C 787.749 904.67 801.329 918.909 802.887 921.297 C 810.081 932.328 819.277 960.507 821.95 973.648 C 824.464 986.008 816.491 1058.02 815.244 1075.81 C 811.678 1126.69 810.803 1178.35 804.783 1228.97 C 787.235 1228.38 768.394 1228.78 750.752 1228.85 C 746.56 1150.82 744.972 1070.28 741.889 992.069 L 739.122 928.506 C 738.784 920.727 737.348 898.579 738.708 891.999 C 740.497 891.256 741.527 890.955 743.358 890.41 C 745.264 885.674 748.209 869.561 750.156 862.694 z" fill="rgb(91,74,80)" transform="translate(0,0)"></path>
<path d="M 1134.99 309.327 C 1148.99 307.6 1194.62 308.984 1211.05 308.95 C 1264.16 308.843 1318.96 307.988 1372.01 309.275 L 1371.74 679.063 L 1348.42 679.012 C 1348.51 662.2 1349.64 628.573 1336.79 617.303 C 1314.81 598.033 1286.4 602.41 1269.94 574.142 C 1267.45 572.979 1266.27 572.247 1263.5 571.868 L 1262.32 570.319 C 1273.7 568.653 1271.35 562.842 1278.45 557.192 C 1282.13 554.267 1283.48 558.685 1289.13 552.225 C 1290.53 547.914 1288.89 545.859 1288.68 542.807 C 1288.51 540.291 1294.48 534.726 1296.19 531.122 L 1294.46 528.575 L 1292.92 525.919 C 1294.27 523.675 1295.06 521.911 1296.16 519.53 C 1295.84 515.703 1293.88 514.69 1290.8 511.625 C 1290.42 507.848 1291.3 507.78 1293.41 504 C 1292.59 496.784 1283.42 500.958 1280.01 495.044 C 1280.86 492.987 1281.13 492.692 1281.24 490.431 C 1273.52 484.909 1256.16 485.331 1250.52 482.084 L 1247.96 481.853 C 1245.75 482.478 1236.63 486.969 1235.66 486.604 C 1220.33 480.773 1217.47 492.156 1212.31 508.708 L 1211.08 509.062 C 1198.96 512.598 1207.72 518.425 1204.85 525.738 L 1202.3 526.932 L 1136 526.904 C 1136.06 518.746 1136.43 508.928 1135.41 500.969 C 1150.63 484.592 1165.6 467.906 1180.93 451.633 L 1182.06 451.114 L 1183.39 448.816 C 1187.56 443.968 1246.29 378.566 1248.35 377.579 L 1251.23 377.23 L 1251.74 376.847 L 1251.82 376.007 L 1252.11 373.854 C 1253.27 371.715 1253.96 370.978 1253.63 368.581 C 1250.08 368.865 1248.16 372.113 1246.13 374.848 L 1135.21 374.859 C 1135.24 353.337 1135.59 330.756 1134.99 309.327 z" fill="rgb(254,250,252)" transform="translate(0,0)"></path>
<path d="M 1180.93 451.633 L 1182.06 451.114 C 1191.78 451.059 1242.99 450.237 1249.43 451.359 C 1248.96 459.004 1248.94 464.384 1249.1 472.025 C 1248.96 474.652 1248.99 479.702 1247.96 481.853 C 1245.75 482.478 1236.63 486.969 1235.66 486.604 C 1220.33 480.773 1217.47 492.156 1212.31 508.708 L 1211.08 509.062 C 1198.96 512.598 1207.72 518.425 1204.85 525.738 L 1202.3 526.932 L 1136 526.904 C 1136.06 518.746 1136.43 508.928 1135.41 500.969 C 1150.63 484.592 1165.6 467.906 1180.93 451.633 z" fill="rgb(254,250,252)" transform="translate(0,0)"></path>
<path d="M 1183.39 448.816 C 1187.56 443.968 1246.29 378.566 1248.35 377.579 L 1249.17 381.979 C 1248.57 397.749 1248.37 434.093 1249.41 449.798 C 1240.52 450.308 1190.33 450.641 1183.39 448.816 z" fill="rgb(254,250,252)" transform="translate(0,0)"></path>
<path d="M 1248.35 377.579 L 1251.23 377.23 C 1251.51 401.131 1251.58 425.034 1251.43 448.937 C 1265.48 449 1279.53 449.062 1293.58 449.034 C 1303.71 449.015 1313.1 448.223 1323.22 449.262 C 1302.48 451.387 1272.6 450.861 1251.4 451.027 C 1251.4 457.848 1251.77 476.373 1250.52 482.084 L 1247.96 481.853 C 1248.99 479.702 1248.96 474.652 1249.1 472.025 C 1248.94 464.384 1248.96 459.004 1249.43 451.359 C 1242.99 450.237 1191.78 451.059 1182.06 451.114 L 1183.39 448.816 C 1190.33 450.641 1240.52 450.308 1249.41 449.798 C 1248.37 434.093 1248.57 397.749 1249.17 381.979 L 1248.35 377.579 z" fill="rgb(133,131,132)" transform="translate(0,0)"></path>
<path d="M 1249.17 381.979 C 1249.75 393.039 1250.73 439.817 1249.41 449.798 C 1248.37 434.093 1248.57 397.749 1249.17 381.979 z" fill="rgb(133,191,169)" transform="translate(0,0)"></path>
<path d="M 1249.43 451.359 C 1249.86 456.475 1249.92 466.899 1249.1 472.025 C 1248.94 464.384 1248.96 459.004 1249.43 451.359 z" fill="rgb(133,191,169)" transform="translate(0,0)"></path>
<path d="M 1294.46 528.575 C 1304.21 528.395 1313.89 527.977 1323.58 528.957 L 1324.18 529.612 C 1314.3 530.473 1306.1 530.898 1296.19 531.122 L 1294.46 528.575 z" fill="rgb(133,191,169)" transform="translate(0,0)"></path>
<path d="M 1251.82 376.007 L 1252.11 373.854 C 1256.55 376.377 1300.76 374.747 1309.22 374.967 L 1308.98 376.152 C 1290.24 375.679 1270.66 376.081 1251.82 376.007 z" fill="rgb(133,131,132)" transform="translate(0,0)"></path>
<path d="M 1251.82 376.007 C 1270.66 376.081 1290.24 375.679 1308.98 376.152 C 1301.78 377.394 1260.78 377.509 1251.74 376.847 L 1251.82 376.007 z" fill="rgb(202,201,203)" transform="translate(0,0)"></path>
<path d="M 1019.91 478.57 L 1022.99 478.321 C 1047.16 483.489 1071.27 488.927 1095.32 494.634 C 1103.74 496.567 1125.91 502.193 1133.55 502.084 L 1135.41 500.969 C 1136.43 508.928 1136.06 518.746 1136 526.904 L 1202.3 526.932 L 1200.79 528.717 C 1199.79 542.134 1203.07 548.158 1210.36 559.742 C 1211.99 562.343 1215.44 562.436 1217.48 566.578 L 1217.43 566.53 C 1215.42 569.665 1209.15 571.983 1206.05 574.639 C 1203.02 577.228 1200.62 579.79 1197.87 582.627 L 1197.47 583.046 C 1177.39 588.592 1154.25 589.433 1136.87 594.727 L 1133.84 595.605 C 1132.65 596.524 1124.95 602.951 1124.81 603.04 L 1124.6 604.599 L 1123.04 606.065 C 1114.76 619.163 1100.43 661.007 1094.73 677.762 C 1070.51 678.02 1046.29 678.076 1022.07 677.929 L 1020.5 677.93 C 996.321 678.804 967.301 678.031 942.739 678.035 C 935.06 658.102 925.002 619.615 910.841 605.13 L 909.591 603.138 L 908.863 602.988 L 907.054 602.826 C 891.46 597.069 863.023 589.741 850.632 584.431 C 846.419 580.011 843.816 570.959 841.899 565.161 C 870.953 549.179 855.578 540.656 870.147 528.789 L 872.153 526.714 C 881.178 516.355 890.714 505.743 900.015 495.605 C 902.831 492.535 903.084 492.598 906.133 492.677 L 906.762 493.066 L 908.179 492.799 C 911.566 491.626 937.338 488.886 942.489 488.28 C 968.344 485.442 994.154 482.205 1019.91 478.57 z" fill="rgb(254,250,252)" transform="translate(0,0)"></path>
<path d="M 1022.04 529.132 L 1133.88 529.187 C 1134.06 551.326 1134.05 573.466 1133.84 595.605 C 1132.65 596.524 1124.95 602.951 1124.81 603.04 C 1093.01 601.524 1052.99 605.178 1022.02 601.783 L 1022.04 529.132 z" fill="rgb(254,250,252)" transform="translate(0,0)"></path>
<path d="M 910.841 605.13 C 917.92 604.133 925.048 604.516 932.182 604.406 C 961.322 603.957 990.931 605.408 1020.01 603.992 L 1020.5 677.93 C 996.321 678.804 967.301 678.031 942.739 678.035 C 935.06 658.102 925.002 619.615 910.841 605.13 z" fill="rgb(254,250,252)" transform="translate(0,0)"></path>
<path d="M 1026.93 604.259 C 1049.04 604.011 1071.16 603.93 1093.27 604.016 C 1098.63 604.018 1120.43 603.775 1124.6 604.599 L 1123.04 606.065 C 1114.76 619.163 1100.43 661.007 1094.73 677.762 C 1070.51 678.02 1046.29 678.076 1022.07 677.929 C 1022.29 668.806 1020.77 607.377 1023.12 604.398 L 1026.93 604.259 z" fill="rgb(254,250,252)" transform="translate(0,0)"></path>
<path d="M 908.179 492.799 C 911.566 491.626 937.338 488.886 942.489 488.28 C 968.344 485.442 994.154 482.205 1019.91 478.57 C 1020.12 494.657 1020.13 510.745 1019.95 526.832 C 983.042 526.849 944.948 527.366 908.14 526.833 C 908.17 516.16 908.561 503.287 908.179 492.799 z" fill="rgb(254,250,252)" transform="translate(0,0)"></path>
<path d="M 1200.79 528.717 C 1199.79 542.134 1203.07 548.158 1210.36 559.742 C 1211.99 562.343 1215.44 562.436 1217.48 566.578 L 1217.43 566.53 C 1215.42 569.665 1209.15 571.983 1206.05 574.639 C 1203.02 577.228 1200.62 579.79 1197.87 582.627 L 1197.47 583.046 C 1177.39 588.592 1154.25 589.433 1136.87 594.727 C 1135.08 590.756 1136.03 536.602 1136.07 529.137 C 1150.39 529.211 1187.97 530.238 1200.79 528.717 z" fill="rgb(254,250,252)" transform="translate(0,0)"></path>
<path d="M 1022.99 478.321 C 1047.16 483.489 1071.27 488.927 1095.32 494.634 C 1103.74 496.567 1125.91 502.193 1133.55 502.084 C 1134.13 506.298 1133.91 521.915 1133.92 526.873 C 1096.64 527.113 1059.35 527.094 1022.06 526.817 C 1022.08 518.232 1021.13 483.395 1022.99 478.321 z" fill="rgb(254,250,252)" transform="translate(0,0)"></path>
<path d="M 870.147 528.789 C 882.255 528.663 894.365 528.763 906.47 529.09 C 906.269 553.67 906.464 578.252 907.054 602.826 C 891.46 597.069 863.023 589.741 850.632 584.431 C 846.419 580.011 843.816 570.959 841.899 565.161 C 870.953 549.179 855.578 540.656 870.147 528.789 z" fill="rgb(254,250,252)" transform="translate(0,0)"></path>
<path d="M 1019.91 478.57 L 1022.99 478.321 C 1021.13 483.395 1022.08 518.232 1022.06 526.817 C 1059.35 527.094 1096.64 527.113 1133.92 526.873 C 1133.91 521.915 1134.13 506.298 1133.55 502.084 L 1135.41 500.969 C 1136.43 508.928 1136.06 518.746 1136 526.904 L 1202.3 526.932 L 1200.79 528.717 C 1187.97 530.238 1150.39 529.211 1136.07 529.137 C 1136.03 536.602 1135.08 590.756 1136.87 594.727 L 1133.84 595.605 C 1134.05 573.466 1134.06 551.326 1133.88 529.187 L 1022.04 529.132 L 1022.02 601.783 C 1052.99 605.178 1093.01 601.524 1124.81 603.04 L 1124.6 604.599 C 1120.43 603.775 1098.63 604.018 1093.27 604.016 C 1071.16 603.93 1049.04 604.011 1026.93 604.259 L 1023.12 604.398 C 1020.77 607.377 1022.29 668.806 1022.07 677.929 L 1020.5 677.93 L 1020.01 603.992 C 990.931 605.408 961.322 603.957 932.182 604.406 C 925.048 604.516 917.92 604.133 910.841 605.13 L 909.591 603.138 C 944.253 601.389 985.611 605.064 1020.11 602.306 L 1020.07 529.035 C 984.025 528.047 944.432 528.981 908.123 529.111 C 908.048 548.62 906.937 585.073 908.863 602.988 L 907.054 602.826 C 906.464 578.252 906.269 553.67 906.47 529.09 C 894.365 528.763 882.255 528.663 870.147 528.789 L 872.153 526.714 C 881.178 516.355 890.714 505.743 900.015 495.605 C 902.831 492.535 903.084 492.598 906.133 492.677 L 906.762 493.066 L 908.179 492.799 C 908.561 503.287 908.17 516.16 908.14 526.833 C 944.948 527.366 983.042 526.849 1019.95 526.832 C 1020.13 510.745 1020.12 494.657 1019.91 478.57 z" fill="rgb(133,191,169)" transform="translate(0,0)"></path>
<path d="M 872.153 526.714 C 881.178 516.355 890.714 505.743 900.015 495.605 C 902.831 492.535 903.084 492.598 906.133 492.677 L 906.762 493.066 C 906.808 501.3 907.299 519.511 906.347 526.831 C 894.949 526.859 883.551 526.82 872.153 526.714 z" fill="rgb(254,250,252)" transform="translate(0,0)"></path>
<path d="M 906.133 492.677 L 906.762 493.066 C 906.808 501.3 907.299 519.511 906.347 526.831 C 905.614 516.122 906.021 503.569 906.133 492.677 z" fill="rgb(202,201,203)" transform="translate(0,0)"></path>
<path d="M 661.916 293.825 C 744.035 294.976 828.589 293.975 910.921 293.967 L 1387.01 293.937 L 1387.14 747.028 C 1378.16 747.133 1354.8 748.018 1346.74 746.491 C 1345.26 744.441 1345.78 741.558 1345.88 738.878 C 1350.15 735.487 1369.13 736.956 1375.4 737.088 L 1376.1 305.187 L 1347.5 305.03 L 671.836 304.981 L 671.986 737.129 L 716.629 737.246 C 722.287 737.254 733.951 736.825 738.865 737.547 C 741.902 740.119 740.98 739.491 742.356 743.979 L 741.57 745.343 C 734.4 746.712 719.42 746.163 711.374 746.13 L 662.022 745.912 L 661.916 293.825 z" fill="rgb(254,250,252)" transform="translate(0,0)"></path>
<path d="M 944.141 681.95 C 952.12 680.781 967.723 681.226 976.203 681.222 L 1036.23 681.362 C 1045.51 681.368 1086.46 680.764 1092.56 681.891 C 1087.54 704.392 1089.52 711.513 1098.32 732.011 L 956.682 732.483 C 953.025 715.859 948.108 698.689 944.141 681.95 z" fill="rgb(254,250,252)" transform="translate(0,0)"></path>
<path d="M 944.141 681.95 C 952.12 680.781 967.723 681.226 976.203 681.222 L 1036.23 681.362 C 1045.51 681.368 1086.46 680.764 1092.56 681.891 C 1080.36 683.339 1036.65 682.312 1022.21 682.297 C 1022.28 690.588 1023.4 723.313 1020.75 729.198 C 1020.36 713.564 1020.19 697.925 1020.24 682.286 C 996.413 682.304 967.578 683.08 944.141 681.95 z" fill="rgb(202,201,203)" transform="translate(0,0)"></path>
<path d="M 1344.39 656.597 C 1347.23 662.921 1342.48 733.416 1342.17 746.402 C 1341.09 793.222 1342.21 843.095 1338.88 889.611 C 1332.59 891.154 1315.25 894.729 1312.21 887.672 C 1313.4 882.779 1312.37 883.918 1315.64 881.227 L 1320.14 877.994 C 1324.42 865.021 1306.12 775.113 1302.34 754.771 C 1312.93 727.509 1331.4 681.886 1344.39 656.597 z" fill="rgb(91,74,80)" transform="translate(0,0)"></path>
<path d="M 801.948 476.214 C 824.461 474.147 844.614 480.579 853.364 504.147 C 855.203 509.101 855.159 514.811 854.464 520.017 C 852.77 520.579 850.373 520.211 848.949 520.805 C 843.195 523.206 843.675 545.453 819.614 556.493 C 780.02 565.173 755.264 533.017 771.544 495.386 C 775.959 485.179 791.442 478.774 801.948 476.214 z" fill="rgb(91,74,80)" transform="translate(0,0)"></path>
<path d="M 918.874 1229.11 C 928.209 1232.12 941.925 1236.89 948.366 1244.79 C 948.17 1254.8 894.792 1251.12 884.5 1251.07 L 854.017 1250.95 L 853.831 1232.55 C 870.659 1231.95 905.684 1234.6 918.874 1229.11 z" fill="rgb(254,250,252)" transform="translate(0,0)"></path>
<path d="M 957.566 736.089 L 1100.73 736.141 L 1106.13 746.336 C 1075.5 747.101 1043.47 746.454 1012.73 746.578 C 1001.12 746.625 968.841 747.526 959.288 746.337 C 957.418 743.586 957.729 739.629 957.566 736.089 z" fill="rgb(254,250,252)" transform="translate(0,0)"></path>
<path d="M 1348.26 680.804 L 1371.6 680.54 C 1371.34 689.682 1372 726.469 1370.68 732.662 C 1362.58 732.51 1354.1 732.763 1345.97 732.882 C 1346.99 715.306 1348 698.417 1348.26 680.804 z" fill="rgb(254,250,252)" transform="translate(0,0)"></path>
<path d="M 750.925 1231.7 C 768.493 1231.52 786.061 1231.55 803.628 1231.81 L 803.518 1250.77 C 791.758 1251.92 763.953 1251.04 751.236 1250.99 C 750.985 1244.72 751.014 1238.01 750.925 1231.7 z" fill="rgb(254,250,252)" transform="translate(0,0)"></path>
<path d="M 846.291 532.685 C 849.973 537.478 847.697 539.911 845.134 544.513 C 838.92 555.671 837.965 563.291 840.82 575.419 C 823.624 571.438 808.173 571.947 790.749 572.238 L 788.511 572.217 L 787.408 570.98 C 787.071 566.42 787.499 563.099 787.937 558.607 C 815.523 568.863 834.169 557.63 846.291 532.685 z" fill="rgb(238,195,180)" transform="translate(0,0)"></path>
<path d="M 1312.06 904.777 C 1320.58 905.224 1328.05 905.028 1336.55 904.827 C 1334.84 923.017 1331.29 933.747 1317.65 947.822 C 1316.58 948.92 1315.34 949.291 1313.9 949.655 C 1308.24 946.539 1310.14 938.9 1310.44 932.95 C 1317.07 928.203 1321.46 916.995 1318.58 909.286 L 1316.37 908.22 C 1315.59 907.435 1313.06 905.562 1312.06 904.777 z" fill="rgb(91,74,80)" transform="translate(0,0)"></path>
<path d="M 1213.02 572.194 C 1226.95 570.801 1253.47 571.767 1266.69 575.789 C 1268.58 578.57 1269.94 580.26 1271.1 583.483 C 1268.99 584.931 1267.16 584.08 1264 583.709 C 1244.82 580.837 1222.92 580.798 1203.58 581.078 C 1207.21 576.991 1208.78 575.641 1213.02 572.194 z" fill="rgb(91,74,80)" transform="translate(0,0)"></path>
<path d="M 795.51 575.415 C 800.355 575.178 805.208 575.133 810.057 575.279 C 818.451 575.512 840.138 576.648 845.948 582.793 C 841.776 586.164 831.794 584.801 826.249 584.43 C 816.256 583.848 780.2 585.637 775.262 581.886 L 776.165 580.081 C 782.953 575.451 787.311 575.929 795.51 575.415 z" fill="rgb(254,250,252)" transform="translate(0,0)"></path>
<path d="M 850.622 523.25 C 868.4 530.825 859.827 550.15 847.889 559.264 C 845.817 560.201 845.811 560.48 843.656 560.038 L 842.805 558.151 C 843.221 553.664 849.032 544.567 851.502 539.975 C 852.291 530.229 845.982 535.664 850.622 523.25 z" fill="rgb(254,250,252)" transform="translate(0,0)"></path>
<path d="M 1325.23 893.517 C 1331.15 893.217 1334.06 892.358 1338.41 896.231 L 1338.19 898.296 C 1332.37 903.338 1328.73 902.176 1320.75 901.961 C 1316.05 902.128 1314.03 902.52 1310.58 899.615 C 1310.41 892.834 1320.62 893.557 1325.23 893.517 z" fill="rgb(254,250,252)" transform="translate(0,0)"></path>
<path d="M 1312.06 904.777 C 1313.06 905.562 1315.59 907.435 1316.37 908.22 C 1316.02 913.105 1315.76 924.308 1312.41 927.508 L 1311.22 925.85 C 1310 919.967 1310.9 910.716 1312.06 904.777 z" fill="rgb(154,121,122)" transform="translate(0,0)"></path>
<path d="M 1240.63 501.159 L 1241.07 501.239 C 1245.02 505.871 1239.9 522.984 1236.13 528.48 C 1236.06 525.583 1235.64 524.535 1237.98 522.017 C 1243.99 515.535 1236.29 508.87 1238.25 501.981 L 1240.04 502.532 L 1240.63 501.159 z" fill="rgb(91,74,80)" transform="translate(0,0)"></path>
<path d="M 1259.74 511.581 L 1260.93 512.007 C 1260.08 519.471 1260.2 528.768 1259.69 536.552 C 1257.97 531.7 1257.42 516.099 1259.74 511.581 z" fill="rgb(91,74,80)" transform="translate(0,0)"></path>
<path d="M 1220.95 539.69 C 1223.39 544.108 1226.52 548.376 1226.83 553.652 L 1224.7 553.809 C 1223.99 549.383 1224 548.232 1221.06 544.749 L 1221.24 546.139 C 1219.38 543.145 1219.89 544.302 1220.95 539.69 z" fill="rgb(91,74,80)" transform="translate(0,0)"></path>
<path d="M 1227.4 516.417 L 1228.79 516.328 C 1229.06 520.556 1229.42 524.052 1229.95 528.249 C 1226.7 524.411 1226.83 521.284 1227.4 516.417 z" fill="rgb(91,74,80)" transform="translate(0,0)"></path>
<path d="M 1250.86 532.589 L 1253.91 534.142 C 1255.51 537.688 1254.65 538.776 1254.09 543.084 L 1253.4 542.953 C 1252.97 538.201 1252.97 537.095 1250.86 532.589 z" fill="rgb(91,74,80)" transform="translate(0,0)"></path>
<path d="M 1225.86 529.412 L 1226.5 529.85 C 1227.19 532.926 1226.95 532.041 1225.95 535.445 L 1224.59 535.74 L 1222.78 535.109 L 1223.84 535.475 L 1223.26 534.172 C 1224.97 533.038 1225.01 532.119 1225.64 530.14 L 1225.86 529.412 z" fill="rgb(91,74,80)" transform="translate(0,0)"></path>
<metadata><recraft-signature>{"signed_by": "recraft", "signature_b64": "u2Kk3lzzRpY3ysJo8isnjubAK8F7Rokh0rL4K4OSu0DbLuIPwptfJGFr/qZdfhTImL70svpINGKv0RkYLp/cCQ==", "signing_algo": "Ed25519", "generation_timestamp": 1776427261, "identifier": "89c8ac27-ecf5-4812-b645-c5b5953d1a47"}</recraft-signature></metadata></svg>