<svg xmlns="http://www.w3.org/2000/svg" height="1024" preserveAspectRatio="none" style="display: block;" version="1.1" viewBox="0 0 2048 1536" width="1365">
<path d="M 0 0 L 2048 0 L 2048 1536 L 0 1536 L 0 0 z" fill="rgb(248,247,236)" transform="translate(0,0)"></path>
<path d="M 1020.95 195.054 C 1034.06 193.852 1037.68 198.33 1040.63 210.098 C 1053.1 210.147 1081.93 207.985 1093.96 212.67 C 1096.03 213.476 1094.96 238.65 1094.92 242.97 C 1136.19 243.325 1524.2 241.615 1528.28 243.938 C 1532.07 246.1 1533.84 254.125 1533.97 258.049 C 1534.1 262.078 1532.93 266.048 1529.99 268.911 C 1525.66 273.12 1519.54 271.896 1514.03 271.648 L 1514.13 577.983 C 1527.67 580.347 1536.22 582.295 1547.21 591.128 C 1563.93 604.563 1574.23 629.585 1575.8 650.669 C 1579.21 696.521 1561.85 727.345 1534.17 760.508 C 1534.05 769.241 1533.37 776.887 1532.63 785.566 C 1542 791.502 1558.66 814.387 1566.13 824.314 C 1613.75 841.918 1649.17 868.835 1680.42 908.896 C 1708.48 944.856 1716.22 984.071 1722.02 1028.08 C 1725.23 1052.24 1728.02 1076.45 1730.42 1100.71 C 1734.72 1140.76 1738.06 1180.92 1740.44 1221.13 C 1742.46 1251.25 1749.37 1274.42 1729.19 1299.17 L 1827.36 1299.2 C 1837.07 1299.2 1882.23 1297.53 1887.64 1302.61 C 1889.19 1313.62 1888.17 1354.4 1888.31 1368.52 C 1903.77 1368.65 1938.66 1367.42 1955.02 1369.27 C 1955.74 1369.87 1956.46 1370.47 1957.19 1371.06 C 1957.66 1374.37 1957.97 1372.83 1955.94 1375.77 C 1952.1 1377.77 1911.73 1376.48 1904.85 1376.44 L 1822.59 1376.6 L 1485.93 1376.86 L 561.5 1376.75 L 240.219 1376.78 L 122.41 1376.66 C 108.325 1376.62 94.3013 1376.84 80.2259 1376.89 C 76.0143 1376.91 69.7921 1376.74 68.1711 1372.36 L 69.3712 1369.85 C 74.1232 1367.25 149.975 1368.51 162.746 1368.55 C 162.859 1355.57 163.06 1342.54 162.812 1329.57 C 162.685 1322.93 161.669 1315.94 162.316 1309.35 C 162.521 1307.26 163.171 1304.69 164.735 1303.17 C 169.792 1298.24 209.919 1300.73 219.417 1300.75 C 215.202 1279.74 212.909 1257.14 207.2 1236.51 C 204.096 1235.71 195.353 1233.96 194.705 1230.75 C 193.096 1222.77 192.719 1208.93 195.584 1201.37 C 199.896 1197.65 211.202 1198.93 217.399 1199.05 C 214.147 1173.91 212.354 1149.66 214.974 1124.32 C 215.645 1117.84 215.71 1108.4 223.849 1108.4 C 229.976 1111.09 233.081 1117.05 236.749 1122.62 C 237.813 1112.37 243.383 1058.37 255.415 1059.32 C 262.596 1064.54 268.696 1084.09 271.886 1092.85 C 275.135 1083.21 284.248 1054.51 291.23 1048.56 C 304.489 1048.44 308.286 1115.12 308.539 1126.1 C 312.566 1119.42 319.598 1101.7 326.987 1100.07 C 333.059 1102.71 332.876 1110.55 333.77 1116.68 C 337.924 1145.14 334.453 1171.84 328.762 1199.8 C 335.022 1199.36 340.9 1198.43 346.618 1201.09 C 351.094 1205.3 350.716 1216.01 350.649 1221.78 C 350.493 1235.14 347.947 1235.36 336.087 1236.19 C 332.335 1257.03 328.841 1280.22 324.004 1300.58 L 442.104 1300.36 L 442.107 1200.29 C 427.48 1199.86 412.301 1198.3 399.901 1189.84 C 388.885 1182.32 379.932 1169.3 377.537 1156.13 C 370.683 1118.43 415.996 914.466 431.145 870.131 C 435.187 858.301 440.784 846.637 448.035 836.435 C 469.93 805.632 502.415 799.055 537.463 793.263 C 537.256 776.088 537.391 758.912 537.868 741.742 C 533.639 739.831 529.452 737.865 525.303 735.568 C 503.055 723.249 491.812 690.851 510.757 670.852 C 515.713 665.62 519.14 664.251 525.86 661.65 C 516.312 636.712 518.283 624.82 538.538 606.589 C 536.859 496.583 538.022 382.085 538.421 271.947 C 533.895 272.078 523.848 272.866 520.006 271.587 C 513.603 269.456 515.143 249.478 518.003 244.961 C 526.499 241.13 910.622 243.28 956.804 243.328 C 956.989 236.196 955.641 217.042 957.974 211.963 C 965.503 208.761 1001.52 209.767 1011.59 209.743 C 1013.12 201.059 1013.8 199.711 1020.95 195.054 z" fill="rgb(48,62,106)" transform="translate(0,0)"></path>
<path d="M 1095.75 271.282 L 1505.84 271.055 C 1506.68 372.101 1506.89 473.152 1506.48 574.201 C 1480.92 563.39 1449.71 556.717 1422.85 568.163 C 1403.28 576.506 1360.05 604.572 1369.62 631.989 C 1371.62 637.716 1379.04 644.89 1383.46 649.138 C 1379.87 659.34 1377.87 667.579 1375.28 678.126 C 1368.61 677.521 1360.81 676.096 1354.92 679.154 C 1352.19 682.746 1351.95 686.053 1353.53 690.382 C 1358.64 704.371 1357.34 719.704 1371.47 727.392 C 1374.15 736.098 1377.45 749.066 1378.27 757.989 C 1378.87 764.469 1367.08 774.285 1372.19 782.528 C 1383.39 800.599 1405.75 797.085 1423.59 795.557 C 1424.07 798.924 1424.5 802.692 1425.1 806.001 C 1412.34 815.257 1402.09 827.552 1395.29 841.77 C 1347.03 864.045 1313.39 885.811 1276.43 925.059 L 882.065 924.939 C 880.903 903.966 880.169 882.023 878.332 861.182 C 877.375 850.326 871.813 856.517 873.723 837.995 C 866.881 829.433 861.675 824.108 852.268 818.555 C 852.4 807.461 852.941 801.452 847.487 791.38 C 884.702 789.572 927.428 790.383 965.051 790.282 L 1177 790.17 C 1177 760.289 1178.03 723.41 1176.69 694.066 L 1174.03 692.969 L 1173.95 787.359 L 1008.95 787.529 L 1008.61 693.156 L 1005.34 692.234 C 1004.45 721.704 1006.19 756.793 1005.75 787.433 C 971.029 788.863 927.093 787.818 891.822 787.571 C 889.998 716.027 891.803 643.7 891.416 572.143 C 891.34 558.146 892.761 488.221 890.248 479.184 C 887.237 483.804 888.788 504.529 888.327 511.498 L 888.096 787.51 C 874.516 787.843 860.932 788.029 847.348 788.07 C 843.754 787.337 838.689 785.962 835.335 788.554 C 825.189 796.396 823.364 824.825 816.647 834.828 C 806.153 850.456 802.736 845.747 796.625 865.839 C 767.518 811.842 727.251 810.269 673.751 797.509 C 673.323 796.829 672.894 796.149 672.466 795.469 L 672.213 788.395 C 676.534 784.185 727.382 792.931 729.858 759.4 C 730.337 752.917 722.25 750.453 723.34 746.592 C 726.818 745.054 729.963 744.234 730.901 740.826 C 732.202 736.104 732.97 730.366 733.73 725.544 C 758.708 715.25 754.017 705.418 732.969 694.221 L 733.207 663.802 C 742.17 664.813 748.706 664.86 756.448 658.955 C 761.525 655.099 764.83 649.357 765.616 643.03 C 766.925 632.404 762.476 625.866 755.911 618.362 C 753.96 585.201 732.856 600.992 719.995 598.42 C 715.136 593.42 723.87 578.472 715.585 569.289 C 710.932 564.085 704.388 560.964 697.415 560.622 C 690.612 560.35 684.228 562.352 679.286 567.107 C 678.516 567.852 677.766 568.618 677.037 569.403 C 670.452 559.113 663.101 551.491 650.614 548.821 C 641.589 546.845 632.148 548.637 624.476 553.784 C 617.003 558.854 614.545 563.62 610.276 571.315 C 599.804 566.98 589.258 565.165 578.364 569.537 C 570.625 572.634 564.476 578.74 561.324 586.456 C 559.882 589.988 558.959 595.772 558.674 599.591 C 554.866 600.709 550.796 602.004 546.95 602.883 C 546.438 527.121 546.355 451.357 546.701 375.594 C 546.662 341.276 545.899 305.727 546.2 271.645 L 956.585 271.359 C 956.424 277.953 955.118 298.201 957.858 302.674 C 965.992 304.753 994.663 304.125 1005.02 304.133 L 1094.6 304.164 C 1095.51 292.467 1095.71 283.041 1095.75 271.282 z" fill="rgb(254,254,253)" transform="translate(0,0)"></path>
<path d="M 891.208 345.206 C 958.419 343.456 1029 346.206 1096.47 345.276 C 1122.05 344.924 1148.64 346.242 1174.17 345.392 C 1172.62 360.621 1173.87 386.171 1173.34 402.255 C 1173.1 409.56 1173.07 442.798 1173.96 448.648 L 1176.77 450.144 L 1173.81 452.206 C 1172.44 489.63 1173.39 533.505 1173.08 571.768 C 1168 571.046 1147.24 569.713 1144.64 572.169 C 1138.68 577.816 1140.11 610.886 1144.14 616.883 C 1149.12 619.22 1168.02 617.414 1174.54 616.955 C 1172.56 632.204 1172.53 677.261 1174.03 692.969 L 1173.95 787.359 L 1008.95 787.529 L 1008.61 693.156 L 1005.34 692.234 C 1004.45 721.704 1006.19 756.793 1005.75 787.433 C 971.029 788.863 927.093 787.818 891.822 787.571 C 889.998 716.027 891.803 643.7 891.416 572.143 C 891.34 558.146 892.761 488.221 890.248 479.184 C 908.755 477.701 930.733 486.335 926.565 460.98 C 924.685 457.83 923.823 457.785 920.288 456.168 L 920.731 455.196 C 922.8 453.81 923.859 453.005 925.789 451.421 C 934.465 427.612 907.857 433.838 891.807 434.002 C 891.763 429.898 891.465 425.606 891.253 421.492 C 890.405 397.432 891.059 369.462 891.208 345.206 z" fill="rgb(254,254,253)" transform="translate(0,0)"></path>
<path d="M 1008.78 452.532 C 1062.9 451.573 1119.66 451.875 1173.81 452.206 C 1172.44 489.63 1173.39 533.505 1173.08 571.768 C 1168 571.046 1147.24 569.713 1144.64 572.169 C 1138.68 577.816 1140.11 610.886 1144.14 616.883 C 1149.12 619.22 1168.02 617.414 1174.54 616.955 C 1172.56 632.204 1172.53 677.261 1174.03 692.969 L 1173.95 787.359 L 1008.95 787.529 L 1008.61 693.156 C 1016.98 691.52 1038.89 694.904 1043.86 690.543 C 1048.85 686.167 1050.65 661.906 1037.98 661.714 C 1028.67 661.574 1018.72 662.457 1008.91 661.8 L 1008.78 452.532 z" fill="rgb(254,254,253)" transform="translate(0,0)"></path>
<path d="M 1005.94 662.197 L 1008.91 661.8 C 1018.72 662.457 1028.67 661.574 1037.98 661.714 C 1050.65 661.906 1048.85 686.167 1043.86 690.543 C 1038.89 694.904 1016.98 691.52 1008.61 693.156 L 1005.34 692.234 C 995.697 694.071 967.927 693.768 958.064 691.31 C 954.166 690.339 954.837 667.375 957.762 663.415 C 964.146 660.964 997.23 662.112 1005.94 662.197 z" fill="rgb(254,148,120)" transform="translate(0,0)"></path>
<path d="M 1173.96 448.648 L 1176.77 450.144 L 1173.81 452.206 C 1119.66 451.875 1062.9 451.573 1008.78 452.532 L 1008.91 661.8 L 1005.94 662.197 C 1005.43 591.081 1005.39 519.963 1005.84 448.847 L 1113.12 449.028 C 1131.89 449.053 1155.59 449.656 1173.96 448.648 z" fill="rgb(48,62,106)" transform="translate(0,0)"></path>
<path d="M 765.697 345.925 L 765.792 346.879 C 766.357 353.01 767.191 361.069 763.231 365.77 C 757.408 367.16 697.918 368.114 694.601 363.544 C 692.949 361.267 692.892 323.843 694.372 319.319 C 698.031 315.829 704.855 314.417 709.355 314.783 C 719.522 315.61 758.312 312.34 764.865 318.513 C 766.094 324.177 765.197 335.849 764.95 342.085 L 765.697 345.925 z" fill="rgb(254,148,120)" transform="translate(0,0)"></path>
<path d="M 702.764 341.479 C 710.737 341.376 751.102 339.676 754.568 343.008 L 753.726 347.048 C 740.657 347.165 716.662 348.251 703.33 346.124 C 701.906 345.897 702.067 345.189 701.54 343.627 L 702.764 341.479 z" fill="rgb(48,62,106)" transform="translate(0,0)"></path>
<path d="M 727.089 354.49 C 733.652 354.417 749.364 353.212 754.3 357.241 C 749.913 361.05 737.523 360.134 731.5 360.019 C 725.204 360.094 707.455 361.083 703.285 357.246 C 706.93 353.742 721.684 354.452 727.089 354.49 z" fill="rgb(59,70,79)" transform="translate(0,0)"></path>
<path d="M 734.1 328.488 C 739.416 328.365 750.825 326.838 754.153 330.842 L 753.133 333.021 C 748.361 334.575 732.18 333.81 726.25 333.701 C 721.776 333.721 706.149 334.287 703.164 332.299 L 703.128 330.56 C 707.999 327.648 727.146 328.494 734.1 328.488 z" fill="rgb(59,70,79)" transform="translate(0,0)"></path>
<path d="M 1302.09 756.773 C 1302.11 750.798 1302.29 746.566 1302.83 740.619 C 1302.96 744.781 1302.57 753.324 1303.82 756.469 C 1304.55 756.662 1306.07 757.124 1306.75 757.178 C 1312.82 756.136 1337.08 755.997 1343.29 758.398 C 1346.81 763.304 1346.14 796.698 1341.72 802.463 C 1327.32 805.76 1291.37 802.07 1275.17 803.661 C 1263.67 804.791 1269.01 765.907 1271.04 758.853 C 1275.2 754.993 1295.43 756.624 1302.09 756.773 z" fill="rgb(254,148,120)" transform="translate(0,0)"></path>
<path d="M 1277.14 788.272 C 1285.6 786.805 1326.92 787.305 1337.84 788.153 C 1338.92 788.237 1339.31 790.829 1339.77 792.32 C 1330.69 793.593 1290.6 793.243 1279.59 791.94 C 1278.2 791.775 1277.86 789.937 1277.14 788.272 z" fill="rgb(48,62,106)" transform="translate(0,0)"></path>
<path d="M 1278.69 772.266 C 1286.84 772.187 1335.52 771.08 1339.02 772.979 L 1339.97 776.999 C 1332.11 777.061 1282.78 778.226 1279.34 775.948 L 1278.69 772.266 z" fill="rgb(48,62,106)" transform="translate(0,0)"></path>
<path d="M 1173.08 571.768 L 1177.04 571.404 C 1185.66 573.054 1204.66 569.505 1209.91 573.726 C 1212.9 581.694 1213.1 609.076 1209.82 616.392 C 1205.13 619.428 1185.13 617.321 1178.03 617.355 L 1177.62 665.064 C 1177.57 670.74 1177.8 684.31 1177.18 689.161 C 1174.94 676.452 1178.91 628.104 1176.36 617.703 L 1174.54 616.955 C 1168.02 617.414 1149.12 619.22 1144.14 616.883 C 1140.11 610.886 1138.68 577.816 1144.64 572.169 C 1147.24 569.713 1168 571.046 1173.08 571.768 z" fill="rgb(254,148,120)" transform="translate(0,0)"></path>
<path d="M 1149.87 606.05 C 1162.23 605.601 1190.14 605.003 1203.49 606.572 C 1204.38 606.677 1204.57 609.475 1204.82 610.814 C 1196.62 611.06 1155.8 612.233 1150.76 609.564 L 1149.87 606.05 z" fill="rgb(48,62,106)" transform="translate(0,0)"></path>
<path d="M 1197.38 590.496 C 1200.76 590.339 1201.69 590.053 1204.73 591.259 L 1205.34 592.934 L 1204.34 594.683 C 1194.35 596.012 1169.19 595.205 1157.75 595.124 C 1154.85 595.236 1153.24 595.599 1150.67 594.252 L 1150.38 592.055 C 1153.27 589.569 1190.31 590.487 1197.38 590.496 z" fill="rgb(42,43,52)" transform="translate(0,0)"></path>
<path d="M 1337.92 328.174 C 1356 327.995 1374.08 327.938 1392.17 328.002 C 1402.01 328.012 1416.48 327.646 1425.87 328.764 C 1426.09 336.689 1427.54 353.456 1424.39 360.042 C 1416.41 362.752 1348.31 362.685 1339.71 361.422 C 1335.94 357.029 1336.83 351.821 1336.78 345.694 L 1337.18 342.14 C 1337.21 336.917 1337.17 333.361 1337.92 328.174 z" fill="rgb(254,148,120)" transform="translate(0,0)"></path>
<path d="M 861.343 456.5 C 866.413 454.861 912.908 455.612 920.288 456.168 C 923.823 457.785 924.685 457.83 926.565 460.98 C 930.733 486.335 908.755 477.701 890.248 479.184 C 887.237 483.804 888.788 504.529 888.327 511.498 C 888.131 500.696 888.064 489.892 888.126 479.088 C 878.139 479.092 865.096 480.171 855.72 478.199 C 850.721 477.148 852.382 464.634 854.556 460.599 C 857.818 458.685 856.504 459.198 860.729 459.4 L 861.343 456.5 z" fill="rgb(254,148,120)" transform="translate(0,0)"></path>
<path d="M 861.343 456.5 C 866.413 454.861 912.908 455.612 920.288 456.168 C 918.624 458.637 918.305 460.053 914.524 460.324 C 906.651 460.887 865.392 461.836 860.729 459.4 L 861.343 456.5 z" fill="rgb(48,62,106)" transform="translate(0,0)"></path>
<path d="M 891.253 421.492 C 891.465 425.606 891.763 429.898 891.807 434.002 C 907.857 433.838 934.465 427.612 925.789 451.421 C 923.859 453.005 922.8 453.81 920.731 455.196 L 920.288 456.168 C 912.908 455.612 866.413 454.861 861.343 456.5 C 854.386 453.229 851.881 451.045 853.127 442.583 C 854.922 430.399 878.442 434.345 888.448 434.21 L 890.19 433.651 C 891.955 430.497 891.32 425.39 891.253 421.492 z" fill="rgb(254,148,120)" transform="translate(0,0)"></path>
<path d="M 764.95 342.085 L 1171.34 342.397 L 1173.67 343.291 L 1174.17 345.392 C 1148.64 346.242 1122.05 344.924 1096.47 345.276 C 1029 346.206 958.419 343.456 891.208 345.206 C 891.059 369.462 890.405 397.432 891.253 421.492 C 891.32 425.39 891.955 430.497 890.19 433.651 L 888.448 434.21 C 886.676 412.314 887.969 368.969 887.957 345.138 L 814.45 345.082 C 799.131 345.084 780.768 344.745 765.697 345.925 L 764.95 342.085 z" fill="rgb(48,62,106)" transform="translate(0,0)"></path>
<path d="M 1174.54 616.955 L 1176.36 617.703 C 1178.91 628.104 1174.94 676.452 1177.18 689.161 L 1261.05 689.139 C 1272.44 689.146 1295.27 688.653 1306.14 689.756 C 1307.46 704.19 1307.45 741.802 1306.75 757.178 C 1306.07 757.124 1304.55 756.662 1303.82 756.469 C 1302.57 753.324 1302.96 744.781 1302.83 740.619 C 1302.92 724.759 1302.91 708.898 1302.8 693.037 C 1287.2 693.108 1183.5 691.76 1176.69 694.066 L 1174.03 692.969 C 1172.53 677.261 1172.56 632.204 1174.54 616.955 z" fill="rgb(230,128,80)" transform="translate(0,0)"></path>
<path d="M 1171.34 342.397 C 1171.98 342.037 1173.18 341.298 1173.99 341.368 C 1200.7 343.646 1228.76 341.305 1255.44 342.342 C 1245.28 342.536 1181.51 341.851 1177.63 344.086 L 1178.18 345.151 L 1180.84 345.57 L 1178.21 346.292 C 1177.01 353.387 1177.19 447.164 1178.55 449.308 L 1178 450.307 L 1178.84 452.415 C 1176.86 455.54 1177.05 558.974 1177.04 571.404 L 1173.08 571.768 C 1173.39 533.505 1172.44 489.63 1173.81 452.206 L 1176.77 450.144 L 1173.96 448.648 C 1173.07 442.798 1173.1 409.56 1173.34 402.255 C 1173.87 386.171 1172.62 360.621 1174.17 345.392 L 1173.67 343.291 L 1171.34 342.397 z" fill="rgb(230,128,80)" transform="translate(0,0)"></path>
<path d="M 1178.55 449.308 C 1225.86 447.266 1277.52 449.844 1325.85 448.342 C 1325.83 456.142 1326.07 490.283 1324.85 494.997 C 1320.05 490.224 1322.07 460.545 1322.11 452.305 C 1274.35 452.008 1226.59 452.044 1178.84 452.415 L 1178 450.307 L 1178.55 449.308 z" fill="rgb(48,62,106)" transform="translate(0,0)"></path>
<path d="M 1337.18 342.14 L 1336.78 345.694 C 1289.25 344.735 1228.05 343.923 1180.84 345.57 L 1178.18 345.151 L 1177.63 344.086 C 1181.51 341.851 1245.28 342.536 1255.44 342.342 L 1337.18 342.14 z" fill="rgb(48,62,106)" transform="translate(0,0)"></path>
<path d="M 1325.15 501.591 C 1335.5 503.311 1352.4 499.002 1358.89 503.169 C 1362.05 510.818 1361.7 540.363 1359.39 548.705 C 1355.15 552.553 1332.57 551.033 1325.5 550.962 C 1318.5 550.992 1293.71 553.172 1289.56 548.269 C 1287.29 539.8 1287.36 510.803 1291.08 503.065 C 1295.39 500.471 1317.61 501.973 1325.15 501.591 z" fill="rgb(254,148,120)" transform="translate(0,0)"></path>
<path d="M 1329.24 521.499 C 1334.12 521.468 1349.36 521.187 1353.52 522.484 L 1353.79 524.095 C 1349.64 527.78 1326.48 526.418 1319.75 526.364 C 1313.84 526.413 1298.5 527.989 1294.83 524.173 L 1295.37 522.49 C 1300.95 520.763 1322.55 521.438 1329.24 521.499 z" fill="rgb(59,70,79)" transform="translate(0,0)"></path>
<path d="M 1298.91 537.221 C 1310.62 536.97 1337.26 535.777 1349.28 537.898 C 1350.65 538.139 1350.79 540.124 1351.32 541.908 C 1343.01 541.95 1303.29 543.276 1299.3 540.354 L 1298.91 537.221 z" fill="rgb(42,43,52)" transform="translate(0,0)"></path>
<path d="M 1305.45 509.203 C 1314.51 508.974 1336.96 507.59 1346.22 510.007 C 1347.23 510.27 1347.17 512.358 1347.37 513.754 C 1339.85 513.82 1311.04 514.843 1306.19 512.281 L 1305.45 509.203 z" fill="rgb(59,70,79)" transform="translate(0,0)"></path>
<path d="M 798.984 564.267 C 804.728 566.242 830.449 562.473 831.147 568.138 C 831.786 573.328 834.506 610.123 829.178 610.849 C 807.414 613.815 782.212 612.128 759.993 611.895 C 761.17 601.881 760.099 572.157 763.227 566.648 C 770.442 562.71 788.045 566.858 795.801 564.08 L 798.984 564.267 z" fill="rgb(254,148,120)" transform="translate(0,0)"></path>
<path d="M 774.765 592.137 C 783.999 591.985 810.638 590.531 819.482 593.4 C 820.578 593.755 820.346 594.798 820.517 596.255 L 818.891 598.166 C 810.191 598.16 778.227 599.618 772.939 596.529 L 772.634 594.602 L 774.765 592.137 z" fill="rgb(48,62,106)" transform="translate(0,0)"></path>
<path d="M 777.781 577.51 C 784.914 577.315 812.447 575.364 816.908 579.27 L 816.513 581.265 L 814.236 582.18 C 807.233 582.246 779.262 583.614 775.274 580.952 L 775.331 578.943 L 777.781 577.51 z" fill="rgb(42,43,52)" transform="translate(0,0)"></path>
<path d="M 606.954 432.494 C 627.496 432.623 667.971 431.698 689.139 434.521 C 691.351 434.816 697.056 459.693 686.25 461.339 C 674.474 461.625 610.576 462.335 603.218 459.587 C 600.039 454.49 600.823 441.098 602.042 435.389 C 604.187 432.593 603.066 433.459 606.954 432.494 z" fill="rgb(254,148,120)" transform="translate(0,0)"></path>
<path d="M 795.693 450.026 C 784.781 449.748 697.17 450.882 694.893 448.271 C 705.258 444.775 783.193 446.011 798.864 446.423 L 798.984 564.267 L 795.801 564.08 C 795.052 555.239 795.612 535.778 795.62 526.173 L 795.693 450.026 z" fill="rgb(33,122,158)" transform="translate(0,0)"></path>
<path d="M 1494.58 823.397 C 1553.92 814.183 1622.62 854.894 1660.12 897.917 C 1675.22 915.251 1692.34 938.805 1699.46 960.887 C 1711.11 997.023 1714.89 1038.02 1718.94 1075.66 C 1723.86 1117.58 1727.76 1159.61 1730.63 1201.72 C 1732.18 1223.79 1734.38 1247.38 1734.04 1269.42 C 1733.83 1282.84 1725.74 1291.16 1716.25 1299.67 C 1713.92 1243.77 1706.6 1184.84 1703.05 1128.73 C 1701.82 1109.2 1695.67 1001.92 1690.07 990.551 C 1687.13 988.731 1688.66 989.008 1685.33 989.582 C 1683.64 991.873 1683.23 993.152 1683.63 996.437 C 1685.98 1015.33 1687.7 1034.51 1689.17 1053.48 L 1701.12 1213.95 C 1705.16 1264.42 1710.22 1318.39 1712.42 1368.74 C 1582.21 1367.8 1452 1367.7 1321.8 1368.43 L 1321.21 1338.94 C 1321.06 1327.86 1320.25 1306.53 1321.45 1296.3 C 1322.58 1286.68 1327.54 1268.06 1329.73 1257.8 C 1334.28 1235.8 1338.49 1213.73 1342.36 1191.59 C 1350.99 1143.06 1358.92 1089.39 1368.53 1041.85 C 1377.21 1036.03 1396.22 1017.6 1390.78 1006.18 L 1388.18 1006.27 C 1382.17 1010.96 1376.7 1023.13 1369.4 1031.46 C 1370.36 1024.88 1372.34 1016.5 1372.8 1010.39 C 1371.25 1007.1 1372.45 1008.18 1369.25 1006.86 L 1366.94 1007.86 C 1362.39 1013.83 1362 1028.22 1360.61 1035.92 C 1347.45 1108.95 1335.55 1182.23 1321.47 1255.08 C 1313.98 1293.85 1300.48 1330.61 1287.97 1367.94 L 1168.58 1368.21 L 1208 1270.74 C 1213.87 1256.12 1227.19 1227.37 1229.04 1212.7 C 1235.59 1160.85 1242.85 1109.22 1252.21 1057.71 C 1259.24 1019.07 1263.47 980.552 1276.5 943.17 C 1281.55 928.659 1296.33 917.17 1307.31 906.97 C 1358.15 863.435 1427.78 830.369 1494.58 823.397 z" fill="rgb(230,128,80)" transform="translate(0,0)"></path>
<path d="M 1555.27 909.468 C 1559.34 909.95 1558.64 909.266 1561.42 911.447 C 1570.47 936.464 1575.95 1024.92 1578.33 1054.81 C 1584.36 1130.6 1587.88 1207.61 1591.69 1283.59 C 1592.04 1290.47 1593.61 1307.02 1591.63 1312.6 C 1583.9 1312.05 1583.57 1307.05 1583.4 1300.05 C 1582.68 1270.99 1581.17 1241.92 1579.7 1212.88 C 1577.27 1167.86 1574.42 1122.86 1571.15 1077.89 C 1567.72 1025.51 1564.32 974.28 1555.41 922.495 C 1554.7 918.374 1553.92 913.457 1555.27 909.468 z" fill="rgb(48,62,106)" transform="translate(0,0)"></path>
<path d="M 521.761 804.302 C 522.796 805.696 524.651 810.044 525.808 811.928 C 557.675 863.797 642.021 852.411 671.638 804.813 C 701.266 812.572 739.996 817.594 764.497 837.283 C 797.482 863.792 802.995 916.774 811.004 955.825 C 821.554 1007.26 828.682 1059.75 837.899 1111.48 C 839.332 1119.47 840.479 1132.04 845.128 1138.45 L 847.016 1138.73 C 847.229 1138.52 847.474 1138.34 847.654 1138.11 C 852.539 1131.75 838.576 1067.58 836.43 1055.73 C 854.517 1064.41 864.762 1071.02 876.644 1086.92 C 871.709 1113.83 861.652 1175.27 842.22 1190.97 C 780.261 1241.02 760.552 1155.32 754.085 1115.05 C 744.388 1054.66 740.285 1012.44 729.302 954.021 C 728.8 951.352 727.046 949.079 724.838 948.019 C 719.347 953.199 726.281 984.111 727.358 992.588 C 720.389 987.676 708.061 973.55 700.949 975.572 L 700.146 977.558 C 702.358 984.417 722.849 1000.19 729.426 1005.84 C 737.062 1052.39 744.992 1147.4 766.041 1185.5 C 769.291 1190.75 770.204 1192.22 774.456 1196.62 C 775 1220.01 774.092 1244.86 774.027 1268.38 L 774.358 1368.08 L 450.935 1368.69 L 450.046 1103.16 L 449.469 1014.11 C 449.394 1005.05 450.475 971.085 447.118 964.569 L 445.358 964.134 C 437.78 970.825 440.889 1008.28 440.99 1019.57 L 441.789 1116.06 C 434.002 1123.66 425.887 1126.81 420.099 1137.63 L 421.892 1139.68 C 429.833 1137.69 435.032 1133.16 441.522 1128.42 C 441.861 1149.61 441.974 1170.79 441.86 1191.98 C 429.873 1192.28 417.681 1191.07 407.229 1184.73 C 397.147 1178.61 388.711 1167.38 386.02 1155.84 C 378.338 1122.9 419.43 937.177 431.734 895.178 C 436.596 878.584 442.107 861.011 451.377 846.284 C 469.253 817.883 490.904 811.042 521.761 804.302 z" fill="rgb(254,148,120)" transform="translate(0,0)"></path>
<path d="M 888.365 963.49 C 973.627 962.566 1059.21 964.511 1144.52 963.607 C 1183.35 963.196 1222.96 962.851 1261.76 963.726 C 1253.98 994.122 1249.09 1026.07 1244.01 1057 C 1238.73 1087.61 1233.73 1118.28 1229.02 1148.98 C 1224.88 1176.38 1224.3 1205.73 1214.3 1231.64 C 1205.41 1254.69 1196.89 1278.64 1186.58 1301.06 L 1122.59 1301.05 C 1123.23 1286.93 1124.25 1192.13 1121.56 1183.44 C 1114.99 1176.88 1094.46 1177.77 1085.44 1178.15 C 1074.58 1178.62 1043.01 1175.92 1034.64 1181.62 C 1030.18 1188.15 1031.36 1197.41 1031.45 1205.46 C 1031.4 1219.08 1033.35 1293 1030.24 1300.56 C 1026.76 1302.08 1028.27 1301.82 1024.42 1301.17 C 1023.41 1300.36 1021.2 1298.85 1021.2 1297.42 C 1021.16 1275.13 1020.7 1252.28 1022.47 1230.03 C 1022.94 1224.09 1023.83 1219.15 1022.48 1213.66 C 1016.11 1207.91 947.459 1208.21 940.602 1212.67 C 936.608 1218.35 938.417 1223.49 939.364 1230.7 C 915.902 1232.93 902.162 1247.45 906.979 1272.52 C 909.59 1286.12 919.271 1294.37 930.733 1301.41 C 881.556 1300.87 831.564 1301.4 782.334 1301.44 C 781.396 1270.71 782.159 1235.39 782.216 1204.31 C 791.609 1210.4 801.129 1214.34 812.519 1213.67 C 877.279 1209.89 877.524 1098.74 883.597 1094.62 C 888.395 1091.37 893.062 1093.43 898.05 1087.31 C 912.172 1069.98 884.48 1023 882.706 1005.26 C 882.172 999.92 881.247 967.336 883.977 963.939 L 888.365 963.49 z" fill="rgb(248,247,236)" transform="translate(0,0)"></path>
<path d="M 887.356 1309.48 C 985.892 1308.74 1084.43 1308.83 1182.97 1309.75 C 1178.56 1323.7 1165.39 1353.97 1159.21 1368.37 L 1080.5 1368.25 L 782.854 1368.4 L 782.747 1309.97 C 817.617 1310 852.488 1309.83 887.356 1309.48 z" fill="rgb(246,200,177)" transform="translate(0,0)"></path>
<path d="M 170.869 1308.91 L 441.857 1309.02 C 441.954 1328.83 441.922 1348.63 441.759 1368.44 L 170.883 1368.48 L 170.869 1308.91 z" fill="rgb(246,200,177)" transform="translate(0,0)"></path>
<path d="M 1728.04 1307.52 C 1776.66 1306.59 1831.39 1306.66 1880.04 1307.51 L 1879.75 1368.19 L 1869.55 1368.17 L 1721.1 1368.35 L 1717.01 1307.79 L 1728.04 1307.52 z" fill="rgb(246,200,177)" transform="translate(0,0)"></path>
<path d="M 1043.45 1186.46 L 1114.83 1186.06 C 1115.3 1216.36 1114.9 1246.91 1114.75 1277.22 C 1114.72 1283.52 1115 1296.45 1110.94 1300.99 L 1039.08 1301.06 C 1038.87 1269.09 1038.62 1222 1040.33 1188.95 C 1040.42 1187.3 1041.53 1187.33 1043.45 1186.46 z" fill="rgb(254,148,120)" transform="translate(0,0)"></path>
<path d="M 1075.09 1217.91 C 1086.81 1216.21 1097.74 1224.15 1099.74 1235.81 C 1101.75 1247.48 1094.09 1258.61 1082.48 1260.91 C 1074.7 1262.45 1066.69 1259.65 1061.57 1253.6 C 1056.45 1247.55 1055.02 1239.19 1057.83 1231.77 C 1060.64 1224.36 1067.25 1219.05 1075.09 1217.91 z" fill="rgb(48,62,106)" transform="translate(0,0)"></path>
<path d="M 1073.35 1226.93 C 1080.31 1224.4 1087.99 1228.02 1090.48 1234.98 C 1092.97 1241.94 1089.33 1249.61 1082.36 1252.07 C 1075.42 1254.52 1067.81 1250.91 1065.33 1243.98 C 1062.85 1237.06 1066.44 1229.43 1073.35 1226.93 z" fill="rgb(230,128,80)" transform="translate(0,0)"></path>
<path d="M 882.055 933.076 L 1093.55 933.115 C 1152.93 932.792 1212.31 933.008 1271.69 933.764 L 1265.12 951.703 L 1264.08 954.523 C 1260.6 956.381 916.489 955.114 882.913 955.138 C 882.42 947.929 882.293 940.325 882.055 933.076 z" fill="rgb(230,128,80)" transform="translate(0,0)"></path>
<path d="M 838.083 795.314 C 841.717 797.79 842.596 800.634 844.592 804.611 C 844.139 818.264 842.33 831.112 840.805 844.634 C 840.381 848.39 840.897 852.396 844.166 854.525 C 854.983 851.579 846.994 835.71 852.323 829.651 L 853.986 829.653 C 858.396 832.323 861.303 836.183 864.694 840.086 C 863.592 847.837 859.58 865.925 863.57 871.366 C 867.816 872.765 865.311 871.239 870.58 869.917 C 871.992 882.329 872.239 902.928 872.766 915.885 C 873.899 943.706 875.302 975.249 874.155 1003.08 C 857.339 990.404 845.736 982.589 824.508 977.99 C 822.688 948.734 825.77 914.481 817.258 884.513 C 816.438 881.629 808.159 871.735 806.407 868.334 C 804.849 865.309 805.341 865.992 806.562 861.908 C 809.321 859.829 809.568 860.159 811.827 859.224 C 827.426 852.767 831.133 811.181 838.083 795.314 z" fill="rgb(254,148,120)" transform="translate(0,0)"></path>
<path d="M 722.861 659.833 C 727.022 665.489 722.539 690.169 725.4 697.357 C 727.371 702.312 742.695 705.603 741.89 711.867 C 737.955 716.244 733.753 714.601 729.981 717.025 C 722.287 721.969 729.062 737.458 719.813 741.331 C 716.248 738.926 713.374 736.179 709.056 737.917 C 705.578 744.199 713.126 755.017 718.349 758.291 C 720.557 759.675 720.549 761.489 720.609 763.693 C 715.867 774.17 697.732 780.746 686.922 779.339 C 666.374 776.665 663.457 774.762 664.075 796.793 C 645.554 793.417 628.106 791.857 609.424 790.132 C 593.595 789.587 580.067 789.764 564.293 790.27 C 575.047 778.824 579.063 773.88 585.413 759.629 C 601.872 759.06 631.626 761.68 647.184 756.285 C 650.509 755.896 657.398 742.505 657.743 742.329 C 673.762 734.151 678.084 741.924 683.306 720.632 C 685.184 720.936 688.802 721.633 690.564 721.611 C 712.678 721.34 715.028 680.329 715.557 666.152 L 722.861 659.833 z" fill="rgb(254,148,120)" transform="translate(0,0)"></path>
<path d="M 216.552 1235.32 L 327.634 1235.63 L 318.177 1289.24 L 315.855 1300.18 C 286.443 1299.91 257.028 1300.07 227.621 1300.69 C 224.503 1279.11 219.582 1257.12 216.552 1235.32 z" fill="rgb(230,128,80)" transform="translate(0,0)"></path>
<path d="M 1384.21 687.895 L 1410.41 689.725 C 1409.98 695.297 1407.86 713.944 1409.51 717.873 C 1412.49 720.374 1411.22 720.018 1414.65 720.312 C 1422.33 715.312 1422.98 685.242 1437.44 689.23 C 1456.35 694.45 1451.92 724.839 1437.76 733.092 C 1432.04 736.424 1425.5 731.585 1423.4 736.548 C 1433.16 749.748 1439.43 747.006 1449.22 735.025 C 1465.36 765.873 1490.38 779.468 1524.66 766.694 L 1524.39 782.173 C 1490.92 781.062 1463.74 782.985 1432.79 798.007 C 1431 789.732 1429.17 781.72 1425.91 773.846 C 1412.39 768.142 1396.43 748.38 1392.65 747.432 C 1391.6 748.128 1390.07 749.054 1389.16 749.853 L 1387.35 750.738 C 1378.21 723.634 1383.72 713.871 1384.21 687.895 z" fill="rgb(230,128,80)" transform="translate(0,0)"></path>
<path d="M 1431.71 716.618 C 1428.77 715.87 1428.89 715.914 1426.39 714.191 C 1424.31 706.922 1429.25 701.476 1436.07 699.591 C 1439.31 700.288 1437.95 699.485 1440.07 702.39 C 1439.52 706.505 1436.93 708.262 1433.85 711.966 L 1434.27 713.971 C 1439.19 716.905 1441.51 720.01 1438.26 725.359 L 1436.29 726.004 C 1432.12 723.678 1432.14 721.265 1431.71 716.618 z" fill="rgb(48,62,106)" transform="translate(0,0)"></path>
<path d="M 947.068 1230.03 L 1013.85 1230.09 L 1013.72 1301.24 L 947.118 1301.19 C 946.842 1277.62 947.068 1253.63 947.068 1230.03 z" fill="rgb(230,128,80)" transform="translate(0,0)"></path>
<path d="M 962.224 241.193 L 1089.71 241.165 L 1089.61 255.979 C 1085.14 255.902 1081.67 255.331 1077.87 257.446 L 1077.3 259.029 C 1080.71 262.49 1084.85 262.37 1089.86 263.097 C 1089.94 267.401 1089.86 274.333 1090.26 278.405 C 1071.93 277.114 968.974 279.543 962.85 277.071 L 961.687 274.076 C 962.051 270.747 962.045 263.751 963.914 262.137 C 968.312 262.063 969.446 262.79 972.65 260.605 L 972.951 258.564 C 969.822 255.838 966.804 256.187 962.167 255.806 L 962.224 241.193 z" fill="rgb(248,247,236)" transform="translate(0,0)"></path>
<path d="M 1024.21 245.852 C 1048.09 251.386 1024.56 275.14 1016.91 273.832 L 1016.24 271.818 L 1017.97 268.861 C 1022.01 264.598 1029.29 259.073 1027.67 253.307 C 1022.22 251.098 1022.57 257.968 1014.58 257.109 L 1013.81 255.695 C 1016.29 250.288 1019.05 248.266 1024.21 245.852 z" fill="rgb(59,70,79)" transform="translate(0,0)"></path>
<path d="M 574.95 798.437 C 600.6 796.224 637.515 800.394 662.64 804.291 C 650.435 821.635 636.297 827.927 616.899 834.333 C 585.37 840.934 544.061 835.818 530.15 802.389 C 544.966 800.16 560.002 799.219 574.95 798.437 z" fill="rgb(254,148,120)" transform="translate(0,0)"></path>
<path d="M 825.441 986.476 C 843.33 990.058 869.845 1005.28 878.888 1021.46 C 887.533 1036.92 896.201 1064.87 892.106 1082.2 C 889.57 1083.34 887.389 1084.28 884.901 1082.1 C 879.85 1077.7 874.959 1072.86 870.112 1068.2 C 859.461 1057.95 847.803 1052.15 834.663 1045.97 C 831.887 1025.72 828.563 1006.61 825.441 986.476 z" fill="rgb(254,254,253)" transform="translate(0,0)"></path>
<path d="M 290.724 1063.75 C 298.008 1072.7 301.35 1130.77 298.976 1143.46 C 295.706 1160.96 291.556 1181.09 288.501 1198.97 L 274.75 1198.95 C 271.175 1199.06 270.314 1199.21 266.902 1198.39 C 266.73 1198 266.558 1197.61 266.386 1197.22 C 263.415 1161.38 278.344 1093 290.724 1063.75 z" fill="rgb(33,122,158)" transform="translate(0,0)"></path>
<path d="M 202.63 1207 C 249.026 1206.83 295.423 1206.94 341.818 1207.32 C 341.943 1214.1 342.189 1220.53 341.555 1227.3 C 328.473 1228.32 297.673 1227.48 283.235 1227.26 C 258.016 1226.87 226.858 1227.98 202.297 1226.47 C 201.996 1219.03 202.107 1214.44 202.63 1207 z" fill="rgb(230,128,80)" transform="translate(0,0)"></path>
<path d="M 1490.56 791.38 C 1505.37 790.231 1516.08 789.398 1530.57 793.546 C 1537.99 801.978 1544.35 809.807 1551.33 818.621 C 1511.93 814.264 1501.94 811.461 1461.77 819.766 C 1439.69 824.826 1430.21 828.088 1409.14 835.93 C 1428.21 804.68 1456.22 795.592 1490.56 791.38 z" fill="rgb(230,128,80)" transform="translate(0,0)"></path>
<path d="M 650.81 607.654 C 652.524 601.967 654.749 596.588 659.648 592.957 C 664.238 589.556 671.302 588.112 674.642 593.703 C 672.444 596.355 670.245 595.161 666.172 595.749 C 657.183 597.047 657.65 607.674 653.909 612.711 C 650.061 617.893 640.762 603.673 632.093 605.778 C 628.675 606.343 624.666 609.064 622.936 612.366 C 616.947 623.792 623.232 629.841 631.159 635.068 C 612.191 659.933 644.201 676.061 650.644 665.581 C 650.409 662.606 646.301 658.328 644.3 654.145 C 643.641 643.156 652.686 638.863 658.82 631.328 C 657.494 630.145 657.885 630.59 656.91 628.941 C 667.458 626.546 674.475 629.606 682.073 636.485 C 710.32 614.833 721.719 644.639 708.213 652.174 C 705.36 647.984 710.774 635.304 701.319 633.767 C 695.69 632.852 688.445 637.123 683.111 638.588 C 688.716 653.563 679.293 672.038 660.725 668.851 C 653.165 667.554 654.934 671.39 650.059 673.395 C 635.391 679.43 625.5 667.555 619.7 655.979 C 605.652 662.261 608.475 669.374 602.458 671.085 L 600.912 669.855 C 599.652 659.904 612.534 654.685 619.865 651.883 C 619.567 644.453 621.834 641.227 621.92 635.682 C 619.957 633.216 615.938 629.38 615.33 626.348 C 612.647 612.951 620.39 601.999 634.516 601.438 C 642.369 601.126 644.664 603.233 650.81 607.654 z" fill="rgb(230,128,80)" transform="translate(0,0)"></path>
<path d="M 664.636 635.053 C 684.943 632.864 685.111 656.542 665.751 665.043 C 644.69 663.793 646.027 643.725 664.636 635.053 z" fill="rgb(48,62,106)" transform="translate(0,0)"></path>
<path d="M 1013.06 215.978 C 1021.16 227.112 1031.02 228.121 1039.23 216.561 C 1048.92 216.419 1080.73 215.385 1088.11 216.668 C 1089.81 219.398 1089.26 222.82 1089.21 226.234 C 1089.33 229.843 1089.68 231.155 1088.31 234.368 C 1083.22 235.484 1056.59 235.09 1049.46 235.095 L 962.287 235.129 C 962.329 228.828 962.41 222.528 962.531 216.228 L 1013.06 215.978 z" fill="rgb(230,128,80)" transform="translate(0,0)"></path>
<path d="M 962.519 282.361 C 970.182 283.513 978.92 283.018 986.76 283.095 C 1021.05 283.434 1055.47 282.701 1089.74 283.229 L 1089.71 297.794 C 1076.62 297.806 968.254 298.901 963.138 296.989 C 962.269 294.423 962.271 294.164 961.963 291.598 L 962.519 282.361 z" fill="rgb(230,128,80)" transform="translate(0,0)"></path>
<path d="M 224.066 1119.67 C 236.404 1131.69 254.599 1180.82 258.033 1198.73 L 225.965 1198.86 C 222.349 1179.44 221.893 1139.18 224.066 1119.67 z" fill="rgb(33,122,158)" transform="translate(0,0)"></path>
<path d="M 324.368 1115.7 C 330.787 1137.91 324.693 1176.54 319.194 1199.02 L 300.002 1199 L 298.584 1198.22 C 295.676 1181.12 314.797 1131.49 324.368 1115.7 z" fill="rgb(33,122,158)" transform="translate(0,0)"></path>
<path d="M 255.356 1072.74 C 257.743 1075.29 259.114 1081.1 260.6 1084.37 C 269.09 1103.08 264.824 1119.27 261.788 1138.54 C 260.334 1147.77 259.944 1157.57 258.113 1167.02 C 254.788 1159.71 247.637 1144.18 246.347 1136.93 C 243.061 1118.47 249.023 1090.06 255.356 1072.74 z" fill="rgb(33,122,158)" transform="translate(0,0)"></path>
<path d="M 545.648 743.97 C 558.338 745.404 555.701 749.681 565.865 757.396 C 567.908 758.947 573.473 761.074 576.092 762.1 C 571.757 770.165 568.008 774.52 562.271 781.467 C 561.374 782.815 560.452 784.147 559.507 785.462 C 556.31 789.903 552.957 793.964 547.679 790.106 C 543.602 782.621 545.492 754.652 545.648 743.97 z" fill="rgb(248,247,236)" transform="translate(0,0)"></path>
<path d="M 663.704 687.99 C 670.233 687.944 679.855 693.505 687.543 696.163 C 684.57 698.025 681.298 699.877 678.258 701.676 C 657.777 681.471 641.463 705.816 659.036 718.223 C 664.862 722.336 672.816 714.244 679.262 711.78 L 679.639 713.077 C 677.081 718.065 672.8 722.681 667.404 724.585 C 652.593 723.717 649.92 719.698 645.537 706.322 C 644.216 714.806 640.09 736.74 634.405 742.075 L 632.914 741.865 C 631.959 736.485 639.994 712.035 641.929 704.531 C 651.662 696.289 649.378 692.608 663.704 687.99 z" fill="rgb(230,128,80)" transform="translate(0,0)"></path>
<path d="M 555.757 691.37 C 564.343 678.238 580.188 676.103 594.114 680.787 L 595.046 681.941 C 590.616 683.345 581.912 681.176 577.067 680.276 C 567.726 683.654 562.732 685.985 557.026 694.57 C 547.571 719.106 578.354 733.068 587.522 750.232 C 574.594 749.81 552.772 720.9 551.268 707.935 C 550.359 700.105 551.657 697.412 555.757 691.37 z" fill="rgb(230,128,80)" transform="translate(0,0)"></path>
<path d="M 592.228 585.999 C 597.282 585.686 602.578 584.859 606.669 587.871 C 607.588 590.815 607.789 589.539 606.703 591.876 C 602.544 591.757 597.398 591.556 593.285 591.748 C 590.085 591.066 583.446 597.523 584.129 600.687 C 587.354 615.622 566.569 615.928 568.802 628.143 C 571.265 631.046 571.642 631.306 575.133 632.834 C 579.139 633.156 579.845 632.555 582.731 634.717 L 582.075 636.54 C 574.783 639.677 567.81 635.848 564.209 629.224 C 557.134 618.334 575.482 611.887 577.575 606.713 C 582.735 593.954 576.353 594.045 592.228 585.999 z" fill="rgb(230,128,80)" transform="translate(0,0)"></path>
<path d="M 1390.53 655.935 C 1399.35 660.619 1402.84 662.238 1408.96 669.953 C 1409.93 674.231 1411.37 677.362 1409.45 680.677 L 1406.76 680.671 L 1384.41 678.773 C 1386.08 671.344 1387.66 662.894 1390.53 655.935 z" fill="rgb(230,128,80)" transform="translate(0,0)"></path>
<path d="M 1312.77 1321.72 C 1314 1327.02 1312.85 1360.61 1312.66 1368.14 L 1297.29 1368.41 C 1297.16 1362.74 1310 1328.82 1312.77 1321.72 z" fill="rgb(254,148,120)" transform="translate(0,0)"></path>
<path d="M 931.06 1251.86 C 932.539 1251.84 935.287 1251.67 936.319 1252.51 C 940.941 1256.26 939.646 1278.57 937.57 1282.28 L 935.434 1282.36 C 923.862 1274.02 920.477 1262.65 931.06 1251.86 z" fill="rgb(254,254,253)" transform="translate(0,0)"></path>
<path d="M 699.935 660.409 C 714.813 669.96 707.06 678.718 701.895 689.574 C 699.978 693.602 700.186 707.547 695.318 710.413 C 692.218 705.126 692.409 707.029 692.491 701.313 C 690.83 698.125 690.824 699.286 691.64 696.532 L 690.705 697.509 C 690.51 696.187 690.573 696.66 691.032 695.259 C 692.951 696.253 694.396 696.832 696.373 697.626 L 697.802 696.763 L 698.071 693.728 C 696.907 690.473 695.505 689.886 692.634 687.87 L 691.587 687.142 L 691.663 685.946 C 695.765 683.765 700.064 682.136 702.126 677.838 C 704.793 672.281 700.942 670.631 697.532 666.912 C 697.308 663.213 697.491 664.248 699.935 660.409 z" fill="rgb(230,128,80)" transform="translate(0,0)"></path>
<path d="M 930.032 1239.15 C 934.095 1238.9 937.143 1238.43 939.964 1241.53 L 939.635 1243.68 C 928.653 1244.66 921.911 1245.74 918.255 1258.63 C 916.417 1265.28 917.425 1272.4 921.038 1278.28 C 925.669 1285.96 930.89 1288.83 939.043 1291 L 938.681 1294.48 C 928.533 1299.59 891.928 1257.06 930.032 1239.15 z" fill="rgb(254,148,120)" transform="translate(0,0)"></path>
<path d="M 998.738 1217.49 C 1003.35 1217.47 1011.25 1216.66 1015.07 1218.3 L 1015.59 1219.98 L 1014.48 1221.55 C 1008.4 1222.95 973.683 1222.22 965.232 1222.18 C 960.14 1222.24 947.82 1224.12 946.271 1219.21 C 949.628 1216.55 990.593 1217.52 998.738 1217.49 z" fill="rgb(246,200,177)" transform="translate(0,0)"></path>
<path d="M 749.935 623.767 C 768.885 633.413 752.027 665.908 723.437 646.951 C 721.9 644.291 720.546 642.799 721.03 639.862 C 724.091 638.723 734.55 648.326 741.103 647.619 C 756.769 645.93 749.848 633.1 749.935 623.767 z" fill="rgb(230,128,80)" transform="translate(0,0)"></path>
<path d="M 1361.23 686.983 C 1365.55 687.202 1370.29 687.675 1374.64 688.016 L 1372.77 714.792 L 1372.38 715.286 L 1371.28 715.419 C 1368.39 710.918 1363.12 693.008 1361.23 686.983 z" fill="rgb(230,128,80)" transform="translate(0,0)"></path>
<path d="M 800.472 875.604 C 812.161 880.905 816.301 911.63 814.695 922.937 C 814.344 922.793 813.969 922.696 813.64 922.506 C 812.382 921.781 802.193 880.902 800.472 875.604 z" fill="rgb(254,254,253)" transform="translate(0,0)"></path>
<path d="M 526.286 686.687 C 526.963 692.525 528.177 699.259 532.412 703.574 C 535.142 704.714 535.673 704.364 538.713 703.718 L 544.44 702.527 L 545.553 703.901 L 544.44 707.149 C 527.883 715.649 520.431 701.266 526.286 686.687 z" fill="rgb(230,128,80)" transform="translate(0,0)"></path>
<path d="M 586.026 690.574 C 600.227 694.081 595.964 710.296 590.247 719.552 C 585.049 716.593 592.664 708.086 590.69 703.472 C 587.846 696.825 582.91 699.181 586.026 690.574 z" fill="rgb(230,128,80)" transform="translate(0,0)"></path>
<path d="M 619.749 688.843 C 636.353 688.383 637.124 703.457 625.054 709.633 C 622.114 707.144 622.574 708.294 622.252 705.232 C 623.909 703.533 625.549 701.817 627.171 700.084 C 627.717 696.79 627.942 698.306 626.605 695.357 C 623.792 694.304 622.964 694.189 619.97 693.691 L 618.926 692.073 L 619.749 688.843 z" fill="rgb(230,128,80)" transform="translate(0,0)"></path>
<path d="M 1023.36 201.381 C 1026.45 200.273 1029.86 201.713 1031.22 204.693 C 1032.58 207.673 1031.43 211.198 1028.58 212.802 C 1026.51 213.966 1023.96 213.864 1021.98 212.54 C 1020.01 211.216 1018.95 208.894 1019.24 206.536 C 1019.53 204.178 1021.13 202.184 1023.36 201.381 z" fill="rgb(186,150,146)" transform="translate(0,0)"></path>
<path d="M 699.878 599.166 C 705.646 599.09 710.097 598.378 713.53 603.562 L 712.732 605.272 C 708.783 606.197 709.56 605.693 705.03 604.212 C 699.352 604.27 697.853 607.682 691.555 603.748 L 693.271 604.347 L 693.906 601.493 C 694.668 600.989 698.764 599.574 699.878 599.166 z" fill="rgb(230,128,80)" transform="translate(0,0)"></path>
<path d="M 728.915 621.457 C 731.66 622.161 733.068 623.485 733.794 626.053 C 732.572 629.369 730.576 630.098 727.508 632.031 C 725.519 632.068 725.96 631.805 723.736 630.626 L 723.194 628.286 C 724.358 624.318 725.451 623.879 728.915 621.457 z" fill="rgb(230,128,80)" transform="translate(0,0)"></path>
<path d="M 593.025 732.826 C 596.484 736.495 599.564 743.445 598.012 748.46 C 593.893 744.771 589.225 737.967 593.025 732.826 z" fill="rgb(230,128,80)" transform="translate(0,0)"></path>
<path d="M 1387.35 750.738 L 1389.16 749.853 C 1391.13 755.821 1395.47 757.717 1397.59 762.761 L 1396.33 762.825 C 1392.07 760.64 1389.26 754.972 1387.35 750.738 z" fill="rgb(59,70,79)" transform="translate(0,0)"></path>
<path d="M 1811.81 422.934 C 1816.29 422.68 1819.07 422.343 1822.57 425.08 C 1828.99 441.424 1843.61 431.295 1856.17 457.182 L 1934.96 456.834 C 1948.3 456.712 1963.02 456.022 1976.23 456.917 C 1988.71 457.764 1987.04 470.434 1976.84 476.122 C 1976.82 509.917 1979.48 713.981 1973.91 729.417 C 1968.51 732.746 1817.24 731.61 1802.87 731.687 L 1699.84 732.313 C 1687.36 732.44 1649.88 733.666 1640.57 731.623 C 1638.48 729.762 1637.11 727.391 1637.05 724.429 C 1635.46 643.358 1636.3 562.107 1635.19 480.993 C 1635.07 472.238 1627.52 470.852 1631.09 462.582 C 1632.61 459.063 1640.66 458.212 1643.96 458.101 C 1659.13 457.59 1674.4 457.69 1689.57 457.637 L 1776.69 457.314 C 1787.79 433.166 1801.86 438.73 1806.9 428.75 C 1808.21 426.137 1809.55 424.753 1811.81 422.934 z" fill="rgb(48,62,106)" transform="translate(0,0)"></path>
<path d="M 1856.19 475.48 L 1970.6 474.963 C 1969.55 558.182 1970.79 641.506 1969.44 724.776 C 1899.27 725.926 1826.86 725.391 1756.5 725.802 L 1642.61 726.675 L 1641.19 476.13 L 1856.19 475.48 z" fill="rgb(246,200,177)" transform="translate(0,0)"></path>
<path d="M 1661.79 490.394 C 1698.6 489.535 1735.62 490.113 1772.44 489.61 C 1777.92 489.536 1790.83 488.815 1794.28 493.124 C 1796.41 506.056 1794.63 554.438 1794.47 570.492 C 1794.45 572.028 1792.37 572.558 1791.18 573 C 1776.83 572.98 1663.44 574.894 1659.27 571.601 C 1656.69 563.32 1658.17 507.097 1658.18 493.821 C 1658.18 491.97 1660.24 491.258 1661.79 490.394 z" fill="rgb(48,62,106)" transform="translate(0,0)"></path>
<path d="M 1663.88 496.146 C 1704.33 495.978 1748.63 494.97 1788.78 496.012 L 1788.93 566.534 C 1777.25 566.92 1765.57 567.067 1753.89 566.974 C 1754 562.234 1754.51 558.599 1752.23 554.4 L 1750.73 554.722 C 1749.46 557.391 1746.28 565.641 1744.31 566.738 C 1740.62 561.391 1745.32 557.723 1742.37 553.093 C 1740.19 552.107 1740.3 551.995 1737.95 552.07 L 1735.76 552.294 L 1734.29 549.837 L 1733.2 547.849 C 1730.04 546.815 1731.08 547.135 1727 549.203 C 1727.68 554.36 1727.9 561.504 1726.43 566.51 C 1723.49 562.532 1724.97 538.963 1725.43 533.138 C 1722.24 531.138 1723.26 531.083 1720.34 531.523 C 1717.99 535 1717.93 559.87 1717.76 565.389 C 1715.81 560.34 1715.93 554.799 1713.02 551.979 L 1709.42 550.904 L 1708.27 550.473 L 1707.03 546.157 C 1703.55 544.045 1704.84 544.127 1701.53 544.636 C 1697.52 550.64 1703.91 563.593 1698.45 567.936 C 1683.31 568.318 1688.15 552.778 1681.23 546.11 C 1674.49 549.033 1673.55 565.696 1666.26 567.697 C 1664.19 565.941 1664.16 565.77 1664.09 562.098 C 1663.71 540.318 1663.88 517.883 1663.88 496.146 z" fill="rgb(254,254,253)" transform="translate(0,0)"></path>
<path d="M 1725.43 533.138 C 1725.71 537.514 1725.27 546.565 1727 549.203 C 1727.68 554.36 1727.9 561.504 1726.43 566.51 C 1723.49 562.532 1724.97 538.963 1725.43 533.138 z" fill="rgb(248,247,236)" transform="translate(0,0)"></path>
<path d="M 1734.29 549.837 L 1735.76 552.294 L 1737.95 552.07 C 1735.91 556.562 1737.98 559.551 1735.01 566.901 L 1734.34 566.477 C 1733.57 560.345 1733.96 556.024 1734.29 549.837 z" fill="rgb(248,247,236)" transform="translate(0,0)"></path>
<path d="M 1707.03 546.157 L 1708.27 550.473 L 1709.42 550.904 C 1709.42 553.792 1709.87 563.569 1708.01 565.195 C 1706.44 558.616 1706.88 552.875 1707.03 546.157 z" fill="rgb(248,247,236)" transform="translate(0,0)"></path>
<path d="M 1904.22 650.049 C 1919.61 649.856 1935.01 649.853 1950.4 650.038 C 1951.54 661.265 1952.5 701.487 1948.09 710.933 C 1940.73 711.748 1910.32 713.031 1904.52 710.063 C 1901.67 702.375 1903.8 660.402 1904.22 650.049 z" fill="rgb(48,62,106)" transform="translate(0,0)"></path>
<path d="M 1909.99 656.056 C 1921.3 655.937 1932.92 656.11 1944.26 656.14 C 1944.34 667.91 1945.1 694.391 1943.81 704.499 C 1932.59 705.016 1920.77 704.991 1909.49 705.136 C 1909.83 688.883 1909.84 672.336 1909.99 656.056 z" fill="rgb(254,254,253)" transform="translate(0,0)"></path>
<path d="M 1869.75 533.47 C 1880.06 533.288 1940.36 531.661 1944.91 534.71 L 1944.38 536.641 C 1941.68 538.787 1938.76 540.273 1935.25 540.147 C 1921.54 539.653 1907.83 539.878 1894.11 539.956 C 1883.52 540.032 1822.04 541.547 1817.67 538.508 L 1818.55 536.732 C 1822.04 534.419 1824.94 533.596 1829.11 533.703 C 1842.64 534.051 1856.22 533.684 1869.75 533.47 z" fill="rgb(48,62,106)" transform="translate(0,0)"></path>
<path d="M 1859.19 564.5 C 1871.52 564.386 1937.59 562.145 1943.43 565.847 L 1943.2 567.617 C 1938.46 571.298 1907.03 570.254 1899.35 570.355 C 1890.01 570.676 1824.52 572.409 1819.56 570.807 C 1817.09 568.303 1817.62 569.728 1817.49 566.565 C 1820.94 563.482 1852.94 564.529 1859.19 564.5 z" fill="rgb(48,62,106)" transform="translate(0,0)"></path>
<path d="M 1867.43 689.533 C 1871 689.266 1872.12 689.188 1875.64 689.528 C 1879.11 691.937 1878.45 690.816 1880.16 694.255 L 1878.62 695.873 C 1870.49 698.388 1809.11 697.041 1796.75 697.061 C 1791.17 697.288 1790.63 697.856 1787.26 693.681 L 1787.64 691.853 C 1791.61 689.389 1858.21 689.651 1867.43 689.533 z" fill="rgb(48,62,106)" transform="translate(0,0)"></path>
<path d="M 1713.73 659.515 C 1725.12 659.326 1737.71 658.989 1749.17 658.985 C 1751.63 658.985 1753.02 661.073 1754.29 662.693 L 1753.96 664.817 C 1749.63 667.798 1708.37 666.476 1700.56 666.417 C 1689.36 666.487 1675.63 666.732 1664.29 666.021 C 1662.34 665.9 1662.1 664.767 1661.25 663.379 L 1662.11 661.764 C 1669.25 658.412 1704 659.519 1713.73 659.515 z" fill="rgb(48,62,106)" transform="translate(0,0)"></path>
<path d="M 1760.83 626.37 C 1770.74 626.115 1840.8 624.506 1844.46 627.114 C 1845.02 630.405 1845.01 629.147 1843.75 632.494 C 1833.46 633.155 1765.37 634.148 1761.13 632.039 C 1759.81 629.095 1760.19 630.099 1760.83 626.37 z" fill="rgb(48,62,106)" transform="translate(0,0)"></path>
<path d="M 1663.92 627.458 C 1675.07 627.415 1731.91 625.088 1737.07 629.481 C 1736.73 632.828 1737.39 631.353 1734.6 633.845 C 1713.41 634.063 1691.96 634.441 1670.78 634.121 C 1666.71 634.06 1663.69 634.039 1661.07 631.226 L 1661.41 629.13 L 1663.92 627.458 z" fill="rgb(48,62,106)" transform="translate(0,0)"></path>
<path d="M 1815.76 505.037 C 1836.99 505.046 1858.49 504.993 1879.73 505.18 C 1883.26 505.211 1883.94 505.453 1885.76 507.548 L 1885.4 511.284 C 1879.1 512.475 1825.28 512.4 1817.68 511.76 C 1815.18 509.133 1816 509.764 1815.76 505.037 z" fill="rgb(48,62,106)" transform="translate(0,0)"></path>
<path d="M 1661.99 596.401 L 1717.98 595.928 C 1722.9 595.903 1725.39 595.213 1728.55 598.347 L 1728.43 602.05 C 1722.13 602.861 1668.18 603.581 1663 602.215 C 1661.24 599.654 1661.83 600.267 1661.99 596.401 z" fill="rgb(59,70,79)" transform="translate(0,0)"></path>
<path d="M 1782.74 658.009 C 1791.64 658.027 1830.56 656.752 1836.28 658.548 C 1838.18 661.463 1837.64 660.342 1836.96 664.778 C 1827.22 664.633 1790.76 665.887 1783.99 664.277 C 1781.8 661.552 1782.46 662.562 1782.74 658.009 z" fill="rgb(48,62,106)" transform="translate(0,0)"></path>
<path d="M 1826.85 595.065 C 1835.5 594.981 1865.91 594.195 1872.36 595.433 C 1874.05 598.33 1873.45 597.612 1872.83 601.851 C 1863.28 601.788 1835.37 603.475 1828.19 600.778 C 1825.97 598.274 1826.58 599.431 1826.85 595.065 z" fill="rgb(48,62,106)" transform="translate(0,0)"></path>
<path d="M 1791.52 595.5 C 1796.65 595.288 1800.69 594.096 1804.24 598.104 L 1803.95 599.766 C 1798.41 603.537 1774.63 602.259 1766.75 602.227 C 1762.72 602.434 1758.49 603.318 1755.77 600.115 L 1756.16 597.705 C 1760.07 594.19 1784.55 595.521 1791.52 595.5 z" fill="rgb(48,62,106)" transform="translate(0,0)"></path>
<path d="M 1739.53 690.484 C 1745.9 690.153 1753.38 688.65 1757.86 692.474 C 1757.93 695.457 1758.39 694.197 1756.58 696.427 C 1751.58 697.859 1735.05 697.252 1728.75 697.222 C 1722.64 697.509 1715.93 698.804 1711.31 695.455 C 1711.02 692.561 1710.67 693.824 1712.27 691.51 C 1716.91 690.183 1733.45 690.559 1739.53 690.484 z" fill="rgb(48,62,106)" transform="translate(0,0)"></path>
<path d="M 1898.24 593.171 C 1911.82 592.966 1925.82 592.637 1939.4 592.752 C 1943.05 592.783 1943.3 592.979 1945.1 595.002 L 1944.74 599.25 C 1935.54 599.226 1903.18 602.292 1897.99 596.966 L 1898.24 593.171 z" fill="rgb(48,62,106)" transform="translate(0,0)"></path>
<path d="M 1931.91 504.534 C 1936.19 504.194 1940.71 503.754 1944.16 506.532 C 1943.94 509.543 1944.44 508.1 1941.87 510.679 C 1934.91 512.17 1918.31 511.538 1910.5 511.49 C 1906.05 511.6 1903.64 512.214 1900.41 509.925 C 1900.3 506.449 1899.71 507.795 1901.65 505.535 C 1907.8 504.222 1924.65 504.6 1931.91 504.534 z" fill="rgb(48,62,106)" transform="translate(0,0)"></path>
<path d="M 1866.22 625.264 C 1874.16 624.946 1900.99 622.249 1905.76 626.989 L 1905.67 631.088 C 1897.03 631.344 1874.54 633.137 1867.5 630.925 C 1865.37 628.362 1865.95 629.519 1866.22 625.264 z" fill="rgb(48,62,106)" transform="translate(0,0)"></path>
<path d="M 1920.01 624.198 C 1927.79 624.339 1938.94 622.403 1945.61 624.976 C 1947.52 627.734 1946.98 626.668 1946.49 630.93 C 1939.09 630.777 1925.46 632.836 1919.89 629.539 C 1918.74 626.738 1919.04 627.75 1920.01 624.198 z" fill="rgb(48,62,106)" transform="translate(0,0)"></path>
<path d="M 1857.79 656.893 C 1864.61 656.645 1882.28 654.304 1885.56 660.369 L 1884.39 663.669 C 1877.28 663.826 1865.16 665.239 1859.07 662.634 C 1856.85 659.759 1857.35 661.182 1857.79 656.893 z" fill="rgb(48,62,106)" transform="translate(0,0)"></path>
<path d="M 1662.06 691.105 C 1666.2 690.909 1669.99 690.259 1673.29 692.412 C 1674.29 695.939 1674.11 694.612 1672.74 698.618 C 1668.87 698.752 1665.35 699.289 1662.13 697.388 C 1660.6 694.125 1660.97 695.4 1662.06 691.105 z" fill="rgb(59,70,79)" transform="translate(0,0)"></path>
<path d="M 1804.33 438.731 C 1813.24 439.81 1811.85 451.251 1826.31 438.757 C 1843.28 445.366 1844.28 446.547 1851.72 462.991 C 1865.45 462.938 1973.41 460.986 1977.35 463.813 C 1977.6 467.101 1978.07 465.76 1976.52 468.125 C 1968.76 470.762 1833.97 469.194 1818.25 469.243 L 1695.79 469.943 C 1685.43 469.959 1643.64 471.787 1637.75 467.627 L 1637.99 465.996 C 1644.83 462.278 1676.21 463.498 1686.38 463.404 C 1718.05 463.111 1749.73 463.005 1781.41 463.086 C 1781.95 461.675 1782.5 460.27 1783.07 458.871 C 1788.06 446.665 1792.63 443.631 1804.33 438.731 z" fill="rgb(254,254,253)" transform="translate(0,0)"></path>
<path d="M 170.94 307.003 C 178.62 306.194 208.682 305.649 215.103 308.428 C 221.688 315.047 218.684 319.199 221.499 326.785 L 220.667 325.269 L 221.135 326.602 C 223.738 324.934 222.841 310.585 226.475 309.157 C 236.714 305.132 264.042 306.015 274.765 308.322 C 279.029 309.24 279.867 322.178 281.434 326.994 C 282.384 325.864 282.89 319.924 282.89 317.763 C 282.893 299.679 317.116 308.167 328.835 307.409 C 339.799 306.7 336.943 321.913 340.477 327.053 C 344.276 323.415 341.616 315.205 345.373 310.367 C 354.388 303.855 374.31 307.529 384.442 306.987 C 405.047 305.885 396.528 316.43 401.483 326.181 C 401.978 327.155 419.895 327.923 421.112 340.656 C 422.753 357.819 421.947 374.762 421.913 391.892 L 421.532 498.213 C 433.857 498.482 445.867 498.025 458.238 498.9 C 458.603 506.282 458.431 511.565 458.087 518.859 C 446.619 519.201 434.356 519.081 422.82 519.176 C 422.498 532.181 427.918 562.467 411.057 565.499 C 400.932 555.782 403.99 532.677 404.078 519.076 L 162.91 518.964 C 163.002 529.366 165.544 559.451 154.263 564.09 C 142.245 560.479 144.756 528.748 144.867 519.268 C 134.263 519.296 96.43 524.922 105.668 503.995 C 109.75 494.748 150.208 498.272 160.025 498.42 L 159.962 383.515 C 159.97 373.877 159.315 340.29 160.491 332.872 C 170.004 321.921 157.533 317.928 170.94 307.003 z" fill="rgb(48,62,106)" transform="translate(0,0)"></path>
<path d="M 187.188 334.5 C 259.074 332.92 332.403 334.893 404.421 334.229 C 411.303 334.165 414.372 339.87 414.695 346.189 C 415.564 363.195 415.082 380.429 415.089 397.512 L 414.997 498.188 L 399.362 498.053 L 399.036 390.367 C 399.025 382.188 400.235 342.585 397.406 339.197 L 395.09 339.209 C 392.991 341.49 392.767 342.499 392.767 346.193 C 392.763 362.527 392.795 379.143 392.746 395.453 C 392.703 429.62 392.452 463.786 391.994 497.951 L 346.325 497.996 C 346.244 480.28 347.235 350.119 343.795 342.561 C 343.384 341.658 342.725 341.709 341.839 341.38 C 341.596 341.617 341.338 341.838 341.111 342.09 C 337.149 346.493 339.759 431.443 339.925 444.5 C 340.103 462.221 340.796 480.316 340.402 497.998 L 285.485 497.957 C 283.935 452.138 285.46 405.284 284.743 359.38 C 284.652 353.52 285.463 342.624 281.556 338.237 C 276.996 344.689 278.88 391.033 278.955 401.421 L 279.279 498.03 L 227.028 498.021 L 226.958 382.332 C 226.956 370.111 227.138 355.601 226.985 343.24 C 226.959 341.198 225.807 340.826 224.594 340.053 L 222.557 340.711 C 219.699 344.743 220.897 385.485 220.903 393.383 C 221.039 428.24 220.999 463.098 220.784 497.955 L 167.116 498.022 C 166.372 443.595 166.258 389.161 166.775 334.731 L 187.188 334.5 z" fill="rgb(254,148,120)" transform="translate(0,0)"></path>
<path d="M 289.147 352.012 C 296.674 351.967 324.04 350.56 328.915 354.104 C 332.004 362.015 331.955 439.714 330.241 448.219 C 322.987 449.222 297.986 450.042 291.299 447.517 C 287.75 443.436 288.941 363.338 289.147 352.012 z" fill="rgb(48,62,106)" transform="translate(0,0)"></path>
<path d="M 295.902 358.686 C 304.982 358.47 314.787 358.656 323.927 358.659 C 324.319 386.197 324.049 414.409 324.096 442.002 L 295.737 441.982 L 295.902 358.686 z" fill="rgb(254,254,253)" transform="translate(0,0)"></path>
<path d="M 175.137 352.408 C 183.61 352.208 208.16 350.028 213.371 355.544 C 215.811 367.866 213.735 424.08 213.673 439.62 C 213.664 441.84 212.133 442.496 210.751 443.429 C 199.696 443.818 182.879 443.77 172.113 443.143 C 170.65 415.687 172.063 385.723 172.064 358.1 C 172.064 355.392 173.502 354.287 175.137 352.408 z" fill="rgb(48,62,106)" transform="translate(0,0)"></path>
<path d="M 178.696 358.716 C 188.769 358.463 197.111 358.619 207.188 359.034 L 207.211 436.624 C 198.098 436.942 188.068 436.814 178.878 436.884 L 178.696 358.716 z" fill="rgb(254,254,253)" transform="translate(0,0)"></path>
<path d="M 233.614 352.148 C 242.078 351.965 266.297 350.068 272.33 354.949 C 273.349 358.211 273.962 363.069 273.93 368.19 C 273.813 387.267 274.501 407.349 273.476 426.411 C 272.962 426.951 272.447 427.49 271.932 428.029 C 263.646 428.065 238.64 429.158 232.848 426.916 C 228.256 425.138 230.49 365.375 230.77 357.626 C 230.838 355.748 232.583 353.425 233.614 352.148 z" fill="rgb(48,62,106)" transform="translate(0,0)"></path>
<path d="M 237.709 358.427 C 247.31 358.157 256.992 358.415 266.601 358.567 C 267.448 372.736 267.408 407.092 266.617 420.983 L 236.84 420.958 C 236.756 412.658 235.427 363.576 237.709 358.427 z" fill="rgb(254,254,253)" transform="translate(0,0)"></path>
<path d="M 353.629 352.134 C 354.233 352.106 354.837 352.082 355.442 352.061 C 361.952 351.854 383.715 350.35 387.426 353.824 C 388.548 356.978 389.7 362.342 389.511 367.677 C 388.978 382.719 391.141 402.837 387.895 417.452 C 386.491 418.893 385.356 420.059 384.489 420.949 C 372.627 421.227 362.054 421.069 350.182 420.717 C 350.049 419.322 349.958 417.922 349.909 416.521 C 349.511 403.51 348.166 368.758 350.758 355.216 C 351.88 354.011 352.837 352.984 353.629 352.134 z" fill="rgb(48,62,106)" transform="translate(0,0)"></path>
<path d="M 357.142 358.473 C 364.693 357.811 374.79 358.094 382.545 358.095 C 383.126 374.851 382.911 396.842 382.406 413.643 L 356.067 413.722 C 355.984 406.188 354.726 362.524 357.142 358.473 z" fill="rgb(254,254,253)" transform="translate(0,0)"></path>
<path d="M 232.982 445.899 C 246.034 445.698 259.089 445.749 272.14 446.051 C 272.303 458.635 272.242 471.222 271.955 483.804 C 264.546 484.982 241.597 484.446 232.971 484.389 L 232.982 445.899 z" fill="rgb(48,62,106)" transform="translate(0,0)"></path>
<path d="M 239.202 466.034 L 265.956 466.016 C 266.02 469.825 265.801 473.39 265.599 477.181 C 256.604 477.025 246.522 479.563 240.513 476.124 C 238.3 472.333 239.143 471.006 239.202 466.034 z" fill="rgb(254,148,120)" transform="translate(0,0)"></path>
<path d="M 239.974 452.482 C 248.033 452.53 256.837 450.67 264.017 453.312 C 265.855 456.344 265.214 455.652 264.829 460.027 C 257.978 459.85 244.872 461.791 239.719 458.562 C 238.783 455.088 239 456.313 239.974 452.482 z" fill="rgb(254,148,120)" transform="translate(0,0)"></path>
<path d="M 293.334 454.274 C 301.632 454.105 330.556 452.256 335.795 456.426 C 337.312 460.618 338.063 480.377 335.057 483.34 C 320.571 483.632 305.471 483.441 290.935 483.467 C 290.882 476.035 289.134 459.269 293.334 454.274 z" fill="rgb(48,62,106)" transform="translate(0,0)"></path>
<path d="M 297.014 461.076 L 330.328 461.051 L 330.269 477.218 L 297.037 477.232 L 297.014 461.076 z" fill="rgb(254,148,120)" transform="translate(0,0)"></path>
<path d="M 353.41 448.83 C 364.282 448.605 375.273 448.454 386 450.317 C 386.023 460.042 386.421 473.821 385.353 483.122 C 375.426 482.834 364.762 482.975 354.774 482.93 C 351.256 472.321 350.436 459.669 353.41 448.83 z" fill="rgb(48,62,106)" transform="translate(0,0)"></path>
<path d="M 358.221 456.118 L 379.347 456.19 C 379.409 462.161 379.579 467.564 378.881 473.528 C 372.177 473.71 365.441 473.542 358.733 473.438 C 358.08 468.304 358.247 461.448 358.221 456.118 z" fill="rgb(254,254,253)" transform="translate(0,0)"></path>
<path d="M 173.738 462.772 C 186.738 462.675 199.739 462.761 212.737 463.03 C 212.99 469.811 213.319 478.076 212.354 484.681 C 206.986 485.118 200.765 484.784 195.55 485.241 C 173.019 487.217 170.783 484.13 173.738 462.772 z" fill="rgb(48,62,106)" transform="translate(0,0)"></path>
<path d="M 178.955 469.973 C 188.107 470.177 197.512 468.253 205.445 471.043 C 207.765 473.798 206.982 474.363 206.999 478.701 C 198.08 478.635 188.035 480.68 180.52 477.535 C 178.225 474.651 178.982 474.311 178.955 469.973 z" fill="rgb(254,148,120)" transform="translate(0,0)"></path>
<path d="M 287.002 341.342 C 293.664 340.955 326.899 339.642 330.775 342.313 L 330.694 344.714 C 319.545 346.411 306.266 347.697 295.049 346.304 C 290.365 345.723 289.779 344.664 287.002 341.342 z" fill="rgb(230,128,80)" transform="translate(0,0)"></path>
<path d="M 345.751 345.462 C 355.619 344.089 366.89 345.106 376.738 346.484 C 371.648 347.464 350.635 347.555 345.751 345.462 z" fill="rgb(230,128,80)" transform="translate(0,0)"></path>
<path d="M 211.343 504.5 C 264.838 504.29 318.333 504.356 371.827 504.698 C 385.242 504.722 442.083 503.482 451.854 506.385 L 452.994 509.398 C 445.92 515.031 424.095 512.905 414.58 512.874 L 352.5 512.756 L 192.968 512.615 L 142.264 512.786 C 134.636 512.837 113.866 515.938 111.563 507.497 C 115.774 503.524 140.489 504.809 147.303 504.776 L 211.343 504.5 z" fill="rgb(254,254,253)" transform="translate(0,0)"></path>
<path d="M 351.431 314.046 C 358.182 313.962 388.919 312.466 392.844 315.788 C 393.855 320.113 393.295 322.807 392.807 327.152 C 384.845 327.232 356.76 327.978 350.896 326.408 C 348.822 322.231 349.912 318.243 351.431 314.046 z" fill="rgb(254,254,253)" transform="translate(0,0)"></path>
<path d="M 172.111 314.02 C 181.562 313.819 223.898 308.484 211.751 327.448 C 198.368 327.694 184.982 327.665 171.6 327.361 C 171.209 321.371 171.072 319.912 172.111 314.02 z" fill="rgb(254,254,253)" transform="translate(0,0)"></path>
<path d="M 291.358 313.984 C 298.907 313.896 326.22 312.695 331.253 315.648 C 332.675 319.424 332.087 323.168 331.889 327.291 C 324.738 327.326 296.428 327.949 290.689 326.605 C 288.647 322.871 290.027 317.79 291.358 313.984 z" fill="rgb(254,254,253)" transform="translate(0,0)"></path>
<path d="M 230.953 313.989 C 241.994 314.09 264.396 311.145 271.142 316.945 C 273.071 320.202 272.334 323.369 272.067 327.322 L 230.967 327.286 C 230.713 323.782 230.924 317.71 230.953 313.989 z" fill="rgb(254,254,253)" transform="translate(0,0)"></path>
<path d="M 410.169 518.5 C 412.784 518.783 413.665 519.004 416.214 519.705 C 418.482 525.489 416.993 549.151 414.976 555.831 C 412.853 556.444 413.923 556.446 411.734 555.341 C 408.875 548.904 410.042 526.928 410.169 518.5 z" fill="rgb(254,254,253)" transform="translate(0,0)"></path>
<path d="M 151.348 518.275 C 153.555 518.629 153.581 518.657 155.635 519.559 C 158.558 526.719 156.677 546.372 155.472 554.42 C 154.545 554.365 154.054 553.922 153.104 553.419 C 149.642 546.415 151.073 527.106 151.348 518.275 z" fill="rgb(254,254,253)" transform="translate(0,0)"></path>
<path d="M 248.319 623.413 C 252.666 624.045 251.777 623.249 254.373 625.79 C 256.396 631.537 255.546 639.66 255.493 646.114 C 272.814 646.401 300.676 644.754 317.986 647.145 C 319.413 647.342 319.303 647.889 319.925 649.252 L 318.766 651.146 C 313.655 654.287 293.398 653.006 285.971 652.95 L 285.898 686.976 C 274.154 687.531 259.465 687.127 247.5 687.12 C 237.536 687.113 182.033 688.016 176.574 686.05 L 175.787 684.147 L 176.659 682.474 C 183.31 678.684 209.232 680.102 218.325 680.074 C 218.531 672.113 217.017 654.954 220.202 649.189 C 225.642 644.237 240.237 645.97 248.172 646.138 C 248.087 638.562 248.137 630.986 248.319 623.413 z" fill="rgb(33,122,158)" transform="translate(0,0)"></path>
<path d="M 225.725 653.077 C 243.229 652.805 261.225 652.973 278.769 652.933 L 278.647 680.142 C 262.013 680.665 242.592 680.181 225.744 680.168 L 225.725 653.077 z" fill="rgb(248,247,236)" transform="translate(0,0)"></path>
<path d="M 1852.45 129.499 L 1855.37 130.2 C 1859.72 135 1858.03 146.818 1857.9 153.998 C 1868.63 153.926 1914.68 151.931 1920.11 156.987 L 1919.66 158.615 C 1915.49 161.866 1898.66 160.765 1892.57 160.719 C 1892.48 171.015 1892.46 181.033 1891.79 191.312 C 1879.21 192.364 1861.7 191.873 1848.75 191.873 C 1839.57 191.919 1787.75 193.083 1783.72 190.334 L 1783.43 188.492 L 1785.23 186.273 C 1789.63 184.175 1814.6 185.305 1820.89 185.346 C 1820.92 174.992 1821.02 164.637 1821.19 154.284 C 1828.91 153.601 1842.44 153.971 1850.59 153.969 C 1850.83 147.324 1849.67 134.885 1852.45 129.499 z" fill="rgb(33,122,158)" transform="translate(0,0)"></path>
<path d="M 1828.03 161.051 L 1884.97 160.976 C 1885.25 168.711 1885.05 177.246 1885.03 185.045 L 1827.87 185.175 C 1827.83 177.134 1827.88 169.092 1828.03 161.051 z" fill="rgb(248,247,236)" transform="translate(0,0)"></path>
<path d="M 400.615 773.648 C 402.999 772.455 405.899 773.363 407.177 775.701 C 408.456 778.04 407.654 780.971 405.363 782.333 C 403.806 783.26 401.867 783.261 400.308 782.338 C 398.748 781.414 397.818 779.713 397.882 777.902 C 397.946 776.091 398.995 774.459 400.615 773.648 z" fill="rgb(59,70,79)" transform="translate(0,0)"></path>
<path d="M 417.49 773.427 C 419.173 772.855 421.033 773.23 422.362 774.41 C 423.69 775.59 424.283 777.393 423.914 779.131 C 423.544 780.869 422.27 782.275 420.576 782.813 C 417.995 783.632 415.234 782.22 414.388 779.647 C 413.542 777.074 414.926 774.3 417.49 773.427 z" fill="rgb(59,70,79)" transform="translate(0,0)"></path>
<path d="M 1595.06 301.559 C 1597.55 301.137 1599.94 302.688 1600.57 305.128 C 1601.21 307.568 1599.86 310.085 1597.49 310.923 C 1595.76 311.532 1593.83 311.115 1592.51 309.845 C 1591.19 308.575 1590.7 306.668 1591.24 304.916 C 1591.77 303.164 1593.26 301.865 1595.06 301.559 z" fill="rgb(48,62,106)" transform="translate(0,0)"></path>
<path d="M 431.451 774.629 C 432.718 773.477 434.514 773.111 436.13 773.675 C 437.747 774.239 438.926 775.642 439.202 777.332 C 439.478 779.022 438.807 780.727 437.454 781.776 C 435.472 783.313 432.63 783.01 431.016 781.089 C 429.403 779.168 429.595 776.316 431.451 774.629 z" fill="rgb(59,70,79)" transform="translate(0,0)"></path>
<path d="M 1607.57 301.797 C 1609.89 300.693 1612.66 301.691 1613.75 304.019 C 1614.84 306.347 1613.82 309.114 1611.48 310.184 C 1609.17 311.243 1606.44 310.239 1605.36 307.934 C 1604.29 305.63 1605.27 302.889 1607.57 301.797 z" fill="rgb(48,62,106)" transform="translate(0,0)"></path>
<path d="M 1580.06 302.571 C 1582.24 301.319 1585.02 302.075 1586.26 304.256 C 1587.51 306.438 1586.75 309.218 1584.56 310.459 C 1582.39 311.695 1579.62 310.936 1578.38 308.762 C 1577.14 306.588 1577.89 303.819 1580.06 302.571 z" fill="rgb(59,70,79)" transform="translate(0,0)"></path>
<metadata><recraft-signature>{"signed_by": "recraft", "signature_b64": "QQl9vCjZfze6kg3R73jSP7B9sD5O1AkOwjk6DP2GNhU7h72sPgSD5azLACliTDx0BUR4N4kjTAXIk0VvmfQoDw==", "signing_algo": "Ed25519", "generation_timestamp": 1776427240, "identifier": "d5cf4f0f-afb8-4d44-84ae-af29e306f767"}</recraft-signature></metadata></svg>