<svg xmlns="http://www.w3.org/2000/svg" height="1024" preserveAspectRatio="none" style="display: block;" version="1.1" viewBox="0 0 2048 1536" width="1365">
<path d="M 0 0 L 2048 0 L 2048 1536 L 0 1536 L 0 0 z" fill="rgb(254,254,254)" transform="translate(0,0)"></path>
<path d="M 1078.96 409.646 C 1085.86 390.736 1093.27 377.772 1103.48 360.35 C 1143.08 292.79 1200.49 242.357 1271.29 209.368 C 1361.91 167.762 1465.25 163.433 1559.04 197.313 C 1837.27 299.519 1898.64 630.418 1696.13 838.143 C 1688.28 846.201 1675.26 855.465 1669.06 862.588 L 1669.04 863.344 C 1677.58 885.161 1688.54 913.523 1694.13 936.082 C 1699.34 957.146 1702.01 985.333 1704.36 1007.26 C 1713.75 1008.64 1729.06 1019.49 1735.61 1026.18 C 1768.32 1059.57 1789.12 1112.41 1755.9 1152.67 C 1761.1 1167.97 1764.56 1180.71 1768.59 1196.27 L 1787.76 1196.28 C 1787.86 1148.11 1792.98 1091.93 1796.16 1043.47 C 1730.79 1034.1 1716.24 919.495 1725.29 867.112 C 1732.76 823.863 1754.54 767.16 1780.22 731.911 C 1858.14 802.481 1904.72 930.153 1831.88 1022.6 C 1823.09 1033.76 1812.37 1039.35 1799.11 1043.55 C 1795.32 1094.96 1791.26 1144.57 1790.51 1196.18 L 1808.63 1196.17 C 1810.02 1176.32 1817.83 1146.76 1824.54 1127.98 C 1822.62 1120.5 1818.35 1114.19 1815.97 1107.14 C 1794.76 1044.09 1874.97 993.848 1920.42 972.504 C 1932.19 1013.06 1927.24 1051.4 1907.14 1088.75 C 1891.92 1117.04 1861.97 1147.59 1827.15 1129.83 C 1820.87 1147.02 1812.59 1177.9 1811.42 1196.09 C 1835.3 1196.05 1862.74 1195.36 1886.35 1196.34 L 1886.72 1230.75 L 1872.86 1230.73 C 1870.43 1268.04 1867.68 1298.51 1858.29 1335 C 1863.25 1334.89 1871.23 1333.67 1874.77 1335.47 C 1876.86 1338.99 1876.16 1340.92 1875.95 1345.47 C 1880.52 1351.54 1921.69 1341.34 1927.44 1349.84 C 1934.06 1359.62 1921.26 1361.93 1914.69 1361.96 C 1898.81 1362.05 1883.2 1361.88 1867.45 1361.85 L 1775.6 1361.79 L 1542.65 1361.28 C 1433.06 1360.09 1320.88 1361.94 1210.94 1361.92 L 434.683 1361.95 L 200.129 1361.99 C 176.747 1362.05 153.334 1362.09 129.957 1362.49 C 122.014 1362.62 109.608 1362.5 114.09 1350.53 C 117.609 1346.46 117.724 1347.18 122.469 1346.65 C 136.61 1345.09 232.474 1349.57 238.677 1345.97 C 235.251 1336.46 232.144 1326.76 229.091 1317.12 C 217.04 1279.06 217.366 1240.27 211.775 1201.14 C 210.365 1197.89 208.12 1175.47 207.658 1170.87 C 201.034 1104.93 201.856 1051.84 211.498 986.211 C 198.359 971.696 173.844 923.592 164.96 904.631 C 111.552 790.981 106 660.649 149.548 542.868 C 194.238 423.293 284.249 326.146 400.074 272.481 C 497.17 227.63 606.182 215.438 710.787 237.732 C 741.85 244.44 761.683 251.349 791.064 262.103 C 801.294 220.728 837.833 193.924 880.322 195.976 C 903.34 197.286 924.861 207.808 940.031 225.169 C 975.395 264.958 965.024 316.02 926.806 349.341 C 941.716 364.815 971.837 393.869 982.924 409.701 L 983.055 408.379 C 983.919 399.237 982.989 390.007 983.502 381.032 C 984.731 359.556 1010.35 352.083 1022.94 369.439 C 1031.61 381.398 1024.11 399.947 1028.28 411.349 L 1033.7 410.237 C 1039.86 408.964 1071.13 409.59 1078.96 409.646 z" fill="rgb(68,30,45)" transform="translate(0,0)"></path>
<path d="M 1446.47 450.835 C 1462.97 451.07 1479.47 451.109 1495.98 450.951 C 1496.22 483.061 1496.22 515.172 1495.97 547.282 C 1476.42 542.031 1459.99 545.886 1453.7 567.593 C 1450.42 578.921 1456.57 586.017 1455.1 594.335 C 1448.73 605.775 1446.16 612.475 1434.73 619.479 L 1434.28 621.358 C 1436.57 623.762 1438.22 624.055 1441.42 625.283 C 1439.37 645.655 1439.61 659.857 1453.37 676.803 C 1454.35 678.009 1455.37 679.185 1456.42 680.329 C 1459.72 683.527 1459.74 690.251 1460.62 694.855 C 1462.51 704.8 1464.55 715.612 1469.18 724.671 C 1395.24 747.009 1364.05 810.187 1336.09 876.362 C 1291.56 863.293 1263.01 827.663 1229.91 797.553 C 1217.67 786.409 1154.43 736.803 1141.31 741.282 C 1135.81 748.463 1146.2 757.64 1151.54 762.219 C 1160.53 769.936 1170.6 780.106 1180.09 786.906 C 1169.49 791.821 1152.51 800.314 1148.37 812.228 C 1146.07 818.874 1154.24 818.391 1146.28 825.524 C 1143.61 837.818 1168.67 846.429 1178.05 848.402 C 1186.35 859.672 1194.99 871.13 1202.94 882.613 C 1203.05 886.592 1203.45 893.787 1203.17 897.489 C 1203.59 902.418 1203.48 928.27 1204.66 930.585 L 1205.47 930.715 C 1214.09 930.909 1227.73 931.407 1236.14 930.322 C 1252.12 948.592 1269.12 965.937 1287.07 982.273 C 1283.49 989.717 1288.88 1002.93 1283.42 1007.84 C 1273.47 1011.79 1219.97 1009.78 1205.46 1010.05 C 1206.94 1024.21 1206.01 1055.21 1205.92 1070.5 L 1203.95 1070.32 L 1202.99 1070.38 L 1201.95 1070.46 C 1187.57 1071.55 1143.41 1067.42 1131.89 1073.1 C 1128.74 1074.66 1129.9 1103.59 1130.3 1110.24 C 1108.69 1108.72 1079.34 1110.53 1057.06 1109.76 C 1049.63 1109.5 1012.58 1109.4 1006.52 1110.49 C 1004.14 1106.01 1003.88 1105.43 999.73 1102.29 C 1000.59 1072.3 1000.03 1040.18 1000.04 1010.05 L 998.13 1009.95 C 997.044 1039.15 997.882 1072.61 997.938 1102.11 C 993.401 1105.28 993.692 1105.69 991.046 1110.22 C 982.589 1109.21 957.424 1109.85 948.015 1109.86 L 863.361 1109.96 C 863.001 1095.73 869.257 1068.33 850.075 1067.26 C 830.277 1066.16 809.902 1066.74 790.008 1066.83 C 790.225 1044.22 790.227 1021.59 790.013 998.976 C 795.62 994.982 812.359 986.191 819.916 981.888 C 841.138 969.803 886.476 935.224 897.389 913.693 C 872.94 893.231 870.455 890.608 855.267 862.754 C 845.999 866.882 827.805 879.198 819.02 881.373 C 817.763 881.91 816.027 882.582 814.864 883.203 L 813.995 884.739 L 811.123 885.383 C 798.367 893.199 779.333 901.381 765.366 907.747 L 764.352 907.537 C 763.295 904.955 763.485 862.988 763.405 856.788 C 762.34 870.209 763.176 894.669 763.215 908.771 C 754.561 909.824 745.409 910.176 737.236 906.202 C 684.267 880.449 659.134 812.103 617.47 772.468 C 583.057 739.731 561.555 729.469 518.097 715.784 C 517.861 703.542 517.746 691.299 517.753 679.055 C 530.94 672.719 532.772 668.804 533.929 654.702 C 534.813 633.551 534.403 613.752 517.202 599.176 C 534.608 580.295 534.279 562.253 517.28 543.102 C 517.935 523.597 518.168 504.081 517.979 484.566 C 517.954 474.983 517.788 465.07 517.941 455.482 C 517.992 452.275 518.368 452.174 520.214 450.652 C 535.251 451.735 558.219 451.086 573.853 451.068 L 670.917 450.996 L 981.549 450.981 L 1296.99 450.991 L 1396.15 451.032 C 1410.54 451.041 1432.68 451.75 1446.47 450.835 z" fill="rgb(254,254,254)" transform="translate(0,0)"></path>
<path d="M 948.826 825.536 C 963.248 817.46 984.896 808.248 997.3 799.655 C 998.474 837.977 997.589 876.489 998.062 914.834 C 998.122 919.677 997.938 924.755 998.2 929.562 L 1000.02 929.67 C 1000.32 929.707 1000.61 929.748 1000.9 929.782 C 1011.98 931.062 1054.27 926.804 1059.73 932.936 C 1061.33 934.732 1061.71 937.127 1061.95 939.437 C 1062.63 945.768 1061.74 952.42 1061.77 958.788 C 1061.84 971.723 1063.51 986.366 1061.82 999.107 C 1061.41 1002.21 1060.58 1006.14 1057.91 1008.14 C 1052.33 1012.31 1010.77 1009.34 1000.04 1010.05 L 998.13 1009.95 C 997.044 1039.15 997.882 1072.61 997.938 1102.11 C 993.401 1105.28 993.692 1105.69 991.046 1110.22 C 982.589 1109.21 957.424 1109.85 948.015 1109.86 L 863.361 1109.96 C 863.001 1095.73 869.257 1068.33 850.075 1067.26 C 830.277 1066.16 809.902 1066.74 790.008 1066.83 C 790.225 1044.22 790.227 1021.59 790.013 998.976 C 795.62 994.982 812.359 986.191 819.916 981.888 C 841.138 969.803 886.476 935.224 897.389 913.693 C 901.306 906.786 916.094 897.842 922.361 891.76 C 926.199 888.037 928.693 884.992 932.079 880.816 C 950.882 904.107 980.455 864.631 948.826 825.536 z" fill="rgb(254,254,254)" transform="translate(0,0)"></path>
<path d="M 998.2 929.562 L 1000.02 929.67 C 1000.32 929.707 1000.61 929.748 1000.9 929.782 C 1011.98 931.062 1054.27 926.804 1059.73 932.936 C 1061.33 934.732 1061.71 937.127 1061.95 939.437 C 1062.63 945.768 1061.74 952.42 1061.77 958.788 C 1061.84 971.723 1063.51 986.366 1061.82 999.107 C 1061.41 1002.21 1060.58 1006.14 1057.91 1008.14 C 1052.33 1012.31 1010.77 1009.34 1000.04 1010.05 L 998.13 1009.95 C 988.038 1009.97 943.103 1011.94 937.738 1007.6 C 934.295 998.016 934.571 941.378 938.281 931.773 C 946.081 927.715 986.077 931.257 998.2 929.562 z" fill="rgb(250,203,87)" transform="translate(0,0)"></path>
<path d="M 800.783 520.409 C 830.754 521.272 861.22 520.295 891.197 520.597 C 899.377 520.679 923.303 520.001 929.959 521.028 L 930.586 522.534 C 930.767 530.681 929.576 549.691 932.707 555.091 C 948.099 562.604 1046.34 557.425 1069.08 557.621 C 1076.29 557.683 1073.8 528.112 1074.35 522.475 C 1105.05 524.458 1138.03 521.419 1168.75 522.633 C 1179.24 523.048 1207.46 519.865 1212.65 528.959 C 1220.16 542.127 1216.71 575.069 1216.82 590.72 C 1202.37 590.683 1151.59 588.125 1142.68 595.116 C 1138.19 602.311 1140.37 624.085 1140.03 633.851 L 902.023 634.14 C 893.288 634.907 877.556 636.019 868.989 635.169 L 868.873 634.342 C 861.481 627.81 872.488 600.388 863.91 591.372 C 857.604 584.745 803.33 588.282 790.763 587.876 L 788.31 588.364 C 788.415 575.152 787.992 561.893 788.16 548.694 C 788.329 535.372 787.033 526.079 800.783 520.409 z" fill="rgb(254,254,254)" transform="translate(0,0)"></path>
<path d="M 800.783 520.409 C 830.754 521.272 861.22 520.295 891.197 520.597 C 899.377 520.679 923.303 520.001 929.959 521.028 L 930.586 522.534 L 929.462 522.638 C 919.526 523.514 903.326 523.085 892.94 523.043 L 831.923 522.803 C 816.585 522.756 791.027 517.34 790.793 537.603 C 790.6 554.383 791.221 571.166 790.763 587.876 L 788.31 588.364 C 788.415 575.152 787.992 561.893 788.16 548.694 C 788.329 535.372 787.033 526.079 800.783 520.409 z" fill="rgb(68,30,45)" transform="translate(0,0)"></path>
<path d="M 868.873 634.342 C 880.087 634.093 890.813 633.837 902.023 634.14 C 893.288 634.907 877.556 636.019 868.989 635.169 L 868.873 634.342 z" fill="rgb(88,86,87)" transform="translate(0,0)"></path>
<path d="M 788.31 588.364 L 790.763 587.876 C 803.33 588.282 857.604 584.745 863.91 591.372 C 872.488 600.388 861.481 627.81 868.873 634.342 L 868.989 635.169 L 868.414 635.851 C 875.371 636.108 882.332 636.236 889.294 636.235 C 881.501 636.773 874.592 636.801 866.818 636.82 C 866.89 645.624 868.364 672.225 864.824 678.909 C 856.317 685.331 805.03 682.577 790.717 682.735 L 790.62 786.758 C 790.623 802.749 791.389 828.018 790.33 843.391 C 789.429 825.275 791.63 686.998 789.026 682.56 C 769.404 681.842 738.32 684.685 720.521 680.307 C 713.591 678.603 714.696 600.738 719.569 591.907 C 727.649 586.486 775.932 588.074 788.31 588.364 z" fill="rgb(240,99,100)" transform="translate(0,0)"></path>
<path d="M 1093.51 520.345 L 1165.68 520.05 C 1198.25 519.957 1222.75 513.222 1219.39 554.746 C 1218.58 564.8 1219.13 580.407 1219.24 590.9 C 1226.44 590.855 1278.57 588.758 1280.51 594.197 C 1283.89 603.637 1284.64 672.69 1278.53 678.209 C 1266.36 680.631 1152.33 681.024 1143.13 677.677 C 1137.79 670.319 1140.09 646.11 1139.98 636.048 L 889.294 636.235 C 882.332 636.236 875.371 636.108 868.414 635.851 L 868.989 635.169 C 877.556 636.019 893.288 634.907 902.023 634.14 L 1140.03 633.851 C 1140.37 624.085 1138.19 602.311 1142.68 595.116 C 1151.59 588.125 1202.37 590.683 1216.82 590.72 C 1216.71 575.069 1220.16 542.127 1212.65 528.959 C 1207.46 519.865 1179.24 523.048 1168.75 522.633 C 1138.03 521.419 1105.05 524.458 1074.35 522.475 L 1074.44 521.826 C 1076.78 520.477 1089.36 520.607 1093.51 520.345 z" fill="rgb(68,30,45)" transform="translate(0,0)"></path>
<path d="M 1147.59 593.186 C 1182.17 592.524 1217.05 593.597 1251.65 593.002 C 1257.5 592.902 1275.01 591.987 1278.63 596.961 C 1281.88 607.22 1279.53 658.055 1279.63 672.924 C 1279.65 675.076 1276.81 676.239 1275.1 677.082 C 1255.57 677.368 1154.71 679.81 1144.08 675.075 C 1139.81 665.814 1144.27 616.35 1142.39 603.29 C 1141.81 599.249 1144.53 595.743 1147.59 593.186 z" fill="rgb(216,223,225)" transform="translate(0,0)"></path>
<path d="M 930.585 520.17 C 930.568 510.656 928.748 491.37 933.34 482.945 C 934.579 480.673 944.92 479.711 947.857 479.688 C 979.663 479.437 1011.56 479.663 1043.37 479.659 C 1049.29 479.658 1067.74 479.208 1071.01 482.95 C 1075.88 488.532 1074.1 513.101 1074.03 520.297 C 1080.67 520.087 1086.89 520.211 1093.51 520.345 C 1089.36 520.607 1076.78 520.477 1074.44 521.826 L 1074.35 522.475 C 1073.8 528.112 1076.29 557.683 1069.08 557.621 C 1046.34 557.425 948.099 562.604 932.707 555.091 C 929.576 549.691 930.767 530.681 930.586 522.534 L 929.959 521.028 C 923.303 520.001 899.377 520.679 891.197 520.597 C 861.22 520.295 830.754 521.272 800.783 520.409 C 809.57 519.559 833.176 520.149 843.312 520.141 L 930.585 520.17 z" fill="rgb(250,203,87)" transform="translate(0,0)"></path>
<path d="M 1203.17 897.489 C 1203.59 902.418 1203.48 928.27 1204.66 930.585 L 1205.47 930.715 C 1214.09 930.909 1227.73 931.407 1236.14 930.322 C 1252.12 948.592 1269.12 965.937 1287.07 982.273 C 1283.49 989.717 1288.88 1002.93 1283.42 1007.84 C 1273.47 1011.79 1219.97 1009.78 1205.46 1010.05 C 1206.94 1024.21 1206.01 1055.21 1205.92 1070.5 L 1203.95 1070.32 L 1202.99 1070.38 C 1202.79 1050.27 1202.78 1030.15 1202.94 1010.04 C 1182.38 1010.11 1154.69 1011.64 1135.1 1007.9 C 1129.42 1006.81 1130.99 937.166 1134.23 931.894 C 1141.19 928.412 1192.42 930.175 1202.98 930.242 C 1202.85 919.714 1202.45 907.866 1203.17 897.489 z" fill="rgb(248,182,182)" transform="translate(0,0)"></path>
<path d="M 1203.95 1070.32 C 1203.91 1061.17 1203.16 1016.26 1204.32 1010.04 L 1205.46 1010.05 C 1206.94 1024.21 1206.01 1055.21 1205.92 1070.5 L 1203.95 1070.32 z" fill="rgb(68,30,45)" transform="translate(0,0)"></path>
<path d="M 998.803 774.326 C 987.4 774.009 953.233 775.58 945.341 772.203 C 941.323 767.878 942.34 699.026 945.13 691.079 C 950.583 687.607 1047.62 687.885 1055.33 691.335 C 1057.61 697.872 1056.61 765.952 1054.16 772.128 C 1046.54 779.39 1014.22 771.609 1002.19 775.05 C 1000.14 778.036 1000.6 780.439 1000.22 784.507 C 1000.19 780.52 1000.54 777.876 998.803 774.326 z" fill="rgb(248,182,182)" transform="translate(0,0)"></path>
<path d="M 998.803 774.326 C 1000.54 777.876 1000.19 780.52 1000.22 784.507 C 999.972 798.543 999.932 812.897 999.944 826.981 L 1000.02 929.67 L 998.2 929.562 C 997.938 924.755 998.122 919.677 998.062 914.834 C 997.589 876.489 998.474 837.977 997.3 799.655 C 984.896 808.248 963.248 817.46 948.826 825.536 C 980.455 864.631 950.882 904.107 932.079 880.816 C 928.693 884.992 926.199 888.037 922.361 891.76 C 916.094 897.842 901.306 906.786 897.389 913.693 C 872.94 893.231 870.455 890.608 855.267 862.754 C 845.999 866.882 827.805 879.198 819.02 881.373 C 829.709 872.862 848.855 864.359 860.313 856.519 C 874.114 847.076 894.645 830.529 905.418 817.783 C 911.781 810.254 917.791 799.284 924.972 790.846 C 927.925 790.468 926.476 790.274 929.372 791.905 C 932.155 797.988 929.938 802.736 928.039 809.11 C 945.597 802.763 980.9 788.828 997.883 788.758 C 997.851 782.796 997.837 780.176 998.803 774.326 z" fill="rgb(68,30,45)" transform="translate(0,0)"></path>
<path d="M 991.049 791.29 C 993.749 791.162 994.371 790.951 996.846 792.153 L 997.266 794.068 C 989.989 805.39 960.087 813.694 949.352 822.72 C 949.096 822.936 947.583 824.52 947.623 824.642 C 952.079 838.109 962.006 847.917 960.832 863.794 C 960.482 870.408 957.864 876.638 952.595 880.919 C 947.268 885.247 940.664 886.957 935.893 881.163 C 934.396 874.462 937.599 872.07 943.524 869.376 L 945.172 870.033 C 945.296 873.479 944.868 874.921 944.193 878.349 L 945.139 878.547 L 947.243 876.766 C 948.686 873.595 948.763 873.197 948.204 869.762 C 945.803 866.91 947.123 867.708 943.204 867.041 C 936.108 869.31 921.642 889.508 912.191 897.243 C 906.905 900.996 901.657 904.802 896.448 908.662 C 874.845 892.13 870.569 885.263 857.926 861.522 C 876.562 849.481 889.305 835.679 904.289 823.603 C 916.858 813.472 974.643 794.928 991.049 791.29 z" fill="rgb(240,99,100)" transform="translate(0,0)"></path>
<path d="M 925.733 792.551 L 927.27 793.733 C 929.434 799.522 926.809 804.073 924.568 809.921 C 920.094 811.83 915.009 814.501 910.583 816.692 L 909.75 816.182 L 925.733 792.551 z" fill="rgb(248,182,182)" transform="translate(0,0)"></path>
<path d="M 765.366 907.747 C 767.32 895.549 762.429 859.135 768.5 852.68 C 774.373 846.436 788.013 847.392 796.05 847.592 C 800.503 847.702 805.021 848.693 808.037 852.231 C 814.294 859.571 811.49 876.168 811.123 885.383 C 798.367 893.199 779.333 901.381 765.366 907.747 z" fill="rgb(248,182,182)" transform="translate(0,0)"></path>
<path d="M 789.026 682.56 C 791.63 686.998 789.429 825.275 790.33 843.391 L 791.034 844.964 C 797.54 846.049 805.454 845.198 810.773 851.02 C 816.784 857.6 811.452 877.684 814.864 883.203 L 813.995 884.739 L 811.123 885.383 C 811.49 876.168 814.294 859.571 808.037 852.231 C 805.021 848.693 800.503 847.702 796.05 847.592 C 788.013 847.392 774.373 846.436 768.5 852.68 C 762.429 859.135 767.32 895.549 765.366 907.747 L 764.352 907.537 C 763.295 904.955 763.485 862.988 763.405 856.788 C 768.826 843.97 776.146 845.589 788.101 845.888 L 788.017 732.431 C 788.013 723.817 787.379 688.798 789.026 682.56 z" fill="rgb(68,30,45)" transform="translate(0,0)"></path>
<path d="M 791.064 262.103 C 801.294 220.728 837.833 193.924 880.322 195.976 C 903.34 197.286 924.861 207.808 940.031 225.169 C 975.395 264.958 965.024 316.02 926.806 349.341 C 941.716 364.815 971.837 393.869 982.924 409.701 L 982.114 411.176 C 976.525 410.157 950.428 410.575 943.053 410.586 L 858.379 410.738 C 764.182 410.893 668.386 409.593 574.378 410.822 C 550.846 409.567 519.997 410.246 496.018 410.143 C 495.971 418.933 495.133 433.939 496.31 442.181 C 500.653 472.587 499.46 502.769 498.957 533.567 C 490.155 536.949 479.175 546.273 471.042 547.212 C 437.615 551.072 398.713 543.877 381.109 581.269 C 369.145 606.682 384.759 632.222 398.313 653.377 C 403.806 661.948 409.548 671.435 416.066 679.28 L 415.167 687.882 C 414.32 693.735 413.38 703.01 409.854 707.617 C 400.183 704.846 370.121 715.393 360.633 720.923 C 288.084 763.213 244.386 860.176 222.265 937.793 C 218.052 952.572 213.449 971.353 211.498 986.211 C 198.359 971.696 173.844 923.592 164.96 904.631 C 111.552 790.981 106 660.649 149.548 542.868 C 194.238 423.293 284.249 326.146 400.074 272.481 C 497.17 227.63 606.182 215.438 710.787 237.732 C 741.85 244.44 761.683 251.349 791.064 262.103 z" fill="rgb(216,223,225)" transform="translate(0,0)"></path>
<path d="M 211.498 986.211 C 213.449 971.353 218.052 952.572 222.265 937.793 C 244.386 860.176 288.084 763.213 360.633 720.923 C 370.121 715.393 400.183 704.846 409.854 707.617 C 417.38 718.724 466.714 718.099 480.314 716.727 C 488.731 715.691 494.014 713.991 501.983 711.227 L 518.097 715.784 C 561.555 729.469 583.057 739.731 617.47 772.468 C 659.134 812.103 684.267 880.449 737.236 906.202 C 745.409 910.176 754.561 909.824 763.215 908.771 C 763.176 894.669 762.34 870.209 763.405 856.788 C 763.485 862.988 763.295 904.955 764.352 907.537 L 765.366 907.747 C 779.333 901.381 798.367 893.199 811.123 885.383 L 813.995 884.739 L 814.864 883.203 C 816.027 882.582 817.763 881.91 819.02 881.373 C 827.805 879.198 845.999 866.882 855.267 862.754 C 870.455 890.608 872.94 893.231 897.389 913.693 C 886.476 935.224 841.138 969.803 819.916 981.888 C 812.359 986.191 795.62 994.982 790.013 998.976 L 787.931 1000.09 C 781.7 1003.01 775.168 1005.88 769.031 1008.65 C 731.061 1026.65 692.951 1017.07 657.911 997.458 C 650.163 993.121 638.707 983.691 630.89 980.78 C 637.469 1051.16 646.534 1132.23 646.923 1202.7 C 623.41 1193.53 599.191 1186.28 574.503 1181.03 C 498.714 1164.31 430.851 1172.48 357.785 1196.71 C 329.941 1205.95 305.893 1213.97 281.049 1229.86 C 281.044 1218.19 281.888 1204.89 282.662 1193.2 C 288.676 1102.45 290.534 1008.09 308.053 918.76 C 311.703 899.743 316.329 880.927 321.912 862.385 C 323.961 855.642 330.63 837.148 331.592 832.359 L 330.592 831.538 C 330.396 831.652 330.2 831.765 330.004 831.879 C 290.362 904.852 283.42 1135.03 279.028 1199.97 C 269.402 1199.87 218.06 1197.47 213.945 1201.27 L 211.775 1201.14 C 210.365 1197.89 208.12 1175.47 207.658 1170.87 C 201.034 1104.93 201.856 1051.84 211.498 986.211 z" fill="rgb(240,99,100)" transform="translate(0,0)"></path>
<path d="M 555.899 914.666 C 559.779 915.699 572.333 929.8 576.025 933.49 C 587.429 944.891 599.228 955.267 611.694 965.495 C 616 969.028 629.599 976.299 630.89 980.78 C 619.676 979.698 558.266 925.462 555.899 914.666 z" fill="rgb(68,30,45)" transform="translate(0,0)"></path>
<path d="M 1078.96 409.646 C 1085.86 390.736 1093.27 377.772 1103.48 360.35 C 1143.08 292.79 1200.49 242.357 1271.29 209.368 C 1361.91 167.762 1465.25 163.433 1559.04 197.313 C 1837.27 299.519 1898.64 630.418 1696.13 838.143 C 1688.28 846.201 1675.26 855.465 1669.06 862.588 C 1667.54 859.529 1666.24 856.353 1664.89 853.213 C 1656.45 833.593 1646.45 814.833 1636.62 795.873 C 1669.06 777.11 1686.39 761.877 1686.41 720.945 C 1686.42 696.659 1678.36 665.899 1653.93 655.146 C 1645.5 651.434 1634.89 648.957 1628.12 642.388 C 1621.67 635.764 1631.84 630.77 1632.73 622.511 C 1631.57 618.641 1632.35 620.057 1629.48 617.255 C 1625.03 615.694 1619.64 616.967 1614.54 617.131 C 1602.41 617.521 1602.69 602.347 1598.36 592.541 C 1595.2 585.363 1590.73 578.841 1585.16 573.313 C 1564.52 552.93 1542.35 553.42 1515.91 553.793 C 1515.94 537.589 1513.6 458.3 1517.89 449.218 C 1519.5 445.809 1519.13 442.97 1518.83 439.324 C 1516.91 441.465 1517.4 442.096 1516.81 445.516 L 1518.43 446.233 L 1517.29 447.051 L 1517.04 446.946 L 1518.15 445.551 L 1516.29 444.657 L 1516.36 443.364 L 1518.25 443.417 C 1517.66 437.876 1517.13 432.916 1516.15 427.431 L 1516.07 413.167 C 1463.33 413.713 1409.57 413.073 1356.76 413.052 L 1028.15 413.061 L 1028.28 411.349 L 1033.7 410.237 C 1039.86 408.964 1071.13 409.59 1078.96 409.646 z" fill="rgb(216,223,225)" transform="translate(0,0)"></path>
<path d="M 1033.7 410.237 C 1041.59 411.446 1074.05 410.755 1083.49 410.722 L 1184.84 410.595 L 1394.92 410.559 C 1436 410.625 1478.01 411.236 1518.98 410.74 C 1518.94 420.105 1519.06 430.01 1518.83 439.324 C 1516.91 441.465 1517.4 442.096 1516.81 445.516 L 1518.43 446.233 L 1517.29 447.051 L 1517.04 446.946 L 1518.15 445.551 L 1516.29 444.657 L 1516.36 443.364 L 1518.25 443.417 C 1517.66 437.876 1517.13 432.916 1516.15 427.431 L 1516.07 413.167 C 1463.33 413.713 1409.57 413.073 1356.76 413.052 L 1028.15 413.061 L 1028.28 411.349 L 1033.7 410.237 z" fill="rgb(14,7,8)" transform="translate(0,0)"></path>
<path d="M 630.89 980.78 C 638.707 983.691 650.163 993.121 657.911 997.458 C 692.951 1017.07 731.061 1026.65 769.031 1008.65 C 775.168 1005.88 781.7 1003.01 787.931 1000.09 L 790.013 998.976 C 790.227 1021.59 790.225 1044.22 790.008 1066.83 C 809.902 1066.74 830.277 1066.16 850.075 1067.26 C 869.257 1068.33 863.001 1095.73 863.361 1109.96 L 948.015 1109.86 C 957.424 1109.85 982.589 1109.21 991.046 1110.22 C 993.692 1105.69 993.401 1105.28 997.938 1102.11 C 997.882 1072.61 997.044 1039.15 998.13 1009.95 L 1000.04 1010.05 C 1000.03 1040.18 1000.59 1072.3 999.73 1102.29 C 1003.88 1105.43 1004.14 1106.01 1006.52 1110.49 C 1012.58 1109.4 1049.63 1109.5 1057.06 1109.76 C 1079.34 1110.53 1108.69 1108.72 1130.3 1110.24 C 1129.9 1103.59 1128.74 1074.66 1131.89 1073.1 C 1143.41 1067.42 1187.57 1071.55 1201.95 1070.46 L 1202.99 1070.38 L 1203.95 1070.32 L 1205.92 1070.5 C 1206.01 1055.21 1206.94 1024.21 1205.46 1010.05 C 1219.97 1009.78 1273.47 1011.79 1283.42 1007.84 C 1288.88 1002.93 1283.49 989.717 1287.07 982.273 C 1316.09 1006.21 1343.63 1020.73 1381.47 1008.05 C 1373.02 1068.7 1368.55 1130.54 1363.01 1191.51 C 1362.4 1198.24 1362.11 1205.49 1361.17 1212.11 L 842.497 1212.45 L 704.61 1212.36 C 697.46 1212.35 653.048 1212.77 648.126 1211.86 C 646.361 1208.91 646.988 1206.6 646.923 1202.7 C 646.534 1132.23 637.469 1051.16 630.89 980.78 z" fill="rgb(254,254,254)" transform="translate(0,0)"></path>
<path d="M 787.931 1000.09 L 790.013 998.976 C 790.227 1021.59 790.225 1044.22 790.008 1066.83 C 809.902 1066.74 830.277 1066.16 850.075 1067.26 C 869.257 1068.33 863.001 1095.73 863.361 1109.96 L 948.015 1109.86 C 957.424 1109.85 982.589 1109.21 991.046 1110.22 C 993.692 1105.69 993.401 1105.28 997.938 1102.11 C 997.882 1072.61 997.044 1039.15 998.13 1009.95 L 1000.04 1010.05 C 1000.03 1040.18 1000.59 1072.3 999.73 1102.29 C 1003.88 1105.43 1004.14 1106.01 1006.52 1110.49 C 1012.58 1109.4 1049.63 1109.5 1057.06 1109.76 C 1079.34 1110.53 1108.69 1108.72 1130.3 1110.24 L 1129.64 1111.79 C 1117.1 1112.46 1099.77 1111.94 1086.94 1111.93 L 1006.06 1111.94 C 1003.15 1114.48 1003.01 1114.75 999.43 1115.93 C 996.089 1115.77 994.748 1114.06 992.112 1111.83 C 978.307 1112.42 960.982 1111.93 946.959 1111.93 L 863.477 1112.06 C 863.024 1121.84 865.401 1133.43 862.394 1142.83 C 861.674 1145.08 860.352 1147.81 858.053 1148.76 C 849.421 1152.31 733.936 1152.49 725.055 1148.71 C 721.199 1144.04 719.862 1133.81 720.433 1128.2 C 721.812 1114.65 716.834 1077.81 725.94 1068.63 C 734.296 1065.14 775.271 1066.7 787.775 1066.74 C 788.363 1045.22 787.921 1021.76 787.931 1000.09 z" fill="rgb(68,30,45)" transform="translate(0,0)"></path>
<path d="M 728.279 1069.17 C 729.164 1069.13 730.049 1069.11 730.934 1069.1 L 804.422 1068.91 C 818.144 1068.88 832.2 1068.52 845.767 1069.18 C 854.208 1069.59 860.995 1071.12 861.072 1080.71 C 861.147 1089.95 861.473 1100.35 860.902 1109.55 C 860.124 1122.08 865.877 1139.95 854.985 1148.41 C 853.16 1148.54 851.333 1148.64 849.505 1148.71 C 828.357 1149.31 805.986 1148.6 784.753 1148.76 C 773.723 1148.85 730.943 1150.75 724.748 1144.88 C 721.019 1136.19 723.555 1115.1 723.166 1104.53 C 722.775 1093.88 720.289 1076.61 728.279 1069.17 z" fill="rgb(254,254,254)" transform="translate(0,0)"></path>
<path d="M 1205.92 1070.5 C 1219.68 1072.41 1272.36 1068.43 1280.21 1072.14 C 1281.43 1073.82 1282.94 1076.82 1282.76 1078.79 C 1281.71 1089.96 1285.97 1144.08 1279.82 1150.19 C 1268.4 1152.78 1142.72 1153.03 1132.25 1150.24 C 1127.6 1144.88 1130.8 1120.39 1129.64 1111.79 L 1130.3 1110.24 C 1129.9 1103.59 1128.74 1074.66 1131.89 1073.1 C 1143.41 1067.42 1187.57 1071.55 1201.95 1070.46 L 1202.99 1070.38 L 1203.95 1070.32 L 1205.92 1070.5 z" fill="rgb(250,203,87)" transform="translate(0,0)"></path>
<path d="M 982.924 409.701 L 983.055 408.379 C 983.919 399.237 982.989 390.007 983.502 381.032 C 984.731 359.556 1010.35 352.083 1022.94 369.439 C 1031.61 381.398 1024.11 399.947 1028.28 411.349 L 1028.15 413.061 L 1356.76 413.052 C 1409.57 413.073 1463.33 413.713 1516.07 413.167 L 1516.15 427.431 C 1516.02 434.275 1515.98 441.12 1516.04 447.965 C 1510.41 447.98 1501.14 447.705 1495.81 448.121 C 1439.78 446.97 1379.73 448.064 1323.39 448.085 L 1075.59 448.196 C 1054.48 447.478 1029.99 448.055 1008.68 448.071 L 883.346 448.108 L 499.206 448.036 L 499.287 413.193 C 502.743 413.125 506.197 413.024 509.651 412.889 C 507.147 412.01 504.092 413.538 501.12 411.69 C 509.753 409.204 560.133 411.894 574.378 410.822 C 668.386 409.593 764.182 410.893 858.379 410.738 L 943.053 410.586 C 950.428 410.575 976.525 410.157 982.114 411.176 L 982.924 409.701 z" fill="rgb(248,182,182)" transform="translate(0,0)"></path>
<path d="M 982.924 409.701 L 983.055 408.379 C 983.919 399.237 982.989 390.007 983.502 381.032 C 984.731 359.556 1010.35 352.083 1022.94 369.439 C 1031.61 381.398 1024.11 399.947 1028.28 411.349 L 1028.15 413.061 C 1013.32 413.404 997.807 413.163 982.929 413.149 L 982.114 411.176 L 982.924 409.701 z" fill="rgb(68,30,45)" transform="translate(0,0)"></path>
<path d="M 574.378 410.822 C 668.386 409.593 764.182 410.893 858.379 410.738 L 943.053 410.586 C 950.428 410.575 976.525 410.157 982.114 411.176 L 982.929 413.149 L 509.651 412.889 C 507.147 412.01 504.092 413.538 501.12 411.69 C 509.753 409.204 560.133 411.894 574.378 410.822 z" fill="rgb(14,7,8)" transform="translate(0,0)"></path>
<path d="M 213.945 1201.27 C 218.06 1197.47 269.402 1199.87 279.028 1199.97 C 278.612 1206.05 276.428 1227.27 278.817 1231.36 C 281.424 1232.2 282.411 1232.04 285.093 1232.01 C 291.466 1244.67 270.575 1241.05 264.444 1241.21 C 270.653 1242.39 276.997 1242.54 283.294 1242.88 C 277.901 1244.03 275.983 1243.58 270.937 1244.16 C 275.68 1244.49 279.742 1244.74 284.511 1244.74 C 284.154 1252.34 283.526 1284.96 280.525 1289.39 C 269.564 1284.84 267.343 1282.52 260.958 1272.05 C 259.733 1270.04 260.429 1270.48 258.694 1271.02 C 255.89 1279.27 272.351 1289.77 279.442 1291.39 L 281.35 1292.72 C 282.287 1299.09 281.929 1315.6 278.478 1321.11 L 276.615 1322.24 C 275.935 1326.31 278.712 1341.28 279.19 1346.92 L 265.733 1346.88 C 263.993 1342.75 262.127 1337.2 260.532 1332.89 C 259.366 1328.13 258.621 1323.1 255.867 1319.2 C 253.892 1322.02 256.579 1329.88 257.501 1333.21 L 261.779 1346.96 L 240.786 1347.37 C 240.676 1343.52 235.737 1328.81 234.274 1324.58 C 220.365 1284.41 220.757 1242.6 213.945 1201.27 z" fill="rgb(248,182,182)" transform="translate(0,0)"></path>
<path d="M 270.937 1244.16 C 262.669 1244.2 238.613 1244.58 231.103 1243.05 L 231.646 1242.06 C 237.221 1239.81 257.266 1241.04 264.444 1241.21 C 270.653 1242.39 276.997 1242.54 283.294 1242.88 C 277.901 1244.03 275.983 1243.58 270.937 1244.16 z" fill="rgb(14,7,8)" transform="translate(0,0)"></path>
<path d="M 1205.95 888.193 C 1217.28 906.143 1222.9 914.128 1236.14 930.322 C 1227.73 931.407 1214.09 930.909 1205.47 930.715 C 1206.8 921.976 1206.04 898.1 1205.95 888.193 z" fill="rgb(254,254,254)" transform="translate(0,0)"></path>
<path d="M 1469.85 727.345 C 1472.9 732.628 1476 737.858 1479.14 743.081 C 1512.47 798.502 1573.56 813.658 1633.3 797.076 C 1645.81 819.222 1656.87 842.154 1666.42 865.727 C 1685.85 916.069 1698.77 952.184 1701 1007.22 C 1702.37 1028.35 1703.09 1049.51 1703.13 1070.68 C 1702.95 1100.41 1701.11 1130.99 1700.59 1160.93 C 1693.08 1158.34 1682.99 1153.46 1675.79 1153.25 C 1675.82 1153.01 1675.85 1152.78 1675.88 1152.55 C 1669.69 1049.1 1665.26 943.359 1640.44 842.358 C 1639.67 839.262 1637.71 833.57 1635.71 831.123 C 1634.92 836.323 1645.78 879.99 1647.4 888.835 C 1651.24 908.735 1654.32 928.774 1656.63 948.91 C 1663.17 1008.69 1668.16 1068.63 1671.6 1128.66 C 1674.25 1169.98 1677.67 1222.63 1677.99 1264 C 1679.08 1285.05 1680.36 1306.38 1681.14 1327.42 L 1681 1347.03 C 1669.22 1347.02 1574.93 1347.71 1570.56 1346.05 C 1576.8 1338.36 1600.9 1303.44 1595.45 1295.05 C 1592.87 1297.04 1589.64 1308.78 1587.83 1312.81 C 1582.53 1324.65 1575.81 1333.49 1567.98 1343.53 C 1567.02 1344.32 1565.79 1345.33 1564.3 1346.55 C 1495.75 1346.36 1427.07 1347.02 1358.52 1346.33 C 1357.69 1346.32 1355.93 1345.83 1355.55 1345.73 C 1357.21 1336.75 1357.28 1318.49 1357.63 1308.72 C 1358.23 1293.42 1359.1 1278.13 1360.24 1262.87 C 1361.2 1254.89 1361.69 1247.14 1362.24 1239.13 C 1363.27 1232.76 1363.68 1221.86 1364.1 1215.11 C 1369.97 1146.97 1375.49 1074.2 1384.42 1006.37 C 1419.81 985.157 1433.79 945.517 1448.72 909.177 C 1450.45 904.991 1452.74 899.924 1453.22 895.532 L 1452.04 894.244 C 1447.06 896.938 1424.58 979.185 1385.22 1001.81 C 1370.47 1010.29 1353.56 1011.95 1337.23 1007.51 C 1289.02 994.409 1229.58 923.5 1205.74 881.122 C 1222.83 862.493 1237.6 844.704 1255.55 825.883 C 1281.21 850.287 1300.22 869.473 1334.99 879.307 C 1332.36 885.373 1325.5 899.244 1326.06 905.143 L 1327.01 904.961 C 1331.71 898.21 1345.64 861.645 1350.6 851.398 C 1381.76 787.074 1402.52 752.852 1469.85 727.345 z" fill="rgb(250,203,87)" transform="translate(0,0)"></path>
<path d="M 1360.24 1262.87 L 1677.99 1264 C 1679.08 1285.05 1680.36 1306.38 1681.14 1327.42 L 1681 1347.03 C 1669.22 1347.02 1574.93 1347.71 1570.56 1346.05 C 1576.8 1338.36 1600.9 1303.44 1595.45 1295.05 C 1592.87 1297.04 1589.64 1308.78 1587.83 1312.81 C 1582.53 1324.65 1575.81 1333.49 1567.98 1343.53 C 1567.02 1344.32 1565.79 1345.33 1564.3 1346.55 C 1495.75 1346.36 1427.07 1347.02 1358.52 1346.33 C 1357.69 1346.32 1355.93 1345.83 1355.55 1345.73 C 1357.21 1336.75 1357.28 1318.49 1357.63 1308.72 C 1358.23 1293.42 1359.1 1278.13 1360.24 1262.87 z" fill="rgb(248,182,182)" transform="translate(0,0)"></path>
<path d="M 647.608 1232.5 L 1048.16 1232.61 C 1151.56 1232.62 1257.48 1234.01 1360.66 1232.77 C 1357.29 1253.68 1353.33 1308.9 1353.9 1329.92 C 1353.25 1335.87 1353.04 1340.03 1352.95 1346.03 L 654.275 1346.04 C 651.789 1308.21 649.567 1270.36 647.608 1232.5 z" fill="rgb(216,223,225)" transform="translate(0,0)"></path>
<path d="M 1724.81 1230.88 C 1773.23 1231.05 1821.64 1230.98 1870.05 1230.65 C 1867.55 1262.67 1865.53 1291.06 1858.18 1322.5 L 1855.49 1334.46 L 1739.7 1334.77 C 1732.25 1311.25 1725.94 1257 1724.81 1230.88 z" fill="rgb(248,182,182)" transform="translate(0,0)"></path>
<path d="M 1753.47 1154.85 C 1757.49 1167.58 1762.73 1183.16 1764.78 1196.13 L 1713.83 1195.95 C 1713.69 1203.13 1712.71 1223.37 1714.51 1229.33 C 1717.22 1230.26 1717.85 1230.24 1720.61 1230.47 C 1722.26 1232.88 1725.71 1274.98 1726.58 1282.24 C 1728.64 1299.98 1731.87 1317.57 1736.26 1334.88 C 1731.24 1334.76 1723.79 1333.75 1719.89 1336.1 C 1718.2 1339.2 1718.68 1340.68 1719.02 1344.58 L 1718.35 1345.95 C 1714.36 1348.41 1693.17 1347.41 1687.4 1347.1 C 1685.04 1346.98 1685.6 1346.86 1684.19 1345.07 C 1684.86 1327.68 1682.96 1301.46 1681.77 1283.77 C 1703.26 1272.17 1701.66 1219 1701.24 1197.34 C 1701.99 1187.36 1701.74 1175.02 1701.77 1164.83 C 1724.34 1167.05 1733.43 1164.24 1753.47 1154.85 z" fill="rgb(254,254,254)" transform="translate(0,0)"></path>
<path d="M 1142.45 742.298 C 1164.77 748.172 1205.03 780.822 1223.63 796.271 C 1233.04 804.082 1243.16 815.208 1252.81 823.661 C 1238.52 839.367 1223.77 855.225 1210.2 871.499 L 1204.22 878.692 C 1190.44 860.464 1177.78 841.481 1164.57 822.886 C 1161.93 819.166 1153.74 819.42 1150.52 815.999 C 1151.35 803.585 1175.41 792.682 1185.6 788.273 C 1172.32 775.559 1156.7 764.373 1144.21 750.983 C 1141.28 747.84 1142.09 746.018 1142.45 742.298 z" fill="rgb(240,99,100)" transform="translate(0,0)"></path>
<path d="M 505.021 606.695 C 509.524 605.089 512.356 604.09 516.655 601.942 C 528.527 612.93 531.264 623.781 531.863 639.971 C 532.07 644.675 532.041 649.386 531.776 654.088 C 530.584 662.196 530.148 667.231 522.901 672.584 C 510.785 681.534 497.047 673.887 485.491 673.993 C 488.818 686.376 491.259 698.276 496.263 710.041 C 494.126 710.634 481.786 713.529 480.893 713.865 C 452.838 715.863 441.894 715.446 413.913 708.042 C 415.26 703.678 416.58 697.389 417.68 692.807 L 419.648 681.04 C 454.101 692.81 468.831 675.588 488.914 651.253 C 491.145 652.255 492.013 652.841 494.494 652.906 C 494.165 650.185 490.663 648.139 488.013 645.826 C 479.81 624.22 486.461 617.018 505.021 606.695 z" fill="rgb(248,182,182)" transform="translate(0,0)"></path>
<path d="M 497.112 615.713 C 500.264 615.695 500.272 615.582 503.195 616.561 L 503.907 618.086 C 494.892 620.918 491.432 623.57 493.983 634.933 C 494.591 637.637 495.924 638.259 498.17 639.509 C 502.089 639.461 504.103 637.736 507.526 635.683 L 508.942 636.624 L 509.107 637.959 C 493.048 652.253 481.561 628.068 497.112 615.713 z" fill="rgb(68,30,45)" transform="translate(0,0)"></path>
<path d="M 1716.87 1198.95 L 1883.67 1199.02 L 1883.93 1227.53 C 1865.43 1228.45 1842.41 1227.88 1823.47 1227.87 L 1716.85 1227.51 L 1716.87 1198.95 z" fill="rgb(248,182,182)" transform="translate(0,0)"></path>
<path d="M 1676.57 1154.91 C 1680.52 1156.61 1698.13 1163.39 1699.49 1166.25 C 1697.18 1185.79 1702.89 1272.5 1682.52 1279.41 C 1681.11 1270.44 1680.78 1248.59 1680.3 1238.53 C 1678.84 1210.67 1677.6 1182.79 1676.57 1154.91 z" fill="rgb(240,99,100)" transform="translate(0,0)"></path>
<path d="M 1721.58 1338.51 C 1726.72 1337.38 1764.64 1337.65 1771.99 1337.74 C 1804.91 1338.14 1838.94 1336.71 1871.66 1337.36 C 1873.36 1339.73 1872.97 1342.4 1872.98 1345.4 C 1867.18 1349.56 1758.98 1345.84 1741.78 1347.17 C 1738.49 1347.43 1726.55 1347.06 1722.76 1346.72 C 1721.46 1344.7 1721.68 1341.08 1721.58 1338.51 z" fill="rgb(240,99,100)" transform="translate(0,0)"></path>
<path d="M 1456.67 595.83 C 1461.11 602.829 1469.44 612.189 1472.06 616.784 C 1462.93 621.968 1463.4 630.864 1469.79 638.188 C 1460.88 652.145 1461.64 662.637 1458.17 677.303 C 1441.76 664.006 1443.77 641.778 1444.41 623.562 C 1444.45 622.404 1441.06 620.521 1439.95 619.739 L 1440.47 618.458 C 1448.09 615.397 1453.38 603.113 1456.67 595.83 z" fill="rgb(248,182,182)" transform="translate(0,0)"></path>
<path d="M 1473.9 618.083 C 1477.47 615.623 1481.79 611.934 1486.16 613.062 C 1497.44 615.976 1495.93 631.66 1486.46 636.113 C 1480.45 638.942 1476.73 638.059 1470.72 637.182 C 1466.58 627.95 1467.54 625.105 1473.9 618.083 z" fill="rgb(248,182,182)" transform="translate(0,0)"></path>
<path d="M 1480.01 617.85 C 1484.69 617.548 1485.5 617.181 1488.69 620.7 C 1490.37 631.12 1481.36 632.861 1473.19 629.568 C 1478.61 625.894 1481.95 629.936 1486 623.613 L 1485.11 621.25 C 1481.19 619.432 1482.7 622.033 1479.19 621.424 L 1480.01 617.85 z" fill="rgb(68,30,45)" transform="translate(0,0)"></path>
<path d="M 1791.99 843.516 L 1794.19 844.732 C 1797.94 851.877 1799.78 865.956 1800.78 874.336 C 1807.48 930.449 1802.96 984.529 1797.63 1040.32 C 1794.69 1037.81 1798.13 1014.77 1798.53 1008.93 C 1802.29 954.095 1805.2 897.188 1791.99 843.516 z" fill="rgb(216,223,225)" transform="translate(0,0)"></path>
<path d="M 1155.78 820.695 C 1161.57 821.289 1173.49 837.839 1174.04 843.185 L 1171.57 843.811 C 1164.26 841.539 1150.61 835.806 1149.79 827.215 C 1150.65 823.877 1152.88 822.846 1155.78 820.695 z" fill="rgb(248,182,182)" transform="translate(0,0)"></path>
<path d="M 1885.2 1038.7 L 1886.51 1039.88 C 1886.44 1040.1 1868.23 1062.85 1866.47 1065.14 C 1851.23 1084.97 1839.81 1104.43 1828.22 1126.54 L 1827.23 1125.53 C 1833.95 1102.8 1869.41 1057.02 1885.2 1038.7 z" fill="rgb(216,223,225)" transform="translate(0,0)"></path>
<path d="M 1704.94 1063.74 C 1718.69 1071.19 1751.74 1136.29 1754.08 1151.21 C 1748.73 1147.92 1728.72 1091.3 1718.47 1083.22 C 1716.72 1081.83 1706.04 1065.96 1704.94 1063.74 z" fill="rgb(216,223,225)" transform="translate(0,0)"></path>
<path d="M 437.641 1345.05 C 425.332 1322.49 408.537 1300.54 397.056 1278.36 L 397.526 1278.11 C 404.044 1285.87 438.097 1338.28 440.72 1345.83 C 439.448 1345.71 438.876 1345.43 437.641 1345.05 z" fill="rgb(216,223,225)" transform="translate(0,0)"></path>
<metadata><recraft-signature>{"signed_by": "recraft", "signature_b64": "CNTUv2aj5ldzwPqyoVdMUGIn82ucAlvqtBV/kzAFH5lha3bSUIegayQAXQW3/Mqs4s5lpyY4gikU6w+pguQFDg==", "signing_algo": "Ed25519", "generation_timestamp": 1776427251, "identifier": "05e5a307-8313-4dfe-beb0-0289fa9eb209"}</recraft-signature></metadata></svg>