<svg xmlns="http://www.w3.org/2000/svg" height="1024" preserveAspectRatio="none" style="display: block;" version="1.1" viewBox="0 0 2048 1536" width="1365">
<path d="M 0 0 L 2048 0 L 2048 1536 L 0 1536 L 0 0 z" fill="rgb(246,236,65)" transform="translate(0,0)"></path>
<path d="M 485.486 180.149 C 537.092 179.351 590.199 180.08 641.907 180.13 L 899.334 180.108 L 1660.48 180.858 C 1661.13 185.803 1661.98 207.225 1659.84 210.899 C 1654.49 212.541 1611.21 212.729 1604.95 211.339 L 1604.8 672.7 C 1622.74 643.559 1629.47 631.453 1643.55 599.91 C 1642.82 592.709 1642.2 586.989 1640.88 579.825 C 1630.46 579.642 1624.49 577.419 1617.38 569.885 C 1606.34 558.18 1606.13 548.811 1612.07 535.106 L 1609.83 533.326 L 1610.08 531.862 C 1614.03 530.075 1616.49 529.568 1618.37 525.807 C 1617.45 520.04 1612.27 518.04 1612.32 516.435 C 1612.92 495.587 1638.96 489.716 1653.84 496.637 C 1661.07 491.691 1666.6 488.661 1676.1 490.231 C 1684.86 491.679 1694.5 500.408 1699.21 507.719 C 1704.93 516.607 1706.54 527.585 1704.34 537.887 C 1702.31 547.382 1696.7 554.63 1689.83 561.202 C 1689.29 561.718 1686.03 564.837 1686.03 564.777 C 1686.13 566.414 1687.1 570.672 1687.52 572.262 C 1688.75 578.481 1693.93 582.931 1699.44 585.783 C 1720.32 596.585 1733.84 621.342 1738.43 644.634 C 1748.57 695.995 1742.39 753.582 1740.82 805.942 C 1740.36 821.223 1738.81 841.335 1739.65 856.405 C 1740.23 866.806 1746.81 888.922 1749.71 899.781 L 1769.08 970.919 C 1772.31 982.641 1777.71 1000.35 1780.04 1011.92 C 1768.72 1012.04 1757.41 1012.08 1746.1 1012.04 C 1747.2 1074.75 1747.93 1137.47 1748.3 1200.18 L 1750.12 1393.35 L 579.056 1393.62 L 360.372 1393.86 C 329.381 1393.91 296.702 1393.41 265.906 1394.04 C 265.846 1383.26 264.941 1345.99 266.164 1337.35 C 269.526 1313.62 276.663 1282.07 281.495 1258.03 C 288.751 1221.75 295.717 1185.41 302.39 1149.02 C 306.397 1128.33 310.646 1107.8 314.53 1087.06 C 321.476 1049.98 318.904 1012.58 321.138 974.876 C 317.431 975.347 302.167 975.062 297.626 975.055 C 298.88 971.853 300.068 967.898 301.166 964.578 C 297.388 949.165 294.436 929.593 291.852 913.71 C 289.836 906.411 287.489 890.007 286.233 882.26 C 283.31 869.445 276.675 837.765 279.991 826.479 C 297.036 766.744 314.977 706.477 330.024 646.234 C 340.176 605.59 351.18 590.27 389.756 570.294 C 391.693 569.291 393.612 567.325 394.104 565.121 L 388.957 560.357 C 380.446 556.507 371.536 543.118 369.276 534 C 366.663 523.754 368.32 512.886 373.867 503.884 C 378.58 496.219 386.162 490.757 394.925 488.715 C 407.69 485.794 417.341 489.986 427.917 496.467 C 440.434 487.297 461.916 494.456 461.402 511.425 C 461.19 518.454 453.206 516.548 462.894 525.259 L 463.793 527.274 C 467.777 532.054 466.19 534.709 469.751 537.698 C 470.646 504.263 469.848 466.62 469.838 432.906 L 470.009 211.151 C 450.208 211.338 430.406 211.385 410.604 211.293 C 409.311 206.691 409.827 185.44 410.628 180.053 C 435.58 179.85 460.534 179.883 485.486 180.149 z" fill="rgb(29,27,78)" transform="translate(0,0)"></path>
<path d="M 330.981 701.641 C 334.254 664.363 326.076 620.827 359.246 593.502 C 361.601 591.562 364.054 592.697 366.532 593.317 C 383.035 602.431 399.308 611.897 415.489 621.564 C 419.695 624.076 430.503 629.516 433.728 632.325 C 430.798 636.544 405.415 646.209 403.312 662.693 C 401.236 669.018 396.545 684.906 397.952 691.345 C 407.353 734.375 420.429 777.062 431.444 819.773 C 435.876 836.959 438.534 847.664 452.934 858.886 L 420.01 858.951 L 419.997 875.515 C 429.284 876.156 469.556 876.778 476.976 874.791 C 481 870.915 479.315 868.453 479.499 863.513 C 489.909 857.858 500.14 851.88 510.177 845.588 C 522.438 886.898 535.01 931.62 546.289 973.056 C 487.788 972.897 426.357 974.135 368.215 973.06 C 346.036 972.869 323.857 972.796 301.677 972.841 C 304.588 964.284 307.238 955.641 309.625 946.923 C 316.569 929.824 321.381 905.086 326.347 886.999 C 330.736 866.487 339.934 846.957 338.186 825.771 C 334.778 784.463 333.819 742.921 330.981 701.641 z" fill="rgb(25,81,152)" transform="translate(0,0)"></path>
<path d="M 559.98 182.134 C 573.545 183.066 591.41 182.649 605.235 182.65 L 679.716 182.625 L 909.91 182.695 L 1658.68 182.97 C 1658.67 189.984 1659.03 203.024 1658.46 209.544 C 1656.05 209.578 1651.72 209.48 1649.53 209.916 C 1609.75 208.029 1557.93 209.586 1517.38 209.714 L 1284.15 209.714 L 412.134 209.062 L 412.141 182.248 C 460.407 181.691 512.408 183.75 559.98 182.134 z" fill="rgb(253,253,254)" transform="translate(0,0)"></path>
<path d="M 388.957 560.357 C 380.446 556.507 371.536 543.118 369.276 534 C 366.663 523.754 368.32 512.886 373.867 503.884 C 378.58 496.219 386.162 490.757 394.925 488.715 C 407.69 485.794 417.341 489.986 427.917 496.467 C 440.434 487.297 461.916 494.456 461.402 511.425 C 461.19 518.454 453.206 516.548 462.894 525.259 C 460.971 524.65 459.063 523.99 457.175 523.279 C 456.737 520.628 456.583 520.56 455.426 518.249 C 452.807 516.781 443.384 515.952 439.315 515.203 C 435.247 523.323 435.826 523.897 428.239 529.822 C 425.065 533.255 425.967 533.459 422.51 533.754 C 417.836 531.609 413.823 528.348 409.648 528.653 C 406.609 530.148 406.3 530.396 404.562 533.297 C 402.751 544.05 418.251 553.829 415.087 558.858 C 406.293 558.223 406.213 559.581 398.351 565.445 C 394.512 562.674 393.633 561.931 388.957 560.357 z" fill="rgb(29,27,78)" transform="translate(0,0)"></path>
<path d="M 439.315 515.203 C 443.384 515.952 452.807 516.781 455.426 518.249 C 456.583 520.56 456.737 520.628 457.175 523.279 C 459.063 523.99 460.971 524.65 462.894 525.259 L 463.793 527.274 C 462.719 529.97 461.147 532.756 461.765 535.451 C 463.145 535.198 464.405 534.989 465.811 535.001 C 470.228 539.91 460.328 558.626 460.387 565.784 C 460.415 569.209 448.387 571.417 445.782 570.365 C 437.869 569.485 435.233 569.637 428.816 564.702 C 426.01 573.013 424.115 584.732 422.231 593.622 L 387.246 575.33 C 390.64 571.918 394.297 567.807 398.351 565.445 C 406.213 559.581 406.293 558.223 415.087 558.858 C 418.251 553.829 402.751 544.05 404.562 533.297 C 406.3 530.396 406.609 530.148 409.648 528.653 C 413.823 528.348 417.836 531.609 422.51 533.754 C 425.967 533.459 425.065 533.255 428.239 529.822 C 435.826 523.897 435.247 523.323 439.315 515.203 z" fill="rgb(251,184,24)" transform="translate(0,0)"></path>
<path d="M 429.409 568.759 C 435.345 571.008 449.329 574.502 455.451 572.441 C 464.136 569.519 463.185 557.341 465.567 550.09 C 466.535 547.143 468.415 543.51 469.86 540.748 C 469.892 582.562 470.968 629.549 469.739 671.08 C 463.04 652.799 454.424 642.118 449.097 624.046 C 447.606 617.994 446.599 613.773 445.774 607.626 C 440.003 605.201 429.821 598.762 424.096 595.367 C 426.002 586.525 427.774 577.655 429.409 568.759 z" fill="rgb(246,236,65)" transform="translate(0,0)"></path>
<path d="M 1618.37 525.807 L 1618.88 526.07 C 1622.05 529.092 1637.76 529.699 1645.36 532.259 L 1643.61 533.859 L 1648.28 537.138 C 1650.55 540.358 1654.03 541.57 1653.87 543.876 C 1653.6 548.053 1653.4 550.499 1657.22 553.216 L 1655.38 553.25 C 1655.99 556.106 1657.34 557.087 1657.29 559.806 C 1656.45 561.738 1655.54 563.634 1654.54 565.491 C 1649.98 574.054 1645.83 575.872 1637.11 578.484 L 1635.65 578.132 C 1620.87 574.503 1616.32 565.448 1608.75 553.046 C 1609.92 547.825 1611.89 541.799 1613.47 536.59 L 1612.07 535.106 L 1609.83 533.326 L 1610.08 531.862 C 1614.03 530.075 1616.49 529.568 1618.37 525.807 z" fill="rgb(243,157,98)" transform="translate(0,0)"></path>
<path d="M 1618.37 525.807 L 1618.88 526.07 C 1622.05 529.092 1637.76 529.699 1645.36 532.259 L 1643.61 533.859 C 1635.31 531.588 1618.35 526.91 1612.07 535.106 L 1609.83 533.326 L 1610.08 531.862 C 1614.03 530.075 1616.49 529.568 1618.37 525.807 z" fill="rgb(40,29,11)" transform="translate(0,0)"></path>
<path d="M 366.874 592.277 L 364.539 590.503 C 365.445 586.089 376.659 579.326 380.81 576.586 C 381.456 576.155 382.109 575.736 382.77 575.329 C 404.873 586.426 422.913 597.01 443.815 609.73 L 439.055 621.877 C 438.356 623.092 436.652 628.244 436.079 629.862 C 416.964 620.481 383.005 598.4 366.874 592.277 z" fill="rgb(253,253,254)" transform="translate(0,0)"></path>
<path d="M 463.793 527.274 C 467.777 532.054 466.19 534.709 469.751 537.698 L 469.86 540.748 C 468.415 543.51 466.535 547.143 465.567 550.09 C 463.185 557.341 464.136 569.519 455.451 572.441 C 449.329 574.502 435.345 571.008 429.409 568.759 C 427.774 577.655 426.002 586.525 424.096 595.367 C 429.821 598.762 440.003 605.201 445.774 607.626 C 446.599 613.773 447.606 617.994 449.097 624.046 C 444.235 624.747 442.002 625.924 439.055 621.877 L 443.815 609.73 C 422.913 597.01 404.873 586.426 382.77 575.329 C 382.109 575.736 381.456 576.155 380.81 576.586 C 376.659 579.326 365.445 586.089 364.539 590.503 L 366.874 592.277 L 366.532 593.317 C 364.054 592.697 361.601 591.562 359.246 593.502 C 326.076 620.827 334.254 664.363 330.981 701.641 C 328.898 692.763 333.626 676.337 327.713 670.072 L 326.107 669.997 C 323.02 675.927 317.581 701.953 315.15 710.725 L 292.259 791.908 C 289.606 801.267 281.743 826.57 281.1 835.019 C 280.084 848.391 287.829 865.951 286.233 882.26 C 283.31 869.445 276.675 837.765 279.991 826.479 C 297.036 766.744 314.977 706.477 330.024 646.234 C 340.176 605.59 351.18 590.27 389.756 570.294 C 391.693 569.291 393.612 567.325 394.104 565.121 L 388.957 560.357 C 393.633 561.931 394.512 562.674 398.351 565.445 C 394.297 567.807 390.64 571.918 387.246 575.33 L 422.231 593.622 C 424.115 584.732 426.01 573.013 428.816 564.702 C 435.233 569.637 437.869 569.485 445.782 570.365 C 448.387 571.417 460.415 569.209 460.387 565.784 C 460.328 558.626 470.228 539.91 465.811 535.001 C 464.405 534.989 463.145 535.198 461.765 535.451 C 461.147 532.756 462.719 529.97 463.793 527.274 z" fill="rgb(40,29,11)" transform="translate(0,0)"></path>
<path d="M 1648.28 537.138 C 1656.57 536.676 1657.46 530.893 1664.39 533.503 C 1668.51 540.386 1664.14 549.569 1657.22 553.216 C 1653.4 550.499 1653.6 548.053 1653.87 543.876 C 1654.03 541.57 1650.55 540.358 1648.28 537.138 z" fill="rgb(248,150,139)" transform="translate(0,0)"></path>
<path d="M 1618.88 526.07 C 1623.27 522.2 1633.39 521.009 1639.34 519.898 C 1641.38 524.921 1642.39 527.699 1645.36 532.259 C 1637.76 529.699 1622.05 529.092 1618.88 526.07 z" fill="rgb(243,157,98)" transform="translate(0,0)"></path>
<path d="M 1658.46 209.544 L 1659.84 210.899 C 1654.49 212.541 1611.21 212.729 1604.95 211.339 C 1612.3 209.77 1637.73 211.756 1649.53 209.916 C 1651.72 209.48 1656.05 209.578 1658.46 209.544 z" fill="rgb(77,63,22)" transform="translate(0,0)"></path>
<path d="M 410.604 211.293 C 409.311 206.691 409.827 185.44 410.628 180.053 C 411.543 186.126 411.709 205.567 410.604 211.293 z" fill="rgb(77,63,22)" transform="translate(0,0)"></path>
<path d="M 1660.48 180.858 C 1661.13 185.803 1661.98 207.225 1659.84 210.899 C 1660.48 201.101 1659.39 191.162 1660.48 180.858 z" fill="rgb(77,63,22)" transform="translate(0,0)"></path>
<path d="M 472.153 247.13 L 1602.69 246.962 C 1604.51 344.663 1602.74 448.764 1602.14 546.78 C 1602.13 574.303 1602.26 601.827 1602.54 629.349 C 1602.64 643.927 1603.05 659.974 1602.02 674.464 C 1601.38 683.38 1592.28 694.876 1588.91 703.829 C 1585.9 711.796 1585.66 716.484 1584.49 724.962 C 1582.34 740.335 1580.47 755.747 1578.9 771.189 C 1576.67 795.132 1580.03 802.53 1566.09 823.345 C 1558.4 805.876 1551.24 787.992 1543.59 770.43 C 1503.64 783.578 1462.31 800.524 1422.3 814.192 C 1402.67 820.9 1381.49 830.534 1361.51 835.688 C 1360.07 669.958 1360.17 504.218 1361.81 338.49 L 1270.04 338.49 C 1270.47 345.42 1270.41 353.853 1270.55 360.906 C 1270.57 354.159 1270.34 347.343 1271.47 340.669 C 1272.43 350.839 1272.04 366.049 1272.04 376.591 L 1271.94 434.689 C 1271.87 477.089 1273.19 526.202 1271.76 567.691 C 1269.86 564.922 1270.32 552.93 1270.49 548.997 C 1271.07 655.834 1270.9 762.675 1269.99 869.51 L 1361 869.499 C 1360.96 863.931 1360.35 852.839 1362.24 848.076 L 1364.55 853.903 C 1365.52 860.606 1371.77 873.989 1374.69 880.469 C 1395.94 927.664 1413.64 977.396 1434.41 1024.64 C 1425.49 1022.84 1347.74 1023.43 1338.06 1024.7 L 1338.11 1008.65 C 1244.56 1007.81 1151.01 1007.58 1057.47 1007.96 L 1057.63 1023.62 C 1050.41 1024.61 1023.65 1024.23 1014.5 1024.25 C 997.985 1024.3 981.471 1024.21 964.958 1024 C 958.345 1023.91 945.196 1024.06 939.349 1023.11 L 619.739 1021.81 C 615.369 1022.37 594.38 1022.03 589.058 1022.02 L 522.982 1021.84 L 522.218 1021.09 C 521.009 1017.14 522.202 981.556 522.313 975.131 L 548.973 975.122 C 547.715 969.737 546.049 963.779 544.466 958.466 C 533.192 920.63 523.15 882.22 512.07 844.368 C 521.415 838.893 530.69 833.3 539.893 827.59 C 540.137 841.398 540.191 855.21 540.053 869.02 C 590.248 869.767 642.265 869.188 692.504 869.14 L 964.997 868.78 L 965.02 533.785 C 965.075 469.932 966.008 402.975 964.625 339.349 L 848.554 339.462 C 782.17 338.725 715.778 339.061 649.404 340.47 C 657.799 340.556 668.966 340.397 677.046 341.142 L 678.008 341.238 L 677.558 472.849 L 542.864 472.939 L 542.618 388.684 C 542.614 374.495 543.155 355.534 542.213 341.655 L 541.607 340.749 C 540.293 343.238 540.328 711.837 540.023 748.564 C 527.473 754.333 513.18 759.589 500.256 765.238 C 490.758 739.278 479.223 704.561 472.501 677.553 C 470.988 671.473 472.106 644.282 472.112 636.281 L 472.334 545.309 L 472.153 247.13 z" fill="rgb(25,81,152)" transform="translate(0,0)"></path>
<path d="M 542.213 341.655 C 566.568 342.915 595.808 341.601 620.812 341.957 C 633.39 342.136 666.317 342.569 678.008 341.238 L 677.558 472.849 L 542.864 472.939 L 542.618 388.684 C 542.614 374.495 543.155 355.534 542.213 341.655 z" fill="rgb(253,253,254)" transform="translate(0,0)"></path>
<path d="M 1160.2 568.154 C 1189.78 568.342 1219.35 568.33 1248.93 568.118 L 1248.58 867.082 C 1241.43 867.893 1223.99 867.353 1216.28 867.294 L 1159.8 867.128 C 1158.75 768.337 1160.22 667.186 1160.2 568.154 z" fill="rgb(246,236,65)" transform="translate(0,0)"></path>
<path d="M 1049.92 736.838 L 1141.41 736.945 C 1142.51 750.437 1141.93 771.768 1141.9 785.758 L 1141.77 869.679 C 1112.51 870.591 1079.24 870.099 1049.91 869.842 L 1049.92 736.838 z" fill="rgb(2,9,22)" transform="translate(0,0)"></path>
<path d="M 1052.06 739.078 L 1139.35 739.01 C 1139.77 781.633 1139.36 824.749 1139.23 867.402 C 1111.11 868.137 1080.18 867.695 1052.08 867.48 L 1052.06 739.078 z" fill="rgb(64,175,163)" transform="translate(0,0)"></path>
<path d="M 521.129 1082.45 L 1558.11 1082.84 C 1557.9 1115.21 1558.23 1147.59 1559.1 1179.95 C 1560.75 1230.46 1564.13 1282.19 1566.21 1332.91 C 1553.23 1342.46 1540.41 1352.21 1527.74 1362.16 C 1515.39 1370.38 1502.51 1381.85 1489.08 1390.74 L 592.455 1391.07 C 566.923 1373.49 541.969 1353.31 515.364 1335.34 C 517.811 1271.95 517.781 1207.24 519.786 1143.81 C 520.214 1130.3 519.421 1093.2 521.129 1082.45 z" fill="rgb(248,211,55)" transform="translate(0,0)"></path>
<path d="M 1271.47 340.669 L 1360.28 340.746 L 1358.94 867.069 L 1271.56 867.231 C 1272.14 800.178 1272.28 733.121 1271.97 666.066 C 1271.93 633.631 1272.37 599.964 1271.76 567.691 C 1273.19 526.202 1271.87 477.089 1271.94 434.689 L 1272.04 376.591 C 1272.04 366.049 1272.43 350.839 1271.47 340.669 z" fill="rgb(253,253,254)" transform="translate(0,0)"></path>
<path d="M 366.894 978.637 L 367.497 975.781 C 370.885 974.879 405.993 975.362 411.317 975.366 L 520.12 975.097 L 513.543 1334.03 L 419.41 1334.05 C 406.093 1233.33 386.353 1131.43 374.803 1030.16 C 372.884 1016.66 369.885 991.354 366.894 978.637 z" fill="rgb(25,81,152)" transform="translate(0,0)"></path>
<path d="M 1707.13 591.936 C 1710.09 592.67 1718.03 603.678 1720.06 606.988 C 1756.19 666.086 1737.62 748.155 1738.34 813.865 C 1738.5 828.474 1736.12 843.029 1737.48 857.64 C 1739.87 874.152 1746.69 896.548 1751.09 912.811 C 1759.71 945.242 1768.62 977.597 1777.81 1009.87 C 1729.76 1009.41 1681.7 1009.43 1633.66 1009.94 C 1629.3 999.963 1625.15 989.287 1621.02 979.165 L 1591.86 904.594 C 1600.8 894.809 1638.96 853.061 1644.43 842.385 C 1665.98 800.313 1690.1 724.852 1693.23 676.822 C 1693.19 669.598 1689.87 657.103 1683.45 652.905 C 1659.31 637.141 1644.06 643.377 1627.79 661.899 C 1642.02 628.494 1677.6 610.226 1707.13 591.936 z" fill="rgb(64,175,163)" transform="translate(0,0)"></path>
<path d="M 1635.55 1012.47 C 1668.67 1011.07 1710.61 1012.14 1744.42 1012.04 C 1744.98 1118.76 1746.09 1225.48 1747.76 1332.19 L 1710.21 1332.26 L 1652.13 1332.71 C 1649.71 1320.3 1647.83 1305.67 1645.69 1292.99 L 1626.37 1179.65 L 1608.26 1079.38 C 1605.46 1063.96 1601.64 1046.9 1599.55 1031.55 C 1609.37 1028.15 1627.46 1023.11 1635.55 1019.21 C 1637.14 1016.73 1636.31 1016.48 1635.55 1012.47 z" fill="rgb(64,175,163)" transform="translate(0,0)"></path>
<path d="M 1217.63 211.012 C 1233.68 209.566 1267.63 210.523 1284.59 210.578 L 1413.33 211.019 L 1557.83 210.494 C 1564.51 210.5 1598.69 210.218 1602.25 211.306 C 1602.43 218.959 1603.11 232.422 1602.59 239.564 C 1602.78 241.478 1602.62 241.439 1602.3 243.392 C 1598.24 245.655 1509.76 244.349 1497.8 244.343 L 1254.45 244.295 L 472.295 244.84 L 472.603 227.6 L 472.754 211.203 L 1217.63 211.012 z" fill="rgb(248,211,55)" transform="translate(0,0)"></path>
<path d="M 1217.63 211.012 C 1233.68 209.566 1267.63 210.523 1284.59 210.578 L 1413.33 211.019 L 1557.83 210.494 C 1564.51 210.5 1598.69 210.218 1602.25 211.306 C 1597.02 212.395 1573.77 212.011 1567.06 211.997 L 1496.96 211.962 L 1312.49 211.995 L 1254.65 211.939 C 1243.62 211.91 1228.24 212.188 1217.63 211.012 z" fill="rgb(120,98,25)" transform="translate(0,0)"></path>
<path d="M 1060.01 1009.86 L 1335.69 1011.04 C 1335.68 1018.23 1335.89 1025.62 1336 1032.82 L 1337.81 1031 C 1337.8 1039.58 1337.97 1049.24 1337.64 1057.72 L 1337.87 1058.84 C 1365.67 1059.92 1394.76 1057.85 1422.7 1058.53 C 1427.47 1058.65 1445.5 1058.34 1449.1 1059.25 L 1457.74 1080.18 C 1416.87 1079.42 1374.01 1079.98 1333.03 1079.97 L 1098.68 1080.01 L 520.703 1080.12 L 520.946 1059.91 L 554.237 1059.8 C 556.104 1058.51 999.034 1058.6 1044.07 1058.72 L 1045.88 1057.19 L 1057.93 1057.07 L 1057.93 1035.11 L 1059.6 1035.61 C 1060.3 1029.4 1060 1016.62 1060.01 1009.86 z" fill="rgb(248,211,55)" transform="translate(0,0)"></path>
<path d="M 1060.01 1009.86 L 1335.69 1011.04 C 1335.68 1018.23 1335.89 1025.62 1336 1032.82 L 1335.21 1035.48 C 1327.54 1037.28 1286.26 1035.86 1276.23 1035.83 L 1131.25 1035.5 C 1113.72 1035.46 1075.79 1034.22 1059.6 1035.61 C 1060.3 1029.4 1060 1016.62 1060.01 1009.86 z" fill="rgb(64,175,163)" transform="translate(0,0)"></path>
<path d="M 1336 1032.82 L 1337.81 1031 C 1337.8 1039.58 1337.97 1049.24 1337.64 1057.72 L 1337.87 1058.84 L 1044.07 1058.72 L 1045.88 1057.19 L 1057.93 1057.07 L 1057.93 1035.11 L 1059.6 1035.61 C 1075.79 1034.22 1113.72 1035.46 1131.25 1035.5 L 1276.23 1035.83 C 1286.26 1035.86 1327.54 1037.28 1335.21 1035.48 L 1336 1032.82 z" fill="rgb(2,9,22)" transform="translate(0,0)"></path>
<path d="M 1337.87 1058.84 C 1365.67 1059.92 1394.76 1057.85 1422.7 1058.53 C 1427.47 1058.65 1445.5 1058.34 1449.1 1059.25 C 1442.27 1060.21 1424.53 1059.86 1417.1 1059.9 L 1351.45 1059.99 L 1131.56 1059.5 L 743.424 1059.93 L 622.303 1060.02 C 600.436 1060.03 575.917 1060.55 554.237 1059.8 C 556.104 1058.51 999.034 1058.6 1044.07 1058.72 L 1337.87 1058.84 z" fill="rgb(77,63,22)" transform="translate(0,0)"></path>
<path d="M 268.519 1334.95 L 304.368 1149.57 C 309.485 1122.89 316.23 1095.02 319.917 1068.12 C 322.584 1048.66 320.858 1021.97 322.219 1001.98 C 322.703 994.869 322.161 986.084 323.731 979.203 C 330.409 987.91 359.039 1023.66 366.286 1029.37 C 367.992 1031.19 371.189 1033.95 373.126 1035.74 C 380.444 1106 394.881 1178.57 403.7 1248.7 C 404.55 1255.47 385.821 1330.75 382.436 1336.34 C 373.429 1332.71 285.481 1334.89 268.519 1334.95 z" fill="rgb(25,81,152)" transform="translate(0,0)"></path>
<path d="M 577.102 805.598 C 565.418 805.202 497.766 854.358 480.545 859.351 C 458.05 865.873 443.737 853.853 437.655 832.852 C 425.743 791.727 415.245 750.25 404.042 708.929 C 402.53 703.354 400.886 697.042 400.23 691.281 C 399.052 663.071 419.737 623.548 453.235 641.383 C 467.75 665.541 468.871 677.763 477.133 703.447 C 483.908 724.446 490.911 745.371 498.141 766.217 C 493.141 768.434 488.957 769.915 485.049 773.801 C 492.986 771.935 501.941 766.018 509.824 763.077 C 539.183 752.126 567.761 738.674 597.196 727.885 C 604.103 725.354 612.812 724.324 616.802 732.121 C 622.324 742.911 633.319 755.096 633.252 767.594 C 633.219 770.272 627.529 774.32 625.318 775.756 L 624.225 776.46 L 624.737 777.759 C 617.92 781.922 582.464 803.812 577.102 805.598 z" fill="rgb(25,81,152)" transform="translate(0,0)"></path>
<path d="M 1649.83 647.296 C 1663.06 646.604 1675.62 646.029 1684.82 657.144 C 1691.42 665.113 1692.3 678.945 1690.6 688.691 C 1681.48 737.808 1666.55 792.979 1644.4 837.975 C 1632.4 862.36 1592.6 897.81 1574.73 919.486 C 1571.69 923.177 1563.61 932.195 1560.38 934.77 L 1558.9 934.143 C 1543.16 922.387 1532.33 912.152 1515.02 901.079 C 1518.93 893.888 1529.65 879.954 1534.76 872.963 C 1550.91 850.848 1567.81 827.075 1581.3 803.234 C 1587.38 792.477 1592.96 770.03 1596.68 757.759 C 1604.56 731.829 1612.42 705.141 1621.38 679.557 C 1626.41 665.217 1635.71 653.512 1649.83 647.296 z" fill="rgb(64,175,163)" transform="translate(0,0)"></path>
<path d="M 821.51 341.192 L 962.919 341.328 L 962.931 472.971 L 821.55 472.928 C 820.713 460.819 821.232 442.712 821.223 429.894 L 821.51 341.192 z" fill="rgb(253,253,254)" transform="translate(0,0)"></path>
<path d="M 821.516 736.083 L 962.957 736.105 L 963.029 824.714 C 963.052 833.314 963.694 860.001 962.565 866.519 L 821.04 866.624 L 821.516 736.083 z" fill="rgb(64,175,163)" transform="translate(0,0)"></path>
<path d="M 821.238 604.349 L 962.938 604.195 L 962.929 733.922 L 821.159 734.033 L 821.238 604.349 z" fill="rgb(253,253,254)" transform="translate(0,0)"></path>
<path d="M 1596.86 1032.06 C 1599.15 1035.93 1608.94 1095.86 1610.32 1103.84 L 1632.65 1229.95 C 1637.91 1261.34 1643.66 1302.18 1650.18 1332.31 C 1638.73 1332.6 1626.99 1332.6 1615.51 1332.74 L 1568.12 1332.87 C 1567.36 1284.18 1562.74 1233 1561.21 1184.13 C 1559.76 1137.94 1560.06 1091.24 1560.01 1045.01 C 1569.26 1040.77 1586.31 1035.79 1596.86 1032.06 z" fill="rgb(64,175,163)" transform="translate(0,0)"></path>
<path d="M 681.314 341.412 L 819.302 341.095 C 819.031 376.022 819.575 433.975 818.991 471.006 C 818.575 471.621 818.159 472.235 817.743 472.85 L 680.081 472.9 C 679.279 437.426 679.804 380.314 680.005 342.922 C 680.441 342.418 680.877 341.915 681.314 341.412 z" fill="rgb(253,253,254)" transform="translate(0,0)"></path>
<path d="M 687.942 735.025 C 700.949 733.922 737.942 734.162 750.148 735.863 L 819.174 736.048 L 819.043 866.51 L 727.916 866.673 C 713.55 866.72 693.405 867.448 679.799 866.45 L 679.774 774.756 C 679.768 767.726 679.213 741.16 680.234 736.219 C 682.951 734.491 684.323 735.076 687.942 735.025 z" fill="rgb(246,236,65)" transform="translate(0,0)"></path>
<path d="M 687.942 735.025 C 700.949 733.922 737.942 734.162 750.148 735.863 C 740.928 736.541 695.945 736.036 687.942 735.025 z" fill="rgb(120,98,25)" transform="translate(0,0)"></path>
<path d="M 821.599 475.013 L 962.908 475.058 L 962.837 602.563 C 957.728 601.698 911.478 601.647 903.28 602.002 C 880.334 602.996 842.798 600.353 821.295 602.504 C 821.428 560.297 821.023 517.136 821.599 475.013 z" fill="rgb(64,175,163)" transform="translate(0,0)"></path>
<path d="M 680.087 475.018 L 819.346 475.008 L 819.104 602.173 L 680.044 602.29 L 680.087 475.018 z" fill="rgb(64,175,163)" transform="translate(0,0)"></path>
<path d="M 521.314 1023.99 C 660.645 1023.75 799.977 1024.23 939.303 1025.43 L 1021.23 1025.82 C 1026.57 1025.83 1053.02 1025.55 1056.83 1026.41 C 1058.62 1029.54 1057.96 1031.11 1057.93 1035.11 L 1057.93 1057.07 L 1045.88 1057.19 C 971.519 1055.69 891.135 1056.92 816.357 1056.98 L 521.222 1057.31 L 521.314 1023.99 z" fill="rgb(253,253,254)" transform="translate(0,0)"></path>
<path d="M 542.626 474.983 L 677.804 475.033 L 677.741 602.632 C 672.37 601.627 621.027 601.659 613.106 601.978 C 596.156 602.66 557.51 600.747 542.508 602.596 C 542.796 560.059 542.835 517.521 542.626 474.983 z" fill="rgb(64,175,163)" transform="translate(0,0)"></path>
<path d="M 680.197 604.446 L 819.062 604.185 L 819.142 733.842 L 776.25 733.772 C 744.508 733.839 712.765 733.717 681.024 733.406 C 690.02 725.884 711.022 703.167 712.731 691.961 L 710.794 689.525 C 711.32 685.428 711.686 684.184 710.521 680.277 C 702.161 671.17 686.723 684.34 680.068 690.015 C 680.262 661.49 679.819 633.026 680.197 604.446 z" fill="rgb(253,253,254)" transform="translate(0,0)"></path>
<path d="M 1542.09 772.703 C 1549.21 789.575 1558.15 809.31 1564.49 826.13 L 1552.66 844.797 C 1547.19 831.497 1538.06 806.047 1532.05 794.724 C 1488.68 808.161 1445.01 827.381 1401.84 841.936 C 1396.02 843.896 1389.73 846.2 1384.04 848.481 C 1398.73 887.433 1417.41 927.344 1434.08 965.593 C 1434.67 966.932 1432.59 970.166 1431.9 971.284 C 1432.62 979.577 1438.36 977.42 1442.82 987.826 C 1452.25 1009.82 1461.46 1034.78 1471.6 1056.19 C 1500.64 1044.85 1529.84 1033.91 1559.18 1023.38 C 1573.1 1018.3 1596.63 1010.45 1609.41 1004.29 C 1602.68 987.982 1595.79 971.738 1588.74 955.563 C 1584.28 945.068 1579.7 932.556 1573.87 922.934 C 1579.19 917.528 1585.1 911.757 1590.08 906.098 C 1598.53 926.556 1606.44 947.81 1614.55 968.469 C 1620.97 984.804 1628.32 1001.87 1634.33 1018.18 C 1617.02 1023.81 1572.3 1037 1557.96 1044.08 L 1558.13 1080.63 C 1532.25 1080.76 1500.11 1081.71 1474.84 1079.82 C 1477.26 1078.61 1479.86 1077.83 1481.13 1075.84 C 1475.54 1076.85 1465.45 1080.24 1460.91 1080.44 C 1456.3 1075.6 1423.19 990.89 1418.25 979 L 1384.88 899.961 C 1380.53 889.435 1369.96 861.746 1364.55 853.903 L 1362.24 848.076 L 1360.96 838.012 C 1388.5 830.678 1435.21 811.839 1463.92 801.384 L 1514.76 782.932 C 1522.33 780.196 1535.08 776.015 1542.09 772.703 z" fill="rgb(248,211,55)" transform="translate(0,0)"></path>
<path d="M 544.235 604.501 L 677.753 604.354 L 678.065 691.877 C 664.413 700.49 661.161 699.977 647.89 706.236 C 653.71 701.35 661.063 695.33 660.165 686.908 C 658.193 683.406 659.221 684.603 655.608 682.506 C 631.131 695.4 629.313 708.735 614.716 724.968 C 611.24 724.99 606.056 723.629 603.611 723.975 C 596.206 725.022 583.168 732.306 576.223 733.302 C 566.78 734.658 551.845 734.109 542.032 734.071 L 542.177 651.26 C 542.209 638.446 541.678 617.634 542.728 605.675 L 544.235 604.501 z" fill="rgb(253,253,254)" transform="translate(0,0)"></path>
<path d="M 1386.72 849.703 C 1422.61 836.21 1458.6 823.011 1494.7 810.107 C 1507.07 805.751 1519.49 800.803 1532 796.992 C 1538.11 813.294 1544.58 830.899 1551.61 846.707 C 1538.44 864.643 1525.4 882.672 1512.49 900.792 L 1513.36 902.794 L 1514.04 905.15 C 1510.24 907.2 1485.49 932.264 1478.29 937.876 C 1465.27 948.021 1446.37 955.711 1436.14 965.808 C 1419.37 929.238 1400.66 887.349 1386.72 849.703 z" fill="rgb(253,253,254)" transform="translate(0,0)"></path>
<path d="M 630.595 751.025 C 647.32 746.394 661.787 742.936 677.703 735.672 L 677.585 866.702 L 542.131 866.559 C 542.148 853.386 541.911 839.304 542.272 826.206 L 577.102 805.598 C 582.464 803.812 617.92 781.922 624.737 777.759 C 639.35 770.177 636.525 764.609 630.595 751.025 z" fill="rgb(253,253,254)" transform="translate(0,0)"></path>
<path d="M 1572.58 924.865 C 1577.09 930.162 1602.8 994.02 1606.87 1003.82 C 1564.46 1020.57 1520.19 1034.12 1478.06 1051.77 C 1475.89 1052.68 1474.5 1052.92 1472.32 1052.3 L 1471.04 1049.6 C 1460.24 1025.1 1450.27 1001.15 1439.8 976.574 C 1464.69 979.03 1499.79 988.668 1523.62 974.032 C 1534.36 967.439 1546.39 944.043 1552.86 932.765 L 1559.76 939.021 C 1564.05 934.476 1568.37 929.524 1572.58 924.865 z" fill="rgb(253,253,254)" transform="translate(0,0)"></path>
<path d="M 1649.08 1335.17 C 1681.8 1334.29 1715.1 1335.44 1748.04 1334.47 C 1748.38 1352.98 1748.06 1372.47 1748.06 1391.06 L 1667.85 1391.27 L 1566.28 1391.17 C 1575.94 1386.25 1589.72 1376.23 1598.92 1369.86 L 1649.08 1335.17 z" fill="rgb(25,81,152)" transform="translate(0,0)"></path>
<path d="M 268.167 1337.13 L 377.673 1337.04 C 388.001 1343.51 406.506 1358.89 417.17 1366.92 L 417.2 1391.14 L 268.108 1391.14 L 268.167 1337.13 z" fill="rgb(64,175,163)" transform="translate(0,0)"></path>
<path d="M 419.676 1336.3 L 513.36 1336.33 C 536.911 1354.21 564.643 1373.4 588.789 1390.88 C 572.536 1391.82 549.207 1391.08 532.079 1391.09 L 419.771 1391.13 L 419.676 1336.3 z" fill="rgb(64,175,163)" transform="translate(0,0)"></path>
<path d="M 1513.36 902.794 C 1522.7 907.31 1543.12 923.725 1551.19 930.814 C 1540.85 950.95 1527.22 983.688 1499.79 977.599 C 1498.03 977.208 1492.52 979.384 1490.51 979.548 C 1483.67 980.869 1472.65 979.865 1466 977.943 L 1463.93 975.805 L 1461.3 970.734 L 1459.66 968.473 C 1454.1 967.978 1449.77 974.635 1442.5 973.519 C 1439.56 971.695 1439.58 970.926 1438.23 967.502 C 1440.05 962.963 1467.67 947.067 1473.48 943.092 C 1480.25 938.452 1512.97 910.861 1514.04 905.15 L 1513.36 902.794 z" fill="rgb(243,157,98)" transform="translate(0,0)"></path>
<path d="M 1567.64 1335.39 C 1590.52 1334.21 1621.76 1335.11 1645.29 1335.06 C 1618.85 1352.22 1593.43 1371.52 1566.51 1388.78 C 1560.6 1393.23 1505.17 1390.92 1493.09 1390.87 C 1514.09 1374.99 1546.99 1348.42 1567.64 1335.39 z" fill="rgb(25,81,152)" transform="translate(0,0)"></path>
<path d="M 696.729 679.698 C 700.425 679.819 699.894 679.195 702.006 681.103 C 701.196 685.01 695.95 687.795 692.925 693.004 L 693.443 693.898 C 696.735 690.155 704.093 681.296 709.205 682.503 C 709.474 686.923 702.819 694.063 699.772 697.913 C 700.202 697.505 700.641 697.106 701.086 696.715 C 702.945 695.082 707.092 691.822 709.538 691.973 C 702.245 701.96 686.426 715.894 681.154 724.284 C 689.517 718.584 703.824 701.472 711.132 693.111 C 701.964 709.56 692.682 721.884 677.723 733.538 C 665.116 740.185 643.099 745.896 629.237 749.826 C 624.758 741.985 620.751 735.268 615.834 727.698 C 624.658 713.87 639.314 690.371 655.434 685.438 C 658.18 686.323 656.959 685.528 658.745 688.518 C 658.581 696.803 648.47 700.005 646.315 707.54 L 647.044 708.302 C 660.012 707.898 685.959 686.392 696.729 679.698 z" fill="rgb(251,184,24)" transform="translate(0,0)"></path>
<path d="M 1337.81 1031 L 1338.67 1027.57 C 1344.21 1026.32 1363.88 1026.64 1370.63 1026.62 L 1434.92 1026.49 C 1438.87 1035.52 1444.79 1048.04 1448.02 1057.04 L 1374.84 1057.2 C 1366.31 1057.22 1345.58 1056.77 1337.64 1057.72 C 1337.97 1049.24 1337.8 1039.58 1337.81 1031 z" fill="rgb(253,253,254)" transform="translate(0,0)"></path>
<path d="M 1635.5 623.761 C 1637.32 642.215 1621.91 670.318 1615.9 688.494 C 1609.01 709.6 1602.42 730.803 1596.14 752.098 C 1591.92 766.531 1586.24 789.435 1579.49 802.295 C 1578.03 795.259 1580.51 770.888 1581.7 762.595 C 1583.91 747.08 1586.16 719.948 1590.63 705.672 C 1595.16 691.19 1611.02 667.235 1619.39 653.418 C 1625.24 643.801 1630.62 633.904 1635.5 623.761 z" fill="rgb(64,175,163)" transform="translate(0,0)"></path>
<path d="M 404.651 1257.86 C 407.735 1261.51 414.409 1319.57 416.157 1327.99 C 417.454 1334.24 417.202 1356.74 417.162 1364.02 L 404.798 1354.83 C 398.111 1350.02 391.111 1344.28 384.587 1339.16 C 392.085 1312.27 398.776 1285.16 404.651 1257.86 z" fill="rgb(248,211,55)" transform="translate(0,0)"></path>
<path d="M 1687.88 581.003 C 1692.48 582.18 1700.14 588.969 1704.12 592.197 C 1681.31 604.536 1663.67 615.468 1644.79 632.923 L 1635.64 643.151 C 1640.17 598.841 1645.71 594.616 1687.88 581.003 z" fill="rgb(253,253,254)" transform="translate(0,0)"></path>
<path d="M 1657.96 561.72 C 1673.52 575.471 1682.07 555.046 1686.03 574.084 L 1687.36 577.451 C 1687.18 578.113 1686.99 578.774 1686.81 579.435 C 1682.02 581.406 1672.46 584.8 1668.02 586.644 C 1659.63 590.126 1652.96 593.923 1645.45 598.347 C 1644.75 591.65 1643.59 586.499 1642.17 579.969 C 1651.17 574.488 1654.14 571.726 1657.96 561.72 z" fill="rgb(243,157,98)" transform="translate(0,0)"></path>
<path d="M 421.946 861.117 C 439.045 860.992 459.799 860.271 476.102 864.697 C 477.767 867.209 477.135 869.851 476.901 872.94 L 422.173 873.374 L 421.946 861.117 z" fill="rgb(25,81,152)" transform="translate(0,0)"></path>
<path d="M 541.972 735.833 C 547.305 735.828 563.541 735.233 567.33 736.768 C 565.936 738.902 563.988 739.119 561.23 740.251 C 554.848 742.341 548.97 746.667 543.331 745.627 C 541.106 742.042 541.941 740.672 541.972 735.833 z" fill="rgb(253,253,254)" transform="translate(0,0)"></path>
<path d="M 440.679 625.713 C 447.436 625.7 452.904 631.624 450.884 637.417 L 448.775 636.847 C 444.313 635.521 438.667 634.52 434.02 633.572 C 437.019 630.879 438.334 628.9 440.679 625.713 z" fill="rgb(25,81,152)" transform="translate(0,0)"></path>
<path d="M 1448.66 975.122 C 1452.85 972.775 1456.83 969.853 1461.3 970.734 L 1463.93 975.805 L 1462.61 977.622 C 1458.29 978.074 1453.04 976.255 1448.66 975.122 z" fill="rgb(248,150,139)" transform="translate(0,0)"></path>
<metadata><recraft-signature>{"signed_by": "recraft", "signature_b64": "Gg1SpSS7oJrGcWAJY85/geHPttfDJw8//j+B4wQ74uhnZyEBvOELZGan5BPwbI28E6yXAdB6mm9ovyMEpF2JCA==", "signing_algo": "Ed25519", "generation_timestamp": 1776427278, "identifier": "23fed380-37ef-41b6-8853-50f0aa41746a"}</recraft-signature></metadata></svg>