<svg xmlns="http://www.w3.org/2000/svg" height="1024" preserveAspectRatio="none" style="display: block;" version="1.1" viewBox="0 0 2048 1536" width="1365">
<defs>
	<linearGradient gradientUnits="userSpaceOnUse" id="Gradient1" x1="1559.43" x2="1650.98" y1="843.677" y2="907.595">
		<stop class="stop0" offset="0" stop-color="rgb(104,142,56)" stop-opacity="1"></stop>
		<stop class="stop1" offset="1" stop-color="rgb(150,111,63)" stop-opacity="1"></stop>
	</linearGradient>
	<linearGradient gradientUnits="userSpaceOnUse" id="Gradient2" x1="1927.66" x2="1353.47" y1="316.644" y2="1042.63">
		<stop class="stop0" offset="0" stop-color="rgb(208,238,249)" stop-opacity="1"></stop>
		<stop class="stop1" offset="1" stop-color="rgb(244,249,251)" stop-opacity="1"></stop>
	</linearGradient>
</defs>
<path d="M 0 0 L 2048 0 L 2048 1536 L 0 1536 L 0 0 z" fill="rgb(254,254,254)" transform="translate(0,0)"></path>
<path d="M 728.251 301.902 C 732.337 299.08 746.92 269.678 751.441 262.477 C 796.796 190.232 871.462 116.386 962.999 119.93 C 985.281 120.792 1015.24 134.226 1029.32 152.194 C 1065.36 197.577 1047.89 253.948 1025.54 300.943 L 1136.82 300.91 C 1145.57 300.911 1180.25 300.478 1186.54 301.819 C 1207.81 302.209 1238.2 302.652 1259.4 301.725 C 1275.04 299.267 1323.28 270.717 1338.64 261.315 C 1379.91 236.042 1417.44 205.441 1460.13 182.048 C 1592.02 109.761 1741.61 149.275 1843.61 252.623 C 2012.94 424.207 2032.29 708.102 1891.16 902.665 C 1886.26 909.361 1879.78 917.159 1873.26 922.26 C 1896.55 947.071 1889.04 972.539 1879.51 1001.57 C 1930.41 1000.67 1913.3 1053.96 1895.06 1080.6 C 1915.42 1084.3 1931.9 1095.22 1925.33 1119 C 1915.22 1155.64 1886.09 1181.04 1850.31 1191.92 L 1850.75 1226.24 C 1858.93 1226.06 1881.7 1224.51 1887.39 1228.11 C 1891.04 1236.67 1884.97 1297.75 1883.81 1310.38 L 1882.8 1318.32 C 1865.63 1317.51 1841.41 1318.11 1823.98 1318.46 C 1808.33 1319.82 1775.66 1319.06 1758.36 1318.95 C 1732.43 1318.78 1697.86 1320.08 1672.96 1318.16 C 1663.62 1318.77 1651.93 1318.46 1642.49 1318.35 C 1606.23 1317.91 1569.66 1318.71 1533.44 1318.16 C 1524.02 1319.38 1507.85 1319.03 1498.01 1319.02 L 1443.68 1318.93 L 1259.45 1319.04 L 863.481 1318.82 L 671.555 1318.43 C 656.037 1318.23 638.637 1318.85 623.426 1318.14 C 606.916 1319.51 577.19 1318.77 559.978 1318.83 L 433.981 1318.9 L 228.326 1318.85 C 211.755 1318.88 85.4566 1320.13 80.3798 1317.23 L 79.8906 1315.13 C 84.5526 1308.58 95.505 1311.4 102.451 1310.73 C 119.003 1309.14 148.843 1313.74 163.607 1310.4 L 164.616 1308.24 C 165.437 1310.58 165.171 1312.62 165.03 1315.04 L 166.137 1317.22 C 172.601 1317.98 220.441 1318.02 226.993 1317.24 C 229.193 1314.87 229.058 1314.34 229.633 1310.99 C 263.789 1310.93 307.562 1309.61 340.853 1311.04 C 341.021 1268.29 344.131 1225.26 345.167 1182.5 C 345.502 1168.69 346.129 1154.54 347.113 1140.78 C 340.485 1140.97 334.695 1142.11 329.545 1138.35 C 325.285 1130.91 320.897 1056.72 319.444 1042.01 C 310.248 1041.99 279.033 1048.16 292.913 1019.64 C 295.376 1014.58 311.153 1015.93 317.308 1016.1 C 317.158 997.966 306.793 930.497 312.679 920.385 C 314.613 917.062 318.474 916.452 321.909 915.45 C 321.567 912.344 312.364 903.029 309.498 899.951 C 288.777 877.704 267.003 851.27 250.015 825.882 C 213.094 770.706 180.432 706.043 157.34 643.591 C 120.265 543.322 88.2699 404.788 134.93 302.852 C 153.531 262.217 181.407 232.433 224.142 217.368 C 282.684 196.731 341.997 215.361 391.272 249.196 C 412.546 263.804 432.249 281.736 454.926 295.183 C 466.084 301.799 478.34 309.273 490.284 314.399 C 496.804 317.198 504.529 318.648 511.393 321.857 C 514.515 302.337 526.836 301.955 543.223 301.981 C 560.6 302.009 578.044 301.979 595.424 301.994 L 728.251 301.902 z" fill="rgb(0,43,73)" transform="translate(0,0)"></path>
<path d="M 1259.4 301.725 C 1275.04 299.267 1323.28 270.717 1338.64 261.315 C 1379.91 236.042 1417.44 205.441 1460.13 182.048 C 1592.02 109.761 1741.61 149.275 1843.61 252.623 C 2012.94 424.207 2032.29 708.102 1891.16 902.665 C 1886.26 909.361 1879.78 917.159 1873.26 922.26 C 1896.55 947.071 1889.04 972.539 1879.51 1001.57 C 1930.41 1000.67 1913.3 1053.96 1895.06 1080.6 C 1915.42 1084.3 1931.9 1095.22 1925.33 1119 C 1915.22 1155.64 1886.09 1181.04 1850.31 1191.92 L 1850.75 1226.24 C 1858.93 1226.06 1881.7 1224.51 1887.39 1228.11 C 1891.04 1236.67 1884.97 1297.75 1883.81 1310.38 L 1882.8 1318.32 C 1865.63 1317.51 1841.41 1318.11 1823.98 1318.46 C 1808.33 1319.82 1775.66 1319.06 1758.36 1318.95 C 1732.43 1318.78 1697.86 1320.08 1672.96 1318.16 C 1677.38 1317.67 1678.84 1318.25 1683.68 1317.25 C 1686.71 1314.63 1685.76 1315.49 1687.1 1311.06 C 1685.75 1287.51 1689.06 1266.4 1690.01 1243.01 C 1692.29 1181.2 1695.11 1119.42 1698.5 1057.67 C 1701.43 1004.79 1707.81 970.771 1701.57 917.532 C 1709.9 916.463 1732.15 912.715 1735.08 904.055 C 1744.94 874.949 1725.27 826.297 1721.77 798.63 C 1716.59 757.68 1661.78 763.213 1655.98 741.71 C 1660.62 729.76 1686.55 732.605 1689.85 717.181 C 1700.58 706.162 1693.52 707.991 1696.85 696.841 C 1707.23 689.521 1695.95 687.41 1696.62 684.072 C 1700.17 666.573 1695.88 673.951 1689.07 664.557 C 1687.63 647.417 1678.18 655.216 1668.11 642.298 C 1663.87 634.591 1651.25 638.172 1651.16 637.779 C 1649.73 631.421 1620.75 635.546 1619.76 636.78 C 1611.74 646.859 1606.18 638.827 1600.29 645.996 C 1597.42 659.372 1593.56 653.519 1586.73 663.827 C 1584.74 666.848 1588.24 672.625 1583.46 677.391 C 1574.36 685.314 1584.52 690.353 1581.96 697.986 C 1579.29 705.972 1582.29 706.518 1587.47 711.833 C 1587.52 727.288 1600.11 722.178 1608.03 737.011 C 1613.86 738.879 1619.23 738.974 1620.79 745.048 C 1620.55 745.864 1620.3 747.487 1619.86 748.15 C 1617.44 751.824 1597.01 760.204 1591.96 763.178 C 1585.6 766.921 1554.78 820.282 1549.75 830.451 C 1548.38 833.221 1547.61 836.316 1546.87 839.304 C 1541.69 834.405 1536.88 829.253 1531.97 824.091 L 1532.31 459.51 L 1532.52 357.288 C 1532.49 343.111 1532.93 326.48 1531.51 312.372 C 1531.08 308.13 1525.18 304.363 1521.81 302.026 C 1498.68 301.207 1470.22 301.918 1446.66 301.85 L 1259.4 301.725 z" fill="url(#Gradient2)" transform="translate(0,0)"></path>
<path d="M 1816.9 1001.91 C 1809.42 978.673 1800.98 950.377 1817.02 928.687 C 1823.02 920.451 1832.09 914.981 1842.18 913.509 C 1854.71 911.626 1863.48 914.884 1873.26 922.26 C 1896.55 947.071 1889.04 972.539 1879.51 1001.57 C 1930.41 1000.67 1913.3 1053.96 1895.06 1080.6 C 1915.42 1084.3 1931.9 1095.22 1925.33 1119 C 1915.22 1155.64 1886.09 1181.04 1850.31 1191.92 L 1850.75 1226.24 C 1858.93 1226.06 1881.7 1224.51 1887.39 1228.11 C 1891.04 1236.67 1884.97 1297.75 1883.81 1310.38 L 1882.8 1318.32 C 1865.63 1317.51 1841.41 1318.11 1823.98 1318.46 C 1817.87 1314.69 1820.2 1315.44 1818.49 1309.21 L 1810.97 1225.96 C 1822.57 1225.91 1834.36 1225.74 1845.94 1226.25 L 1845.89 1192.34 C 1808.69 1178.86 1775.6 1156.38 1769.66 1114.01 C 1766.71 1092.97 1777.41 1081.27 1798.02 1079.57 C 1789.71 1061.56 1772.01 1029.99 1789.34 1011.16 C 1796.63 1003.23 1806.58 1002.01 1816.9 1001.91 z" fill="rgb(0,43,73)" transform="translate(0,0)"></path>
<path d="M 1845.86 1186.42 C 1811.29 1175 1770.13 1143.59 1776.78 1100.83 C 1779.73 1081.81 1798.69 1089.03 1805.38 1084.85 C 1805.64 1074.38 1788.77 1050.33 1788.2 1036.62 C 1787.55 1020.73 1793.43 1009.3 1811.33 1007.76 C 1815.49 1007.41 1819.11 1010.97 1824.12 1010.47 C 1827.18 1004.58 1802.06 950.459 1822.92 931.573 C 1861.27 896.834 1893.91 944.918 1878.94 983.073 C 1876.81 988.477 1871.37 1004.39 1871.72 1009.37 C 1881.14 1009.13 1891.26 1006.73 1899.08 1013.5 C 1922.33 1033.64 1886.31 1076.63 1887.21 1084.86 C 1891.04 1087.84 1901.82 1088.53 1907.6 1091.07 C 1923.29 1097.96 1921.31 1115.24 1914.65 1128.72 C 1900.66 1157.06 1880.08 1175.43 1850.32 1186.39 L 1850.02 1152.68 C 1859.02 1143.18 1881.94 1123.52 1886.43 1114.33 L 1885.63 1113.51 C 1879.6 1115.57 1858.08 1139.45 1850.33 1145.37 C 1849.49 1130.27 1851.93 1030.91 1848.51 1025.62 L 1846.67 1025.85 C 1844.95 1028.42 1845.83 1133.19 1845.91 1145.75 L 1844.81 1146.12 C 1837.51 1138.9 1811.45 1114.17 1802.62 1112.89 C 1802.81 1116.54 1837.75 1144.79 1842.95 1149.57 C 1847.54 1153.81 1845.9 1179.38 1845.86 1186.42 z" fill="rgb(165,205,59)" transform="translate(0,0)"></path>
<path d="M 1818.83 1232.75 C 1839.35 1232.18 1861.52 1232.49 1882.07 1232.76 C 1880.62 1257.21 1878.85 1281.65 1876.79 1306.06 C 1876.56 1307.74 1876.37 1307.55 1875.39 1309.16 C 1869.11 1310.87 1834.29 1310.09 1825.65 1310.03 C 1824.01 1284.22 1821.73 1258.45 1818.83 1232.75 z" fill="rgb(0,191,242)" transform="translate(0,0)"></path>
<path d="M 1818.49 1309.21 C 1820.2 1315.44 1817.87 1314.69 1823.98 1318.46 C 1808.33 1319.82 1775.66 1319.06 1758.36 1318.95 C 1732.43 1318.78 1697.86 1320.08 1672.96 1318.16 C 1677.38 1317.67 1678.84 1318.25 1683.68 1317.25 C 1686.71 1314.63 1685.76 1315.49 1687.1 1311.06 C 1690.63 1310.96 1694.21 1311.02 1697.74 1310.99 C 1737.32 1310.58 1776.91 1310.77 1816.49 1310.59 C 1817.16 1310.13 1817.82 1309.67 1818.49 1309.21 z" fill="rgb(26,84,128)" transform="translate(0,0)"></path>
<path d="M 1671.25 524.014 C 1681.31 523.759 1765.42 523.008 1770.43 525.102 C 1771.96 528.071 1771.44 527.323 1771.13 531.213 C 1763.7 532.378 1678.66 532.804 1673.07 531.202 C 1670.52 527.986 1671.31 529.088 1671.25 524.014 z" fill="rgb(0,43,73)" transform="translate(0,0)"></path>
<path d="M 1772.8 582.348 C 1781.52 582.001 1842.38 580.7 1846.8 584.147 C 1847.5 587.362 1847.52 586.072 1845.74 589.546 C 1828.67 590.712 1793.28 589.444 1774.68 589.34 C 1773.88 588.835 1773.07 588.329 1772.26 587.824 C 1771.37 584.626 1771.46 585.904 1772.8 582.348 z" fill="rgb(0,43,73)" transform="translate(0,0)"></path>
<path d="M 1750.03 554.085 C 1757.42 553.99 1785.99 551.681 1789.34 557.575 C 1788.74 560.758 1789.5 559.437 1786.75 561.526 C 1778.93 561.603 1755.68 563.089 1750.15 559.84 C 1748.7 556.739 1748.97 558.057 1750.03 554.085 z" fill="rgb(0,43,73)" transform="translate(0,0)"></path>
<path d="M 817.957 975.985 C 860.173 975.673 902.391 975.598 944.609 975.76 C 954.747 975.763 1012.31 974.395 1015.91 977.691 C 1018.35 992.467 992.724 990.48 988.591 1017.5 C 987.188 1026.98 989.599 1036.64 995.297 1044.35 C 1001.33 1052.54 1009.87 1057.21 1019.89 1058.54 C 1029.81 1059.87 1039.85 1057.15 1047.75 1051 C 1055.48 1044.99 1060.5 1036.15 1061.72 1026.44 C 1063.4 1012.12 1056.72 999.743 1044.31 992.356 C 1037.19 988.112 1031.88 985.856 1034.02 977.167 C 1038.13 974.453 1159.18 975.47 1173.37 975.473 L 1422.41 975.582 L 1485.21 975.674 C 1494.19 975.696 1513.73 976.283 1521.81 974.818 C 1529.92 980.531 1559.25 978.47 1569.24 976.984 C 1566.75 1047.76 1561.55 1118.63 1559.02 1189.38 C 1558.39 1206.93 1554.33 1262.04 1557.01 1276.13 C 1549.32 1290.68 1542.95 1293.29 1528.26 1300.48 C 1523.8 1302.67 1521.36 1305.31 1520.75 1310.35 C 1523.87 1320.4 1524.1 1317.18 1533.44 1318.16 C 1524.02 1319.38 1507.85 1319.03 1498.01 1319.02 L 1443.68 1318.93 L 1259.45 1319.04 L 863.481 1318.82 L 671.555 1318.43 L 672.53 1310.73 C 712.633 1311.19 753.157 1310.25 793.125 1310.88 C 799.252 1311.55 801.998 1311.34 808.216 1310.9 C 807.791 1271.83 805.683 1231.22 804.067 1192.15 L 797.855 1036.85 C 805.796 1036.89 841.31 1040.13 844.721 1033.89 C 860.43 1005.15 828.365 1011 812.36 1011.13 C 817.232 997.934 816.989 989.999 817.957 975.985 z" fill="rgb(254,254,254)" transform="translate(0,0)"></path>
<path d="M 1520.75 1310.35 C 1523.87 1320.4 1524.1 1317.18 1533.44 1318.16 C 1524.02 1319.38 1507.85 1319.03 1498.01 1319.02 L 1443.68 1318.93 L 1259.45 1319.04 L 863.481 1318.82 L 671.555 1318.43 L 672.53 1310.73 C 712.633 1311.19 753.157 1310.25 793.125 1310.88 C 799.252 1311.55 801.998 1311.34 808.216 1310.9 C 874.728 1309.9 942.756 1310.64 1009.4 1310.64 L 1343.79 1310.4 L 1470.02 1310.67 C 1477.55 1310.69 1516.44 1311.22 1520.75 1310.35 z" fill="rgb(26,84,128)" transform="translate(0,0)"></path>
<path d="M 321.909 915.45 C 321.567 912.344 312.364 903.029 309.498 899.951 C 288.777 877.704 267.003 851.27 250.015 825.882 C 213.094 770.706 180.432 706.043 157.34 643.591 C 120.265 543.322 88.2699 404.788 134.93 302.852 C 153.531 262.217 181.407 232.433 224.142 217.368 C 282.684 196.731 341.997 215.361 391.272 249.196 C 412.546 263.804 432.249 281.736 454.926 295.183 C 466.084 301.799 478.34 309.273 490.284 314.399 C 496.804 317.198 504.529 318.648 511.393 321.857 C 512.27 341.9 511.813 365.144 511.867 385.372 L 511.78 517.235 L 511.217 875.905 C 497.794 856.164 488.398 855.563 465.979 846.754 C 484.25 829.134 480.005 803.823 473.129 781.737 C 478.225 762.709 474.407 758.853 454.483 755.882 C 437.946 753.417 419.276 751.071 405.094 761.818 C 393.978 770.281 391.04 782.156 394.509 795.4 C 398.719 811.475 403.913 827.284 408.327 843.312 C 363.338 857.38 355.295 867.638 353.711 916.04 C 346.842 916.052 327.617 916.41 321.909 915.45 z" fill="rgb(228,249,253)" transform="translate(0,0)"></path>
<path d="M 265.847 496.029 C 279.798 496.048 370.051 494.991 374.199 497.478 C 375.346 500.361 375.03 499.364 374.179 502.944 C 361.822 502.914 270.089 503.98 266.133 502.065 C 264.788 499.022 265.232 499.896 265.847 496.029 z" fill="rgb(0,43,73)" transform="translate(0,0)"></path>
<path d="M 300.737 524.859 C 308.969 525.042 320.793 523.263 327.825 525.952 C 329.998 528.666 329.336 527.67 329.692 531.683 C 321.615 532.23 310.646 533.434 303.093 531.048 C 300.479 528.236 301.278 529.365 300.737 524.859 z" fill="rgb(0,43,73)" transform="translate(0,0)"></path>
<path d="M 256.411 523.428 C 258.882 523.024 261.241 524.61 261.799 527.05 C 262.358 529.49 260.923 531.944 258.523 532.655 C 256.83 533.156 254.999 532.675 253.771 531.407 C 252.543 530.139 252.121 528.294 252.675 526.618 C 253.23 524.942 254.669 523.713 256.411 523.428 z" fill="rgb(0,43,73)" transform="translate(0,0)"></path>
<path d="M 279.433 524.382 C 280.933 523.412 282.854 523.386 284.379 524.314 C 285.905 525.241 286.765 526.96 286.593 528.737 C 286.421 530.514 285.248 532.036 283.574 532.655 C 281.348 533.477 278.861 532.493 277.799 530.372 C 276.737 528.251 277.441 525.67 279.433 524.382 z" fill="rgb(0,43,73)" transform="translate(0,0)"></path>
<path d="M 728.251 301.902 C 732.337 299.08 746.92 269.678 751.441 262.477 C 796.796 190.232 871.462 116.386 962.999 119.93 C 985.281 120.792 1015.24 134.226 1029.32 152.194 C 1065.36 197.577 1047.89 253.948 1025.54 300.943 L 1136.82 300.91 C 1145.57 300.911 1180.25 300.478 1186.54 301.819 C 1161.74 302.865 1130.42 301.981 1105.22 301.981 L 948.41 301.808 L 944.578 301.884 L 728.251 301.902 z" fill="rgb(228,249,253)" transform="translate(0,0)"></path>
<path d="M 944.578 301.884 C 941.613 301.087 939.225 301.24 937.738 297.666 C 932.377 284.794 935.002 277.953 938.327 264.243 C 941.339 250.203 963.664 222.991 974.945 245.005 C 979.197 253.302 974.332 273.003 969.745 280.567 C 964.062 289.936 959.621 299.322 948.41 301.808 L 944.578 301.884 z" fill="rgb(254,254,254)" transform="translate(0,0)"></path>
<path d="M 619.371 1037.42 C 636.429 1036.35 658.789 1036.96 676.181 1036.96 L 776.759 1037 C 781.753 1128.32 787.208 1219.61 793.125 1310.88 C 753.157 1310.25 712.633 1311.19 672.53 1310.73 C 668.825 1293.61 654.648 1293.48 642.059 1283.72 C 642.183 1265.94 644.111 1244.65 645.396 1226.74 L 651.666 1139.58 C 653.42 1114.93 657.242 1087.57 651.985 1063.27 C 648.25 1046 634.93 1041.07 619.371 1037.42 z" fill="rgb(254,254,254)" transform="translate(0,0)"></path>
<path d="M 368.182 1140.6 C 392.05 1140.42 415.919 1140.52 439.784 1140.91 C 439.402 1146.66 439.062 1152.73 439.011 1158.48 C 438.58 1207.17 432.624 1257.18 432.924 1305.72 L 431.668 1310.44 C 425.456 1313 366.683 1309.5 353.924 1311.51 C 356.215 1259.68 363.068 1192.47 368.182 1140.6 z" fill="rgb(254,254,254)" transform="translate(0,0)"></path>
<path d="M 462.06 1140.51 C 469.817 1140.49 478.595 1140.26 486.268 1140.61 C 492.208 1196.16 497.094 1256.29 504.212 1311.17 C 493.182 1310.42 454.697 1312.16 447.296 1310.45 L 446.257 1308.21 C 449.905 1273.56 453.164 1238.86 456.034 1204.13 C 457.531 1185.84 459.052 1158.43 462.06 1140.51 z" fill="rgb(254,254,254)" transform="translate(0,0)"></path>
<path d="M 507.338 1140.29 C 520.005 1140.12 532.675 1140.26 545.335 1140.7 C 550.648 1195.97 550.648 1251.81 555.622 1306.21 L 554.738 1309.72 C 550.452 1311.82 519.171 1312.55 517.499 1309.25 C 515.099 1253.55 510.181 1196.27 507.338 1140.29 z" fill="rgb(254,254,254)" transform="translate(0,0)"></path>
<path d="M 555.622 1306.21 C 556.381 1308.91 556.316 1310.21 556.166 1313.02 L 557.488 1314.64 C 579.839 1314.64 601.148 1314.16 623.529 1315.47 C 638.049 1316.32 652.012 1314.45 666.869 1316.47 C 652.848 1317.95 624.918 1315.45 611.022 1317.26 C 614.71 1317.48 619.816 1317.69 623.426 1318.14 C 606.916 1319.51 577.19 1318.77 559.978 1318.83 L 433.981 1318.9 L 228.326 1318.85 C 211.755 1318.88 85.4566 1320.13 80.3798 1317.23 L 79.8906 1315.13 C 84.5526 1308.58 95.505 1311.4 102.451 1310.73 C 119.003 1309.14 148.843 1313.74 163.607 1310.4 L 164.616 1308.24 C 165.437 1310.58 165.171 1312.62 165.03 1315.04 L 166.137 1317.22 C 172.601 1317.98 220.441 1318.02 226.993 1317.24 C 229.193 1314.87 229.058 1314.34 229.633 1310.99 C 263.789 1310.93 307.562 1309.61 340.853 1311.04 C 344.679 1312.73 349.924 1312.43 353.924 1311.51 C 366.683 1309.5 425.456 1313 431.668 1310.44 L 432.924 1305.72 C 433.337 1309.88 432.989 1313.76 439.598 1313.73 C 441.816 1313.71 443.563 1312.53 445.348 1311.22 L 446.257 1308.21 L 447.296 1310.45 C 454.697 1312.16 493.182 1310.42 504.212 1311.17 C 507.843 1312.89 515.007 1313.23 517.499 1309.25 C 519.171 1312.55 550.452 1311.82 554.738 1309.72 L 555.622 1306.21 z" fill="rgb(26,84,128)" transform="translate(0,0)"></path>
<path d="M 1532.9 893.974 C 1542.38 903.145 1545.6 904.651 1559.2 904.67 C 1567.88 904.682 1567.41 904.765 1572.22 911.507 C 1570.37 931.356 1571.43 959.569 1569.24 976.984 C 1559.25 978.47 1529.92 980.531 1521.81 974.818 C 1526.45 972.134 1530.67 969.181 1531.53 963.505 C 1534.69 942.908 1532.46 915.1 1532.9 893.974 z" fill="rgb(228,249,253)" transform="translate(0,0)"></path>
<path d="M 542.069 395.876 L 1501.09 395.417 L 1501.09 709.155 C 1501.05 733.95 1501.26 768.102 1500.64 793.324 C 1500.23 793.797 1499.82 794.271 1499.41 794.745 C 1493.07 792.733 1487.22 775.084 1483.48 768.824 C 1481.1 763.429 1479.99 758.851 1475.5 755.445 L 1473.39 755.131 C 1468.8 760.097 1471.3 768.528 1472.92 774.406 C 1452.86 762.71 1456.17 758.191 1442.92 746.052 C 1435.22 749.659 1434.71 749.169 1433.24 758.507 C 1432.06 765.965 1435.16 773.701 1435.3 780.294 C 1446.66 794.04 1456.52 800.069 1473.16 804.714 C 1478.56 811.806 1479.67 812.32 1475.84 820.963 C 1476.42 823.182 1476.31 823.582 1477.92 825.244 C 1482.75 832.709 1493.37 845.639 1499.15 853.283 C 1500.49 881.528 1499.67 921.424 1499.28 950.125 L 819.117 950.397 L 819.783 937.471 C 801.242 937.98 782.426 937.551 763.729 937.996 C 763.283 941.773 763.012 946.32 762.689 950.169 L 727.028 950.192 C 729.544 937.98 741.131 906.863 737.46 898.229 C 714.997 889.766 628.968 899.008 600.96 895.374 C 578.884 892.51 572.772 933.788 568.03 950.533 L 542.152 950.772 L 542.069 395.876 z" fill="rgb(254,254,254)" transform="translate(0,0)"></path>
<path d="M 574.052 421.891 C 591.404 422.847 612.141 422.17 629.939 422.43 C 683.966 423.218 738.1 422.161 792.17 421.948 C 794.02 491.691 792.416 566.09 792.094 635.967 L 792.701 863.626 C 769.006 862.848 740.633 863.85 716.473 863.917 L 574.66 863.791 C 573.454 851.056 574.014 826.896 573.988 813.113 L 574.055 715.888 L 574.052 421.891 z" fill="rgb(228,249,253)" transform="translate(0,0)"></path>
<path d="M 602.766 806.423 C 642.532 805.184 718.404 806.31 761.368 807.278 C 762.669 807.308 763.154 809.464 763.491 810.517 C 762.191 814 763.171 812.814 759.767 814.73 L 656.149 814.5 C 639.919 814.406 623.227 814.768 607.044 813.907 C 602.188 813.648 601.249 813.137 598.613 810.029 C 600.112 807.378 599.734 808.167 602.766 806.423 z" fill="rgb(0,191,242)" transform="translate(0,0)"></path>
<path d="M 599.36 506.088 C 648.006 504.892 697.434 506.856 746.186 505.824 C 750.381 505.735 757.435 505.497 761.252 506.659 C 763.327 510.146 762.658 509.226 762.66 513.904 C 749.419 514.823 604.574 514.644 600.14 513.09 C 598.562 509.882 599.161 510.205 599.36 506.088 z" fill="rgb(0,191,242)" transform="translate(0,0)"></path>
<path d="M 712.951 478.473 C 726.523 478.271 741.258 477.707 754.854 477.961 C 757.861 478.017 759.561 479.698 761.147 481.839 L 760.584 484.011 C 754.675 488.212 664.571 486.892 650.25 486.945 C 642.079 486.959 602.392 489.113 598.771 484.308 L 599.484 482.511 C 600.794 481.32 603.698 478.962 605.378 478.927 C 614.338 478.741 624.846 478.997 633.785 478.992 C 660.174 479.106 686.565 478.933 712.951 478.473 z" fill="rgb(0,191,242)" transform="translate(0,0)"></path>
<path d="M 656.844 625.484 C 685.607 624.92 729.236 625.749 759.237 626.009 C 761.092 626.026 762.388 628.137 763.137 629.718 L 762.055 631.798 C 755.599 635.128 716.426 633.611 706.25 633.51 L 636.431 633.49 C 625.941 633.458 615.42 633.605 604.945 633.398 C 601.215 633.325 598.71 631.779 598.138 628.126 C 601.156 625.183 607.702 625.661 612.021 625.673 C 626.967 625.714 641.899 625.599 656.844 625.484 z" fill="rgb(0,191,242)" transform="translate(0,0)"></path>
<path d="M 750.822 533.52 C 755.38 533.268 759.659 532.166 762.299 536.38 C 761.565 539.638 762.315 538.285 760.071 540.641 C 752.019 542.005 722.266 541.457 712.466 541.468 L 608.75 541.268 L 602.385 541.096 C 599.389 539.475 599.53 539.599 597.683 536.733 L 598.28 535.434 C 606.128 532.239 736.649 533.557 750.822 533.52 z" fill="rgb(0,191,242)" transform="translate(0,0)"></path>
<path d="M 598.93 782.039 C 632.776 781.355 668.132 782.327 702.114 781.764 C 711.168 781.614 756.815 781.005 762.281 782.461 C 764.29 785.097 763.597 784.765 763.653 788.921 C 731.902 790.144 695.595 788.37 663.332 789.136 C 651.342 789.42 610.175 789.914 600.468 788.61 C 598.289 786.102 599.04 786.369 598.93 782.039 z" fill="rgb(0,191,242)" transform="translate(0,0)"></path>
<path d="M 599.532 453.148 C 609.376 452.886 678.539 452.297 684.079 453.589 C 685.585 456.977 685.027 461.162 684.92 465.027 C 673.735 465.087 604.901 466.493 600.321 463.388 C 598.711 460.051 599.331 456.966 599.532 453.148 z" fill="rgb(0,191,242)" transform="translate(0,0)"></path>
<path d="M 600.096 596.161 L 656.618 596.183 C 663.659 596.184 678.944 595.75 685.172 596.955 C 686.721 600.414 686.192 604.215 686.092 608.131 C 673.062 608.164 609.003 609.92 600.314 607.406 C 598.971 603.526 599.69 600.312 600.096 596.161 z" fill="rgb(0,191,242)" transform="translate(0,0)"></path>
<path d="M 599.797 561.074 C 622.353 561.507 645.078 560.77 667.649 560.982 C 673.598 561.038 679.971 560.604 685.761 561.934 C 688.171 564.812 687.378 564.315 687.658 568.994 C 670.697 569.598 651.813 568.735 634.654 569.086 C 627.999 569.222 606.415 569.493 601.191 568.431 C 599.259 565.415 599.935 565.305 599.797 561.074 z" fill="rgb(0,191,242)" transform="translate(0,0)"></path>
<path d="M 599.051 651.17 C 610.384 651.125 679.11 649.754 685.363 651.916 C 687.378 655.03 686.709 654.233 686.514 658.753 C 674.338 659.536 655.714 658.863 643.113 658.996 C 632.216 659.112 611.028 659.641 600.793 658.589 C 598.364 655.464 599.172 656.094 599.051 651.17 z" fill="rgb(0,191,242)" transform="translate(0,0)"></path>
<path d="M 600.981 831.035 C 610.701 830.75 678.342 829.926 682.206 832.409 C 683.161 835.611 682.649 835.143 681.623 838.967 C 671.118 838.963 605.023 840.193 600.659 837.438 C 599.617 833.926 599.913 835.075 600.981 831.035 z" fill="rgb(0,191,242)" transform="translate(0,0)"></path>
<path d="M 1327.1 455.915 C 1327.06 448.475 1326.3 431.809 1336.33 430.884 C 1364.36 428.291 1394.28 430.952 1422.24 429.945 C 1454.26 428.792 1444.23 447.133 1445.65 471.193 C 1446.9 492.317 1402.01 485.129 1388.84 485.295 L 1388.83 662.165 C 1424.94 662.184 1447.85 652.169 1443.21 696.754 C 1441.89 709.364 1446.24 719.317 1427.28 720.096 C 1397.22 720.259 1366.13 721.294 1336.22 719.292 C 1323.03 718.41 1325.06 703.289 1324.82 695.266 C 1324.05 669.352 1324.13 659.093 1354.01 661.533 C 1360.72 662.08 1374.19 661.95 1381.09 661.9 L 1381.03 571.136 L 1289.06 571.104 C 1288.85 577.465 1289.29 586.091 1283.96 590.653 C 1279.27 594.674 1192.35 593.866 1182.81 591.574 C 1179.81 590.85 1177.18 589.941 1174.68 588.061 C 1170.4 580.591 1169.15 539.374 1178.08 538.666 C 1199.8 536.941 1263.91 533.124 1282.47 538.594 C 1290.62 545.159 1288.63 554.305 1288.27 563.754 C 1318.41 563.759 1351.03 564.397 1380.97 563.448 L 1380.99 485.076 C 1361.19 485.022 1326.85 493.446 1326.96 467.326 C 1326.97 465.907 1326.99 464.488 1327.02 463.07 L 1231.64 463.187 C 1224.78 463.206 1189.12 463.792 1184.41 462.314 C 1182.77 462.645 1181.23 463.04 1179.62 463.438 C 1176.84 467.043 1177.05 472.639 1176.56 477.522 C 1175.61 478.825 1174.64 480.141 1173.55 481.337 C 1170.35 484.853 1167.14 485.705 1162.57 486.028 C 1149.23 486.973 1070.79 488.106 1064.98 482.41 C 1059.71 477.246 1060.7 469.829 1060.76 463.101 C 1040.77 462.992 1024.5 463.163 1004.72 466.51 C 995.101 468.138 979.652 465.992 969.475 466.879 C 958.652 467.822 935.967 468.61 937.824 452.52 C 938.027 450.586 940.802 447.327 942.468 446.79 C 949.219 444.614 957.837 444.944 965.126 445.036 C 981.351 445.241 998.301 443.732 1014.33 445.725 C 1017.55 446.126 1019.57 451.665 1020.69 454.096 C 1024.39 457.391 1054.04 455.96 1061.04 455.898 C 1060.93 446.154 1060.33 431.109 1073.66 431.003 C 1102.95 430.769 1133.12 430.506 1162.44 430.719 C 1178.46 430.836 1176.65 443.81 1177.92 454.472 C 1180.21 456.52 1181.78 456.034 1185.36 456.416 C 1190.4 455.219 1219.86 455.752 1226.64 455.758 L 1327.1 455.915 z" fill="rgb(0,43,73)" transform="translate(0,0)"></path>
<path d="M 1334.07 669.965 C 1351.94 669.188 1372.81 670.234 1390.96 669.899 C 1399.66 669.738 1424.25 669.488 1431.85 670.646 C 1436.83 674.44 1436.33 706.665 1433.31 711.911 C 1422.09 713.34 1339.83 714.361 1334.24 710.225 C 1332.04 703.759 1332.29 676.451 1334.07 669.965 z" fill="rgb(165,205,59)" transform="translate(0,0)"></path>
<path d="M 1182.09 544.302 C 1194.48 543.832 1269.62 543.187 1277.88 545.305 C 1283.17 549.507 1282 578.318 1278.95 584.253 C 1261.14 585.213 1202.67 584.452 1181.81 583.26 C 1181.08 583.219 1180.43 580.849 1180.33 580.136 C 1179.25 572.911 1178.49 549.854 1182.09 544.302 z" fill="rgb(0,191,242)" transform="translate(0,0)"></path>
<path d="M 1338.72 438.058 L 1398.08 438 C 1407.83 438.001 1425.49 437.494 1434.45 439.031 C 1440.15 443.975 1437.09 458.589 1437.84 465.669 C 1438.34 470.261 1436.76 473.834 1433.87 477.426 C 1424.87 478.566 1343.79 478.502 1338.35 476.37 C 1332.89 469.911 1333.64 444.499 1338.72 438.058 z" fill="rgb(0,191,242)" transform="translate(0,0)"></path>
<path d="M 1071.37 438.908 C 1087.56 437.785 1108.97 438.855 1125.56 438.551 C 1134.49 438.387 1159.61 438.193 1167.03 439.511 C 1171.53 444.858 1171.45 472.208 1167.08 477.886 C 1142.89 478.226 1118.59 477.832 1094.38 478.03 C 1087.37 478.088 1077.42 478.406 1070.79 476.908 C 1066.48 472.542 1068.1 463.705 1068.04 457.743 C 1067.96 450.529 1066.54 444.759 1071.37 438.908 z" fill="rgb(249,223,78)" transform="translate(0,0)"></path>
<path d="M 1006.9 452.497 C 1008.8 452.499 1009.51 452.759 1011.36 453.184 C 1013.37 456.14 1013.41 455.189 1012.93 457.804 C 1008.87 460.429 959.582 459.362 951.75 459.329 C 947.574 458.861 948.762 459.598 946.137 457.102 L 946.275 455.044 C 951.718 451.107 997.658 452.495 1006.9 452.497 z" fill="rgb(0,191,242)" transform="translate(0,0)"></path>
<path d="M 955.144 664.052 C 984.015 661.414 1019.88 664.671 1049.26 664.328 C 1063.52 664.162 1061.37 681.342 1061.08 691.331 L 1130.13 691.05 C 1142.49 691.031 1160.86 690.578 1172.81 691.809 C 1173.17 723.892 1173.25 755.978 1173.05 788.062 C 1183.71 788.17 1217.35 784.844 1224.32 790.545 C 1228.32 793.81 1229.67 799.255 1229.94 804.194 C 1230.36 811.915 1232.03 835.503 1226.63 841.069 C 1223.98 843.795 1219.05 844.824 1215.38 845.274 C 1206.57 846.354 1197.06 845.365 1188.15 845.251 L 1145.65 845.128 C 1138.85 845.283 1122.41 846.678 1117.71 842.462 C 1110.47 835.952 1110.25 795.744 1117.74 790.76 C 1124.8 786.07 1155.36 787.932 1165.1 788.005 C 1166.39 760.308 1165.68 727.048 1165.81 698.931 C 1131.02 698.729 1096.24 698.773 1061.46 699.062 C 1061.55 707.802 1061.44 719.778 1049.4 720.007 C 1018.75 720.481 987.516 721.289 956.927 719.844 C 943.993 719.055 944.26 705.004 944.898 695.474 C 945.908 680.408 940.297 673.138 955.144 664.052 z" fill="rgb(0,43,73)" transform="translate(0,0)"></path>
<path d="M 1121.92 796.079 C 1146.32 795.667 1170.88 796.163 1195.3 795.891 C 1202.37 795.812 1212.09 795.426 1218.91 796.65 C 1223.76 801.736 1221.98 826.487 1221.36 834.008 C 1221.36 834.009 1219.23 836.771 1218.97 837.107 C 1204.2 837.958 1184.34 837.009 1169.24 837.441 C 1160.99 837.676 1130.55 838.105 1123.74 836.618 C 1118.29 831.987 1119.03 801.418 1121.92 796.079 z" fill="rgb(165,205,59)" transform="translate(0,0)"></path>
<path d="M 958.195 671.238 C 986.988 670.845 1016.37 671.473 1045.2 671.723 C 1046.87 671.737 1051.21 672.025 1051.96 673.512 C 1055.09 679.709 1053.72 698.106 1054 705.803 C 1054.14 709.581 1050.84 711.571 1048.96 712.945 C 1035.82 712.967 963.154 714.693 955.193 711.003 C 951.418 705.173 953.419 683.85 953.241 676.022 C 953.194 673.935 956.491 672.319 958.195 671.238 z" fill="rgb(165,205,59)" transform="translate(0,0)"></path>
<path d="M 1654.15 917.505 L 1654.9 917.674 C 1661.38 923.713 1684.35 918.813 1694.18 917.673 C 1700.59 955.913 1696.69 991.031 1693.58 1029.73 C 1691.44 1054.02 1689.8 1078.36 1688.66 1102.72 C 1685.62 1157.38 1685.26 1211.65 1682.05 1265.98 C 1669.06 1266.17 1656.07 1266.45 1643.08 1266.81 C 1637.71 1211.52 1633.01 1156.16 1629 1100.75 C 1627.42 1077.71 1625.69 1054.68 1623.83 1031.66 C 1623.38 1026.21 1622.37 998.725 1618.16 996.643 C 1613.79 999.768 1615.02 1004.55 1615.5 1009.24 C 1618.34 1038.81 1621.27 1070.44 1619.44 1100.01 C 1615.99 1155.77 1609.18 1211.49 1603.16 1267.06 C 1589.45 1267.42 1575.75 1267.58 1562.04 1267.52 C 1562.9 1230.38 1566.21 1189.44 1567.95 1151.81 L 1578.59 918.712 C 1602.82 928.04 1628.99 920.591 1654.15 917.505 z" fill="rgb(26,84,128)" transform="translate(0,0)"></path>
<path d="M 417.257 922.475 C 435.975 922.152 454.971 922.21 473.715 922.116 C 474.949 954.732 478.381 991.05 480.857 1023.79 C 483.229 1055.18 485.449 1091.69 489.605 1122.54 C 496.836 1123.07 511.86 1122.49 519.744 1122.45 L 580.516 1122.16 L 580.584 1132.92 C 547.638 1132.96 514.693 1133.19 481.75 1133.61 C 438.62 1133.5 377.107 1131.44 334.822 1133.99 C 330.342 1089.33 326.553 1044.6 323.457 999.825 C 321.714 976.819 318.4 945.495 318.182 923.241 C 350.089 922.213 384.819 923.037 417.257 922.475 z" fill="rgb(165,205,59)" transform="translate(0,0)"></path>
<path d="M 543.172 357.06 L 1233.4 357.046 L 1428.84 356.836 C 1440.6 356.792 1493.61 357.556 1500.68 356.248 L 1500.76 387.958 L 542.485 388.205 C 542.832 377.784 542.504 367.565 543.172 357.06 z" fill="rgb(0,191,242)" transform="translate(0,0)"></path>
<path d="M 542.078 326.348 L 1500.85 327.162 C 1500.98 333.666 1502.07 342.423 1500.22 348.07 C 1497.68 350.505 1497.96 349.699 1493.39 350.039 C 1475.16 348.902 1447.38 349.677 1428.56 349.708 L 1308.67 349.859 L 934.202 349.722 L 669.696 349.876 L 593.891 349.749 C 583.22 349.696 560.328 349.068 550.487 350.155 C 545.806 349.9 545.703 350.716 542.828 348.034 C 540.581 341.378 542.154 333.843 542.078 326.348 z" fill="rgb(254,254,254)" transform="translate(0,0)"></path>
<path d="M 483.898 962.525 C 495.758 971.132 510.42 1024.18 530.894 1033.2 C 544.158 1039.05 551.52 1036.47 564.929 1038.51 C 586.168 1041.8 608.489 1042.47 629.327 1047.52 C 640.891 1050.32 647.453 1066.36 647.724 1077.13 C 648.301 1099.97 645.584 1123.6 643.834 1146.45 C 641.063 1182.86 638.591 1219.3 636.419 1255.76 L 635.812 1267.01 C 628.463 1267.2 601.691 1269.24 596.047 1265.53 C 589.847 1261.45 592.232 1135.33 587.398 1118.03 C 583.072 1114.46 507.477 1116.07 496.274 1116.11 C 492.64 1100.4 491.109 1063.7 489.975 1046.37 C 488.301 1020.78 483.906 987.444 483.898 962.525 z" fill="rgb(26,84,128)" transform="translate(0,0)"></path>
<path d="M 1659.46 756.221 C 1661.53 757.012 1661.41 757.113 1662.97 758.738 C 1663.55 766.65 1655.85 785.263 1660.4 790.191 C 1665.22 789.096 1668.46 768.061 1669.8 762.379 C 1680.68 766.979 1694.52 771.155 1703.67 778.584 C 1716.46 788.973 1729.41 864.033 1731.08 882.979 C 1731.55 888.241 1732.05 897.922 1728.2 901.99 C 1718.27 912.466 1674.66 913.298 1660 914.622 C 1658.54 905.864 1657.36 896.45 1656.08 887.613 C 1667.35 885.52 1678.66 882.952 1689.88 880.549 C 1697.7 878.871 1702.75 880.432 1710.5 880.642 L 1711.47 879.716 C 1709.26 876.386 1701.35 875.294 1697.49 874.542 C 1696.67 865.195 1688.4 819.769 1684.88 812.36 C 1682.19 810.483 1683.62 810.784 1680.46 811.331 C 1680.02 812.047 1679.58 812.763 1679.14 813.478 C 1679.93 819.411 1684.1 836.975 1685.17 841.716 L 1691.03 873.491 C 1682.89 875.382 1674.82 876.613 1666.44 878.208 C 1662.82 878.898 1655.32 880.432 1651.45 881.355 C 1651.37 881.375 1648.56 885.419 1648.28 885.83 L 1645.62 885.899 C 1632.29 877.948 1640.77 817.525 1609.29 825.906 C 1598.21 828.854 1598.33 822.742 1593.03 820.369 L 1591.26 821.129 C 1591.19 821.641 1590.67 825.939 1589.52 826.123 C 1576.46 828.221 1568.21 824.791 1556.49 832.179 C 1562.83 821.718 1569.17 811.143 1575.6 800.749 C 1586.7 782.828 1586.82 772.29 1607.08 762.447 C 1606.75 769.026 1605.81 785.826 1606.71 791.833 L 1608.16 792.642 L 1611.05 791.348 C 1617.32 784.626 1607.9 765.745 1617.1 758.51 L 1618.23 759.074 C 1621.56 772.827 1622.81 796.591 1631.82 807.956 C 1632.56 808.887 1634.22 808.084 1635.35 807.811 C 1642.69 801.699 1655.15 767.365 1659.46 756.221 z" fill="rgb(0,191,242)" transform="translate(0,0)"></path>
<path d="M 593.43 908.226 C 636.509 907.486 681.449 908.264 724.716 908.313 C 713.559 938.533 705.859 970.943 695.574 1001.54 L 686.25 1001.81 L 636.43 1001.94 C 634.831 998.921 634.356 998.24 632.129 995.642 C 626.956 993.256 597.887 995.888 592.105 997.455 C 587.08 1003.43 585.633 1001.83 577.986 1001.6 C 572.712 1001.43 567.335 1000.91 562.062 1000.55 C 565.398 984.66 574.939 960.748 579.886 944.954 C 582.367 937.037 589.956 914.451 593.43 908.226 z" fill="rgb(254,254,254)" transform="translate(0,0)"></path>
<path d="M 642.124 940.968 C 643.718 941.103 645.236 941.265 646.803 941.622 C 649.526 942.233 651.882 943.926 653.329 946.312 C 658.328 954.594 651.028 962.583 643.874 966.273 C 627.328 966.18 626.572 948.168 642.124 940.968 z" fill="rgb(0,43,73)" transform="translate(0,0)"></path>
<path d="M 416.988 848.126 C 442.536 845.313 462.648 851.404 485.703 861.815 C 491.456 864.412 496.155 867.261 500.129 872.271 C 510.557 885.42 527.431 938.985 534.466 957.751 C 525.542 964.395 510.541 974.129 500.848 979.439 C 498.374 974.872 495.807 969.404 493.451 964.695 C 490.645 959.401 484.657 948.688 482.962 943.512 C 480.988 937.483 482.896 922.13 478.152 916.826 C 467.54 913.278 377.595 915.813 359.9 915.896 C 366.28 863.815 368.589 862.759 416.988 848.126 z" fill="rgb(0,191,242)" transform="translate(0,0)"></path>
<path d="M 1594.99 833.442 C 1604.18 833.164 1611.48 833.088 1620.67 833.481 C 1625.76 845.248 1631.67 873.581 1636.85 888.889 C 1623.42 881.573 1607.02 876.959 1591.98 884.741 C 1590.37 885.577 1590.85 886.516 1590.68 888.348 C 1595.79 897.645 1609.42 897.599 1616.15 902.512 C 1611.5 903.719 1604.06 901.671 1597.86 902.578 C 1599.69 910.92 1629.07 912.354 1634.51 904.679 L 1633.69 902.322 C 1627.15 896.366 1613.86 893.774 1605.05 891.356 C 1601.98 890.166 1602.02 890.245 1599.49 888.186 L 1600.4 887.102 C 1612.67 885.745 1627.3 891.604 1638.54 896.115 C 1641.9 894.547 1645.62 892.436 1648.93 890.667 C 1650.67 897.309 1652.15 904.38 1653.66 911.105 C 1639.98 912.958 1594.88 920.834 1583.04 912.322 C 1567.79 897.523 1565.81 865.731 1560.78 846.757 C 1556.58 830.947 1584.56 833.843 1594.99 833.442 z" fill="url(#Gradient1)" transform="translate(0,0)"></path>
<path d="M 553.122 1139.23 L 581.981 1139.06 C 582.59 1182.17 585.972 1225.26 586.369 1267.89 L 560.999 1267.83 C 557.069 1227.11 556.145 1180.89 553.122 1139.23 z" fill="rgb(26,84,128)" transform="translate(0,0)"></path>
<path d="M 535.744 1018.03 C 565.925 1017.73 833.748 1016.61 839.19 1019.14 C 841.169 1022.12 840.591 1024.99 840.507 1028.74 C 834.462 1030.22 818.587 1029.49 812.028 1029.42 C 795.125 1029.14 778.219 1029.03 761.314 1029.08 C 688.899 1029.43 616.297 1029.24 543.871 1029.22 C 540.774 1029.22 539.269 1029.25 536.866 1027.48 C 535.055 1024.27 535.593 1021.8 535.744 1018.03 z" fill="rgb(165,205,59)" transform="translate(0,0)"></path>
<path d="M 1506.05 806.584 C 1518.98 819.373 1531.42 832.634 1543.37 846.339 C 1542.08 850.322 1541.15 852.251 1541.8 856.469 L 1543.17 857.63 C 1548.43 854.14 1549.67 849.365 1552.1 843.524 C 1555.14 858.506 1560.51 879.943 1564.86 895.456 C 1564.59 895.941 1564.33 896.427 1564.06 896.913 C 1559.46 898.405 1552.48 898.084 1547.55 897.742 C 1538.42 891.716 1488.44 831.659 1488.17 826.063 C 1493.6 822.955 1501.28 819.111 1505.16 814.317 L 1504.07 813.493 C 1500.08 813.758 1499.4 813.867 1495.82 815.525 L 1489.22 818.508 L 1506.05 806.584 z" fill="rgb(0,191,242)" transform="translate(0,0)"></path>
<path d="M 1613.16 699.164 C 1615.97 696.915 1619.79 694.248 1621.71 691.368 L 1620.95 690.226 C 1618.62 690.237 1616.9 690.287 1614.57 690.45 C 1614.63 677.473 1639.51 677.792 1646.5 685.143 C 1650.23 689.072 1650.56 701.633 1653.35 704.096 C 1655.17 700.318 1656.67 695.936 1660.35 694.393 C 1665.11 697.1 1666.34 700.937 1664.8 705.992 C 1656.66 714.551 1654.81 710.572 1652.56 724.922 C 1650.71 736.66 1649.72 741.412 1653.97 752.742 C 1648.86 767.23 1641.32 784.147 1633.64 797.45 C 1629.07 782.931 1625.54 768.808 1624.37 753.582 C 1627.3 749.3 1628.65 747.096 1631 742.476 C 1635.4 742.111 1639.72 741.324 1642.9 738.077 C 1644.24 734.905 1644.31 734.491 1644.2 731.049 C 1638.91 728.875 1617.18 746.399 1612.61 730.536 C 1610.34 722.656 1606.83 709.551 1611.23 702.029 C 1620.57 708.873 1610.47 710.449 1614.32 716.912 C 1617.22 721.774 1625.32 727.16 1631.28 722.479 C 1627.99 717.906 1617.46 720.232 1616.42 712.657 C 1617.61 710.738 1617.59 710.385 1619.3 708.945 C 1628.47 717.925 1637.68 715.415 1642.99 704.218 C 1641.8 699.363 1642.77 700.802 1639.73 697.704 C 1635.44 696.101 1630.74 697.288 1625.99 697.901 C 1622.31 698.303 1616.67 699.073 1613.16 699.164 z" fill="rgb(153,84,58)" transform="translate(0,0)"></path>
<path d="M 1630.4 689.183 C 1634.6 688.686 1639.74 687.708 1642.99 690.919 C 1640.41 692.783 1637.68 692.303 1634.32 692.306 L 1629.27 693.848 C 1625.97 694.878 1626.25 695.006 1622.81 693.908 L 1623.04 692.579 C 1625.22 690.48 1627.43 690.119 1630.4 689.183 z" fill="rgb(0,43,73)" transform="translate(0,0)"></path>
<path d="M 1624.59 1127.04 C 1627.6 1145.44 1629.34 1177.43 1630.84 1196.97 C 1632.7 1221.27 1636.39 1255.41 1636.05 1279.15 C 1629.71 1291.19 1621.82 1295.06 1611.02 1303.04 C 1609.49 1305.24 1607.41 1309.26 1606.03 1311.73 C 1605.99 1284.48 1609.4 1278.16 1611.53 1253.3 C 1613.83 1227.14 1616.38 1201.01 1619.2 1174.9 C 1620.54 1161.4 1622.09 1139.31 1624.59 1127.04 z" fill="rgb(254,254,254)" transform="translate(0,0)"></path>
<path d="M 797.843 950.518 L 810.08 950.203 C 810.24 962.516 812.192 998.137 804.365 1008.63 C 801.785 1012.09 787.687 1011.11 782.75 1011.03 C 770.636 1009.63 772.179 959.912 772.222 950.715 C 780.556 950.489 789.461 950.579 797.843 950.518 z" fill="rgb(254,254,254)" transform="translate(0,0)"></path>
<path d="M 719.605 976.314 L 765.308 976.312 C 765.98 989.887 766.109 997.271 770.476 1010.46 C 768.126 1011.55 763.319 1011.2 760.5 1011.2 L 708.67 1011.22 C 713.036 1001.96 716.766 986.696 719.605 976.314 z" fill="rgb(254,254,254)" transform="translate(0,0)"></path>
<path d="M 593 1273.71 C 606.906 1274.46 620.829 1274.84 634.755 1274.86 C 634.813 1277.16 634.524 1283.3 635.27 1285.27 C 640.707 1299.6 659.535 1295.02 664.791 1308.8 C 641.367 1309.87 616.431 1308.49 592.997 1307.91 L 593 1273.71 z" fill="rgb(153,84,58)" transform="translate(0,0)"></path>
<path d="M 536.351 965.942 C 538.746 967.387 552.878 988.073 556.781 992.746 C 550.059 998.333 547.344 1002.29 542.308 1009.13 C 539.064 1013.54 535.283 1010.86 531.133 1013.19 C 528.907 1016.22 529.115 1018.63 528.775 1022.43 C 519.211 1012.31 512.462 998.575 506.711 985.944 C 515.315 979.298 527.068 972.018 536.351 965.942 z" fill="rgb(153,84,58)" transform="translate(0,0)"></path>
<path d="M 1447.99 769.645 C 1448.5 768.158 1449.86 767.342 1451.21 766.102 L 1453.35 766.311 C 1456.28 771.742 1471.08 779.935 1477.38 777.505 L 1481.22 774.925 C 1486.41 786.218 1489.54 793.205 1497.62 802.975 C 1495.09 804.762 1487.39 809.959 1485.7 811.865 C 1484.03 810.307 1476.84 801.062 1474.87 798.681 C 1472.17 797.952 1469.5 797.161 1466.84 796.31 C 1456.5 792.929 1445.65 785.647 1440.68 775.699 C 1445.85 779.536 1446.02 783.235 1453.32 781.656 C 1456.7 777.101 1451.37 772.336 1447.99 769.645 z" fill="rgb(153,84,58)" transform="translate(0,0)"></path>
<path d="M 560.44 1274.87 L 586.27 1275.05 L 585.865 1308.91 L 562.471 1308.78 L 560.44 1274.87 z" fill="rgb(153,84,58)" transform="translate(0,0)"></path>
<path d="M 469.755 791.956 C 471.728 794.383 472.377 809.904 472.279 813.432 C 472.03 822.369 470.621 833.821 463.82 840.276 C 459.956 841.245 449.425 840.129 444.918 839.825 C 443.649 839.635 443.915 839.547 442.716 838.691 C 444.006 834.305 447.952 826.479 450.166 822.186 C 452.53 820.762 454.494 819.58 456.055 818.64 C 456.59 812.436 457.37 805.556 457.176 799.393 C 460.871 796.905 465.819 794.223 469.755 791.956 z" fill="rgb(153,84,58)" transform="translate(0,0)"></path>
<path d="M 1565.44 1274.17 L 1599.77 1273.98 L 1599.74 1295.18 L 1589.25 1295.18 L 1552.59 1295.24 C 1560.46 1288.02 1562.64 1284.23 1565.44 1274.17 z" fill="rgb(189,112,85)" transform="translate(0,0)"></path>
<path d="M 1667.87 1273.59 L 1680 1272.78 L 1679.85 1293.98 C 1668.93 1293.93 1659.16 1294.29 1648.25 1294.83 L 1633.93 1295.34 L 1634.77 1294.35 C 1641.19 1286.89 1642.27 1284.8 1644.5 1275.11 C 1652.3 1274.71 1660.09 1274.21 1667.87 1273.59 z" fill="rgb(189,112,85)" transform="translate(0,0)"></path>
<path d="M 1546.42 1302.49 C 1556.21 1302.36 1592.6 1300.08 1598.52 1305.43 C 1599.11 1308.71 1599.3 1307.2 1598.22 1310.13 C 1594.95 1311.32 1587.67 1310.9 1583.79 1310.87 C 1574.75 1310.99 1538.28 1312.73 1532.45 1309.29 L 1532.45 1307.56 C 1536.77 1303.15 1540.51 1303.13 1546.42 1302.49 z" fill="rgb(165,205,59)" transform="translate(0,0)"></path>
<path d="M 1634.26 1302.5 C 1646.05 1302.31 1667.14 1301.2 1677.92 1302.47 L 1679.19 1304.18 C 1679.31 1307.66 1679.91 1307.72 1678.38 1310.08 C 1673.81 1311.64 1666.97 1311.02 1661.92 1310.88 C 1654.14 1311 1622.54 1312.88 1618.51 1308.5 L 1619.2 1306.48 C 1624.35 1301.93 1627.22 1302.68 1634.26 1302.5 z" fill="rgb(165,205,59)" transform="translate(0,0)"></path>
<path d="M 1021.31 1011.23 C 1027.71 1009.14 1034.61 1012.55 1036.84 1018.91 C 1039.07 1025.26 1035.82 1032.24 1029.52 1034.61 C 1025.31 1036.2 1020.58 1035.38 1017.14 1032.48 C 1013.71 1029.58 1012.11 1025.04 1012.98 1020.63 C 1013.84 1016.22 1017.03 1012.62 1021.31 1011.23 z" fill="rgb(254,254,254)" transform="translate(0,0)"></path>
<path d="M 299.002 1023.3 L 317.909 1023.19 C 318.074 1026.87 318.812 1032.46 316.903 1035.11 C 310.524 1035.28 299.856 1037.42 296.786 1031.32 C 296.999 1027.45 297.357 1026.84 299.002 1023.3 z" fill="rgb(165,205,59)" transform="translate(0,0)"></path>
<path d="M 598.794 1004.37 C 605.601 1004.17 622.359 1003.17 628.05 1005.08 C 629.48 1007.69 629.055 1006.24 628.644 1009.72 L 626.25 1010.29 C 619.142 1010.09 600.946 1011.55 596.005 1008.62 L 596.068 1006.85 L 598.794 1004.37 z" fill="rgb(26,84,128)" transform="translate(0,0)"></path>
<path d="M 1447.99 769.645 L 1447.6 771.49 C 1450.06 774.22 1451.39 775.286 1452.6 778.731 L 1451.78 779.151 C 1447.58 775.257 1443.87 772.8 1439.97 768.958 L 1440.56 767.892 L 1444.89 769.29 L 1445.59 768.838 C 1443.78 767.454 1442.04 766.205 1440.18 764.89 C 1439.69 761.099 1440.52 762.719 1442.78 758.985 C 1442.78 758.989 1441.87 754.886 1441.92 753.466 L 1442.13 755.756 L 1444.16 754.896 C 1447.25 758.677 1450.31 762.482 1453.35 766.311 L 1451.21 766.102 C 1449.86 767.342 1448.5 768.158 1447.99 769.645 z" fill="rgb(98,54,49)" transform="translate(0,0)"></path>
<path d="M 1022.84 957.225 L 1025.47 958.479 C 1027.77 964.44 1026.74 982.787 1026.57 989.838 L 1024.14 989.083 C 1021.39 985.387 1022.4 962.834 1022.84 957.225 z" fill="rgb(254,254,254)" transform="translate(0,0)"></path>
<path d="M 1621.35 707.768 C 1621.91 704.15 1621.34 703.771 1623.34 701.476 L 1625.97 701.947 C 1629.52 705.874 1635.08 703.82 1640.09 702.969 C 1636 712.437 1629.66 712.522 1621.35 707.768 z" fill="rgb(153,84,58)" transform="translate(0,0)"></path>
<path d="M 445.892 801.929 C 451.077 805.221 452.419 808.855 450.459 814.64 C 443.995 813.39 442.967 807.073 445.892 801.929 z" fill="rgb(153,84,58)" transform="translate(0,0)"></path>
<path d="M 1477.38 777.505 C 1475.34 773.623 1473.01 769.595 1475.58 765.509 C 1478.36 766.896 1477.76 767.071 1479.66 770.326 L 1481.22 774.925 L 1477.38 777.505 z" fill="rgb(98,54,49)" transform="translate(0,0)"></path>
<path d="M 162.837 991.734 C 157.03 967.121 148.958 941.933 163.04 918.175 C 168.291 909.316 176.762 902.78 186.888 900.483 C 196.834 898.137 207.305 899.902 215.933 905.378 C 244.714 923.881 237.425 965.445 228.053 992.548 C 279.911 995.212 261.552 1038.87 246.856 1068.15 C 298.82 1066.08 277.728 1123.91 255.536 1145.87 C 239.253 1161.98 220.914 1167.85 201.221 1177.94 L 200.976 1224.94 C 208.509 1224.84 230.431 1223.3 235.684 1227.42 C 240.382 1237.05 231.477 1296.39 229.633 1310.99 C 229.058 1314.34 229.193 1314.87 226.993 1317.24 C 220.441 1318.02 172.601 1317.98 166.137 1317.22 L 165.03 1315.04 C 165.171 1312.62 165.437 1310.58 164.616 1308.24 C 163.533 1297.49 154.38 1232.91 158.722 1227.33 C 160.384 1225.19 164.938 1224.95 167.496 1224.77 C 176.267 1224.17 185.271 1224.9 194.067 1224.91 L 194.071 1179.08 C 163.739 1164.86 134.419 1154.59 122.425 1119.8 C 113.319 1093.39 114.738 1070.92 147.566 1067.61 C 145.46 1063.58 142.897 1059.18 140.537 1055.29 C 124.2 1028.32 122.989 993.689 162.837 991.734 z" fill="rgb(0,43,73)" transform="translate(0,0)"></path>
<path d="M 195.005 1171.23 C 182.089 1165.52 168.975 1160.2 157.072 1152.47 C 138.298 1140.27 125.602 1119.06 125.064 1096.54 C 124.862 1088.09 126.342 1080.1 135.043 1077.01 C 141.938 1074.16 150.97 1077.58 156.738 1075.05 C 158.598 1069.26 129.199 1030.6 138.29 1013.03 C 148.758 992.794 161.515 1003.55 170.183 997.957 C 171.057 993.037 166.068 974.765 164.645 969.432 C 157.481 942.582 165.25 899.863 201.559 906.963 C 234.459 913.396 233.184 958.474 224.137 982.322 C 222.593 986.39 220.748 993.849 222.58 997.643 C 234.174 1003.02 246.595 996.152 254.319 1013.44 C 263.799 1034.67 240.025 1054.7 240.63 1071.12 C 241.47 1072.72 242.773 1075.2 244.809 1075.08 C 263.03 1074 276.763 1079.17 271.857 1102.69 C 263.942 1140.63 232.408 1156.86 199.039 1170.39 C 198.978 1163.11 199.074 1154.95 198.827 1147.74 C 199.405 1133.54 200.059 1026.67 197.894 1019.87 L 196.566 1019.29 C 194.073 1023.12 195.135 1123.56 195.055 1135.58 L 194.365 1135.99 C 187.581 1129.1 166.787 1104.53 159.087 1103.46 C 159.631 1105.04 189.918 1136 193.592 1139.86 C 196.135 1144.01 195.09 1165.27 195.005 1171.23 z" fill="rgb(165,205,59)" transform="translate(0,0)"></path>
<path d="M 234.669 1101.81 L 235.535 1103.3 C 234.466 1107.75 218.571 1124.37 214.747 1128.57 L 213.641 1127.42 C 213.962 1122.88 230.723 1105.72 234.669 1101.81 z" fill="rgb(0,43,73)" transform="translate(0,0)"></path>
<path d="M 164.591 1232.22 C 186.026 1231.65 209.702 1232.16 231.312 1232.18 C 229.029 1255.54 225.771 1280.26 223.184 1303.77 C 222.864 1308.02 223.531 1307.5 221.455 1310.55 C 212.887 1311.78 182.559 1311.1 172.225 1311.09 C 171.181 1286.7 166.962 1256.98 164.591 1232.22 z" fill="rgb(0,191,242)" transform="translate(0,0)"></path>
<path d="M 1883.81 1310.38 C 1895.48 1310.6 1957.38 1308.3 1963.69 1312.33 C 1965 1315.69 1965.11 1314.17 1963.95 1317.07 C 1956.86 1321.36 1908.82 1317.48 1898.46 1318.91 C 1896.99 1319.11 1884.65 1318.6 1882.8 1318.32 L 1883.81 1310.38 z" fill="rgb(26,84,128)" transform="translate(0,0)"></path>
<path d="M 1052.98 192.993 C 1062.5 192.237 1129.44 192.306 1133.42 194.243 C 1135.13 197.371 1134.74 196.032 1134.27 199.992 C 1126.19 200.946 1059.58 201.105 1054.81 199.631 C 1052.62 196.875 1053.33 197.237 1052.98 192.993 z" fill="rgb(0,43,73)" transform="translate(0,0)"></path>
<path d="M 1095.09 221.161 C 1103.43 221.123 1133.17 218.309 1137.8 223.93 L 1137.24 228.002 C 1128.71 228.049 1099.18 230.831 1094.52 225.03 L 1095.09 221.161 z" fill="rgb(0,43,73)" transform="translate(0,0)"></path>
<path d="M 1156.78 192.935 C 1160.61 193.215 1161.76 193.45 1163.95 196.377 C 1162.83 199.926 1163.48 198.684 1160.03 201.252 C 1155.93 200.643 1153.44 200.779 1151.87 196.69 C 1153.82 193.767 1153.2 194.678 1156.78 192.935 z" fill="rgb(0,43,73)" transform="translate(0,0)"></path>
<metadata><recraft-signature>{"signed_by": "recraft", "signature_b64": "owc2YMkZ3i4a/L2KJPcqnoTldOPHU1HytgCRX7jQy3h8Mb0Pt4LqWkuyXyVDALDHZrH0XYbdcTfv3J+upvYQDg==", "signing_algo": "Ed25519", "generation_timestamp": 1776428637, "identifier": "41f27ed9-745f-4de3-9a04-9c0e0b1c52da"}</recraft-signature></metadata></svg>